<svg width="158" height="310" fill="none" xmlns="http://www.w3.org/2000/svg"><path d="M-86.784 260.904c-15.265-10.26-23.62-18.366-32.14-32.787-18.481-31.29 2.268-41.065 13.663-43.295 24.52-4.792-21.024-41.143 5.23-59.525 20.605-14.426 39.078-3.945 51.708-11.55 18.312-11.021 4.197-24.234 12.935-38.146 18.217-29 41.835 4.466 54.752-15.903 12.922-20.364 34.181-42.533 50.54-31.539 16.353 10.998 3.815 39.033-10.192 58.665-14.006 19.632 17.802 24.163 5.896 56.672-8.4 22.919-41.342 8.033-44.657 29.135-2.288 14.562 28.563 24.922 22.95 49.425-7.146 31.231-58.01 2.769-53.206 27.273 2.233 11.392.985 34.278-34.981 28.962-16.572-2.445-27.234-7.126-42.498-17.387z" fill="#24C6D0"/><path d="M-80.872 254.352a.254.254 0 01-.018-.3L61.106 40.793a.25.25 0 01.341-.068.242.242 0 01.069.341L-80.48 254.325a.25.25 0 01-.392.027z" fill="#fff"/><path d="M3.132 128.188a.118.118 0 01-.023-.035l-24.847-40.67a.245.245 0 01.08-.337.252.252 0 01.338.08l24.848 40.67a.245.245 0 01-.08.338.235.235 0 01-.316-.046zm9.653-15.299l-.023-.026L-7.63 80.07a.25.25 0 01.077-.342.244.244 0 01.338.08l20.392 32.793a.25.25 0 01-.077.342.245.245 0 01-.315-.054zm29.366-43.302a.255.255 0 01-.053-.216l6.405-29.531a.244.244 0 01.293-.189c.134.031.22.158.188.293L42.58 69.475a.244.244 0 01-.293.189.197.197 0 01-.135-.077zM27.012 92.325a.159.159 0 01-.03-.043l-8.726-15.835a.247.247 0 01.098-.336.246.246 0 01.336.097l8.726 15.834a.247.247 0 01-.097.337.244.244 0 01-.307-.054zm-80.307 120.611a.231.231 0 01-.056-.183.255.255 0 01.267-.228l69.132 5.996a.254.254 0 01.228.267.254.254 0 01-.267.227l-69.133-5.995a.232.232 0 01-.171-.084zm18.161-27.326a.231.231 0 01-.056-.183.249.249 0 01.27-.223l35.263 3.137a.249.249 0 01.223.271.249.249 0 01-.271.223l-35.262-3.138a.266.266 0 01-.167-.087zm13.241-19.547a.245.245 0 01-.06-.134.25.25 0 01.221-.272l25.3-2.77a.251.251 0 01.273.221.25.25 0 01-.221.272l-25.3 2.77a.266.266 0 01-.213-.087zm18.395-27.81a.252.252 0 01-.06-.187.255.255 0 01.271-.223l42.94 4.453a.254.254 0 01.222.27.255.255 0 01-.27.224l-42.94-4.453a.245.245 0 01-.163-.084zm12.104-17.978a.251.251 0 01.187-.413l37.997-.568a.25.25 0 01.25.24.25.25 0 01-.244.254l-37.998.568a.225.225 0 01-.192-.081zm13.328-20.32a.27.27 0 01-.06-.141.251.251 0 01.225-.269l20.318-1.716a.25.25 0 01.269.225.251.251 0 01-.225.268l-20.318 1.716a.236.236 0 01-.21-.083zm9.811-14.573a.236.236 0 01-.044-.078.244.244 0 01.154-.316l19.468-6.924a.244.244 0 01.311.15.244.244 0 01-.154.314l-19.467 6.925a.239.239 0 01-.268-.071zm15.414-23.319a.322.322 0 01-.051-.086.242.242 0 01.161-.307l13.597-4.3a.242.242 0 01.306.162.242.242 0 01-.161.306l-13.597 4.3a.237.237 0 01-.255-.075z" fill="#fff"/></svg>