<svg width="55" height="262" fill="none" xmlns="http://www.w3.org/2000/svg"><path d="M81.29 208.138s-19.936.327-29.008-9.551c-9.071-9.879-9.842-21.893.69-18.208 20 6.99 28.318 27.759 28.318 27.759zm-6.665-51.265s-18.242 8.06-30.439 2.491c-12.197-5.573-17.565-16.341-6.431-17.043 21.145-1.345 36.87 14.552 36.87 14.552zM56.47 126.664s15.708-10.569 17.42-23.191c1.71-12.621-4.195-22.389-10.398-13.809-11.794 16.313-7.021 37-7.021 37z" fill="#3FBEA9"/><path d="M56.494 126.646s-16.32 7.212-27.232 2.229c-10.912-4.984-15.714-14.617-5.754-15.248 18.92-1.205 32.986 13.019 32.986 13.019zM37.866 99.443s16.747-8.825 19.802-21.184c3.055-12.364-1.77-22.71-8.861-14.844-13.47 14.95-10.94 36.028-10.94 36.028z" fill="#3FBEA9"/><path d="M37.89 99.432s-17 5.422-27.315-.708c-10.316-6.13-14.06-16.219-4.089-15.78C25.43 83.78 37.89 99.432 37.89 99.432zM27.06 65.743s14.258-2.732 19.258-11.119 3.768-17.067-3.19-12.873C29.905 49.71 27.06 65.743 27.06 65.743z" fill="#3FBEA9"/><path d="M27.153 65.737s-15.14.292-21.946-7.118c-6.811-7.416-7.296-16.453.666-13.704 15.135 5.217 21.28 20.822 21.28 20.822zm1.116-31.455s9.62-6.2 10.806-13.81c1.186-7.609-2.266-13.586-6.122-8.468-7.319 9.72-4.684 22.278-4.684 22.278zm-9.13-16.775s1.22-7.767-.994-13.078c-2.745-6.585-10-5.83-8.837 2.287 1.296 9.008 9.83 10.791 9.83 10.791z" fill="#3FBEA9"/><path d="M28.42 34.206s-9.976 4.252-16.484 1.158c-6.507-3.1-9.247-8.972-3.218-9.282 11.443-.597 19.703 8.124 19.703 8.124z" fill="#3FBEA9"/><path d="M74.1 261.438l-.952-.228a303.58 303.58 0 004.9-24.659c1.508-9.744 2.43-19.201 2.746-28.103.374-10.546-.076-20.103-1.367-29.215-1.437-10.119-3.931-19.383-7.424-27.542-3.809-8.902-9.335-16.166-15.188-23.863-.823-1.088-1.653-2.176-2.482-3.276-5.59-7.428-12.77-17.33-18.704-28.086-4.03-7.31-6.478-13.107-7.933-18.803-1.121-4.387-1.513-8.668-1.162-12.722.21-2.445.713-4.866 1.192-7.205.163-.796.327-1.591.479-2.387 2.184-11.358.45-22.915-4.755-31.712-1.385-2.34-3.003-4.393-4.796-6.106l.677-.714c1.864 1.773 3.535 3.901 4.966 6.317 5.327 8.995 7.103 20.804 4.877 32.397-.152.8-.321 1.596-.485 2.398-.479 2.316-.97 4.708-1.174 7.094-.339 3.942.041 8.112 1.133 12.394 1.431 5.609 3.85 11.335 7.84 18.57 5.905 10.703 13.055 20.57 18.627 27.975.83 1.099 1.654 2.187 2.483 3.269 5.888 7.744 11.455 15.061 15.31 24.074 3.528 8.235 6.046 17.587 7.495 27.793 1.302 9.171 1.752 18.781 1.378 29.385-.315 8.943-1.238 18.435-2.751 28.22a312.065 312.065 0 01-4.93 24.735z" fill="#3FBEA9"/></svg>