<svg width="24" height="24" fill="none" xmlns="http://www.w3.org/2000/svg"><path d="M23.956 5.691a1.2 1.2 0 0 0-2.2-.288l-.2.348a.4.4 0 0 0-.544.144l-1.015 1.732-.348-.2a.4.4 0 1 0-.4.692l.348.2-3.4 5.89-.84 2.244-.4.748a1.2 1.2 0 0 0 .064 1.296l-.9 1.104-.251-.632a.8.8 0 0 0-1.428-.112l-.144.244-.136-1.6a.8.8 0 0 0-1.556-.188l-.984 2.952a.4.4 0 0 0 .252.504.36.36 0 0 0 .124.032.4.4 0 0 0 .38-.272l.98-2.952.14 1.624a.8.8 0 0 0 1.484.344l.148-.244.248.628a.8.8 0 0 0 1.367.204l.932-1.18c.104.027.21.04.316.04a1.2 1.2 0 0 0 1.044-.592l.4-.668 1.524-1.852 3.435-5.963.348.2a.4.4 0 0 1 .148.548l-1.6 2.772a.4.4 0 0 0 .128.564.4.4 0 0 0 .548-.148l1.6-2.772a1.199 1.199 0 0 0-.44-1.64l-.348-.2 1-1.731a.4.4 0 0 0-.144-.544l.2-.348a1.2 1.2 0 0 0 .12-.928zm-1.508.112a.4.4 0 0 1 .548-.148.4.4 0 0 1 .148.548l-.2.348-.696-.4.2-.348zm-5.45 11.166l-.2-.116-.593-.344.568-1.52 1.26.728-1.036 1.252zm-1.2 1.156a.4.4 0 0 1-.12-.524l.2-.348.695.4-.2.344a.4.4 0 0 1-.576.128zm2.69-3.063l-1.383-.8 3.2-5.543 1.383.8-3.2 5.543zm3.6-6.235l-1.384-.8.8-1.384 1.384.8-.8 1.384zM6.31 17.925l-1.415 1.412-.848-.848a.4.4 0 1 0-.564.568l.848.848a.8.8 0 0 0 .564.232.8.8 0 0 0 .568-.232l1.412-1.416a.4.4 0 0 0-.564-.564z" fill="#548FCC"/><path d="M1.6 19a3.4 3.4 0 1 0 6.799 0 .4.4 0 1 0-.8 0 2.6 2.6 0 1 1-1.04-2.079.4.4 0 1 0 .48-.64 3.4 3.4 0 0 0-5.44 2.72zM14.398 3.203a.4.4 0 1 0 0-.8H3.999a.4.4 0 0 0-.4.4v1.6c0 .221.18.4.4.4h10.399a.4.4 0 1 0 0-.8H4.399v-.8h9.999zM5.2 5.603a.4.4 0 0 0 0 .8h7.998a.4.4 0 1 0 0-.8H5.199zm10.397 2.8H6.8a.4.4 0 0 0 0 .8h8.798a.4.4 0 1 0 0-.8zm-3.999 2.799a.4.4 0 0 0-.4-.4H3.2a.4.4 0 0 0 0 .8h8a.4.4 0 0 0 .399-.4zm3.999-.4h-2.8a.4.4 0 0 0 0 .8h2.8a.4.4 0 1 0 0-.8zm-8.398 2.8a.4.4 0 1 0 0-.8h-4a.4.4 0 1 0 0 .8h4zm1.6 0h2.799a.4.4 0 1 0 0-.8h-2.8a.4.4 0 1 0 0 .8z" fill="#548FCC"/><path d="M17.997 18.4a.4.4 0 0 0-.4.4v4a.4.4 0 0 1-.4.4H1.2a.4.4 0 0 1-.4-.4V1.204a.4.4 0 0 1 .4-.4h15.997a.4.4 0 0 1 .4.4v7.51a.4.4 0 0 0 .8 0v-7.51a1.2 1.2 0 0 0-1.2-1.2H1.2a1.2 1.2 0 0 0-1.2 1.2V22.8A1.2 1.2 0 0 0 1.2 24h15.997a1.2 1.2 0 0 0 1.2-1.2v-4a.4.4 0 0 0-.4-.4z" fill="#548FCC"/></svg>