<svg width="24" height="24" fill="none" xmlns="http://www.w3.org/2000/svg"><path d="M22.316 13.335h-1.85V9.513a1.22 1.22 0 0 0-1.218-1.218H9.138a1.22 1.22 0 0 0-1.219 1.218v3.822H6.07c-.67 0-1.215.535-1.215 1.193v6.777a1.027 1.027 0 0 0 2.053 0v-2.257h14.558v2.25a1.034 1.034 0 0 0 2.066 0v-6.77c0-.658-.545-1.193-1.215-1.193zm-16.9 5.15v-.836H22.97v.837H5.417zm3.066-8.972a.657.657 0 0 1 .656-.656h10.11a.657.657 0 0 1 .656.656v3.822h-.67v-1.082c0-.658-.545-1.193-1.216-1.193h-2.274c-.67 0-1.216.535-1.216 1.193v1.082h-.67v-1.082c0-.658-.546-1.193-1.216-1.193h-2.275c-.67 0-1.215.535-1.215 1.193v1.082h-.67V9.512zm6.609 3.822v-1.082a.643.643 0 0 1 .653-.63h2.275a.643.643 0 0 1 .653.63v1.082H15.09zm-5.377 0v-1.082a.643.643 0 0 1 .653-.63h2.275a.643.643 0 0 1 .653.63v1.082h-3.58zm-3.644.562h16.246a.643.643 0 0 1 .653.63v2.56H5.417v-2.56a.643.643 0 0 1 .653-.63zm.275 7.408a.464.464 0 0 1-.928 0v-2.257h.928v2.257zm16.153.445a.463.463 0 0 1-.47-.452v-2.25h.94v2.25a.463.463 0 0 1-.47.452z" fill="#548FCC"/><path d="M3.827 21.539h-.65V10.575H5a.32.32 0 0 0 .292-.452L4.156 7.637a.321.321 0 0 0-.292-.187H1.926a.321.321 0 0 0-.291.187L.498 10.123a.32.32 0 0 0 .291.452h.669v.836a.515.515 0 0 0 .281.952.523.523 0 0 0 .523-.517.515.515 0 0 0-.242-.435v-.836h.594v10.964h-.65a.281.281 0 0 0 0 .563h1.863a.281.281 0 1 0 0-.563zm-2.088-9.647a.043.043 0 0 1-.04-.046.05.05 0 0 1 .003-.016.294.294 0 0 0 .075 0l.002.016a.043.043 0 0 1-.04.046zm.342-3.88H3.71l.914 2H1.167l.914-2zM8.65 1.687a.281.281 0 0 0-.282.281v4.768a.281.281 0 0 0 .281.28h11.087a.281.281 0 0 0 .282-.28V1.968a.281.281 0 0 0-.282-.28H8.65zm6.525 4.767l-.04-.043 1.313-1.106 1.227 1.15h-2.5zm-4.275 0l1.816-1.796 1.687 1.796H10.9zm8.555 0h-.957l-1.848-1.73a.281.281 0 0 0-.373-.01L14.749 6l-1.82-1.938a.281.281 0 0 0-.404-.007L10.1 6.454H8.93V2.25h10.525v4.205z" fill="#548FCC"/><path d="M14.758 4.865c.527 0 .955-.458.955-1.02 0-.563-.428-1.02-.955-1.02-.527 0-.955.457-.955 1.02 0 .562.428 1.02.955 1.02zm0-1.478c.217 0 .393.205.393.458 0 .252-.176.458-.393.458-.217 0-.393-.206-.393-.458 0-.253.176-.458.393-.458z" fill="#548FCC"/></svg>