<svg width="24" height="24" fill="none" xmlns="http://www.w3.org/2000/svg"><path d="M23.625 4.313H.375A.375.375 0 0 0 0 4.688v13.5c0 .207.168.375.375.375h1.126v.75c0 .207.167.375.375.375h3.75A.375.375 0 0 0 6 19.313v-.75h11.998v.75c0 .207.168.375.375.375h3.75a.375.375 0 0 0 .375-.375v-.75h1.126a.375.375 0 0 0 .375-.375v-13.5a.375.375 0 0 0-.375-.375zM5.251 18.938h-3v-.375h3v.375zm16.498 0h-3v-.375h3v.375zm1.501-1.125H.75V5.063h22.5v12.75z" fill="#548FCC"/><path d="M1.875 17.063h15.75a.375.375 0 0 0 .375-.375v-10.5a.375.375 0 0 0-.375-.375H1.875a.375.375 0 0 0-.375.375v10.5c0 .207.168.375.375.375zm15-6.75h.375v2.25h-.375v-2.25zM2.25 6.563h15v3h-.75a.375.375 0 0 0-.375.375v3c0 .208.168.375.375.375h.75v3h-15v-9.75zm16.886 4.501h-.005a.373.373 0 0 0-.372.375.377.377 0 0 0 .752 0 .375.375 0 0 0-.375-.375zm1.5 0h-.004a.373.373 0 0 0-.373.375.377.377 0 0 0 .752 0 .375.375 0 0 0-.375-.375zm1.5 0h-.003a.373.373 0 0 0-.373.375.376.376 0 0 0 .752 0 .375.375 0 0 0-.376-.375zm-3 1.5h-.005a.373.373 0 0 0-.372.375.376.376 0 0 0 .752 0 .375.375 0 0 0-.375-.375zm1.5 0h-.004a.373.373 0 0 0-.373.375.376.376 0 0 0 .752 0 .375.375 0 0 0-.375-.375zm1.5 0h-.003a.373.373 0 0 0-.373.375.376.376 0 0 0 .752 0 .375.375 0 0 0-.376-.375zm-3 1.501h-.005a.373.373 0 0 0-.372.375.376.376 0 0 0 .752 0 .375.375 0 0 0-.375-.375zm1.5 0h-.004a.373.373 0 0 0-.373.375.376.376 0 0 0 .752 0 .375.375 0 0 0-.375-.375zm1.5 0h-.003a.373.373 0 0 0-.373.375.376.376 0 0 0 .752 0 .375.375 0 0 0-.376-.375zm-3.012-3.751h3a.375.375 0 0 0 .376-.375V8.063a.375.375 0 0 0-.375-.375h-3a.375.375 0 0 0-.376.375V9.94c0 .207.168.375.375.375zm.375-1.876h2.25v1.126H19.5V8.438z" fill="#548FCC"/></svg>