<svg width="24" height="24" fill="none" xmlns="http://www.w3.org/2000/svg"><g clip-path="url(#clip0)"><path d="M23.984 19.753a1.842 1.842 0 0 0-.913-1.364l-5.92-3.41a1.858 1.858 0 0 0-2.238.297l-1.166 1.166a.855.855 0 0 1-1.142.064 33.707 33.707 0 0 1-2.69-2.42 33.726 33.726 0 0 1-2.42-2.69.855.855 0 0 1 .063-1.143l1.167-1.166A1.858 1.858 0 0 0 9.02 6.85L5.611.93A1.841 1.841 0 0 0 4.247.015a1.84 1.84 0 0 0-1.555.527L.935 2.301C-.29 3.527-.31 5.77.88 8.618c1.145 2.738 3.281 5.752 6.016 8.486 2.735 2.735 5.749 4.872 8.486 6.017 1.402.586 2.657.879 3.717.879 1.093 0 1.978-.312 2.6-.935l1.758-1.757a1.84 1.84 0 0 0 .527-1.555zm-7.222-4.1l5.921 3.41c.293.168.486.457.53.792.038.281-.035.558-.2.78l-7.87-4.49.32-.32a1.08 1.08 0 0 1 1.3-.171zM4.145.788c.335.044.624.237.793.53l3.409 5.921c.242.421.171.956-.172 1.3l-.294.293L3.366.988a1.064 1.064 0 0 1 .78-.201zM21.15 22.515c-.974.975-2.967.934-5.468-.112-2.646-1.106-5.571-3.184-8.236-5.848-2.665-2.665-4.742-5.59-5.849-8.237C.551 5.818.511 3.825 1.485 2.85l1.304-1.304L7.313 9.4l-.303.304a1.631 1.631 0 0 0-.12 2.179c.757.94 1.59 1.867 2.476 2.753a34.488 34.488 0 0 0 2.752 2.476 1.632 1.632 0 0 0 2.18-.12l.276-.277 7.88 4.497-1.303 1.303z" fill="#548FCC"/></g><defs><clipPath id="clip0"><path fill="#fff" d="M0 0h24v24H0z"/></clipPath></defs></svg>