<svg width="24" height="24" fill="none" xmlns="http://www.w3.org/2000/svg"><path d="M19.464.906H4.536a.328.328 0 0 0-.328.328v21.532a.328.328 0 0 0 .328.328h14.928a.328.328 0 0 0 .328-.328V1.234a.328.328 0 0 0-.328-.328zm-.328 14.563h-6.808V1.562h6.808V15.47zM11.672 1.562V15.47H4.864V1.562h6.808zM4.864 22.438v-6.313h14.272v6.313H4.864z" fill="#548FCC"/><path d="M13.125 13.023a.328.328 0 0 0 .328-.328v-8.36a.328.328 0 1 0-.656 0v8.36a.328.328 0 0 0 .328.328zm-2.25 0a.328.328 0 0 0 .328-.328v-8.36a.328.328 0 1 0-.656 0v8.36a.328.328 0 0 0 .328.328zm3 3.571h-3.75a.328.328 0 1 0 0 .656h3.75a.328.328 0 0 0 0-.656zm-7.669-3.571h3a.328.328 0 0 0 .328-.328v-3.75a.328.328 0 0 0-.328-.328h-3a.328.328 0 0 0-.328.328v3.75a.329.329 0 0 0 .328.328zm.328-3.75h.844v.797a.328.328 0 1 0 .656 0v-.797h.844v3.094H6.534V9.273z" fill="#548FCC"/></svg>