<svg width="16" height="16" fill="none" xmlns="http://www.w3.org/2000/svg"><path d="M2.904 8.78c1.373.452 3.186.702 5.105.702 1.92 0 3.73-.247 5.096-.694 1.43-.469 2.217-1.118 2.217-1.829 0-.603-.553-1.05-1.016-1.32-.595-.344-1.442-.637-2.452-.846l-.146-2.689a1.033 1.033 0 0 0-1.277-.948l-1.472.36a4.06 4.06 0 0 1-1.918 0l-1.472-.36a1.033 1.033 0 0 0-1.277.948l-.145 2.674-.026.006c-1.004.21-1.848.505-2.443.854-.654.385-1 .835-1 1.304 0 .711.79 1.363 2.226 1.837zm1.763-6.656a.658.658 0 0 1 .813-.604l1.472.36a4.435 4.435 0 0 0 2.096 0l1.472-.36a.658.658 0 0 1 .813.604l.212 3.886-.96.298a8.324 8.324 0 0 1-5.172 0l-.958-.298.212-3.886zm-.541 3.043l-.053.968a.188.188 0 0 0 .131.19l1.095.34a8.674 8.674 0 0 0 5.4 0l1.097-.34a.188.188 0 0 0 .131-.19l-.052-.954c1.871.402 3.072 1.094 3.072 1.778 0 .528-.714 1.064-1.96 1.473-1.328.435-3.096.675-4.979.675-1.88 0-3.65-.243-4.987-.684-1.25-.413-1.968-.953-1.968-1.481 0-.68 1.203-1.374 3.073-1.775zm6.682 9.707a2.414 2.414 0 1 0-1.825-3.99c-.359-.266-.667-.386-.981-.386-.31 0-.614.117-.966.375a2.41 2.41 0 1 0 .224.3c.555-.407.943-.403 1.5.012a2.411 2.411 0 0 0 2.049 3.689zm-5.588-.375a2.038 2.038 0 1 1 0-4.077 2.038 2.038 0 0 1 0 4.077zm5.588-4.077a2.039 2.039 0 1 1 0 4.078 2.039 2.039 0 0 1 0-4.078z" fill="#fff"/></svg>