<svg width="16" height="16" fill="none" xmlns="http://www.w3.org/2000/svg"><g clip-path="url(#clip0)" fill="#fff"><path d="M8 0a5.436 5.436 0 0 0-5.43 5.43c0 1.203.708 3.033 2.23 5.759a61.868 61.868 0 0 0 2.114 3.496l.746 1.132a.407.407 0 0 0 .68 0l.746-1.132a61.194 61.194 0 0 0 2.115-3.496c1.52-2.726 2.23-4.556 2.23-5.759A5.436 5.436 0 0 0 8 0zm2.49 10.792a60.29 60.29 0 0 1-2.083 3.445L8 14.854l-.407-.617a60.95 60.95 0 0 1-2.083-3.445C4.099 8.264 3.384 6.46 3.384 5.43A4.622 4.622 0 0 1 8 .814a4.622 4.622 0 0 1 4.616 4.616c0 1.03-.715 2.834-2.126 5.362z"/><path d="M8 2.385a3.014 3.014 0 0 0-3.01 3.011c0 1.66 1.35 3.01 3.01 3.01 1.66 0 3.01-1.35 3.01-3.01 0-1.66-1.35-3.01-3.01-3.01zm0 5.208a2.2 2.2 0 0 1-2.197-2.197A2.2 2.2 0 0 1 8 3.2a2.2 2.2 0 0 1 2.197 2.197A2.2 2.2 0 0 1 8 7.593z"/></g><defs><clipPath id="clip0"><path fill="#fff" d="M0 0h16v16H0z"/></clipPath></defs></svg>