<svg width="1366" height="17" fill="none" xmlns="http://www.w3.org/2000/svg"><path d="M1366 0c-11.4 0-11.4 5.947-22.8 5.947S1331.8 0 1320.4 0s-11.4 5.947-22.77 5.947c-11.4 0-11.4-5.947-22.78-5.947-11.4 0-11.4 5.947-22.77 5.947C1240.7 5.947 1240.7 0 1229.3 0c-11.37 0-11.37 5.947-22.77 5.947-11.38 0-11.38-5.947-22.78-5.947-11.37 0-11.37 5.947-22.77 5.947S1149.58 0 1138.2 0c-11.37 0-11.37 5.947-22.77 5.947-11.38 0-11.38-5.947-22.78-5.947-11.37 0-11.37 5.947-22.77 5.947C1058.5 5.947 1058.5 0 1047.1 0c-11.37 0-11.37 5.947-22.77 5.947-11.38 0-11.38-5.947-22.78-5.947-11.374 0-11.374 5.947-22.774 5.947C967.401 5.947 967.401 0 956.001 0c-11.375 0-11.375 5.947-22.775 5.947-11.375 0-11.375-5.947-22.75-5.947s-11.375 5.947-22.775 5.947C876.326 5.947 876.326 0 864.951 0s-11.375 5.947-22.775 5.947C830.801 5.947 830.801 0 819.401 0c-11.375 0-11.375 5.947-22.775 5.947C785.251 5.947 785.251 0 773.851 0c-11.375 0-11.375 5.947-22.775 5.947C739.701 5.947 739.701 0 728.302 0c-11.376 0-11.376 5.947-22.775 5.947C694.152 5.947 694.152 0 682.752 0c-11.375 0-11.375 5.947-22.775 5.947C648.602 5.947 648.602 0 637.202 0c-11.375 0-11.375 5.947-22.775 5.947C603.052 5.947 603.052 0 591.652 0c-11.375 0-11.375 5.947-22.775 5.947C557.502 5.947 557.502 0 546.102 0c-11.375 0-11.375 5.947-22.775 5.947C511.952 5.947 511.952 0 500.552 0c-11.375 0-11.375 5.947-22.75 5.947S466.427 0 455.027 0c-11.375 0-11.375 5.947-22.775 5.947-11.375 0-11.375-5.947-22.75-5.947s-11.375 5.947-22.75 5.947S375.377 0 363.977 0c-11.375 0-11.375 5.947-22.75 5.947S329.852 0 318.477 0s-11.375 5.947-22.75 5.947S284.352 0 272.952 0c-11.375 0-11.375 5.947-22.75 5.947C238.975 5.947 238.975 0 227.6 0s-11.375 5.947-22.75 5.947c-11.4 0-11.4-5.947-22.775-5.947C170.7 0 170.7 5.947 159.3 5.947 147.925 5.947 147.925 0 136.55 0s-11.375 5.947-22.75 5.947S102.425 0 91.025 0C79.65 0 79.65 5.947 68.275 5.947S56.9 0 45.5 0C34.125 0 34.125 5.947 22.75 5.947S11.375 0 0 0v17h1366V0z" fill="#E5F7F9"/></svg>