<svg width="1366" height="17" fill="none" xmlns="http://www.w3.org/2000/svg"><path d="M0 17c11.4 0 11.4-5.947 22.8-5.947S34.2 17 45.6 17s11.4-5.947 22.775-5.947c11.4 0 11.4 5.947 22.775 5.947 11.399 0 11.399-5.947 22.774-5.947 11.375 0 11.375 5.947 22.775 5.947 11.375 0 11.375-5.947 22.775-5.947 11.375 0 11.375 5.947 22.775 5.947 11.375 0 11.375-5.947 22.775-5.947 11.4 0 11.4 5.947 22.775 5.947 11.375 0 11.375-5.947 22.775-5.947 11.375 0 11.375 5.947 22.775 5.947 11.375 0 11.375-5.947 22.775-5.947 11.375 0 11.375 5.947 22.775 5.947 11.375 0 11.375-5.947 22.775-5.947 11.375 0 11.375 5.947 22.775 5.947 11.375 0 11.375-5.947 22.775-5.947 11.375 0 11.375 5.947 22.775 5.947 11.375 0 11.375-5.947 22.775-5.947 11.375 0 11.375 5.947 22.75 5.947s11.375-5.947 22.775-5.947c11.375 0 11.375 5.947 22.75 5.947s11.375-5.947 22.775-5.947c11.375 0 11.375 5.947 22.775 5.947 11.375 0 11.375-5.947 22.775-5.947 11.375 0 11.375 5.947 22.775 5.947 11.375 0 11.375-5.947 22.775-5.947 11.375 0 11.375 5.947 22.774 5.947 11.376 0 11.376-5.947 22.775-5.947 11.375 0 11.375 5.947 22.775 5.947 11.375 0 11.375-5.947 22.775-5.947 11.375 0 11.375 5.947 22.775 5.947 11.375 0 11.375-5.947 22.775-5.947 11.375 0 11.375 5.947 22.775 5.947 11.375 0 11.375-5.947 22.775-5.947 11.375 0 11.375 5.947 22.775 5.947 11.375 0 11.375-5.947 22.775-5.947 11.375 0 11.375 5.947 22.775 5.947 11.375 0 11.375-5.947 22.75-5.947S899.573 17 910.973 17c11.375 0 11.375-5.947 22.775-5.947 11.375 0 11.375 5.947 22.75 5.947s11.375-5.947 22.75-5.947S990.623 17 1002.02 17c11.38 0 11.38-5.947 22.75-5.947 11.38 0 11.38 5.947 22.75 5.947 11.38 0 11.38-5.947 22.75-5.947 11.38 0 11.38 5.947 22.78 5.947 11.37 0 11.37-5.947 22.75-5.947 11.22 0 11.22 5.947 22.6 5.947 11.37 0 11.37-5.947 22.75-5.947 11.4 0 11.4 5.947 22.77 5.947 11.38 0 11.38-5.947 22.78-5.947 11.37 0 11.37 5.947 22.75 5.947 11.37 0 11.37-5.947 22.75-5.947 11.37 0 11.37 5.947 22.77 5.947 11.38 0 11.38-5.947 22.75-5.947 11.38 0 11.38 5.947 22.78 5.947 11.37 0 11.37-5.947 22.75-5.947 11.37 0 11.37 5.947 22.75 5.947V0H0v17z" fill="#E5F7F9"/></svg>