<svg width="16" height="16" fill="none" xmlns="http://www.w3.org/2000/svg"><g clip-path="url(#clip0)"><path d="M2.24 5.006c-.552 0-1 .392-1 .876V9.63c0 .483.448.876 1 .876.553 0 1.002-.393 1.002-.876V5.882c0-.484-.45-.876-1.001-.876zm7.572-3.663l.875-.873a.274.274 0 0 0 0-.39.277.277 0 0 0-.39 0L9.22 1.156a5.102 5.102 0 0 0-2.415-.002L5.73.08a.277.277 0 0 0-.39 0 .274.274 0 0 0 0 .39l.87.867c-1.452.558-2.46 1.765-2.46 3.169 0 .017 8.513 0 8.513 0 0-1.4-1.003-2.604-2.45-3.163zM6.754 3.507a.5.5 0 1 1-.002-1 .5.5 0 0 1 .002 1zm2.504 0a.5.5 0 1 1-.002-1 .5.5 0 0 1 .002 1zm4.502 1.5c-.553 0-1.002.391-1.002.875V9.63c0 .483.45.876 1.002.876.553 0 1-.393 1-.876V5.882c0-.484-.448-.876-1-.876zM3.749 11a1.5 1.5 0 0 0 1.497 1.498v2.626c0 .484.448.876 1.001.876.553 0 1-.392 1-.876v-2.626h1.505v2.626c0 .484.448.876 1.001.876.553 0 1-.392 1-.876v-2.626h.007A1.5 1.5 0 0 0 12.262 11V5.005H3.75V11z" fill="#555"/></g><defs><clipPath id="clip0"><path fill="#fff" d="M0 0h16v16H0z"/></clipPath></defs></svg>