<svg width="16" height="16" fill="none" xmlns="http://www.w3.org/2000/svg"><g clip-path="url(#clip0)" fill="#555"><path d="M2.137 5.882c-1.353 2.347-.493 5.91 1.003 8.069.747 1.08 1.503 2.05 2.538 2.05l.06-.002c.486-.02.837-.17 1.177-.314.382-.163.776-.33 1.395-.33.59 0 .965.162 1.329.32.358.154.727.314 1.272.304 1.166-.021 1.882-1.067 2.514-1.99.66-.964.99-1.899 1.101-2.256l.005-.014a.131.131 0 0 0-.07-.161l-.01-.005c-.205-.084-2.006-.883-2.025-3.061-.018-1.77 1.351-2.707 1.626-2.877l.013-.008a.131.131 0 0 0 .037-.184c-.945-1.383-2.393-1.591-2.977-1.616a2.623 2.623 0 0 0-.26-.013c-.684 0-1.34.259-1.867.466-.364.144-.679.268-.895.268-.244 0-.56-.126-.926-.27-.49-.195-1.044-.415-1.631-.415h-.042c-1.365.02-2.656.802-3.367 2.039z"/><path d="M11.127 0c-.827.034-1.82.543-2.412 1.237-.504.584-.996 1.557-.867 2.538a.131.131 0 0 0 .12.114c.056.004.113.006.17.006.808 0 1.68-.447 2.276-1.167.627-.76.944-1.737.848-2.611A.132.132 0 0 0 11.127 0z"/></g><defs><clipPath id="clip0"><path fill="#fff" d="M0 0h16v16H0z"/></clipPath></defs></svg>