<svg width="32" height="32" fill="none" xmlns="http://www.w3.org/2000/svg"><path d="M25.909 22.196a.511.511 0 0 1-.353-.14l-5.937-5.57a.515.515 0 1 1 .707-.752l5.937 5.57a.515.515 0 0 1-.354.892zM6.09 22.195a.516.516 0 0 1-.354-.891l5.94-5.57a.516.516 0 0 1 .706.751l-5.94 5.57a.51.51 0 0 1-.352.14z" fill="#77A6F7"/><path d="M29.42 27.374H2.58A2.583 2.583 0 0 1 0 24.794V7.205a2.583 2.583 0 0 1 2.58-2.579h26.84A2.583 2.583 0 0 1 32 7.205v17.59a2.583 2.583 0 0 1-2.58 2.58zM2.58 5.657a1.55 1.55 0 0 0-1.548 1.548v17.59a1.55 1.55 0 0 0 1.548 1.547h26.84a1.55 1.55 0 0 0 1.548-1.547V7.205a1.55 1.55 0 0 0-1.548-1.548H2.58z" fill="#77A6F7"/><path d="M16 18.592c-.686 0-1.372-.228-1.895-.683L.856 6.351a.517.517 0 0 1-.05-.728.52.52 0 0 1 .728-.05l13.25 11.557c.659.575 1.773.575 2.431 0L30.448 5.592a.516.516 0 0 1 .679.778L17.895 17.908c-.524.456-1.209.684-1.895.684z" fill="#77A6F7"/></svg>