<svg width="32" height="32" fill="none" xmlns="http://www.w3.org/2000/svg"><g clip-path="url(#clip0)"><path d="M25.719 32c-1.332 0-2.94-.334-4.708-1.001-3.877-1.462-8.095-4.35-11.877-8.133C5.35 19.083 2.462 14.864.999 10.987-.331 7.462-.334 4.569.99 3.245c.19-.19.385-.395.585-.606C2.784 1.368 4.15-.062 5.96.002 7.208.054 8.417.83 9.655 2.37c3.657 4.548 2.008 6.17.1 8.049l-.337.333c-.312.312-.902 1.758 4.585 7.245 1.79 1.791 3.318 3.102 4.539 3.895.768.5 2.143 1.255 2.707.691l.339-.342c1.877-1.904 3.498-3.548 8.043.107 1.54 1.237 2.314 2.445 2.366 3.694.074 1.81-1.367 3.179-2.64 4.386-.21.2-.414.394-.604.584-.658.659-1.71.989-3.034.989zM5.832 1.076c-1.287 0-2.448 1.223-3.476 2.305-.207.217-.407.428-.604.625-.987.986-.887 3.577.254 6.602 1.41 3.737 4.212 7.82 7.89 11.498 3.676 3.676 7.758 6.478 11.496 7.887 3.025 1.143 5.616 1.24 6.6.255.198-.197.409-.398.626-.603 1.106-1.05 2.36-2.24 2.305-3.562-.038-.907-.699-1.883-1.965-2.9-3.787-3.046-4.846-1.971-6.603-.19l-.344.348c-.84.84-2.203.654-4.055-.549-1.284-.835-2.87-2.194-4.713-4.037-4.554-4.553-6.01-7.34-4.585-8.768L9 9.648c1.786-1.756 2.863-2.817-.184-6.606-1.019-1.265-1.994-1.926-2.902-1.965h-.083z" fill="#77A6F7"/></g><defs><clipPath id="clip0"><path fill="#fff" d="M0 0h32v32H0z"/></clipPath></defs></svg>