<svg width="116" height="216" fill="none" xmlns="http://www.w3.org/2000/svg"><g clip-path="url(#clip0)"><path d="M23.33 21.439L12.124 43.462l23.513-5.376L116 12.746 23.33 21.44z" fill="#ACE6E2"/><path d="M12.125 43.462l39.936-2.488-9.792-4.976-30.144 7.464z" fill="#12D9B8"/><path d="M23.33 21.439L16.33 0l99.671 12.747-92.672 8.692z" fill="url(#paint0_linear)"/><path d="M116.001 12.747l-80.362 25.34 11.971 30.93 68.391-56.27z" fill="url(#paint1_linear)"/><path d="M20.935 65.607a1.5 1.5 0 01-.553-.43c-.675-.768-.614-1.966.184-2.642a52.35 52.35 0 017.89-5.682c.89-.522 2.056-.246 2.578.676.521.89.215 2.058-.676 2.58a48.734 48.734 0 00-7.336 5.283c-.583.491-1.412.553-2.087.215zm26.767 206.066c-.031-.031-.062-.031-.093-.062-5.433-3.194-10.406-7.525-14.764-12.777-.645-.799-.553-1.997.245-2.642a1.86 1.86 0 012.64.246c4.083 4.945 8.718 8.969 13.783 11.948a1.898 1.898 0 01.675 2.58c-.522.83-1.627 1.137-2.486.707zm-20.72-21.746a1.775 1.775 0 01-.768-.738 69.58 69.58 0 01-7.182-18.06 1.876 1.876 0 011.38-2.273 1.875 1.875 0 012.272 1.382 67.545 67.545 0 006.815 17.109c.522.89.184 2.057-.706 2.549-.614.307-1.259.307-1.811.031zm-8.78-28.811a1.783 1.783 0 01-1.012-1.536l-.062-.921c-.307-5.959 0-12.163.952-18.429a1.88 1.88 0 012.149-1.566 1.881 1.881 0 011.565 2.15c-.92 5.989-1.228 11.948-.92 17.661l.06.86c.062 1.044-.705 1.935-1.749 1.996-.338 0-.675-.061-.982-.215zm3.224-30.07c-.768-.399-1.197-1.29-.952-2.15 1.535-5.836 3.653-11.948 6.262-18.183a1.886 1.886 0 012.456-1.014c.92.369 1.412 1.505 1.013 2.458-2.548 6.081-4.604 12.04-6.109 17.691a1.859 1.859 0 01-2.302 1.321c-.123 0-.245-.061-.368-.123zm10.897-28.288a1.848 1.848 0 01-.829-2.488c.215-.399.4-.829.614-1.229a60.785 60.785 0 01-8.196-4.576c-.86-.584-1.105-1.751-.522-2.611.584-.86 1.75-1.106 2.61-.522a58.669 58.669 0 007.827 4.361 313.68 313.68 0 016.753-12.224 1.896 1.896 0 012.579-.676 1.891 1.891 0 01.675 2.58 337.074 337.074 0 00-6.538 11.795c1.75.675 3.53 1.259 5.34 1.781 1.014.307 1.597 1.321 1.32 2.304a1.874 1.874 0 01-2.302 1.321 70.571 70.571 0 01-6.077-2.028c-.246.461-.46.953-.706 1.413-.46.891-1.566 1.26-2.548.799.03 0 .03 0 0 0zm-16.944-15.45a1.88 1.88 0 01-.491-.368 52.808 52.808 0 01-7.398-9.614 53.19 53.19 0 01-3.346-6.757 1.887 1.887 0 011.013-2.457c.952-.4 2.057.061 2.456 1.013a51.707 51.707 0 003.1 6.266c1.903 3.194 4.205 6.174 6.845 8.907a1.855 1.855 0 01-.03 2.642 1.839 1.839 0 01-2.15.368zm37.111 17.108c-.675-.337-1.074-1.044-1.013-1.842.092-1.045.982-1.813 2.026-1.72 6.262.522 12.37.061 18.203-1.413 1.013-.246 2.026.338 2.271 1.351.246 1.014-.368 2.027-1.35 2.273-6.232 1.566-12.77 2.089-19.43 1.505-.277 0-.492-.061-.707-.154zM1.873 120.617c-.522-.246-.89-.737-1.013-1.351-1.106-6.328-1.167-12.901-.185-19.504a1.881 1.881 0 012.15-1.567 1.869 1.869 0 011.565 2.12c-.921 6.204-.86 12.347.184 18.306a1.877 1.877 0 01-1.535 2.18c-.4.062-.798 0-1.167-.184zm80.054 38.332a1.959 1.959 0 01-.828-.829c-.46-.922-.123-2.058.828-2.519a41.379 41.379 0 004.083-2.365 36.436 36.436 0 009.608-9.183c.614-.83 1.78-1.045 2.61-.43.828.614 1.043 1.781.429 2.61a39.693 39.693 0 01-10.621 10.136 44.605 44.605 0 01-4.42 2.55c-.522.307-1.167.276-1.689.03zm-34.686-22.606c-.061-.031-.123-.061-.153-.092a1.88 1.88 0 01-.553-2.611c4.236-6.542 8.104-11.334 12.248-15.081.767-.706 1.964-.614 2.64.123.706.768.644 1.966-.123 2.642-3.868 3.501-7.551 8.047-11.603 14.313-.553.86-1.596 1.136-2.456.706zM4.39 90.67a1.865 1.865 0 01-.921-2.273 60.24 60.24 0 013.468-8.2c1.627-3.195 3.5-6.236 5.618-9.03a1.869 1.869 0 012.64-.37c.828.615.982 1.813.368 2.642-1.995 2.642-3.745 5.498-5.28 8.477a58.561 58.561 0 00-3.254 7.71 1.885 1.885 0 01-2.394 1.167.919.919 0 00-.245-.123zm96.784 45.95c-.768-.4-1.197-1.26-.982-2.12 1.135-4.484.706-8.631-1.228-12.316a14.51 14.51 0 00-2.579-3.533 1.854 1.854 0 01.031-2.641 1.851 1.851 0 012.64.031 18.027 18.027 0 013.192 4.423c2.333 4.453 2.886 9.644 1.535 14.988a1.875 1.875 0 01-2.271 1.383c-.062-.123-.215-.154-.338-.215zm-32.63-21.347a1.87 1.87 0 01-.86-.891c-.43-.952-.03-2.058.922-2.488 6.108-2.826 13.322-3.501 19.798-1.874 1.013.246 1.627 1.291 1.351 2.273-.246 1.014-1.29 1.628-2.271 1.352-5.556-1.413-12.033-.799-17.282 1.628a1.854 1.854 0 01-1.658 0z" fill="#12D9B8"/></g><defs><linearGradient id="paint0_linear" x1="116.005" y1="10.725" x2="16.337" y2="10.725" gradientUnits="userSpaceOnUse"><stop offset="0" stop-color="#F1F8F8"/><stop offset="1" stop-color="#C0E4EF"/></linearGradient><linearGradient id="paint1_linear" x1="116.005" y1="40.89" x2="35.63" y2="40.89" gradientUnits="userSpaceOnUse"><stop offset="0" stop-color="#F1F8F8"/><stop offset="1" stop-color="#C0E4EF"/></linearGradient><clipPath id="clip0"><path fill="#fff" d="M0 0h116v278H0z"/></clipPath></defs></svg>