<svg width="113" height="36" fill="none" xmlns="http://www.w3.org/2000/svg"><g clip-path="url(#clip0)"><path d="M112.15 35.25H2.64s-5.94-7.51 0-12.57c3.28-2.79 7.15-2.5 9.96-1.68 1.83.53 3.66-.7 4.06-2.57.67-3.09 2.72-7.13 8.61-9.52 5.8-2.35 9.47 1.24 11.59 4.92.7 1.21 2.56 1.03 2.98-.3C41.68 7.71 48.08 0 69.13 0c26.77 0 23.8 14.23 21.4 20.15-.42 1.03.46 2.09 1.55 1.86 4.13-.88 11.79-2.03 15.23.67 4.84 3.79 4.84 12.57 4.84 12.57z" fill="#fff"/></g><defs><clipPath id="clip0"><path fill="#fff" d="M0 0h112.15v35.25H0z"/></clipPath></defs></svg>