<svg width="150" height="395" fill="none" xmlns="http://www.w3.org/2000/svg"><path d="M53.189 404.605c.456-3.098.549-6.254.23-9.423-1.288-12.69-8.494-25.229-5.218-37.622 3.332-12.623 16.465-20.971 23.493-32.289 8.525-13.712 7.33-31.009.903-45.624-6.43-14.615-17.523-27.106-28.61-39.233-6.971-7.626-14.332-15.912-15.098-25.778-1.164-15 12.933-26.99 19.4-40.844 6.918-14.828 4.506-32.891-6.117-45.811-10.981-13.349-30.73-23.374-30.606-40.003.075-9.813 7.489-18.178 11.18-27.406 7.188-17.97-.5-38.592-14.097-53.23-.102-.11-.208-.225-.315-.335A47.327 47.327 0 000 0v404.605h53.189z" fill="#AFD0E2"/><path d="M50.379 411.305s-9.51-15.429-6.017-27.109c3.493-11.675 12.5-17.851 14.516-7.914 3.832 18.892-8.5 35.023-8.5 35.023zm24.147-20.986s-10.602-13.54-8.54-24.921c2.056-11.382 9.896-18.161 12.851-9.002 5.608 17.4-4.31 33.923-4.31 33.923z" fill="#FC1258"/><path d="M74.509 390.296s12.074 10.814 22.892 9.574c10.818-1.239 17.67-8.205 9.247-11.551-16.005-6.352-32.139 1.977-32.139 1.977zm23.716-18.254s-11.986-12.33-11.163-23.863c.83-11.534 7.898-19.114 11.812-10.329 7.447 16.698-.649 34.192-.649 34.192z" fill="#FC1258"/><path d="M98.207 372.024s13.161 9.458 23.786 7.066c10.625-2.393 16.689-10.055 7.956-12.476-16.595-4.603-31.742 5.41-31.742 5.41zm18.798-26.044s-11.549-6.364-13.517-15.014c-1.969-8.651 1.53-15.798 6.367-10.224 9.188 10.586 7.15 25.238 7.15 25.238z" fill="#FC1258"/><path d="M116.923 345.944s12.991 4.51 20.953.024c7.956-4.492 10.911-12.154 3.265-12.025-14.533.251-24.218 12.001-24.218 12.001zm7.857-27.477s-6.572-8.06-5.462-14.962c1.11-6.901 5.765-11.095 7.658-5.597 3.604 10.452-2.196 20.559-2.196 20.559zm12.588-11.926s1.121-7.048 4.521-11.019c4.218-4.919 10.275-2.223 6.992 4.462-3.645 7.417-11.513 6.557-11.513 6.557z" fill="#FC1258"/><path d="M124.675 318.356s7.424 6.48 13.908 5.632c6.49-.848 10.503-5.147 5.386-7.112-9.72-3.732-19.294 1.48-19.294 1.48z" fill="#FC1258"/><path d="M20.769 529.579c-.012-.251-1.081-25.571 4.153-54.744 3.078-17.143 7.699-32.251 13.733-44.896 7.559-15.838 17.378-27.84 29.171-35.683 47.409-31.514 48.776-44.305 49.991-55.593.099-.913.192-1.814.315-2.708 1.747-13.113 9.673-25.478 19.277-30.063l.385.807c-9.346 4.462-17.068 16.546-18.78 29.373a94.358 94.358 0 00-.309 2.684c-1.233 11.481-2.629 24.495-50.382 56.242-26.432 17.57-37.712 53.189-42.52 79.977-5.221 29.074-4.152 54.312-4.146 54.563l-.888.041z" fill="#FC1258"/></svg>