<svg width="283" height="283" fill="none" xmlns="http://www.w3.org/2000/svg"><g clip-path="url(#clip0)"><path d="M206.239 120.441c5.248 13.314 13.447 26.186 6.504 32.72-6.875 6.46-28.824 6.507-38.876 17.104-9.986 10.521-8.006 31.517-14.209 41.269-6.128 9.818-20.505 8.467-33.332 4.342-12.901-4.192-24.326-11.225-34.705-19.873-10.379-8.647-19.778-18.834-17.45-29.51 2.33-10.677 16.387-21.843 24.479-30.705 8.025-8.787 10.225-15.279 13.271-23.161 3.038-8.024 7.13-17.52 13.305-18.56 6.317-1.049 14.71 6.218 26.906 5.208 12.263-1.084 28.338-10.305 37.52-8.108 9.182 2.197 11.413 16.027 16.587 29.274z" fill="#FF6584"/></g><defs><clipPath id="clip0"><path fill="#fff" transform="rotate(41.921 66.81 174.407)" d="M0 0h200v200H0z"/></clipPath></defs></svg>