<svg width="540" height="415" fill="none" xmlns="http://www.w3.org/2000/svg"><g clip-path="url(#clip0)"><path opacity=".1" d="M247.443 366.378c123.936 0 224.406-7.801 224.406-17.424 0-9.624-100.47-17.425-224.406-17.425S23.037 339.33 23.037 348.954c0 9.623 100.47 17.424 224.406 17.424z" fill="#EF7F1A"/><g opacity=".1"><path opacity=".1" d="M446.198 249.666c-1.341-4.071-6.779-5.945-12.144-4.181-.773.252-1.521.575-2.234.966-.343-.095-.697-.18-1.056-.243.293-1.171.406-2.38.333-3.585a12.989 12.989 0 005.755-11.337 12.995 12.995 0 005.735-11.336 12.552 12.552 0 004.345-4.921c2.588-5.122 1.516-10.877-2.397-12.857-3.913-1.98-9.187.57-11.775 5.692a12.507 12.507 0 00-1.388 6.415 13.003 13.003 0 00-5.735 11.336 13.011 13.011 0 00-5.734 11.337 13.011 13.011 0 00-5.755 11.342 12.54 12.54 0 00-4.346 4.921c-.486.962-.855 1.98-1.098 3.031a11.19 11.19 0 00-2.344-2.498 13.503 13.503 0 00-.528-2.376c-1.764-5.37-6.495-8.644-10.561-7.302-4.065 1.341-5.945 6.774-4.182 12.144a12.19 12.19 0 003.992 5.85c.104.807.281 1.602.528 2.376 1.025 3.116 3.047 5.523 5.36 6.732a12.282 12.282 0 00-.439 2.06 13.356 13.356 0 00-3.981 7.872 13.35 13.35 0 00-3.981 7.878 12.991 12.991 0 00-2.64 3.596c-2.593 5.122-1.521 10.883 2.392 12.857 3.912 1.975 9.187-.565 11.78-5.692a13.009 13.009 0 001.32-4.271 13.361 13.361 0 003.981-7.873 13.344 13.344 0 003.981-7.878 13.31 13.31 0 003.934-7.873 13.314 13.314 0 003.992-7.888 12.763 12.763 0 001.79-2.112c2.157.443 4.393.302 6.478-.407a13.071 13.071 0 002.234-.966c2.335.616 4.801.528 7.086-.254 5.349-1.747 8.638-6.478 7.302-10.555z" fill="#3F3D56"/><path opacity=".1" d="M436.731 233.615a11.387 11.387 0 01-1.816 1.452 12.149 12.149 0 01-.586 4.451c.415-.574.786-1.18 1.108-1.811a13.014 13.014 0 001.294-4.092zm5.734-11.337a11.331 11.331 0 01-1.816 1.452 12.154 12.154 0 01-.586 4.452c.416-.576.787-1.183 1.109-1.817a13.121 13.121 0 001.293-4.087zm-13.005-4.218a11.625 11.625 0 01.09-2.329 13.173 13.173 0 00-2.524 3.469 13.421 13.421 0 00-.802 1.97 12.003 12.003 0 013.236-3.11zm-36.396 68.604c.462-.643.983-1.24 1.558-1.784.09-.717.243-1.424.459-2.112a13.262 13.262 0 00-1.209 1.959 13.558 13.558 0 00-.808 1.937zm3.981-7.867c.462-.643.983-1.241 1.558-1.785.086-.697.233-1.386.438-2.059a13.515 13.515 0 00-1.161 1.896 14.063 14.063 0 00-.835 1.948zm33.947-33.846a11.024 11.024 0 01-1.812 1.447 11.824 11.824 0 01-.332 3.585c.356.062.708.143 1.056.243.713-.391 1.46-.714 2.233-.966 5.375-1.764 10.809.111 12.145 4.182a6.172 6.172 0 01.169 3.168c1.768-2.08 2.502-4.615 1.742-6.938-1.341-4.071-6.78-5.946-12.144-4.182-.773.252-1.521.575-2.234.966a11.586 11.586 0 00-1.056-.243c.101-.422.174-.839.233-1.262zM391.1 290.619a13.23 13.23 0 00-1.209 1.959 13.97 13.97 0 00-.813 1.975 12.865 12.865 0 011.584-1.795c.081-.725.228-1.441.438-2.139zm32.6-61.223a11.63 11.63 0 01.089-2.329 13.163 13.163 0 00-2.523 3.469 13.471 13.471 0 00-.803 1.97 12.007 12.007 0 013.237-3.11zm-8.285 46.233c-.104.785-.281 1.56-.528 2.313.413-.577.782-1.184 1.104-1.817.346-.678.634-1.385.86-2.112a12.732 12.732 0 01-1.436 1.616zm-7.962 15.745c-.104.786-.281 1.56-.528 2.313.416-.576.787-1.183 1.108-1.817.344-.679.632-1.385.861-2.112-.433.58-.915 1.12-1.441 1.616zm3.981-7.878c-.104.786-.281 1.56-.528 2.313.421-.566.798-1.162 1.13-1.785.346-.678.634-1.385.861-2.112a12.907 12.907 0 01-1.463 1.584zm7.962-15.74c-.103.784-.28 1.557-.528 2.308a13.484 13.484 0 001.97-3.96c-.43.592-.913 1.145-1.442 1.652zm-26.068-19.911c4.077-1.336 8.808 1.932 10.561 7.302.247.776.423 1.573.528 2.381a11.19 11.19 0 012.344 2.498 13.474 13.474 0 011.098-3.036c.185-.359.386-.703.592-1.056-.6-.83-1.31-1.572-2.112-2.207a13.484 13.484 0 00-.528-2.376c-1.764-5.37-6.495-8.644-10.561-7.303-2.323.76-3.928 2.857-4.551 5.507a6.166 6.166 0 012.629-1.71zm18.903 4.224a11.568 11.568 0 01.095-2.323 13.06 13.06 0 00-2.529 3.469c-.32.632-.588 1.289-.803 1.964a12.141 12.141 0 013.237-3.11zm5.734-11.342a11.642 11.642 0 01.095-2.323 12.96 12.96 0 00-2.529 3.464 13.566 13.566 0 00-.802 1.969 12.018 12.018 0 013.236-3.11zm-14.494 58.52c-.103.787-.28 1.563-.528 2.318a13.577 13.577 0 001.97-3.955 12.46 12.46 0 01-1.442 1.637z" fill="#000"/><path opacity=".1" d="M454.023 197.277a12.503 12.503 0 004.346-4.921c2.593-5.122 1.521-10.883-2.392-12.863-3.912-1.98-9.187.571-11.78 5.698a12.5 12.5 0 00-1.383 6.431 12.995 12.995 0 00-5.735 11.336 12.471 12.471 0 00-4.345 4.921 12.942 12.942 0 00-.797 1.949 11.006 11.006 0 015.686-4.224 6.462 6.462 0 008.206 4.139 11.02 11.02 0 010 7.081 13.55 13.55 0 001.098-1.795 12.499 12.499 0 001.383-6.416 12.968 12.968 0 005.735-11.336h-.022z" fill="#3F3D56"/><path opacity=".1" d="M517.047 124.601a38.113 38.113 0 004.605-2.55l-17.071-12.472 20.064 10.333a38.084 38.084 0 0014.257-26.564l-34.099.348 34.173-5.713a38.02 38.02 0 00-57.313-30.112 38.019 38.019 0 00-17.972 39.764 38.093 38.093 0 00-7.001 4.224l17.82 24.78-21.395-21.691a38.059 38.059 0 00-10.65 34.643 38.024 38.024 0 00-21.933 33.851 38.019 38.019 0 0041.467 38.458 38.01 38.01 0 0032.106-24.415 38.012 38.012 0 001.716-20.912 38.019 38.019 0 0021.226-41.972z" fill="#EF7F1A"/><path opacity=".1" d="M445.829 114.928a37.893 37.893 0 00-3.353 24.663 38.018 38.018 0 1053.356 26.982c7.46-3.464-48.092-55.452-50.003-51.645z" fill="#000"/><path opacity=".1" d="M488.672 59.882a5.644 5.644 0 100-11.288 5.644 5.644 0 000 11.288zm32.969 3.622a5.644 5.644 0 100-11.288 5.644 5.644 0 000 11.288zm12.715 50.721a5.644 5.644 0 100-11.288 5.644 5.644 0 000 11.288zm-17.161 25.329a5.645 5.645 0 100-11.29 5.645 5.645 0 000 11.29zm-23.444 52.606a5.644 5.644 0 10.001-11.289 5.644 5.644 0 00-.001 11.289z" fill="#EF7F1A"/><path opacity=".1" d="M493.751 192.16a5.644 5.644 0 10.001-11.289 5.644 5.644 0 00-.001 11.289z" fill="#000"/><path opacity=".1" d="M441.626 132.579a5.644 5.644 0 100-11.288 5.644 5.644 0 000 11.288z" fill="#EF7F1A"/><path opacity=".1" d="M441.626 132.579a5.644 5.644 0 100-11.288 5.644 5.644 0 000 11.288zm-6.02 87.196c-3.754-1.895-4.889-7.265-2.698-12.218a9.913 9.913 0 00-.332.623c-2.593 5.122-1.521 10.877 2.391 12.857 3.913 1.98 9.188-.57 11.775-5.692.111-.211.206-.427.301-.639-2.687 4.705-7.688 6.97-11.437 5.069zm-5.575 11.025c-3.749-1.895-4.89-7.265-2.693-12.223-.117.206-.233.412-.338.623-2.593 5.121-1.521 10.882 2.392 12.857 3.912 1.975 9.187-.565 11.78-5.692.105-.211.206-.423.301-.639-2.693 4.705-7.688 6.97-11.442 5.074zm-5.576 11.02c-3.749-1.896-4.89-7.266-2.693-12.218-.116.2-.232.406-.338.623-2.593 5.121-1.515 10.877 2.397 12.857 3.913 1.98 9.182-.571 11.775-5.692.105-.211.206-.428.301-.639-2.688 4.704-7.688 6.97-11.442 5.069zm-5.555 11.052c-3.754-1.896-4.889-7.266-2.698-12.219-.116.201-.227.407-.338.618-2.587 5.122-1.515 10.882 2.397 12.863 3.913 1.98 9.188-.571 11.775-5.698.111-.211.206-.422.301-.639-2.704 4.679-7.704 6.944-11.437 5.075zm-5.592 10.993c-3.754-1.896-4.889-7.266-2.698-12.219-.116.201-.227.407-.333.624-2.592 5.121-1.52 10.877 2.392 12.857 3.913 1.98 9.188-.571 11.78-5.692.106-.212.206-.428.301-.639-2.682 4.704-7.693 6.97-11.442 5.069zm-5.575 11.025c-3.749-1.896-4.89-7.266-2.693-12.219-.117.201-.233.407-.338.618-2.593 5.122-1.521 10.883 2.397 12.863 3.918 1.98 9.161-.576 11.801-5.698.106-.211.206-.422.301-.639-2.719 4.705-7.693 6.97-11.468 5.075zm-5.576 11.019c-3.749-1.895-4.89-7.265-2.693-12.218-.116.206-.227.406-.338.623-2.587 5.122-1.516 10.877 2.397 12.857 3.913 1.98 9.187-.57 11.775-5.692.111-.211.206-.428.301-.639-2.688 4.705-7.688 6.97-11.442 5.069zm-5.571 11.025c-3.754-1.896-4.889-7.265-2.698-12.218-.116.2-.227.406-.333.618-2.592 5.121-1.52 10.882 2.392 12.862 3.913 1.98 9.188-.57 11.78-5.697.106-.211.201-.423.296-.639-2.688 4.704-7.688 6.949-11.437 5.074z" fill="#000"/><path opacity=".1" d="M392.922 304.179c-3.749-1.901-4.89-7.266-2.693-12.224-.116.206-.232.412-.338.623-2.593 5.122-1.521 10.882 2.392 12.857 3.912 1.975 9.187-.565 11.78-5.692.105-.211.206-.422.301-.639-2.693 4.705-7.693 6.97-11.442 5.075z" fill="#000"/><path opacity=".1" d="M493.662 255.121a19.808 19.808 0 001.056-5.169 2.82 2.82 0 10-.428-5.608 19.706 19.706 0 00-10.37-13.364 2.82 2.82 0 00-3.4-3.953c-.711.234-1.3.74-1.638 1.408a2.646 2.646 0 00-.253.755 19.796 19.796 0 00-17.356 5.201 19.875 19.875 0 00-5.185-.153l-2.286 10.407-.138-10.032a19.753 19.753 0 00-15.346 16.63 19.757 19.757 0 0025.907 21.387c.272.491.686.888 1.188 1.14a2.817 2.817 0 004.038-1.942 2.823 2.823 0 00-.173-1.69 19.731 19.731 0 002.534-2.07 19.778 19.778 0 0020.757-10.471l-10.64-1.79 11.733-.686z" fill="#EF7F1A"/><path opacity=".1" d="M477.224 260.174c-3.928-5.185-6.336-11.326-9.108-17.219a72.082 72.082 0 00-3.733-7.054l-2.08-2.423c-.349.295-.697.601-1.056.924a19.878 19.878 0 00-5.185-.154l-2.287 10.408-.137-10.033a19.771 19.771 0 00-12.696 9.108 19.753 19.753 0 001.531 22.577 19.767 19.767 0 0013.809 7.31 19.745 19.745 0 007.916-.978c.272.492.686.889 1.188 1.141a2.82 2.82 0 003.865-3.633 19.657 19.657 0 002.535-2.07c4.036.654 8.175.041 11.848-1.753a27.854 27.854 0 01-6.41-6.151z" fill="#000"/><path opacity=".1" d="M407.659 237.891a2.816 2.816 0 00-1.146-3.736 2.816 2.816 0 00-1.378-.356 19.736 19.736 0 00-6.178-10.998c.517-2.016.713-4.101.581-6.178l-10.376-1.769 10.075-.633a20.033 20.033 0 00-.745-2.788c.392-.27.712-.633.93-1.056a2.826 2.826 0 00-3.48-3.929 19.762 19.762 0 00-24.429-6.516 19.754 19.754 0 00-10.837 22.842 2.78 2.78 0 00-1.405 1.32 2.822 2.822 0 001.889 4.024 2.823 2.823 0 001.675-.132 19.822 19.822 0 003.744 4.567 19.75 19.75 0 00.919 12.546l13.913-3.612-12.408 6.527a19.756 19.756 0 0031.594 2.484 19.756 19.756 0 004.791-11.07 2.809 2.809 0 002.271-1.537z" fill="#EF7F1A"/><path opacity=".1" d="M407.659 237.891a2.816 2.816 0 00-1.146-3.736 2.816 2.816 0 00-1.378-.356 19.736 19.736 0 00-6.178-10.998c.084-.333.158-.66.222-.993-.369.267-.71.569-1.019.903-1.875 2.054-2.836 4.815-4.689 6.891-2.186 2.45-5.46 3.727-8.728 4.071-3.269.343-6.558-.159-9.784-.787-2.672-.528-5.381-1.141-8.09-.882-.264 0-.528.058-.77.1.158.153.316.307.48.454a19.749 19.749 0 00.919 12.546l13.913-3.617-12.408 6.526a19.753 19.753 0 0021.26 8.707 19.755 19.755 0 0015.125-17.292 2.809 2.809 0 002.271-1.537z" fill="#000"/></g><g opacity=".1"><path opacity=".1" d="M47.252 269.942c.676-2.054 3.416-2.999 6.12-2.112.389.127.765.29 1.124.486.175-.048.354-.09.528-.122a5.948 5.948 0 01-.169-1.806 6.571 6.571 0 01-2.888-5.713 6.295 6.295 0 01-2.186-2.476 6.336 6.336 0 01-.702-3.232 6.334 6.334 0 01-2.186-2.481c-1.299-2.577-.771-5.476 1.21-6.479 1.98-1.003 4.63.29 5.934 2.867.515.998.756 2.115.697 3.237a6.53 6.53 0 012.888 5.708 6.545 6.545 0 012.888 5.713 6.53 6.53 0 012.889 5.708 6.337 6.337 0 012.719 4.013 5.61 5.61 0 011.177-1.262c.055-.408.147-.809.275-1.199.892-2.703 3.274-4.351 5.328-3.696 2.054.655 2.993 3.416 2.112 6.12a6.157 6.157 0 01-2.012 2.951 6.69 6.69 0 01-.275 1.194 5.857 5.857 0 01-2.698 3.389 6.8 6.8 0 01.222 1.056 6.655 6.655 0 011.336 1.811c.345.674.57 1.403.665 2.155a6.61 6.61 0 011.341 1.811 6.54 6.54 0 01.666 2.154 6.573 6.573 0 011.34 1.817c1.305 2.576.766 5.48-1.203 6.473-1.97.993-4.63-.285-5.935-2.867a6.592 6.592 0 01-.665-2.154 6.707 6.707 0 01-2.007-3.966 6.706 6.706 0 01-2.006-3.965 6.663 6.663 0 01-1.341-1.811 6.725 6.725 0 01-.666-2.155 6.62 6.62 0 01-1.335-1.811 6.507 6.507 0 01-.666-2.154 6.148 6.148 0 01-.903-1.056 6.282 6.282 0 01-3.263-.201 6.948 6.948 0 01-1.13-.491 6.134 6.134 0 01-3.564-.126c-2.677-.893-4.33-3.274-3.659-5.328z" fill="#3F3D56"/><path opacity=".1" d="M52.02 261.848c.28.276.588.522.919.734a5.966 5.966 0 00.295 2.238 6.281 6.281 0 01-.56-.913 6.587 6.587 0 01-.654-2.059zm-2.888-5.702c.281.272.589.516.919.728-.045.76.055 1.522.295 2.244a6.707 6.707 0 01-1.214-2.972zm6.563-2.129a5.868 5.868 0 00-.042-1.172 6.678 6.678 0 011.674 2.741 6.031 6.031 0 00-1.632-1.569zm18.322 34.564a6.182 6.182 0 00-.781-.898 6.56 6.56 0 00-.233-1.056 6.958 6.958 0 011.014 1.954zm-2.022-3.965a6.13 6.13 0 00-.782-.898 6.196 6.196 0 00-.221-1.056c.434.589.77 1.246.992 1.943l.01.011zm-17.082-17.044c.278.273.584.516.914.723-.04.607.017 1.216.169 1.806a5.295 5.295 0 00-.528.121 7.03 7.03 0 00-1.13-.486c-2.703-.887-5.444.058-6.114 2.112a3.073 3.073 0 00-.09 1.584 3.654 3.654 0 01-.877-3.49c.676-2.054 3.416-2.999 6.12-2.112.389.128.765.29 1.125.486.174-.048.353-.09.528-.121a5.527 5.527 0 01-.117-.623zm20.097 23a6.877 6.877 0 011.014 1.98 6.158 6.158 0 00-.782-.903 6.54 6.54 0 00-.232-1.077zm-16.427-30.836a5.86 5.86 0 00-.042-1.173 6.612 6.612 0 011.674 2.736 5.998 5.998 0 00-1.632-1.563zm4.177 23.285c.05.395.136.784.259 1.162a6.66 6.66 0 01-.993-1.991c.22.298.465.575.734.829zm4.007 7.931c.054.394.142.783.264 1.162a6.345 6.345 0 01-.56-.914 6.779 6.779 0 01-.432-1.056c.22.288.465.558.728.808zm-2.001-3.965a6.3 6.3 0 00.259 1.161 6.827 6.827 0 01-.993-1.969c.22.29.466.56.734.808zm-4.013-7.936c.05.396.136.787.259 1.167-.2-.29-.377-.596-.528-.914a6.45 6.45 0 01-.438-1.056c.21.289.448.557.707.803zm13.132-10.027c-2.054-.676-4.435.971-5.322 3.696-.129.39-.22.791-.275 1.198-.457.356-.856.78-1.183 1.257a6.763 6.763 0 00-.85-2.059c.3-.416.655-.789 1.056-1.109.054-.407.146-.809.275-1.199.892-2.703 3.273-4.351 5.328-3.696a3.656 3.656 0 012.291 2.778 3.127 3.127 0 00-1.32-.866zm-9.525 2.128c.025-.391.01-.784-.043-1.173a6.61 6.61 0 011.674 2.741 5.949 5.949 0 00-1.631-1.568zm-2.889-5.714a5.814 5.814 0 00-.042-1.172 6.78 6.78 0 011.273 1.748c.16.32.293.652.401.993a6.016 6.016 0 00-1.632-1.569zm7.303 29.479c.05.397.139.787.264 1.167a6.61 6.61 0 01-.56-.919 6.77 6.77 0 01-.433-1.056c.221.289.465.559.729.808z" fill="#000"/><path opacity=".1" d="M43.308 243.547a6.298 6.298 0 01-2.186-2.477c-1.304-2.582-.766-5.481 1.204-6.479 1.97-.997 4.63.286 5.934 2.868a6.3 6.3 0 01.698 3.231 6.54 6.54 0 012.888 5.713 6.338 6.338 0 012.191 2.477c.158.316.293.645.401.982a5.577 5.577 0 00-2.867-2.112 3.252 3.252 0 01-4.134 2.112 5.554 5.554 0 000 3.564 6.993 6.993 0 01-.528-.903 6.337 6.337 0 01-.703-3.232 6.559 6.559 0 01-2.888-5.713l-.01-.031z" fill="#3F3D56"/><path opacity=".1" d="M11.563 206.934c-.8-.374-1.575-.803-2.317-1.283l8.596-6.283-10.107 5.2A19.175 19.175 0 01.56 191.189l17.181.179-17.218-2.883a19.158 19.158 0 0113.78-17.319 19.153 19.153 0 0120.92 7.227 19.166 19.166 0 013.216 14.95 19.392 19.392 0 013.528 2.112l-8.977 12.482 10.777-10.919a19.177 19.177 0 015.365 17.451 19.157 19.157 0 0111.068 17.06 19.16 19.16 0 11-37.944-3.469 19.159 19.159 0 01-10.693-21.121v-.005z" fill="#EF7F1A"/><path opacity=".1" d="M47.442 202.066a19.073 19.073 0 011.69 12.424A19.166 19.166 0 0160.2 231.551a19.163 19.163 0 01-37.086 7.075 19.164 19.164 0 01-.858-10.545c-3.765-1.747 24.22-27.932 25.186-26.015z" fill="#000"/><path opacity=".1" d="M25.857 174.335a2.847 2.847 0 10-.001-5.693 2.847 2.847 0 000 5.693zm-16.611 1.827a2.846 2.846 0 100-5.692 2.846 2.846 0 000 5.692zm-6.4 25.55a2.846 2.846 0 100-5.692 2.846 2.846 0 000 5.692zm8.644 12.762a2.846 2.846 0 100-5.692 2.846 2.846 0 000 5.692zm11.806 26.501a2.846 2.846 0 100-5.692 2.846 2.846 0 000 5.692z" fill="#EF7F1A"/><path opacity=".1" d="M23.296 240.975a2.846 2.846 0 100-5.692 2.846 2.846 0 000 5.692z" fill="#000"/><path opacity=".1" d="M49.554 210.958a2.847 2.847 0 100-5.693 2.847 2.847 0 000 5.693z" fill="#EF7F1A"/><path opacity=".1" d="M49.554 210.958a2.847 2.847 0 100-5.693 2.847 2.847 0 000 5.693zm3.036 43.925c1.89-.956 2.46-3.659 1.357-6.156.058.105.116.205.17.311 1.303 2.582.765 5.481-1.21 6.479-1.975.998-4.625-.285-5.93-2.867a6.516 6.516 0 01-.153-.322c1.357 2.37 3.876 3.511 5.766 2.555zm2.804 5.555c1.89-.956 2.466-3.665 1.362-6.157.058.101.116.206.17.312 1.303 2.582.765 5.481-1.21 6.479-1.975.997-4.625-.286-5.93-2.868-.058-.105-.105-.216-.153-.322 1.357 2.382 3.881 3.512 5.761 2.556zm2.809 5.549c1.89-.955 2.466-3.659 1.357-6.156.063.105.116.206.174.316 1.304 2.577.76 5.481-1.209 6.474-1.97.992-4.625-.285-5.93-2.867a3.618 3.618 0 01-.153-.322c1.352 2.37 3.87 3.511 5.761 2.555zm2.809 5.555c1.89-.956 2.466-3.659 1.357-6.157.058.101.116.206.169.312 1.31 2.582.766 5.481-1.204 6.479-1.97.997-4.63-.286-5.935-2.868-.053-.105-.1-.216-.148-.322 1.352 2.366 3.87 3.512 5.761 2.556zm2.809 5.549c1.89-.955 2.46-3.659 1.357-6.151.058.1.116.206.169.311 1.304 2.582.766 5.481-1.204 6.479-1.97.998-4.63-.29-5.935-2.867-.052-.111-.1-.216-.153-.322 1.357 2.366 3.876 3.506 5.766 2.55zm2.809 5.555c1.89-.956 2.46-3.659 1.357-6.157.058.106.116.206.169.312 1.304 2.582.766 5.481-1.204 6.479-1.97.998-4.63-.286-5.935-2.868a5.756 5.756 0 01-.153-.322c1.357 2.35 3.876 3.512 5.766 2.556zm2.81 5.555c1.884-.956 2.46-3.665 1.356-6.157.058.1.116.206.17.311 1.303 2.582.765 5.481-1.21 6.479-1.975.998-4.625-.29-5.93-2.867-.052-.111-.105-.216-.153-.322 1.357 2.365 3.876 3.511 5.766 2.556zm2.803 5.549c1.89-.955 2.466-3.659 1.357-6.156.063.105.116.206.174.317 1.304 2.576.76 5.48-1.209 6.473-1.97.993-4.625-.285-5.93-2.867a3.647 3.647 0 01-.153-.322c1.357 2.371 3.87 3.511 5.76 2.555z" fill="#000"/><path opacity=".1" d="M74.107 297.399c1.89-.956 2.46-3.659 1.357-6.157.058.106.116.206.169.317 1.304 2.577.765 5.481-1.204 6.473-1.97.993-4.63-.285-5.935-2.867a5.828 5.828 0 01-.153-.322c1.341 2.382 3.86 3.512 5.766 2.556z" fill="#000"/><path opacity=".1" d="M23.343 272.688a9.81 9.81 0 01-.527-2.603 1.42 1.42 0 11.216-2.825 9.935 9.935 0 015.222-6.732 1.424 1.424 0 012.54-1.283 1.3 1.3 0 01.127.38 9.99 9.99 0 018.743 2.64 9.852 9.852 0 012.64-.074l1.151 5.238.027-5.053a9.95 9.95 0 015.531 15.913 9.953 9.953 0 01-10.853 3.248 1.456 1.456 0 01-.597.576 1.42 1.42 0 01-1.618-.233 1.426 1.426 0 01-.336-1.599 9.969 9.969 0 01-1.272-1.056 9.963 9.963 0 01-10.455-5.281l5.36-.902-5.899-.354z" fill="#EF7F1A"/><path opacity=".1" d="M31.623 275.233c1.98-2.64 3.194-5.703 4.588-8.67a35.18 35.18 0 011.88-3.559l1.056-1.22c.18.153.354.306.528.465a9.852 9.852 0 012.64-.074l1.151 5.238.016-5.037a9.95 9.95 0 017.348 12.361 9.953 9.953 0 01-12.67 6.8 1.456 1.456 0 01-.597.576 1.428 1.428 0 01-2.038-.98 1.43 1.43 0 01.084-.852 9.977 9.977 0 01-1.272-1.057 10.026 10.026 0 01-5.972-.881 14.052 14.052 0 003.258-3.11z" fill="#000"/><path opacity=".1" d="M66.667 264.007a1.416 1.416 0 011.273-2.059 9.951 9.951 0 013.11-5.544 9.88 9.88 0 01-.29-3.11l5.221-.877-5.074-.322c.092-.477.219-.946.38-1.404a1.4 1.4 0 01-.47-.528 1.428 1.428 0 01.92-2.018c.275-.071.565-.058.833.038a9.84 9.84 0 013.628-3.132 9.953 9.953 0 0110.73 1.115 9.955 9.955 0 013.405 10.238 1.417 1.417 0 01.663 2.028 1.419 1.419 0 01-1.751.596 9.88 9.88 0 01-1.885 2.291 9.981 9.981 0 01-.46 6.337l-6.985-1.838 6.246 3.29a9.962 9.962 0 01-13.86 3.064 9.957 9.957 0 01-3.474-3.877 10.1 10.1 0 01-1.025-3.512 1.4 1.4 0 01-1.135-.776z" fill="#EF7F1A"/><path opacity=".1" d="M66.667 264.007a1.416 1.416 0 011.273-2.059 9.948 9.948 0 013.11-5.544 8.279 8.279 0 01-.111-.497c.19.135.366.287.528.454.945 1.056 1.43 2.424 2.36 3.469a6.81 6.81 0 004.398 2.054 16.621 16.621 0 004.927-.396 14.471 14.471 0 014.076-.449l.39.053-.242.227a9.982 9.982 0 01-.46 6.337l-7.001-1.838 6.246 3.29a9.962 9.962 0 01-13.86 3.064 9.96 9.96 0 01-3.474-3.878 10.088 10.088 0 01-1.025-3.511 1.411 1.411 0 01-1.135-.776z" fill="#000"/></g><path opacity=".1" d="M182.878 27.41a10.681 10.681 0 00-6.199.675 9.148 9.148 0 01-7.445 0 10.437 10.437 0 00-8.755.174 5.43 5.43 0 01-2.518.629c-3.549 0-6.5-3.575-7.113-8.29a6.904 6.904 0 001.775-1.912c2.08-3.352 5.28-5.507 8.918-5.507 3.638 0 6.806 2.112 8.886 5.444a6.868 6.868 0 005.893 3.242h.095c2.798-.016 5.243 2.25 6.463 5.544z" fill="#EF7F1A"/><path opacity=".1" d="M193.66 12.625l-5.735 3.638 3.48-6.336a5.67 5.67 0 00-3.469-1.236h-.09a6.807 6.807 0 01-1.188-.09l-1.948 1.236.834-1.515a6.961 6.961 0 01-3.4-2.561l-3.49 2.18 2.196-3.997C178.817 1.5 176.072 0 173.057 0c-3.617 0-6.865 2.154-8.924 5.507a6.661 6.661 0 01-5.898 3.168h-.174c-3.992 0-7.234 4.525-7.234 10.117 0 5.592 3.242 10.111 7.234 10.111a5.433 5.433 0 002.519-.628 10.407 10.407 0 018.754-.169 9.171 9.171 0 007.445 0 10.43 10.43 0 018.675.17 5.47 5.47 0 002.493.612c3.997 0 7.233-4.525 7.233-10.112a12.861 12.861 0 00-1.52-6.151zM63.547 100.56a15.321 15.321 0 00-8.855.961 13.05 13.05 0 01-10.635-.026 14.9 14.9 0 00-12.503.248 7.793 7.793 0 01-3.6.898c-5.07 0-9.289-5.106-10.165-11.844a9.721 9.721 0 002.534-2.73C23.296 83.28 27.9 80.2 33.07 80.2s9.716 3.042 12.673 7.778a9.778 9.778 0 008.448 4.63h.132c4.002-.005 7.498 3.232 9.224 7.952z" fill="#EF7F1A"/><path opacity=".1" d="M78.965 79.413L70.77 84.61l4.974-9.045a8.1 8.1 0 00-4.958-1.768h-.132a9.585 9.585 0 01-1.7-.127l-2.767 1.79 1.193-2.165a9.873 9.873 0 01-4.858-3.696l-4.974 3.168 3.131-5.756c-2.909-3.49-6.827-5.628-11.135-5.628-5.17 0-9.774 3.073-12.747 7.862a9.531 9.531 0 01-8.448 4.546h-.28c-5.708 0-10.333 6.468-10.333 14.452 0 7.983 4.625 14.452 10.333 14.452a7.73 7.73 0 003.601-.903 14.902 14.902 0 0112.504-.243 13.052 13.052 0 0010.634.026 14.913 14.913 0 0112.398.238 7.74 7.74 0 003.558.882c5.708 0 10.334-6.474 10.334-14.452.04-3.075-.694-6.11-2.133-8.829zm315.974-31.411a10.688 10.688 0 016.199.676 9.126 9.126 0 007.439 0 10.437 10.437 0 018.755.174c.776.41 1.64.625 2.518.628 3.549 0 6.506-3.574 7.118-8.29a6.821 6.821 0 01-1.774-1.91c-2.07-3.364-5.307-5.534-8.934-5.534-3.628 0-6.801 2.112-8.881 5.443a6.868 6.868 0 01-5.904 3.258h-.089c-2.809-.005-5.259 2.26-6.447 5.555z" fill="#EF7F1A"/><path opacity=".1" d="M384.125 33.218l5.734 3.627-3.485-6.336a5.683 5.683 0 013.469-1.236h.095c.398.005.796-.025 1.188-.09l1.943 1.236-.834-1.515a6.975 6.975 0 003.432-2.55l3.48 2.207-2.202-3.998c2.038-2.444 4.752-3.944 7.799-3.944 3.617 0 6.864 2.154 8.923 5.507a6.66 6.66 0 005.898 3.168h.19c3.997 0 7.234 4.525 7.234 10.117 0 5.592-3.237 10.112-7.234 10.112a5.457 5.457 0 01-2.518-.629 10.414 10.414 0 00-8.755-.169 9.159 9.159 0 01-7.439 0 10.444 10.444 0 00-8.681.17 5.46 5.46 0 01-2.492.612c-3.992 0-7.234-4.525-7.234-10.112a12.867 12.867 0 011.489-6.177zm-59.064 376.986c33.536 0 60.722-4.728 60.722-10.561 0-5.832-27.186-10.56-60.722-10.56-33.535 0-60.721 4.728-60.721 10.56 0 5.833 27.186 10.561 60.721 10.561z" fill="#EF7F1A"/><path d="M293.28 349.482l-94.087-1.209.28-2.413 4.546-39.807h82.629l6.078 39.807.464 3.02.09.602z" fill="#D0D2D5"/><path opacity=".1" d="M293.19 348.88h-46.951l-47.046-.607.28-2.413h93.253l.464 3.02z" fill="#000"/><path d="M308.36 346.467H183.511v3.015H308.36v-3.015z" fill="#D0D2D5"/><path d="M427.475 66.968a7.852 7.852 0 00-7.815-7.878H71.002a7.854 7.854 0 00-7.814 7.889v211.337h364.287V66.968z" fill="#3F3D56"/><path d="M63.187 276.204v24.753a7.813 7.813 0 007.815 7.815H419.66a7.812 7.812 0 007.815-7.815v-24.753H63.187z" fill="#D0D2D5"/><path d="M414.206 72.343H78.267v189.985h335.939V72.343z" fill="#fff"/><path d="M247.142 299.379a8.131 8.131 0 006.405-3.11c.232-.296.443-.606.634-.93l-4.473-.755 4.832.032a8.145 8.145 0 00.153-6.447l-6.479 3.358 5.977-4.393a8.135 8.135 0 00-5.228-3.844 8.145 8.145 0 00-6.377 1.198 8.136 8.136 0 00-3.476 5.479 8.139 8.139 0 001.633 6.281 8.133 8.133 0 006.399 3.131z" fill="#EF7F1A"/><path opacity=".1" d="M255.284 308.767l37.537 37.7-5.761-37.7h-31.776z" fill="#000"/><path opacity=".1" d="M414.306 72.364H78.003v11.1h336.303v-11.1z" fill="#444053"/><path opacity=".3" d="M295.788 74.297H195.075a.306.306 0 00-.306.306v6.14c0 .17.137.307.306.307h100.713a.306.306 0 00.306-.306v-6.14a.306.306 0 00-.306-.307z" fill="#EF7F1A"/><path d="M293.085 78.373h-.248l-.09-.08c.307-.368.475-.834.475-1.314a1.998 1.998 0 00-1.244-1.833 1.998 1.998 0 00-2.711 1.469 2 2 0 00.856 2.043c.328.218.714.334 1.108.333a2.058 2.058 0 001.315-.48l.09.079v.248l1.547 1.547.459-.465-1.557-1.547zm-1.854 0a1.393 1.393 0 111.389-1.394 1.38 1.38 0 01-1.389 1.394z" fill="#3F3D56"/><path opacity=".8" d="M84.05 79.947a2.033 2.033 0 100-4.066 2.033 2.033 0 000 4.066z" fill="#FA5959"/><path opacity=".8" d="M89.64 79.947a2.033 2.033 0 100-4.066 2.033 2.033 0 000 4.066z" fill="#FED253"/><path opacity=".8" d="M95.238 79.947a2.033 2.033 0 100-4.066 2.033 2.033 0 000 4.066z" fill="#8CCF4D"/><path d="M264.033 153.863c-4.609-6.125-11.289-9.99-18.723-9.99-7.434 0-14.114 3.865-18.723 9.99a20.26 20.26 0 004.435 6.679 20.216 20.216 0 0027.187 1.267 20.208 20.208 0 005.824-7.946z" fill="#EF7F1A"/><path d="M223.223 156.92c.29.21.601.387.93.528 3.537 7.155 10.866 12.63 19.277 13.09v33.925c-6.362-.38-11.458-3.586-15.74-8.586-.369.28-.644.533-.897.771a2.488 2.488 0 00-.618 2.682 3.795 3.795 0 01-2.306 4.889 3.791 3.791 0 01-4.057-6.129 3.53 3.53 0 01.444-.412c.091-.084.192-.157.301-.217.581-2.101 1.959-3.997 4.197-5.734a34.02 34.02 0 01-4.514-14.082 8.853 8.853 0 00-.977.063c-.44.059-.856.238-1.201.518a2.419 2.419 0 00-.758 1.066 3.793 3.793 0 01-5.105 2.129 3.799 3.799 0 01-2.238-3.231 3.795 3.795 0 011.824-3.482 3.805 3.805 0 011.966-.548c.153.003.307.013.459.032a6.51 6.51 0 011.864-.93 14.303 14.303 0 014.023-.649 35.038 35.038 0 011.975-10.328 15.321 15.321 0 01-2.402-1.69 7.62 7.62 0 01-1.753-2.302 2.61 2.61 0 00-1.009-1.056 4.198 4.198 0 01-.897-.723 3.792 3.792 0 116.188-.919c.236.514.587.967 1.024 1.325z" fill="#EF7F1A"/><path d="M359.578 393.487a5.06 5.06 0 00-1.146-1.273c-2.308-2.18-3.38-5.38-3.95-8.517-.57-3.136-.734-6.336-1.647-9.404a30.987 30.987 0 00-1.859-4.577c-.528-1.13-1.193-3.343-2.159-4.135a1.426 1.426 0 00-.666-.322 7.843 7.843 0 00-1.911-2.545c-1.51-1.367-3.353-2.455-4.361-4.224a9.517 9.517 0 00-1.02-1.737c-.681-.75-1.758-1.056-2.386-1.848-.819-1.025-.634-2.492-.528-3.797.105-1.304 0-2.867-1.13-3.553-.676-.417-1.547-.375-2.249-.745-1.056-.528-1.474-1.858-1.452-3.046.021-1.188.39-2.345.485-3.533.296-3.78-2.196-7.54-1.235-11.204.364-1.389 1.198-2.593 1.816-3.886.216-.431.392-.88.528-1.342a18.84 18.84 0 005.143 1.241c-2.909-6.526-2.17-14.108-3.527-21.12l.174-.238a10.997 10.997 0 002.228-6.262c0-2.608-1.219-5.048-1.769-7.604-.469-2.17-.448-4.44-1.056-6.573a19.861 19.861 0 00-1.668-3.813 74.92 74.92 0 00-2.075-3.606c-.676-2.239-1.354-4.477-2.033-6.716-.95-3.142-1.927-6.336-3.775-9.05-.676-.993-.882-3.01-1.922-3.612a4.648 4.648 0 00-2.746-.48c-1.468-.824-2.756-2.012-2.941-3.639a3.514 3.514 0 01.106-1.056h.179c2.323-.211 3.501-2.259 4.71-4.055 1.954-2.904 1.209-6.832 0-10.138-.3-1.043-.843-2-1.584-2.793-1.695-1.584-4.377-1.235-6.563-2.001-.734-.253-1.421-.639-2.17-.818-1.452-.338-2.973.137-4.304.808-1.33.67-2.571 1.536-3.965 2.064-1.394.528-3.115.945-3.459 2.376-.096.482-.056.981.117 1.442.32.918.884 1.732 1.631 2.355a9.416 9.416 0 00-.153 7.876 9.402 9.402 0 005.893 5.229c.401.644.776 1.299 1.119 1.969.613 1.183 1.13 2.577.919 3.844-.382.406-.735.838-1.056 1.294-1.516 2.112-2.376 4.588-3.168 7.059a74.942 74.942 0 00-2.551 9.647c-1.288 2.741-2.861 5.36-3.796 8.237a18.589 18.589 0 01-4.953-.665l-4.456-1.008c-1.553-.354-3.168-.734-4.383-1.759-.644-.528-1.146-1.23-1.8-1.753-.655-.523-1.97-1.135-2.688-.702a2.15 2.15 0 00-.364.28c-.655-1.326-1.278-2.64-2.038-3.923-1.093-1.796-2.72-3.438-4.779-3.781a4.864 4.864 0 00-3.585.834c-1.204.856-1.959 2.64-1.056 3.844.225.268.471.519.734.75a15.395 15.395 0 011.631 2.265 11.57 11.57 0 007.123 4.626l-.185.528c-.374 1.098-1.172 2.423-.971 3.564l19.822 6.785c1.271.516 2.621.814 3.991.882a6.463 6.463 0 001.584-.212v1.056c.053 6.965-1.056 13.882-1.262 20.841-.037 1.273 0 2.64.803 3.633.898 1.088 2.492 1.304 3.881 1.056.334-.057.662-.13.982-.222.47 1.752.809 3.536 1.014 5.338l1.309 9.431c.169.965.238 1.945.206 2.925-.153 2.212-1.32 4.192-2.165 6.236-.844 2.043-1.346 4.488-.237 6.399.348.592.829 1.093 1.14 1.706.396.948.577 1.972.528 2.999.081 2.844.159 5.692.233 8.543a.967.967 0 00-.666.132c-1.098.855-.977 4.926-1.056 6.188-.084 2.112 0 4.267-.116 6.4a38.09 38.09 0 01-1.378 8.496c-.19.9-.606 1.738-1.209 2.434a5.144 5.144 0 01-2.149 1.114 24.545 24.545 0 01-8.137 1.109c-1.114-.037-2.276-.143-3.311.28-1.034.422-1.869 1.584-1.494 2.64.322.887 1.299 1.309 2.181 1.642a34.557 34.557 0 015.808 2.672c.712.485 1.462.91 2.244 1.272.749.269 1.524.46 2.313.57l9.362 1.616c1.916.327 4.224.528 5.443-1.056.66-.855.755-2.017.724-3.105-.053-2.112-.476-4.261-.201-6.373.209-1.248.537-2.474.982-3.659.933-2.77 1.869-5.539 2.809-8.306.94-2.777 1.89-5.581 2.255-8.495.132-1.056.121-2.26-.687-2.92a1.853 1.853 0 00-.697-.359c-.031-2.545-.364-5.096-.221-7.641.037-.633.1-1.267.153-1.906.489.465.927.982 1.304 1.542.903 1.415 1.236 3.284 2.614 4.224 1.172.803 2.909.76 3.733 1.922.264.446.463.928.591 1.431a10.208 10.208 0 002.112 3.353 16.941 16.941 0 001.304 3.347l2.324 4.916a57.058 57.058 0 002.64 5.159 14.618 14.618 0 011.769 3.411c.744 2.608-.47 5.47-2.392 7.392-1.922 1.922-4.457 3.026-6.954 4.055a1.952 1.952 0 00-.708.423 1.368 1.368 0 00-.322.918c0 1.22 1.003 2.266 2.154 2.64a8.036 8.036 0 003.607.132c6.748-.818 13.475-2.465 19.441-5.744a6.866 6.866 0 002.318-1.79 2.706 2.706 0 00.386-2.751z" fill="url(#paint0_linear)"/><path d="M331.06 275.08a78.11 78.11 0 013.168 5.311 19.558 19.558 0 011.673 3.786c.613 2.112.597 4.367 1.057 6.521.528 2.535 1.763 4.953 1.763 7.551a10.855 10.855 0 01-2.228 6.209 29.45 29.45 0 01-4.657 4.805 99.071 99.071 0 01-6.59-32.32c-.053-1.531-.063-3.11.496-4.54.344-.898 1.991-3.359 3.052-2.392.386.353.486 1.948.724 2.481.445.902.96 1.767 1.542 2.588z" fill="#2F2E41"/><path opacity=".1" d="M331.06 275.08a78.11 78.11 0 013.168 5.311 19.558 19.558 0 011.673 3.786c.613 2.112.597 4.367 1.057 6.521.528 2.535 1.763 4.953 1.763 7.551a10.855 10.855 0 01-2.228 6.209 29.45 29.45 0 01-4.657 4.805 99.071 99.071 0 01-6.59-32.32c-.053-1.531-.063-3.11.496-4.54.344-.898 1.991-3.359 3.052-2.392.386.353.486 1.948.724 2.481.445.902.96 1.767 1.542 2.588z" fill="#000"/><path d="M191.854 203.043c-4.177 4.171-4.678 6.009-7.186 6.837-2.508.829-11.532 5.502-8.697 10.682l7.625 5.037.222.148 1.166 3.506-11.531 20.53s-19.009-8.692-20.873 4.166c-1.864 12.857-.681 16.368-1.182 23.232-.502 6.864.163 8.85-1.511 8.85-1.673 0-2.333-4.51-2.333-4.51s-.106-.205-.291-.591c-2.487-5.169-19.367-43.118 7.672-69.201 0 0 12.525-.824 15.54-15.186 2.08-9.927 9.356-9.071 14.193-7.049a16.042 16.042 0 014.34 2.55 21.427 21.427 0 013.11 3.696c1.378 2.176 2.128 4.906-.264 7.303z" fill="#D0D2D5"/><path opacity=".1" d="M183.818 225.747l1.166 3.506-11.531 20.529s-19.009-8.691-20.873 4.166c-1.864 12.857-.681 16.369-1.183 23.233-.501 6.864.164 8.849-1.51 8.849-1.673 0-2.333-4.509-2.333-4.509s-.106-.206-.291-.591c-.839-6.421-5.095-43.979 10.333-41.983 0 0 12.52 5.851 14.521 3.517 1.584-1.848 8.617-12.477 11.479-16.839l.222.122zm8.3-30.039l-7.625 8.665s-8.854 11.849-10.692 11.347a8.568 8.568 0 00-1.674-.195 3.252 3.252 0 01-2.112-5.481c3.02-3.168 8.586-9.182 8.95-10.518.364-1.336 3.907-7.192 5.681-10.059a16.05 16.05 0 014.341 2.551 21.393 21.393 0 013.131 3.69z" fill="#000"/><path d="M407.843 320.367c-1.293 2.587-7.92 12.292-10.819 16.532l-1.357 1.996s-.528 3.506-9.182-.839c-8.654-4.346-211.987-90.143-211.987-90.143l-1.378-4.14 10.032-15.022 222.859 86.104s3.506 2.17 1.832 5.512z" fill="#454B69"/><path opacity=".1" d="M397.024 336.899l-1.357 1.996s-.528 3.506-9.182-.839c-8.654-4.346-211.987-90.143-211.987-90.143l-1.378-4.14 223.904 93.126z" fill="#000"/><path d="M274.377 280.856c-2.064-.338-4.356-.174-5.961 1.167a4.907 4.907 0 00-1.711 3.253c-.137 1.462.713 3.199 2.181 3.31.353.004.706-.019 1.056-.068.927-.004 1.853.073 2.767.232a11.3 11.3 0 009.625-3.886c1.262-1.584-.401-2.271-1.89-2.588-2.038-.432-4.029-1.092-6.067-1.42z" fill="#FBBEBE"/><path d="M309.691 328.541l1.309 9.303c.167.961.234 1.936.201 2.91-.153 2.191-1.32 4.155-2.16 6.183-.839 2.027-1.351 4.456-.237 6.336.343.586.823 1.088 1.135 1.695.396.939.576 1.955.528 2.973l.359 13.2c4.076.278 8.167.255 12.239-.069a.68.68 0 00.444-.137.718.718 0 00.153-.48c.18-3.089-.359-6.183-.185-9.272.064-1.13.222-2.255.243-3.39.063-4.599-2.207-9.103-1.521-13.649.216-1.147.498-2.281.845-3.395 2.17-7.921 1.711-16.242 1.23-24.421a.575.575 0 00-.105-.37.56.56 0 00-.285-.153 15.014 15.014 0 00-7.122-.369 15.013 15.013 0 00-6.49 2.956c-.576.465-2.028.914-2.408 1.468-.528.771.163 1.542.47 2.361a30.061 30.061 0 011.357 6.32z" fill="#3F3D56"/><path opacity=".1" d="M309.691 328.541l1.309 9.303c.167.961.234 1.936.201 2.91-.153 2.191-1.32 4.155-2.16 6.183-.839 2.027-1.351 4.456-.237 6.336.343.586.823 1.088 1.135 1.695.396.939.576 1.955.528 2.973l.359 13.2c4.076.278 8.167.255 12.239-.069a.68.68 0 00.444-.137.718.718 0 00.153-.48c.18-3.089-.359-6.183-.185-9.272.064-1.13.222-2.255.243-3.39.063-4.599-2.207-9.103-1.521-13.649.216-1.147.498-2.281.845-3.395 2.17-7.921 1.711-16.242 1.23-24.421a.575.575 0 00-.105-.37.56.56 0 00-.285-.153 15.014 15.014 0 00-7.122-.369 15.013 15.013 0 00-6.49 2.956c-.576.465-2.028.914-2.408 1.468-.528.771.163 1.542.47 2.361a30.061 30.061 0 011.357 6.32z" fill="#000"/><path d="M334.175 325.737c-.618 1.283-1.447 2.476-1.817 3.855-.961 3.638 1.526 7.392 1.231 11.119-.095 1.178-.46 2.324-.486 3.501-.026 1.178.407 2.487 1.452 3.031.702.359 1.584.322 2.244.734 1.114.681 1.241 2.228 1.13 3.527-.111 1.299-.296 2.751.528 3.765.628.787 1.705 1.093 2.381 1.837a9.076 9.076 0 011.019 1.722c1.009 1.763 2.852 2.84 4.362 4.224 1.51 1.383 2.788 3.411 2.112 5.327-.496 1.405-1.89 2.271-3.232 2.931a34.298 34.298 0 01-7.693 2.719 1.855 1.855 0 01-.882.048 1.883 1.883 0 01-.77-.528c-1.558-1.526-3.169-3.126-3.887-5.18a5.297 5.297 0 00-.591-1.415c-.824-1.157-2.561-1.114-3.733-1.912-1.373-.934-1.706-2.788-2.603-4.187-.898-1.399-2.213-2.233-3.168-3.464-1.616-2.048-2.012-4.783-3.168-7.122-.491-.993-1.12-1.922-1.51-2.957a16.11 16.11 0 01-.724-3.823c-.744-6.167-2.64-12.377-1.447-18.481.264-1.341.671-2.64.84-4.023.29-2.392-.169-4.842.185-7.229a1.983 1.983 0 01.797-1.536 2.12 2.12 0 01.908-.185 61.953 61.953 0 019.388.211c1.584.153 3.359.475 4.309 1.769.808 1.109.766 2.593 1.024 3.939.322 1.658 1.162 2.561 2.044 3.86.881 1.299.406 2.582-.243 3.923z" fill="#3F3D56"/><path d="M321.994 368.644c.834 0 1.758-.053 2.402.475.803.66.813 1.869.686 2.899-.369 2.893-1.314 5.676-2.259 8.448l-2.81 8.242a19.43 19.43 0 00-.982 3.633c-.274 2.112.148 4.224.201 6.336 0 1.056-.069 2.228-.729 3.079-1.193 1.536-3.521 1.357-5.438 1.056l-9.351-1.585a11.145 11.145 0 01-2.313-.564 16.308 16.308 0 01-2.244-1.262 34.442 34.442 0 00-5.808-2.64c-.877-.328-1.859-.745-2.176-1.627-.375-1.056.46-2.217 1.495-2.64 1.035-.422 2.191-.317 3.31-.285a24.803 24.803 0 008.132-1.098 5.153 5.153 0 002.143-1.109 5.281 5.281 0 001.236-2.487 37.012 37.012 0 001.415-8.448c.111-2.112.037-4.224.121-6.336.053-1.252-.068-5.281 1.03-6.141.84-.644 4.293 1.135 5.428 1.394 2.135.489 4.321.711 6.511.66zm30.804 5.871c.913 3.026 1.056 6.226 1.647 9.336.592 3.11 1.637 6.283 3.945 8.448.449.356.836.784 1.145 1.267a2.67 2.67 0 01-.396 2.762 6.925 6.925 0 01-2.318 1.779c-5.961 3.252-12.672 4.895-19.436 5.708a8.185 8.185 0 01-3.601-.132c-1.151-.391-2.17-1.426-2.149-2.64a1.348 1.348 0 01.317-.914c.205-.188.448-.33.713-.417 2.492-1.024 5.021-2.138 6.948-4.029 1.928-1.89 3.137-4.752 2.392-7.318a14.497 14.497 0 00-1.779-3.385 57.083 57.083 0 01-2.64-5.116l-2.323-4.874c-.682-1.425-1.368-2.893-1.484-4.467a21.438 21.438 0 008.564-1.372 13.496 13.496 0 003.522-2.112c.898-.75 1.716-2.149 2.925-1.173.972.782 1.584 2.984 2.155 4.098a30.21 30.21 0 011.853 4.551z" fill="#2F2E41"/><path d="M318.752 253.5c.232 2.027 2.196 3.363 4.07 4.166l-11.864 3.786c.766-1.468.148-3.263-.612-4.752a26.943 26.943 0 00-2.113-3.385c-.116-.164-.248-.37-.163-.56a.59.59 0 01.332-.258c2.44-1.088 4.953-2.213 7.62-2.609.771-.111 2.228-.417 2.803.365.576.781-.184 2.312-.073 3.247z" fill="#FBBEBE"/><path opacity=".1" d="M318.752 253.5c.232 2.027 2.196 3.363 4.07 4.166l-11.864 3.786c.766-1.468.148-3.263-.612-4.752a26.943 26.943 0 00-2.113-3.385c-.116-.164-.248-.37-.163-.56a.59.59 0 01.332-.258c2.44-1.088 4.953-2.213 7.62-2.609.771-.111 2.228-.417 2.803.365.576.781-.184 2.312-.073 3.247z" fill="#000"/><path d="M311.856 255.142a9.303 9.303 0 009.303-9.304 9.303 9.303 0 00-9.303-9.303 9.303 9.303 0 00-9.304 9.303 9.303 9.303 0 009.304 9.304z" fill="#FBBEBE"/><path d="M303.793 322.4c.903 1.082 2.492 1.294 3.881 1.056 3.247-.528 5.903-2.92 9.082-3.781 3.896-1.056 8.02.301 11.7 1.965 3.681 1.663 7.34 3.696 11.363 3.981-3.638-8.11-1.557-17.868-5.037-26.047-.85-2.001-2.038-3.929-2.228-6.093-.238-2.688 1.103-5.281 1.309-7.952.19-2.382-.528-4.752-1.214-7.023l-2.545-8.364c-.951-3.12-1.927-6.294-3.77-8.976-.681-.987-.887-2.988-1.922-3.585-2.26-1.304-5.687.338-8.137.428-2.45.089-4.683 1.832-6.114 3.801-1.516 2.081-2.376 4.557-3.168 7.007a66.671 66.671 0 00-2.815 11.21c-.079.57-.148 1.14-.2 1.716-.528 5.423.243 10.877.285 16.326v.037c.053 6.912-1.056 13.781-1.262 20.688-.021 1.262.01 2.64.792 3.606z" fill="#2F2E41"/><path opacity=".1" d="M304.279 298.075c1.821-.46 3.469-1.637 4.884-2.926a20.418 20.418 0 003.242-3.696 26.336 26.336 0 002.793-5.845 68.29 68.29 0 003.696-17.039c.137-1.584.18-3.284-.766-4.541a3.824 3.824 0 00-4.62-1.119c-1.246.607-2.054 1.837-2.803 3.015-1.484 2.334-2.978 4.699-3.934 7.297-.422 1.151-.734 2.334-1.146 3.49a32.199 32.199 0 01-1.447 3.343 37.52 37.52 0 00-.2 1.716c-.491 5.422.258 10.856.301 16.305z" fill="#000"/><path d="M318.102 263.009c.945 1.257.903 2.973.771 4.536a68.202 68.202 0 01-3.696 17.039 26.115 26.115 0 01-2.793 5.892 20.678 20.678 0 01-3.242 3.697c-1.796 1.636-3.982 3.099-6.416 3.12a12.226 12.226 0 01-3.992-.871l-19.826-6.748c-.201-1.13.596-2.45.971-3.538l1.056-3.131c.301-.866.65-1.8 1.436-2.27.787-.47 2.033.174 2.688.697.655.522 1.151 1.209 1.795 1.742 1.22 1.014 2.83 1.394 4.383 1.742l4.451.998c1.614.442 3.28.664 4.953.66 1.24-3.791 3.601-7.128 4.937-10.887.411-1.151.723-2.339 1.151-3.49.95-2.598 2.45-4.958 3.933-7.298.745-1.172 1.553-2.402 2.804-3.015a3.82 3.82 0 014.636 1.125zm-3.279-15.069a4.693 4.693 0 00-.56-1.743 1.464 1.464 0 00-1.584-.697c-.929.29-1.24 1.727-2.212 1.774-.655.032-1.125-.633-1.331-1.256-.206-.623-.316-1.336-.807-1.775a3.032 3.032 0 00-1.152-.528c-2.254-.712-4.583-2.027-5.332-4.271a2.552 2.552 0 01-.122-1.431c.343-1.42 2.112-1.848 3.459-2.36 1.346-.513 2.64-1.389 3.96-2.054 1.32-.666 2.851-1.136 4.303-.798.737.232 1.461.502 2.17.808 2.186.761 4.863.407 6.558 1.986a6.763 6.763 0 011.584 2.766c1.183 3.285 1.933 7.181-.026 10.064-1.209 1.78-2.382 3.813-4.705 4.029-2.703.227-3.775-2.223-4.203-4.514z" fill="#2F2E41"/><path opacity=".1" d="M310.694 244.898c-.206-.623-.317-1.336-.803-1.774a2.991 2.991 0 00-1.151-.528c-2.259-.713-4.583-2.028-5.338-4.272a2.605 2.605 0 01-.116-1.431c.052-.225.147-.438.28-.628-.861.375-1.611.871-1.822 1.748-.097.479-.055.975.122 1.431.749 2.244 3.078 3.559 5.333 4.271.416.093.809.273 1.151.528.491.439.596 1.146.808 1.775.211.628.675 1.288 1.33 1.256.655-.031.972-.628 1.389-1.13-.576-.074-.993-.665-1.183-1.246zm9.884 6.421c-2.714.248-3.785-2.223-4.224-4.499a4.585 4.585 0 00-.528-1.742 1.464 1.464 0 00-1.584-.697c-.481.233-.886.6-1.167 1.056a1.58 1.58 0 011.194.739c.299.538.489 1.131.559 1.742.428 2.276 1.5 4.753 4.225 4.499a4.353 4.353 0 002.787-1.447 3.927 3.927 0 01-1.262.349z" fill="#000"/><path d="M429.333 349.54c9.417 0 17.05-1.468 17.05-3.279s-7.633-3.279-17.05-3.279c-9.416 0-17.049 1.468-17.049 3.279s7.633 3.279 17.049 3.279z" fill="#EF7F1A"/><path d="M429.048 347.465c1.097 0 1.986-1.163 1.986-2.598 0-1.435-.889-2.598-1.986-2.598-1.096 0-1.985 1.163-1.985 2.598 0 1.435.889 2.598 1.985 2.598z" fill="#3F3D56"/><path d="M429.048 344.286c1.097 0 1.986-1.163 1.986-2.597 0-1.435-.889-2.598-1.986-2.598-1.096 0-1.985 1.163-1.985 2.598 0 1.434.889 2.597 1.985 2.597z" fill="#3F3D56"/><path d="M429.048 341.113c1.097 0 1.986-1.163 1.986-2.598 0-1.434-.889-2.598-1.986-2.598-1.096 0-1.985 1.164-1.985 2.598 0 1.435.889 2.598 1.985 2.598z" fill="#3F3D56"/><path d="M429.048 337.934c1.097 0 1.986-1.163 1.986-2.597 0-1.435-.889-2.598-1.986-2.598-1.096 0-1.985 1.163-1.985 2.598 0 1.434.889 2.597 1.985 2.597z" fill="#3F3D56"/><path d="M429.048 334.756c1.097 0 1.986-1.163 1.986-2.598 0-1.435-.889-2.598-1.986-2.598-1.096 0-1.985 1.163-1.985 2.598 0 1.435.889 2.598 1.985 2.598z" fill="#3F3D56"/><path d="M429.048 331.582c1.097 0 1.986-1.163 1.986-2.597 0-1.435-.889-2.598-1.986-2.598-1.096 0-1.985 1.163-1.985 2.598 0 1.434.889 2.597 1.985 2.597z" fill="#3F3D56"/><path d="M429.048 328.404c1.097 0 1.986-1.163 1.986-2.598 0-1.435-.889-2.598-1.986-2.598-1.096 0-1.985 1.163-1.985 2.598 0 1.435.889 2.598 1.985 2.598z" fill="#3F3D56"/><path d="M436.478 304.089a9.91 9.91 0 00.739-1.088l-5.217-.855 5.644.037a9.566 9.566 0 00.18-7.535l-7.572 3.928 6.981-5.132a9.493 9.493 0 00-6.105-4.492 9.503 9.503 0 00-11.309 11.67 9.523 9.523 0 001.721 3.467 9.458 9.458 0 00-1.088 1.732l6.775 3.521-7.224-2.423a9.5 9.5 0 001.537 8.913 9.508 9.508 0 00-1.074 10.026 9.51 9.51 0 003.506 3.902 9.514 9.514 0 0010.084 0 9.51 9.51 0 004.408-9.069 9.5 9.5 0 00-1.976-4.859 9.509 9.509 0 000-11.759l-.01.016z" fill="#EF7F1A"/><path opacity=".1" d="M419.491 309.95a9.455 9.455 0 002.049 5.882 9.508 9.508 0 00-1.074 10.026 9.502 9.502 0 008.548 5.349 9.506 9.506 0 007.474-15.375c1.262-1.621-16.997-6.949-16.997-5.882z" fill="#000"/><path d="M78.368 414.919c13.557 0 24.547-2.114 24.547-4.721s-10.99-4.72-24.547-4.72-24.548 2.113-24.548 4.72c0 2.607 10.99 4.721 24.548 4.721z" fill="#EF7F1A"/><path d="M77.956 411.935c1.578 0 2.857-1.676 2.857-3.743 0-2.068-1.28-3.744-2.857-3.744-1.578 0-2.857 1.676-2.857 3.744 0 2.067 1.28 3.743 2.857 3.743z" fill="#3F3D56"/><path d="M77.956 407.363c1.578 0 2.857-1.676 2.857-3.744 0-2.067-1.28-3.744-2.857-3.744-1.578 0-2.857 1.677-2.857 3.744 0 2.068 1.28 3.744 2.857 3.744z" fill="#3F3D56"/><path d="M77.956 402.79c1.578 0 2.857-1.676 2.857-3.743 0-2.068-1.28-3.744-2.857-3.744-1.578 0-2.857 1.676-2.857 3.744 0 2.067 1.28 3.743 2.857 3.743z" fill="#3F3D56"/><path d="M77.956 398.218c1.578 0 2.857-1.676 2.857-3.744 0-2.067-1.28-3.744-2.857-3.744-1.578 0-2.857 1.677-2.857 3.744 0 2.068 1.28 3.744 2.857 3.744z" fill="#3F3D56"/><path d="M77.956 393.645c1.578 0 2.857-1.676 2.857-3.744 0-2.067-1.28-3.743-2.857-3.743-1.578 0-2.857 1.676-2.857 3.743 0 2.068 1.28 3.744 2.857 3.744z" fill="#3F3D56"/><path d="M77.956 389.067c1.578 0 2.857-1.676 2.857-3.743 0-2.068-1.28-3.744-2.857-3.744-1.578 0-2.857 1.676-2.857 3.744 0 2.067 1.28 3.743 2.857 3.743z" fill="#3F3D56"/><path d="M77.956 384.495c1.578 0 2.857-1.677 2.857-3.744 0-2.068-1.28-3.744-2.857-3.744-1.578 0-2.857 1.676-2.857 3.744 0 2.067 1.28 3.744 2.857 3.744z" fill="#3F3D56"/><path d="M88.654 349.461c.386-.504.739-1.034 1.056-1.584l-7.509-1.236 8.121.064a13.737 13.737 0 00.259-10.851l-10.888 5.671 10.032-7.392a13.69 13.69 0 10-22.614 15.312 13.654 13.654 0 00-1.584 2.492l9.752 5.069-10.397-3.49a13.69 13.69 0 002.25 12.878 13.693 13.693 0 0010.76 22.157 13.687 13.687 0 0012.316-7.71 13.693 13.693 0 00-1.554-14.447 13.688 13.688 0 000-16.928v-.005z" fill="#EF7F1A"/><path opacity=".1" d="M64.201 357.946a13.65 13.65 0 002.93 8.448 13.696 13.696 0 00-1.554 14.447 13.69 13.69 0 0019.58 5.623 13.689 13.689 0 003.497-20.07c1.821-2.333-24.453-10.005-24.453-8.448z" fill="#000"/></g><defs><linearGradient id="paint0_linear" x1="317.802" y1="404.642" x2="310.813" y2="231.388" gradientUnits="userSpaceOnUse"><stop stop-color="gray" stop-opacity=".25"/><stop offset=".54" stop-color="gray" stop-opacity=".12"/><stop offset="1" stop-color="gray" stop-opacity=".1"/></linearGradient><clipPath id="clip0"><path fill="#fff" d="M0 0h540v414.919H0z"/></clipPath></defs></svg>