<svg width="540" height="409" fill="none" xmlns="http://www.w3.org/2000/svg"><g clip-path="url(#clip0)"><path opacity=".1" d="M5.829 192.95c8.543 33.297 26.632 62.08 55.22 76.029 59.436 28.997 193.397 14.041 293.391-3.123 51.737-8.88 97.18-33.368 130.211-67.875L5.829 192.95zM530.208 36.225h-54.865c-2.61 0-4.746-1.946-4.746-4.324s2.131-4.324 4.746-4.324h9.493c-2.61 0-4.746-1.946-4.746-4.324s2.131-4.32 4.746-4.32h-6.773c-2.611 0-4.747-1.945-4.747-4.323s2.132-4.324 4.747-4.324h28.636c-6.356-2.696-13.765-4.61-22.338-5.61-78.084-9.147-105.965-3.1-115.814 3.122a114.923 114.923 0 01-40.132 16.039C280.238 32.898 190.14 43.8 108.477 20.343c-40.588-11.652-70.752 8.07-88.836 40.968h520.093c-.679-9.57-2.71-18.407-6.441-26.14a4.976 4.976 0 01-3.085 1.054zM1.172 123.452a201.22 201.22 0 002.132 58.092l481.713 16.062a205.63 205.63 0 0033.467-46.515L1.172 123.452zm190.511 41.441h-9.493c2.606 0 4.746 1.947 4.746 4.325s-2.136 4.319-4.746 4.319h-54.841c-2.606 0-4.747-1.941-4.747-4.319s2.136-4.325 4.747-4.325h9.493c-2.606 0-4.747-1.946-4.747-4.324s2.136-4.324 4.747-4.324h-6.783c-2.606 0-4.747-1.941-4.747-4.319s2.136-4.324 4.747-4.324h54.865c2.61 0 4.746 1.946 4.746 4.324s-2.131 4.319-4.746 4.319h6.759c2.61 0 4.746 1.946 4.746 4.324s-2.121 4.324-4.746 4.324zM539.758 61.61L13.845 73.272C7.439 88.266 3.2 105.216 1.245 122.787H530.54a189.37 189.37 0 007.642-31.56c1.576-10.328 2.207-20.314 1.576-29.617zM108.026 99.824h-9.493c2.605 0 4.746 1.946 4.746 4.324s-2.136 4.324-4.746 4.324h-54.86c-2.606 0-4.747-1.946-4.747-4.324s2.136-4.324 4.747-4.324h9.493c-2.606 0-4.747-1.942-4.747-4.32s2.136-4.324 4.747-4.324h-6.783c-2.606 0-4.747-1.946-4.747-4.324s2.136-4.324 4.747-4.324h54.865c2.61 0 4.746 1.946 4.746 4.324s-2.131 4.324-4.746 4.324h6.778c2.605 0 4.746 1.946 4.746 4.324s-2.141 4.32-4.746 4.32zm207.303 264.152c19.721 0 35.708-3.589 35.708-8.017 0-4.427-15.987-8.017-35.708-8.017-19.721 0-35.708 3.59-35.708 8.017 0 4.428 15.987 8.017 35.708 8.017zm82.974 22.731c35.578 0 64.419-2.367 64.419-5.288 0-2.92-28.841-5.287-64.419-5.287-35.578 0-64.42 2.367-64.42 5.287 0 2.921 28.842 5.288 64.42 5.288zm-258.651-5.288c35.577 0 64.419-3.589 64.419-8.017 0-4.427-28.842-8.016-64.419-8.016-35.578 0-64.42 3.589-64.42 8.016 0 4.428 28.842 8.017 64.42 8.017zm98.219-40.131c26.77 0 48.471-3.59 48.471-8.017 0-4.428-21.701-8.017-48.471-8.017-26.77 0-48.471 3.589-48.471 8.017 0 4.427 21.701 8.017 48.471 8.017zm13.532 66.774c21.43 0 38.803-3.59 38.803-8.017 0-4.428-17.373-8.017-38.803-8.017-21.43 0-38.802 3.589-38.802 8.017 0 4.427 17.372 8.017 38.802 8.017z" fill="#6394E2"/><path d="M274.091 142.552c-1.025-6.902-7.295-23.007-7.295-23.007a25.945 25.945 0 00-.37-1.424c-4.448-15.283-10.604-16.612-10.604-16.612l-22.052-4.747c.185.116.346.266.475.442-.117.01-.232.028-.347.052a8.642 8.642 0 01-1.932-4.177c-.042-.228-.08-.475-.109-.707a15.508 15.508 0 002.93-18.274 15.516 15.516 0 00-4.9-5.568c1.04-1.106 1.073-2.644.295-4.182-1.738-3.607-5.516-5.89-9.398-7.005-2.967-.85-6.171-1.126-9.123-.195-1.676.531-3.204 1.424-4.775 2.216-2.929 1.462-6.171 2.62-8.359 5.027-.512.56-.987 1.277-.835 2.017.114.55.55.978.83 1.467.632 1.096.475 2.478.043 3.674-.432 1.196-1.063 2.306-1.362 3.531-.299 1.225-.185 2.668.736 3.546.441.34.901.657 1.376.95.504.428.946.925 1.315 1.475a630.59 630.59 0 012.61 3.527 36.303 36.303 0 013.271 4.97c.65 1.281 1.153 2.648 2.022 3.797.254.335.546.64.868.911l-.256-.1a3.956 3.956 0 002.9 1.182h.133a.8.8 0 00.532-.218v.474c.052 1.695.042 3.499-.076 5.193l-.204-.104a1.78 1.78 0 00-1.899.199l-20.301 16.29s-4.414 6.038-3.797 16.461l-3.56 15.63s-4.447 13.262-1.025 22.731c3.422 9.469 5.406 14.885 5.406 14.885s1.367 10.761 3.422 11.639c2.056.878 2.943 1.352 2.943 1.352l.408 2.573s.138.252.38.674c1.495 2.601 7.035 11.781 10.253 10.798.405 2.493.58 5.018.522 7.543l3.185 21.383s2.221 5.814 2.083 8.861c-.137 3.047 2.592 7.391 2.592 7.391a14.116 14.116 0 00-1.367 9.943c1.301 5.696 2.943 31.935 2.943 31.935l2.373 6.36-.066 7.457a7.122 7.122 0 01-1.472 3.323c-1.538 1.67-1.424 3.602-5.131 5.885-3.707 2.283-6.056 3.147-6.056 6.171a8.025 8.025 0 01-.114 1.257c-.342 2.222-1.006 3.427 5.809 4.073 8.008.759 13.348-4.462 13.348-4.462s1.177-2.136 6.721-3c0 0 1.898-.099 1.998-1.775.038-.579.028-1.685 0-2.905-.09-2.321-.313-5.031-.608-5.164-.37-.166-1.015-2.501-1.238-3.346h1.542s1.424-10.76 0-17.728c-1.424-6.968-.137-11.909-.137-11.909l-.276-18.402s-1.898-2.032-.408-5.62c1.49-3.589 0-21.312 0-21.312s.551-6.36 2.122-7.851c1.571-1.49.076-9.317 0-9.725l2.8 9.393s1.23 18.673 3.835 22.052l.75 8.458s5.335 7.785 4.31 11.976c-1.025 4.191 1.097 19.351 1.097 19.351v15.498s-2.397 6.222.949 8.458l1.424-.057c-.475.441-.84 1.106-1.396 1.68-.64.66-1.006 3.171-1.21 5.331-.171 1.827-.228 3.398-.228 3.398s1.424 2.278 4.106 2.435c2.682.157 11.52 6.878 11.52 6.878s8.728 0 10.988-.475l.133-.033a2.967 2.967 0 001.704-1.391 3.562 3.562 0 00.408-2.558c-.28-1.334-1.339-2.796-3.683-4.04-5.834-3.075-6.702-5.956-6.702-5.956l-3.831-5.748h.546s-.337-6.09 3.83-12.925l-.27-30.107s1.709-10.352-1.23-15.972c0 0-.242-5.952 1.723-7.78 1.966-1.827-2.615-20.296-2.615-20.296s-.949-9.915-2.065-18.962c4.619 4.381 9.408-11.392 10.215-14.197h.119l-.053-.204c.034-.133.053-.199.053-.199s-1.026-3.646-.276-2.905c.75.74 2.601-2.032 2.601-2.032s-.275-15.089 2.943-22.693c3.218-7.603-1.429-26.124-1.429-26.124zm-13.764 9.602l.023-.043c.475 9.213-.09 28.873-.09 28.873s-.636 2.52-1.315 5.487l-.474-18.677-.475-17.596 2.331 1.956zm-58.909-6.351s2.326 29.091 0 33.287c-.66 1.196-1.215 3.323-1.676 5.748-.769-2.017-2.397-6.754-1.813-9.265.755-3.247-1.505-11.776-1.505-11.975 0-.2-.204-4.747 1.424-8.221 1.628-3.475.561-4.979.561-4.979s1.367-5.696 3.009-4.595z" fill="url(#paint0_linear)"/><path d="M207.085 211.324c-2.027 8.909-10.086-4.562-11.923-7.794-.237-.423-.37-.669-.37-.669l.873-4.097 4.618-1.898c.732.382 1.425.833 2.07 1.348 2.53 1.989 6.294 6.208 4.732 13.11zm62.526-14.577s0 .067-.052.2c0 .057-.038.132-.062.213-.793 2.782-5.492 18.44-10.029 14.093-4.965-4.747-2.554-15.721-2.554-15.721h.033l10.442-1.068 2.07 2.127.152.156z" fill="#D38884"/><path d="M263.569 273.807l.265 29.903c-4.096 6.787-3.759 12.815-3.759 12.815l-13.499.532c-3.294-2.217-.949-8.392-.949-8.392v-15.398s-2.084-15.041-1.078-19.209c1.007-4.167-4.229-11.866-4.229-11.866l-.74-8.397c-2.554-3.355-3.764-21.89-3.764-21.89l-2.739-9.361c.076.404 1.5 8.217 0 9.655-1.5 1.438-2.084 7.789-2.084 7.789s1.476 17.6 0 21.155c-1.476 3.555.399 5.577.399 5.577l.271 18.269s-1.277 4.904.132 11.819c1.41 6.916 0 17.6 0 17.6h-14.481l.066-7.456-2.344-6.313s-1.614-26.059-2.891-31.702a14.165 14.165 0 011.338-9.873s-2.681-4.296-2.548-7.319c.132-3.024-2.07-8.791-2.07-8.791l-3.123-21.221a41.23 41.23 0 00-1.548-12.09c-1.813-6.047-4.499-13.973-4.499-13.973l3.033.27 15.303 1.363s37.207-2.502 38.873-.423c.352.68.589 1.413.703 2.169 1.671 7.505 3.878 31.014 3.878 31.014s4.499 18.336 2.568 20.149c-1.932 1.813-1.695 7.718-1.695 7.718 2.896 5.577 1.211 15.877 1.211 15.877z" fill="#444053"/><path d="M232.113 325.748c-.104 1.666-1.96 1.765-1.96 1.765-5.439.855-6.598 2.972-6.598 2.972s-5.221 5.188-13.095 4.433c-6.693-.646-6.042-1.837-5.696-4.044.067-.411.104-.827.109-1.244 0-3.023 2.317-3.882 5.943-6.17 3.626-2.288 3.527-4.182 5.036-5.843 1.509-1.661 1.666-4.884 1.666-4.884 1.709-2.976 6.042.474 6.042.474.204 1.054 6.645.907 6.645.907s.855 3.427 1.296 3.626c.29.133.508 2.82.593 5.127.048 1.21.057 2.306.019 2.881z" fill="#B07473"/><path opacity=".1" d="M232.113 325.748c-.104 1.666-1.96 1.765-1.96 1.765-5.439.855-6.598 2.972-6.598 2.972s-5.221 5.188-13.095 4.433c-6.693-.646-6.042-1.837-5.696-4.044 2.99.74 8.705 1.775 12.042-.038 4.637-2.516 7.965-4.272 7.965-4.272l7.328-3.688c.043 1.201.052 2.297.014 2.872z" fill="#000"/><path d="M273.109 334.714a2.897 2.897 0 01-1.671 1.381l-.128.033c-2.217.475-10.784.475-10.784.475s-8.662-6.697-11.282-6.849c-2.621-.152-4.03-2.421-4.03-2.421s.052-1.557.218-3.37c.204-2.145.56-4.637 1.191-5.292 1.159-1.211 1.424-2.848 4.03-1.814 0 0 3.721-6.559 8.107-1.49l4.538 6.882s.854 2.848 6.602 5.938c2.298 1.234 3.323 2.687 3.612 4.011.183.86.039 1.756-.403 2.516z" fill="#B07473"/><path opacity=".1" d="M273.109 334.714c-.513.432-1.078.897-1.671 1.381l-.128.033c-2.217.475-10.784.475-10.784.475s-8.662-6.697-11.282-6.849c-2.621-.152-4.03-2.421-4.03-2.421s.052-1.557.218-3.37c2.668.797 6.707 2.207 7.789 3.726 1.661 2.312 6.707 5.539 6.707 5.539s9.407-.906 13.584-1.03c.183.86.039 1.756-.403 2.516z" fill="#000"/><path d="M236.499 100.336l-12.388 13.096s-15.013-1.106-12.393-5.539c1.333-2.26 1.542-6.987 1.424-11.098-.11-3.963-.518-7.338-.518-7.338s21.056-10.48 19.461-.707a16.073 16.073 0 00-.057 5.577c.897 4.937 4.471 6.009 4.471 6.009z" fill="#D38884"/><path opacity=".1" d="M232.066 88.75a16.073 16.073 0 00-.057 5.577 15.453 15.453 0 01-11.021 4.6c-2.848 0-5.929-2.34-8.231-3.693a463.583 463.583 0 01-.133-5.777s21.056-10.48 19.442-.707z" fill="#000"/><path d="M236.499 82.603a15.518 15.518 0 01-12.061 15.133 15.515 15.515 0 1112.061-15.133z" fill="#D38884"/><path opacity=".1" d="M257.607 199.049c-3.864 9.194-28.716 9.384-28.716 9.384v-10.024l-1.505-.1c.65 2.871-.911 9.873-.911 9.873-19.641 2.772-24.431-8.421-24.431-8.421l.684-3.83 15.303 1.362s37.207-2.501 38.873-.422c.353.682.59 1.418.703 2.178z" fill="#000"/><path d="M228.891 207.223v-10.025l-1.505-.095c.65 2.848-.911 9.873-.911 9.873-14.781 2.084-21.151-3.736-23.396-6.745a9.127 9.127 0 01-1.035-1.671l6-33.747 1.424-49.668 2.15-8.714.498-4.182v-.047h.053l1.528.655 9.147 3.954 10.39-7.846.151-.11.518-.394.859.689 2.136 1.713 6.849 44.233s11.866 34.056 14.088 47.802c.09.55.161 1.063.218 1.542 1.467 12.55-29.162 12.783-29.162 12.783z" fill="#6394E2"/><path d="M223.954 108.671a.883.883 0 100-1.765.883.883 0 000 1.765zm.408 8.06a.883.883 0 100-1.766.883.883 0 000 1.766zm.883 13.048a.883.883 0 100-1.765.883.883 0 000 1.765zm1.457 14.054a.883.883 0 100-1.765.883.883 0 000 1.765zm.883 13.196a.883.883 0 100-1.766.883.883 0 000 1.766zm.883 14.054a.883.883 0 100-1.765.883.883 0 000 1.765zm-.351 13.902a.883.883 0 100-1.766.883.883 0 000 1.766z" fill="#67647E"/><path opacity=".1" d="M212.705 169.721s-.987 12.924-2.8 16.684c-1.814 3.759-2.621 14.306-2.621 14.306l-4.21-.475a9.177 9.177 0 01-1.034-1.671l5.999-33.747 1.424-49.668 2.155-8.719.498-4.182.057-.024a1.705 1.705 0 011.5.024l.2.105c-.061.17-.117.346-.171.526-1.643 5.141-2.255 14.615-2.255 14.615s2.373 17.329 2.62 25.389c.247 8.06-1.362 26.837-1.362 26.837z" fill="#000"/><path opacity=".1" d="M202.353 198.228c-.046.108-.1.213-.162.313-1.632 2.758-5.771 4.51-7.029 4.989-.237-.423-.37-.669-.37-.669l.873-4.097 4.618-1.898c.732.386 1.425.843 2.07 1.362z" fill="#000"/><path d="M191.165 132.271l-3.83 2.283-3.489 15.516s-4.367 13.162-1.011 22.565 5.307 14.785 5.307 14.785 1.343 10.68 3.36 11.553c2.018.874 2.886 1.344 2.886 1.344l.404 2.553s5.468-1.856 7.399-5.126c1.932-3.27-1.423-11.392-1.423-11.392s-2.886-6.92-2.146-10.143c.741-3.223-1.481-11.686-1.481-11.866 0-.181-.199-4.704 1.424-8.164s.541-4.936.541-4.936l-1.011-9.873-6.93-9.099z" fill="#67647E"/><path opacity=".1" d="M257.925 196.144s-10.143 3.826-13.366.475c-3.223-3.351-2.891-19.076-2.891-19.076s-3.085-29.016-5.036-33.781c-1.951-4.765-.949-39.159-.949-39.159s-1.31-4.447-2.454-5.61a1.252 1.252 0 00-.242-.195l.394.086 1.376.294 2.136 1.714 6.849 44.232s11.867 34.056 14.088 47.802l.095 3.218z" fill="#000"/><path opacity=".1" d="M269.611 197.151h-.114c-1.277.166-12.545 1.528-12.593-.817a7.084 7.084 0 01.043-.811l10.442-1.068 2.07 2.126c.038.138.066.256.095.351l.057.219z" fill="#000"/><path d="M258.798 116.731l7.405 3.863s6.17 15.977 7.157 22.826c0 0 4.571 18.35 1.424 25.897-3.146 7.547-2.885 22.527-2.885 22.527s-1.814 2.753-2.554 2.017c-.741-.735.271 2.886.271 2.886s-12.659 1.681-12.712-.807c-.052-2.487 2.905-14.372 2.905-14.372s.807-28.275-.337-32.708c-1.144-4.433-.674-32.129-.674-32.129z" fill="#67647E"/><path opacity=".1" d="M236.703 146.847s-4.167 10.205-5.51 10.879c-1.344.674.27 3.356.27 3.356s7.59-10.608 5.24-14.235zm-2.487-35.798c.048-.194-4.969 4.922-6.313 5.696-1.343.774 4.903-.048 6.313-5.696zm-13.969 34.991s-7.656 4.951-6.645 6.911c1.011 1.961 6.645-6.911 6.645-6.911zm13.903 72.266s6.517 4.191 16.655 5.221l-16.655-5.221zm-15.65 10.077s6.043 7.594 8.8 7.789c2.758.194-8.8-7.789-8.8-7.789zm8.463 29.76c-.27.133-3.427 6.849-6.645 7.053-3.218.205 6.645-7.053 6.645-7.053zm28.005 14.714s5.99-1.343 7.324 2.953c0-.015-.404-1.358-7.324-2.953zm-4.03 24.568s7.257-1.481 8.8.537c1.543 2.017-8.8-.537-8.8-.537zm-20.529 3.437c0 .066-7.385 1.481-7.119 2.42.265.94 7.879.807 8.149-.674a1.405 1.405 0 00-.149-1.088 1.425 1.425 0 00-.881-.658zm18.113 6.37s12.137-1.481 11.392 1.072c-.746 2.554-11.392-1.072-11.392-1.072zm-63.537-149.506c.067.2 7.994 1.277 9.066 3.831 0 0-7.789-3.631-9.018-3.631m11.102 20.552s-6.583 2.084-6.114 5.221c.47 3.138-.669-1.452 6.114-5.221zm-3.066 15.986s2.397-3.289 4.68-2.686c2.283.602-4.68 2.686-4.68 2.686zM230.661 70.48a3.744 3.744 0 01-.769.575c-1.899 1.106-2.421 2.81-3.323 4.775-.84 1.799-1.765 3.702-3.46 4.723-2.188 1.32-5.069.835-7.343 1.984a5.694 5.694 0 00-3.037 5.615c.144.874.36 1.734.645 2.573.517 1.815.751 3.7.693 5.586a.922.922 0 010 .166 15.52 15.52 0 01-8.019-9.747 15.51 15.51 0 0112.418-19.432 15.509 15.509 0 0112.214 3.183h-.019z" fill="#000"/><path d="M230.258 65.81c-1.704-3.579-5.411-5.847-9.223-6.953-2.91-.84-6.071-1.116-8.957-.19-1.647.522-3.142 1.424-4.684 2.197-2.877 1.453-6.038 2.602-8.202 4.989-.508.555-.95 1.267-.821 2.003.109.546.536.95.811 1.452.622 1.092.475 2.464.043 3.65-.432 1.187-1.044 2.288-1.339 3.508-.294 1.22-.18 2.649.722 3.517.403.385.921.627 1.357.95.494.426.927.918 1.287 1.461l2.563 3.503a35.499 35.499 0 013.208 4.932c.636 1.272 1.13 2.63 1.984 3.764.855 1.134 2.184 2.046 3.598 1.922a.697.697 0 00.57-.27.753.753 0 00.071-.356 18.181 18.181 0 00-.679-5.568 16.154 16.154 0 01-.645-2.572 5.722 5.722 0 013.038-5.615c2.278-1.15 5.159-.665 7.342-1.98 1.7-1.025 2.625-2.928 3.461-4.746.916-1.965 1.424-3.67 3.322-4.775 1.899-1.106 2.117-2.938 1.173-4.823z" fill="#585268"/><path opacity=".1" d="M223.309 319.402s2.373 3.023 1.756 4.746c-.617 1.723-1.756-4.746-1.756-4.746zm32.11 7.565s.527-4.053 2.639-4.091c2.112-.038 2.216-.218 3.83.403 1.614.622 3.128 1.586 2.644 1.728-.484.143-2.777-2.316-5.131-1.058a16.965 16.965 0 00-3.982 3.018zm-39.192-215.073l6.645-4.656s-9.721-5.744-10.879-4.937c-1.158.807-1.956 8.069-1.956 8.069l6.19 1.524z" fill="#000"/><path d="M216.198 111.595l6.646-4.746s-9.721-5.744-10.879-4.937c-1.159.807-1.956 8.468-1.956 8.468l6.189 1.215z" fill="#E1E7EF"/><path d="M216.198 111.595l6.646-4.746s-9.721-5.744-10.879-4.937c-1.159.807-1.956 8.468-1.956 8.468l6.189 1.215z" fill="#6394E2"/><path d="M213.066 101.95l-.2-.1a1.718 1.718 0 00-1.865.195l-19.935 16.171s-4.334 5.995-3.731 16.338l11.757 16.655s1.343-5.639 2.952-4.566c0 0 2.283 28.883 0 33.045-2.283 4.163-3.289 19.746-3.289 19.746l7.723.873s.806-10.547 2.62-14.306c1.813-3.759 2.8-16.684 2.8-16.684s1.633-18.777 1.362-26.836c-.27-8.06-2.62-25.39-2.62-25.39s.66-10.157 2.426-15.141z" fill="#67647E"/><path opacity=".1" d="M232.925 108.951l-8.283-3.066s10.547-11.553 11.867-5.145l-3.584 8.211z" fill="#000"/><path d="M232.925 108.548l-8.283-3.067s10.547-11.552 11.867-5.145l-3.584 8.212z" fill="#E1E7EF"/><path d="M232.925 108.548l-8.283-3.067s10.547-11.552 11.867-5.145l-3.584 8.212z" fill="#6394E2"/><path opacity=".1" d="M232.654 98.718a.47.47 0 01.342.076l-.342-.076z" fill="#000"/><path d="M233.452 97.916l21.976 4.746s6.047 1.343 10.414 16.523c4.367 15.179-5.981 33.776-5.981 33.776l-2.283-1.942 1.144 44.328s-10.143 3.826-13.366.475c-3.223-3.351-2.886-19.091-2.886-19.091s-3.09-29.01-5.04-33.781c-1.951-4.77-.95-39.153-.95-39.153s-1.794-6.147-3.028-5.881z" fill="#67647E"/><path opacity=".1" d="M253.558 126.162c-.308.285-.669 13.698.674 23.908a130.22 130.22 0 003.797 18.402l-1.993-40.9s-1.538-2.283-2.478-1.41zm-2.686-11.553c.536.337 2.89 5.909 1.813 8.192-1.078 2.284-1.813-8.192-1.813-8.192zM230.129 65.81a12.124 12.124 0 00-4.832-5.06 11.489 11.489 0 013.622 4.272c.949 1.899.669 3.797-1.177 4.837-1.847 1.04-2.421 2.81-3.323 4.775-.84 1.799-1.765 3.702-3.465 4.746-2.183 1.32-5.064.831-7.342 1.98a5.734 5.734 0 00-3.038 5.62c.146.872.363 1.73.65 2.567.517 1.816.751 3.7.693 5.587a.755.755 0 01-.076.356.676.676 0 01-.565.27 3.27 3.27 0 01-1.656-.308 3.856 3.856 0 002.848 1.116.563.563 0 00.61-.372.565.565 0 00.026-.255 18.214 18.214 0 00-.689-5.587 15.61 15.61 0 01-.65-2.572 5.722 5.722 0 013.038-5.615c2.278-1.149 5.159-.665 7.343-1.98 1.699-1.025 2.625-2.928 3.46-4.746.916-1.965 1.424-3.67 3.322-4.775 1.899-1.106 2.151-2.971 1.201-4.856z" fill="#000"/><path d="M365.343 125.417c-6.541-.128-12.312-4.747-15.583-10.39a10.437 10.437 0 01-1.576-4.448c.023-.36.083-.716.181-1.063.199-.53.358-1.074.474-1.628a2.845 2.845 0 000-.665v-.037c.157-1.201-.55-2.374-1.424-3.195-.873-.821-1.969-1.424-2.881-2.24-2.81-2.468-3.664-6.427-3.716-10.196v-.2c.033-1.613.161-3.231.147-4.845a20.438 20.438 0 00-.119-2.744c-.27-2.283-1.139-4.609-2.933-6.066-4.68-3.797-12.55.157-17.396-3.431-1.177-.879-2.131-2.174-3.56-2.516-1.077-.261-2.198.09-3.251.441-3.57 1.177-7.552 2.725-8.947 6.17-.798 1.98-.575 4.24-1.306 6.242-.474 1.344-1.381 2.497-2.041 3.77a5.907 5.907 0 00-.759 3.146 3.55 3.55 0 00.232 1.676 4.28 4.28 0 001.163 1.666 5.475 5.475 0 01-.693 1.11c-.911 1.116-2.311 1.899-3.26 3.01-1.757 2.036-1.69 4.803-.826 7.195.863 2.392 2.425 4.571 3.503 6.902.474 1.011.835 2.14.356 3.147-.337.697-1.035 1.229-1.576 1.832a5.754 5.754 0 00-1.424 3.18c-10.685 2.44-10.694 11.026-10.694 11.026l-5.772 14.515s-.925 2.444-2.012 5.672l-6.831-1.225 4.747 7.946c-.897 3.237-1.533 6.237-1.324 7.746 0 0-2.122 9.968 1.651 11.71l8.326 3.745c.36.221.748.395 1.153.517l.337.152a.89.89 0 00.779 0h.114c.161.011.323-.013.474-.071a.953.953 0 00.418-.451.124.124 0 010-.047l2.492-.722 2.112 2.501c.949.67 1.899 1.249 2.796 1.771l-3.271 32.475s-.527 43.194-2.121 53.038c-.589 3.645-.594 6.132-.371 7.822l-.061.105c.394 2.776 1.424 3.322 1.424 3.322v-.038a.296.296 0 00.061.038 28.037 28.037 0 011.709-3.664v.712c-.033 3.664-.147 8.795-.527 12.132-.645 5.696 1.652 24.468 1.652 24.468l.793 17.087a15.804 15.804 0 01-1.946 8.326c-1.899 3.412-4.324 8.216-4.5 10.347a2.233 2.233 0 000 .347l-4.073 4.898s-1.59 2.459 2.003 3.451c1.932.536 5.264 0 7.941-.632a5.302 5.302 0 004.116-5.164 18.265 18.265 0 013.36-6.45l.669 3.935 4.481 1.11.574-10.784a4.73 4.73 0 00.309-1.898c.883-7.671-2.079-6.982-2.079-6.982a.41.41 0 01.142.265l-.142-.261c-1.818-3.588-.949-9.493-.949-9.493s2.373-17.087 3.185-21.601c.583-3.19.341-13.632.147-19.461 0-.242 0-.474-.024-.707 6.949-.09 15.464-.323 21.44-.902v.703l-1.101 40.369a22.173 22.173 0 01-1.548 7.509c0 .047-.033.09-.052.137a32.768 32.768 0 00-2.188 10.58l-.513 12.816v.356c-.892.342-2.302 1.334-2.34 4.21-.061 4.215 7.367 2.81 7.367 2.81 7.423 0 7.485-7.727 7.485-7.727s.233-7.087.589-11.829c.356-4.741-1.12-3.697-1.12-3.697l-.114 13.489v.105-11.824l.114-1.713v-.413l.935-13.912s6.839-23.182 7.898-27.63c.754-3.161.441-12.682.194-17.946 0-.242 0-.475-.038-.698a55.402 55.402 0 014.747-.209h.346s-.351-37.231-1.238-51.262c-.888-14.031-2.298-26.87-5.834-30.733-2.136-2.336-5.112-9.546-7.12-14.886a74.495 74.495 0 0013.086 4.272c11.197 2.345 9.664-7.376 9.664-7.376l-1.134-18.383h.076a93.78 93.78 0 00-1.234-14.372c-.593-3.646-1.5-7.414-2.886-10.443a85.798 85.798 0 003.593-1.504c3.043-1.344 6.47-3.247 6.906-6.527h-.147a4.18 4.18 0 00.114-.721zm-69.408 26.58c.024 1.899-.048 5.193-.162 8.833l-3.555-4.746 3.565-5.781.152 1.694zm49.117 16.822l-5.924-1.899a26.563 26.563 0 013.66-4.528l.512-.475-.185.038.285-.261.171-.038-.271.261.323-.066a10.094 10.094 0 002.017 4.058c2.127 2.321-.584 2.91-.584 2.91h-.004z" fill="url(#paint1_linear)"/><path d="M309.068 339.688l-.693 13.138-4.419-1.105-.93-5.464 6.042-6.569z" fill="#A27772"/><path opacity=".1" d="M309.068 339.688l-.693 13.138-4.419-1.105-.93-5.464 6.042-6.569z" fill="#000"/><path d="M325.287 354.568l6.74 1.396 4.998-4.414v-12.441l.114-1.699v-.413l.931-13.827s6.744-23.015 7.793-27.434c.741-3.133.432-12.588.185-17.814-.099-2.141-.185-3.574-.185-3.574l-14.88-3.603-.313 11.439-1.087 40.08a22.21 22.21 0 01-1.524 7.456l-.052.138a32.617 32.617 0 00-2.16 10.499l-.503 12.745v.351l-.057 1.115z" fill="#CC818C"/><path opacity=".1" d="M325.287 354.568l6.74 1.396 4.998-4.414v-1.059a1.424 1.424 0 01-.716 1.139l-.072.043a13.432 13.432 0 01-7.566 1.495l-2.629-.223a2.47 2.47 0 00-.698.171v.351l-.057 1.101z" fill="#000"/><path d="M336.237 352.02l.072-.038a1.427 1.427 0 00.726-1.235l.109-13.389s1.452-1.04 1.101 3.669c-.351 4.708-.579 11.742-.579 11.742s-.057 7.671-7.381 7.671c0 0-7.324 1.395-7.267-2.791.057-4.187 3.024-4.357 3.024-4.357l2.63.227a13.397 13.397 0 007.565-1.499z" fill="#B07473"/><path d="M290.182 351.721c.171 3.023 9.066 1.276 9.066 1.276l5.985-11.619s4.998-3.84 2.497-7.21a5.464 5.464 0 01-.366-.574l-.023-.029a3.435 3.435 0 01-.147-.27c-1.795-3.56-.912-9.398-.912-9.398s2.321-16.974 3.138-21.45c.574-3.161.337-13.532.147-19.332-.076-2.412-.147-4.03-.147-4.03l-14.767-3.954v4.405c-.033 3.64-.147 8.733-.522 12.046-.636 5.634 1.628 24.293 1.628 24.293l.783 16.978a15.728 15.728 0 01-1.898 8.264c-1.851 3.389-4.272 8.164-4.438 10.276a1.996 1.996 0 00-.024.328z" fill="#CC818C"/><path opacity=".1" d="M290.182 351.721c.171 3.023 9.066 1.276 9.066 1.276l5.985-11.619s4.998-3.84 2.497-7.21a5.464 5.464 0 01-.366-.574c-.08 1.761-2.012 6.17-2.012 6.17s-4.941 9.887-6.512 12.151c-1.571 2.264-8.397-.422-8.653-.517-.01.107-.012.215-.005.323z" fill="#000"/><path d="M307.194 333.28s2.923-.678 2.05 6.935a4.907 4.907 0 01-2.311 4.353c-2.094 1.314-5.321 4.143-6.954 9.644a5.263 5.263 0 01-4.058 5.127c-2.639.617-5.929 1.158-7.832.626-3.546-.987-1.975-3.427-1.975-3.427l4.068-4.827s7.091 2.791 8.658.522c1.566-2.269 6.512-12.146 6.512-12.146s2.71-6.166 1.842-6.807z" fill="#B07473"/><path opacity=".1" d="M330.983 272.155l-.313 11.439c3.963-.385 6.802-.921 7.286-1.676 1.049-1.623 4.855-2.306 8.092-2.586-.099-2.141-.185-3.575-.185-3.575l-14.88-3.602zm-36.33 8.771a5.437 5.437 0 011.628-1.965c1.567-.868 1.396 5.582 1.396 5.582s5.221.048 11.89-.038c-.076-2.411-.147-4.034-.147-4.034l-14.767-3.949s.029 1.832 0 4.404z" fill="#000"/><path d="M292.968 282.455s1.747-4.747 3.323-5.592c1.576-.844 1.395 5.578 1.395 5.578s38.362.351 40.279-2.616c1.918-2.966 13.077-2.791 13.077-2.791s-.347-36.965-1.22-50.911c-.873-13.945-2.264-26.68-5.753-30.515-2.254-2.482-5.463-10.513-7.447-15.867a203.72 203.72 0 01-1.794-5.056l-36.615 2.089-.299 2.967-3.887 38.883s-.522 42.894-2.093 52.657c-1.571 9.764 1.034 11.174 1.034 11.174z" fill="#444053"/><path opacity=".1" d="M334.984 279.825c1.899-2.962 13.077-2.791 13.077-2.791s-.347-36.965-1.22-50.911c-.873-13.945-2.264-26.68-5.753-30.515-2.264-2.492-5.463-10.513-7.447-15.867a188.145 188.145 0 01-1.737-4.894l2.848-.162s.716 2.132 1.799 5.056c1.984 5.354 5.188 13.385 7.442 15.867 3.489 3.835 4.884 16.565 5.753 30.515.869 13.95 1.225 50.911 1.225 50.911s-11.159-.171-13.082 2.791c-1.637 2.53-29.865 2.649-38.057 2.625 10.513-.024 33.671-.337 35.152-2.625zm-41.674-2.962c.707-.394 1.059.698 1.234 2.022a27.389 27.389 0 00-1.647 3.57s-1.011-.546-1.424-3.323c.579-.992 1.22-1.927 1.837-2.269z" fill="#000"/><path d="M304.284 85.247c-2.535 3.456.028 8.368-2.691 11.729-.897 1.11-2.279 1.898-3.214 2.99-1.732 2.022-1.666 4.77-.816 7.144.85 2.373 2.373 4.537 3.455 6.854.475 1.001.826 2.126.352 3.123-.333.693-1.021 1.22-1.557 1.818-1.747 1.95-1.794 4.661-.855 6.958.94 2.297 2.734 4.272 4.505 6.218.698.764 1.58 1.609 2.743 1.585a3.786 3.786 0 001.723-.565 17.557 17.557 0 007.993-22.92c-1.471-3.527-3.925-6.907-3.949-10.633 0-2.957 1.519-5.78 1.79-8.724.327-3.578-1.79-9.26-6.109-10.822.285 2.298-2.084 3.47-3.37 5.245z" fill="#585268"/><path opacity=".1" d="M304.284 85.247c-2.535 3.456.028 8.368-2.691 11.729-.897 1.11-2.279 1.898-3.214 2.99-1.732 2.022-1.666 4.77-.816 7.144.85 2.373 2.373 4.537 3.455 6.854.475 1.001.826 2.126.352 3.123-.333.693-1.021 1.22-1.557 1.818-1.747 1.95-1.794 4.661-.855 6.958.94 2.297 2.734 4.272 4.505 6.218.698.764 1.58 1.609 2.743 1.585a3.786 3.786 0 001.723-.565 17.557 17.557 0 007.993-22.92c-1.471-3.527-3.925-6.907-3.949-10.633 0-2.957 1.519-5.78 1.79-8.724.327-3.578-1.79-9.26-6.109-10.822.285 2.298-2.084 3.47-3.37 5.245zm28.109 125.692c-5.074.266-9.849 2.449-14.292 4.918-4.443 2.468-8.743 5.263-13.523 7.015m24.663.024a20.914 20.914 0 00-13.171 6.407c-1.234 1.306-2.298 2.768-3.584 4.021a15.923 15.923 0 01-7.063 4.001m24.858-5.33a23.03 23.03 0 00-10.595 6.388c-.778.841-1.485 1.738-2.264 2.578-4.2 4.509-10.134 6.901-15.863 9.165" fill="#000"/><path d="M329.849 105.809c.112 4.055.46 8.099 1.044 12.113.475 2.848 1.139 5.411 2.093 6.546 2.791 3.322-13.599 7.76-13.599 7.76l-9.678-7.499s7.671-7.063 4.096-13.95c-3.574-6.888 16.044-4.97 16.044-4.97z" fill="#CC818C"/><path opacity=".1" d="M297.905 179.74h38.707a208.044 208.044 0 01-1.794-5.055l-36.614 2.089-.299 2.966z" fill="#000"/><path d="M295.413 179.043h41.385c-1.163-4.163 0-8.012 1.656-10.974a24.23 24.23 0 014.334-5.62l.284-.261 14.449-3.199.778-.171s.119-26.272-9.184-29.879c-9.303-3.608-14.881-8.482-14.881-8.482l-12.782 3.949-9.417-4.747c-3.023 3.252-11.045 1.975-11.045 1.975-13.134 1.509-13.134 11.391-13.134 11.391s7.671 17.9 8.255 17.9c.583 0-.698 28.118-.698 28.118z" fill="#6394E2"/><path opacity=".1" d="M309.7 162.34s-8.44-1.87-11.311-5.141l11.311 5.141zm42.552-9.802l-9.787 8.022c.071.638.179 1.272.323 1.899l.284-.262 14.449-3.199-5.269-6.46zm-26.5 23.714s2.141 1.205 5.421 2.791h5.625c-1.163-4.163 0-8.012 1.656-10.974l-9.915-3.209c3.374 3.138-2.787 11.392-2.787 11.392z" fill="#000"/><path d="M293.666 129.874l-5.81 3.137-5.696 14.415s-5.928 15.806-5.349 19.993c0 0-2.088 9.882 1.628 11.624l9.683 4.386a.902.902 0 001.163-1.244c-1.381-2.615-2.9-6.707-.475-8.957l-2.791-5.809 10.087-16.509 3.37-5.696-5.81-15.34z" fill="#6394E2"/><path opacity=".1" d="M306.591 159.041c.503 2.05 2.202 5.221 7.827 6.403l6.17 5.055 6.565 2.976 2.677 1.21 1.134-8.197-2.577-1.424-3.005-1.642s-6.778-12.279-17.51-7.12a2.379 2.379 0 00-1.281 2.739z" fill="#000"/><path d="M306.942 158.343c.503 2.055 2.198 5.221 7.822 6.403l6.171 5.055 6.569 2.976 2.672 1.211 1.135-8.197-2.578-1.424-2.981-1.628s-6.782-12.28-17.514-7.097a2.375 2.375 0 00-1.296 2.701z" fill="#CC818C"/><path opacity=".1" d="M319.036 116.441c8.281 0 14.994-6.713 14.994-14.994 0-8.281-6.713-14.994-14.994-14.994-8.281 0-14.994 6.713-14.994 14.994 0 8.281 6.713 14.994 14.994 14.994z" fill="#000"/><path d="M319.036 116.095c8.281 0 14.994-6.713 14.994-14.995 0-8.28-6.713-14.994-14.994-14.994-8.281 0-14.994 6.713-14.994 14.994 0 8.282 6.713 14.995 14.994 14.995z" fill="#CC818C"/><path opacity=".1" d="M328.325 133.139l-4.509-8.762s6.598-2.667 7.077-5.757c.479-3.09 6.322 3.621 5.06 5.848-1.263 2.226-7.628 8.671-7.628 8.671z" fill="#000"/><path d="M328.325 132.442l-4.509-8.762s6.598-2.668 7.077-5.758c.479-3.09 6.322 3.626 5.06 5.848-1.263 2.221-7.628 8.672-7.628 8.672z" fill="#6394E2"/><path d="M291.421 155.078l24.914 33.496s-9.184 4.998-21.834-3.949l-5.463-6.513-15.597-26.29 17.98 3.256z" fill="#F6F8FB"/><path d="M286.518 173.29l2.269-.062s13.859-13.451 17.263-6.645c3.403 6.807-8.634 13.167-8.634 13.167l-3.66 1.975-4.77 1.423-3.052-4.096.584-5.762z" fill="#CC818C"/><path opacity=".1" d="M289.864 180.557c.209.774.408 1.628.057 2.345a.952.952 0 01-.413.451 1.052 1.052 0 01-.475.066 4.768 4.768 0 01-3.127-1.547 14.26 14.26 0 01-2.027-2.934c-.617-1.077-1.258-2.268-1.04-3.493.247-1.334 1.424-2.259 2.578-3.009 2.297-1.519 2.373.251 2.876 2.207.503 1.955 1.044 3.939 1.571 5.914z" fill="#000"/><path d="M289.518 180.557c.204.774.408 1.628.057 2.345a.962.962 0 01-.413.451c-.151.057-.314.08-.475.066a4.748 4.748 0 01-3.128-1.547 14.12 14.12 0 01-2.031-2.934c-.617-1.077-1.258-2.268-1.035-3.493.242-1.334 1.424-2.259 2.572-3.009 2.302-1.519 2.374.251 2.882 2.207a655.957 655.957 0 001.571 5.914z" fill="#6394E2"/><path opacity=".1" d="M296.11 150.91l1.159-1.96-1.011 3.641-.148-1.681zm31.413 21.867l2.672 1.211 1.135-8.197-2.578-1.424c1.78 2.041.223 5.814-1.229 8.41zm10.727-9.516s-8.629.526-12.293-1.828l12.293 1.828z" fill="#000"/><path opacity=".1" d="M337.177 168.767a24.285 24.285 0 014.334-5.625c.41-.258.837-.489 1.277-.693l13.451-2.762.779-.171s.118-26.272-9.18-29.88a55.857 55.857 0 01-14.505-8.168l1.02-.314s5.577 4.88 14.88 8.482c9.303 3.603 9.18 29.88 9.18 29.88h-1.395l-13.765 2.634s-.594.574-.774.74a26.68 26.68 0 00-4.4 5.82 14.588 14.588 0 00-1.153 11.03h-1.424c-1.149-4.162.038-8.012 1.675-10.973zm-36.738-46.374c.223-.033.437-.066.67-.09.943.134 1.894.212 2.848.233a25.832 25.832 0 01-3.518-.143zm19.732 2.711l-8.516-4.31c.169-.139.328-.29.475-.451l8.885 4.495-.844.266z" fill="#000"/><path d="M352.589 151.822l5.696 6.977 1.163 18.948s1.509 9.645-9.531 7.319c-11.041-2.326-23.818-9.512-23.818-9.512s6.17-8.254 2.791-11.392l15.81 5.117s2.673-.584.579-2.905c-2.093-2.321-2.463-6.512-2.463-6.512l9.773-8.04z" fill="#6394E2"/><path opacity=".1" d="M355.162 171.838l3.137 3.602a4.524 4.524 0 01-3.137-3.602zm-5.35-.584l4.885 6.275-2.44.583-2.445-6.858zm-48.684-77.036c-.537-1.315-.124-2.848.522-4.087.645-1.239 1.533-2.41 2.017-3.745.717-1.984.498-4.229 1.281-6.17 1.382-3.441 5.307-4.98 8.824-6.17 1.04-.347 2.146-.694 3.209-.437 1.424.337 2.349 1.628 3.512 2.496 4.775 3.56 12.541-.36 17.159 3.408 1.766 1.424 2.625 3.755 2.891 6.019.265 2.264 0 4.561-.029 6.844-.076 3.997.674 8.368 3.664 11.017.902.797 1.965 1.396 2.848 2.221.883.826 1.576 1.98 1.424 3.176a11.056 11.056 0 01-.474 1.614c-.594 2.083.294 4.271 1.376 6.17 3.228 5.587 8.919 10.191 15.369 10.319-.432 3.256-3.797 5.145-6.811 6.479-3.797 1.704-7.841 3.375-12.023 3.161-4.182-.213-8.544-2.891-9.275-7.01-.251-1.424-.218-3.138-1.424-3.878-.74-.451-1.699-.337-2.496-.674-1.154-.475-1.723-1.771-2.103-2.962a26.68 26.68 0 01-1.239-7.595c-.052-3.056.352-6.393-1.381-8.909-1.604-2.33-4.452-3.512-6.303-5.653-1.709-1.984-3.565-4.376-6.365-4.746-3.874-.546-11.886 4.718-14.173-.888z" fill="#000"/><path d="M301.128 93.52c-.537-1.314-.124-2.848.522-4.087.645-1.238 1.533-2.41 2.017-3.744.717-1.984.498-4.23 1.281-6.17 1.382-3.447 5.307-4.985 8.824-6.171 1.04-.347 2.146-.693 3.209-.437 1.424.337 2.349 1.628 3.512 2.497 4.775 3.56 12.541-.361 17.159 3.408 1.766 1.424 2.625 3.754 2.891 6.023.265 2.269 0 4.557-.029 6.84-.076 3.996.674 8.368 3.664 11.016.902.798 1.965 1.396 2.848 2.222.883.826 1.576 1.979 1.424 3.175a11.056 11.056 0 01-.474 1.614c-.594 2.084.294 4.272 1.376 6.17 3.237 5.568 8.904 10.186 15.355 10.314-.432 3.257-3.797 5.146-6.811 6.484-3.797 1.699-7.842 3.37-12.023 3.157-4.182-.214-8.544-2.891-9.275-7.011-.251-1.424-.218-3.137-1.424-3.878-.74-.451-1.699-.337-2.496-.674-1.154-.475-1.723-1.77-2.103-2.962a26.604 26.604 0 01-1.239-7.594c-.052-3.057.351-6.394-1.381-8.909-1.605-2.331-4.452-3.513-6.304-5.653-1.708-1.984-3.564-4.377-6.365-4.747-3.859-.541-11.871 4.732-14.158-.883z" fill="#585268"/><path opacity=".1" d="M311.769 132.052l8.596-6.977s-5.886-3.19-6.588-5.909c-.703-2.72-5.411 1.291-4.932 3.73.48 2.44 2.924 9.156 2.924 9.156z" fill="#000"/><path d="M312.106 131.003l8.596-6.972s-5.886-3.19-6.56-5.91c-.674-2.719-5.411 1.291-4.931 3.731.479 2.44 2.895 9.151 2.895 9.151z" fill="#6394E2"/><path opacity=".1" d="M321.039 130.553a.684.684 0 100-1.367.684.684 0 000 1.367zm0 3.797a.684.684 0 100-1.367.684.684 0 000 1.367zm0 3.792a.683.683 0 10.001-1.367.683.683 0 00-.001 1.367zm-16.442-54.314c.679-1.865.532-3.959 1.168-5.838a6.328 6.328 0 00-.726 1.338c-.788 1.96-.565 4.206-1.287 6.17l-.047.115c.352-.567.65-1.164.892-1.785zm54.229 46.986c-3.797 1.699-7.841 3.37-12.023 3.156-4.182-.214-8.544-2.891-9.275-7.006-.251-1.424-.218-3.142-1.423-3.882-.741-.451-1.7-.337-2.497-.674-1.154-.475-1.723-1.771-2.103-2.962a26.645 26.645 0 01-1.239-7.595c-.052-3.052.356-6.388-1.376-8.909-1.609-2.33-4.457-3.507-6.308-5.653-1.709-1.98-3.565-4.376-6.365-4.746-3.84-.523-11.867 4.746-14.135-.864a4.41 4.41 0 01.147-3.242c-.166.28-.328.56-.475.845-.645 1.262-1.054 2.776-.517 4.091 2.283 5.601 10.295.337 14.135.864 2.8.38 4.656 2.777 6.365 4.747 1.851 2.145 4.699 3.322 6.303 5.657 1.737 2.516 1.329 5.853 1.381 8.905a26.639 26.639 0 001.239 7.594c.38 1.196.95 2.478 2.103 2.962.797.337 1.756.228 2.497.674 1.224.741 1.191 2.473 1.424 3.883.74 4.115 5.097 6.792 9.274 7.006 4.177.213 8.202-1.453 12.023-3.157 2.753-1.224 5.819-2.919 6.645-5.696-1.319 1.804-3.655 3.048-5.8 4.002z" fill="#000"/><path d="M442.711 157.603c-10.048-5.781-13.846-7.205-13.865-7.205l-.208-.148a8.35 8.35 0 01-2.53-3.199 6.579 6.579 0 010-.688.25.25 0 000 .067c.156-3.062 2.335-5.848 4.4-8.278l5.283-6.214a6.117 6.117 0 001.362-2.154c.106-.433.154-.879.142-1.325v-.541c-.028-1.542-.071-3.09-.128-4.632-.047-1.348-.394-3.048-1.742-3.323-.702-.142-1.633.109-2.003-.475a1.148 1.148 0 01-.09-.802.25.25 0 000 .067v-.076c.261-1.042.428-2.104.498-3.176a4.31 4.31 0 00-.218-1.609c-.778-2.235-3.47-3.156-5.848-3.579-2.378-.422-5.045-.783-6.536-2.643a19.344 19.344 0 00-1.3-1.79 5.138 5.138 0 00-2.43-1.201 13.771 13.771 0 00-8.843.769c-1.149.513-2.302 1.206-3.565 1.13-1.262-.076-2.43-.987-3.721-1.206-2.088-.356-4.087 1.177-5.117 2.995a7.327 7.327 0 00-.949 3.532v.209a5.164 5.164 0 001.357 3.607c.902.949 2.241 1.576 2.616 2.805.152.499.114 1.04.251 1.547.015.063.034.125.057.186l-.066.09a15.659 15.659 0 00-3.323 9.654 16.026 16.026 0 0011.259 15.189v.475c0 1.898-.546 3.878-2.183 5.316l-14.235 5.686s-8.582-1.02-11.677 11.52a21.39 21.39 0 00-.531 6.36c.114 1.899-.147 5.221-2.373 9.526-3.518 6.892-2.715 22.712 4.48 24.279 6.793 1.481 9.451.864 9.731.792v.276c-.114 2.971-1.192 28.574-5.108 31.668-1.082.859-.882 1.424 0 1.828 0 0 0 .166-.023.474-.119 1.899-.722 9.019-3.323 13.063-3.042 4.699-2.724 31.801-2.724 31.801l-2.075 15.977s1.277 9.868 0 11.591c-1.144 1.533-2.662 38.038-2.98 45.956h-.133a3.86 3.86 0 00-3.076 1.898c-1.68 2.729-7.566 7.775-7.566 7.775-1.277 1.813-6 3.55-8.496 4.367-.33.107-.648.247-.95.417a5.069 5.069 0 00-2.145 2.26 2.411 2.411 0 00-.228 1.898c.636 1.562 13.912 2.663 17.273 1.092 2.639-1.229 13.1-2.848 17.443-3.484a3.577 3.577 0 003.104-3.104 2.043 2.043 0 00-.398-1.552c-.831-1.03-1.253-3.845-1.424-5.696.352-.144.682-.339.977-.579a41.695 41.695 0 012.374-16.76c3.199-8.458 4.158-24.122 3.36-34.303 0 0 9.754-41.978 17.434-45.894.119.152 3.845 4.932 4.319 19.736.475 15.037 5.915 24.905 5.915 24.905s-2.402 25.531 0 35.086l-3.138 15.07a5.566 5.566 0 01-.38-.346s.095.417.224 1.087l-.067.322.138.029c.356 1.899.883 5.169.664 7.12-.123 1.096-.432 2.601-.641 4.077-.332 2.321-.422 4.571.798 5.064 2.003.807 13.765 1.899 15.758-.683a3.692 3.692 0 00.579-3.868 3.877 3.877 0 00-.579-.988s-3.123-5.102-2.24-8.7a2.661 2.661 0 00-.375-2.065c.138-1.765.85-9.939 2.691-16.878 2.003-7.538 6.223-24.065 3.119-34.93-.117-.427-.25-.845-.399-1.253a46.909 46.909 0 01-1.761-18.326 37.363 37.363 0 010-15.977c1.922-8.771 3.266-17.386 3.266-17.386s1.058-11.591.132-18.697c0-.152-.042-.304-.061-.474l.503-.114s-2.72-12.061-3.679-19.736c-.227-1.813-.522-4.106-.845-6.555a16.774 16.774 0 002.606-.65c8.634-2.977 11.354-29.903 11.354-29.903v-8.544s2.905-13.134-7.172-18.929zm-64.344 208.01a8.379 8.379 0 01-.422-.223l.422.223z" fill="url(#paint2_linear)"/><path d="M437.499 313.065c3.745 10.77-.626 28.251-2.658 36.073-2.031 7.823-2.653 17.173-2.653 17.173-7.96 1.249-13.736-.313-13.736-.313l3.279-16.076c-2.344-9.522 0-34.968 0-34.968s-5.306-9.835-5.776-24.819c-.475-14.748-4.096-19.518-4.21-19.665-7.49 3.902-17.012 45.737-17.012 45.737.779 10.143-.161 25.755-3.28 34.175a42.246 42.246 0 00-2.34 16.698c-1.091.95-2.61 1.082-4.271.817-4.457-.722-9.802-4.562-9.802-4.562s1.714-45.566 2.967-47.294c1.253-1.728 0-11.553 0-11.553l2.026-15.92s-.313-27.007 2.654-31.687c2.563-4.044 3.151-11.155 3.265-13.02v-.475l4.519-5.411s43.706-3.279 46.99 0c.802.803 1.301 2.635 1.595 4.937.902 7.081-.133 18.63-.133 18.63s-1.31 8.586-3.185 17.324a38.026 38.026 0 000 15.925 47.691 47.691 0 001.761 18.274z" fill="#65617D"/><path d="M434.765 381.51c-1.951 2.577-13.423 1.485-15.378.683-1.192-.475-1.102-2.739-.779-5.05.204-1.467.503-2.967.627-4.058.308-2.81-.95-8.511-.95-8.511s2.573 2.734 3.195 0c.275-1.196 1.234-1.808 2.231-2.117a5.827 5.827 0 014.053.252c2.027.883 5.406 2.757 4.804 5.292-.859 3.584 2.183 8.672 2.183 8.672.236.297.428.626.57.978a3.749 3.749 0 01-.556 3.859z" fill="#A27772"/><path opacity=".1" d="M434.765 381.51c-1.951 2.577-13.423 1.485-15.378.683-1.192-.475-1.102-2.739-.779-5.05 1.234.579 3.323 1.058 6.821.736a19.142 19.142 0 012.454-.076c2.485.111 4.974.061 7.452-.152.269.633.358 1.328.257 2.009a3.736 3.736 0 01-.827 1.85zm-40.036-65.322c.778 10.143-.162 25.755-3.28 34.175a42.246 42.246 0 00-2.34 16.698c-1.092.95-2.611 1.082-4.272.817.949-6.584 4.955-34.949 7.523-57.362 2.929-25.522 16.613-43.079 16.613-43.079l2.729 3.004c-7.452 3.912-16.973 45.747-16.973 45.747z" fill="#000"/><path d="M430.08 152.13l-1.898 9.365-9.336 15.687-11.511-4.917s-15.663-16.39-5.814-18.73a8.712 8.712 0 003.265-1.452c1.932-1.458 2.54-3.574 2.549-5.649a17.311 17.311 0 00-1.585-6.711l20.135-6.323a32.283 32.283 0 00-1.424 8.155c-.157 5.487 1.898 8.188 3.555 9.493a6.044 6.044 0 002.064 1.082z" fill="#FBBEBE"/><path opacity=".1" d="M425.866 133.4a32.283 32.283 0 00-1.424 8.155 15.93 15.93 0 01-17.093 4.879 17.3 17.3 0 00-1.599-6.711l20.116-6.323z" fill="#000"/><path d="M428.177 130.823a15.928 15.928 0 01-9.827 14.716 15.924 15.924 0 11-6.097-30.636 15.845 15.845 0 0114.731 9.816 15.834 15.834 0 011.193 6.104z" fill="#FBBEBE"/><path opacity=".1" d="M430.08 152.13l-1.898 9.365-9.336 15.687-11.511-4.917s-15.663-16.39-5.814-18.73a8.712 8.712 0 003.265-1.452c-1.775 4.879 5.554 15.032 5.554 15.032.854 1.258 2.81.474 2.81.474 4.722-.716 13.413-14.296 14.833-16.555.62.5 1.333.872 2.097 1.096zm9.014 90.791c-2.772.631-18.108 4.025-23.922 3.176-6.399-.95-18.839-1.557-18.839-1.557s-7.922.427-10.362-.688v-.475l4.519-5.411s43.706-3.28 46.99 0c.821.821 1.32 2.653 1.614 4.955z" fill="#000"/><path d="M410.335 167.585s-8.235-11.392-5.131-15.854l-13.912 5.696s-8.373-1.016-11.391 11.482a21.739 21.739 0 00-.518 6.341c.114 1.899-.142 5.221-2.292 9.493-3.432 6.869-2.654 22.636 4.371 24.207 7.025 1.572 9.517.779 9.517.779s-.949 28.564-4.993 31.844c-4.044 3.28 10.347 2.497 10.347 2.497s12.44.626 18.843 1.561c6.404.936 24.35-3.279 24.35-3.279s-2.653-12.019-3.593-19.665c-.94-7.647-3.128-23.937-3.128-23.937l15.92-21.568s2.81-13.034-7.025-18.81c-9.835-5.777-13.532-7.191-13.532-7.191s-9.883 16.09-15.032 16.869c.009 0-1.947.788-2.801-.465z" fill="#6394E2"/><path opacity=".1" d="M392.071 172.108s-.152 5.155.783 7.182c.935 2.026 4.371 13.29 4.371 13.29h-7.808s4.215-4.528 3.907-6.716c-.309-2.189-1.253-13.756-1.253-13.756z" fill="#000"/><path d="M415.176 210.977s-17.239-4.215-18.843-7.803c-1.604-3.588-6.033-11.624-6.033-11.624l1.818-2.449 8.382 6.578s9.968 7.96 14.676 8.743c4.709.783 0 6.555 0 6.555z" fill="#FBBEBE"/><path opacity=".05" d="M415.176 210.977s-17.239-4.215-18.843-7.803c-1.604-3.588-6.033-11.624-6.033-11.624l1.818-2.449 8.382 6.578s9.968 7.96 14.676 8.743c4.709.783 0 6.555 0 6.555z" fill="#000"/><path d="M430.081 190.686v9.351h-1.5a43.7 43.7 0 00-21.227 5.496l-2.819 1.562-.755.422-4.841-10.917 4.528-4.058h.232c1.106.109 5.896.508 7.927-.176 1.927-.655 4.319-2.729 9.996-1.281 2.796.716 5.188 3.849 7.899 2.871l.56-3.27z" fill="#FBBEBE"/><path opacity=".1" d="M445.146 173.655l3.118 3.513v8.51s-2.653 26.847-11.078 29.813c-8.425 2.967-23.476-1.718-23.476-1.718s-3.888-10.3-2.07-10.917c1.818-.617 16.067-4.386 16.067-4.386s-.199-15.749 2.919-20.434c0 0-2.026-14.671 4.998-14.984 7.025-.313 9.522 10.603 9.522 10.603z" fill="#000"/><path d="M445.621 173.655l3.123 3.513v8.51s-2.654 26.847-11.083 29.813c-8.43 2.967-23.477-1.718-23.477-1.718s-3.887-10.3-2.064-10.917c1.822-.617 16.067-4.386 16.067-4.386s-.204-15.749 2.919-20.434c0 0-2.032-14.671 4.993-14.984 7.025-.313 9.522 10.603 9.522 10.603z" fill="#6394E2"/><path opacity=".1" d="M423.81 137.582a6.257 6.257 0 00-.356-3.042c-.441-.95-1.471-1.666-2.477-1.424-1.334.313-1.899 2.05-3.218 2.468-1.106.351-2.312-.432-2.848-1.462-.537-1.03-.541-2.24-.541-3.399v-3.911c0-1.424-.048-2.952-.921-4.067-1.087-1.386-3.646-1.994-5.354-1.937a4.542 4.542 0 00-3.057 1.229c-.911.779-1.97 1.348-3.213 1.144a2.768 2.768 0 01-2.241-1.936v-.048a15.93 15.93 0 0111.157-6.273 15.917 15.917 0 0116.048 9.232 15.914 15.914 0 01-3.539 18.173 42.79 42.79 0 00.56-4.747z" fill="#000"/><path d="M401.825 122.721a2.789 2.789 0 01-2.245-1.942c-.129-.503-.095-1.039-.243-1.537-.365-1.23-1.675-1.866-2.553-2.801-1.756-1.865-1.642-4.931-.399-7.177 1.006-1.808 2.952-3.322 4.993-2.98 1.263.218 2.374 1.115 3.636 1.201 1.263.085 2.374-.613 3.479-1.125a13.103 13.103 0 018.649-.769 4.986 4.986 0 012.373 1.201c.453.57.876 1.164 1.267 1.779 1.453 1.852 4.058 2.217 6.379 2.635 2.321.417 4.946 1.338 5.696 3.569.508 1.481 0 3.085-.275 4.623a1.4 1.4 0 00.062.95c.365.598 1.272.346 1.955.474 1.315.28 1.652 1.975 1.704 3.323.054 1.538.095 3.077.124 4.618a5.916 5.916 0 01-.138 1.709 6.035 6.035 0 01-1.324 2.15l-5.155 6.194c-2.288 2.744-4.713 5.943-4.272 9.493-1.082.475-2.373-.451-2.724-1.585-.352-1.135-.072-2.373.171-3.517.42-2.011.696-4.049.825-6.1a6.237 6.237 0 00-.356-3.037c-.441-.95-1.471-1.666-2.477-1.424-1.339.313-1.899 2.05-3.218 2.468-1.106.351-2.312-.432-2.848-1.462-.537-1.03-.541-2.236-.541-3.394v-3.916c0-1.424-.048-2.952-.921-4.067-1.087-1.386-3.646-1.994-5.354-1.937a4.546 4.546 0 00-3.052 1.229c-.916.784-1.975 1.358-3.218 1.154z" fill="#7C5C5C"/><path opacity=".1" d="M405.418 171.719l4.889 20.082s3.854-.023-4.889-20.082zm16.703-3.356s-6.399 10.48-3.902 21.321l1.191.086s-2.126-5.017 2.711-21.407zm4.039 59.317s7.86-2.601 8.43 3.432c.019 0-1.462-4.134-8.43-3.432zm-22.693-34.654s-1.562 10.917 1.248 15.298c0 0-5.696 2.34-13.736 1.875l-.949-17.173h13.437z" fill="#000"/><path opacity=".1" d="M404.535 207.095l-.755.422-4.841-10.917 4.528-4.058h.232c-.071.541-1.333 9.925.836 14.553z" fill="#000"/><path d="M403.467 192.561s-1.562 10.917 1.248 15.293c0 0-5.696 2.345-13.736 1.875l-5.463-17.168h17.951z" fill="#6394E2"/><path d="M389.968 374.864a3.537 3.537 0 01-3.033 3.095c-4.239.631-14.449 2.245-17.026 3.475-3.28 1.561-16.233.474-16.859-1.092a2.474 2.474 0 01.223-1.899 4.999 4.999 0 012.093-2.25c.303-.168.62-.308.949-.417 2.44-.812 7.049-2.54 8.292-4.353 0 0 5.748-5.026 7.386-7.741a3.74 3.74 0 013-1.87c1.367-.062 2.89.626 3.517 3.621 0 0 7.485 4.272 9.493.527 0 0 .313 5.753 1.557 7.329a2.1 2.1 0 01.408 1.575z" fill="#A27772"/><path opacity=".1" d="M389.968 374.865a3.537 3.537 0 01-3.033 3.094c-4.239.632-14.449 2.245-17.026 3.475-3.28 1.561-16.233.474-16.859-1.092a2.474 2.474 0 01.223-1.899 4.991 4.991 0 012.093-2.249c2.112 1.423 6.802 2.771 17.116 1.162 9.839-1.537 14.714-3.042 17.087-4.067a2.087 2.087 0 01.399 1.576zm42.59-255.248v-.076c.223-1.168.56-2.374.475-3.546-.1.958-.258 1.909-.475 2.848a1.743 1.743 0 000 .774zm-9.108 14.609c.248.563.379 1.17.384 1.785.07-.848-.061-1.7-.384-2.487-.437-.949-1.467-1.666-2.473-1.424-1.339.313-1.899 2.05-3.223 2.468-1.101.351-2.307-.432-2.848-1.462-.541-1.03-.541-2.24-.541-3.398v-3.911c0-1.424-.048-2.953-.921-4.068-1.092-1.391-3.645-1.994-5.354-1.942a4.548 4.548 0 00-3.057 1.235c-.916.778-1.97 1.348-3.218 1.143a2.775 2.775 0 01-2.24-1.936c-.128-.503-.095-1.044-.242-1.543-.366-1.224-1.676-1.865-2.554-2.795a5.116 5.116 0 01-1.315-3.323 5.334 5.334 0 001.315 4.001c.878.95 2.188 1.571 2.554 2.796.147.475.114 1.04.242 1.543a2.777 2.777 0 002.24 1.936c1.248.204 2.302-.365 3.218-1.144a4.552 4.552 0 013.057-1.234c1.709-.052 4.272.551 5.354 1.942.873 1.115.916 2.648.921 4.067v3.911c0 1.159 0 2.374.541 3.394.541 1.021 1.732 1.818 2.848 1.467 1.31-.418 1.898-2.155 3.223-2.468 1.006-.219 2.036.531 2.473 1.447zm12.829-4.295a5.977 5.977 0 01-1.329 2.145l-5.154 6.194c-2.169 2.606-4.462 5.625-4.272 8.952.156-3.052 2.283-5.828 4.272-8.249l5.154-6.194a5.981 5.981 0 001.329-2.146 5.906 5.906 0 00.138-1.713c-.007.341-.054.68-.138 1.011zm-13.442 16.247a3.651 3.651 0 01-.156-.835 4.23 4.23 0 00.156 1.538c.352 1.129 1.638 2.064 2.725 1.58a6.529 6.529 0 01-.057-.683c-1.082.432-2.335-.489-2.668-1.6zM370.953 365.11s1.633 2.848 7.547.342l-7.547-.342zm49.986.693s5.097 6.005 11.524 1.97l-11.524-1.97zm14.837-71.003s-3.602 2.25-3.716 3.537c-.114 1.286 1.86-.95 1.86-.95l1.856-2.587zm1.424 17.259a7.534 7.534 0 01-4.438 1.732c-2.696.119-2.468 3.631-.707 2.578 1.761-1.054 5.145-4.31 5.145-4.31zm.684 2.254s-1.728 8.492-3.133 6.854l3.133-6.854z" fill="#000"/><path d="M104.1 377.954s10.846 2.976 16.067-.982c5.221-3.959 7.485-2.687 7.485-2.687s12.45-.688 13.476-3.631c1.025-2.943-4.775-13.632-4.775-13.632-.413-.949-1.016-2.155-1.287-2.155l.057-4.509 1.804-18.867c4.163-10.675.076-24.468.076-24.468l-.745-3.423a8.658 8.658 0 01.707-5.695l7.561-15.189a22.82 22.82 0 011.424-2.914 73.832 73.832 0 011.899-3.228 112.548 112.548 0 014.11-6.057c3.347-4.637 5.107-10.442 6.019-14.714l.403 1.339h.09l.11.023h.18l.195.034h.071l2.326 29.599c.142 11.543 4.381 17.932 4.381 17.932l-.584 25.484c.797 6.137-.95 14.32-1.752 17.586l-1.832 4.134a4.982 4.982 0 00-1.815 1.546 4.986 4.986 0 00-.886 2.213c-.36 3.052-3.574 9.631-3.574 9.631-1.243 1.576-3.944 5.833-3.944 5.833s-1.272 4.111-.484 5.649c.788 1.538 7.376 1.381 7.376 1.381 7.523 1.666 13.29-2.373 12.925-5.155-.366-2.781 1.172-3.488 1.172-3.488 2.99-.95 2.701-2.976 2.701-2.976a18.628 18.628 0 00-2.264-12.123l-.475 1.096a16.694 16.694 0 01.902-6.469l-.275.19-.086.052h-.028c.474-4.163 4.846-11.866 4.846-11.866 8.031-14.088 5.112-33.178 5.112-33.178l-1.244-5.952-.071-2.245a74.98 74.98 0 011.21-15.996c.432-2.335.878-5.155 1.22-8.264.722-6.569 3.047-13.347 4.12-16.219l.318-.057h.038c.437-.076.878-.151 1.324-.237h.086s.256-1.386.475-3.745c.128-1.505.232-3.413.232-5.606a63.047 63.047 0 00-2.995-19.512l.242-.347s.574-.778 1.623-2.126a243.039 243.039 0 018.625-10.367c6.621-7.551 4.675-15.188 4.675-15.188s-4.794-17.567-6.93-28.114c-1.22-6.009-3.507-10.096-5.259-12.507.395-1.663.618-3.361.665-5.069.142-3.124.033-6.38-1.372-9.185-1.405-2.805-4.395-5.022-7.519-4.647a2.87 2.87 0 01-1.348 0 2.046 2.046 0 01-.887-.773c-1.828-2.521-1.946-5.91-1.377-8.966.57-3.057 1.738-5.981 2.26-9.047.522-3.067.284-6.47-1.666-8.9-2.293-2.848-6.289-3.65-9.27-5.791-2.093-1.504-3.665-3.664-5.872-4.998s-4.272-.826-6.669-.323c-4.029.85-7.86 1.239-11.671 2.972a31.072 31.072 0 00-10.172 7.4 9.653 9.653 0 00-2.269 3.578c-.949 3.138.907 6.479.518 9.726-.276 2.302-1.633 4.305-2.711 6.36-1.077 2.056-1.898 4.495-1.053 6.645 1.329 3.361 5.662 4.073 8.814 5.862a2.69 2.69 0 011.044.907c.779 1.357-.812 2.767-1.813 3.973a5.991 5.991 0 00-1.187 2.411 8.6 8.6 0 00-5.159 6.227c-1.068 4.78.574 10.813 2.022 14.8-1.581 8.881.475 12.384 1.989 13.727a7.62 7.62 0 012.639 5.193v.166c.099 1.613.27 3.223.498 4.827-.052-.375-.104-.774-.133-.949-1.239 2.292-3.598 8.149-4.927 18.003a53.828 53.828 0 01-1.201 6.27 34.319 34.319 0 00-1.006 11.211l.238 3.195a1.006 1.006 0 01-.646-.214l1.666 3.052v5.15a18.978 18.978 0 01-1.263 6.792c-.118.314-.246.627-.384.95a5.527 5.527 0 00-.56 2.795c-3.584 5.492-11.8 36.268-11.8 36.268-4.457 10.091.366 16.613.366 16.613s2.335 28.095 2.772 29.547c.436 1.453 1.405 18.578 1.405 18.578v1.362a3.195 3.195 0 00-.812-.232c-3.907-.219-4.965 5.952-4.965 5.952l-7.993 7.632s-3.65-.617-9.018 3.413c-5.369 4.03 3.469 7.703 3.469 7.703zm79.813-162.373l-.024-.085-.218.128-.091.052-.042.029-3.684-13.001a21.58 21.58 0 01-.27-10.694l2.848-12.474v-2.999l9.051 24.121c.579 3.252-4.798 11.126-7.57 14.923z" fill="url(#paint3_linear)"/><path d="M187.886 254.821s-3.655 8.89-4.586 17.419a112.424 112.424 0 01-1.2 8.164 74.574 74.574 0 00-1.168 15.792l.071 2.217 1.187 5.871s2.848 18.858-5.017 32.751c0 0-4.661 8.32-4.804 12.26l-3.156 1.22-6.38-1.79s3.081-11.045 2.079-18.786l.575-25.157s-4.144-6.294-4.286-17.685l-2.435-31.261 29.12-1.015zm-29.12-4.453s-.783 12.189-6.811 20.591c-6.029 8.401-7.31 12.046-7.31 12.046l-7.424 15.009a8.597 8.597 0 00-.697 5.615l.731 3.379s4.015 13.623-.072 24.165l-1.936 20.362h-11.325s-.95-16.921-1.363-18.354c-.413-1.434-2.724-29.182-2.724-29.182s-4.747-6.455-.361-16.418c0 0 9.897-37.284 12.545-36.638 2.649.645 26.747-.575 26.747-.575z" fill="#FDC2CC"/><path opacity=".1" d="M136.106 307.032l-.726-3.379a8.54 8.54 0 01.693-5.639l7.423-15.023s1.287-3.655 7.31-12.047c5.786-8.069 6.74-19.631 6.806-20.519l1.154-.057s-.783 12.189-6.812 20.591c-6.028 8.401-7.309 12.046-7.309 12.046l-7.424 15.009a8.597 8.597 0 00-.697 5.615l.731 3.379s4.015 13.623-.072 24.165l-1.936 20.362h-1.149l1.937-20.362c4.086-10.542.071-24.141.071-24.141zm35.134 42.277c.142-3.939 4.803-12.26 4.803-12.26 7.889-13.907 5.017-32.751 5.017-32.751l-1.215-5.876-.071-2.217a74.625 74.625 0 011.167-15.791c.423-2.307.86-5.088 1.197-8.164.897-8.212 4.319-16.755 4.57-17.382l1.178-.047s-3.655 8.89-4.586 17.419a112.424 112.424 0 01-1.2 8.164 74.574 74.574 0 00-1.168 15.792l.071 2.217 1.187 5.871s2.848 18.858-5.017 32.751c0 0-4.661 8.32-4.804 12.26l-3.156 1.22-.665-.185 2.692-1.021z" fill="#000"/><path d="M167.585 349.167a5.487 5.487 0 005.221-.646 16.846 16.846 0 00-.427 9.465c1.291 5.164-12.047-4.158-12.047-4.158l2.848-6.507s1.106 2.06 4.405 1.846z" fill="#D39999"/><path opacity=".1" d="M168.577 349.456a5.32 5.32 0 004.238-.949 16.855 16.855 0 00-.427 9.465c1.291 5.164-12.046-4.158-12.046-4.158l2.847-6.508s.826 1.586 3.252 1.832c.736.086 1.438.186 2.136.318z" fill="#000"/><path d="M137.326 228.544h5.572v-31.616l-4.182-.75-1.39 32.366z" fill="#FDC2CC"/><path opacity=".05" d="M137.326 228.544h5.572v-31.616l-4.182-.75-1.39 32.366z" fill="#000"/><path d="M164.428 351.607s3.513-.219 5.089 2.938l1.936 1.504.949-2.221a18.506 18.506 0 012.193 11.975s.285 2.003-2.653 2.938c0 0-1.505.717-1.149 3.442.356 2.724-5.301 6.74-12.687 5.088 0 0-6.455.147-7.243-1.362-.788-1.51.503-5.521.503-5.521s2.653-4.205 3.868-5.757c0 0 3.157-6.503 3.517-9.493.361-2.99 3.812-5.183 5.677-3.531z" fill="#7E5659"/><path d="M135.356 354.26l.057-4.457s-6.413 1.846-11.605-.242c0 0 .436 4.481-.285 5.093-.722.612 2.402 6.379 2.402 6.379l3.488 3.655 6-2.184 1.628-5.126s-1.258-3.118-1.685-3.118z" fill="#D39999"/><path opacity=".1" d="M135.356 354.26l.057-4.457s-6.413 1.846-11.605-.242c0 0 .436 4.481-.285 5.093-.722.612 2.402 6.379 2.402 6.379l3.488 3.655 6-2.184 1.628-5.126s-1.258-3.118-1.685-3.118z" fill="#000"/><path d="M123.129 352.646s3.408.394 2.976 4.747c-.432 4.352.18 0 .18 0s3.622 1.466 4.913 3.512c1.291 2.046 3.622-1.827 3.797-2.938.176-1.111 1.628-1.571 1.628-1.571s5.696 10.561 4.69 13.466c-1.006 2.905-13.233 3.574-13.233 3.574s-2.227-1.253-7.353 2.653c-5.126 3.906-15.772.949-15.772.949s-8.677-3.621-3.404-7.594c5.274-3.973 8.853-3.37 8.853-3.37l7.85-7.566s1.04-6.08 4.875-5.862z" fill="#7E5659"/><path d="M163.83 102.975c2.169 1.315 3.712 3.451 5.767 4.937 2.924 2.112 6.849 2.9 9.099 5.719 1.899 2.402 2.146 5.758 1.633 8.786-.513 3.028-1.661 5.919-2.217 8.938-.555 3.018-.441 6.365 1.353 8.852.209.334.511.6.869.764.435.104.889.104 1.324 0 3.066-.37 6.009 1.823 7.386 4.59 1.376 2.767 1.485 5.985 1.343 9.071-.119 2.529-.404 5.111-1.514 7.39-1.899 3.873-5.848 6.265-9.745 8.097a75.63 75.63 0 01-7.779 3.143c-1.823.617-3.745 1.172-5.639.849-3.242-.56-5.539-3.508-8.615-4.661-2.52-.949-5.316-.607-7.998-.37-2.288.199-4.903.194-6.479-1.476-2.022-2.146-1.111-5.606-.076-8.368a5.964 5.964 0 01-5.09-3.58 5.96 5.96 0 01.875-6.16c.978-1.192 2.54-2.582 1.775-3.926a2.592 2.592 0 00-1.025-.892c-3.09-1.766-7.347-2.473-8.648-5.786-.835-2.131-.028-4.542 1.03-6.569 1.059-2.027 2.373-4.011 2.663-6.28.38-3.208-1.424-6.507-.508-9.602a9.642 9.642 0 012.226-3.541 30.559 30.559 0 019.968-7.305c3.745-1.713 7.499-2.098 11.458-2.933 2.373-.503 4.338-1.035 6.564.313z" fill="#865A61"/><path d="M142.893 150.758s-9.08-.474-10.798 7.267c-1.718 7.742 3.726 18.83 3.726 18.83l7.072-26.097z" fill="#FDC2CC"/><path opacity=".05" d="M142.893 150.758s-9.08-.474-10.798 7.267c-1.718 7.742 3.726 18.83 3.726 18.83l7.072-26.097z" fill="#000"/><path d="M137.098 173.798l3.441 2.724 16.058.717 10.024-6.882 10.196-17.496c-6.232-1.59-8.753-5.895-9.693-9.92a21.725 21.725 0 01-.199-8.288s-16.347-8.463-14.339 4.747c.275 1.621.326 3.273.152 4.908-.95 7.737-8.459 6.279-8.459 6.279l-2.881 4.443-3.299 10.917-1.001 7.851z" fill="#FDC2CC"/><path opacity=".1" d="M152.6 139.381c.275 1.621.326 3.273.152 4.908a14.495 14.495 0 0014.387-1.348 21.725 21.725 0 01-.2-8.288s-16.347-8.463-14.339 4.728z" fill="#000"/><path d="M158.775 145.025c7.998 0 14.482-6.484 14.482-14.482 0-7.998-6.484-14.482-14.482-14.482-7.998 0-14.481 6.484-14.481 14.482 0 7.998 6.483 14.482 14.481 14.482z" fill="#FDC2CC"/><path d="M148.532 171.035c.351 0 .698.053 1.044.086 1.899.19 9.83.617 14.349-4.78 5.055-6.037 11.786-13.494 12.061-13.798l6.849 2.07s-5.42-1.928-9.018 8.154a10.438 10.438 0 003.527 12.013 10.839 10.839 0 004.48 1.899.027.027 0 01.003.012.027.027 0 01-.003.012v4.424l-2.8 12.34a21.378 21.378 0 00.266 10.561l4.271 15.099c-.645.446-27.15 18.473-44.854 6.023.066-.541 2.255-18.259.736-26.931a59.898 59.898 0 01-.793-6.702v-.167a7.562 7.562 0 00-2.596-5.126c-1.595-1.424-3.755-5.221-1.619-15.255a36.902 36.902 0 012.373-7.229l5.938-13.418 5.473.109v.038c-.475.588-6.821 8.515-7.509 13.622-.674 4.856-1.505 6.346 7.822 6.944z" fill="#6394E2"/><path d="M187.444 156.972s5.354 4.589 7.457 15.008c2.103 10.419 6.787 27.724 6.787 27.724s1.899 7.552-4.59 15.009c-6.488 7.457-10.803 13.29-10.803 13.29l-4.271 6.294a5.364 5.364 0 01-3.076 2.174c-1.946.512-4.937.883-7.528-.537a4.385 4.385 0 01-1.899-5.539l.95-2.197s-8.796 5.544-9.56 2.482c-.764-3.061 10.229-6.118 10.229-6.118s9.08-1.529 10.917-5.829c0 0 9.749-12.526 8.985-16.826l-9.417-25.237s-11.776-1.557-7.761-14.786c4.016-13.228 13.58-4.912 13.58-4.912z" fill="#FDC2CC"/><path d="M131.136 252.186s21.511 4.301 26.581 3.726l.546 1.818s8.164 1.828 26.623-1.101c1.205-.19 2.457-.403 3.754-.641l.432-.076s.252-1.367.451-3.697c.441-5.293.598-15.54-3.128-26.03l-3.104-9.559s-19.185 11.5-31.887 10.442a67.733 67.733 0 00-3.394-.223c-2.606-.1-6.645 0-9.27-2.103l-5.506.949v15.664a18.775 18.775 0 01-1.243 6.702 28.01 28.01 0 01-.38.949 4.989 4.989 0 00-.475 3.18z" fill="#65617D"/><path opacity=".1" d="M158.258 252.856v4.874s9.398 2.103 30.809-1.818c0 0 .252-1.367.451-3.697-6.569 1.054-24.686 3.588-31.26.641z" fill="#000"/><path opacity=".1" d="M131.136 252.186s21.511 4.301 26.581 3.726l.546 1.818v-4.874c-2.45 1.015-19.936-3.199-26.272-4.78a28.01 28.01 0 01-.38.949 4.985 4.985 0 00-.475 3.161z" fill="#000"/><path d="M183.286 246.752l1.595 9.891c1.206-.19 2.457-.403 3.754-.64-.498-2.891-1.585-9.493-1.286-10.59l-2.008-1.718-2.055 3.057z" fill="#65617D"/><path opacity=".1" d="M183.509 246.538l1.595 9.896c1.206-.193 2.457-.406 3.755-.64-.499-2.891-1.586-9.493-1.287-10.59l-2.008-1.723-2.055 3.057z" fill="#000"/><path opacity=".05" d="M150.251 227.063a67.5 67.5 0 00-3.394-.223c-2.535-.095-6.403 0-9.042-1.941l.921-.162c2.639 2.093 6.645 2.003 9.269 2.103 1.135.038 2.26.128 3.394.223.37.033.75.052 1.135.062-.762.02-1.524-.001-2.283-.062zm33.481 29.566a172.5 172.5 0 003.755-.636l.437-.081s.251-1.367.446-3.697c.446-5.293.602-15.54-3.128-26.03l-2.924-9.018c.622-.352.949-.556.949-.556l3.104 9.56c3.726 10.49 3.57 20.737 3.128 26.03-.199 2.33-.451 3.697-.451 3.697l-.431.081c-1.295.234-2.546.446-3.755.636-8.624 1.367-14.994 1.699-19.342 1.661a121.9 121.9 0 0018.212-1.647zm-27.173-.717v.053h-.617c.234-.016.439-.034.617-.053z" fill="#000"/><path d="M185.958 248.598c.449 0 .812-.748.812-1.671s-.363-1.671-.812-1.671c-.448 0-.811.748-.811 1.671s.363 1.671.811 1.671z" fill="#D39999"/><path d="M134.155 213.094c1.31-9.73 3.622-15.511 4.842-17.775.047.308.17 1.31.227 1.618.247 1.424.029 3.218.105 5.027l-1.215 22.004 1.628 6.883c1.528 5.449-4.134 1.144-4.134 1.144-1.173 2.582-3.323 2.297-3.323 2.297l-.294-3.949c-.279-3.72.054-7.461.987-11.074a52.64 52.64 0 001.177-6.175z" fill="#FDC2CC"/><path opacity=".05" d="M134.155 213.094c1.31-9.73 3.622-15.511 4.842-17.775.047.308.17 1.31.227 1.618.247 1.424.029 3.218.105 5.027l-1.215 22.004 1.628 6.883c1.528 5.449-4.134 1.144-4.134 1.144-1.173 2.582-3.323 2.297-3.323 2.297l-.294-3.949c-.279-3.72.054-7.461.987-11.074a52.64 52.64 0 001.177-6.175z" fill="#000"/><path d="M188.635 224.965c-1.03 1.334-1.594 2.098-1.594 2.098l-4.272 6.289a5.33 5.33 0 01-3.076 2.174c-1.946.513-4.936.888-7.528-.536a4.376 4.376 0 01-1.898-5.535l.949-2.202s-8.795 5.544-9.56 2.487c-.764-3.057 10.229-6.118 10.229-6.118s9.08-1.528 10.917-5.834c0 0 .793-1.015 1.899-2.572" fill="#FDC2CC"/><path d="M183.286 235.507s-10.399-1.011-13.694-6.958l-1.509 4.912s10.917 7.538 13.409 6.56l1.794-4.514z" fill="#65617D"/><path opacity=".1" d="M182.916 235.46s-10.395-1.011-13.694-6.963l-1.504 4.898s10.917 7.537 13.404 6.56l1.794-4.495z" fill="#000"/><path d="M135.949 232.73s-3.64 1.292-4.357.575l1.638 3.014 3.094-2.373-.375-1.216z" fill="#65617D"/><path opacity=".1" d="M135.949 232.73s-3.64 1.292-4.357.575l1.638 3.014 3.094-2.373-.375-1.216zm22.309 20.126v-6.289l-1.495 6.441 1.495-.152zm14.747-129.96c-.878 1.234-2.402 1.861-3.901 2.056-1.5.194-3.019.028-4.533 0-2.374-.038-4.899.327-6.84 1.723-1.239.887-2.169 2.136-3.137 3.322-2.934 3.584-7.006 6.94-11.629 6.565-.403 0-.802-.081-1.172-.238a3 3 0 01-.988-.674 3.46 3.46 0 01-.551-1.965 44.985 44.985 0 01.28-8.857 18.698 18.698 0 011.339-5.283 18.008 18.008 0 013.218-4.594 19.684 19.684 0 015.615-4.5 10.073 10.073 0 017.025-.907c2.767.755 4.922 2.92 7.561 4.035 3.014 1.267 11.017 4.652 7.713 9.317z" fill="#000"/><path d="M173.005 122.322c-.878 1.234-2.402 1.861-3.901 2.055-1.5.195-3.019.029-4.533 0-2.374-.042-4.899.323-6.84 1.719-1.239.887-2.169 2.136-3.137 3.322-2.934 3.584-7.006 6.94-11.629 6.565a2.99 2.99 0 01-2.16-.912 3.45 3.45 0 01-.551-1.965 44.985 44.985 0 01.28-8.857 18.698 18.698 0 011.339-5.283 17.92 17.92 0 013.218-4.59 19.62 19.62 0 015.615-4.504 10.073 10.073 0 017.025-.907c2.767.755 4.922 2.92 7.561 4.035 3.014 1.272 11.017 4.647 7.713 9.322z" fill="#865A61"/><path d="M138.74 224.733l-.038 1.732-.389-1.656.427-.076z" fill="#FDC2CC"/><path opacity=".05" d="M138.74 224.733l-.038 1.732-.389-1.656.427-.076zm36.605-63.755c-4.02 13.228 7.699 14.78 7.699 14.78l9.417 25.237c.764 4.301-8.99 16.827-8.99 16.827-.678 1.604-2.373 2.824-4.224 3.726a6.62 6.62 0 002.506-2.753s9.749-12.522 8.985-16.822l-9.417-25.242s-11.714-1.552-7.699-14.78c1.344-4.419 3.323-6.432 5.326-7.153-1.381 1.11-2.649 3.033-3.603 6.18z" fill="#000"/><g opacity=".1" fill="#000"><path opacity=".1" d="M175.545 172.996a9.898 9.898 0 001.898 1.799 10.796 10.796 0 004.481 1.898v.499a10.761 10.761 0 01-4.063-1.799 9.84 9.84 0 01-2.316-2.397zm-36.416 18.924v.166c.148 2.255.421 4.501.817 6.726 1.424 8.183-.442 24.43-.707 26.675-.152-.099-.304-.194-.475-.303.071-.542 2.259-18.26.74-26.927a60.131 60.131 0 01-.792-6.702v-.167a7.321 7.321 0 00-1.277-3.631 7.378 7.378 0 011.694 4.163zm8.739-40.953l-4.642-.09a.027.027 0 00-.012-.003.027.027 0 00-.012.003l-5.933 13.414a36.902 36.902 0 00-2.373 7.229c-1.728 8.116-.641 12.16.678 14.158-1.485-1.751-3.018-5.743-1.106-14.714a36.627 36.627 0 012.35-7.233l5.976-13.414 5.472.109v.033c-.042.057-.189.238-.398.508zm34.981 3.641l.081.024-.081-.024z"/><path opacity=".1" d="M181.145 154.532l-4.651-1.4h-.024c-.275.303-7.001 7.76-12.056 13.798-4.519 5.397-12.441 4.974-14.349 4.784a26.083 26.083 0 00-1.044-.09c-5.188-.332-7.229-.949-7.912-2.259.973.949 3.113 1.424 7.48 1.689.351 0 .698.053 1.044.086 1.899.19 9.83.612 14.349-4.78 5.055-6.042 11.786-13.499 12.061-13.803l6.769 2.051a4.219 4.219 0 00-1.667-.076z"/></g><path opacity=".1" d="M126.072 359.543s-6.55 1.789-7.818-1.021l7.818 1.021zm41.584-1.343s-7.594 1.96-9.351-1.073l9.351 1.073z" fill="#000"/><path d="M277.167 353.951a45.28 45.28 0 01.437-2.848c.75-4.101-.394-8.012-.949-9.625a10.357 10.357 0 00-.304-.779c-3.024-.826-14.942 8.42-19.285 11.904a75.15 75.15 0 00-4.922.185 25.66 25.66 0 01-2.336.062h-2.848c-4.029-3.246-16.503-13.01-19.607-12.165 0 0-.128.28-.304.778-.579 1.614-1.723 5.525-.973 9.626.171.95.327 1.899.437 2.848.232 2.084 1.105 6.085 4.271 8.786.679 4.936 3.219 11.425 5.174 15.364.146.744.369 1.471.665 2.169-.807 3.114-1.738 7.177-1.472 8.544 0 0-4.215-1.02-4.642 4.054v.156c-1.524.698-3.427 2.298-1.286 5.649a2.2 2.2 0 001.101.897c.38.133.75.133.712-.399l2.634 2.967s4.775.55 4.832-2.222l.28.043c.641.095 1.31.176 1.999.247l.332 1.096s-3.584-.076-2.606 2.131c0 0 .902.836 1.21.532 0 0-.474 1.448 1.396 1.448 0 0 2.008 1.063 2.791.303.783-.759 2.406-1.898 2.558-2.373.043-.128.062-1.253.071-2.81h.309c4.001.095 8.249-.033 12.113-.242h.313c0 1.685.024 2.929.067 3.062.156.474 1.784 1.599 2.563 2.373.778.774 2.786-.304 2.786-.304 1.861 0 1.395-1.447 1.395-1.447.314.303 1.215-.532 1.215-.532.978-2.207-2.61-2.131-2.61-2.131l.427-1.424 1.979-.166.314-.029c-.19 3.014 4.827 2.435 4.827 2.435l2.639-2.966c-.043.531.327.531.707.398a2.177 2.177 0 001.068-.906c3.232-5.055-2.739-6.128-2.739-6.128a2.92 2.92 0 00-.564-.09 1 1 0 01.023-.261c.077-.665.09-1.336.038-2.003-.223-.916-1.694-2.374-3.555-2.587-1.215-.152-1.239-5.734-1.115-9.602.136-.726.2-1.464.19-2.203a11.65 11.65 0 00-.475-3.526c2.373-4.025 4.272-8.245 4.485-9.493 3.128-2.725 4.002-6.712 4.234-8.796z" fill="url(#paint4_linear)"/><path d="M272.573 392.422c-.19 2.629-.698 6.849-.698 6.849s-2.112.256-5.378.551l-2.217.189c-1.699.138-3.607.271-5.624.385-3.726.204-7.818.332-11.677.237a73.62 73.62 0 01-5.529-.313 46.64 46.64 0 01-2.236-.271c-4.424-.659-7.594-1.922-7.865-4.139a12.79 12.79 0 01-.099-2.847c.412-4.984 4.471-3.978 4.471-3.978-.261-1.377.721-5.653 1.519-8.748.503-1.951.949-3.432.949-3.432l28.536-1.898h.095c.189 0 .377.038.551.112.174.075.331.184.462.321a1.413 1.413 0 01.382 1.033c-.171 3.423-.413 11.259.988 11.435 1.794.223 3.213 1.642 3.431 2.539.041.659.02 1.32-.061 1.975zm-24.236-37.564s-10.76 12.953-15.944 9.365a7.6 7.6 0 01-.356-.261c-3.483-2.639-4.4-6.892-4.642-9.052a41.035 41.035 0 00-.422-2.791c-.717-4.03.38-7.865.949-9.45.171-.475.29-.764.29-.764 3.583-.997 20.125 12.953 20.125 12.953z" fill="#6394E2"/><path d="M242.556 356.054s-3.389 2.373-8.169 6.275a17.282 17.282 0 01-2.373 1.633c-3.484-2.639-4.4-6.892-4.642-9.052a41.672 41.672 0 00-.423-2.791c-.717-4.03.38-7.865.95-9.45 6.702.465 14.657 13.385 14.657 13.385z" fill="#6394E2"/><path opacity=".5" d="M242.556 356.054s-3.389 2.373-8.169 6.275a17.282 17.282 0 01-2.373 1.633c-3.484-2.639-4.4-6.892-4.642-9.052a41.672 41.672 0 00-.423-2.791c-.717-4.03.38-7.865.95-9.45 6.702.465 14.657 13.385 14.657 13.385z" fill="#fff"/><path opacity=".1" d="M238.868 354.777s-1.809 1.277-4.362 3.351a9.148 9.148 0 01-1.253.869c-1.856-1.424-2.374-3.679-2.478-4.827a19.88 19.88 0 00-.223-1.495 10.37 10.37 0 01.527-5.041c3.545.247 7.789 7.143 7.789 7.143z" fill="#000"/><path d="M255.31 354.858s10.76 12.953 15.943 9.365c.119-.086.242-.171.356-.261 3.484-2.639 4.4-6.892 4.642-9.052.105-.949.256-1.865.418-2.791.721-4.03-.38-7.865-.949-9.45-.171-.475-.295-.764-.295-.764-3.574-.997-20.115 12.953-20.115 12.953z" fill="#6394E2"/><path d="M261.086 356.054s3.394 2.373 8.174 6.275a17.311 17.311 0 002.349 1.633c3.484-2.639 4.4-6.892 4.642-9.052.105-.949.256-1.865.418-2.791.721-4.03-.38-7.865-.949-9.45-6.669.465-14.634 13.385-14.634 13.385z" fill="#6394E2"/><path opacity=".5" d="M261.086 356.054s3.394 2.373 8.174 6.275a17.311 17.311 0 002.349 1.633c3.484-2.639 4.4-6.892 4.642-9.052.105-.949.256-1.865.418-2.791.721-4.03-.38-7.865-.949-9.45-6.669.465-14.634 13.385-14.634 13.385z" fill="#fff"/><path opacity=".1" d="M264.803 354.768s1.799 1.272 4.333 3.322c.39.324.808.613 1.248.864 1.847-1.4 2.336-3.655 2.464-4.799.052-.474.133-.992.223-1.485a10.407 10.407 0 00-.498-5.013c-3.551.257-7.77 7.111-7.77 7.111zm1.903 20.248c-1.358 2.146-2.8 4.082-4.12 5.25-4.272 3.797-22.717 2.288-23.913 2.093-.251-.043-.774-.788-1.424-1.998.503-1.951.949-3.432.949-3.432l28.508-1.913z" fill="#000"/><path d="M252.106 353.771c-.75.052-1.5.071-2.255.057-3.849-.066-16.817.104-18.255 5.34-1.694 6.17 5.881 22.693 7.072 22.892 1.192.2 19.632 1.695 23.918-2.093 4.286-3.788 9.863-15.663 9.564-16.741 0 0 5.316-11.211-20.044-9.455z" fill="#6394E2"/><path opacity=".1" d="M251.697 363.777s-9.493-1.462-13.945 7.879a11.402 11.402 0 00.84 11.482c1.481 2.083 3.655 3.636 6.679 2.373 6.721-2.767 6.426-21.734 6.426-21.734z" fill="#000"/><path opacity=".1" d="M251.398 363.179s-9.493-1.462-13.945 7.879a11.391 11.391 0 00.84 11.482c1.481 2.083 3.655 3.635 6.679 2.373 6.721-2.767 6.426-21.734 6.426-21.734z" fill="#000"/><path d="M251.398 363.478s-9.493-1.462-13.945 7.879a11.391 11.391 0 00.84 11.482c1.481 2.083 3.655 3.635 6.679 2.373 6.721-2.767 6.426-21.734 6.426-21.734z" fill="#6394E2"/><path opacity=".5" d="M251.398 363.478s-9.493-1.462-13.945 7.879a11.391 11.391 0 00.84 11.482c1.481 2.083 3.655 3.635 6.679 2.373 6.721-2.767 6.426-21.734 6.426-21.734z" fill="#fff"/><path d="M241.16 371.646s-1.296 1.196-.797 1.495c.498.3.797-1.495.797-1.495zm1.396 1.529s-.708 1.561-.204 1.732c.503.171.802-1.12.802-1.12l-.598-.612zm-3.128 2.359s-.693 1.841 0 1.841 0-1.841 0-1.841z" fill="#3F2B3B"/><path d="M238.569 380.465s1.386 3.541 4.993 3.29m-1.751-2.245s1.423 1.395 2.985.398" stroke="#3F2B3B" stroke-miterlimit="10"/><path opacity=".1" d="M252.913 363.777s9.493-1.462 13.945 7.879a11.391 11.391 0 01-.84 11.482c-1.476 2.083-3.655 3.636-6.679 2.373-6.74-2.767-6.426-21.734-6.426-21.734z" fill="#000"/><path opacity=".1" d="M253.193 363.179s9.493-1.462 13.945 7.879a11.391 11.391 0 01-.84 11.482c-1.476 2.083-3.655 3.635-6.679 2.373-6.706-2.767-6.426-21.734-6.426-21.734z" fill="#000"/><path d="M253.193 363.478s9.493-1.462 13.945 7.879a11.391 11.391 0 01-.84 11.482c-1.476 2.083-3.655 3.635-6.679 2.373-6.706-2.767-6.426-21.734-6.426-21.734z" fill="#6394E2"/><path opacity=".5" d="M253.193 363.478s9.493-1.462 13.945 7.879a11.391 11.391 0 01-.84 11.482c-1.476 2.083-3.655 3.635-6.679 2.373-6.706-2.767-6.426-21.734-6.426-21.734z" fill="#fff"/><path d="M263.431 371.646s1.296 1.196.797 1.495c-.498.3-.797-1.495-.797-1.495zm-1.396 1.529s.708 1.561.204 1.732c-.503.171-.802-1.12-.802-1.12l.598-.612zm3.133 2.359s.688 1.841 0 1.841 0-1.841 0-1.841z" fill="#3F2B3B"/><path d="M266.022 380.465s-1.386 3.541-4.993 3.29m1.756-2.245s-1.424 1.395-2.99.398" stroke="#3F2B3B" stroke-miterlimit="10"/><path d="M247.786 390.528c.252-.048 4.984-2.093 9.864 0h-9.864z" fill="#3F2B3B"/><path opacity=".1" d="M239.214 400.064c-4.424-.66-7.594-1.923-7.865-4.139a12.802 12.802 0 01-.099-2.848 6.365 6.365 0 011.689-.617c.802-.223 1.794-.071 3.888.527 2.093.598 1.941 3.061 2.373 6.274.045.266.05.536.014.803z" fill="#000"/><path d="M232.64 392.768s-5.752 1.054-2.639 6.019c.247.403.621.712 1.063.878.366.128.717.128.679-.394l2.544 2.914s5.079.598 4.633-2.615c-.446-3.213-.299-5.696-2.373-6.275-2.075-.579-3.095-.75-3.907-.527z" fill="#6394E2"/><path d="M234.012 396.11s1.22 2.786 2.914.446m-5.714.66s.631 2.639 3.023.674" stroke="#3F2B3B" stroke-miterlimit="10"/><path opacity=".1" d="M272.573 392.422c-.19 2.629-.698 6.849-.698 6.849s-2.112.256-5.378.551a2.818 2.818 0 010-.551c.446-3.213.299-5.696 2.373-6.275 1.946-.527 2.938-.721 3.703-.574z" fill="#000"/><path d="M273.095 392.768s5.757 1.054 2.644 6.019a2.139 2.139 0 01-1.064.878c-.365.128-.721.128-.683-.394l-2.54 2.914s-5.083.598-4.632-2.615c.451-3.213.299-5.696 2.373-6.275 2.074-.579 3.104-.75 3.902-.527z" fill="#6394E2"/><path d="M271.728 396.11s-1.225 2.786-2.915.446m5.715.66s-.636 2.639-3.028.674" stroke="#3F2B3B" stroke-miterlimit="10"/><path opacity=".1" d="M246.979 400.633a73.62 73.62 0 01-5.529-.313l-1.723-5.8a3.76 3.76 0 01-.157-1.059 3.692 3.692 0 017.381-.024c.019 2.26.038 5.122.028 7.196z" fill="#000"/><path d="M239.428 394.52l2.031 6.844s-3.455-.076-2.511 2.093c0 0 .869.821 1.168.522 0 0-.451 1.424 1.343 1.424 0 0 1.937 1.049 2.687.299.75-.75 2.321-1.87 2.473-2.316.095-.294.066-6.018.033-9.968a3.684 3.684 0 00-3.688-3.654 3.693 3.693 0 00-2.966 1.487 3.687 3.687 0 00-.57 3.269z" fill="#6394E2"/><path d="M242.171 403.135s-1.509 1.423-.712 2.264m.062-3.171s-1.396.475-1.396 1.751" stroke="#3F2B3B" stroke-miterlimit="10"/><path opacity=".1" d="M266.065 393.461c0 .358-.051.715-.152 1.059l-1.609 5.491c-1.699.138-3.607.271-5.624.385 0-2.051 0-4.78.033-6.959a3.69 3.69 0 017.376.024h-.024z" fill="#000"/><path d="M266.203 394.52l-2.032 6.844s3.46-.076 2.516 2.093c0 0-.869.821-1.168.522 0 0 .446 1.424-1.348 1.424 0 0-1.936 1.049-2.686.299s-2.317-1.87-2.468-2.316c-.095-.294-.067-6.018-.034-9.968a3.684 3.684 0 013.688-3.654 3.67 3.67 0 011.658.393 3.678 3.678 0 011.977 2.662c.099.567.064 1.15-.103 1.701z" fill="#6394E2"/><path d="M263.464 403.135s1.509 1.423.712 2.264m-.047-3.171s1.395.475 1.395 1.751" stroke="#3F2B3B" stroke-miterlimit="10"/><path opacity=".1" d="M251.403 361.982s-7.029-.223-7.252 5.222c-.224 5.444 10.983 3.137 10.983 3.137s4.709-.631 3.887-3.94c-.821-3.308-2.534-4.119-7.618-4.419z" fill="#000"/><path opacity=".1" d="M251.403 361.384s-7.029-.223-7.252 5.221c-.224 5.445 10.983 3.138 10.983 3.138s4.709-.631 3.887-3.94c-.821-3.308-2.534-4.12-7.618-4.419z" fill="#000"/><path d="M251.403 361.683s-7.029-.223-7.252 5.222c-.224 5.444 10.983 3.137 10.983 3.137s4.709-.631 3.887-3.94c-.821-3.308-2.534-4.12-7.618-4.419z" fill="#3F2B3B"/><path opacity=".1" d="M235.721 389.109s2.373.845 2.848 2.463l-2.848-2.463zm33.463-1.196s-1.685.707-1.567 3.659l1.567-3.659z" fill="#000"/><path d="M237.628 403.029c.527-.302.547-1.256.045-2.129-.502-.874-1.336-1.336-1.863-1.034-.527.303-.547 1.257-.045 2.13.502.874 1.336 1.336 1.863 1.033zm33.442-2.662c.502-.87.484-1.82-.041-2.123-.524-.303-1.356.157-1.858 1.026-.502.87-.484 1.82.04 2.123.525.302 1.357-.157 1.859-1.026z" fill="#6394E2"/><path opacity=".5" d="M237.628 403.029c.527-.302.547-1.256.045-2.129-.502-.874-1.336-1.336-1.863-1.034-.527.303-.547 1.257-.045 2.13.502.874 1.336 1.336 1.863 1.033zm33.442-2.662c.502-.87.484-1.82-.041-2.123-.524-.303-1.356.157-1.858 1.026-.502.87-.484 1.82.04 2.123.525.302 1.357-.157 1.859-1.026z" fill="#fff"/><path opacity=".1" d="M91.418 342.038c7.06 0 12.782-.967 12.782-2.16s-5.723-2.16-12.782-2.16c-7.06 0-12.783.967-12.783 2.16s5.723 2.16 12.783 2.16zm-50.356 30.629c7.06 0 12.782-.967 12.782-2.16s-5.723-2.16-12.782-2.16c-7.06 0-12.782.967-12.782 2.16s5.722 2.16 12.782 2.16z" fill="#6394E2"/><path d="M27.753 346.333c10.54 0 19.086-1.445 19.086-3.227 0-1.783-8.545-3.228-19.086-3.228-10.54 0-19.086 1.445-19.086 3.228 0 1.782 8.545 3.227 19.086 3.227z" fill="#6394E2"/><path d="M19.86 337.827a5.514 5.514 0 01-1.823-2.743c-.233-1.092.232-2.397 1.272-2.796 1.167-.446 2.416.361 3.36 1.177.945.817 2.032 1.752 3.27 1.581a4.98 4.98 0 01-1.537-4.661c.05-.35.199-.679.427-.949.645-.693 1.823-.394 2.601.151 2.463 1.738 3.156 5.089 3.166 8.108.252-1.092.043-2.222.047-3.323.005-1.101.314-2.373 1.253-2.952a3.795 3.795 0 011.9-.475c1.11-.038 2.344.071 3.103.883.95 1.006.698 2.701-.123 3.797s-2.065 1.804-3.209 2.573a7.077 7.077 0 00-2.297 2.188c-.07.124-.126.254-.17.389h-6.936a19.19 19.19 0 01-4.305-2.948z" fill="#6394E2"/><path opacity=".1" d="M488.809 360.103c7.059 0 12.782-.967 12.782-2.16s-5.723-2.16-12.782-2.16c-7.06 0-12.782.967-12.782 2.16s5.722 2.16 12.782 2.16z" fill="#6394E2"/><path d="M480.227 347.904s7.291-.223 9.493-1.789c2.203-1.566 11.212-3.432 11.757-.921.546 2.511 10.96 12.479 2.725 12.545-8.235.067-19.124-1.282-21.317-2.62-2.193-1.339-2.658-7.215-2.658-7.215z" fill="#A8A8A8"/><path opacity=".2" d="M504.344 356.87c-8.23.067-19.123-1.281-21.316-2.62-1.671-1.015-2.336-4.665-2.559-6.35h-.242s.475 5.88 2.654 7.214c2.178 1.334 13.086 2.687 21.316 2.62 2.373 0 3.199-.864 3.152-2.117-.328.779-1.234 1.253-3.005 1.253z" fill="#000"/></g><defs><linearGradient id="paint0_linear" x1="228.606" y1="337.149" x2="228.606" y2="56.588" gradientUnits="userSpaceOnUse"><stop stop-color="gray" stop-opacity=".25"/><stop offset=".54" stop-color="gray" stop-opacity=".12"/><stop offset="1" stop-color="gray" stop-opacity=".1"/></linearGradient><linearGradient id="paint1_linear" x1="65376.3" y1="226768" x2="65376.3" y2="49682.5" gradientUnits="userSpaceOnUse"><stop stop-color="gray" stop-opacity=".25"/><stop offset=".54" stop-color="gray" stop-opacity=".12"/><stop offset="1" stop-color="gray" stop-opacity=".1"/></linearGradient><linearGradient id="paint2_linear" x1="86669.5" y1="230852" x2="86669.5" y2="66971" gradientUnits="userSpaceOnUse"><stop stop-color="gray" stop-opacity=".25"/><stop offset=".54" stop-color="gray" stop-opacity=".12"/><stop offset="1" stop-color="gray" stop-opacity=".1"/></linearGradient><linearGradient id="paint3_linear" x1="-49640.7" y1="228894" x2="-49640.7" y2="64343.6" gradientUnits="userSpaceOnUse"><stop stop-color="gray" stop-opacity=".25"/><stop offset=".54" stop-color="gray" stop-opacity=".12"/><stop offset="1" stop-color="gray" stop-opacity=".1"/></linearGradient><linearGradient id="paint4_linear" x1="29446.6" y1="57557.9" x2="29446.6" y2="48563.3" gradientUnits="userSpaceOnUse"><stop stop-color="gray" stop-opacity=".25"/><stop offset=".54" stop-color="gray" stop-opacity=".12"/><stop offset="1" stop-color="gray" stop-opacity=".1"/></linearGradient><clipPath id="clip0"><path fill="#fff" d="M0 0h540v408.061H0z"/></clipPath></defs></svg>