<svg width="540" height="333" fill="none" xmlns="http://www.w3.org/2000/svg"><g clip-path="url(#clip0)"><path d="M144.416 83.388h-67.13v.96h67.13v-.96z" fill="#F2F2F2"/><path d="M96.466 74.757h-.959v8.87h.96v-8.87zm29.249 0h-.959v8.87h.959v-8.87zM121.4 35.438H54.27v.96h67.13v-.96z" fill="#F2F2F2"/><path d="M103.179 36.158h-.959v8.87h.959v-8.87zm-29.249 0h-.96v8.87h.96v-8.87zm153.918 66.41h-67.129v.959h67.129v-.959z" fill="#F2F2F2"/><path d="M179.898 93.937h-.959v8.871h.959v-8.871zm29.25 0h-.959v8.871h.959v-8.871zm-4.316-39.319h-67.129v.96h67.129v-.96z" fill="#F2F2F2"/><path d="M186.611 55.338h-.959v8.87h.959v-8.87zm-29.249 0h-.959v8.87h.959v-8.87zm44.114 210.259h-67.13v.959h67.13v-.959z" fill="#F2F2F2"/><path d="M153.526 256.966h-.959v8.87h.959v-8.87zm29.249 0h-.959v8.87h.959v-8.87zm-4.315-39.319h-67.129v.959h67.129v-.959z" fill="#F2F2F2"/><path d="M160.239 218.366h-.959v8.871h.959v-8.871zm-29.249 0h-.959v8.871h.959v-8.871zm39.798-56.341h-67.129v.959h67.129v-.959z" fill="#F2F2F2"/><path d="M122.838 153.395h-.959v8.87h.959v-8.87zm29.25 0h-.959v8.87h.959v-8.87zm-4.316-39.319h-67.13v.959h67.13v-.959z" fill="#F2F2F2"/><path d="M129.551 114.795h-.959v8.871h.959v-8.871zm-29.249 0h-.959v8.871h.959v-8.871zm22.057 120.114h-67.13v.959h67.13v-.959z" fill="#F2F2F2"/><path d="M74.41 226.278h-.96v8.871h.96v-8.871zm29.249 0h-.959v8.871h.959v-8.871zm-4.316-39.319h-67.13v.959h67.13v-.959z" fill="#F2F2F2"/><path d="M81.122 187.678h-.959v8.871h.96v-8.871zm-29.249 0h-.959v8.871h.959v-8.871zm404.695-104.29h-67.13v.96h67.13v-.96z" fill="#F2F2F2"/><path d="M408.618 74.757h-.959v8.87h.959v-8.87zm29.249 0h-.959v8.87h.959v-8.87zm-4.315-39.319h-67.13v.96h67.13v-.96z" fill="#F2F2F2"/><path d="M415.331 36.158h-.959v8.87h.959v-8.87zm-29.249 0h-.959v8.87h.959v-8.87zM540 102.568h-67.129v.959H540v-.959z" fill="#F2F2F2"/><path d="M492.05 93.937h-.959v8.871h.959v-8.871zm29.25 0h-.959v8.871h.959v-8.871zm-4.316-39.319h-67.129v.96h67.129v-.96z" fill="#F2F2F2"/><path d="M498.763 55.338h-.959v8.87h.959v-8.87zm-29.249 0h-.959v8.87h.959v-8.87zm44.114 210.259h-67.13v.959h67.13v-.959z" fill="#F2F2F2"/><path d="M465.678 256.966h-.959v8.87h.959v-8.87zm29.249 0h-.959v8.87h.959v-8.87zm-4.315-39.319h-67.13v.959h67.13v-.959z" fill="#F2F2F2"/><path d="M472.391 218.366h-.959v8.871h.959v-8.871zm-29.249 0h-.959v8.871h.959v-8.871zm39.798-56.341h-67.129v.959h67.129v-.959z" fill="#F2F2F2"/><path d="M434.99 153.395h-.959v8.87h.959v-8.87zm29.25 0h-.959v8.87h.959v-8.87zm-4.316-39.319h-67.129v.959h67.129v-.959z" fill="#F2F2F2"/><path d="M441.703 114.795h-.959v8.871h.959v-8.871zm-29.249 0h-.959v8.871h.959v-8.871zm22.057 120.114h-67.13v.959h67.13v-.959z" fill="#F2F2F2"/><path d="M386.561 226.278h-.959v8.871h.959v-8.871zm29.25 0h-.959v8.871h.959v-8.871zm-4.316-39.319h-67.129v.959h67.129v-.959z" fill="#F2F2F2"/><path d="M393.274 187.678h-.959v8.871h.959v-8.871zm-29.249 0h-.959v8.871h.959v-8.871z" fill="#F2F2F2"/><path d="M267.287 0h-93.262v132.341h93.262V0zm119.635 158.713H293.66v132.341h93.262V158.713zm0-158.713H293.66v132.341h93.262V0zM267.287 158.713h-93.262v132.341h93.262V158.713z" fill="#3F3D56"/><path d="M507.755 290.637h-462v1.075h462v-1.075z" fill="#2F2E41"/><path d="M54.63 283.382h-5.274v44.593s34.045 11.029 67.13 0v-44.593H54.631z" fill="#3F3D56"/><path d="M82.442 288.657c18.272 0 33.085-2.255 33.085-5.035 0-2.781-14.813-5.035-33.085-5.035-18.273 0-33.086 2.254-33.086 5.035 0 2.78 14.813 5.035 33.086 5.035z" fill="#3F3D56"/><path opacity=".1" d="M82.442 288.657c18.272 0 33.085-2.255 33.085-5.035 0-2.781-14.813-5.035-33.085-5.035-18.273 0-33.086 2.254-33.086 5.035 0 2.78 14.813 5.035 33.086 5.035z" fill="#000"/><path d="M120.901 230.103c-8.346 30.853-36.934 49.961-36.934 49.961s-15.056-30.914-6.71-61.767 36.934-49.961 36.934-49.961 15.056 30.914 6.71 61.767z" fill="#3F3D56"/><path d="M44.973 230.103c8.346 30.853 36.934 49.961 36.934 49.961s15.056-30.914 6.71-61.767c-8.347-30.853-36.935-49.961-36.935-49.961s-15.055 30.914-6.71 61.767z" fill="#548FCC"/><path d="M57.237 223.473c22.903 22.295 25.7 56.566 25.7 56.566S48.602 278.165 25.7 255.87C2.797 233.576 0 199.304 0 199.304s34.335 1.874 57.237 24.169zm51.4 0c-22.903 22.295-25.7 56.566-25.7 56.566s34.335-1.874 57.237-24.169c22.903-22.294 25.7-56.566 25.7-56.566s-34.335 1.874-57.237 24.169z" fill="#3F3D56"/><path d="M82.921 178.852c5.826 0 10.549-4.723 10.549-10.549s-4.723-10.549-10.549-10.549-10.549 4.723-10.549 10.549 4.723 10.549 10.55 10.549z" fill="#548FCC"/><path d="M210.947 72.404a1.438 1.438 0 100-2.877 1.438 1.438 0 000 2.877zm-6.713-18.7c9.268 0 16.782-7.514 16.782-16.783 0-9.268-7.514-16.782-16.782-16.782-9.269 0-16.783 7.514-16.783 16.782 0 9.269 7.514 16.783 16.783 16.783zm26.851 6.712a.48.48 0 100-.96.48.48 0 000 .96zm84.392 23.975a.479.479 0 100-.958.479.479 0 000 .958zm-5.275 143.37a.48.48 0 100-.96.48.48 0 000 .96zm-101.173 33.085a.48.48 0 10-.002-.96.48.48 0 00.002.96zM350.48 101.174a.48.48 0 100-.959.48.48 0 000 .959zm-4.795-40.278a.479.479 0 100-.958.479.479 0 000 .958zM329.382 190.36a.48.48 0 100-.96.48.48 0 000 .96zm-25.893-71.924a.48.48 0 100-.96.48.48 0 000 .96zm3.836-67.609a.48.48 0 100-.96.48.48 0 000 .96zm43.634-27.332a.48.48 0 100-.96.48.48 0 000 .96zM209.988 217.691a.48.48 0 10-.001-.96.48.48 0 00.001.96zm41.236 36.442a.48.48 0 100-.96.48.48 0 000 .96zm-52.744-72.404a.48.48 0 10-.001-.96.48.48 0 00.001.96zm11.987-63.293a.48.48 0 100-.96.48.48 0 000 .96z" fill="#fff"/><path opacity=".1" d="M210.467 118.436l56.82-24.488v6.483l-56.82 18.005zm176.455-76.044v20.125L293.66 92.073v-9.49l93.262-40.19zM238.297 189.391l28.99-15.972v2.221c-16.211 7.849-28.424 13.493-28.99 13.751zm55.689-30.678h7.312a942.87 942.87 0 01-7.638 3.898v-3.716l.326-.182zm57.453-31.647c-.221 1.271-1.894 3.074-4.68 5.275h-4.896l9.576-5.275zm35.483 86.003v3.385c-24.896 12.424-47.638 22.93-48.41 23.284l48.41-26.669z" fill="#fff"/><path d="M330.821 217.781a4.984 4.984 0 00-2.895-4.52l.154-1.958h-10.714l1.246 12.707h8.471l.113-1.438a4.98 4.98 0 003.625-4.791zm-3.566 4.033l.594-7.566a4.962 4.962 0 01-.594 7.566z" fill="#548FCC"/><path d="M319.269 207.438s12.669 9.049 8.446 12.669c-4.223 3.619-12.668-10.859-12.668-10.859l4.222-1.81zm-58.515 13.875s2.413 30.163 3.016 34.386c.603 4.222 1.207 42.227 2.413 46.45 1.207 4.223 2.413 14.478 2.413 14.478h7.239s-.603-18.701 1.207-25.94c1.81-7.239 1.206-27.146 1.206-27.146s3.62-35.592 1.81-40.418c-1.81-4.826-19.304-1.81-19.304-1.81z" fill="#FFB9B9"/><path d="M270.406 314.817s-3.016 1.81-3.016 3.017c0 1.206.603 4.222 0 5.429-.604 1.206-4.826 6.032-2.413 7.239 2.413 1.206 13.271 0 13.271 0s-.603-8.446-1.206-9.049c-.604-.603.603-6.636.603-6.636h-7.239z" fill="#2F2E41"/><path d="M306.869 220.574s.767 30.249.61 34.512c-.157 4.263 3.232 42.121 2.476 46.447-.757 4.326-.88 14.652-.88 14.652l-7.199.76s-1.363-18.661-3.923-25.67c-2.559-7.01-4.049-26.87-4.049-26.87s-7.336-35.016-6.042-40.005c1.293-4.989 19.007-3.826 19.007-3.826z" fill="#FFB9B9"/><path d="M307.085 314.575s3.19 1.483 3.316 2.683c.127 1.2-.156 4.262.57 5.399.727 1.137 5.433 5.493 3.16 6.946-2.273 1.453-13.198 1.393-13.198 1.393s-.287-8.462.25-9.126c.536-.663-1.297-6.535-1.297-6.535l7.199-.76zm-37.886-138.506s-4.826.603-6.635 10.859c-1.81 10.255-8.446 36.195-3.017 38.005 5.43 1.809 21.718 5.429 22.321 4.222.603-1.206 1.81-4.222 1.81-4.222s-1.81 5.429.603 5.429c2.413 0 25.94-3.62 25.336-5.429-.603-1.81-1.809-15.082-1.809-15.082s-3.62-22.32-7.239-25.94a9.889 9.889 0 01-3.017-7.842h-28.353z" fill="#2F2E41"/><path d="M260.151 171.243s7.842-1.81 9.049.603c1.206 2.413-3.017 6.033-4.827 6.033-1.809 0-4.826-1.81-4.826-1.81l.604-4.826zm27.764-52.068c5.997 0 10.858-4.861 10.858-10.858 0-5.997-4.861-10.859-10.858-10.859-5.997 0-10.859 4.862-10.859 10.859s4.862 10.858 10.859 10.858z" fill="#FFB9B9"/><path d="M281.354 115.756s-1.296 9.64-2.502 9.64c-1.207 0 9.048 5.429 9.048 5.429l7.843-1.206 2.413-3.62s-3.742-5.812-3.742-10.638-13.06.395-13.06.395z" fill="#FFB9B9"/><path d="M283.678 125.396s-1.81-1.207-2.413-1.207h-4.826c-.604 0-8.446 1.81-8.446 1.81l-4.826 27.147s8.446 13.874 2.413 24.733c0 0 1.81-1.207 10.255-.603 8.446.603 23.527 2.413 24.13 2.413.604 0 .604-4.826 0-6.033-.603-1.206.604-.603.604-3.619 0-3.017 1.809-8.446 1.809-8.446l8.446-30.766s-10.859-6.032-12.668-5.429c-1.81.603-7.239 2.413-8.446 1.81-1.206-.604-6.032-1.81-6.032-1.81z" fill="#FF6584"/><path d="M269.803 126.602l-1.81-.603s-3.62-.603-7.842 3.016c-4.223 3.62-19.908 14.478-19.908 14.478s-6.032 4.827-4.222 10.256c1.809 5.429 4.826 18.701 13.874 18.097 0 0 5.43 7.239 8.446 6.033 3.016-1.207 5.429-6.033 3.619-6.636-1.809-.603-6.635-6.636-6.635-6.636l6.032-11.461h1.81l6.636-3.62v-22.924zm36.195 3.62l4.826.603s4.223 1.81 3.619 9.652c-.603 7.843 3.62 43.434 1.81 47.657 0 0 6.033 20.511 4.826 21.114-1.206.603-8.445 4.223-7.842 1.81.603-2.413-6.636-19.304-6.636-19.304s-8.445-9.049-4.826-21.717v-10.256l4.223-29.559z" fill="#FF6584"/><path d="M316.068 118.067c-1.345-1.904-3.001-3.567-4.421-5.415-3.275-4.262-4.408-9.94-8.802-13.209-4.348-3.233-11.248-6.416-16.69-6.161-7.171.336-12.859 5.9-17.803 11.105l-11.333 11.934c-2.733 2.878-5.567 5.933-6.552 9.778-.946 3.695-.023 7.665 1.711 11.062a26.919 26.919 0 007.405 8.84 2706.546 2706.546 0 019.108-12.437l1.238 17.942c6.427 2.13 13.331 2.549 20.104 2.078l2.006-7.356 2.106 6.948c8.094-1.073 16.225-3.867 21.236-10.184 5.539-6.983 5.834-17.647.687-24.925z" fill="#2F2E41"/><path d="M270.87 116.255c-1.12-5.621.09-11.444 3.85-15.904 6.946-8.24 19.951-8.702 29.046-1.034a22.894 22.894 0 017.455 11.665 22.765 22.765 0 00-7.74-12.9c-9.095-7.667-22.1-7.205-29.046 1.034-4.036 4.788-5.134 11.146-3.565 17.139zm-21.37 26.514c-1.119-5.621.091-11.444 3.85-15.904 6.947-8.239 19.951-8.702 29.046-1.034a22.892 22.892 0 017.456 11.665 22.77 22.77 0 00-7.741-12.899c-9.095-7.669-22.099-7.206-29.045 1.033-4.037 4.788-5.134 11.146-3.566 17.139zm48.464-29.528c5.704-.562 11.38 1.214 15.448 5.395 7.517 7.723 6.699 20.709-1.826 29.006a22.89 22.89 0 01-12.341 6.273 22.771 22.771 0 0013.597-6.435c8.525-8.297 9.343-21.284 1.827-29.007-4.367-4.487-10.587-6.204-16.705-5.232z" fill="#2F2E41"/><path opacity=".1" d="M324.941 190.075a2.808 2.808 0 00-2.969 1.166 3.81 3.81 0 00-.479 1.183 6.474 6.474 0 002.061 6.342c.464.342.905.716 1.318 1.119a3.752 3.752 0 01.726 3.375 5.679 5.679 0 01-1.979 2.926 1.604 1.604 0 00-.486.521c-.325.694.512 1.354.725 2.09" fill="#fff"/></g><defs><clipPath id="clip0"><path fill="#fff" d="M0 0h540v332.877H0z"/></clipPath></defs></svg>