<svg width="540" height="540" fill="none" xmlns="http://www.w3.org/2000/svg"><path d="M88.56 401.541c-16.235-11.18-37.873-13.427-50.517-30.548-6.07.846-8.994-3.105-11.578-7.576.576-3.191 2.43-6.396-1.752-8.991-2.046-1.269-3.01-3.988-2.994-6.685 2.287-3.035.27-7.56 3.561-10.26l4.453-.54c3.707-1.658 6.185.953 8.96 2.554 3.527 3.281 9.138 3.094 12.15 7.244 1.58 3.551 3.14 7.544 7.482 8.057 6.929.81 10.517 5.292 13.479 10.66.202-1.04-.81-1.35-1.08-2.079-2.355-3.95-4.887-7.234-9.925-8.37-3.667-.832-8.349-2.9-6.834-7.908 1.363-4.518 5.689-3.581 9.331-2.49 1.588.475 3.424-.178 4.822 1.08 14.994 3.834 26.288 13.559 37.444 23.504 1.49 0 1.976.877 1.949 2.214-1.606 5.254-5.707 9.096-7.921 14.013-4.115 5.089-3.724 13.251-11.03 16.121z" fill="#FACBB7"/><path d="M49.529 347.396c-3.151-3.621-9.404-1.755-11.818-6.683-1.855-2.765-4.466-5.33-2.4-9.126l.931-.853c2.257-.216 4.533-.772 6.731.313l18.341 9.585c-2.379 4.968-8.31 3.721-11.785 6.764z" fill="#F9C8B6"/><path d="M49.529 347.396c2.16-5.314 8.01-4.239 11.785-6.764l6.79 5.068c-4.32 1.115-11.32-2.902-12.576 2.411-1.02 4.32 6.186 5.036 10.169 6.54 4.568 1.722 5.435 6.08 7.478 9.63 1.2 2.012 1.159 3.405-1.695 3.389-4.145-4.782-6.702-11.07-14.931-11.192-4.425-.059-6.44-4.646-7.02-9.082z" fill="#F7B6A7"/><path d="M71.48 367.67c1.35-.735 1.66-1.993 1.695-3.389 1.707 1.474 3.853 3.713 2.4 5.443-1.946 2.32-3.04-.599-4.095-2.054z" fill="#F9C1AF"/><path d="M244.204 118.149s1.75-62.656 50.709-66.444c0 0 .31-31.32 12.531-39.344 9.253-6.07 22.439-6.121 32.348-5.538 9.909.583 40.522-.27 41.688 35.57 1.167 35.84-.248 70.035-1.471 83.333-1.08 11.785-16.611 55.954-18.652 58.86-2.041 2.905-29.43-17.777-30.307-27.686-.878-9.909.569-14.85-1.763-18.941-2.333-4.09-8.438-9.617-8.438-19.234l-76.645-.576z" fill="#413277"/><path d="M244.204 118.149s-13.675 81.502 10.295 103.521c23.971 22.018 51.476 52.264 51.476 52.264l54.624-40.476s-5.795-14.467-4.212-28.35c1.582-13.883 4.212-20.209 4.212-20.209l-11.392-6.561c-.029-1.545 9.774-14.58 10.592-19.308.81-4.623-2.629-12.96-11.178-11.167-7.897 1.655-14.607 18.068-16.119 13.192-1.512-4.876-.469-18.762-2.932-22.515-2.462-3.753-8.589-10.015-8.721-19.783l-76.645-.608z" fill="#FACCB8"/><path d="M238.097 180.962h41.863s-11.34-9.755-23.946-9.755c-12.949 0-17.917 9.755-17.917 9.755z" fill="url(#paint0_linear)"/><path d="M310.257 266.587s2.803-14.596 14.445-19.71c11.818-5.181 27.016-11.245 34.193-18.592 0 0 2.908 15.965 13.414 24.173 10.505 8.208-83.393 37.101-83.393 37.101l-17.728-41.685 20.866-2.668s16.556 2.994 18.203 21.381z" fill="#FFFDFE"/><path d="M257.863 266.525s-33.874 18.787-46.575 54.775c-12.7 35.988-25.82 68.58-33.863 78.3 0 0-46.562-6.774-69.844-29.209 0 0-33.863 53.76-35.132 76.194 0 0 78.473 112.361 162.178 67.859v19.076s238.14-.54 267.011-117.612c0 0-26.754-107.517-46.356-126.339-19.602-18.821-52.982-26.028-65.694-30.639-12.711-4.612-20.477-9.018-22.248-11.529 0 0-22.61 30.639-49.331 28.774-26.415-1.863-32.006-16.778-33.561-19.886-1.556-3.107-26.585 10.236-26.585 10.236z" fill="url(#paint1_linear)"/><path d="M254.119 268.847c-1.728 35.675-37.876 118.457-71.067 121.616l1.272-2.144c7.678-14.963 17.442-40.043 26.964-67.027 9.804-27.775 32.228-45.306 41.945-51.856l.886-.589z" fill="url(#paint2_linear)"/><path d="M391.468 259.586c13.872 4.641 45.111 12.026 63.814 29.984 11.189 10.743 24.705 50.379 34.249 82.428l.135.456c-14.202-2.335-36.22-27.92-47.746-41.175-11.527-13.254-29.681-23.63-42.66-38.037-12.979-14.408-7.83-33.54-7.83-33.54l.038-.116z" fill="url(#paint3_linear)"/><path d="M418.541 498.89l-3.095-169.236 21.552 160.274s-9.385 6.602-18.457 8.962zM234.63 514.447c-17.256 9.18-34.29 11.683-50.46 9.882l-.038-.083c37.09-64.663 50.49-159.506 50.49-159.506v149.707h.008z" fill="#E63548"/><path opacity=".25" d="M298.196 218.446s20.812-1.255 31.074-11.232c0 0 1.426 7.695-4.56 13.398-5.986 5.702-25.699 24.942-24.251 51.524 0 0-14.067-5.978-16.011-15.844-1.944-9.866 13.748-37.846 13.748-37.846z" fill="#212120"/><path opacity=".7" d="M286.273 244.42c-12.15-.656 11.923-25.974 11.923-25.974s20.812-1.255 31.074-11.232c0 0 1.426 7.695-4.56 13.398-4.296 4.09-15.66 15.144-21.192 30.88 0 0-4.752-6.394-17.245-7.072z" fill="#F49D8B"/><path d="M295.007 48.94h22.569c-.54-15.957 3.454-28.099 5.425-33.045a1.925 1.925 0 00-.184-1.776 1.916 1.916 0 00-1.566-.857c-4.236-.086-15.163.122-15.163.122s-1.79 1.62-2.63 2.886c-2.092 3.17-7.241 10.768-8.451 32.67zm28.764.284s2.208-32.67 6.596-35.27c0 0 18.338-1.026 27.767 15.99 2.773 5.002 4.025 10.705 4.025 16.426v18.109s-16.95-13.5-38.388-15.255z" fill="#7C61A7"/><path d="M257.863 266.525s25.032-13.341 26.585-10.233c1.552 3.108 7.147 18.022 33.561 19.885 26.73 1.866 49.331-28.773 49.331-28.773 1.772 2.511 6.272 5.421 18.579 11.04l-.162.181c-16.373 18.287-37.314 41.712-72.257 41.671-33.235-.035-55.537-33.628-55.537-33.628l-.1-.143z" fill="url(#paint4_linear)"/><path d="M298.196 218.446s-15.773-2.327-23.79-8.532c-8.016-6.204-10.551-8.791-15.39-8.791-4.687 0-8.621 6.267-10.8 8.659a3.757 3.757 0 00-.948 2.935c1.993 18.373 20.766 152.593 50.928 5.729z" fill="url(#paint5_linear)"/><path d="M372.1 514.89c8.233-14.356 13.23-35.168 12.266-65.148-1.698-52.402-17.406-95.667-63.261-95.667-44.109 0-63.104 39.018-63.101 96.39 0 37.741 9.396 64.911 23.76 80.274 25.31-2.438 57.92-7.077 90.336-15.849z" fill="url(#paint6_linear)"/><defs><linearGradient id="paint0_linear" x1="238.097" y1="176.083" x2="279.96" y2="176.083" gradientUnits="userSpaceOnUse"><stop stop-color="#413277"/><stop offset=".28" stop-color="#45377D"/><stop offset=".64" stop-color="#52458C"/><stop offset="1" stop-color="#645AA4"/></linearGradient><linearGradient id="paint1_linear" x1="287.042" y1="533.52" x2="287.042" y2="247.404" gradientUnits="userSpaceOnUse"><stop stop-color="#EB5950"/><stop offset=".14" stop-color="#EC5F55"/><stop offset=".64" stop-color="#EE7165"/><stop offset="1" stop-color="#EF786B"/></linearGradient><linearGradient id="paint2_linear" x1="171.979" y1="379.39" x2="268.321" y2="283.049" gradientUnits="userSpaceOnUse"><stop stop-color="#F39327"/><stop offset=".59" stop-color="#F6A241"/><stop offset="1" stop-color="#F8AE56"/></linearGradient><linearGradient id="paint3_linear" x1="503.517" y1="348.468" x2="368.906" y2="270.751" gradientUnits="userSpaceOnUse"><stop stop-color="#F39327"/><stop offset=".11" stop-color="#F49830"/><stop offset=".41" stop-color="#F6A445"/><stop offset=".71" stop-color="#F8AC52"/><stop offset="1" stop-color="#F8AE56"/></linearGradient><linearGradient id="paint4_linear" x1="257.863" y1="273.85" x2="385.919" y2="273.85" gradientUnits="userSpaceOnUse"><stop stop-color="#EB5950"/><stop offset=".13" stop-color="#EC5F55"/><stop offset=".64" stop-color="#EE7165"/><stop offset="1" stop-color="#EF786B"/></linearGradient><linearGradient id="paint5_linear" x1="45282.8" y1="71636.2" x2="57373.5" y2="75808" gradientUnits="userSpaceOnUse"><stop stop-color="#413277"/><stop offset=".28" stop-color="#45377D"/><stop offset=".64" stop-color="#52458C"/><stop offset="1" stop-color="#645AA4"/></linearGradient><linearGradient id="paint6_linear" x1="361.749" y1="520.873" x2="275.276" y2="371.096" gradientUnits="userSpaceOnUse"><stop stop-color="#F39327"/><stop offset=".27" stop-color="#F4972D"/><stop offset=".64" stop-color="#F5A03E"/><stop offset="1" stop-color="#F8AE56"/></linearGradient></defs></svg>