<svg width="540" height="509" fill="none" xmlns="http://www.w3.org/2000/svg"><g clip-path="url(#clip0)"><path d="M392.043 288.545V429.01l23.495 38.291 1.788 2.913h92.708l1.873-181.669H392.043z" fill="#E6E6E6"/><path opacity=".1" d="M392.043 288.545V429.01l23.495 38.291 1.442-178.756h-24.937z" fill="#000"/><path d="M168.234 284.799v140.466l-23.496 38.291-1.788 2.912H50.242L48.37 284.799h119.865z" fill="#E6E6E6"/><path opacity=".1" d="M168.234 284.799v140.466l-23.496 38.291-1.442-178.757h24.938z" fill="#000"/><path d="M540 281.99v8.427H36.195v-12.173l46.822-24.348h415.78L540 281.99z" fill="#E6E6E6"/><path opacity=".1" d="M540 281.99v8.427H36.195v-12.173L540 281.99z" fill="#000"/><path d="M108.302 324.129H85.827l-9.365-6.555h42.14l-10.3 6.555zm0 27.157H85.827l-9.365-6.555h42.14l-10.3 6.555zm0 38.395H85.827l-9.365-6.556h42.14l-10.3 6.556zm0 38.393H85.827l-9.365-6.555h42.14l-10.3 6.555zm343.672-100.199h22.476l9.364-6.555h-42.14l10.3 6.555zm0 27.157h22.476l9.364-6.555h-42.14l10.3 6.555zm0 38.394h22.476l9.364-6.555h-42.14l10.3 6.555zm0 38.394h22.476l9.364-6.555h-42.14l10.3 6.555zm15.305-340.358H278.075a7.155 7.155 0 00-7.156 7.155V226.07a7.15 7.15 0 002.096 5.06 7.15 7.15 0 005.06 2.096h71.823l-2.69 17.18s-15.378 8.169-4.566 8.41c10.813.24 61.752 0 61.752 0s9.851 0-5.767-8.651l-2.531-16.939h71.183a7.15 7.15 0 005.06-2.096 7.15 7.15 0 002.096-5.06V98.617a7.15 7.15 0 00-2.096-5.06 7.15 7.15 0 00-5.06-2.095z" fill="#3F3D56"/><path d="M467.587 99.03h-189.82v106.203h189.82V99.03zm-94.91-2.162a1.2 1.2 0 100-2.402 1.2 1.2 0 000 2.402zm0 131.192a4.565 4.565 0 100-9.13 4.565 4.565 0 000 9.13z" fill="#F2F2F2"/><path d="M365.563 271.79v2.404h-129.27v-1.923l.178-.481 3.186-8.649H362.92l2.643 8.649zm49.747-2.352c-.235 1.007-1.124 2.069-3.133 3.073-7.208 3.605-21.865-.961-21.865-.961s-11.294-1.922-11.294-6.968c.318-.217.648-.414.99-.589 3.031-1.603 13.079-5.559 30.896.168a7.43 7.43 0 013.387 2.219 3.536 3.536 0 011.019 3.058z" fill="#3F3D56"/><path opacity=".1" d="M415.31 269.438c-8.823 3.381-16.687 3.633-24.758-1.972a17.717 17.717 0 00-10.544-3.472c3.031-1.604 13.08-5.56 30.896.167a7.425 7.425 0 013.387 2.219 3.536 3.536 0 011.019 3.058z" fill="#000"/><path d="M404.248 267.465c1.725 0 3.123-.43 3.123-.961 0-.53-1.398-.961-3.123-.961-1.725 0-3.124.431-3.124.961 0 .531 1.399.961 3.124.961z" fill="#F2F2F2"/><path opacity=".1" d="M365.563 271.791v2.403h-129.27v-1.923l.178-.48h129.092z" fill="#000"/><path d="M71.876 0a6.495 6.495 0 00-3.767.842c-1.121.767-1.827 2.112-2.548 3.363a40.23 40.23 0 01-10.96 12.38c-3.257 2.386-7.397 5.36-6.84 9.759.294 1.452.83 2.845 1.587 4.12 3.005 6.064 11.203 10.75 10.396 17.67 2.985-4.996-1.007-7.467 1.978-12.464 1.421-2.38 3.89-5.066 6.036-3.571.719.5 1.19 1.398 1.939 1.837 1.785 1.047 3.684-.956 5.265-2.374 5.45-4.892 13.199-3.61 19.98-2.086 3.201.72 6.717 1.663 8.61 4.723 2.488 4.023-2.364 8.368-3.59 12.916a2.477 2.477 0 002.66 3.084c2.034-.2 4.445-.365 4.565-1.258 2.56.091 5.697-.199 6.794-2.864.335-1.055.512-2.154.526-3.26.402-4.478 2.303-8.563 3.562-12.825 1.259-4.261 1.806-9.256-.319-13.034a15.087 15.087 0 00-2.783-3.383C102.91 1.907 87.057-.017 71.876 0z" fill="#2F2E41"/><path d="M62.367 56.875s2.622 21.851-6.993 23.6c-9.614 1.748 8.74 31.465 8.74 31.465l43.703 5.244-10.488-34.962S90.336 79.6 94.706 62.12s-32.34-5.244-32.34-5.244zM35.708 432.279l3.497 48.073h18.354l-5.244-48.073H35.708zm134.604-90.901l2.622 40.206 20.103-8.74-7.867-33.214-14.858 1.748z" fill="#FFB8B8"/><path d="M22.597 248.729s.874 50.695 6.119 67.302c5.244 16.607 4.37 17.481 3.496 20.103-.874 2.622-1.748.874-1.748 5.244s-1.748 73.42 0 79.539c1.748 6.118-5.244 16.607 0 17.481 5.244.874 29.718 0 30.592-5.245.874-5.244-6.993-6.992-3.497-10.488 3.497-3.496 8.74-75.169 8.74-75.169l12.237-49.82 22.726-26.222h48.072l14.859 57.687s-6.118 16.607-1.748 16.607c4.371 0 30.592 5.245 30.592-13.984 0-19.23-8.741-76.043-10.489-77.791-1.748-1.748.874-7.866-1.748-10.488-2.622-2.623-33.214-20.978-44.576-24.474-11.363-3.496-27.303-7.657-27.303-7.657l-86.324 37.375zm170.44 117.123s-13.111-4.371-19.229 8.74c-6.118 13.111-3.496 16.607-3.496 16.607s20.103 6.992 23.599 3.496c1.521-1.521 6.351-2.049 11.323-2.161 7.572-.17 9.587-10.883 2.436-13.378a7.886 7.886 0 00-.648-.194c-6.993-1.748-13.985-13.11-13.985-13.11z" fill="#2F2E41"/><path d="M82.033 71.297c14.481 0 26.221-11.74 26.221-26.222 0-14.482-11.74-26.221-26.221-26.221-14.482 0-26.222 11.74-26.222 26.221 0 14.482 11.74 26.222 26.222 26.222z" fill="#FFB8B8"/><path d="M47.945 91.4s42.828 8.74 53.317-5.245c10.488-13.984 14.859 39.333 14.859 39.333l5.244 55.939-7.867 30.592s-41.08 33.214-54.19 35.836c-13.111 2.622-33.215 4.37-33.215 4.37s6.119-97.02 6.119-98.768c0-1.748 15.733-62.057 15.733-62.057z" fill="#009687"/><path d="M60.97 75.007s-9.529-5.458-12.151-.214S21.723 93.148 19.1 93.148s5.244 72.546 1.748 81.287c-3.496 8.74-20.103 72.546-10.488 77.79 9.614 5.244 2.622-5.244 12.236 7.867 9.615 13.11 56.813 13.11 59.436 7.866 2.622-5.244-20.977-44.576-16.607-81.287 4.37-36.71 11.362-87.404 5.244-94.397-6.118-6.992-9.7-17.267-9.7-17.267zm31.551 5.905l1.218-4.19s36.366 12.056 38.115 19.922c1.748 7.867.874 62.932-5.245 67.302-6.118 4.37-14.859 11.363-8.74 21.851 6.118 10.489 13.11 21.852 18.355 22.726 5.244.874 14.859 6.992 12.237 13.11-2.623 6.119-34.088-5.244-34.088-5.244s-20.978-15.733-20.104-40.206c.874-24.474-1.748-95.271-1.748-95.271z" fill="#2F2E41"/><path d="M123.113 184.049l-20.977 39.333s-30.592 31.465-13.11 34.962c17.48 3.496 27.095-28.844 27.095-28.844l22.725-32.34-15.733-13.111z" fill="#FFB8B8"/><path d="M73.153 6.861a5.951 5.951 0 00-3.066.595 7.148 7.148 0 00-2.075 2.377 30.2 30.2 0 01-8.921 8.75c-2.651 1.686-6.022 3.789-5.568 6.898a8.626 8.626 0 001.292 2.911 22.903 22.903 0 012.783 14.275l7.29-10.595c1.156-1.682 3.166-3.58 4.913-2.524.585.354.97.988 1.579 1.298 1.453.74 2.999-.675 4.285-1.677 4.436-3.458 10.745-2.552 16.265-1.475 2.606.509 5.468 1.176 7.009 3.338 2.56 3.594-.113 8.787 1.381 12.939a3.813 3.813 0 001.578-2.519c2.084.065 4.638-.14 5.53-2.024a6.946 6.946 0 00.428-2.304c.328-3.165 1.875-6.052 2.9-9.065 1.025-3.012 1.471-6.542-.259-9.212a11.144 11.144 0 00-2.266-2.392C98.416 8.21 85.512 6.85 73.153 6.862zm49.96 86.287l8.144 2.162s18.952 48.533 14.581 81.747c-4.37 33.214-6.992 26.221-6.992 26.221s-6.992-15.733-22.725-12.236l6.992-97.894zM36.919 473.999c-2.108 2.864-1.685 6.958-3.552 9.985-1.619 2.624-4.669 3.999-6.693 6.324a16.961 16.961 0 00-1.72 2.475c-1.878 3.146-3.405 7.177-1.555 10.339 1.488 2.544 4.615 3.538 7.482 4.216 3.626.856 7.392 1.541 11.059.887 3.666-.654 7.25-2.9 8.557-6.387.257-.877.563-1.74.915-2.583 1.988-3.912 8.221-3.954 10.255-7.843 1.424-2.721.115-6.011-1.192-8.79l-3.995-8.486c-1.326-2.817-6.7-1.197-9.502-1.872-3.653-.88-7.43-1.85-10.059 1.735z" fill="#2F2E41"/><path d="M7.738 201.53l36.71 56.813s22.726 28.844 29.718 15.733c6.993-13.11-24.473-34.962-24.473-34.962l-23.6-43.702-18.355 6.118z" fill="#FFB8B8"/><path d="M26.093 94.896l-6.992-1.748s-13.985 4.37-17.48 22.725c-3.497 18.355-.875 91.775 3.495 92.649 4.37.875 21.585-12.783 24.34-9.888 2.756 2.896-5.985-11.963-3.363-19.829 2.623-7.867 0-83.909 0-83.909z" fill="#2F2E41"/><path d="M354.711 133.911H332.12v5.438h22.591v-5.438zm78.231 0h-7.949v5.438h7.949v-5.438zm15.897 0h-7.949v5.438h7.949v-5.438zm-32.213 0h-53.967v5.438h53.967v-5.438zm-90.363 35.141h-22.591v5.438h22.591v-5.438zm78.231 0h-7.949v5.438h7.949v-5.438zm15.897 0h-7.948v5.438h7.948v-5.438zm-32.212 0h-53.967v5.438h53.967v-5.438zm31.376-23.009h-22.591v5.438h22.591v-5.438zm30.539 0h-22.591v5.438h22.591v-5.438zm-138.473 0h-7.949v5.438h7.949v-5.438zm15.897 0h-7.948v5.438h7.948v-5.438zm61.916 0h-53.967v5.438h53.967v-5.438zM372.7 157.757h-22.591v5.438H372.7v-5.438zm-30.54 0h-22.59v5.438h22.59v-5.438zm-30.539 0h-7.949v5.438h7.949v-5.438zm138.473 0h-7.949v5.438h7.949v-5.438zm-15.897 0H380.23v5.438h53.967v-5.438z" fill="#009687"/></g><defs><clipPath id="clip0"><path fill="#fff" d="M0 0h540v508.485H0z"/></clipPath></defs></svg>