<svg width="879" height="585" fill="none" xmlns="http://www.w3.org/2000/svg"><path d="M355.994 553.642l-.093.068c.309-5.297-.755-10.941-2.39-16.56a92.967 92.967 0 00-1.262-3.966l.167.006a94.875 94.875 0 00-1.647-4.431l-.179-.093a86.145 86.145 0 00-1.771-4.053c-.563-1.491-1.312-3.001-2.123-4.498-5.095-9.314-12.183-18.342-21.889-25.935-17.761-13.88-42.145-21.361-58.859-35.953-27.504-24.009-31.008-53.984-65.476-72.444a98.535 98.535 0 00-2.624-1.355 106.887 106.887 0 00-9.732-4.22c-14.126-5.322-26.922-11.454-39.074-18.187-.885-.489-1.764-.984-2.643-1.485-22.682-12.822-43.246-27.704-66.175-43.218-11.88-8.038-24.607-15.897-38.468-19.913-10.071-2.914-20.886-3.329-28.55-.421-.322.124-.643.242-.947.372-.68.408-1.318.854-1.925 1.33-5.528 4.295-7.955 11.201-7.2 18.36 1.109 10.495 7.782 21.436 14.957 31.869 2.296 3.341 4.593 6.627 6.865 9.882.427.613.854 1.225 1.281 1.832 18.782 26.819 36.109 51.243 43.333 79.863 2.86 11.337 9.286 20.223 17.556 27.964.786.78 1.665 1.535 2.526 2.29.123.111.241.223.365.334.037.031.074.062.111.099.353.303.681.625 1.04.928.186.112.36.254.533.403 2.643 2.196 5.435 4.3 8.313 6.367 1.82 1.399 3.733 2.729 5.677 4.047 3.689 2.413 7.379 4.814 11.087 7.234 1.616 1.145 3.337 2.271 5.058 3.41 2.247 1.404 4.457 2.896 6.648 4.418 1.331.99 2.742 1.986 4.141 3.001a112.048 112.048 0 015.59 4.177c2.563 2.055 5.089 4.189 7.509 6.417 1.789 1.665 3.541 3.366 5.194 5.155 7.169 7.741 11.415 16.188 15.47 24.703h.13-.13c.278.588.557 1.175.842 1.763 3.875 8.169 7.738 16.355 14.003 23.998a70.171 70.171 0 003.596 4.022h163.464a42.453 42.453 0 001.585-1.956 4.86 4.86 0 00.891-.853 4.167 4.167 0 00.78-1.541c1.672-2.612 2.941-5.421 3.671-8.459.093.043.167.105.266.142.105-.433.217-.866.297-1.306.217-1.194.322-2.413.378-3.645l-.167.038zM56.564 342.151c-3.046-1.85-6.098-3.744-9.057-5.693 2.96 1.949 6.011 3.843 9.057 5.693zm-6.469 21.306zm26.91 20.755a280.324 280.324 0 01-5.367-4.369 335.072 335.072 0 005.367 4.369c2.705 2.135 5.36 4.022 7.985 5.668a89.856 89.856 0 01-7.985-5.668zm17.314 8.564c1.628.724 3.232 1.3 4.829 1.813-1.597-.513-3.207-1.089-4.829-1.813zm-2.977-26.089c-3.015-3.168-6.488-6.101-10.22-8.874 3.738 2.773 7.205 5.706 10.22 8.874 4.742 4.981 8.332 10.501 11.353 16.225-3.021-5.724-6.605-11.244-11.353-16.225zm18.379 31.596c.093.217.186.434.272.65-.086-.216-.179-.433-.272-.65zm20.342 29.734zm8.858-39.381c.489-.687.984-1.38 1.473-2.073-.489.693-.984 1.386-1.473 2.073zm5.671-8.453c.848-1.448 1.628-2.927 2.284-4.437a43.698 43.698 0 01-2.284 4.437zm27.262 95.662c-3.015-1.405-6.073-2.822-9.193-4.177 3.12 1.355 6.172 2.772 9.193 4.177zm23.165-65.52c-.57 1.331-1.232 2.655-1.926 3.967.694-1.312 1.356-2.636 1.926-3.967zm27.089 76.603a112.76 112.76 0 00-11.025-10.421 111.97 111.97 0 0111.025 10.421zm2.024 2.246c-.192-.223-.396-.439-.594-.662.192.223.396.445.594.662a110.601 110.601 0 015.299 6.615 116.474 116.474 0 00-5.299-6.615zm15.854 22.432zm6.902 11.008c-1.832-2.84-3.603-5.693-5.355-8.514-.483-.774-.965-1.554-1.448-2.333.483.779.965 1.559 1.448 2.333 1.746 2.821 3.516 5.674 5.355 8.514zm5.881 8.608zm14.708 16.473c.26.229.489.47.749.699-.26-.229-.489-.47-.749-.699z" fill="#949CE4"/><path d="M177.355 209.749c-20.552-17.804-51.331-18.41-64.43-1.275-.068.093-.142.185-.21.278-9.1 12.067-12.034 29.27-2.613 44.493 4.835 7.821 12.728 14.975 14.554 23.224 3.089 13.978-12.146 22.066-19.221 33.093-6.847 10.675-5.69 25.811 2.94 38.398 8.06 11.757 22.366 22.072 24.05 34.659 1.108 8.28-3.751 15.118-8.394 21.405-7.385 10-14.715 20.309-17.637 32.481-2.921 12.172-.848 26.689 8.958 38.36 8.091 9.629 20.911 16.869 26.049 27.537 5.045 10.47 1.077 20.885 2.247 31.528 2.204 20.087 24.267 39.721 47.561 45.365 10.264 2.488 20.447 2.556 29.825.712 2.05-.403 4.272-.359 6.513.13 10.251 2.227 20.49 2.568 29.776.464 21.072-4.765 34.914-23.688 28.525-43.861-3.386-10.687-11.848-21.343-11.248-31.708.613-10.551 10.437-17.345 14.473-26.733 4.891-11.38.762-25.934-7.404-38.329-8.165-12.394-19.97-23.075-31.707-33.459-7.379-6.528-15.21-13.62-17.642-21.924-3.696-12.63 6.314-22.463 9.403-33.998 3.305-12.345-2.012-27.567-13.489-38.601-11.861-11.404-30.692-20.167-33.564-34.139-1.697-8.249 3.2-15.149 4.723-22.841 2.977-14.981-7.354-32.444-21.704-44.975-.117-.093-.229-.192-.334-.284z" fill="#D7E1FC"/><path d="M423.9 483.456c-9.415-24.195-30.228-45.123-38.052-69.523-12.876-40.148 3.825-73.861-20.23-111.813a91.386 91.386 0 00-1.87-2.834 108.226 108.226 0 00-7.466-9.659c-11.384-13.169-20.799-26.498-29.125-40.118-.607-.99-1.208-1.986-1.802-2.982-15.364-25.7-27.083-52.451-40.875-81.139-7.144-14.863-15.315-29.993-27.312-41.633-8.716-8.459-19.927-14.66-30.042-15.644a29.886 29.886 0 00-1.263-.111 27.11 27.11 0 00-2.953.384c-8.796 1.621-16.083 7.667-20.156 15.674-5.967 11.745-6.333 26.918-5.813 41.819.167 4.771.366 9.487.57 14.152l.111 2.624c1.69 38.49 3.467 73.657-8.344 107.908-4.68 13.564-3.919 26.423-.415 39.047.056.297.173.606.26.916.328 1.138.675 2.277 1.046 3.415.019.056.037.112.056.161.167.514.297 1.028.47 1.535.124.217.205.464.291.712 1.313 3.737 2.848 7.462 4.494 11.188.979 2.45 2.105 4.882 3.275 7.32l.118.025c2.16 4.499 4.444 9.016 6.735 13.564l-.124-.031c1.059 2.104 2.123 4.221 3.176 6.343 1.436 2.692 2.761 5.452 4.055 8.23.742 1.764 1.559 3.571 2.358 5.39 1.108 2.389 2.13 4.895 3.095 7.413 1.325 3.546 2.551 7.154 3.603 10.811.768 2.717 1.467 5.458 2.012 8.236 2.346 12.042 1.108 23.274-.384 34.48-.105.774-.204 1.547-.309 2.321-1.449 10.736-2.916 21.497-1.467 32.951.222 1.776.538 3.552.897 5.328.037.186.081.372.118.557.26 1.257.557 2.507.879 3.763.148.588.297 1.169.464 1.757.186.662.39 1.324.594 1.987.756 2.487 1.579 4.969 2.551 7.438.012-.038.012-.081.018-.118.254.637.514 1.275.78 1.912.081.31.211.613.372.91 2.507 5.848 5.577 11.609 9.032 17.209l-.106.074a160.368 160.368 0 004.575 7.042l.192.025a189.427 189.427 0 009.75 12.871 182.416 182.416 0 005.652 6.535l-.353-.087a135.315 135.315 0 006.692 6.912c.012-.099.006-.198.012-.297 2.631 2.519 5.361 4.889 8.208 7.055-.099.037-.216.049-.315.092a80.332 80.332 0 002.934 2.16 77.32 77.32 0 0012.338 6.993c-.05-.143-.118-.291-.174-.434a87.293 87.293 0 009.855 3.763l.564.538c5.93 1.844 11.935 3.082 17.89 3.973a13.784 13.784 0 00-1.176-.563c.606.093 1.207.192 1.807.278.155.05.31.13.458.174l1.418.105c1.77.21 3.46.421 5.144.6l.347.248.706.241c.681.068 1.361.142 2.042.204.756.074 1.517.118 2.272.179l1.071-.29c6.482.489 13.031.687 19.42.365 4.735.179 9.415.074 13.996-.204l.588.365c2.699-.174 5.367-.384 7.973-.675 4.303-.476 8.624-1.089 12.839-1.931-.136-.129-.309-.222-.452-.34 5.59-1.095 11.013-2.58 15.972-4.765a6.77 6.77 0 001.473-.427c.805-.34 1.38-.767 1.888-1.225 3.553-1.887 6.791-4.233 9.638-7.073.075.111.124.223.211.334.402-.408.817-.804 1.207-1.231 1.04-1.151 1.987-2.389 2.885-3.67l-.211-.049-.148.025c3.937-5.465 6.648-12.024 8.741-18.862a110.72 110.72 0 001.355-4.882l.167.099a99.58 99.58 0 001.263-5.588l-.13-.198c.341-1.727.626-3.484.879-5.248.415-1.887.65-3.886.811-5.909-.037 0-.08.012-.117.012 1.052-12.593-.328-25.959-5.479-39.189zm-116.045 97.698c.105-.05.179-.112.278-.167l.446.092c-.247.025-.489.056-.724.075z" fill="#90EDDD"/><path d="M629.879 191.823c-9.867-11.764-27.912-11.764-37.78 0a2.391 2.391 0 00-.155.191c-6.871 8.286-10.759 19.957-7.125 30.13 1.863 5.223 5.615 9.957 5.652 15.514.062 9.412-9.923 15.086-15.476 22.642-5.373 7.308-6.593 17.537-3.095 25.928 3.268 7.84 10.4 14.629 9.805 23.119-.39 5.582-4.11 10.278-7.632 14.591-5.603 6.863-11.217 13.936-14.467 22.209-3.25 8.274-3.851 18.063.458 25.823 3.553 6.405 10.195 11.133 11.879 18.28 1.653 7.017-1.987 14.115-2.637 21.293-1.226 13.558 9.298 26.541 22.304 30.049 5.732 1.548 11.718 1.455 17.476.087a8.296 8.296 0 013.819 0c5.757 1.368 11.743 1.461 17.476-.087 13.006-3.508 23.535-16.491 22.304-30.049-.65-7.184-4.297-14.282-2.638-21.293 1.684-7.147 8.327-11.869 11.88-18.28 4.308-7.766 3.708-17.549.458-25.823-3.25-8.273-8.859-15.34-14.467-22.209-3.522-4.319-7.249-9.009-7.633-14.591-.588-8.49 6.537-15.279 9.806-23.119 3.497-8.397 2.278-18.62-3.095-25.928-5.553-7.556-15.538-13.23-15.476-22.642.037-5.557 3.788-10.291 5.651-15.514 3.634-10.173-.253-21.844-7.125-30.13-.062-.068-.111-.129-.167-.191z" fill="#9AD0F4"/><path d="M611.339 194.533h-2.012v299.318h2.012V194.533z" fill="#63A5D3"/><path d="M609.655 240.3l-15.42-22.462 1.653-1.158 15.426 22.463-1.659 1.157zm-.093 78.595l-23.263-45.396 1.789-.934 23.263 45.396-1.789.934z" fill="#63A5D3"/><path d="M596.644 273.47l-2.011.038.291 15.559 2.012-.037-.292-15.56zm14.565 90.567l-1.504-1.355 31.936-36.411 1.504 1.349-31.936 36.417z" fill="#63A5D3"/><path d="M625.67 346.538l-1.969-.421 5.33-25.706 1.969.421-5.33 25.706zm-16.417 57.969l-29.188-42.134 1.647-1.17 29.187 42.135-1.646 1.169z" fill="#63A5D3"/><path d="M587.84 372.608l-5.776-26.665 1.969-.439 5.769 26.671-1.962.433zm23.53 52.37l-1.703-1.09 31.318-49.876 1.696 1.09-31.311 49.876z" fill="#63A5D3"/><path d="M634.181 388.239l-1.968-.427 3.312-15.65 1.968.427-3.312 15.65zm-22.817-139.257l-1.641-1.182 17.185-24.331 1.634 1.182-17.178 24.331z" fill="#63A5D3"/><path d="M623.565 231.767l-2-.248 2.291-18.923 1.993.242-2.284 18.929z" fill="#63A5D3"/><path d="M640.099 542.353h-61.91a6.704 6.704 0 01-6.704-6.702v-42.097a6.704 6.704 0 016.704-6.702h61.91a6.704 6.704 0 016.704 6.702v42.097a6.704 6.704 0 01-6.704 6.702z" fill="#fff"/><path d="M571.559 518.572a.55.55 0 01-.544-.55v-24.363c0-4.053 3.262-7.351 7.273-7.351h45.333a.55.55 0 01.544.55.546.546 0 01-.544.551h-45.333c-3.411 0-6.19 2.803-6.19 6.256v24.363a.544.544 0 01-.539.544z" fill="#D7E1FC"/><path d="M784.239 344.546c1.164 3.41 2.321 6.82 3.485 10.235 1.541 4.524 3.083 9.054 4.996 13.429 2.668 6.107 6.054 11.918 7.991 18.298 1.437 4.727 2.049 9.666 3.362 14.43 2.018 7.327 5.639 14.078 8.536 21.089 2.897 7.018 4.061 16.114 3.04 23.645-.13.972-.279 1.194-1.238 1.064-.656-.086-.341-1.281-.601-1.899a1189.3 1189.3 0 01-35.997-96.584c-2.327-7.172-4.593-14.431-5.398-21.937-.167-1.541-.26-3.137.223-4.61.489-1.473 1.69-2.797 3.213-2.976 4.234-.508 3.423 7.852 3.912 10.383 1.015 5.272 2.749 10.365 4.476 15.433zm-57.577 7.543c.204 4.202 1.157 8.323 1.671 12.494 1.207 9.79.006 19.715.47 29.573.805 17.054 6.587 34.078 3.646 50.897-.6-2.395-.903-4.858-1.207-7.308-4.531-36.825-9.068-73.768-8.969-110.878.006-1.56.068-3.268 1.089-4.437 4.476-5.124 4.668 8.564 4.624 10.099-.167 6.534-1.646 12.995-1.324 19.56z" fill="#000543"/><path d="M776.401 215.859c.793 5.322 2.582 10.452 3.3 15.786 1.405 10.402-1.319 20.922-1.133 31.417.186 10.501 3.275 20.699 4.909 31.07 1.634 10.371 1.647 21.64-3.758 30.612l-9.712-138.718c-.273-3.898-.533-10.198 3.014-12.859 4.29-3.224 4.334.638 4.272 4.258-.223 12.636-2.761 25.884-.892 38.434z" fill="#fff"/><path d="M832.654 207.319c-3.968-.916-7.955-1.838-11.707-3.416-4.054-1.701-7.224-3.292-11.427-4.566-4.581-1.387-10.103-2.179-14.634-3.719-5.739-1.956-10.4-6.405-13.65-11.566-3.25-5.161-5.231-11.027-6.933-16.9-.582-2.011-1.059-4.418.303-5.996 1.932-2.246 5.652-.767 7.751 1.324 3.404 3.41 5.404 7.971 8.171 11.931 6.939 9.95 18.299 15.674 29.429 20.322 5.553 2.32 11.186 4.474 16.609 7.097 3.039 1.473 13.39 5.57 13.421 9.369-5.788-.724-11.632-2.568-17.333-3.88zm-156.506-28.781c-1.053 1.572-2.285 3.039-3.071 4.765-.637 1.405-.972 2.958-1.758 4.282-1.102 1.857-2.977 3.076-4.791 4.233l10.363-27.271c.681-1.788 1.931-4.375 4.135-4.115 1.764 5.291-2.018 13.837-4.878 18.106z" fill="#fff"/><path d="M618.212 115.494l6.723 8.614-7.218 5.056-5.652-8.521 6.147-5.149zM806.357 434.1l7.682 26.875-10.981 2.228-5.646-5.26.47-1.238-6.165-19.641 14.64-2.964z" fill="#FF9985"/><path d="M798.353 455.777l-15.024 5.161c-3.678 1.262-4.371 3.861-2.91 5.798l34.809-.817-1.399-7.747a2.887 2.887 0 00-2.836-2.389h-12.64v-.006z" fill="#88DCE5"/><path d="M815.234 465.913l.383 1.312c.242.817-.736 1.578-2.03 1.596l-27.052.291c-2.953.031-5.076-1.008-6.116-2.382l34.815-.817zm-4.482-.823h-4.791a.993.993 0 01-.991-.99v-.489c0-.544.446-.99.991-.99h4.791c.545 0 .99.446.99.99v.489c0 .545-.445.99-.99.99z" fill="#000543"/><path d="M723.48 433.977l.873 27.574-11.292.965-4.222-5.86.762-1.176-1.183-20.216 15.062-1.287z" fill="#FF9985"/><path d="M709.644 455.598l-15.024 5.16c-3.677 1.263-4.37 3.862-2.909 5.799l34.808-.817-1.392-7.748a2.886 2.886 0 00-2.836-2.388h-12.647v-.006z" fill="#88DCE5"/><path d="M726.526 465.734l.383 1.312c.242.816-.736 1.577-2.03 1.596l-27.052.291c-2.953.031-5.076-1.009-6.11-2.383l34.809-.816zm-4.482-.823h-4.792a.993.993 0 01-.99-.99v-.489c0-.545.445-.99.99-.99h4.792c.544 0 .99.445.99.99v.489c0 .544-.446.99-.99.99z" fill="#000543"/><path d="M617.946 99.616c-.904-.025-1.665.742-1.69 1.707l-.229 8.689c-.025.965.693 1.769 1.597 1.794.904.025 1.665-.742 1.69-1.708l.229-8.688c.025-.959-.693-1.77-1.597-1.794z" fill="#FF9985"/><path d="M603.485 113.44c-.514-1.331-.904-2.735-.669-3.88.18-.885.718-1.522 1.276-2.11a19.663 19.663 0 014.964-3.75c1.703-.91 3.968-1.523 6.184-.025 2.136 1.448 3.436 3.861 3.925 6.194.922 4.425 1.213 6.015-.142 9.468-1.696 4.325-4.99 5.798-9.496 1.275-2.328-2.327-4.928-4.27-6.042-7.172z" fill="#FF9985"/><path d="M613.321 105.841l-8.908-8.695a1.56 1.56 0 01-.037-2.178 1.514 1.514 0 012.154-.037l8.908 8.694a1.56 1.56 0 01.038 2.179 1.52 1.52 0 01-2.155.037zm-3.758 2.135l-8.907-8.695a1.56 1.56 0 01-.038-2.178 1.515 1.515 0 012.155-.037l8.908 8.694c.606.588.619 1.572.037 2.179a1.51 1.51 0 01-2.155.037zm-1.949 4.548l-8.908-8.694a1.554 1.554 0 01-.037-2.179 1.514 1.514 0 012.154-.037l8.908 8.694c.6.588.619 1.572.037 2.179a1.52 1.52 0 01-2.154.037zm-.242 4.759l-8.908-8.695a1.554 1.554 0 01-.037-2.178 1.514 1.514 0 012.155-.037l8.908 8.694c.6.588.619 1.572.037 2.178a1.51 1.51 0 01-2.155.038z" fill="#FF9985"/><path d="M726.241 313.476c-.842 45.674-1.244 84.597 7.28 128.267.724 3.7-2.136 7.128-5.869 7.054l-20.471-.415c-2.328-.049-4.296-1.788-4.649-4.115-9.49-61.794-12.975-95.005-15.959-130.797h39.668v.006zm51.07 4.294c.124 12.03 4.012 24.146 12.672 46.745 7.868 20.532 17.352 54.127 25.257 77.828 1.529 4.585-1.151 8.261-5.937 8.174l-17.159-.328c-3.814-.074-7.225-2.413-8.692-5.971-8.511-20.631-14.82-34.61-24.724-56.033-13.093-28.329-20.998-45.427-22.385-65.019-.123-1.72-.192-3.446-.26-5.173l-.179-4.517h41.364l.043 4.294z" fill="#000543"/><path d="M653.386 187.95l1.69-31.181-1.628-.563 15.63-46.374c.57-2.017 3.931-5.644 6.197-6.689 1.027-.477 1.956-.526 2.631-.205l18.8 7.172-25.944 76.968c-1.077 4.047-4.259 7.11-8.109 7.803a9.622 9.622 0 01-1.659.149c-3.473 0-6.513-2.061-9.057-6.145l1.449-.935z" fill="#fff"/><path d="M684.527 317.548h67.067v-74.74h-67.067v74.74z" fill="#A5D1F5"/><path d="M752.68 318.643h-69.24v-76.93h69.24v76.93zm-67.073-2.191h64.9v-72.543h-64.9v72.543z" fill="#0959A7"/><path d="M708.716 84.467l1.554-.315a97.76 97.76 0 013.708-.681c10.975-1.826 22.904-2.154 34.084-1.733l-2.681 169.653c-.866-.019-1.733-.044-2.606-.062l-48.922-1.151 14.46-165.624c.137-.031.273-.056.403-.087z" fill="#6AC3D1"/><path d="M668.54 110.921c6.413-22.673 39.773-26.374 39.773-26.374l10.419 92.673 29.33-95.488c1.145.043 2.29.087 3.417.142 2.631.136 5.231.297 7.732.508 15.767 2.091 30.599 20.897 23.146 47.933l-7.41 64.665a94.493 94.493 0 00-.415 16.943l6.971 107.165c.346 4.103-.737 5.409-4.817 5.409l-86.987.155c-5.479.012-9.954-4.425-10.053-9.957l-2.904-161.293-8.202-42.481z" fill="#fff"/><path d="M716.268 164.69a1.08 1.08 0 01-1.04-.793l-15-52.221a4.23 4.23 0 011.505-4.523l2.593-1.95.619-1.138-.625.897-5.484-3.911c-1.239-.878-1.573-2.58-.774-3.88l8.518-13.112a1.077 1.077 0 011.504-.316c.501.334.638 1.015.31 1.516l-8.5 13.094c-.179.285-.099.693.198.904l5.485 3.911a2.358 2.358 0 01.049 3.799l-2.593 1.949a2.015 2.015 0 00-.718 2.148l14.999 52.221a1.1 1.1 0 01-.737 1.361c-.105.031-.21.044-.309.044zm-34.524-28.194h14.442a3.237 3.237 0 003.238-3.242v-5.835a3.241 3.241 0 00-3.238-3.243h-14.442a3.238 3.238 0 00-3.238 3.243v5.835a3.237 3.237 0 003.238 3.242z" fill="#D7E1FC"/><path d="M688.931 124.578c-.6 0-1.083-.489-1.083-1.095v-2.828c0-.606.483-1.095 1.083-1.095s1.083.489 1.083 1.095v2.828c0 .606-.483 1.095-1.083 1.095z" fill="#0959A7"/><path d="M724.086 162.839c-.173 0-.34-.043-.501-.124a1.099 1.099 0 01-.452-1.485l25.077-48.112a1.998 1.998 0 00-.272-2.246l-2.154-2.439a2.368 2.368 0 01-.539-2.06 2.342 2.342 0 011.337-1.646l6.154-2.717a.69.69 0 00.365-.866l-6.023-18.527a1.103 1.103 0 01.693-1.386 1.083 1.083 0 011.368.699l6.005 18.49c.513 1.392-.161 2.989-1.542 3.601l-6.153 2.717-.05.235 2.155 2.438a4.236 4.236 0 01.575 4.734l-25.077 48.112a1.093 1.093 0 01-.966.582zm-29.961-19.158h-16.12c-.6 0-1.083-.489-1.083-1.095 0-.607.483-1.096 1.083-1.096h16.12c.6 0 1.083.489 1.083 1.096a1.083 1.083 0 01-1.083 1.095z" fill="#D7E1FC"/><path d="M719.382 205.914c-2.019 0-3.665-1.664-3.665-3.7 0-2.042 1.64-3.701 3.665-3.701 2.018 0 3.664 1.665 3.664 3.701s-1.646 3.7-3.664 3.7zm0-5.216a1.5 1.5 0 00-1.492 1.51 1.5 1.5 0 001.492 1.51c.823 0 1.498-.675 1.498-1.51-.007-.829-.675-1.51-1.498-1.51zm.142 23.539c-2.018 0-3.665-1.664-3.665-3.706s1.647-3.701 3.665-3.701 3.665 1.665 3.665 3.701c0 2.042-1.647 3.706-3.665 3.706zm0-5.216c-.823 0-1.498.674-1.498 1.51 0 .835.669 1.51 1.498 1.51.823 0 1.492-.681 1.492-1.51a1.5 1.5 0 00-1.492-1.51z" fill="#F9D1B7"/><path d="M629.782 119.04l28.711 39.424-1.759 29.431a2.605 2.605 0 01-2.612 2.475c-.817 0-1.591-.39-2.098-1.095l-38.585-54.004c-1.925-2.698-1.443-6.442 1.108-8.546l10.109-8.347a3.55 3.55 0 015.126.662zm139.791 24.406l14.833 39.207c1.696 4.283 4.655 5.891 7.607 6.993l67.272 29.282c.303.811.959 1.269 1.628 1.368.099.012.198.024.297.024a2.025 2.025 0 001.931-2.592l9.781-10.768.074-.526c.514-3.502-1.368-6.943-4.58-8.366l-55.987-25.025a14.58 14.58 0 01-7.744-8.366l-22.223-61.522-1.616.594-1.616.594.873 2.413-8.926 36.077c.006-.006-1.604.613-1.604.613zm90.597 75.816l.681-1.145c.006.093-.52 1.257-.52 1.257a.75.75 0 01-.161-.112z" fill="#fff"/><path d="M848.557 233.662l-37.205-13.93c-3.231-1.206-4.878-4.839-3.683-8.106l21.927-59.82c1.194-3.261 4.779-4.932 8.01-3.719l37.204 13.929c3.232 1.207 4.878 4.839 3.684 8.106l-21.927 59.821c-1.201 3.261-4.785 4.925-8.01 3.719z" fill="#6D72A0"/><path d="M837.525 151.707c-1.634-.613-3.441.229-4.048 1.881l-20.038 54.665c-.607 1.653.229 3.484 1.863 4.097l35.019 13.112c1.634.613 3.442-.228 4.048-1.881l19.915-54.337c.662-1.801-.248-3.806-2.03-4.481l-34.729-13.056z" fill="#fff"/><path d="M852.531 175.147l-16.528-6.188c-.495-.186-.7-.891-.446-1.578.254-.687.861-1.089 1.356-.903l16.528 6.188c.495.185.7.891.446 1.578-.254.687-.861 1.089-1.356.903zm9.911 3.713l-5.695-2.129c-.495-.185-.7-.891-.446-1.578.254-.687.861-1.089 1.356-.903l5.695 2.129c.495.185.7.891.446 1.578-.254.68-.861 1.089-1.356.903zm-18.194-1.665l16.529 6.188c.495.186 1.102-.216 1.356-.903.253-.687.049-1.392-.446-1.578l-16.529-6.188c-.495-.186-1.102.217-1.355.903-.254.687-.05 1.393.445 1.578zm-11.124 1.071l25.133 9.412c.755.285 1.573-.043 1.826-.73.254-.687-.161-1.473-.916-1.751l-25.133-9.412c-.755-.285-1.572.043-1.826.73-.254.68.161 1.466.916 1.751zm1.213-4.777l5.695 2.128c.496.186 1.102-.216 1.356-.903s.05-1.393-.446-1.578l-5.695-2.129c-.495-.185-1.102.217-1.355.904-.254.686-.05 1.392.445 1.578zm8.103 28.682l-16.528-6.189c-.495-.185-.7-.891-.446-1.577.254-.687.861-1.09 1.356-.904l16.528 6.188c.496.186.7.891.446 1.578-.254.687-.86 1.095-1.356.904zm9.911 3.712l-5.695-2.134c-.495-.186-.699-.892-.446-1.578.254-.687.861-1.089 1.356-.904l5.695 2.129c.496.186.7.891.446 1.578-.254.693-.86 1.095-1.356.909zm-18.193-1.658l16.528 6.188c.495.186 1.102-.217 1.356-.903.253-.687.049-1.393-.446-1.578l-16.528-6.189c-.496-.185-1.102.217-1.356.904-.254.681-.05 1.386.446 1.578zm-11.125 1.064l25.134 9.412c.755.285 1.572-.043 1.826-.73.254-.687-.161-1.472-.916-1.751l-25.134-9.412c-.755-.285-1.572.043-1.826.73-.254.687.155 1.467.916 1.751zm1.214-4.777l5.695 2.129c.495.185 1.102-.217 1.356-.904.253-.687.049-1.392-.446-1.578l-5.695-2.128c-.496-.186-1.102.216-1.356.903-.248.687-.05 1.392.446 1.578zm23.362-11.937l-16.528-6.188c-.495-.185-.7-.891-.446-1.578.254-.687.861-1.089 1.356-.903l16.528 6.188c.496.186.7.891.446 1.578-.254.687-.86 1.095-1.356.903zm9.905 3.713l-5.695-2.129c-.496-.185-.7-.891-.446-1.577.254-.687.86-1.09 1.356-.904l5.695 2.129c.495.185.699.891.445 1.578-.247.687-.854 1.089-1.355.903zm-18.187-1.658l16.528 6.188c.495.185 1.102-.217 1.356-.904s.049-1.392-.446-1.578l-16.528-6.188c-.496-.185-1.102.217-1.356.904-.254.68-.056 1.386.446 1.578zm-11.595.891l16.528 6.188c.496.186 1.102-.217 1.356-.904.254-.686.05-1.392-.446-1.578l-16.528-6.188c-.495-.185-1.102.217-1.356.904s-.055 1.392.446 1.578zm1.684-4.604l5.695 2.128c.495.186 1.102-.216 1.355-.903.254-.687.05-1.392-.445-1.578l-5.695-2.129c-.496-.185-1.102.217-1.356.904-.248.687-.05 1.392.446 1.578z" fill="#D7E1FC"/><path d="M861.779 163.767l-15.414-5.773c-1.157-.433-1.758-1.751-1.331-2.921.427-1.169 1.734-1.776 2.891-1.343l15.414 5.774c1.158.433 1.758 1.751 1.331 2.921a2.25 2.25 0 01-2.891 1.342z" fill="#91B4DE"/><path d="M868.75 201.589a1.444 1.444 0 01-.737-1.887l1.814-4.208a1.416 1.416 0 011.869-.743 1.445 1.445 0 01.737 1.887l-1.814 4.208a1.417 1.417 0 01-1.869.743z" fill="#FF9985"/><path d="M868.459 202.406l-.105-.05a2.262 2.262 0 01-1.152-2.958l1.857-4.319c.489-1.132 1.802-1.652 3.034-1.114 1.12.495 1.634 1.819 1.151 2.958l-1.857 4.319a2.23 2.23 0 01-2.043 1.349c-.297 0-.594-.055-.885-.185zm2.179-6.622l-1.857 4.314a.52.52 0 00.26.668l.105.049a.508.508 0 00.662-.26l1.857-4.319c.106-.254-.012-.557-.365-.711a.433.433 0 00-.192-.044.506.506 0 00-.47.303zm-3.133 20.013a1.791 1.791 0 01-2.433.718l-7.459-4.134c-.867-.477-1.182-1.584-.712-2.457a1.792 1.792 0 012.433-.718l7.459 4.134a1.82 1.82 0 01.712 2.457z" fill="#FF9985"/><path d="M864.658 217.276l-7.46-4.134a2.64 2.64 0 01-1.269-1.603 2.678 2.678 0 01.217-2.036 2.638 2.638 0 011.585-1.28 2.582 2.582 0 012.018.222l7.459 4.134c1.281.712 1.752 2.339 1.052 3.639a2.637 2.637 0 01-1.584 1.281 2.63 2.63 0 01-.749.111 2.719 2.719 0 01-1.269-.334zm-6.438-7.383a.922.922 0 00-.557.452.946.946 0 00-.075.712.926.926 0 00.446.563l7.459 4.133a.908.908 0 00.706.075.922.922 0 00.557-.452.95.95 0 00-.371-1.281l-7.46-4.134a.935.935 0 00-.445-.111 1.295 1.295 0 00-.26.043z" fill="#FF9985"/><path d="M869.852 212.561a1.79 1.79 0 01-2.433.717l-10.177-5.637c-.867-.477-1.183-1.584-.712-2.457a1.792 1.792 0 012.433-.718l10.177 5.638a1.827 1.827 0 01.712 2.457z" fill="#FF9985"/><path d="M867.004 214.039l-10.177-5.637a2.64 2.64 0 01-1.269-1.603 2.675 2.675 0 01.217-2.036 2.635 2.635 0 011.584-1.28 2.614 2.614 0 012.019.222l10.177 5.638c.619.34 1.07.909 1.269 1.602a2.682 2.682 0 01-.217 2.036 2.66 2.66 0 01-2.328 1.393c-.439 0-.873-.112-1.275-.335zm2.092-1.893a.946.946 0 00.075-.712.926.926 0 00-.446-.563l-10.177-5.637a.916.916 0 00-.712-.075.927.927 0 00-.557.452.961.961 0 00-.074.718.945.945 0 00.445.563l10.177 5.637a.945.945 0 001.269-.383zm4.223-6.405a1.791 1.791 0 01-2.433.718l-10.177-5.637c-.867-.477-1.183-1.585-.712-2.457a1.789 1.789 0 012.433-.718l10.177 5.637a1.822 1.822 0 01.712 2.457z" fill="#FF9985"/><path d="M870.477 207.22l-10.177-5.637a2.66 2.66 0 01-1.269-1.603 2.682 2.682 0 01.216-2.036 2.639 2.639 0 011.585-1.281 2.582 2.582 0 012.018.223l10.177 5.644a2.694 2.694 0 011.046 3.638 2.634 2.634 0 01-1.584 1.281 2.63 2.63 0 01-.749.111 2.743 2.743 0 01-1.263-.34zm-9.719-8.44a.924.924 0 00-.074.717.94.94 0 00.445.563l10.177 5.638a.912.912 0 00.706.074.901.901 0 00.557-.452.953.953 0 00-.365-1.281l-10.177-5.637a.912.912 0 00-.446-.117.94.94 0 00-.823.495z" fill="#FF9985"/><path d="M871.523 209.077a1.79 1.79 0 01-2.433.717l-11.13-6.169c-.867-.477-1.183-1.584-.712-2.457a1.791 1.791 0 012.433-.718l11.13 6.17a1.82 1.82 0 01.712 2.457z" fill="#FF9985"/><path d="M868.681 210.555l-11.13-6.169c-1.281-.712-1.752-2.339-1.052-3.639a2.636 2.636 0 011.585-1.281 2.587 2.587 0 012.018.223l11.13 6.17c1.281.711 1.752 2.345 1.052 3.638a2.645 2.645 0 01-2.327 1.393 2.698 2.698 0 01-1.276-.335zm1.721-3.174l-11.13-6.169a.904.904 0 00-.706-.075.924.924 0 00-.557.452.951.951 0 00.372 1.281l11.13 6.169a.929.929 0 001.263-.371c.241-.464.08-1.039-.372-1.287z" fill="#FF9985"/><path d="M699.139 26.72c.47-.557 1.114-.94 1.535-1.535.947-1.33.495-3.112.619-4.715.124-1.61 1.864-3.503 2.935-2.475-.57-2.34-1.034-5.161.563-7.092 2.996-3.639 9.143.26 12.473-3.032.997-.984 1.517-2.457 2.638-3.28 1.541-1.126 3.621-.513 4.871.749.849.854 1.43 1.943 2 3.045.13.074.254.154.402.204 1.195.445 1.827.204 3.195-.124 2.587-.619 4.989 1.454 6.431 4.208.607 1.157 2.551-.495 3.25.594 1.591 2.488 4.891 3.645 5.547 6.634.353 1.62-.18 3.465.371 5.012.588 1.634 2.303 2.63 2.532 4.393.353 2.804-2.117 5.39-2.234 8.144-.056 1.293-1.208 2.512-1.239 2.995-.074 1.145-.513 2.16-1.033 2.977-.397 3.063-1.096 6.466-2.21 10.303-.774 2.673-1.87 4.92-3.25 6.633-.013.019-2.074 2.302-2.074 2.284.155-1.95.105-3.614-.062-5.025a15.776 15.776 0 001.251-5.495c2.624-.136 4.537-2.76 4.364-5.842-.167-2.982-2.223-5.284-4.643-5.309l-3.368.922c-10.858-1.3-8.183-12.92-18.051-14.27-6.413-.878-10.239.44-12.145 1.473a18.31 18.31 0 00-1.796 8.428c-.093-.105-1.393-1.188-1.306-2.277a2.1 2.1 0 00-.117.111c-1.87-1.448-3.387-6.361-1.449-8.638z" fill="#000543"/><path d="M715.946 27.617c9.867 1.355 7.193 12.97 18.051 14.27l3.367-.922c2.421.024 4.476 2.333 4.643 5.31.174 3.087-1.745 5.705-4.277 5.847a17.936 17.936 0 01-1.337 5.489c-2.73 6.497-9.577 11.12-16.77 11.534-9.577.545-16.244-6.553-16.801-16.528l-.811-14.598c-.012-.173.006-.334 0-.507a18.142 18.142 0 011.795-8.428c1.895-1.028 5.726-2.346 12.14-1.467z" fill="#FF9985"/><path d="M720.198 87.332l-1.337-39.48c-.061-1.776 1.288-3.273 2.99-3.335l12.412-.44c1.709-.061 3.151 1.343 3.213 3.12l1.337 39.454c-13.953 10.644-18.553 2.457-18.615.681z" fill="#FF9985"/><path d="M717.345 35.76l3.949-.204a1.058 1.058 0 011.102 1.01 1.058 1.058 0 01-.996 1.113l-3.95.204a1.057 1.057 0 01-1.102-1.009 1.059 1.059 0 01.997-1.113zm-15.575.582l3.949-.204a1.057 1.057 0 011.102 1.003 1.058 1.058 0 01-.997 1.114l-3.949.204a1.056 1.056 0 01-1.102-1.003 1.067 1.067 0 01.997-1.114zm2.878 5.514c.056 1.04.638 1.856 1.306 1.82.669-.038 1.17-.904 1.115-1.944-.056-1.04-.638-1.856-1.306-1.82-.669.032-1.17.904-1.115 1.944zm14.82-.483c.056 1.04.638 1.857 1.306 1.82.669-.038 1.17-.904 1.114-1.944-.055-1.04-.637-1.856-1.306-1.819-.668.031-1.17.904-1.114 1.943z" fill="#000543"/><path d="M709.855 47.617l.13-.365c.154.798.724 1.491 1.578 1.69l2.08.47c.718.16 1.343-.198 1.696-.743l.056.198c.316 1.2-.737 2.314-1.938 2.042l-2.08-.47c-1.25-.285-1.962-1.61-1.522-2.822z" fill="#FA694F"/><path d="M719.666 54.374l-5.974 1.925c.007 0 3.95 2.277 5.974-1.925z" fill="#fff"/><path d="M738.807 79.82s-6.444 10.786-13.056 12.11l3.448 11.039s14.065-5.773 13.112-21.293l-3.504-1.856z" fill="#88DCE5"/><path d="M720.075 81.33s-.866 7.976 5.677 10.6l-5.219 9.722s-6.753-7.11-5.806-18.261l5.348-2.061z" fill="#88DCE5"/><path d="M723.616 103.378a2.354 2.354 0 01-.755-.829l-1.802-3.181c-1.25-2.21.044-5.693 2.049-5.526l4.086.34c2.006.167 2.717 3.825 1.133 5.792l-2.285 2.841a2.48 2.48 0 01-.6.532l2.284 68.341-9.174 9.852-6.308-10.718 11.372-67.444z" fill="#000543"/><path d="M659.391 131.948c-1.201 2.636-2.408 5.279-3.207 8.063-.662 2.315-1.034 4.697-1.405 7.073-.124.78-.434 1.751-1.214 1.807-.563.043-1.009-.452-1.362-.903a95618.903 95618.903 0 00-20.056-25.65c-1.288-1.652-3.708-3.397-5.138-1.869-1.133 1.207-.236 3.162.693 4.53a474.723 474.723 0 0023.783 32.011c1.108 1.368 2.551 2.871 4.284 2.636 1.176-.161 2.086-1.089 2.804-2.042 2.384-3.156 3.64-7.011 4.854-10.792 2.563-7.989 5.094-15.99 7.632-23.991 1.777-5.613 4.724-13.063 3.213-18.967-3.832.607-5.584 7.723-7.001 10.836-2.631 5.755-5.256 11.509-7.88 17.258zM624.21 152.22c1.195 1.473 2.551 2.81 3.702 4.32 2.39 3.137 3.807 6.906 5.887 10.26 1.084 1.738 2.334 3.36 3.591 4.975 2.055 2.654 4.11 5.303 6.165 7.958 4.074 5.26 8.11 11.268 13.916 14.455-9.44-22.24-22.149-43.583-37.897-61.813-.768-.885-1.727-1.844-2.879-1.726-1.547.154-3.584 2.5-3.337 3.948.267 1.565 2.898 4.152 3.721 5.594 2.297 4.059 4.178 8.391 7.131 12.029z" fill="#fff"/><path d="M534.826 114.067a2155.12 2155.12 0 00-1.096 4.913c-3.968 17.841-6.754 33.608-11.081 47.525-.272.879-1.479.922-1.82.068-1.541-3.874-3.293-9.53-3.763-10.315l-16.659 11.194c12.102 20.47 21.233 31.503 27.405 27.141.873-1.052 1.647-2.513 2.334-4.493 9.038-25.996 9.669-48.886 11.576-69.548.173-1.887.31-3.824.477-5.6-2.706.712-4.315.464-7.373-.885z" fill="#FF9985"/><path d="M522.854 152.142c-4.476-10.655-13.149-32.27-13.149-32.27l-16.194 5.111c-7.484 2.364-11.322 10.854-8.245 18.242l9.415 22.618c1.325 3.174 4.983 4.548 7.986 3.001l17.438-8.991c2.767-1.417 3.974-4.796 2.749-7.711z" fill="#91B4DE"/><path d="M535.99 101.988c.805-.006 1.473.693 1.479 1.554l.056 7.753c.006.86-.65 1.566-1.455 1.572-.804.006-1.473-.693-1.479-1.553l-.056-7.754c-.006-.854.644-1.565 1.455-1.572z" fill="#FF9985"/><path d="M548.655 114.569c.477-1.182.855-2.426.663-3.447-.149-.792-.613-1.374-1.102-1.9a17.692 17.692 0 00-4.364-3.428c-1.505-.842-3.517-1.423-5.516-.13-1.931 1.256-3.132 3.385-3.603 5.458-.897 3.929-1.182 5.34-.031 8.447 1.436 3.886 4.352 5.259 8.45 1.299 2.105-2.042 4.457-3.731 5.503-6.299z" fill="#FF9985"/><path d="M540.007 107.619l8.091-7.599a1.382 1.382 0 00.068-1.943 1.35 1.35 0 00-1.925-.068l-8.091 7.599a1.382 1.382 0 00-.068 1.943 1.36 1.36 0 001.925.068zm3.312 1.974l8.091-7.598a1.383 1.383 0 00.068-1.944 1.35 1.35 0 00-1.925-.068l-8.091 7.599a1.382 1.382 0 00-.068 1.943 1.36 1.36 0 001.925.068zm1.665 4.084l8.091-7.599a1.382 1.382 0 00.068-1.943 1.357 1.357 0 00-1.925-.068l-8.091 7.599a1.382 1.382 0 00-.068 1.943 1.36 1.36 0 001.925.068zm.136 4.252l8.091-7.599a1.382 1.382 0 00.068-1.943 1.35 1.35 0 00-1.925-.068l-8.091 7.599a1.382 1.382 0 00-.068 1.943c.514.55 1.374.581 1.925.068zm-71.641 310.147c4.432-25.081 10.499-49.672 16.757-74.462.347-1.38 1.709-5.241 2.031-6.547l26.495 2.797c-5.423 18.701-30.271 76.46-37.96 109.647-.873 3.775-8.951 3.855-11.031-1.813-1.189-3.23.817-12.395 1.448-16.912.601-4.301 1.511-8.49 2.26-12.71zm-36.87-78.948l26.687.241c-9.713 73.676-19.896 107.729-20.831 109.201-4.866 7.637-10.196 8.546-12.146.848-.947-3.744.644-14.356 1.369-21.918 3.058-31.708 4.803-59.672 4.921-88.372z" fill="#FF9985"/><path d="M469.604 244.327c11.013-.316 23.684-3.132 37.966-10.031 2.135-1.034 3.553-3.181 3.522-5.576 6.271 22.321 13.86 59.183 14.195 82.073.142 9.728-1.282 18.991-3.919 29.542a245.23 245.23 0 01-1.826 6.825c-.248.885-.514 1.795-.774 2.704 0 0-31.843-2.927-42.045-.377-18.93 4.74-40.108-.359-40.108-.359.18-42.456-4.376-85.872-9.279-115.624-.062-.39 1.486-.817 1.442-1.195h.316c.062.211.118.39.173.532 5.949 5.984 13.526 12.259 40.337 11.486z" fill="#fff"/><path d="M499.441 33.962c-2.259-2.964-7.249-2.048-11.155-2.32-2.135-.155-3.243-.272-3.931-.433a66.147 66.147 0 01-2.754-1.046c-4.111-1.807-4.488-1.405-7.664-.78-.867.174-1.48-.31-2.513-.025-10.32 2.84-26.904 11.882-13.953 40.36-.161.97-.13 3.044-.774 3.675-1.641-.025-2.52-.353-4.16-.613-5.188-.823-10.58-.749-15.501.984-4.921 1.733-9.329 5.235-11.514 10.031-1.548 3.397-2.012 7.426-4.482 10.198-3.467 3.886-9.378 3.83-14.417 5.093-5.962 1.491-11.304 5.247-14.752 10.377-6.283 9.35-5.689 22.413-.341 32.531 5.355 10.118 14.802 17.525 25.016 22.45 4.81 2.321 11.056 2.34 16.318 1.826 6.933-.675 11.706-3.472 17.005-7.989 5.701-4.858 11.532-10.056 14.318-17.085 3.43-8.657 1.628-18.564-.99-27.611-1.059-3.658-2.254-7.327-2.408-11.12-.155-3.794.885-7.81 3.652-10.31 2.606-2.351 6.518-3.31 10.134-4.64a4.567 4.567 0 001.498-.168c7.614-2.314 13.198-7.754 15.655-14.548.793-2.185 1.901-4.245 3.077-6.244 1.3-2.215 3.986-6.999 4.024-11.126.024-2.742 2.556-6.888 3.064-9.598.687-3.657-.192-8.91-2.452-11.869z" fill="#000543"/><path d="M515.085 235.644s.253-5.55-1.436-13.712c-.205-1.572-3.325-23.026-4.872-30.625-4.928-24.158-5.076-28.88-1.672-63.799a64.529 64.529 0 00-3.664-3.175c4.153-2.141 6.605-4.152 6.605-4.152-17.928-28.292-39.873-26.021-52.922-21.052-3.801 1.275-7.255 3.168-10.307 5.291-.669.452-1.028.724-1.028.724-5.293 1.423-16.893 11.2-18.268 13.867a23.994 23.994 0 00-.897 1.968c-1.653 4.097-1.238 8.626.47 12.704.564 1.343.768 2.847.626 4.313-.564 5.83 3.138 11.343 8.815 12.5l.136.025c3.002 9.066 6.766 17.859 7.794 27.444.396 3.701.247 7.308-.223 10.867-.384 1.831-.83 3.651-1.418 5.433-4.135 12.5-10.883 21.677-15.711 36.089-1.944 5.792-1.052 12.258.489 18.168.656 2.549-2.879 5.167 1.739 8.323 6.253 4.27 19.618-4.245 38.319-3.422 11.279.501 24.663 5.909 39.916.903 4.246-1.392 7.205-5.29 7.323-9.795.087-3.305.161-6.733.161-8.887h.025z" fill="#91B4DE"/><path d="M469.338 119.575a444.196 444.196 0 00-9.453-11.498 5.573 5.573 0 01.873-8.044c3.522-2.68 7.67-4.4 11.966-3.837 4.773.619 12.758 4.387 10.27 9.585-3.021 6.306-1.486 3.342-6.996 13.255-1.392 2.519-4.865 2.797-6.66.539z" fill="#FF9985"/><path d="M469.307 27.972c13.953-.699 27.219 9.759 29.633 23.36 2.414 13.602-6.939 25.198-20.893 25.898-13.953.699-27.219-9.76-29.633-23.36-2.414-13.602 6.939-25.198 20.893-25.898z" fill="#000543"/><path d="M488.107 53.158l-19.369-.303c-.867-.013-1.567-.743-1.554-1.622l.161-10.427c.024-1.732 1.454-3.13 3.169-3.1l17.829.285c4.129.068 7.453 3.533 7.391 7.704-.068 4.17-3.498 7.53-7.627 7.463z" fill="#FFA27F"/><path d="M459.545 73.523c.941 2.871 2.216 5.266 3.782 7.073 4.457-4.499 4.197-9.858 4.197-9.858-1.213-.934-2.037-3.088-1.987-5.581.062-3.317 1.634-5.966 3.516-5.922.142.006.266.105.396.154L456.976 47.7c-1.579 5.823-1.288 14.078 2.569 25.823z" fill="#000543"/><path d="M492.738 39.321c4.029 3.348 6.623 8.397 6.506 14.035l-.291 14.319c-.198 9.783-8.308 17.617-18.014 17.42-9.713-.199-17.494-8.367-17.296-18.15l.278-13.843 28.817-13.781z" fill="#FF9985"/><path d="M465.37 109.284l10.245.21c1.411.031 2.594-1.454 2.631-3.292l.699-34.536c.037-1.838-1.083-3.372-2.495-3.397l-10.245-.21c-1.411-.031-2.593 1.454-2.631 3.292l-.699 34.535c-.037 1.838 1.089 3.367 2.495 3.398z" fill="#FF9985"/><path d="M482.622 51.505l-4.296-.068a1.146 1.146 0 00-1.157 1.133 1.146 1.146 0 001.12 1.17l4.296.067a1.146 1.146 0 001.158-1.132 1.143 1.143 0 00-1.121-1.17zm15.705.248l-3.336-.056c-.489-.006-.892.508-.904 1.139-.012.631.378 1.157.867 1.17l3.336.055c.489.006.892-.507.904-1.138.012-.638-.378-1.164-.867-1.17z" fill="#000543"/><path d="M492.261 65.49l-.136-.39c-.118.873-.632 1.653-1.418 1.9l-1.925.6c-.663.205-1.257-.154-1.604-.736l-.043.217c-.26 1.318.762 2.481 1.87 2.135l1.925-.6c1.158-.36 1.783-1.826 1.331-3.125z" fill="#FA694F"/><path d="M481.855 58.87c-.019 1.101-.607 1.986-1.313 1.974-.705-.013-1.269-.916-1.25-2.018.019-1.101.607-1.986 1.312-1.974.706.013 1.269.916 1.251 2.018z" fill="#000543"/><path d="M480.604 56.852l2.179.037-1.362 1.337-.817-1.374zm16.671 2.258c-.019 1.102-.607 1.987-1.312 1.975-.706-.013-1.269-.916-1.251-2.018.019-1.101.607-1.986 1.313-1.974.705.019 1.269.916 1.25 2.018z" fill="#000543"/><path d="M496.024 57.1l2.186.03-1.368 1.343-.818-1.373z" fill="#000543"/><path d="M464.119 59.47c-2.754-.056-5.045 2.617-5.113 5.977-.068 3.36 2.111 6.126 4.872 6.182 2.755.056 5.045-2.617 5.119-5.978.056-3.353-2.123-6.12-4.878-6.181z" fill="#FF9985"/><path d="M460.083 46.382c2.062-4.115 2.724-9.338 6.432-11.98 2.297-1.634 5.274-1.863 8.066-1.659 3.355.242 6.655 1.009 9.936 1.776l7.162 1.671c.272.062.563.136.774.322.241.204.353.52.458.823.408 1.17 2.012 4.004 1.677 5.21-.371 1.35-2.067 1.368-3.194 1.423-11.57.582-18.422 7.24-21.016 11.102-2.142 3.18-3.324 6.962-5.541 10.086a17.752 17.752 0 01-5.416 4.994c-.087.05-.186.093-.279.143l-5.936-14.809c2.42-2.939 5.175-5.693 6.877-9.102z" fill="#000543"/><path d="M370.861 213.473c29.862-16.912 38.919-19.573 52.222-36.312.687-2.618 1.263-5.254 1.814-8.868 5.323 2.785 9.954 5.013 14.349 6.913-1.919 7.518-1.764 6.893-2.111 8.267-.768 1.844-2.464 6.089-3.306 6.819-1.838 2.741-27.089 17.908-54.562 29.059l-8.406-5.878z" fill="#FF9985"/><path d="M424.272 127.737c.049-3.113.724-5.631 1.993-7.488 1.578-2.302 3.98-3.533 6.946-3.564 7.094-.068 16.392 7.005 21.288 13.88l.855 1.2-.366 1.436c-7.131 27.883-9.743 38.106-10.87 42.518-.551 2.154-2.866 3.305-4.89 2.432-4.656-1.999-8.481-3.768-16.027-7.716a4.96 4.96 0 01-2.613-5.038c1.765-13.434 3.572-31.039 3.684-37.66z" fill="#91B4DE"/><path d="M379.651 220.477c-1.238 1.51-3.021 2.426-4.797 3.224-2.241 1.009-5.751 2.519-7.051 2.525-4.204.031-6.308-3.935-6.432-4.096-1.343-1.659-1.17-4.159-.074-5.873 1.095-1.714 2.915-2.772 4.754-3.595 3.85-1.733 8.604-2.605 12.325-.21.922.594 1.764 1.398 2.228 2.4.867 1.875.285 4.116-.953 5.625z" fill="#FF9985"/><path d="M332.115 379.864c1.244 2.129 3.151 4.586 4.216 6.832 2.042 4.313 3.008 9.177 3.132 14.022.056 2.191-.056 4.4-.526 6.528-1.09 4.976-4.488 10.582-3.325 15.539 1.839-5.891 4.074-12.574 4.922-18.725.848-6.151.637-12.606-1.529-18.361-3.213-8.508-10.462-14.944-12.455-23.886-.18-.816-1.288-7.735-2.724-7.097-.941.421-.415 4.913-.192 5.6 2.266 7.073 4.915 13.459 8.481 19.548zm16.602-21.405c1.263 2.346 2.774 4.567 3.622 7.123 1.04 3.162.997 6.658 2.055 9.814.446 1.325 1.083 2.568 1.529 3.893.576 1.708.823 3.521 1.065 5.321a2261 2261 0 01.848 6.294c.272 2.017.545 4.04.52 6.076-.043 3.28-.86 6.485-1.789 9.604a124.808 124.808 0 01-3.832 10.959c1.579-10.216.805-20.754-1.343-30.847-2.155-10.093-5.658-19.79-9.558-29.239-.471-1.139-.954-2.296-1.065-3.533-.111-1.238.204-2.599 1.096-3.379 1.238-1.089 3.931-1.058 4.661.637.409.953.26 2.407.557 3.453.39 1.343.984 2.612 1.634 3.824z" fill="#000543"/><path d="M338.912 412.915l10.945 1.658c-.824 2.729-9.558 31.083-13.854 42.847l-7.317-.192c2.34-10.365 9.904-42.63 10.226-44.313z" fill="#FF9985"/><path d="M328.679 457.228l7.317.192c-1.021 2.79-2.216 4.653-2.426 5.012-3.015 5.018-6.556 4.059-5.572-2.085.05-.267.291-1.387.681-3.119z" fill="#FBE9DC"/><path d="M327.893 460.903l4.822.539 6.358 2.623c2.526.848 1.647 3.491-1.182 3.546l-10.772.211c-.514.012-.91-.304-.829-.656l1.473-6.058a.692.692 0 01.13-.205z" fill="#6D72A0"/><path d="M344.223 350.229c2.198 3.936 4.241 10.718 7.899 19.697 9.212 22.581 6.29 31.658.712 48.273-2.544 7.575-2.817 8.026-5.02 8.317-7.187.953-8.425-2.258-11.267-2.852-1.708-.359-1.362-2.148.619-7.835 1.028-2.951 2.018-6.386 2.569-8.446 3.572-13.329-7.602-31.343-16.881-50.65 0 .006 17.203-2.63 21.369-6.504zm-40.454 28.063c.718 2.383 2.018 5.254 2.532 7.698.978 4.703.749 9.66-.316 14.394-.483 2.135-1.133 4.245-2.117 6.194-2.303 4.542-7.057 9.103-7.107 14.202 3.275-5.235 7.132-11.139 9.478-16.881 2.346-5.743 3.72-12.048 2.965-18.181-1.114-9.072-6.76-17.166-6.562-26.343.019-.841.613-7.828-.978-7.574-1.04.161-1.609 4.654-1.56 5.378.526 7.432 1.603 14.294 3.665 21.113z" fill="#000543"/><path d="M302.457 412.067l10.492 4.412c-1.485 2.432-17.116 27.667-24.272 37.964l-7.237-2.06c4.86-9.45 20.286-38.775 21.017-40.316z" fill="#FF9985"/><path d="M281.434 452.376l7.237 2.061c-1.703 2.444-3.343 3.942-3.64 4.233-4.228 4.09-7.522 2.252-5.033-3.447.105-.248.625-1.275 1.436-2.847z" fill="#FBE9DC"/><path d="M279.756 455.73l4.668 1.758 5.689 4.177c2.309 1.472.786 3.805-2.043 3.131l-10.771-2.562c-.514-.124-.836-.532-.663-.848l2.953-5.495c.031-.068.093-.111.167-.161z" fill="#6D72A0"/><path d="M323.071 352.686c1.225 4.375 3.77 6.683 5.218 16.318 3.653 24.245-3.652 37.085-13.266 51.751-4.383 6.689-4.766 7.054-7.032 6.77-7.391-.922-7.837-4.351-10.518-5.656-1.609-.786-.829-2.432 2.532-7.432 1.746-2.599 3.572-5.668 4.624-7.525 6.395-11.256.88-29.826-3.559-49.486-.433-1.924 1.083-3.731 3.033-3.595 5.528.377 15.383.742 18.968-1.145z" fill="#000543"/><path d="M233.26 262.816c-.117-.198-.26-.408-.489-.457-.396-.081-.767.408-.78.829-.012.421.192.792.316 1.182.124.39.142.891-.173 1.2a6.4 6.4 0 01-2.805-2.648c-.216-.396-.402-.823-.718-1.139-.495-.501-1.238-.65-1.943-.78-.582-.111-1.239-.204-1.777.136-.341.211-.57.564-.78.916-.768 1.281-1.356 2.797-1.009 4.159.241.947.897 1.677 1.585 2.32a19.638 19.638 0 005.336 3.571c.86.39 1.875.718 2.798.272 1.424-.693 2.649-2.809 2.327-4.307-.383-1.813-.965-3.682-1.888-5.254zm139.507-32.06l.316-.489c.043-.068.087-.136.13-.21.446-.873.532-1.999.526-3.422a44.135 44.135 0 00-.309-4.827c-.149-.167-.304-.328-.446-.483a173.66 173.66 0 01-.489-.526l-.235-.198c-.068-.049-.13-.105-.198-.154-.632-.427-1.443-.786-2.285-1.015-.792-.229-1.665.253-2.055.829-.477.699-.681 1.714-.681 3.286.006 1.776.316 3.391.892 4.666l.216.482-.037.532c-1.089 14.555-5.98 28.039-14.151 38.998-2.062 2.982-4.482 5.897-7.193 8.669l12.331 5.273c8.239-13.757 13.13-31.356 13.65-50.817l.018-.594z" fill="#FF9985"/><path d="M267.45 282.556c-12.325-1.751-24.267-7.035-34.654-15.315l-3.12 3.75c12.529 11.677 25.87 19.666 39.674 23.768l2.501-11.596a55.147 55.147 0 01-4.401-.607z" fill="#FF9985"/><path d="M268.632 296.065l2.811-13.032c.086.006.167.019.254.025 2.265.148 4.531.173 6.759.099.161-.006.329-.019.49-.025 2.89-.13 10.567-2.562 11.012-2.5 3.238-.705 12.963-3.49 13.755-3.806 2.489-.73 5.083-1.349 7.763-1.745 0 0 6.748-.971 12.61.638-.05-.044-.099-.087-.142-.13.154.074.427.179.749.303.074.025.148.043.222.068.025.006.069.043.1.056 1.535.557 4.265 1.448 6.927 2.339 4.215 1.404 8.932.829 13.098-2.513.644-.513 1.517-.625 2.291-.352l9.044 3.18c3.665 1.287 4.977 5.854 2.575 8.936a64.006 64.006 0 01-2.073 2.537c-1.449 1.683-4.068 4.134-6.568 6.38-3.529 3.168-5.262 7.902-4.656 12.63a69.44 69.44 0 01.452 4.975c.031.545-.854 15.73.006 24.158 1.511 16.164 2.619 15.341.787 20.421-.298.817-.632 1.51-.991 1.844-1.058.978-2.649.86-4.067 1.102-38.244 6.528-42.961 1.008-42.961 1.008-.093-.309-.174-.619-.26-.928-.019-.025-.019-.074-.031-.105-.099-.365-.205-.73-.31-1.102.025-.049.05-.099.068-.148-1.151-8.465 4.928-28.181 2.984-35.297-1.882-6.887-3.355-11.436-5.095-19.833-.569-2.735-13.922-3.663-16.664-4.059-3.82-.551-7.429-1.096-8.568-1.355-1.665-.39-2.736-2.08-2.371-3.769z" fill="#6D72A0"/><path d="M316.627 286.554c5.569 0 10.084-2.045 10.084-4.567 0-2.522-4.515-4.567-10.084-4.567-5.57 0-10.085 2.045-10.085 4.567 0 2.522 4.515 4.567 10.085 4.567z" fill="#FF9985"/><path d="M330.512 232.569c-1.152-.934-2.532-1.658-3.362-2.877-.712-1.046-.947-2.346-1.572-3.441-.625-1.095-1.95-2.023-3.145-1.535-.569.229-.99.737-1.554.972-1.597.65-3.008-1.058-4.42-1.993-1.578-1.045-3.769-1.144-5.478-.241-1.226.65-2.396 1.801-3.745 1.553-1.065-.198-1.894-1.256-2.984-1.151-1.597.155-1.913 2.469-3.287 3.298-.972.582-2.192.285-3.318.31-2.099.049-4.123 1.429-4.928 3.354-.427 1.027-.544 2.215-1.281 3.057-.953 1.089-2.705 1.336-3.473 2.555-1.597 2.538 1.467 4.252 2.6 6.702 1.424 3.082-.359 7.562 2.365 9.623.637.482 1.498.785 1.82 1.509.328.743-.044 1.634.198 2.408.458 1.448 2.606 1.596 3.726 2.531.174.241.36.464.533.699.025.056.062.093.08.148 5.448 7.135 13.582 10.625 20.373 7.896 5.627-2.252 8.982-8.236 9.403-15.321.074-.044.143-.056.211-.099 1.696-1.034 2.587-2.698 3.076-4.573.904-3.447-1.814-5.502-1.473-8.478.13-1.139 1.17-2.005 1.448-3.119.347-1.442-.662-2.853-1.813-3.787z" fill="#000543"/><path d="M323.009 241.598l-13.39 5.674a1.148 1.148 0 01-1.504-.619l-2.99-7.209c-.483-1.163.062-2.512 1.213-3.001l12.356-5.241c2.767-1.176 5.986.154 7.144 2.951l.087.217c1.17 2.803-.149 6.052-2.916 7.228z" fill="#FF9985"/><path d="M307.502 264.926c1.486 1.671 3.058 2.915 4.655 3.67 1.702-4.4-.049-7.964-.049-7.964-1.102-.266-2.297-1.485-2.997-3.199-.934-2.271-.643-4.549.644-5.087.099-.043.211-.006.316-.018l-11.923-4.19c.644 4.437 3.275 9.963 9.354 16.788z" fill="#000543"/><path d="M306.474 253.992c-1.894.792-2.661 3.299-1.714 5.607.941 2.302 3.243 3.527 5.132 2.735 1.894-.792 2.661-3.298 1.714-5.607-.941-2.301-3.237-3.527-5.132-2.735z" fill="#FF9985"/><path d="M321.635 230.979a14.621 14.621 0 019.322 8.477l3.108 11.127c3.046 7.444-2.489 17.24-9.905 16.33-10.362-1.269-11.681 1.751-14.727-5.693l-4.314-10.532 16.516-19.709z" fill="#FF9985"/><path d="M320.508 253.145l-7.899.662c-1.083.092-1.87 1.423-1.746 2.951l1.771 26.058c3.999-1.027 8.245-3.96 12.077-2.648l-2.006-24.406c-.117-1.528-1.108-2.71-2.197-2.617z" fill="#FF9985"/><path d="M317.772 244.494l-2.575 1.095a.753.753 0 00-.397.984.743.743 0 00.972.402l2.575-1.095a.75.75 0 00-.575-1.386zm11.904-5.186l-2.575 1.095a.753.753 0 00-.396.984.744.744 0 00.972.402l2.575-1.095a.75.75 0 00-.576-1.386zm.266 5.322c.285.68.155 1.38-.278 1.565-.44.186-1.022-.216-1.3-.891-.285-.681-.155-1.38.278-1.565.434-.186 1.015.21 1.3.891zm-10.338 4.765c.285.68.155 1.379-.278 1.565-.44.186-1.022-.216-1.3-.891-.279-.681-.155-1.38.278-1.566.434-.185 1.015.211 1.3.892z" fill="#000543"/><path d="M328.37 249.914l-.192-.192c.142.557-.006 1.176-.495 1.566l-1.183.947c-.408.328-.916.291-1.306.049l.025.143a1.154 1.154 0 001.857.699l1.182-.947a1.513 1.513 0 00.112-2.265z" fill="#FA694F"/><path d="M321.096 230.942s-7.311-1.034-14.944 4.925l4.439 1.436 10.505-6.361z" fill="#FF9985"/><path d="M328.011 233.819s-4.08-1.467-10.784 3.007c-6.698 4.468-.737 11.968-8.171 16.752l-4.253.804-4.736-15.284s10.053-17.296 25.82-9.196l2.124 3.917z" fill="#000543"/><path d="M325.745 257.049c.409.761 1.22 1.56 3.04 1.126 0 0 2.63-.73 1.634-2.524l-4.674 1.398z" fill="#fff"/><path d="M318.304 248.504l1.356-.755-.52 1.485-.836-.73zm10.251-4.728l1.356-.749-.514 1.485-.842-.736z" fill="#000543"/><path d="M457.811 461.473l-6.048-2.222c-6.878 5.062-17.507 3.187-21.666-3.793-.007.006-.106 11.739-.106 11.739-.204.748.632 1.448 1.746 1.46l23.301.297c6.128.087 8.19-5.489 2.773-7.481z" fill="#4DB4E8"/><path d="M451.763 459.257l-15.625-5.736c-.835-.309-4.525-.279-6.066 1.906 4.184 7.017 14.813 8.892 21.691 3.83z" fill="#FF9985"/><path d="M497.145 462.079l-6.048-2.221c-6.878 5.061-17.507 3.186-21.666-3.794-.007.006-.106 11.739-.106 11.739-.204.749.632 1.448 1.746 1.46l23.301.297c6.128.087 8.19-5.495 2.773-7.481z" fill="#4DB4E8"/><path d="M491.103 459.864l-15.625-5.737c-.835-.309-4.525-.278-6.066 1.906 4.185 7.018 14.807 8.893 21.691 3.831z" fill="#FF9985"/><path d="M483.613 72.409c.136 1.219.247 2.438 2.872 2.834 0 0 4.377.706 4.005-2.178l-6.877-.656zm-373.62-46.043c.8-6.1-7.8-11.1-14.3-11.7-3.1-.2-6.3.2-9.2-.8-6.3-2.2-8.9-10.4-15.1-13-4.6-2-10-.2-14.4 2-4.5 2.3-8.9 5.1-13.9 5.4-4.4.3-9.1-1.3-12.9.8-2.8 1.6-4.3 4.9-6.9 6.8-2.6 1.9-5.9 2.3-9.1 2.5-3.2.2-6.5.2-9.4 1.5-2.9 1.3-5.3 4.4-4.7 7.5l109.9-1z" fill="#fff"/></svg>