<svg width="179" height="46" fill="none" xmlns="http://www.w3.org/2000/svg"><path d="M63.394 29.926L58.67 14.539h-.11c.184 3.136.258 5.202.258 6.272v9.115h-3.69V10.332h5.646l4.649 14.981h.074l4.907-14.981h5.646v19.594h-3.874v-9.262c0-.443 0-.96.037-1.513 0-.59.073-2.103.184-4.576h-.11l-5.056 15.35h-3.837zm29.593-.001l-1.44-4.649H84.39l-1.439 4.65h-4.465l6.974-19.668h5.093l6.937 19.668h-4.502zm-2.399-8.154c-1.328-4.244-2.066-6.605-2.214-7.159-.147-.553-.295-.996-.369-1.328-.295 1.144-1.143 3.985-2.546 8.487h5.13zm9.372 8.155V10.332h4.171v16.162h7.933v3.432H99.961zm27.49-.001l-1.439-4.649h-7.159l-1.439 4.65h-4.464l6.974-19.668h5.092l6.937 19.668h-4.502zm-2.398-8.154c-1.329-4.244-2.067-6.605-2.214-7.159-.148-.553-.296-.996-.369-1.328-.296 1.144-1.144 3.985-2.546 8.487h5.129zm25.425 8.155h-4.132v-8.45h-7.749v8.45h-4.17V10.332h4.17v7.675h7.749v-7.675h4.132v19.594zm12.25 0h-8.93v-2.362l2.399-1.107V13.8l-2.399-1.107v-2.361h8.93v2.361l-2.398 1.107v12.694l2.398 1.107v2.325zm10.923 0h-4.133V13.8h-5.314v-3.47H179v3.47h-5.314v16.125h-.036zM41.142 45.054h-7.38a1.402 1.402 0 110-2.804h7.38c.628 0 1.181-.517 1.181-1.18v-5.647a8.78 8.78 0 01-1.328.111c-4.539 0-8.229-3.69-8.229-8.229 0-4.538 3.69-8.228 8.229-8.228.406 0 .848.037 1.328.11v-5.719c0-.627-.517-1.18-1.18-1.18h-27.64c-.627 0-1.18.516-1.18 1.18v1.402a1.402 1.402 0 11-2.805 0v-1.402a3.953 3.953 0 013.949-3.948h27.637a3.953 3.953 0 013.949 3.948v7.38c0 .443-.185.849-.517 1.107s-.775.37-1.18.258c-.886-.221-1.735-.332-2.4-.332a5.433 5.433 0 00-5.423 5.424 5.433 5.433 0 005.424 5.425c.664 0 1.513-.111 2.398-.332.406-.111.849 0 1.181.258.332.258.517.664.517 1.107v7.38c.037 2.14-1.735 3.911-3.912 3.911zm-20.258 0h-7.38a3.953 3.953 0 01-3.948-3.948v-8.782a1.402 1.402 0 112.805 0v8.782c0 .627.516 1.18 1.18 1.18h5.72a8.78 8.78 0 01-.11-1.328c0-4.538 3.69-8.228 8.228-8.228a1.402 1.402 0 110 2.804 5.433 5.433 0 00-5.425 5.424c0 .665.111 1.513.333 2.399.11.406 0 .849-.259 1.18a1.513 1.513 0 01-1.144.517z" fill="#008C9A"/><path d="M27.342 15.166a6.863 6.863 0 100-13.727 6.863 6.863 0 000 13.727z" fill="#37BBA5"/><path d="M27.343 16.531c-4.54 0-8.266-3.69-8.266-8.265A8.252 8.252 0 0127.343 0a8.252 8.252 0 018.265 8.266c0 4.575-3.727 8.265-8.265 8.265zm0-13.727c-3.026 0-5.498 2.473-5.498 5.498 0 3.026 2.472 5.498 5.498 5.498 3.025 0 5.498-2.472 5.498-5.498 0-3.025-2.473-5.498-5.498-5.498z" fill="#008C9A"/><path d="M8.265 33.984a6.863 6.863 0 100-13.726 6.863 6.863 0 000 13.726z" fill="#37BBA5"/><path d="M8.266 35.387C3.726 35.387 0 31.697 0 27.12a8.252 8.252 0 018.266-8.265 8.252 8.252 0 018.265 8.265 8.252 8.252 0 01-8.265 8.266zm0-13.727c-3.026 0-5.499 2.472-5.499 5.498 0 3.026 2.473 5.461 5.499 5.461 3.025 0 5.498-2.472 5.498-5.498 0-3.025-2.473-5.46-5.498-5.46z" fill="#008C9A"/><path d="M58.448 36.457l-2.214 3.505h-1.07v-4.76h.923v3.506l2.25-3.506h.997v4.724h-.886v-3.469zm5.352 1.402h-2.362v2.103h-.922v-4.76h.922v1.919H63.8v-1.919h.922v4.723H63.8V37.86zm3.061-.369v2.472h-.922v-4.76h.922v2.214l1.919-2.214h1.144l-2.03 2.214 2.177 2.51h-1.217L66.86 37.49zm7.011-1.55h-1.55v1.55c0 1.218-.221 2.51-1.328 2.51a1.93 1.93 0 01-.664-.111v-.775c.11.037.295.074.443.074.59 0 .627-1.07.627-1.92v-2.066h3.395v4.724h-.923V35.94zm3.579 1.882h-.627v2.103h-.922v-4.723h.922v1.92h.627c.148-1.219.96-1.993 2.251-1.993 1.513 0 2.288.996 2.288 2.435 0 1.476-.812 2.435-2.288 2.435-1.365.037-2.14-.812-2.25-2.177zm.96-.221c0 .885.406 1.734 1.328 1.734.923 0 1.329-.849 1.329-1.734 0-.886-.406-1.734-1.329-1.734-.922 0-1.328.811-1.328 1.734zm4.428 2.214v-.812a2.78 2.78 0 001.18.295c.48 0 .997-.184.997-.738 0-.627-.554-.738-.997-.738h-.369v-.627h.37c.405 0 .922-.185.922-.701 0-.48-.406-.628-.849-.628a2.64 2.64 0 00-1.07.222v-.738c.295-.11.775-.185 1.181-.185.849 0 1.66.296 1.66 1.255 0 .553-.368.96-.885 1.07v.037c.59.11.96.48.96 1.107 0 1.033-.96 1.439-1.92 1.439-.369-.037-.811-.11-1.18-.258zm7.454-3.358l-2.214 3.505h-1.07v-4.76h.922v3.506l2.25-3.506h.997v4.724h-.922l.037-3.469zm2.064 3.505v-4.76h1.624c.922 0 1.587.332 1.587 1.18 0 .628-.332.96-.886 1.108v.037c.627.11 1.033.48 1.033 1.107 0 1.07-.922 1.328-1.808 1.328h-1.55zm.923-4.059v1.255h.406c.553 0 .922-.148.922-.664 0-.48-.369-.59-.775-.59h-.553zm0 1.956v1.402h.443c.553 0 1.033-.11 1.033-.664 0-.627-.517-.738-1.033-.738h-.443zm6.68.001H97.6v2.102h-.923v-4.76h.923v1.92h2.361v-1.92h.923v4.724h-.923v-2.067zm1.919-.26c0-1.438 1.033-2.435 2.509-2.435 1.55 0 2.546 1.034 2.546 2.436 0 1.439-.996 2.435-2.509 2.435-1.476 0-2.546-.996-2.546-2.435zm.959 0c0 .886.591 1.735 1.55 1.735.996 0 1.55-.849 1.55-1.734 0-.886-.554-1.735-1.55-1.735s-1.55.812-1.55 1.735zm5.092-2.398h3.026v.738h-2.066v1.218h1.845v.738h-1.845v1.328h2.14v.738h-3.063v-4.76h-.037zm6.089 2.398c0-1.438 1.033-2.435 2.509-2.435 1.55 0 2.546 1.034 2.546 2.436 0 1.439-.996 2.435-2.509 2.435s-2.546-.996-2.546-2.435zm.959 0c0 .886.591 1.735 1.55 1.735.996 0 1.55-.849 1.55-1.734 0-.886-.554-1.735-1.55-1.735s-1.55.812-1.55 1.735zm5.056 2.362v-4.76h2.952v.738h-2.029v1.18h.775c.922 0 1.623.407 1.623 1.403 0 1.033-.811 1.402-1.697 1.402l-1.624.037zm.923-2.103v1.365h.516c.443 0 .96-.147.96-.7 0-.591-.443-.702-.886-.702h-.59v.037zm4.352.295v1.808h-.922v-4.76h1.476c1.107 0 1.771.406 1.771 1.476 0 .96-.701 1.476-1.698 1.476h-.627zm-.037-2.214v1.513h.517c.443 0 .885-.184.885-.775 0-.553-.442-.738-.885-.738h-.517zm6.236 2.878h-2.066l-.443 1.107h-.959l1.882-4.723h1.107l1.881 4.723h-1.033l-.369-1.107zm-1.033-2.841l-.812 2.14h1.587l-.775-2.14zm2.99 3.838v-.812a2.78 2.78 0 001.181.295c.479 0 .996-.184.996-.738 0-.627-.553-.738-.996-.738h-.369v-.627h.369c.406 0 .922-.185.922-.701 0-.48-.406-.628-.848-.628-.369 0-.738.074-1.071.222v-.738c.296-.11.775-.185 1.181-.185.849 0 1.661.296 1.661 1.255 0 .553-.369.96-.886 1.07v.037c.591.11.96.48.96 1.107 0 1.033-.96 1.439-1.919 1.439-.406-.037-.849-.11-1.181-.258zm3.984-2.215c0-1.438 1.033-2.435 2.509-2.435 1.55 0 2.546 1.034 2.546 2.436 0 1.439-.996 2.435-2.509 2.435-1.476 0-2.546-.996-2.546-2.435zm.959 0c0 .886.591 1.735 1.55 1.735.996 0 1.55-.849 1.55-1.734 0-.886-.554-1.735-1.55-1.735s-1.55.812-1.55 1.735zm5.056 2.362v-4.76h1.623c.923 0 1.587.332 1.587 1.18 0 .628-.332.96-.886 1.108v.037c.628.11 1.034.48 1.034 1.107 0 1.07-.923 1.328-1.808 1.328h-1.55zm.922-4.059v1.255h.406c.554 0 .923-.148.923-.664 0-.48-.369-.59-.775-.59h-.554zm0 1.956v1.402h.443c.554 0 1.033-.11 1.033-.664 0-.627-.516-.738-1.033-.738h-.443zm6.384.959h-2.067l-.442 1.107h-.96l1.882-4.723h1.107l1.882 4.723h-1.033l-.369-1.107zm-.997-2.841l-.811 2.14h1.586l-.775-2.14zm6.422 1.883h-2.362v2.102h-.922v-4.76h.922v1.92h2.362v-1.92h.923v4.724h-.923v-2.067zm5.387-1.403l-2.214 3.505h-1.07v-4.76h.923v3.506l2.251-3.506h.996v4.724h-.922l.036-3.469zm2.066-1.255h3.025v.738h-2.066v1.218h1.845v.738h-1.845v1.328h2.14v.738h-3.063v-4.76h-.036z" fill="#5B5752"/></svg>