<svg xmlns="http://www.w3.org/2000/svg" width="260" height="159" fill="none"><g fill="#ff6f61"><path d="M209.143 56.152v38.315l-10.446 21.092-37.135-2.46-23.919-1.578V65.686l61.698 1.736 9.802-11.27z"/><path d="M210.522 45.974v13.384l-1.379 2.192-2.45 3.919-2.183 3.462-4.802 7.659h-.119l-64.06-3.294V60.091l.159-.169 15.427-16.697 59.407 2.748z"/></g><g fill="#000"><path opacity=".1" d="M199.708 63.395V76.59l-64.179-3.294V60.091l.159-.169 64.02 3.472z"/><path opacity=".15" d="M210.522 45.974v13.384L199.708 76.59V63.395l10.814-17.421z"/></g><g fill="#fac269"><path d="M206.703 52.135l-.01 13.334-.02 33.999-2.54 5.11.526-49.159-61.322-3.78 2.768-2.996 60.598 3.492z"/><path d="M176.602 52.571l-4.295 9.336-.427 51.877-10.318-.685V61.282l5.506-8.711h9.534zm-14.147.605a13.63 13.63 0 01-7.689.268 3.19 3.19 0 01-1.349-.625 3.55 3.55 0 01-.833-1.657 13.13 13.13 0 01-.734-3.968 4.41 4.41 0 011.646-3.532 4.12 4.12 0 00.626-.466 2.69 2.69 0 00.486-.992c.744-2.242 2.202-4.603 4.543-4.961 2.153-.327 4.108 1.181 5.774 2.589l3.642 3.105a5.76 5.76 0 012.076-2.693 5.753 5.753 0 013.235-1.05 5.75 5.75 0 015.413 3.594 20.38 20.38 0 018.106-5.566 2.48 2.48 0 011.057-.281 2.47 2.47 0 011.076.202 2.46 2.46 0 01.843 1.141c1 2.181 1.54 4.545 1.587 6.945a1.19 1.19 0 011.399.486 3.13 3.13 0 01.466 1.518 21.27 21.27 0 01.149 2.51 3.75 3.75 0 01-.655 2.51c-.744.873-1.984.992-3.174.992a1.28 1.28 0 01.238.48 1.29 1.29 0 01.021.536 1.277 1.277 0 01-.587.869 3.71 3.71 0 01-2.133.407c-2.837 0-5.853-.099-8.214-1.677-.923-.625-1.707-1.448-2.639-2.063-2.292-1.518-5.159-1.587-7.808-1.468-2.391.129-4.296 2.113-6.568 2.847z"/><path d="M161.909 52.571s-23.651 3.304-26.945 17.61l4.96-.734 3.483 6.23s3.671-13.889 14.484-17.233 14.664-3.849 14.664-3.849 7.52 1.836 14.306 23.652l3.849-5.318 6.786 1.468s-4.96-17.054-18.334-21.826h-17.253z"/></g><g fill="#00bfa6"><path d="M143.967 31v61.917l-16.886 34.059-98.645-6.518v-74.05l99.687 2.808L143.967 31z"/><path d="M146.189 14.562V36.18l-6.191 9.871-3.522 5.595-7.768 12.381-.188-.01L25.024 58.7V37.37l.268-.288 24.912-26.965 95.986 4.445z"/></g><g fill="#000"><path opacity=".1" d="M128.708 42.697v21.33L25.024 58.7V37.37l.268-.288 103.416 5.615z"/><path opacity=".15" d="M146.189 14.561v21.618l-17.481 27.848v-21.33l17.481-28.136z"/></g><g fill="#fac269"><path d="M140.008 24.512l-.04 76.471-4.097 8.265.843-79.428-99.071-6.111 4.474-4.841 97.891 5.645z"/><path d="M91.385 25.216l-6.945 15.08-.695 83.823-16.657-1.101V39.294l8.889-14.078h15.407zm-22.858 1.023a22.07 22.07 0 01-12.421.437 4.96 4.96 0 01-2.173-.992 5.64 5.64 0 01-1.349-2.669 21.14 21.14 0 01-1.191-6.389 7.125 7.125 0 01.666-3.161 7.13 7.13 0 011.993-2.543 5.83 5.83 0 00.992-.754 4.31 4.31 0 00.774-1.587C57.038 4.96 59.39 1.14 63.16.565c3.482-.536 6.657 1.895 9.336 4.177l5.883 4.96a9.294 9.294 0 013.355-4.355 9.3 9.3 0 0110.503-.145 9.295 9.295 0 013.474 4.261A32.947 32.947 0 01108.807.475c1.111-.417 2.42-.754 3.442-.129a3.87 3.87 0 011.369 1.835 28.35 28.35 0 012.55 11.161 1.98 1.98 0 011.268.009 1.99 1.99 0 011.004.775c.455.743.715 1.59.754 2.46.159 1.347.238 2.702.238 4.058a6.12 6.12 0 01-1.062 4.058c-1.21 1.399-3.283 1.548-5.129 1.587.893.794.457 2.381-.526 3.046a5.89 5.89 0 01-3.442.665c-4.584 0-9.455-.169-13.264-2.718-1.508-.992-2.768-2.341-4.276-3.334-3.701-2.45-8.344-2.57-12.62-2.361-3.839.208-6.915 3.462-10.586 4.653z"/><path d="M67.684 25.226S29.468 30.554 24.141 53.66l7.996-1.181 5.625 10.07s5.953-22.511 23.404-27.848 23.701-6.22 23.701-6.22 12.143 2.976 23.106 38.216l6.221-8.592 10.913 2.371s-7.996-27.551-29.624-35.249H67.684z"/></g><g fill="#ededf4"><path d="M157.814 124.631c0 2.291-13.096.347-14.515 2.48-1.19 1.776 6.022 10.992 3.969 12.619-1.707 1.35-4.693 2.322-6.945 3.542-1.984 1.062-5.308.129-7.629 1.072-2.094.853-5.239-.903-7.61-.149-2.172.694-5.308-2.431-7.689-1.836s-4.295.993-6.686 1.439-3.403 7.252-5.804 7.609-5.606-7.728-8.016-7.46-3.76 9.564-6.171 9.732-4.812-.992-7.213-.873-4.742-7.431-7.143-7.431-4.961 13.047-7.332 12.967-4.663-4.802-6.994-4.96-4.603-2.52-6.945-2.778-3.968-5.953-6.23-6.3-4.643.179-6.945-.268-6.548 7.431-8.78 6.865-3.244-6.418-5.427-7.113c-2.361-.744-2.837-5.476-4.96-6.33-2.331-.992-7.004 4.167-8.929 3.106-2.252-1.221-3.691-3.324-5.397-4.673-2.073-1.627 2.054-6.945.873-8.731-1.429-2.133-8.79-.228-8.79-2.519a12.51 12.51 0 012.55-6.697c1.191-1.776 6.488 1.121 8.562-.506 1.707-1.339-.188-7.768 2.074-8.989 1.984-1.061 1.637-8.323 3.968-9.266 2.093-.853 5.595.417 7.937-.337 2.183-.695 4.752-1.468 7.133-2.064s4.574-2.322 6.945-2.788 5.893 5.784 8.294 5.427 3.859-7.748 6.27-8.006 5.585 8.8 7.986 8.631 4.742 3.423 7.143 3.344 4.504-6.419 6.945-6.419 4.752.714 7.094.794 5.149-5.526 7.48-5.357 4.345 6.052 6.667 6.3 5.04-1.419 7.332-1.081 3.581 7.004 5.853 7.45 4.733-.148 6.945.407c2.391.605 5.08-.843 7.262-.159 2.361.754 3.413 4.098 5.506 4.961 2.332.992 7.292-4.296 9.247-3.234a50.093 50.093 0 016.548 3.73c2.073 1.627 5.952 2.827 7.163 4.613 1.458 2.113 4.405 6.925 4.405 9.237z"/><path d="M260 124.631c0 2.291-13.096.347-14.514 2.48-1.191 1.776 6.022 10.992 3.968 12.619-1.706 1.35-4.693 2.322-6.945 3.542-1.984 1.062-5.307.129-7.629 1.072-2.093.853-5.238-.903-7.609-.149-2.173.694-5.308-2.431-7.689-1.836s-4.296.993-6.687 1.439-3.403 7.252-5.804 7.609-5.605-7.728-8.016-7.46-3.76 9.564-6.171 9.732-4.811-.992-7.212-.873-4.743-7.431-7.143-7.431-4.961 13.047-7.332 12.967-4.663-4.802-6.994-4.96-4.604-2.52-6.945-2.778-3.969-5.953-6.231-6.3-4.643.179-6.944-.268-6.548 7.431-8.78 6.865-3.244-6.418-5.427-7.113c-2.361-.744-2.838-5.476-4.961-6.33-2.331-.992-7.004 4.167-8.929 3.106-2.252-1.221-3.69-3.324-5.397-4.673-2.073-1.627 2.054-6.945.874-8.731-1.429-2.133-8.79-.228-8.79-2.519a12.507 12.507 0 012.549-6.697c1.191-1.776 6.489 1.121 8.562-.506 1.706-1.339-.188-7.768 2.074-8.989 1.984-1.061 1.636-8.323 3.968-9.266 2.093-.853 5.595.417 7.937-.337 2.182-.695 4.752-1.468 7.133-2.064s4.574-2.322 6.945-2.788 5.893 5.784 8.294 5.427 3.859-7.748 6.27-8.006 5.585 8.8 7.986 8.631 4.742 3.423 7.143 3.344 4.504-6.419 6.945-6.419 4.752.714 7.093.794 5.149-5.526 7.481-5.357 4.345 6.052 6.667 6.3 5.04-1.419 7.331-1.081 3.582 7.004 5.854 7.45 4.732-.148 6.945.407c2.39.605 5.079-.843 7.262-.159 2.361.754 3.413 4.098 5.506 4.961 2.331.992 7.292-4.296 9.246-3.234a50.027 50.027 0 016.548 3.73c2.074 1.627 5.953 2.827 7.163 4.613 1.458 2.113 4.405 6.925 4.405 9.237zm-162.05-2.976c0 1.934-7.689-.228-10.447 1.419-1.746.992-.774 8.482-3.413 9.355-2.083.685-4.792.893-7.342 1.449-2.222.486-4.961-.457-7.461-.09-2.292.338-4.881-1.051-7.371-.823-2.331.208-4.792-1.984-7.272-1.915l-7.084.119c-2.46 0-4.901 3.969-7.252 3.869s-4.455-5.456-6.776-5.665c-2.5-.228-5.466 5.12-7.748 4.792-2.52-.367-4.812-1.557-7.034-2.034-2.55-.555-3.462-5.635-5.546-6.319-2.639-.863-8.145 5.516-9.921 4.474C.526 128.639 0 123.589 0 121.655s2.659-3.403 5.427-5.06c1.736-.992 4.96 1.24 7.58.377 2.083-.694 3.919-1.756 6.479-2.311 2.212-.487 3.611-6.142 6.121-6.509 2.292-.327 5.099 2.689 7.59 2.461 2.331-.209 4.802 2.282 7.272 2.182s4.603-4.246 7.064-4.246 4.851.665 7.213.774 4.484 4.435 6.816 4.653c2.49.218 5.348-4.335 7.629-3.968 2.52.367 4.871.992 7.084 1.488 2.56.555 3.76 4.643 5.853 5.327 2.629.863 6.191-1.924 7.937-.883 2.788 1.608 7.887 3.78 7.887 5.715z"/><path d="M96.69 110.613l.045.498c1.002-.09 2.07.402 3.323 1.003l.085.041c1.165.559 2.489 1.194 3.839 1.14.754-.03 1.444-.367 2.064-.793.602-.414 1.188-.949 1.742-1.454l.047-.044 1.674-1.389c.547-.366 1.044-.566 1.517-.566 1.189 0 2.369.161 3.57.341l.364.055 3.256.378c.443.02.921.243 1.457.643s1.067.929 1.63 1.495l.063.063 1.665 1.543c.592.459 1.253.839 1.977.907h.003c.779.068 1.535-.238 2.222-.648s1.375-.97 2.021-1.495l.009-.007 1.871-1.39c.596-.353 1.075-.496 1.47-.433l.008.001c1.88.274 3.658.692 5.377 1.096l1.672.386c.521.113.998.411 1.465.848s.902.99 1.343 1.579l.195.262 1.15 1.445c.468.511 1.007.97 1.651 1.181.764.25 1.57.228 2.343.097s1.551-.377 2.264-.605l.047-.015 1.912-.522c.579-.095.985-.054 1.27.116l.007.004 2.017 1.092.407.215 2.555 1.421c.802.487 1.489.968 1.971 1.43.499.48.687.853.687 1.123v.003c0 .032 0 .061-.093.117-.125.075-.353.145-.713.19-.715.089-1.715.055-2.863.008l-.168-.007-3.341-.036c-1.121.06-2.221.236-3.021.712-.34.195-.572.521-.738.865-.169.35-.295.769-.396 1.213-.158.688-.271 1.504-.384 2.319l-.096.685c-.153 1.055-.328 2.057-.615 2.843-.293.801-.654 1.244-1.089 1.387-1.001.329-2.165.547-3.42.754l-.807.131-3.064.55c-1.02.223-2.179.122-3.469-.009l-.152-.015c-1.217-.124-2.535-.258-3.806-.071h0c-1.038.152-2.166-.084-3.43-.365l-.105-.023c-1.198-.266-2.509-.558-3.808-.439-1.019.091-2.096-.343-3.341-.868l-.104-.044c-1.163-.491-2.466-1.042-3.796-1.005l-7.07.119c-.747 0-1.454.3-2.1.691-.639.387-1.268.896-1.862 1.376l-.019.016-1.749 1.295c-.563.337-1.056.511-1.501.492-.406-.017-.867-.269-1.407-.766-.532-.49-1.064-1.144-1.624-1.84l-.054-.067-1.66-1.896c-.58-.552-1.252-1.027-2.008-1.095-.805-.073-1.583.304-2.275.787-.701.489-1.406 1.154-2.069 1.781l-.026.025-1.89 1.646c-.616.437-1.092.609-1.462.556-1.209-.176-2.373-.551-3.536-.953l-.461-.161-3.002-.913c-.484-.106-.93-.435-1.373-.96s-.841-1.195-1.246-1.909l-.163-.29-1.077-1.766c-.434-.603-.96-1.159-1.637-1.381h-.001c-.866-.284-1.868.044-2.794.51-.953.479-1.974 1.185-2.933 1.86l-.242.17-2.417 1.589c-.387.21-.711.345-.971.404s-.394.026-.464-.014c-1.207-.722-1.982-2.235-2.449-3.912a17.17 17.17 0 01-.589-4.289c0-.725.5-1.446 1.489-2.245.866-.7 2.001-1.376 3.225-2.106l.465-.277c.304-.172.708-.224 1.249-.172.534.051 1.131.195 1.802.357l.038.009.014.004c1.317.318 2.917.704 4.381.222l.002-.001 2.297-.891.794-.327c1.029-.418 2.097-.81 3.336-1.079h.001c.731-.161 1.325-.725 1.821-1.347.459-.576.896-1.286 1.32-1.972l.127-.205c.473-.765.931-1.486 1.418-2.039s.949-.873 1.4-.939.968.033 1.556.252 1.203.543 1.86.889l.011.006 2 .952c.684.259 1.408.431 2.137.365l-.046-.498zm0 0c-1.246.114-2.572-.584-3.872-1.269s-2.572-1.355-3.717-1.192l56.52 8.671c-.968-.316-1.744-1.359-2.552-2.444-.941-1.264-1.925-2.584-3.302-2.883l-1.648-.382-5.435-1.106c-1.139-.184-2.42.858-3.728 1.921s-2.654 2.156-3.902 2.047c-1.147-.107-2.244-1.209-3.343-2.314-1.135-1.14-2.273-2.284-3.472-2.339-1.061-.049-2.128-.21-3.205-.373l-4.008-.401c-1.243 0-2.402 1.058-3.563 2.118-1.138 1.039-2.278 2.079-3.501 2.128s-2.45-.538-3.658-1.118c-1.228-.589-2.438-1.169-3.614-1.064z" stroke="#e9e9e9"/><path d="M235.852 114.709c0 1.935-7.689-.228-10.447 1.419-1.746.992-.774 8.482-3.413 9.356-2.083.684-4.791.892-7.341 1.448-2.222.486-4.961-.456-7.461-.089-2.291.337-4.881-1.052-7.371-.824-2.331.209-4.792-1.984-7.272-1.915l-7.084.12c-2.46 0-4.901 3.968-7.252 3.869s-4.455-5.457-6.776-5.665c-2.5-.228-5.467 5.119-7.748 4.792-2.52-.367-4.812-1.558-7.034-2.034-2.55-.556-3.463-5.635-5.546-6.32-2.639-.863-8.145 5.516-9.921 4.475-2.758-1.647-3.284-6.697-3.284-8.632s2.659-3.403 5.427-5.059c1.736-.993 4.96 1.24 7.579.377 2.084-.695 3.919-1.756 6.479-2.312 2.212-.486 3.611-6.141 6.121-6.508 2.292-.328 5.1 2.688 7.59 2.46 2.331-.208 4.801 2.282 7.272 2.183s4.603-4.246 7.063-4.246 4.852.664 7.213.773 4.484 4.435 6.816 4.653c2.49.219 5.347-4.335 7.629-3.968 2.52.367 4.871.992 7.084 1.488 2.559.556 3.76 4.643 5.853 5.328 2.629.863 6.191-1.925 7.937-.883 2.788 1.607 7.887 3.78 7.887 5.714z"/></g></svg>