<svg xmlns="http://www.w3.org/2000/svg" width="90" height="90" fill="none"><g clip-path="url(#A)"><path d="M20.133 31.566a4.405 4.405 0 00-6.135 1.082l-2.527 3.609a4.406 4.406 0 001.082 6.136l39.182 27.435a59.234 59.234 0 004.242-13.163L20.133 31.566zm35.754 52.625a6.06 6.06 0 01-8.436 1.488 6.06 6.06 0 01-1.487-8.436 6.06 6.06 0 018.436-1.487 6.06 6.06 0 011.488 8.436z" fill="#f7f9f2"/><g fill="#ec665c"><path d="M65.608 20.384c-12.955-9.071-30.81-5.923-39.881 7.032l-3.79 5.413 34.039 23.834a59.201 59.201 0 01-4.242 13.163l-2.499 5.067a6.038 6.038 0 015.178.842 5.97 5.97 0 012.276 3.087l7.641-8.243a97.441 97.441 0 008.311-10.315c9.071-12.955 5.923-30.81-7.032-39.881z"/><path d="M57.062 69.054a52.77 52.77 0 01-2.12-8.032 58.256 58.256 0 01-3.208 8.805l-2.499 5.067a6.038 6.038 0 015.178.842 5.97 5.97 0 012.276 3.087l3.102-3.355a54.67 54.67 0 01-2.728-6.415z"/></g><path d="M51.898 69.458a59.776 59.776 0 004.078-12.795l-4.359-2.971a14.11 14.11 0 01-1.064 4.552 4.81 4.81 0 01-3.477 2.835c-1.754.238-3.439-.849-4.849-1.849L23.542 46.148a15.435 15.435 0 01-4.491-4.167c-1.96-3.134-1.252-7.505 1.081-10.416.107-.153-1.92-.753-2.133-.794a3.87 3.87 0 00-2.121.303 10.4 10.4 0 00-3.432 3.674c-1.023 1.462-2.083 3.166-1.726 4.922s1.832 2.721 3.203 3.681l37.819 26.482c.042-.118.106-.248.155-.375z" fill="#b8b9b4"/><path d="M57.524 45.486l.099-1.275-1.964 2.094a5.913 5.913 0 01-7.667.735l-13.217-9.254a6.7 6.7 0 01-1.74-9.286 28.638 28.638 0 0123.97-12.19 28.635 28.635 0 00-31.278 11.106l-3.79 5.413 34.165 23.923a65.53 65.53 0 001.422-11.266z" fill="#ec665c"/><path d="M51.434 85.751a6.06 6.06 0 011.627-10.733 6.06 6.06 0 00-5.597 10.642 6.017 6.017 0 005.329.801 5.733 5.733 0 01-1.359-.71z" fill="#b8b9b4"/><path d="M77.831 43.732a28.633 28.633 0 00-10.622-22.119c-.377 3.151.501 7.598 2.602 12.107 2.204 4.744 5.237 8.4 8.02 10.012z" fill="#fac269"/></g><defs><clipPath id="A"><path fill="#fff" transform="rotate(35 18.354 58.213)" d="M0 0h64v64H0z"/></clipPath></defs></svg>