<svg width="90" height="90" fill="none" xmlns="http://www.w3.org/2000/svg"><g clip-path="url(#clip0)"><path d="M20.133 31.566a4.406 4.406 0 00-6.136 1.082l-2.527 3.608a4.405 4.405 0 001.082 6.136l39.182 27.435a59.254 59.254 0 004.242-13.164L20.133 31.566zM55.887 84.19a6.058 6.058 0 11-9.924-6.949 6.058 6.058 0 019.924 6.95z" fill="#F7F9F2"/><path d="M65.608 20.384c-12.954-9.07-30.81-5.923-39.88 7.032l-3.79 5.413 34.038 23.834a59.254 59.254 0 01-4.242 13.164l-2.5 5.067a6.035 6.035 0 015.178.842 5.97 5.97 0 012.276 3.087l7.641-8.243a97.356 97.356 0 008.311-10.315c9.071-12.955 5.923-30.81-7.032-39.881z" fill="#EC665C"/><path d="M57.062 69.053a52.772 52.772 0 01-2.12-8.031 58.333 58.333 0 01-3.208 8.805l-2.5 5.067a6.035 6.035 0 015.178.842 5.97 5.97 0 012.276 3.087l3.102-3.355a54.672 54.672 0 01-2.728-6.415z" fill="#EC665C"/><path d="M51.898 69.458a59.803 59.803 0 004.078-12.794l-4.36-2.972a14.11 14.11 0 01-1.063 4.552 4.812 4.812 0 01-3.477 2.836c-1.754.238-3.44-.849-4.85-1.85L23.542 46.149a15.425 15.425 0 01-4.49-4.167c-1.96-3.133-1.253-7.505 1.08-10.415.108-.153-1.92-.753-2.132-.794a3.871 3.871 0 00-2.121.303 10.402 10.402 0 00-3.433 3.673c-1.023 1.462-2.083 3.167-1.726 4.923.357 1.756 1.832 2.72 3.203 3.681l37.82 26.482c.042-.119.106-.249.155-.376z" fill="#B8B9B4"/><path d="M57.524 45.486l.1-1.275-1.964 2.094a5.914 5.914 0 01-7.667.735l-13.217-9.255a6.696 6.696 0 01-1.74-9.285 28.637 28.637 0 0123.97-12.19 28.636 28.636 0 00-31.279 11.106l-3.79 5.413 34.165 23.923a65.436 65.436 0 001.422-11.267z" fill="#EC665C"/><path d="M51.434 85.75a6.058 6.058 0 011.626-10.732 6.058 6.058 0 00-5.596 10.642 6.014 6.014 0 005.328.8 5.753 5.753 0 01-1.358-.71z" fill="#B8B9B4"/><path d="M77.83 43.732a28.633 28.633 0 00-10.621-22.12c-.378 3.151.501 7.599 2.601 12.107 2.204 4.744 5.238 8.4 8.02 10.013z" fill="#FAC269"/></g><defs><clipPath id="clip0"><path fill="#fff" transform="rotate(35 18.354 58.213)" d="M0 0h64v64H0z"/></clipPath></defs></svg>