<svg xmlns="http://www.w3.org/2000/svg" xmlns:xlink="http://www.w3.org/1999/xlink" width="570" height="447" fill="none"><style>.B{opacity:.1}.C{fill:#000}.D{fill:#fff}.E{fill:#3f3474}.F{fill:#ee8e9e}.G{fill:#dfe5ee}</style><g clip-path="url(#B)"><g class="E"><path d="M560.657 199.047l-.317 1.902c-3.649 21.597-9.606 42.418-18.465 61.534l-.888 1.903a177.122 177.122 0 01-20.806 33.759c-4.413 5.601-9.224 10.918-14.945 14.757-8.019 5.379-17.394 7.565-26.608 9.354-9.574 1.863-19.272 3.398-28.948 5.096l-10.225 1.852c-9.349 1.778-18.627 3.833-27.684 6.557-11.2 3.398-22.066 7.775-32.291 13.975-.818.491-1.627.995-2.427 1.512l-2.395 1.563-2.341 1.597-1.195.849c-.393.272-.78.566-1.168.838-1.151.827-2.287 1.699-3.423 2.537l-.043.034-2.233 1.698c-4.192 3.268-8.293 6.688-12.378 10.119l-2.578 2.169-3.993 3.324-2.357 1.942-1.717 1.404c-2.912 2.362-5.861 4.672-8.869 6.88l-2.153 1.569a111.9 111.9 0 01-19.127 11.087l-.086.039a73.4 73.4 0 01-10.161 3.687 58.332 58.332 0 01-5.984 1.364 50.317 50.317 0 01-16.226.295c-10.597-1.58-20.527-6.795-31.096-8.539-21.807-3.562-42.985 7.927-63.505 16.948a307.46 307.46 0 01-15.236 6.228 308.02 308.02 0 01-10.252 3.686 308.965 308.965 0 01-64.329 14.479c-8.923 1.025-18.228 1.512-27.312.776a87.934 87.934 0 01-10.225-1.398c-11.501-2.265-22.238-7.073-30.886-15.855-7.185-7.186-12.254-16.58-16.118-26.382a132.946 132.946 0 01-4.106-12.083 140.82 140.82 0 01-4.182-19.723 98.8 98.8 0 01-.538-4.53c-.28-2.593-.488-5.198-.624-7.814A142.12 142.12 0 014.042 308.7c3.665-14.943 9.779-29.252 12.47-44.337l.317-1.902c.359-2.265.631-4.572.818-6.92 1.356-18.448-3.891-36.506-8.035-54.592l-.431-1.902-1.275-6.02c-3.837-19.127-4.887-39.597-1.48-58.685a74.39 74.39 0 01.355-1.903c2.298-11.823 6.356-23.069 12.572-33.085 6.377-10.283 14.751-18.839 23.68-26.359a173.041 173.041 0 0113.524-10.277 179.51 179.51 0 0110.225-6.495c28.034-16.421 60.017-24.445 91.641-22.65 1.675.091 3.347.211 5.015.362a151.06 151.06 0 015.237.566c20.359 2.474 40.169 8.607 59.861 15.317l19.762 6.795 8.778 2.973c14.342 4.762 28.922 9.06 43.635 12.299 3.412.755 6.821 1.444 10.226 2.067a230.14 230.14 0 0035.837 3.884 190.06 190.06 0 0013.993-.153 159.11 159.11 0 007.077-.498c24.384-2.197 47.897-9.564 71.507-16.483l10.226-2.961 13.492-3.63c28.082-7.095 53.107-3.018 79.214 11.614 5.92 3.324 11.84 7.333 15.5 13.539s4.547 13.89 5.225 21.285c.958 10.521 1.615 21.189 1.825 31.903 0 .634 0 1.268.037 1.902.474 21.693-.78 43.55-4.214 64.694z" class="B"/><path d="M374.399 262.483h-1.835v1.903h2.078l-.243-1.903zm-20.8 0a.114.114 0 000 .045l-.162 1.575v.283h15.93v-.113l1.136-1.79h-16.904zm-42.597 0v-61.534H329.3l-.597-.498-.269-.215-.345-.272-.608-.447-.538-.363-.124-.085h-15.817V195.7l-.425.215-.452.266h-.032l-.097.063-.28.192-.285.193-.835.634-.269.226-.538.453-2.153 1.858-.538.441a13.53 13.53 0 01-1.216.838 5.78 5.78 0 01-.538.312l-.302.147-.274.125c-.646.287-1.317.51-2.002.668v60.152h-27.447c0 .068.038.13.054.198l.446 1.699h26.952v65.962h.42l.479.034.872.068 1.41.147.635.08.7.09h.102l1.227.193.264.045.592.102.85.158 2.04-.113.28.062c.113 0 .225.046.344.074v-66.896H353.4v-.283l.161-1.575a.17.17 0 010-.045h-42.559zm63.397 0h-1.835v1.903h2.078l-.243-1.903zm-21.946 0l-.183 1.903h17.722l1.205-1.903h-18.744zm-41.44 0v-61.534h18.298l-.597-.498-.27-.215-.344-.272-.608-.447-.538-.363-.124-.085h-15.828V195.7l-.425.215-.452.266h-.032l-.097.063-.28.192-.285.193-.835.634-.269.226-.538.453-2.153 1.858-.538.441a13.53 13.53 0 01-1.216.838 5.78 5.78 0 01-.538.312l-.302.147-.274.125c-.646.287-1.317.51-2.002.668v60.152h-27.447c0 .068.038.13.054.198l.452 1.699h26.946v65.956l.42.029.479.034.872.068 1.41.147.635.079.7.091h.102l1.227.192.264.046.592.101.85.159 2.04-.113.28.062c.113 0 .225.045.344.074v-66.919h41.284l.193-1.903h-41.45zM449.68 134.342h115.293l-.037-1.903H449.68v-74.71l-10.226 2.961v71.749H314.059l-.318-.362.479-.566 46.639-53.856a185.52 185.52 0 01-13.993.153L311.002 119.2V73.94a268.47 268.47 0 01-10.225-2.067v45.243l-52.435-60.515-19.762-6.795 71.271 82.27-.317.362H168.719v-97.96l-5.237-.566-5.016-.362v98.889h-91.64V56.223A170.75 170.75 0 0056.6 62.717v69.722H6.76l-.355 1.903h50.153v64.705H9.181l.431 1.902h46.967v61.534H16.813l-.318 1.903h40.084V436.44a87.964 87.964 0 0010.225 1.398V264.386h91.662v158.197a338.095 338.095 0 0010.253-3.686V264.386h132.036v138.22a73.265 73.265 0 0010.161-3.686l.086-.04V264.386h128.42v64.818l10.225-1.852v-62.966h91.313l.888-1.903H449.68v-61.534h110.665l.318-1.902H449.68v-64.705zm-382.849 0h91.635v64.705h-91.64l.005-64.705zm0 128.141v-61.534h91.635v61.534H66.831zm101.893-128.141h132.031v64.705H168.719l.005-64.705zm0 128.141v-61.534h132.031v61.534H168.724zm270.703 0H311.002v-61.534h128.42l.005 61.534zm0-63.419H311.002v-62.99l1.803-1.732h126.617l.005 64.722zm-85.823 63.419a.17.17 0 000 .045l-.161 1.575v.283h15.93v-.113l1.135-1.79h-16.904zm20.801 0h-1.835v1.903h2.077l-.242-1.903zm-63.398 0v-61.534h18.298a12.49 12.49 0 00-.597-.498l-.269-.215a5.467 5.467 0 00-.344-.272l-.609-.447c-.209-.148-.339-.244-.538-.363l-.124-.085h-15.822V195.7l-.425.215-.452.266h-.032l-.097.063-.28.192c-.097.063-.194.125-.285.193-.28.198-.539.413-.835.634l-.269.226c-.183.148-.355.301-.538.453-.716.618-1.421 1.263-2.153 1.858l-.538.441a13.53 13.53 0 01-1.216.838 5.78 5.78 0 01-.538.312l-.302.147-.274.125c-.646.287-1.317.51-2.002.668v60.152h-27.447c0 .068.038.13.054.198l.446 1.699h26.952v65.962h.42l.479.034.872.068 1.41.147.635.08.7.09h.102c.404.057.813.125 1.227.193l.264.045.592.102.85.158 2.04-.113.28.062c.113 0 .225.046.344.074v-66.896H353.4v-.283l.161-1.575a.17.17 0 010-.045h-42.554zM110.886 89.79h.818a2.01 2.01 0 01-.685-.701 2.14 2.14 0 01-.289-.958c0-1.314 1.528-2.384 3.396-2.384h23.76c1.868 0 3.396 1.07 3.396 2.384 0 1.308-1.528 2.384-3.396 2.384h-.791a2.02 2.02 0 01.682.702c.169.289.268.618.287.957 0 1.132-1.109 2.061-2.594 2.316h6.84c1.862 0 3.391 1.07 3.391 2.384s-1.529 2.378-3.391 2.378h-23.787c-1.862 0-3.391-1.07-3.391-2.378 0-1.133 1.109-2.061 2.594-2.316h-6.84c-1.862 0-3.39-1.07-3.39-2.384s1.517-2.384 3.39-2.384zm257.529 22.689h.796a2.01 2.01 0 01-.686-.704 2.15 2.15 0 01-.288-.961c0-1.308 1.529-2.378 3.396-2.378h23.761c1.867 0 3.396 1.07 3.396 2.378 0 1.314-1.529 2.384-3.396 2.384h-.791a2.03 2.03 0 01.682.705c.169.29.267.62.286.96 0 1.132-1.108 2.055-2.594 2.31h6.841c1.862 0 3.39 1.076 3.39 2.384s-1.528 2.384-3.39 2.384h-23.756c-1.862 0-3.39-1.07-3.39-2.384 0-1.132 1.109-2.061 2.594-2.31h-6.851c-1.862 0-3.391-1.076-3.391-2.384s1.54-2.384 3.391-2.384zm-293.98 97.094h.797a2.012 2.012 0 01-.682-.705 2.15 2.15 0 01-.286-.96c0-1.308 1.523-2.383 3.391-2.383h23.76c1.868 0 3.396 1.075 3.396 2.383 0 1.314-1.528 2.384-3.396 2.384h-.791a2.03 2.03 0 01.682.705 2.15 2.15 0 01.287.96c0 1.133-1.109 2.056-2.594 2.31h6.84c1.867 0 3.39 1.071 3.39 2.384s-1.523 2.384-3.39 2.384H82.072c-1.862 0-3.391-1.076-3.391-2.384 0-1.132 1.114-2.061 2.594-2.316h-6.84c-1.862 0-3.391-1.07-3.391-2.378s1.528-2.384 3.391-2.384z" class="B"/></g><path d="M349.234 372.675l-3.993 3.323-2.357 1.943-1.717 1.404c-2.912 2.361-5.861 4.672-8.869 6.88l-2.153 1.568a111.9 111.9 0 01-19.127 11.087l-.086.04v-26.245h38.302z" fill="#65617d"/><path d="M409.123 269.527l.602-19.563-1.076-.839a109.63 109.63 0 00-.947-17.446c-2.433-19.563-18.228-19.988-22.684-15.951a10.743 10.743 0 01-1.922 1.393l1.265-8.352c1.948-14.903-1.076-31.67-12.066-41.302-4.601-4.026-10.225-6.5-15.279-9.869-9.052-6.008-16.204-14.881-25.359-20.731s-22.011-8.04-29.998-.521c-3.094 2.911-5.091 6.948-8.266 9.757-5.92 5.232-15.15 5.577-20.316 11.421-.259.294-.506.594-.743.912-4.305 5.809-3.127 14.048-1.754 21.256 1.652 8.675.968 15.629 8.04 18.12l.086 1.031c.575 5.321 2.249 10.446 4.904 15.016s6.227 8.474 10.466 11.439l-1.146.43c-3.057 1.133-5.807 2.231-7.567 2.984-6.458 2.769-20.052 6.376-20.052 6.376s-.323 4.077-.264 10.091c-4.531 5.181-12.093 14.286-14.315 19.682-3.23 7.871-21.474 30.414-26.334 33.817s-10.128 7.44-10.128 7.44-7.696 4.468-11.339 4.892c-2.524.295-10.333-1.279-10.333-1.279s-31.188-40.204-29.164-9.355 26.936 31.897 26.936 31.897l25.116-.425s13.573 1.914 19.649-3.397c5.188-4.53 32.076-29.383 40.713-40.657a17.95 17.95 0 00.608.68s3.439-4.677 3.848 0-2.233 6.795-.812 8.494 5.672 7.655 5.871 9.994-5.667 11.891 4.252 19.139c.156.113.323.221.506.328 1.77 4.242 7.4 8.392 7.4 8.392l30.38-.425 57.321 4.678s1.706-1.58 4.015-4.162c3.084 2.978 7.362 5.532 12.184 3.963 0 0 6.889-8.714 7.093-14.456 0 0-4.456-12.123-6.458-15.736s1.421-11.483 1.421-11.483 2.427-7.656 3.848-7.656.404-5.096.404-5.096a6.4 6.4 0 01-.98-2.792c-.105-1 .022-2.013.372-2.95 1.189-3.222 2.002-9.179 2.002-9.179z" fill="url(#A)"/><g class="F"><path d="M374.76 265.122l-2.153 2.65-8.697 10.657-11.361.724-18.185 1.178s-24.519-31.087-19.912-37.853c1.674-2.441 1.948-5.663 1.614-8.703a19.32 19.32 0 00-.172-1.252 37.508 37.508 0 00-2.863-9.286l.603-.289.387-.187 26.748-12.842a15.59 15.59 0 001.453 4.405 8.87 8.87 0 00.333.634c7.314 12.741 30.768 4.683 30.768 4.683l1.437 45.481z"/><path d="M406.464 249.216c-.161 7.712-1.356 11.042-1.356 11.042l-30.348 4.864-5.629-41.025 4.219-4.439a10.71 10.71 0 005.105-.087 11.07 11.07 0 004.544-2.45c4.419-4.02 20.096-3.595 22.507 15.855.708 5.38 1.028 10.809.958 16.24z"/></g><use xlink:href="#C" class="G"/><use xlink:href="#C" class="B C"/><path d="M342.884 377.941l-1.717 1.404c-2.912 2.361-5.861 4.672-8.869 6.88l-2.153 1.568H158.466l-50.793-1.914-40.847-.362-61.245-3.397a140.79 140.79 0 01-4.203-19.74 98.8 98.8 0 01-.538-4.53l65.964 3.856 276.08 16.235z" fill="#d48a9b"/><path d="M411.738 335.761c-11.199 3.398-22.065 7.775-32.291 13.975l-2.427 1.512-2.395 1.563-2.341 1.597-1.195.849-1.167.838-3.423 2.537-.043.034-2.234 1.698c-4.192 3.268-8.293 6.688-12.378 10.119l-2.588 2.169-3.983 3.324-2.357 1.942-1.717 1.404-30.138-1.512h-.086l-10.161-.498L1.378 362.38a98.8 98.8 0 01-.538-4.53c-.28-2.593-.488-5.198-.624-7.814L76.11 321.82l265.069 14.479h.581l45.766-.391h2.842l11.474-.096h1.711l8.186-.051z" fill="#efc6cd"/><path d="M171.178 336.537l3.315 18.556 90.134-1.427s6.781 2.061 6.631-3.647c0 0 13.718-13.641 83.202 2.22l-26.678-22.044-72.923 4.122-84.558-2.378.877 4.598z" class="E"/><use xlink:href="#D" class="D"/><use xlink:href="#D" class="B C"/><path d="M173.993 332.024l3.121 18.731s76.513-2.208 88.568-.147l-9.079-17.106s-46.294-4.281-82.61-1.478z" class="D"/><path d="M175.397 332.601l3.041 17.52s74.834-2.067 86.647-.136l-8.88-16.008s-45.282-4.02-80.808-1.376z" class="B C"/><path d="M176 331.962l3.057 17.553s74.834-2.067 86.647-.136l-8.902-16.024s-45.277-4.015-80.802-1.393z" class="D"/><path d="M123.054 284.323s3.918 5.385-1.803 13.522-10.446 15-8.535 20.074c0 0 8.611-15.108 15.661-15.289s2.411-9.224-5.323-18.307z" class="E"/><path d="M123.054 284.323c.345.523.615 1.095.802 1.699 6.857 8.494 10.511 16.421 3.918 16.591-6.141.181-13.503 11.733-15.268 14.654a10.11 10.11 0 00.21.663s8.611-15.107 15.661-15.289 2.411-9.235-5.323-18.318z" class="B C"/><g fill="#ffd037"><path d="M130.336 291.192c0 1.891-.205 3.431-.452 3.431s-.452-1.54-.452-3.431.253-1.008.5-1.008.404-.889.404 1.008z"/><path d="M132.833 293.451c-1.582.912-2.96 1.461-3.078 1.229s1.076-1.133 2.647-2.061.958-.249 1.077 0 .936-.074-.646.832z"/></g><path d="M102.372 284.323s-3.918 5.385 1.808 13.522 10.441 15 8.536 20.074c0 0-8.638-15.108-15.666-15.289s-2.411-9.224 5.322-18.307z" class="E"/><path d="M102.372 284.323a6.98 6.98 0 00-.802 1.699c-6.856 8.494-10.51 16.421-3.918 16.591 6.141.181 13.509 11.733 15.274 14.654a7.44 7.44 0 01-.21.663s-8.638-15.107-15.666-15.289-2.411-9.235 5.322-18.318z" class="B C"/><g fill="#ffd037"><path d="M95.091 291.192c0 1.891.205 3.431.452 3.431s.452-1.54.452-3.431-.253-1.008-.5-1.008-.404-.889-.404 1.008z"/><path d="M92.593 293.451c1.582.912 2.965 1.461 3.084 1.229s-1.076-1.133-2.648-2.061-.958-.249-1.076 0-.942-.074.64.832z"/></g><path d="M133.769 310.654l-.193 1.698-.781 6.733-.28 2.378-3.132 27.022c-.28 2.412-4.025 4.292-8.546 4.292h-16.264c-4.52 0-8.261-1.88-8.541-4.292l-4.391-37.831c-.156-1.365 1.867-2.514 4.429-2.514h33.292c2.556 0 4.585 1.149 4.407 2.514z" fill="#65617d"/><path d="M133.592 312.335l-.275 2.379H92.114l-.274-2.379h41.752zm-.388 3.37l-.274 2.378H92.507l-.28-2.378h40.977zm-.393 3.369l-.274 2.372H92.895l-.274-2.372h40.191z" fill="#9d9cb5"/><g class="F"><path d="M183.438 308.468s-10.452-10.572-10.048 3.171 10.048-3.171 10.048-3.171z"/><path d="M277.291 284.363c-.232 1.064-1.357 2.831-3.111 5.045-9.063 11.484-34.847 35.351-39.901 39.779-6.027 5.289-19.492 3.397-19.492 3.397l-24.918.425s-24.718-1.059-26.731-31.71 28.938 9.304 28.938 9.304 7.749 1.563 10.252 1.268c3.616-.419 11.253-4.858 11.253-4.858s5.226-4.021 10.048-7.401 22.91-25.798 26.128-33.624c2.04-4.966 8.611-13.086 13.148-18.352 2.605-3.029 4.537-5.096 4.537-5.096s11.253 35.266 9.849 41.823z"/></g><g class="C"><path d="M277.291 284.363c-.232 1.064-1.357 2.831-3.111 5.045-9.149-9.802-11.06-29.36-11.275-41.794 2.605-3.03 4.537-5.097 4.537-5.097s11.253 35.289 9.849 41.846zm95.311-16.591l-8.692 10.657-11.361.724-18.185 1.178s-24.519-31.087-19.912-37.853c1.674-2.441 1.948-5.663 1.614-8.703a19.32 19.32 0 00-.172-1.252 37.508 37.508 0 00-2.863-9.286l.603-.289.387-.187a42.36 42.36 0 011.97 8.669l.167 1.252.538 5.096c1.399 17.112 11.63 23.55 16.248 25.6a46.015 46.015 0 014.348 2.214c4.443 2.578 9.566 3.552 14.585 2.774 11.398-1.574 20.693-10.288 20.693-10.288l.048 8.578-.016 1.116z" class="B"/></g><path d="M372.952 334.266s-74.759-.215-84.613-7.401-4.014-16.704-4.219-19.031-4.418-8.245-5.823-9.943 1.205-3.806.802-8.455-3.816 0-3.816 0c-14.073-15.016-11.059-53.074-11.059-53.074s13.454-3.59 19.912-6.347c1.749-.748 4.472-1.812 7.535-2.962l1.135-.43 17.281-6.331s1.803-1.342 3.617 2.673c.828 1.846 1.663 4.819 2.33 9.569l.167 1.252c.188 1.529.36 3.227.538 5.096 1.399 17.112 11.63 23.55 16.248 25.6a46.015 46.015 0 014.348 2.214c4.443 2.578 9.566 3.552 14.585 2.775 11.398-1.575 20.693-10.289 20.693-10.289l.188 34.354.151 40.73z" class="G"/><path d="M369.733 300.858l-1.205 8.035s-29.745 7.82-41.397 10.147-36.779-.634-38.587 4.439 7.637 12.056 7.637 12.056l30.138-.425 56.874 4.654s21.705-20.09 14.671-34.048-28.131-4.858-28.131-4.858z" class="F"/><g class="C"><path d="M308.44 237.421s-13.669 11.84-11.054 17.554 11.054-17.554 11.054-17.554zm-16.882 21.353s-13.869 25.164-13.062 27.067 4.623 8.669 4.419 3.596 8.643-30.663 8.643-30.663zm5.629 4.445s-3.229 15.646-6.431 22.203 6.431-22.203 6.431-22.203zm45.395-48.244c-2.657 5.127-6.443 9.51-11.04 12.783s-9.872 5.339-15.384 6.028h-.065c-8.67 1.071-17.406-1.335-24.465-6.738l18.416-6.761s1.803-1.342 3.617 2.672l27.135-13.023c.304 1.778.91 3.485 1.786 5.039z" class="B"/></g><path d="M346.823 196.187c.01 6.368-1.567 12.628-4.574 18.154a36.776 36.776 0 01-5.183 7.259c-5.595 6.129-13.05 10.007-21.075 10.963h-.07a32.42 32.42 0 01-3.864.232c-8.542 0-16.786-3.309-23.158-9.295s-10.425-14.232-11.388-23.162a37.45 37.45 0 01-.22-4.128c0-9.702 3.662-19.006 10.182-25.866s15.363-10.714 24.584-10.714 18.063 3.854 24.583 10.714 10.183 16.164 10.183 25.866v-.023z" class="F"/><g class="C"><path d="M369.335 265.405l3.229-5.096s17.685-22.203 34.982-8.035l-.603 19.456s-.807 5.917-2.013 9.06a6.49 6.49 0 00-.367 2.935c.105.995.438 1.948.97 2.778 0 0 1.006 5.097-.398 5.097s-3.821 7.61-3.821 7.61-3.418 7.825-1.405 11.421 6.431 15.645 6.431 15.645-7.034-4.439-9.047-11.84c0 0-17.081-13.958-30.347-5.096l2.389-43.935z" class="B"/><path d="M406.464 249.216c-.161 7.712-1.356 11.042-1.356 11.042l-30.348 4.864-1.136-8.29c3.972-4.36 18.417-18.222 32.84-7.616z" class="B"/></g><path d="M369.335 264.272l3.229-5.096s17.685-22.202 34.982-8.035l-.603 19.456s-.807 5.918-2.013 9.06a6.49 6.49 0 00-.367 2.935c.105.995.438 1.949.97 2.779 0 0 1.006 5.096-.398 5.096s-3.821 7.61-3.821 7.61-3.418 7.826-1.405 11.422 6.431 15.645 6.431 15.645-7.034-4.439-9.047-11.84c0 0-17.081-13.958-30.347-5.096l2.389-43.936z" class="G"/><g class="C"><path d="M397.869 249.896s-29.137 18.822-27.732 35.328c0 0 16.28-30.255 27.732-35.328z" class="B"/><path d="M372.597 267.778l.139 25.775c-5.51.261-10.704-.493-14.81-4.247-2.858-2.616-4.521-6.228-5.382-10.136a37.724 37.724 0 01-.7-9.586.77.77 0 010-.096c.339-7.118 1.895-14.236 1.077-21.308s-4.892-14.536-11.544-16.025c-1.313-.3-2.788-.408-3.724-1.421-1.034-1.133-.985-2.894-.872-4.462l.194-2.645c.048-.679.069-1.353.069-2.027-.003-6.012-1.991-11.836-5.623-16.477s-8.682-7.812-14.289-8.97l-.215-.039c-1.873-.397-3.821-.788-5.694-.335-3.563.867-5.866 4.502-9.149 6.229-6.297 3.307-16.797-.311-23.39-1.449-.43-.074-.839-.159-1.232-.255a37.453 37.453 0 01-.221-4.128c.003-5.603 1.228-11.13 3.583-16.156s5.774-9.414 9.996-12.829 9.132-5.763 14.353-6.864 10.613-.926 15.76.512 9.91 4.101 13.923 7.783 7.17 8.285 9.225 13.454a38.29 38.29 0 012.628 16.357 37.994 37.994 0 01-4.51 15.897c.103.215.216.43.334.634 7.314 12.74 30.768 4.683 30.768 4.683l1.41 45.464-2.104 2.667z" class="B"/></g><path d="M303.338 201.38c3.262-1.733 5.565-5.368 9.15-6.229 1.867-.453 3.815-.062 5.699.328l.215.046c5.928 1.234 11.22 4.713 14.873 9.777s5.414 11.363 4.948 17.703l-.194 2.644c-.118 1.563-.166 3.335.878 4.456.931 1.014 2.405 1.133 3.718 1.416 6.652 1.495 10.726 8.918 11.544 16.03s-.764 14.253-1.076 21.399.936 15.034 6.071 19.728c8.072 7.361 20.343 3.171 31.026 2.497-4.726 0-8.267-5.13-8.525-10.091s1.84-9.682 3.848-14.156 4.02-9.286 3.573-14.235c-.613-6.795-5.704-12.237-7.653-18.777-2.271-7.61-.08-15.781.948-23.692 1.932-14.813-1.077-31.489-11.975-41.064-4.564-4.003-10.144-6.466-15.16-9.818-8.988-5.997-16.076-14.791-25.16-20.623s-21.839-7.995-29.767-.521c-3.067 2.893-5.048 6.908-8.202 9.7-6.162 5.464-15.956 5.566-20.897 12.27-4.252 5.77-3.1 13.964-1.738 21.127 1.813 9.552.791 16.987 10.494 18.686 6.566 1.093 17.06 4.711 23.362 1.399z" fill="#603556"/><path d="M383.29 286.611c-7.777 1.002-15.483 1.517-21.145-3.647-5.134-4.694-6.399-12.576-6.071-19.728s1.9-14.297 1.077-21.404-4.892-14.53-11.544-16.025c-1.313-.294-2.782-.402-3.719-1.415-1.039-1.133-.996-2.899-.877-4.462l.194-2.645c.465-6.338-1.296-12.636-4.949-17.699s-8.945-8.542-14.873-9.775l-.215-.045c-1.883-.391-3.832-.781-5.699-.329-3.563.867-5.866 4.53-9.149 6.229-6.302 3.313-16.791-.306-23.395-1.444-9.687-1.67-8.675-9.116-10.494-18.686-1.017-5.345-1.916-11.268-.538-16.33a8.686 8.686 0 00-.743.911c-4.252 5.77-3.1 13.964-1.738 21.127 1.813 9.552.791 16.987 10.494 18.686 6.598 1.133 17.093 4.757 23.395 1.444 3.261-1.733 5.564-5.368 9.149-6.229 1.867-.453 3.815-.062 5.699.329l.215.045c5.928 1.234 11.22 4.713 14.873 9.778s5.414 11.363 4.948 17.702l-.193 2.644c-.119 1.563-.167 3.335.877 4.457.931 1.013 2.406 1.132 3.719 1.415 6.652 1.495 10.726 8.919 11.544 16.031s-.759 14.252-1.077 21.398.937 15.034 6.071 19.728c8.073 7.361 20.343 3.171 31.026 2.497-2.901.017-5.339-1.919-6.862-4.558z" class="B C"/><path d="M164.876 305.501l33.179-13.024c.784-.308 1.653-.276 2.414.089s1.355 1.034 1.649 1.859.262 1.739-.085 2.541a3.23 3.23 0 01-1.766 1.734l-33.179 13.024-7.115-.748 4.903-5.475z" fill="#5c5c8e"/><path d="M201.117 293.361a3.48 3.48 0 01-.087 2.542 3.232 3.232 0 01-1.77 1.733l-33.2 13.069-5.339-.567-.769.861 7.114.748 33.179-13.024a3.23 3.23 0 001.767-1.735 3.48 3.48 0 00.084-2.54 3.286 3.286 0 00-1.291-1.659c.119.181.224.372.312.572z" class="B D"/><path d="M164.881 305.501l2.207 6.223-7.109-.753 1.743-1.948 3.159-3.522z" fill="#efc8c4"/><path d="M161.717 309.006a1.45 1.45 0 01.344.391.58.58 0 01.084.303.586.586 0 01-.084.303 1.15 1.15 0 01-.317.243 1.12 1.12 0 00-.327.363 1.177 1.177 0 00-.147.475l-1.281-.13 1.728-1.948z" fill="#727a9c"/><use xlink:href="#E" class="D"/><use xlink:href="#E" class="B C"/><path d="M265.682 352.109s14.472-41.189 88.799.13l-26.677-18.063s-63.909-18.579-71.292 2.831l9.17 15.102z" class="D"/><path d="M265.682 352.08s14.472-44.037 88.799.793l-26.677-19.592s-63.93-22.22-71.33 1.036l9.208 17.763z" class="B C"/><path d="M265.682 352.097s14.472-44.688 88.799.142l-26.677-19.592s-63.909-21.586-71.292 1.698l9.17 17.752z" class="D"/><path d="M265.682 352.109s14.472-49.666 88.799.764l-26.699-22.044s-63.908-22.65-71.292 3.488l9.192 17.792z" class="B C"/><path d="M265.682 352.08s14.472-50.271 88.799.159l-26.699-22.044s-63.908-22.65-71.292 3.488l9.192 18.397z" class="D"/><g class="E"><path d="M488.671 347.346s-17.841 20.108-1.782 29.876c0 0 2.099 2.661 5.097 1.268 0 0-1.012-.946 1.017-2.769a12.454 12.454 0 001.91-2.208 6.454 6.454 0 001.109-3.772s2.336-7.978-5.086-18.335c0 0-.672-3.465-1.243-3.844l-1.356 4.83s3.407.911 4.687 3.641c0 0-4.488-3.709-4.924-2.934-.086.159-.608 2.6-.608 2.6s5.92 1.608 7.771 5.889c0 0-4.784-5.17-7.976-4.966l-.581 3.725s6.335 1.382 8.611 6.173c0 0-5.177-5.227-8.697-5.346l-.102 3.743s6.151 1.472 8.029 5.47c0 0-6.56-5.396-7.997-4.609 0 0 .102 3.448.538 4.349 0 0 4.392 1.132 5.285 3.59 0 0-4.747-3.121-5.156-2.645 0 0 1.276 4.451 3.052 6.348 0 0-2.82-2.599-3.703-6.104 0 0-1.194 2.191-.893 4.343 0 0-1.76-2.05.597-5.425 0 0-.861-3.511-.646-4.066 0 0-2.771 2.985-3.482 5.663 0 0-.538-3.352 3.477-6.631v-3.771s-3.864 3.743-4.661 6.059c0 0-.053-3.511 4.742-7.005l.538-3.663s-3.563 2.956-4.978 5.334c0 0 .613-3.273 5.166-6.376l.63-2.401s-2.562 2.208-3.229 2.91-.92.567-.92.567a11.576 11.576 0 014.413-4.496s1.647-4.881 1.351-5.012zM568.423 20.17s-23.836 11.325-12.599 26.834c0 0 .964 3.313 4.236 3.245 0 0-.587-1.285 1.953-2.146a11.53 11.53 0 002.573-1.263 6.169 6.169 0 002.406-3.029s5.08-6.41 2.029-18.975c0 0 .651-3.471.263-4.054l-3.024 3.907s2.809 2.22 2.992 5.26c0 0-2.777-5.243-3.466-4.7-.14.108-1.512 2.146-1.512 2.146s4.843 3.884 5.01 8.59c0 0-2.518-6.716-5.543-7.826l-1.9 3.205s5.339 3.845 5.694 9.19c0 0-2.863-6.919-6.065-8.46l-1.469 3.398s5.139 3.856 5.381 8.307c0 0-4.074-7.644-5.688-7.497 0 0-1.168 3.216-1.076 4.23 0 0 3.627 2.831 3.562 5.459 0 0-3.229-4.802-3.767-4.53 0 0-.457 4.621.49 7.095 0 0-1.652-3.545-1.179-7.135 0 0-1.91 1.54-2.416 3.647 0 0-.872-2.61 2.54-4.768 0 0 .49-3.584.893-4.009 0 0-3.654 1.625-5.279 3.788 0 0 .726-3.313 5.64-4.706l1.399-3.465s-4.935 1.88-6.523 3.692c0 0 1.238-3.262 6.943-4.53l1.835-3.16s-4.37 1.285-6.55 2.899c0 0 1.771-2.763 7.11-3.782l1.458-1.959s-3.175.997-4.063 1.37-1.076.153-1.076.153a10.98 10.98 0 015.753-2.356s3.229-3.839 3.035-4.066zm-226.234 7.01s-35.81 10.759-18.4 26.772c0 0 1.545 3.398 6.501 3.398 0 0-.925-1.314 2.906-2.112a21.91 21.91 0 003.865-1.2c1.476-.544 2.732-1.601 3.562-2.995 0 0 7.535-6.342 2.589-19.128 0 0 .899-3.488.296-4.088l-4.478 3.862s4.306 2.327 4.666 5.402c0 0-4.343-5.374-5.381-4.847-.21.108-2.239 2.123-2.239 2.123s7.47 4.066 7.809 8.828c0 0-3.983-6.857-8.611-8.063l-2.799 3.182s8.181 4.037 8.853 9.451c0 0-4.51-7.072-9.396-8.72l-2.153 3.398s7.879 4.043 8.396 8.55c0 0-6.367-7.843-8.81-7.746 0 0-1.685 3.228-1.534 4.252 0 0 5.565 2.99 5.538 5.617 0 0-5.027-4.949-5.856-4.688 0 0-.57 4.66.926 7.186 0 0-2.594-3.63-1.97-7.242 0 0-2.847 1.501-3.563 3.613 0 0-1.388-2.656 3.725-4.739 0 0 .651-3.613 1.248-4.032 0 0-5.489 1.54-7.895 3.681 0 0 1.012-3.329 8.417-4.598l2.035-3.465s-7.427 1.767-9.784 3.55c0 0 1.792-3.262 10.403-4.394l2.69-3.143s-6.587 1.172-9.848 2.746c0 0 2.61-2.746 10.666-3.624l2.153-1.937s-4.784.917-6.119 1.268-1.614.125-1.614.125a20.348 20.348 0 018.61-2.22s4.909-3.782 4.596-4.02zm105.65 419.826s18.029-19.926 2.061-29.858c0 0-2.077-2.684-5.086-1.325 0 0 1.007.957-1.038 2.763a12.517 12.517 0 00-1.932 2.186 6.408 6.408 0 00-1.141 3.759s-2.417 7.956 4.913 18.386c0 0 .641 3.472 1.206 3.862l1.405-4.819s-3.402-.945-4.656-3.686c0 0 4.451 3.749 4.892 2.979.092-.159.635-2.588.635-2.588s-5.92-1.699-7.717-5.968c0 0 4.736 5.22 7.933 5.045l.613-3.72s-6.318-1.444-8.562-6.229c0 0 5.129 5.277 8.648 5.436l.135-3.749s-6.141-1.562-8.003-5.583c0 0 6.512 5.47 7.954 4.694 0 0-.07-3.442-.538-4.348 0 0-4.381-1.212-5.252-3.647 0 0 4.719 3.171 5.128 2.695 0 0-1.232-4.462-2.992-6.376 0 0 2.799 2.628 3.649 6.139 0 0 1.216-2.181.931-4.332 0 0 1.744 2.072-.646 5.419 0 0 .829 3.522.608 4.071 0 0 2.799-2.956 3.531-5.6 0 0 .538 3.358-3.536 6.591l-.054 3.771s3.897-3.703 4.715-6.013c0 0 0 3.516-4.806 6.959l-.538 3.658s3.589-2.922 5.026-5.283c0 0-.646 3.261-5.226 6.319l-.651 2.395s2.583-2.18 3.272-2.876.926-.567.926-.567a11.524 11.524 0 01-4.456 4.451s-1.62 4.853-1.351 4.989zM272 .702s3.073 27.316 20.532 20.725c0 0 3.288.028 4.214-3.279 0 0-1.346.204-1.356-2.605a13.35 13.35 0 00-.372-2.961A6.224 6.224 0 00293 9.258s-4.284-7.033-16.614-7.724c0 0-2.949-1.699-3.595-1.484l2.632 4.207s2.858-2.152 5.667-1.416c0 0-5.586 1.212-5.301 2.061.054.176 1.485 2.163 1.485 2.163s5.032-3.737 9.338-2.463c0 0-6.84.498-8.756 3.199l2.298 2.877s5.091-4.202 10.047-2.95c0 0-7.136.793-9.498 3.539l2.68 2.503s5.037-3.998 9.149-2.922c0 0-8.159 1.789-8.514 3.449 0 0 2.567 2.14 3.514 2.367 0 0 3.681-2.78 6.017-1.931 0 0-5.328 1.801-5.247 2.435 0 0 4.052 1.846 6.576 1.642 0 0-3.708.566-6.818-.963 0 0 .818 2.373 2.577 3.522 0 0-2.626.085-3.557-3.964 0 0-3.1-1.574-3.364-2.101 0 0 .377 4.151 1.846 6.433 0 0-2.787-1.699-2.572-7.072l-2.691-2.452s.221 5.521 1.383 7.661c0 0-2.583-2.225-2.023-8.335l-2.309-2.792s-.156 4.768.651 7.44c0 0-1.975-2.605-1.286-8.267l-1.34-2.055v4.49c.048 1.008-.183 1.104-.183 1.104a12.472 12.472 0 01-.42-6.472S272.269.565 272 .701zm130.487 384.351s-25.198-7.361-26.005 12.14c0 0-1.27 3.194 1.286 5.345 0 0 .329-1.381 2.804-.334.883.368 1.805.625 2.745.765a5.63 5.63 0 003.692-.714s7.803-1.506 13.099-13.216c0 0 2.61-2.225 2.691-2.939l-4.698.969s.807 3.601-.904 6.058c0 0 1.076-5.9.199-5.945-.178 0-2.47.628-2.47.628s1.377 6.263-1.373 9.972c0 0 2.153-6.852.501-9.739l-3.412 1.183s1.765 6.546-1.217 10.895c0 0 2.013-7.243.485-10.584l-3.197 1.637s1.614 6.421-.899 10.022c0 0 1.518-8.618.189-9.597 0 0-2.853 1.698-3.407 2.525 0 0 1.076 4.638-.581 6.591 0 0 .43-5.872-.156-6.03 0 0-3.165 3.244-3.94 5.781 0 0 .888-3.834 3.434-6.274 0 0-2.401-.102-4.074 1.172 0 0 .915-2.588 4.843-1.948 0 0 2.562-2.429 3.127-2.48 0 0-3.767-1.212-6.361-.645 0 0 2.572-2.062 7.195.181l3.186-1.699s-4.94-1.874-7.26-1.552c0 0 2.933-1.698 8.073 1.184l3.326-1.195s-4.133-1.953-6.792-2.18c0 0 3.041-.934 7.761 1.88l2.314-.527s-3.046-1.37-3.956-1.698-.904-.567-.904-.567a10.93 10.93 0 015.828 2.039s4.844-.793 4.828-1.104z" class="B"/></g></g><defs><path id="C" d="M399.279 339.549s6.83-8.669 7.034-14.377l-6.835-12.055-6.027-6.795-11.259 22.865s7.438 13.533 17.087 10.362z"/><path id="D" d="M172.836 332.097L176 352.239s77.498-2.378 89.682-.159l-9.208-18.397s-46.859-4.598-83.638-1.586z"/><path id="E" d="M269.051 345.246s28.739-6.348 76.959 1.698l-18.89-14.586-34.368-7.401-24.314 6.795.613 13.494z"/><linearGradient id="A" x1="286.531" y1="339.34" x2="286.531" y2="131.522" gradientUnits="userSpaceOnUse"><stop stop-color="gray" stop-opacity=".25"/><stop offset=".54" stop-color="gray" stop-opacity=".12"/><stop offset="1" stop-color="gray" stop-opacity=".1"/></linearGradient><clipPath id="B"><path d="M0 0h570v447H0z" class="D"/></clipPath></defs></svg>