<svg width="570" height="447" fill="none" xmlns="http://www.w3.org/2000/svg"><g clip-path="url(#clip0)"><path opacity=".1" d="M560.657 199.047c-.102.634-.204 1.268-.317 1.902-3.649 21.597-9.606 42.418-18.465 61.534-.29.634-.586 1.269-.888 1.903a177.122 177.122 0 01-20.806 33.759c-4.413 5.601-9.224 10.918-14.945 14.757-8.019 5.379-17.394 7.565-26.608 9.354-9.574 1.863-19.272 3.398-28.948 5.096a563.03 563.03 0 00-10.225 1.852c-9.349 1.778-18.627 3.833-27.684 6.557-11.2 3.398-22.066 7.775-32.291 13.975-.818.491-1.627.995-2.427 1.512a84.88 84.88 0 00-2.395 1.563c-.78.532-1.566 1.059-2.341 1.597l-1.195.849c-.393.272-.78.566-1.168.838-1.151.827-2.287 1.699-3.423 2.537l-.043.034c-.748.566-1.49 1.132-2.233 1.698-4.192 3.268-8.293 6.688-12.378 10.119l-2.578 2.169c-1.331 1.11-2.662 2.218-3.993 3.324-.781.651-1.572 1.297-2.357 1.942-.571.47-1.136.94-1.717 1.404-2.912 2.362-5.861 4.672-8.869 6.88-.716.527-1.443 1.053-2.153 1.569a111.899 111.899 0 01-19.127 11.087l-.086.039a73.399 73.399 0 01-10.161 3.687 58.332 58.332 0 01-5.984 1.364 50.317 50.317 0 01-16.226.295c-10.597-1.58-20.527-6.795-31.096-8.539-21.807-3.562-42.985 7.927-63.505 16.948a307.458 307.458 0 01-15.236 6.228 308.018 308.018 0 01-10.252 3.686 308.966 308.966 0 01-64.329 14.479c-8.923 1.025-18.228 1.512-27.312.776a87.953 87.953 0 01-10.226-1.398c-11.5-2.265-22.237-7.073-30.886-15.855-7.184-7.186-12.254-16.58-16.118-26.382a133.087 133.087 0 01-4.106-12.083 140.818 140.818 0 01-4.182-19.723 98.852 98.852 0 01-.538-4.53c-.28-2.593-.488-5.198-.624-7.814A142.118 142.118 0 014.042 308.7c3.665-14.943 9.779-29.252 12.47-44.337.113-.634.215-1.268.317-1.902.359-2.265.632-4.572.818-6.92 1.356-18.448-3.89-36.506-8.035-54.592-.145-.634-.29-1.268-.43-1.902a271.714 271.714 0 01-1.276-6.02C4.07 173.9 3.02 153.43 6.426 134.342a74.39 74.39 0 01.355-1.903c2.298-11.823 6.356-23.069 12.572-33.085 6.378-10.284 14.752-18.84 23.68-26.36a173.095 173.095 0 0113.524-10.277 179.512 179.512 0 0110.226-6.495c28.033-16.42 60.017-24.444 91.641-22.65 1.675.091 3.347.212 5.015.363 1.751.159 3.497.347 5.237.566 20.359 2.475 40.169 8.607 59.861 15.317 6.598 2.265 13.18 4.53 19.762 6.795 2.928 1.004 5.854 1.995 8.778 2.973 14.342 4.762 28.922 9.06 43.635 12.299 3.412.755 6.821 1.444 10.226 2.067a230.116 230.116 0 0035.837 3.884c4.664.12 9.328.07 13.993-.153 2.357-.113 4.716-.28 7.077-.498 24.384-2.197 47.897-9.564 71.507-16.483a1124.87 1124.87 0 0110.226-2.962c4.488-1.268 8.982-2.497 13.492-3.63 28.082-7.095 53.107-3.018 79.214 11.614 5.92 3.324 11.84 7.333 15.5 13.54 3.659 6.205 4.547 13.89 5.225 21.284.958 10.521 1.615 21.189 1.825 31.903 0 .634 0 1.268.037 1.902.474 21.693-.78 43.55-4.214 64.694z" fill="#3F3474"/><path opacity=".1" d="M374.399 262.483h-1.835v1.903h2.078l-.243-1.903zm-20.8 0a.114.114 0 000 .045l-.162 1.575v.283h15.93v-.113l1.136-1.79h-16.904zm-42.597 0v-61.534H329.3c-.194-.17-.393-.339-.597-.498l-.269-.215a5.21 5.21 0 00-.345-.272c-.118-.085-.398-.3-.608-.447-.21-.148-.339-.244-.538-.363l-.124-.085h-15.817V195.7l-.425.215-.452.266h-.032l-.097.063-.28.192c-.097.063-.194.125-.285.193-.28.198-.539.413-.835.634l-.269.226c-.183.148-.355.301-.538.453-.716.618-1.421 1.263-2.153 1.858-.183.153-.366.3-.538.441-.391.302-.797.582-1.216.838a5.781 5.781 0 01-.538.312l-.302.147-.274.125c-.646.287-1.317.51-2.002.668v60.152h-27.447c0 .068.038.13.054.198.15.567.301 1.133.446 1.699h26.952v65.962h.42l.479.034.872.068 1.41.147.635.08.7.09h.102c.404.057.813.125 1.227.193l.264.045.592.102.85.158 2.04-.113.28.062c.113 0 .225.046.344.074v-66.896H353.4v-.283l.161-1.575a.17.17 0 010-.045h-42.559zm63.397 0h-1.835v1.903h2.078l-.243-1.903zm-21.946 0l-.183 1.903h17.722l1.205-1.903h-18.744zm-41.44 0v-61.534h18.298c-.194-.17-.393-.339-.597-.498l-.27-.215a5.467 5.467 0 00-.344-.272c-.118-.085-.398-.3-.608-.447-.21-.148-.339-.244-.538-.363l-.124-.085h-15.828V195.7l-.425.215-.452.266h-.032l-.097.063-.28.192c-.097.063-.194.125-.285.193-.28.198-.539.413-.835.634l-.269.226c-.183.148-.355.301-.538.453-.716.618-1.421 1.263-2.153 1.858-.183.153-.366.3-.538.441-.391.302-.797.582-1.216.838a5.781 5.781 0 01-.538.312l-.302.147-.274.125c-.646.287-1.317.51-2.002.668v60.152h-27.447c0 .068.038.13.054.198.15.567.306 1.133.452 1.699h26.946v65.956l.42.029.479.034.872.068 1.41.147.635.079.7.091h.102c.404.056.813.124 1.227.192l.264.046.592.101.85.159 2.04-.113.28.062c.113 0 .225.045.344.074v-66.919h41.284l.193-1.903h-41.45zM449.68 134.342h115.293c0-.634.001-1.269-.037-1.903H449.68v-74.71a778.8 778.8 0 00-10.226 2.961v71.749H314.059l-.318-.362.479-.566 46.639-53.856a186.58 186.58 0 01-13.993.153L311.002 119.2V73.94a268.076 268.076 0 01-10.225-2.066v45.243l-52.435-60.515c-6.582-2.265-13.164-4.57-19.762-6.795l71.271 82.27-.317.362H168.719v-97.96c-1.744-.208-3.49-.397-5.237-.567a125.09 125.09 0 00-5.016-.362v98.889h-91.64V56.223A170.75 170.75 0 0056.6 62.716v69.722H6.76a74.39 74.39 0 00-.356 1.903h50.153v64.705H9.181c.14.634.286 1.268.43 1.902H56.58v61.534H16.813c-.103.634-.205 1.269-.318 1.903H56.58V436.44a87.953 87.953 0 0010.225 1.398V264.386h91.662v158.197a338.095 338.095 0 0010.253-3.686V264.386h132.036v138.22a73.265 73.265 0 0010.161-3.686l.086-.04V264.386h128.42v64.818a627.786 627.786 0 0110.225-1.852v-62.966h91.313c.301-.634.597-1.269.888-1.903H449.68v-61.534h110.665c.113-.634.215-1.268.318-1.902H449.68v-64.705zm-382.85 0h91.636v64.705h-91.64l.005-64.705zm0 128.141v-61.534h91.636v61.534H66.831zm101.894-128.141h132.031v64.705H168.719l.005-64.705zm0 128.141v-61.534h132.031v61.534H168.724zm270.703 0H311.002v-61.534h128.42l.005 61.534zm0-63.419H311.002v-62.99l1.803-1.732h126.617l.005 64.722zm-85.823 63.419a.17.17 0 000 .045l-.161 1.575v.283h15.93v-.113l1.135-1.79h-16.904zm20.801 0h-1.835v1.903h2.077l-.242-1.903zm-63.398 0v-61.534h18.298a12.49 12.49 0 00-.597-.498l-.269-.215a5.467 5.467 0 00-.344-.272c-.119-.085-.399-.3-.609-.447-.209-.148-.339-.244-.538-.363l-.124-.085h-15.822V195.7l-.425.215-.452.266h-.032l-.097.063-.28.192c-.097.063-.194.125-.285.193-.28.198-.539.413-.835.634l-.269.226c-.183.148-.355.301-.538.453-.716.618-1.421 1.263-2.153 1.858-.183.153-.366.3-.538.441-.391.302-.797.582-1.216.838a5.781 5.781 0 01-.538.312l-.302.147-.274.125c-.646.287-1.317.51-2.002.668v60.152h-27.447c0 .068.038.13.054.198.15.567.301 1.133.446 1.699h26.952v65.962h.42l.479.034.872.068 1.41.147.635.08.7.09h.102c.404.057.813.125 1.227.193l.264.045.592.102.85.158 2.04-.113.28.062c.113 0 .225.046.344.074v-66.896H353.4v-.283l.161-1.575a.17.17 0 010-.045h-42.554z" fill="#3F3474"/><path opacity=".1" d="M110.886 89.79h.818a2.008 2.008 0 01-.685-.701 2.143 2.143 0 01-.289-.959c0-1.313 1.528-2.383 3.396-2.383h23.76c1.868 0 3.396 1.07 3.396 2.383 0 1.309-1.528 2.384-3.396 2.384h-.791c.279.172.513.413.682.702.169.29.268.619.287.958 0 1.132-1.109 2.06-2.594 2.315h6.84c1.862 0 3.391 1.07 3.391 2.384 0 1.314-1.529 2.378-3.391 2.378h-23.787c-1.862 0-3.391-1.07-3.391-2.378 0-1.132 1.109-2.06 2.594-2.316h-6.84c-1.862 0-3.39-1.07-3.39-2.383 0-1.314 1.517-2.384 3.39-2.384zm257.529 22.689h.796a2.012 2.012 0 01-.686-.704c-.17-.29-.268-.62-.288-.961 0-1.308 1.529-2.378 3.396-2.378h23.761c1.867 0 3.396 1.07 3.396 2.378 0 1.314-1.529 2.384-3.396 2.384h-.791c.279.173.513.415.682.705.169.29.267.62.286.96 0 1.132-1.108 2.055-2.594 2.31h6.841c1.862 0 3.39 1.076 3.39 2.384 0 1.308-1.528 2.384-3.39 2.384h-23.756c-1.862 0-3.39-1.07-3.39-2.384 0-1.132 1.109-2.061 2.594-2.31h-6.851c-1.862 0-3.391-1.076-3.391-2.384 0-1.308 1.54-2.384 3.391-2.384zm-293.98 97.094h.797a2.013 2.013 0 01-.683-.705 2.149 2.149 0 01-.286-.96c0-1.308 1.523-2.383 3.39-2.383h23.761c1.868 0 3.396 1.075 3.396 2.383 0 1.314-1.528 2.384-3.396 2.384h-.791c.279.173.513.415.682.705.169.291.268.62.287.96 0 1.133-1.109 2.056-2.594 2.31h6.84c1.867 0 3.39 1.071 3.39 2.384 0 1.314-1.523 2.384-3.39 2.384H82.072c-1.862 0-3.39-1.076-3.39-2.384 0-1.132 1.114-2.061 2.594-2.316h-6.84c-1.863 0-3.391-1.07-3.391-2.378s1.528-2.384 3.39-2.384z" fill="#3F3474"/><path d="M349.234 372.675a3900.992 3900.992 0 01-3.993 3.323c-.78.652-1.572 1.297-2.357 1.943-.571.47-1.136.94-1.717 1.404-2.912 2.361-5.861 4.672-8.869 6.88-.716.526-1.443 1.053-2.153 1.568a111.899 111.899 0 01-19.127 11.087l-.086.04v-26.245h38.302z" fill="#65617D"/><path d="M409.123 269.527l.602-19.563c-.36-.295-.726-.567-1.076-.839a109.631 109.631 0 00-.947-17.446c-2.433-19.563-18.228-19.988-22.684-15.951a10.743 10.743 0 01-1.922 1.393c.404-2.791.904-5.589 1.265-8.352 1.948-14.903-1.076-31.67-12.066-41.302-4.601-4.026-10.225-6.5-15.279-9.869-9.052-6.008-16.204-14.881-25.359-20.731-9.154-5.849-22.011-8.04-29.998-.521-3.094 2.911-5.091 6.948-8.266 9.757-5.92 5.232-15.15 5.577-20.316 11.421-.259.294-.506.594-.743.912-4.305 5.809-3.127 14.048-1.754 21.256 1.652 8.675.968 15.629 8.04 18.12.027.346.048.691.086 1.031a38.044 38.044 0 004.904 15.016c2.655 4.57 6.227 8.474 10.466 11.439l-1.146.43c-3.057 1.133-5.807 2.231-7.567 2.984-6.458 2.769-20.052 6.376-20.052 6.376s-.323 4.077-.264 10.091c-4.531 5.181-12.093 14.286-14.315 19.682-3.23 7.871-21.474 30.414-26.334 33.817-4.859 3.403-10.128 7.44-10.128 7.44s-7.696 4.468-11.339 4.892c-2.524.295-10.333-1.279-10.333-1.279s-31.188-40.204-29.164-9.355c2.023 30.849 26.936 31.897 26.936 31.897l25.116-.425s13.573 1.914 19.649-3.397c5.188-4.53 32.076-29.383 40.713-40.657.199.233.399.459.608.68 0 0 3.439-4.677 3.848 0 .409 4.677-2.233 6.795-.812 8.494 1.421 1.698 5.672 7.655 5.871 9.994.199 2.338-5.667 11.891 4.252 19.139.156.113.323.221.506.328 1.77 4.242 7.4 8.392 7.4 8.392l30.38-.425 57.321 4.678s1.706-1.58 4.015-4.162c3.084 2.978 7.362 5.532 12.184 3.963 0 0 6.889-8.714 7.093-14.456 0 0-4.456-12.123-6.458-15.736-2.002-3.612 1.421-11.483 1.421-11.483s2.427-7.656 3.848-7.656c1.421 0 .404-5.096.404-5.096a6.4 6.4 0 01-.98-2.792c-.105-1 .022-2.013.372-2.95 1.189-3.222 2.002-9.179 2.002-9.179z" fill="url(#paint0_linear)"/><path d="M374.76 265.122l-2.153 2.65-8.697 10.657-11.361.724-18.185 1.178s-24.519-31.087-19.912-37.853c1.674-2.441 1.948-5.663 1.614-8.703a19.318 19.318 0 00-.172-1.252 37.508 37.508 0 00-2.863-9.286l.603-.289.387-.187 21.441-10.294 5.307-2.548a15.59 15.59 0 001.453 4.405c.102.215.215.43.333.634 7.314 12.741 30.768 4.683 30.768 4.683l1.437 45.481z" fill="#EE8E9E"/><path d="M406.464 249.216c-.161 7.712-1.356 11.042-1.356 11.042l-30.348 4.864-1.136-8.29-4.493-32.735 4.219-4.439c1.686.383 3.432.353 5.105-.087a11.07 11.07 0 004.544-2.45c4.419-4.02 20.096-3.595 22.507 15.855.708 5.38 1.028 10.809.958 16.24z" fill="#EE8E9E"/><path d="M399.279 339.549s6.83-8.669 7.034-14.377l-6.835-12.055-6.027-6.795-11.259 22.865s7.438 13.533 17.087 10.362z" fill="#DFE5EE"/><path opacity=".1" d="M399.279 339.549s6.83-8.669 7.034-14.377l-6.835-12.055-6.027-6.795-11.259 22.865s7.438 13.533 17.087 10.362z" fill="#000"/><path d="M342.884 377.941c-.571.47-1.136.94-1.717 1.404-2.912 2.361-5.861 4.672-8.869 6.88-.716.526-1.443 1.053-2.153 1.568H158.466l-50.793-1.914-40.847-.362-10.226-.566-51.02-2.831a140.791 140.791 0 01-4.202-19.74 98.852 98.852 0 01-.538-4.53l55.739 3.251 10.225.605 91.641 5.38 10.252.6 132.037 7.758 10.16.6h.087l31.903 1.897z" fill="#D48A9B"/><path d="M411.738 335.761c-11.199 3.398-22.065 7.775-32.291 13.975-.812.493-1.614.997-2.427 1.512a85.16 85.16 0 00-2.395 1.563c-.78.532-1.566 1.059-2.341 1.597l-1.195.849-1.167.838c-1.152.832-2.288 1.699-3.423 2.537l-.043.034c-.748.566-1.491 1.132-2.234 1.698-4.192 3.268-8.293 6.688-12.378 10.119-.861.725-1.724 1.448-2.588 2.169l-3.983 3.324c-.78.651-1.571 1.297-2.357 1.942-.571.47-1.136.94-1.717 1.404l-30.138-1.512h-.086l-10.161-.498-132.095-6.585-10.253-.516-91.64-4.58-10.226-.516-55.222-2.735a98.852 98.852 0 01-.539-4.53c-.28-2.593-.487-5.198-.624-7.814l56.38-20.951 10.225-3.811 9.289-3.454 16.926.929 39.12 2.112 26.327 1.455 10.253.566 6.549.363 1.566.09 55.121 3.03.581.039 24.595 1.348h.441l2.459.13 8.385.465 10.484.566 3.455.192.651.04 4.887.266 1.394.074 4.666.26 1.856.108h.447l4.365.243 6.759.374h.032l2.099.113h.226l1.254.074 3.079.17 2.691.147h.026l3.02.164h.048l2.287.13 1.755.097 6.227.345 1.119.062h.387l.539.034 1.824.102.818.046 6.351.345h.581l9.375-.085h.064l35.644-.306h3.525l11.474-.096h1.711l8.186-.051z" fill="#EFC6CD"/><path d="M171.178 336.537l3.315 18.556 90.134-1.427s6.781 2.061 6.631-3.647c0 0 13.718-13.641 83.202 2.22l-26.678-22.044-72.923 4.122-84.558-2.378.877 4.598z" fill="#3F3474"/><path d="M172.836 332.097L176 352.239s77.498-2.378 89.682-.159l-9.208-18.397s-46.859-4.598-83.638-1.586z" fill="#fff"/><path opacity=".1" d="M172.836 332.097L176 352.239s77.498-2.378 89.682-.159l-9.208-18.397s-46.859-4.598-83.638-1.586z" fill="#000"/><path d="M173.993 332.024l3.121 18.731s76.513-2.208 88.568-.147l-9.079-17.106s-46.294-4.281-82.61-1.478z" fill="#fff"/><path opacity=".1" d="M175.397 332.601l3.041 17.52s74.834-2.067 86.647-.136l-8.88-16.008s-45.282-4.02-80.808-1.376z" fill="#000"/><path d="M176 331.962l3.057 17.553s74.834-2.067 86.647-.136l-8.902-16.024s-45.277-4.015-80.802-1.393z" fill="#fff"/><path d="M123.054 284.323s3.918 5.385-1.803 13.522c-5.72 8.137-10.446 15-8.535 20.074 0 0 8.611-15.108 15.661-15.289 7.05-.181 2.411-9.224-5.323-18.307z" fill="#3F3474"/><path opacity=".1" d="M123.054 284.323c.345.523.615 1.095.802 1.699 6.857 8.494 10.511 16.421 3.918 16.591-6.141.181-13.503 11.733-15.268 14.654.061.219.131.44.21.663 0 0 8.611-15.107 15.661-15.289 7.05-.181 2.411-9.235-5.323-18.318z" fill="#000"/><path d="M130.336 291.192c0 1.891-.205 3.431-.452 3.431-.248 0-.452-1.54-.452-3.431s.253-1.008.5-1.008c.248 0 .404-.889.404 1.008z" fill="#FFD037"/><path d="M132.833 293.451c-1.582.912-2.96 1.461-3.078 1.229-.119-.232 1.076-1.133 2.647-2.061 1.572-.929.958-.249 1.077 0 .118.249.936-.074-.646.832z" fill="#FFD037"/><path d="M102.372 284.323s-3.918 5.385 1.808 13.522c5.727 8.137 10.441 15 8.536 20.074 0 0-8.638-15.108-15.666-15.289-7.029-.181-2.412-9.224 5.322-18.307z" fill="#3F3474"/><path opacity=".1" d="M102.372 284.323a6.979 6.979 0 00-.802 1.699c-6.856 8.494-10.51 16.421-3.918 16.591 6.141.181 13.509 11.733 15.274 14.654-.058.219-.128.44-.21.663 0 0-8.638-15.107-15.666-15.289-7.029-.181-2.412-9.235 5.322-18.318z" fill="#000"/><path d="M95.09 291.192c0 1.891.205 3.431.453 3.431.247 0 .452-1.54.452-3.431s-.253-1.008-.5-1.008c-.248 0-.404-.889-.404 1.008z" fill="#FFD037"/><path d="M92.593 293.451c1.583.912 2.966 1.461 3.084 1.229.119-.232-1.076-1.133-2.648-2.061-1.571-.929-.958-.249-1.076 0-.118.249-.942-.074.64.832z" fill="#FFD037"/><path d="M133.769 310.654l-.193 1.698-.275 2.373-.113.991-.274 2.378-.119.991-.28 2.378-3.132 27.022c-.28 2.412-4.025 4.292-8.546 4.292h-16.264c-4.52 0-8.26-1.88-8.54-4.292l-3.138-27.022-.275-2.378-.113-.991-.28-2.378-.112-.991-.275-2.373-.2-1.698c-.155-1.365 1.868-2.514 4.43-2.514h33.292c2.556 0 4.585 1.149 4.407 2.514z" fill="#65617D"/><path d="M133.592 312.335l-.275 2.379H92.114l-.274-2.379h41.752zm-.388 3.37l-.274 2.378H92.507l-.28-2.378h40.977zm-.393 3.369l-.274 2.372H92.895l-.275-2.372h40.191z" fill="#9D9CB5"/><path d="M183.438 308.468s-10.452-10.572-10.048 3.171c.404 13.743 10.048-3.171 10.048-3.171z" fill="#EE8E9E"/><path d="M277.291 284.363c-.232 1.064-1.357 2.831-3.111 5.045-9.063 11.484-34.847 35.351-39.901 39.779-6.027 5.289-19.492 3.397-19.492 3.397l-24.918.425s-24.718-1.059-26.731-31.71c-2.013-30.651 28.938 9.304 28.938 9.304s7.749 1.563 10.252 1.268c3.616-.419 11.253-4.858 11.253-4.858s5.226-4.021 10.048-7.401c4.822-3.381 22.91-25.798 26.128-33.624 2.04-4.966 8.611-13.086 13.148-18.352 2.605-3.029 4.537-5.096 4.537-5.096s11.253 35.266 9.849 41.823z" fill="#EE8E9E"/><path opacity=".1" d="M277.291 284.363c-.232 1.064-1.357 2.831-3.111 5.045-9.149-9.802-11.06-29.36-11.275-41.794a182.137 182.137 0 014.537-5.097s11.253 35.289 9.849 41.846zm95.311-16.591l-8.692 10.657-11.361.724-18.185 1.178s-24.519-31.087-19.912-37.853c1.674-2.441 1.948-5.663 1.614-8.703a19.318 19.318 0 00-.172-1.252 37.508 37.508 0 00-2.863-9.286l.603-.289.387-.187a42.36 42.36 0 011.97 8.669c.059.402.113.821.167 1.252.188 1.529.36 3.227.538 5.096 1.399 17.112 11.63 23.55 16.248 25.6a46.015 46.015 0 014.348 2.214c4.443 2.578 9.566 3.552 14.585 2.774 11.398-1.574 20.693-10.288 20.693-10.288l.048 8.578-.016 1.116z" fill="#000"/><path d="M372.952 334.266s-74.759-.215-84.613-7.401c-9.854-7.185-4.014-16.704-4.219-19.031-.204-2.327-4.418-8.245-5.823-9.943-1.405-1.699 1.205-3.806.802-8.455-.404-4.648-3.816 0-3.816 0-14.073-15.016-11.059-53.074-11.059-53.074s13.454-3.59 19.912-6.347c1.749-.748 4.472-1.812 7.535-2.962l1.135-.43c7.895-2.973 17.281-6.331 17.281-6.331s1.803-1.342 3.617 2.673c.828 1.846 1.663 4.819 2.33 9.569.059.402.113.822.167 1.252.188 1.529.36 3.227.538 5.096 1.399 17.112 11.63 23.55 16.248 25.6a46.015 46.015 0 014.348 2.214c4.443 2.578 9.566 3.552 14.585 2.775 11.398-1.575 20.693-10.289 20.693-10.289l.048 8.579.14 25.775.151 40.73z" fill="#DFE5EE"/><path d="M369.733 300.858l-1.205 8.035s-29.745 7.82-41.397 10.147c-11.651 2.327-36.779-.634-38.587 4.439-1.808 5.074 7.637 12.056 7.637 12.056l30.138-.425 56.874 4.654s21.705-20.09 14.671-34.048c-7.034-13.958-28.131-4.858-28.131-4.858z" fill="#EE8E9E"/><path opacity=".1" d="M308.44 237.421s-13.669 11.84-11.054 17.554c2.616 5.713 11.054-17.554 11.054-17.554zm-16.882 21.353s-13.869 25.164-13.062 27.067c.807 1.902 4.623 8.669 4.419 3.596-.205-5.074 8.643-30.663 8.643-30.663zm5.629 4.445s-3.229 15.646-6.431 22.203c-3.202 6.557 6.431-22.203 6.431-22.203zm45.395-48.244c-2.657 5.127-6.443 9.51-11.04 12.783-4.597 3.273-9.872 5.339-15.384 6.028h-.065c-8.67 1.071-17.406-1.335-24.465-6.738 8.072-3.07 18.416-6.761 18.416-6.761s1.803-1.342 3.617 2.672l27.135-13.023c.304 1.778.91 3.485 1.786 5.039z" fill="#000"/><path d="M346.823 196.187c.01 6.368-1.567 12.628-4.574 18.154a36.776 36.776 0 01-5.183 7.259c-5.595 6.129-13.05 10.007-21.075 10.963h-.07a32.42 32.42 0 01-3.864.232c-8.542 0-16.786-3.309-23.158-9.295-6.371-5.987-10.425-14.232-11.388-23.162a37.452 37.452 0 01-.22-4.128c0-9.702 3.662-19.006 10.182-25.866 6.52-6.86 15.363-10.714 24.584-10.714 9.22 0 18.063 3.854 24.583 10.714s10.183 16.164 10.183 25.866v-.023z" fill="#EE8E9E"/><path opacity=".1" d="M369.335 265.405l3.229-5.096s17.685-22.203 34.982-8.035l-.603 19.456s-.807 5.917-2.013 9.06a6.49 6.49 0 00-.367 2.935c.105.995.438 1.948.97 2.778 0 0 1.006 5.097-.398 5.097-1.405 0-3.821 7.61-3.821 7.61s-3.418 7.825-1.405 11.421c2.013 3.596 6.431 15.645 6.431 15.645s-7.034-4.439-9.047-11.84c0 0-17.081-13.958-30.347-5.096l2.389-43.935z" fill="#000"/><path opacity=".1" d="M406.464 249.216c-.161 7.712-1.356 11.042-1.356 11.042l-30.348 4.864-1.136-8.29c3.972-4.36 18.417-18.222 32.84-7.616z" fill="#000"/><path d="M369.335 264.272l3.229-5.096s17.685-22.202 34.982-8.035l-.603 19.456s-.807 5.918-2.013 9.06a6.492 6.492 0 00-.367 2.935c.105.995.438 1.949.97 2.779 0 0 1.006 5.096-.398 5.096-1.405 0-3.821 7.61-3.821 7.61s-3.418 7.826-1.405 11.422c2.013 3.595 6.431 15.645 6.431 15.645s-7.034-4.439-9.047-11.84c0 0-17.081-13.958-30.347-5.096l2.389-43.936z" fill="#DFE5EE"/><path opacity=".1" d="M397.869 249.896s-29.137 18.822-27.732 35.328c0 0 16.28-30.255 27.732-35.328z" fill="#000"/><path opacity=".1" d="M372.597 267.778l.139 25.775c-5.51.261-10.704-.493-14.81-4.247-2.858-2.616-4.521-6.228-5.382-10.136a37.724 37.724 0 01-.7-9.586.769.769 0 010-.096c.339-7.118 1.895-14.236 1.077-21.308-.818-7.073-4.892-14.536-11.544-16.025-1.313-.3-2.788-.408-3.724-1.421-1.034-1.133-.985-2.894-.872-4.462l.194-2.645c.048-.679.069-1.353.069-2.027-.003-6.012-1.991-11.836-5.623-16.477s-8.682-7.812-14.289-8.97l-.215-.039c-1.873-.397-3.821-.788-5.694-.335-3.563.867-5.866 4.502-9.149 6.229-6.297 3.307-16.797-.311-23.39-1.449-.43-.074-.839-.159-1.232-.255a37.453 37.453 0 01-.221-4.128 38.157 38.157 0 013.583-16.156c2.354-5.025 5.774-9.414 9.996-12.829 4.221-3.414 9.132-5.763 14.353-6.864a33.093 33.093 0 0115.76.512c5.146 1.438 9.91 4.101 13.923 7.783 4.014 3.683 7.17 8.285 9.225 13.454a38.29 38.29 0 012.628 16.357 37.994 37.994 0 01-4.51 15.897c.103.215.216.43.334.634 7.314 12.74 30.768 4.683 30.768 4.683l1.41 45.464-2.104 2.667z" fill="#000"/><path d="M303.338 201.38c3.262-1.733 5.565-5.368 9.15-6.229 1.867-.453 3.815-.062 5.699.328l.215.046c5.928 1.234 11.22 4.713 14.873 9.777 3.653 5.065 5.414 11.363 4.948 17.703l-.194 2.644c-.118 1.563-.166 3.335.878 4.456.931 1.014 2.405 1.133 3.718 1.416 6.652 1.495 10.726 8.918 11.544 16.03.818 7.112-.764 14.253-1.076 21.399-.312 7.146.936 15.034 6.071 19.728 8.072 7.361 20.343 3.171 31.026 2.497-4.726 0-8.267-5.13-8.525-10.091-.258-4.96 1.84-9.682 3.848-14.156 2.007-4.473 4.02-9.286 3.573-14.235-.613-6.795-5.704-12.237-7.653-18.777-2.271-7.61-.08-15.781.948-23.692 1.932-14.813-1.077-31.489-11.975-41.064-4.564-4.003-10.144-6.466-15.16-9.818-8.988-5.997-16.076-14.791-25.16-20.623-9.085-5.832-21.839-7.995-29.767-.521-3.067 2.893-5.048 6.908-8.202 9.7-6.162 5.464-15.956 5.566-20.897 12.27-4.252 5.77-3.1 13.964-1.738 21.127 1.813 9.552.791 16.987 10.494 18.686 6.566 1.093 17.06 4.711 23.362 1.399z" fill="#603556"/><path opacity=".1" d="M383.29 286.611c-7.777 1.002-15.483 1.517-21.145-3.647-5.134-4.694-6.399-12.576-6.071-19.728.329-7.151 1.9-14.297 1.077-21.404-.824-7.106-4.892-14.53-11.544-16.025-1.313-.294-2.782-.402-3.719-1.415-1.039-1.133-.996-2.899-.877-4.462l.194-2.645c.465-6.338-1.296-12.636-4.949-17.699-3.653-5.064-8.945-8.542-14.873-9.775l-.215-.045c-1.883-.391-3.832-.781-5.699-.329-3.563.867-5.866 4.53-9.149 6.229-6.302 3.313-16.791-.306-23.395-1.444-9.687-1.67-8.675-9.116-10.494-18.686-1.017-5.345-1.916-11.268-.538-16.33a8.686 8.686 0 00-.743.911c-4.252 5.77-3.1 13.964-1.738 21.127 1.813 9.552.791 16.987 10.494 18.686 6.598 1.133 17.093 4.757 23.395 1.444 3.261-1.733 5.564-5.368 9.149-6.229 1.867-.453 3.815-.062 5.699.329l.215.045c5.928 1.234 11.22 4.713 14.873 9.778 3.653 5.064 5.414 11.363 4.948 17.702l-.193 2.644c-.119 1.563-.167 3.335.877 4.457.931 1.013 2.406 1.132 3.719 1.415 6.652 1.495 10.726 8.919 11.544 16.031.818 7.112-.759 14.252-1.077 21.398-.317 7.146.937 15.034 6.071 19.728 8.073 7.361 20.343 3.171 31.026 2.497-2.901.017-5.339-1.919-6.862-4.558z" fill="#000"/><path d="M164.876 305.501l33.179-13.024a3.015 3.015 0 012.414.089 3.266 3.266 0 011.649 1.859 3.485 3.485 0 01-.085 2.541 3.23 3.23 0 01-1.766 1.734l-33.179 13.024-7.115-.748 4.903-5.475z" fill="#5C5C8E"/><path opacity=".1" d="M201.117 293.361c.293.826.261 1.74-.087 2.542a3.232 3.232 0 01-1.77 1.733l-33.2 13.069-5.339-.567-.769.861 7.114.748 33.179-13.024a3.23 3.23 0 001.767-1.735 3.482 3.482 0 00.084-2.54 3.286 3.286 0 00-1.291-1.659c.119.181.224.372.312.572z" fill="#fff"/><path d="M164.881 305.501l2.207 6.223-5.834-.617-1.275-.136 1.743-1.948 3.159-3.522z" fill="#EFC8C4"/><path d="M161.717 309.006c.136.107.253.24.344.391a.58.58 0 010 .606 1.15 1.15 0 01-.317.243 1.118 1.118 0 00-.327.363 1.177 1.177 0 00-.147.475l-1.281-.13 1.728-1.948z" fill="#727A9C"/><path d="M269.051 345.246s28.739-6.348 76.959 1.698l-18.89-14.586-34.368-7.401-24.314 6.795.613 13.494z" fill="#fff"/><path opacity=".1" d="M269.051 345.246s28.739-6.348 76.959 1.698l-18.89-14.586-34.368-7.401-24.314 6.795.613 13.494z" fill="#000"/><path d="M265.682 352.109s14.472-41.189 88.799.13l-26.677-18.063s-63.909-18.579-71.292 2.831l9.17 15.102z" fill="#fff"/><path opacity=".1" d="M265.682 352.08s14.472-44.037 88.799.793l-26.677-19.592s-63.93-22.22-71.33 1.036l9.208 17.763z" fill="#000"/><path d="M265.682 352.097s14.472-44.688 88.799.142l-26.677-19.592s-63.909-21.586-71.292 1.698l9.17 17.752z" fill="#fff"/><path opacity=".1" d="M265.682 352.109s14.472-49.666 88.799.764l-26.699-22.044s-63.908-22.65-71.292 3.488l9.192 17.792z" fill="#000"/><path d="M265.682 352.08s14.472-50.271 88.799.159l-26.699-22.044s-63.908-22.65-71.292 3.488l9.192 18.397z" fill="#fff"/><path opacity=".1" d="M488.671 347.346s-17.841 20.108-1.782 29.876c0 0 2.099 2.661 5.097 1.268 0 0-1.012-.946 1.017-2.769a12.454 12.454 0 001.91-2.208 6.454 6.454 0 001.109-3.772s2.336-7.978-5.086-18.335c0 0-.672-3.465-1.243-3.844l-1.356 4.83s3.407.911 4.687 3.641c0 0-4.488-3.709-4.924-2.934-.086.159-.608 2.6-.608 2.6s5.92 1.608 7.771 5.889c0 0-4.784-5.17-7.976-4.966l-.581 3.725s6.335 1.382 8.611 6.173c0 0-5.177-5.227-8.697-5.346l-.102 3.743s6.151 1.472 8.029 5.47c0 0-6.56-5.396-7.997-4.609 0 0 .102 3.448.538 4.349 0 0 4.392 1.132 5.285 3.59 0 0-4.747-3.121-5.156-2.645 0 0 1.276 4.451 3.052 6.348 0 0-2.82-2.599-3.703-6.104 0 0-1.194 2.191-.893 4.343 0 0-1.76-2.05.597-5.425 0 0-.861-3.511-.646-4.066 0 0-2.771 2.985-3.482 5.663 0 0-.538-3.352 3.477-6.631v-3.771s-3.864 3.743-4.661 6.059c0 0-.053-3.511 4.742-7.005l.538-3.663s-3.563 2.956-4.978 5.334c0 0 .613-3.273 5.166-6.376l.63-2.401s-2.562 2.208-3.229 2.91c-.667.703-.92.567-.92.567a11.576 11.576 0 014.413-4.496s1.647-4.881 1.351-5.012zM568.423 20.17s-23.836 11.325-12.599 26.834c0 0 .964 3.313 4.236 3.245 0 0-.587-1.286 1.953-2.146a11.53 11.53 0 002.573-1.263 6.165 6.165 0 002.406-3.03s5.08-6.41 2.029-18.975c0 0 .651-3.47.263-4.054l-3.024 3.907s2.809 2.22 2.992 5.26c0 0-2.777-5.243-3.466-4.7-.14.108-1.512 2.147-1.512 2.147s4.843 3.884 5.01 8.59c0 0-2.518-6.716-5.543-7.826l-1.9 3.205s5.339 3.845 5.694 9.19c0 0-2.863-6.919-6.065-8.46l-1.469 3.398s5.139 3.856 5.381 8.307c0 0-4.074-7.644-5.688-7.497 0 0-1.168 3.216-1.076 4.23 0 0 3.627 2.831 3.562 5.459 0 0-3.229-4.802-3.767-4.53 0 0-.457 4.62.49 7.095 0 0-1.652-3.545-1.179-7.135 0 0-1.91 1.54-2.416 3.647 0 0-.872-2.61 2.54-4.768 0 0 .49-3.585.893-4.01 0 0-3.654 1.626-5.279 3.789 0 0 .726-3.313 5.64-4.706l1.399-3.465s-4.935 1.88-6.523 3.692c0 0 1.238-3.262 6.943-4.53l1.835-3.16s-4.37 1.286-6.55 2.9c0 0 1.771-2.764 7.11-3.783l1.458-1.96s-3.175.997-4.063 1.371c-.888.374-1.076.153-1.076.153a10.98 10.98 0 015.753-2.356s3.229-3.839 3.035-4.065zm-226.234 7.01s-35.81 10.758-18.4 26.772c0 0 1.545 3.397 6.501 3.397 0 0-.925-1.313 2.906-2.112 1.32-.279 2.613-.68 3.865-1.2 1.476-.544 2.732-1.6 3.562-2.996 0 0 7.535-6.342 2.589-19.127 0 0 .899-3.489.296-4.089l-4.478 3.862s4.306 2.327 4.666 5.402c0 0-4.343-5.374-5.381-4.847-.21.108-2.239 2.123-2.239 2.123s7.47 4.066 7.809 8.828c0 0-3.983-6.857-8.611-8.063l-2.799 3.182s8.181 4.038 8.853 9.45c0 0-4.51-7.072-9.396-8.72l-2.153 3.398s7.879 4.043 8.396 8.55c0 0-6.367-7.842-8.81-7.746 0 0-1.685 3.228-1.534 4.253 0 0 5.565 2.99 5.538 5.617 0 0-5.027-4.95-5.856-4.689 0 0-.57 4.66.926 7.186 0 0-2.594-3.63-1.97-7.242 0 0-2.847 1.5-3.563 3.612 0 0-1.388-2.655 3.725-4.74 0 0 .651-3.612 1.248-4.03 0 0-5.489 1.54-7.895 3.68 0 0 1.012-3.33 8.417-4.598l2.035-3.465s-7.427 1.766-9.784 3.55c0 0 1.792-3.262 10.403-4.394l2.69-3.143s-6.587 1.172-9.848 2.746c0 0 2.61-2.746 10.666-3.624l2.153-1.936s-4.784.917-6.119 1.268-1.614.125-1.614.125a20.346 20.346 0 018.61-2.22s4.909-3.782 4.596-4.02zm105.65 419.826s18.029-19.926 2.061-29.858c0 0-2.077-2.684-5.086-1.325 0 0 1.007.957-1.038 2.763a12.517 12.517 0 00-1.932 2.186 6.408 6.408 0 00-1.141 3.759s-2.417 7.956 4.913 18.386c0 0 .641 3.472 1.206 3.862l1.405-4.819s-3.402-.945-4.656-3.686c0 0 4.451 3.749 4.892 2.979.092-.159.635-2.588.635-2.588s-5.92-1.699-7.717-5.968c0 0 4.736 5.22 7.933 5.045l.613-3.72s-6.318-1.444-8.562-6.229c0 0 5.129 5.277 8.648 5.436l.135-3.749s-6.141-1.562-8.003-5.583c0 0 6.512 5.47 7.954 4.694 0 0-.07-3.442-.538-4.348 0 0-4.381-1.212-5.252-3.647 0 0 4.719 3.171 5.128 2.695 0 0-1.232-4.462-2.992-6.376 0 0 2.799 2.628 3.649 6.139 0 0 1.216-2.181.931-4.332 0 0 1.744 2.072-.646 5.419 0 0 .829 3.522.608 4.071 0 0 2.799-2.956 3.531-5.6 0 0 .538 3.358-3.536 6.591l-.054 3.771s3.897-3.703 4.715-6.013c0 0 0 3.516-4.806 6.959l-.538 3.658s3.589-2.922 5.026-5.283c0 0-.646 3.261-5.226 6.319l-.651 2.395s2.583-2.18 3.272-2.876c.689-.697.926-.567.926-.567a11.524 11.524 0 01-4.456 4.451s-1.62 4.853-1.351 4.989zM272 .702s3.073 27.316 20.532 20.725c0 0 3.288.028 4.214-3.279 0 0-1.346.204-1.356-2.605a13.35 13.35 0 00-.372-2.961A6.225 6.225 0 00293 9.258s-4.284-7.033-16.614-7.723c0 0-2.949-1.7-3.595-1.484l2.632 4.207s2.858-2.152 5.667-1.415c0 0-5.586 1.211-5.301 2.06.054.176 1.485 2.164 1.485 2.164s5.032-3.737 9.338-2.463c0 0-6.84.498-8.756 3.199l2.298 2.876s5.091-4.201 10.047-2.95c0 0-7.136.793-9.498 3.54l2.68 2.502s5.037-3.998 9.149-2.922c0 0-8.159 1.79-8.514 3.449 0 0 2.567 2.14 3.514 2.367 0 0 3.681-2.78 6.017-1.931 0 0-5.328 1.8-5.247 2.435 0 0 4.052 1.846 6.576 1.642 0 0-3.708.566-6.818-.963 0 0 .818 2.373 2.577 3.522 0 0-2.626.085-3.557-3.964 0 0-3.1-1.574-3.364-2.1 0 0 .377 4.15 1.846 6.432 0 0-2.787-1.699-2.572-7.072l-2.691-2.452s.221 5.52 1.383 7.661c0 0-2.583-2.225-2.023-8.335l-2.309-2.792s-.156 4.768.651 7.44c0 0-1.975-2.604-1.286-8.266l-1.34-2.056s-.049 3.483 0 4.49c.048 1.008-.183 1.105-.183 1.105a12.472 12.472 0 01-.42-6.472S272.269.566 272 .702zm130.487 384.351s-25.198-7.361-26.005 12.14c0 0-1.27 3.194 1.286 5.345 0 0 .329-1.381 2.804-.334.883.368 1.805.625 2.745.765a5.632 5.632 0 003.692-.714s7.803-1.506 13.099-13.216c0 0 2.61-2.225 2.691-2.939l-4.698.969s.807 3.601-.904 6.058c0 0 1.076-5.9.199-5.945-.178 0-2.47.628-2.47.628s1.377 6.263-1.373 9.972c0 0 2.153-6.852.501-9.739l-3.412 1.183s1.765 6.546-1.217 10.895c0 0 2.013-7.243.485-10.584l-3.197 1.637s1.614 6.421-.899 10.022c0 0 1.518-8.618.189-9.597 0 0-2.853 1.698-3.407 2.525 0 0 1.076 4.638-.581 6.591 0 0 .43-5.872-.156-6.03 0 0-3.165 3.244-3.94 5.781 0 0 .888-3.834 3.434-6.274 0 0-2.401-.102-4.074 1.172 0 0 .915-2.588 4.843-1.948 0 0 2.562-2.429 3.127-2.48 0 0-3.767-1.212-6.361-.645 0 0 2.572-2.062 7.195.181l3.186-1.699s-4.94-1.874-7.26-1.552c0 0 2.933-1.698 8.073 1.184l3.326-1.195s-4.133-1.953-6.792-2.18c0 0 3.041-.934 7.761 1.88l2.314-.527s-3.046-1.37-3.956-1.698c-.909-.329-.904-.567-.904-.567a10.93 10.93 0 015.828 2.039s4.844-.793 4.828-1.104z" fill="#3F3474"/></g><defs><linearGradient id="paint0_linear" x1="286.531" y1="339.34" x2="286.531" y2="131.522" gradientUnits="userSpaceOnUse"><stop stop-color="gray" stop-opacity=".25"/><stop offset=".54" stop-color="gray" stop-opacity=".12"/><stop offset="1" stop-color="gray" stop-opacity=".1"/></linearGradient><clipPath id="clip0"><path fill="#fff" d="M0 0h570v447H0z"/></clipPath></defs></svg>