<svg width="233" height="171" fill="none" xmlns="http://www.w3.org/2000/svg"><g clip-path="url(#clip0)"><path d="M232.091 63.319h-97.556v2.861h97.556v-2.86z" fill="#E6E6E6"/><path d="M167.314 39.385H142.6v24.714h24.714V39.385z" fill="#E6E6E6"/><path d="M162.371 44.328h-14.829v14.828h14.829V44.328z" fill="#CCC"/><path d="M204.255 39.385h-6.243v24.714h6.243V39.385z" fill="#E6E6E6"/><path d="M204.255 43.287h-6.243v2.862h6.243v-2.862zm0 12.488h-6.243v2.861h6.243v-2.861z" fill="#CCC"/><path d="M194.63 39.385h-6.244v24.714h6.244V39.385z" fill="#E6E6E6"/><path d="M194.63 43.287h-6.244v2.862h6.244v-2.862zm0 12.488h-6.244v2.861h6.244v-2.861z" fill="#CCC"/><path d="M209.635 39.283l-5.596 2.77 10.966 22.149 5.595-2.77-10.965-22.149z" fill="#E6E6E6"/><path d="M211.366 42.78l-5.595 2.77 1.27 2.565 5.595-2.77-1.27-2.565zm5.541 11.19l-5.595 2.771 1.269 2.565 5.596-2.77-1.27-2.565z" fill="#CCC"/><path d="M151.835 49.305l3.144 5.446 3.144 5.446h-12.576l3.144-5.446 3.144-5.446z" fill="#E6E6E6"/><path d="M157.298 50.346l3.144 5.446 3.145 5.446H151.01l3.144-5.446 3.144-5.446zm2.211-1.596a1.82 1.82 0 100-3.641 1.82 1.82 0 000 3.642zm-24.974-21.852h97.557v-2.862h-97.557v2.862z" fill="#E6E6E6"/><path d="M199.312 24.817h24.715V.102h-24.715v24.715z" fill="#E6E6E6"/><path d="M204.255 19.874h14.829V5.045h-14.829v14.829z" fill="#CCC"/><path d="M162.371 24.817h6.244V.102h-6.244v24.715z" fill="#E6E6E6"/><path d="M162.371 6.866h6.244V4.005h-6.244v2.861zm0 12.487h6.244v-2.861h-6.244v2.861z" fill="#CCC"/><path d="M171.997 24.817h6.243V.102h-6.243v24.715z" fill="#E6E6E6"/><path d="M171.997 6.866h6.243V4.005h-6.243v2.861zm0 12.487h6.243v-2.861h-6.243v2.861z" fill="#CCC"/><path d="M146.026 22.148l5.595 2.77L162.587 2.77 156.991 0l-10.965 22.148z" fill="#E6E6E6"/><path d="M153.99 6.062l5.596 2.77 1.269-2.565-5.595-2.77-1.27 2.565zm-5.54 11.191l5.595 2.77 1.27-2.565-5.595-2.77-1.27 2.565z" fill="#CCC"/><path d="M214.791 10.023l-3.144 5.445-3.144 5.446h12.577l-3.145-5.446-3.144-5.445z" fill="#E6E6E6"/><path d="M209.328 11.063l-3.144 5.446-3.144 5.446h12.577l-3.144-5.446-3.145-5.446zm-2.211-1.595a1.82 1.82 0 100-3.642 1.82 1.82 0 000 3.642zm-72.582 95.995h97.557v-2.862h-97.557v2.862z" fill="#E6E6E6"/><path d="M199.312 103.382h24.715V78.668h-24.715v24.714z" fill="#E6E6E6"/><path d="M204.255 98.44h14.829V83.61h-14.829v14.83z" fill="#CCC"/><path d="M162.371 103.382h6.244V78.668h-6.244v24.714z" fill="#E6E6E6"/><path d="M162.371 85.432h6.244V82.57h-6.244v2.862zm0 12.488h6.244v-2.862h-6.244v2.861z" fill="#CCC"/><path d="M171.997 103.382h6.243V78.668h-6.243v24.714z" fill="#E6E6E6"/><path d="M171.997 85.432h6.243V82.57h-6.243v2.862zm0 12.488h6.243v-2.862h-6.243v2.861z" fill="#CCC"/><path d="M146.026 100.714l5.595 2.77 10.966-22.148-5.596-2.77-10.965 22.148z" fill="#E6E6E6"/><path d="M153.99 84.627l5.596 2.77 1.269-2.564-5.595-2.77-1.27 2.564zm-5.54 11.191l5.595 2.77 1.27-2.564-5.595-2.77-1.27 2.564z" fill="#CCC"/><path d="M214.791 88.588l-3.144 5.446-3.144 5.446h12.577l-3.145-5.446-3.144-5.446z" fill="#E6E6E6"/><path d="M209.328 89.628l-3.144 5.446-3.144 5.446h12.577l-3.144-5.446-3.145-5.446zm-2.211-1.595a1.82 1.82 0 100-3.641 1.82 1.82 0 000 3.641zM114.922 171c63.469 0 114.921-3.654 114.921-8.162 0-4.508-51.452-8.162-114.921-8.162C51.452 154.676 0 158.33 0 162.838 0 167.346 51.452 171 114.922 171z" fill="#E6E6E6"/><path d="M204.704 167.409c-18.739-3.336-39.23-2.781-60.725 0 9.797-8.271 18.252-16.542 8.455-24.813 19.111 3.942 21.787 3.543 43.046 0-4.931 8.271 4.294 16.542 9.224 24.813z" fill="#3F3474"/><path opacity=".2" d="M204.704 167.409c-18.739-3.336-39.23-2.781-60.725 0 9.797-8.271 18.252-16.542 8.455-24.813 19.111 3.942 21.787 3.543 43.046 0-4.931 8.271 4.294 16.542 9.224 24.813z" fill="#000"/><path d="M200.134 163.88c-15.918-2.662-33.325-2.22-51.585 0 8.323-6.602 15.505-13.204 7.183-19.806 16.234 3.147 18.507 2.829 36.566 0-4.189 6.602 3.647 13.204 7.836 19.806z" fill="#3F3474"/><path d="M194.071 153.243a8.481 8.481 0 008.481-8.482 8.48 8.48 0 00-8.481-8.481 8.481 8.481 0 100 16.963z" fill="#2F2E41"/><path d="M155.569 134.924l5.876.979 2.939 8.489-8.489 5.224-9.794-14.692h9.468z" fill="#A0616A"/><path d="M172.219 147.983c7.573 0 13.713-6.139 13.713-13.712 0-7.573-6.14-13.713-13.713-13.713-7.573 0-13.712 6.14-13.712 13.713 0 7.573 6.139 13.712 13.712 13.712z" fill="#A0616A"/><path d="M96.475 84.319s-33.3 3.591-39.177 2.938c-5.877-.653-8.489-1.306-8.489-1.306s-3.918 5.224-1.959 7.51a14.13 14.13 0 003.918 3.264s3.591-.98 6.203 0 29.057 5.224 33.628 1.306c4.57-3.918 5.876-13.712 5.876-13.712z" fill="#2F2E41"/><path d="M98.76 157.124s-21.873-6.203-25.791-33.627v-2.612s-4.328 7.593-5.877 9.141c-1.796 1.796-8.162 17.957-7.835 19.589.326 1.633 0 2.286 0 2.286l-9.468-.98v-2.938s5.06-15.181 5.386-18.773c.327-3.591 12.57-28.567 12.57-28.567s4.57-9.468 12.406 0 8.489 15.998 8.489 15.998l10.12 19.589v20.894zM49.788 84.972L39.341 81.38s-9.794-7.183-7.509 0c2.285 7.182 12.733 22.853 15.671 21.221 2.938-1.633 6.472-5.684 5.685-6.27-.788-.586-6.011-4.83-3.4-11.36z" fill="#2F2E41"/><path d="M51.051 146.056l-8.433 4.118s-10.2 1.569-4.511 4.511c5.688 2.942 21.378 6.081 22.163 3.335.784-2.746.473-7.303-.352-7.182-.825.121-6.513.709-8.867-4.782z" fill="#2F2E41"/><path d="M94.517 135.577s-4.245 18.283 2.938 22.2c7.183 3.918 57.461 4.571 61.379-2.611 3.917-7.183 1.959-7.183 1.959-7.183l-10.448-11.753 8.489-.653s0-2.612-2.939-2.939c-2.938-.326-12.08-3.591-19.915-1.306-7.836 2.286-12.406-4.57-12.406-4.57l-29.057 8.815z" fill="#575A89"/><path d="M88.966 78.442l-5.55 30.363 38.199-4.571 6.856-27.424-39.505 1.632z" fill="#3F3D56"/><path d="M90.11 79.585l-4.572 27.098 34.771-4.081 6.693-24.65-36.893 1.633z" fill="#fff"/><path d="M84.722 109.132l-1.306-.327-.653 1.306 10.448 29.057.982-.375.323-1.91-9.794-27.751z" fill="#B3B3B3"/><path d="M83.416 108.478l10.448 30.363 39.504-5.876-11.753-28.731-38.199 4.244z" fill="#D0CDE1"/><path d="M88.64 107.499v1.633l29.057-3.265-.327-1.633-28.73 3.265zm.653 3.265l4.57 12.733 29.711-3.591-5.224-12.08-29.057 2.938z" fill="#3F3D56"/><path d="M126.512 128.721l-.98-2.612s-7.509-13.06-11.427-10.448c-3.917 2.612 8.163 15.345 8.163 15.345h3.917l.327-2.285zm-24.813 1.959l-.979-3.918s-2.612-12.08 1.959-11.427c4.57.653 5.876 12.08 5.876 12.08l-.326 2.612-6.53.653z" fill="#A0616A"/><path d="M109.535 129.047s-8.489-1.306-8.815.653c-.327 1.959-1.959 31.342 6.203 32.321 8.162.98 48.646 5.224 44.402-4.897-4.245-10.121-10.774-8.815-10.774-8.815l-27.751 2.939-3.265-22.201zm25.629 3.755l-8.652-6.04-5.714 4.407 7.183 7.836 7.183-6.203z" fill="#575A89"/><path opacity=".2" d="M111.984 138.678l1.305 12.407 22.528-1.306-19.589-.327-4.244-10.774z" fill="#000"/><path d="M178.988 153.086c9.016 0 16.324-7.308 16.324-16.324 0-9.015-7.308-16.324-16.324-16.324-9.015 0-16.324 7.309-16.324 16.324 0 9.016 7.309 16.324 16.324 16.324z" fill="#2F2E41"/><path d="M95.007 89.053l20.241-.704 1.959-7.458-20.895.63-1.305 7.532z" fill="#3F3474"/><path d="M89.783 93.297l30.689-.98.326-1.305-30.689 1.08-.326 1.206zm-.653 3.265l30.689-.98.327-1.305-30.69 1.08-.326 1.205zm-.327 2.612l30.689-.98.327-1.306-30.69 1.08-.326 1.206z" fill="#E6E6E6"/></g><defs><clipPath id="clip0"><path fill="#fff" d="M0 0h232.091v171H0z"/></clipPath></defs></svg>