<svg xmlns="http://www.w3.org/2000/svg" xmlns:xlink="http://www.w3.org/1999/xlink" width="256" height="210" fill="none"><style>.B{fill:#3f3d56}.C{fill:#464655}.D{opacity:.1}.E{fill:#3f3474}.F{fill:#a1616a}.G{fill:#464353}.H{fill:#fbbebe}</style><g clip-path="url(#A)"><path d="M249.775 121.245v.474l-.487 8.199a.417.417 0 010 .05l-.076.677-.143 1.146a82.42 82.42 0 01-3.003 13.749 74.126 74.126 0 01-7.84 17.263 65.455 65.455 0 01-3.284 4.79 68.6 68.6 0 01-1.906 2.404 62.344 62.344 0 01-1.402 1.625l-.297.329a77.235 77.235 0 01-8.074 7.673c-4.688 3.886-9.736 7.266-14.864 10.402a23.58 23.58 0 01-.88.521.486.486 0 01-.065.039c-6.97 4.214-14.198 8.017-21.644 11.062-8.153 3.342-16.571 5.772-25.207 6.834-12.039 1.48-24.223.276-36.188-1.792a235.289 235.289 0 01-29.432-7.032l-1.589-.498-2.467-.802a216.3 216.3 0 01-14.716-5.469 193.52 193.52 0 01-34.727-18.646 150.27 150.27 0 01-4.107-2.865 178.77 178.77 0 01-5.589-4.194l-1.136-.88a116.77 116.77 0 01-13.497-12.395c-5.605-6.1-10.395-12.981-13.544-20.837a56.71 56.71 0 01-1.365-3.774l-.039-.127a38.289 38.289 0 01-.578-1.98 44.76 44.76 0 01-.685-2.943 49.245 49.245 0 01-.932-10.713 46.88 46.88 0 011.042-8.855 39.98 39.98 0 012.951-8.744 31.523 31.523 0 014.514-6.962 26.648 26.648 0 014.253-3.975c2.826-2.105 5.959-3.571 9.207-4.73a74.866 74.866 0 014.628-1.472l3.31-.917 3.25-.878 6.22-1.782c5.595-1.709 11.077-3.777 16.148-6.86a44.734 44.734 0 002.438-1.594 43.702 43.702 0 006.074-5.113l.44-.456a36.47 36.47 0 002.242-2.581c.344-.437.677-.883.995-1.336.44-.628.857-1.266 1.242-1.922 1.932-3.282 3.125-6.902 2.985-10.718a16.5 16.5 0 00-.169-1.878l-.904-6.741c-1.005-9.082-.581-17.318 6.235-25.056C85.591 1.349 98.893-.612 111.001.156c35.008 2.214 66.878 22.201 94.885 45.997l7.178 6.251 1.789 1.605c4.428 3.987 8.788 8.124 12.848 12.554l.98 1.081.594.672c1.265 1.433 2.494 2.9 3.685 4.402a83.36 83.36 0 018.418 12.762 72.47 72.47 0 017.392 22.574c.453 2.861.751 5.745.893 8.639.044.852.073 1.706.089 2.558v.818c.026.396.026.781.023 1.177z" class="D E"/><path d="M102.615 116.877l-4.168 74.176 4.168.054 3.386-75.272-3.386 1.042z" class="B"/><path d="M87.248 154.458h-51.57v11.2h51.57v-11.2z" class="E"/><path d="M90.634 164.353v7.033H37.363l-5.589-4.194v-2.839h58.861z" class="B"/><path d="M101.271 148.348l-.537 2.006c-.591 1.919-1.302 3.813-1.44 5.808-.185 2.636.521 5.701-1.302 7.616-.469.494-1.081.864-1.5 1.393-.065.083-.124.17-.177.26-.375.62-.419 1.376-.424 2.084.004 1.511.103 3.02.294 4.519.617 5.157 1.836 10.325.234 15.192a23.39 23.39 0 01-1.013 2.477c-.781 1.719-1.633 3.415-1.888 5.277-.188 1.381-.13 2.803-.141 4.207l-2.466-.803a215.79 215.79 0 01-14.716-5.469l.037-.214c.372-2.318-.138-4.688-.758-6.949-1.302-4.79-3.146-9.532-4.238-14.356a36.32 36.32 0 01-.862-5.73 19.66 19.66 0 01-.052-1.302c-.013-.568 0-1.136.023-1.709.055-1.143.104-2.5-.81-3.196-.503-.377-1.167-.443-1.753-.672-1.13-.44-1.904-1.461-2.8-2.279a3.68 3.68 0 00-1.521-.887 3.66 3.66 0 00-1.759-.076c-5.855 1.341-10.158 6.308-15.607 8.819a15.79 15.79 0 01-.636.281 9.26 9.26 0 00-1.998 1.021c-.437.303-.754.75-.896 1.263-.138.552-.018 1.13.05 1.698a8.67 8.67 0 01-.117 2.769 8.513 8.513 0 01-.279 1.042c-.208.617-.487 1.221-.753 1.823a145.802 145.802 0 01-4.107-2.865 179.235 179.235 0 01-5.589-4.193l-1.117-.899a116.78 116.78 0 01-13.497-12.395c.555-1.563 1.357-3.016 1.743-4.618.219-.919.299-1.875.602-2.769a9.95 9.95 0 011.438-2.578 34.9 34.9 0 018.006-8.012c3.227-2.313 6.954-4.167 9.858-6.793a15.54 15.54 0 003.014-3.57 2.37 2.37 0 00.138-.261 5.37 5.37 0 00.466-1.49c.208-1.166.177-2.448.281-3.568 3.538.613 7.144.721 10.713.323 4.154-.466 8.217-1.62 12.372-2.068a29.31 29.31 0 01.943-.091 43.763 43.763 0 014.001-.115c1.117 0 2.235.05 3.352.086l12.301.417c1.362.047 2.753.099 4.021.596 1.505.592 2.711 1.769 3.678 3.063a15.875 15.875 0 012.256 4.254c.05.135.096.26.141.409.117.362.219.726.31 1.096.07.289.133.578.19.87.286 1.443.456 2.917.909 4.311a6.08 6.08 0 00.102.302c.544 1.526 1.448 2.893 2.13 4.36a16.16 16.16 0 011.12 3.315 16.38 16.38 0 01.032 6.97z" fill="#35323e"/><path d="M63.88 55.139c-1.099-.875-2.693-.234-3.98.331a25.56 25.56 0 01-3.323 1.201 1.416 1.416 0 01-.729.076c-.521-.125-.74-.742-1.128-1.117-.675-.649-1.779-.495-2.649-.143s-1.729.859-2.662.781c-.995-.078-1.86-.813-2.865-.836-1.771-.042-3.258 2.141-4.933 1.563-1.021-.352-1.823-1.68-2.829-1.302-.781.297-.852 1.378-1.323 2.084-.555.823-1.636 1.055-2.56 1.419-2.914 1.151-4.844 4.399-4.464 7.509.211 1.716 1.042 3.29 1.591 4.928 1.63 4.764 1.071 10.137 3.126 14.731.26-.245.406-.336.659-.578a6.03 6.03 0 00-.352 4.324c.216.721.568 1.393.834 2.099.276.792.499 1.601.667 2.422l2.266 9.996c.886 3.907 1.774 7.814 1.927 11.815a34.47 34.47 0 01-.594 7.761c4.105-.68 7.861-2.5 12.02-2.477 1.526 0 3.04.261 4.553.469 4.412.618 8.862.92 13.317.904a5.29 5.29 0 002.042-.287c.573-.244 1.042-.679 1.584-.995 1.06-.625 2.344-.781 3.566-.781 5.571-.101 10.939 1.938 16.474 2.657 2.185-4.587 2.316-10.083.638-14.878-.498-1.424-1.167-2.812-1.365-4.31a21.87 21.87 0 01-.062-2.769 20.083 20.083 0 00-1.258-6.923c-.323-.867-.711-1.75-.677-2.675s.49-1.787.938-2.605c.909-1.667 1.823-3.349 3.107-4.756 1.315-1.453 2.961-2.56 4.589-3.646l4.019-2.698c-.55-3.472-1.258-7.129-2.73-10.322s-3.672-6.129-6.649-7.996a22.036 22.036 0 00-3.141-1.563c-1.521-.641-3.105-1.206-4.753-1.302-1.875-.107-3.722.396-5.574.708-5.829.982-12.689.862-17.315-2.818z" class="E"/><path d="M107.824 115.387l-1.912 2.415-8.936 11.277h-2.258l-92.499.105-.578-1.98-.685-2.943-.112-.573 12.705-8.306 4.777-.026 22.772-.13h2.425l5.438-.029 55.985-.315 1.74-.662.127.136 1.011 1.031z" class="B"/><path d="M107.042 114.085l-.216.261-1.422 1.674-2.927 3.457-6.139 7.238-95.392-2.43-.112-.573a49.29 49.29 0 01-.82-10.14l4.548-2.328 1.042-.537 8.108-4.167 7.116-3.647 86.216 11.192z" fill="#504f60"/><path d="M98.187 126.587l-.044 1.024-.261 5.779-2.92 66.294-1.589-.497-2.466-.802 3.891-70.735 1.677-.521 1.711-.542zm-94.285-.076l-.289 6.582-1.365-3.774-.039-.127-.578-1.98 2.271-.701z"/><use xlink:href="#B" class="F"/><use xlink:href="#B" class="C D"/><path d="M73.704 77.884c9.206 0 16.669-7.463 16.669-16.669S82.91 44.546 73.704 44.546s-16.669 7.463-16.669 16.669 7.463 16.669 16.669 16.669z" class="F"/><path d="M74.035 35.524a21.295 21.295 0 00-3.024.461c-2.636.641-4.915 2.063-7.134 3.459-.995.628-2.019 1.282-2.636 2.204-1.11 1.654-.68 3.758-1.302 5.595-.323.943-.917 1.789-1.419 2.667-1.383 2.407-2.107 5.05-2.818 7.668-.146.542-.188 1.276.404 1.485a1.63 1.63 0 001.011-.115c1.867-.617 4.24-.794 5.626.458s1.268 3.474 2.917 4.428c1.888 1.102 4.837-.229 6.551 1.07.734.557 1 1.451 1.602 2.123 1.401 1.563 4.097 1.487 6.34 1.172 1.287-.182 2.865-.305 3.646.599.375.427.482 1.013.917 1.399.781.698 2.211.344 2.974-.372s1.128-1.685 1.763-2.49c1.237-1.563 3.412-2.414 4.688-3.959 1.068-1.302 1.391-2.933 1.683-4.506l1.086-5.832c.44-2.365.841-4.949-.49-7.032-.474-.75-1.154-1.396-1.563-2.172-.273-.521-.427-1.07-.745-1.563a6.49 6.49 0 00-1.336-1.349l-2.571-2.128a21.736 21.736 0 00-2.81-2.084c-3.67-2.138-9.166-1.576-13.359-1.185z" class="G"/><use xlink:href="#C" class="F"/><path d="M40.814 97.424a.49.49 0 00-.279-.264.49.49 0 00-.383.019.49.49 0 00-.252.29.49.49 0 00.034.382l-.261.128 7.767 15.92 1.404-.685-7.767-15.93-.263.141z" class="B"/><use xlink:href="#C" opacity=".04" class="C"/><path d="M108.92 107.8c-.026 1.662-.091 3.373-.781 4.889-.297.657-.758 1.302-1.448 1.519-.418.096-.85.112-1.274.047a45.994 45.994 0 00-15.234 1.208c1.328-2.657.565-5.842.932-8.79.102-.805.287-1.597.357-2.404.26-2.865-.966-5.647-1.529-8.476a18.976 18.976 0 010-7.418 4.95 4.95 0 01.638-1.784 4.19 4.19 0 011.464-1.274c2.11-1.201 4.597-1.339 6.967-1.18 1.596.107 4.797-.044 6.129.938 1.456 1.076 1.917 4.688 2.31 6.358.589 2.561.99 5.161 1.198 7.78.256 2.855.31 5.722.271 8.587z" class="F"/><path d="M15.622 113.567l9.376 6.251 42.194-1.563-27.869-4.688H15.622z" fill="#fff"/><path d="M27.986 63.9c-1.539 1.357-2.844 2.956-4.303 4.402-2 1.985-4.274 3.672-6.537 5.352.811.227 1.55.66 2.144 1.259a4.87 4.87 0 011.242 2.153l.261 1.156c.261.888.833 1.654 1.448 2.344 2.641 2.977 6.337 5.181 7.894 8.856a.82.82 0 00.313.443.69.69 0 00.404.047c1.409-.148 2.487-1.284 3.386-2.388 1.875-2.344 3.503-4.933 4.428-7.793s1.073-6.022.065-8.856c-.503-1.412-1.279-2.709-2.05-3.993l-2.021-3.365c-.352-.591-.8-1.792-1.49-2.084-1.49-.641-4.227 1.511-5.183 2.467zm76.715 16.834l2.216 5.209a16.1 16.1 0 00-7.523-.749 16.113 16.113 0 00-7.036 2.767c-1.263.904-2.422 2.039-2.993 3.482a1.52 1.52 0 01-1.508-.591 3.02 3.02 0 01-.557-1.594c-.206-2 .552-3.962 1.302-5.832.349-.875.709-1.769 1.328-2.48s1.443-1.18 2.266-1.623a50.45 50.45 0 018.218-3.631c1.198-.388 2.453-.38 3.125.74.779 1.336.552 2.878 1.162 4.3z"/><use xlink:href="#D" class="F"/><use xlink:href="#D" opacity=".04" class="C"/><path d="M95.184 100.864c-1.357.641-2.915.704-4.331 1.196s-2.62 1.378-3.92 2.099c-3.386 1.891-7.293 2.605-11.129 3.284-2.326.417-4.688.834-7.032.735-3.172-.136-6.22-1.193-9.293-1.99s-6.352-1.333-9.397-.438a10.603 10.603 0 00-4.243 2.487 10.58 10.58 0 00-2.659 4.137c-.638 1.873-.727 3.891-.604 5.865.641.472 1.537-.182 1.886-.898s.539-1.594 1.216-2.011c1.175.399 1.461 1.964 2.43 2.737.604.485 1.412.613 2.18.722l3.959.563c.953.135 2.06.226 2.75-.446.336-.325.521-.781.828-1.13.63-.698 1.682-.818 2.62-.724 2.928.291 5.673 2.19 8.579 1.74 1-.154 1.93-.581 2.883-.917 5.649-1.995 11.926-.782 17.805-1.925 2.242-.435 4.402-1.206 6.535-2.019 1.159-.44 2.331-.901 3.321-1.646a6.99 6.99 0 002.149-2.752 7 7 0 00.55-3.449 7.094 7.094 0 00-2.503-4.595c-.458-.39-1.06-1.138-1.61-1.383-1.05-.461-2.079.339-2.969.758z" class="F"/><g class="C D"><path d="M87.573 67.591c-.435-.385-.542-.971-.917-1.399-.781-.904-2.36-.781-3.646-.599-2.243.315-4.949.388-6.34-1.172-.602-.672-.867-1.563-1.602-2.123-1.714-1.302-4.662.031-6.55-1.07-1.649-.961-1.542-3.191-2.917-4.428s-3.758-1.076-5.626-.459c-.316.145-.67.185-1.011.115-.591-.208-.55-.943-.404-1.485.711-2.617 1.435-5.261 2.818-7.668.503-.878 1.097-1.724 1.419-2.667.565-1.651.276-3.519 1.018-5.081-.797.521-1.563 1.089-2.055 1.823-1.109 1.654-.68 3.758-1.302 5.595-.323.943-.917 1.789-1.419 2.667-1.383 2.407-2.107 5.05-2.818 7.668-.146.542-.187 1.276.404 1.485a1.62 1.62 0 001.011-.115c1.867-.617 4.24-.794 5.626.458s1.268 3.474 2.917 4.428c1.888 1.102 4.837-.229 6.551 1.07.734.557 1 1.451 1.602 2.123 1.401 1.563 4.097 1.487 6.34 1.172 1.287-.182 2.865-.305 3.646.599.375.427.482 1.013.917 1.399.781.698 2.211.344 2.974-.373a7.9 7.9 0 001.245-1.703c-.677.206-1.399.174-1.88-.26zm4.746-2.865a7.287 7.287 0 00-.466.675c1-.714 2.06-1.38 2.808-2.29a5.53 5.53 0 00.521-.75c-1.039.745-2.123 1.43-2.862 2.365z" class="D"/></g><path d="M144.939 116.302l.781 74.75 3.647-.52-.782-74.23h-3.646zm21.878 13.543l.782 74.751 3.646-.521-.781-74.23h-3.647zm68.117 37.761l-.015-1.435v-.854l-.355-33.703-.036-1.774h-3.646l.333 31.953v.417l.102 9.733.296-.328 1.402-1.626 1.919-2.383z"/><path d="M162.78 141.957l-2.084 3.115 2.084 14.192 17.711 4.847h28.65l17.19 1.039 8.189-5.605-1.417-9.626-6.251-7.962H162.78z" class="E"/><path d="M160.696 145.072l-1.041 8.652s-5.47 16.963 38.547 15.924 36.464-4.5 36.464-4.5l-.26-10.038s1.534 4.75-20.837 4.107-43.236-2.722-43.236-2.722-7.813 1.383-9.637-11.423z" class="B"/><use xlink:href="#E" class="H"/><use xlink:href="#E" opacity=".05" class="C"/><path d="M194.548 100.302a11.845 11.845 0 002.604 2.604c2.48 1.714 5.663 1.946 8.674 2.04 2.417.072 5.188-.066 6.704-1.951.682-.849.99-1.933 1.266-2.988a132.55 132.55 0 003.62-19.735l6.897.023c2.985 12.781 2.74 26.066 2.479 39.191l-.377 19.138-4.444-.471c-10.551-1.118-21.117-2.235-31.726-2.428a181.516 181.516 0 00-18.628.615l9.676-28.77c1.256-3.74 2.524-7.53 2.818-11.46.425-5.701-1.174-11.721 1.042-16.995.177-.424.401-.865.805-1.086s.914-.167 1.378-.107c.875.117 3.55 0 4.185.56.938.813.318.935-.013 2.245-.591 2.344-1.151 4.514-1.143 6.957.008 4.436 1.383 9.119 4.183 12.617z" class="E"/><path d="M234.934 167.606l3.285-4.79-1.55-3.341c-.698-1.745-1.099-3.594-1.495-5.431l-.404-1.875c-1.458-6.8-2.828-13.697-3.112-20.592a51.91 51.91 0 01-.05-1.719v-2.141c.032-1.562.13-3.138.31-4.706l.115-.922c0-.068.015-.133.026-.201l19.201-.7c1.023-.037 2.107-.094 2.951-.675 1.419-.974 1.586-2.972 1.562-4.688a69.574 69.574 0 00-1.469-12.906c-.672-3.193-1.63-6.456-3.781-8.91-1.766-2.016-4.324-3.482-5.243-5.99-.342-.932-.428-1.956-.87-2.847s-1.175-1.544-1.865-2.232a31.072 31.072 0 01-5.965-8.262c-1.054-2.125-2.198-4.469-3.576-5.939a3.86 3.86 0 00-.205-.213c-1.173-1.159-2.514-1.667-4.103-.878a5.316 5.316 0 00-.812.505 9.94 9.94 0 00-1.545 1.469 35.14 35.14 0 00-4.201 5.99 33.331 33.331 0 00-2.146 4.688 32.43 32.43 0 00-1.159 3.907 36.168 36.168 0 00-.542 2.969c-.521 3.74-.521 7.553-.448 11.34.078 3.479.232 6.967.547 10.434l.261 2.513c.191 1.655.427 3.304.708 4.949l.354 1.88.099.498.016.07c.344 1.453.611 2.923.799 4.404.021.186.037.371.047.555.044.851.037 1.705-.021 2.555l-.2 3.014c0 .177 0 .351-.018.52-.013.508 0 1.016 0 1.524.053 1.215.197 2.425.432 3.618a23.38 23.38 0 002.253 6.365l.302.555c1.321 2.36 2.988 4.524 4.209 6.939a29.916 29.916 0 012.344 6.826l.495 2.344.748 4.147c.294 1.672.604 3.336 1.002 4.969.232.951.493 1.889.797 2.811l1.917-2.402z" class="G"/><use xlink:href="#F" fill="#f86d70"/><use xlink:href="#F" class="C D"/><path d="M206.724 103.935a.483.483 0 00-.112-.16.5.5 0 00-.167-.104.492.492 0 00-.539.138.51.51 0 00-.097.171.495.495 0 00.035.382l-.261.128 7.767 15.919 1.404-.685-7.767-15.929-.263.14z" class="B"/><path d="M216.434 87.261c9.206 0 16.669-7.463 16.669-16.669s-7.463-16.669-16.669-16.669-16.669 7.463-16.669 16.669 7.463 16.669 16.669 16.669z" class="H"/><path d="M238.435 60.272a22.11 22.11 0 00-.589-3.93c-.979-4.212-2.768-8.358-5.85-11.382a22.815 22.815 0 00-.679-2.185.33.33 0 00-.019-.052 24.453 24.453 0 00-3.933-6.972c-.976-1.214-2.242-2.412-3.8-2.459-.437-.016-.901.06-1.302-.141a2.35 2.35 0 01-.727-.745 6.82 6.82 0 00-6.605-2.472l-.161.034a2.704 2.704 0 00-.261.063l-.328.096.352.602a23.39 23.39 0 01.859 1.688c.219.479.421.966.607 1.461-2.667.305-4.839 2.198-6.824 4.001l-4.672 4.24a.175.175 0 00-.024.023l-.135.13c-.034.034-.068.068-.099.104a.23.23 0 00-.034.036 2.48 2.48 0 00-.112.13 1.97 1.97 0 00-.175.26.95.95 0 00-.067.122.2.2 0 00-.019.039 1.06 1.06 0 00-.044.109c-.007.037-.013.059-.018.081a.78.78 0 00.044.552l3.081.034h.362l.045 1.237a17.53 17.53 0 00-1.407 1.172 15.26 15.26 0 00-1.372 1.448c-2.779 3.357-4.23 7.694-4.376 12.059v1.594c0 .26.023.521.044.781a1.95 1.95 0 00.261.966.79.79 0 00.073.094c.156.17.343.308.552.406l.224.109c.112.055.219.107.323.167.982.555 1.562 1.625 2.456 2.313.052.039.104.078.156.112l.117.078.073.047.099.057a2.1 2.1 0 00.201.107l.125.063h.021a4.69 4.69 0 00.315.13l.148.052.045.016c.041.013.085.029.13.039a5.97 5.97 0 00.26.07l.261.057a5.7 5.7 0 00.31.049l.153.021.157.016a9.32 9.32 0 00.75.039c.79-.005 1.579-.06 2.362-.164l6.647-.781c1.508-.175 3.047-.349 4.534-.042 1.261.26 2.423.859 3.647 1.284a12.66 12.66 0 00.831.261l.31.086.143.037.333.081.36.081a17.3 17.3 0 00.505.099c.115.023.232.042.349.063h.023l.334.052h.081l.247.034c.12.018.24.034.362.047a23.94 23.94 0 00.797.086 34.84 34.84 0 001.302.099l.433.026.432.021 1.302.057h.24c.541.038 1.085.01 1.62-.083.094-.018.185-.039.276-.065s.167-.052.26-.083c.977-.375 1.691-1.237 2.186-2.159a9.16 9.16 0 00.289-.591c.088-.201.169-.404.242-.607a9.81 9.81 0 00.237-.768c.021-.07.039-.141.055-.214s.052-.216.073-.326a9.95 9.95 0 00.151-.906c0-.096.023-.195.034-.292.023-.26.041-.503.052-.758v-.583c-.003-.211-.021-.49-.021-.758zm-6.678-15.549a12.96 12.96 0 00-.646-.568 2.7 2.7 0 01.643.568h.003zm-47.315 24.952c-1.961-.242-3.907-1.102-5.842-.68-1.211.26-2.253 1.013-3.222 1.787a39.2 39.2 0 00-9.056 10.353 5.48 5.48 0 00-.836 1.959c-.125.813.097 1.638.36 2.417 1.781 5.264 5.592 9.66 7.326 14.939 1.823 5.553 1.191 11.622-.153 17.31a72.337 72.337 0 01-8.033 19.977 11.414 11.414 0 01-1.849 2.532c-.948.911-2.222 1.563-2.784 2.756-.261.52-.336 1.114-.521 1.672-.521 1.562-1.782 2.901-1.904 4.55-.091 1.258.505 2.448.867 3.646a10.04 10.04 0 01-.185 6.277c-1.32 3.621-4.774 6.913-3.771 10.635 2.237-.644 4.717-1.48 5.771-3.556.373-.734.558-1.609 1.186-2.146 1.252-1.065 3.385-.101 4.716-1.081 1.006-.745 1.042-2.271.594-3.443s-1.219-2.203-1.563-3.409c-.599-2.175.36-4.475.183-6.723-.084-1.041-.404-2.039-.427-3.076-.045-2.013 1.07-3.906 2.552-5.274s3.313-2.274 5.115-3.167l6.814-3.386c2.472-1.224 5.18-2.716 5.991-5.352.307-.987.309-2.04.325-3.071.232-15.76 4.18-31.203 8.105-46.468.61-2.365 1.23-4.74 2.136-7.011s2.68-4.094 3.584-6.204c-5.243-.615-10.033 3.92-15.479 3.238z"/><path d="M222.003 168.547c.601 3.646.969 7.37 1.255 11.077-4.688 3.886-9.736 7.266-14.864 10.402-.292.18-.586.357-.881.521l-.023.125a.76.76 0 00-.042-.086 3.92 3.92 0 00-1.958-1.932l-5.762-12.111c-1.041-2.18-2.083-4.381-2.604-6.733 0-.05-.024-.102-.031-.151-.396-1.823-.487-3.717-.751-5.564a16.01 16.01 0 00-.711-3.109c-.312-.899-.742-1.772-1.122-2.649-.469-1.084-.862-2.18-.881-3.35 0-.372.024-.781-.158-1.094a2.83 2.83 0 00-.711-.687 2.71 2.71 0 01-.876-2.477c-1.562.08-2.443 1.76-3.07 3.185a17.344 17.344 0 01-2.23 3.907 7.416 7.416 0 01-2.469 2.055 5.084 5.084 0 01-.26.12c-2.175.958-4.715.62-7.072.187-2.06-.377-4.191-.846-5.847-2.128l-.177-.14a7.63 7.63 0 01-1.302-1.391c-1.389-1.896-2.003-4.394-2.345-6.772l-.091-.672a25.03 25.03 0 01-.195-5.074c.031-.416.075-.833.13-1.247l.12-.813a.088.088 0 010-.023l.214-1.303c.26-1.476.52-2.992 1.302-4.263a8.07 8.07 0 011.917-2.053c.281-.221.57-.432.862-.635.474-.328.961-.641 1.456-.935a25.18 25.18 0 013.907-1.902c.323-.125.651-.242.979-.354a7.69 7.69 0 013.98-.315 20.81 20.81 0 003.563.208c3.055-.059 6.123-.643 9.173-1.021 4.235-.52 8.785-.583 12.479 1.563.177.102.349.209.52.321 1.824 1.192 3.293 2.865 4.478 4.732a16.7 16.7 0 01.711 1.206 30.76 30.76 0 011.398 2.891 3.6 3.6 0 01.389 1.563 2.12 2.12 0 01-.042.307c-.07.37-.211.729-.261 1.104-.164 1.42 1.042 2.605 1.493 3.957.292.88.26 1.823.424 2.75.237 1.302.875 2.475 1.448 3.647a45.62 45.62 0 012.319 5.826 54.705 54.705 0 011.182 4.219l.315 1.373a66.04 66.04 0 01.722 3.738z" fill="#f86d70"/><path d="M249.772 129.976v1.823l-.336-.005-.375-.006-99.825-1.292-.515-1.331-4.433-11.431.521-2.084 2.344 1.563 102.619 12.763z" class="B"/><path d="M144.809 115.65l4.688 12.242 100.275 2.083v-13.283l-104.963-1.042z" fill="#504f60"/><path d="M150.018 129.194l.781 74.751 3.646-.521-.781-74.23h-3.646zm99.419 2.597h-.376a82.323 82.323 0 01-3.003 13.749l-1.234-14.392 4.527-.521.086 1.164z"/><path d="M235.187 122.943l-38.157.782-11.851-3.907 31.776-1.823 18.232 4.948z" fill="#fff"/><path d="M187.323 107.753a2.563 2.563 0 00-1.042.743 2.746 2.746 0 00-.388 1.182l-.641 3.821c-.097.35-.08.721.05 1.06.166.32.651.487.893.221-.031.748.034 1.545.469 2.154s1.346.93 1.961.506a1.28 1.28 0 00.379.393c.154.102.328.17.51.198a1.27 1.27 0 00.545-.034c.177-.051.341-.14.481-.26-.37.125-.396.69-.133.976a1.7 1.7 0 001.062.425 25.99 25.99 0 0013.518-1.701c.404-.167-.659-5.144-.766-5.654-.26-1.201-.39-2.667-1.404-3.475-2.422-1.932-6.725-2.313-9.676-2.084a16.686 16.686 0 00-5.818 1.529z" class="H"/><path d="M226.147 108.332c-9.421.179-19.037.333-28.028-2.488a19.015 19.015 0 01-.172 10.124l44.048 3.647c1.868.153 9.611 1.028 11.432.588s-15.276-6.071-14.586-7.813c1.899-4.801 8.259-7.614 3.678-7.793-5.782-.229-10.546 3.625-16.372 3.735z" class="C D"/><path d="M226.407 108.852c-9.421.18-19.037.334-28.028-2.487.859 3.328.8 6.827-.172 10.124l44.049 3.646c1.867.154 9.611 1.042 11.431.589s1.394-2.685 2.084-4.428c1.898-4.8-8.41-10.999-12.992-11.179-5.782-.229-10.546 3.626-16.372 3.735z" class="G"/><path d="M211.428 109.577a2.55 2.55 0 011.042.742c.218.36.351.764.391 1.182l.64 3.821a1.71 1.71 0 01-.049 1.06c-.167.321-.654.487-.894.222.029.747-.033 1.544-.468 2.154s-1.347.93-1.964.505a1.28 1.28 0 01-.379.393c-.154.102-.328.17-.51.198a1.27 1.27 0 01-.545-.034 1.287 1.287 0 01-.481-.26c.37.125.399.69.136.977-.296.26-.672.41-1.065.424a25.98 25.98 0 01-13.515-1.701c-.404-.166.656-5.144.765-5.654.261-1.201.391-2.667 1.404-3.475 2.42-1.932 6.725-2.312 9.676-2.083 2.015.153 3.986.671 5.816 1.529z" class="H"/><path d="M149.179 101.281c-.865 1.115-1.732 2.253-2.289 3.553-1.066 2.479-.909 5.287-.732 7.98.049.781.112 1.578.521 2.227.353.49.82.887 1.359 1.159 2.256 1.281 4.897 1.664 7.475 1.951 3.949.437 7.911.704 11.888.799 9.85.24 19.852-.565 29.447 1.667-1.188-1.805-1.185-4.193-.521-6.251s1.943-3.849 3.196-5.612c-4.392-1.391-9.101.781-13.7.565-4.722-.222-9.093-2.951-13.82-2.949-1.016 0-2.05.128-3.037-.117s-1.943-.99-2.034-2.003c1.26.284 2.456-.794 2.977-1.977s.614-2.518 1.12-3.709c1.258-2.961 4.657-4.334 6.772-6.772.333-.385.648-.841.638-1.352a2.12 2.12 0 00-.521-1.164c-1.758-2.344-4.407-3.646-6.608-5.47-.766-.636-2.31-3.032-3.17-3.253-1.594-.409-2.945 1.894-3.982 3.016a276.774 276.774 0 00-14.979 17.711z" class="G"/><path opacity=".07" d="M201.552 100.619a8.64 8.64 0 011.742 1.727 2.97 2.97 0 01.516 1.107 2.96 2.96 0 01.028 1.222 3.483 3.483 0 012.17-3.602l-4.456-.454z" class="C"/><g class="C D"><path d="M215.996 32.318a22.55 22.55 0 00-1.057-2.383 6.48 6.48 0 00-.761.195 21.87 21.87 0 011.206 2.3c.201-.052.404-.088.612-.112zm15.112 10.269l.206.182a.424.424 0 00-.018-.05l-.188-.133zm-24.212 1.146l.406-.323-.041-1.237-2.782-.029c-.451.414-.93 1.008-.664 1.563l3.081.026zm30.411 20.826c-.495.922-1.209 1.787-2.185 2.159-.753.287-1.581.26-2.386.224-2.745-.112-5.537-.234-8.131-1.143-1.214-.427-2.376-1.024-3.647-1.287-1.487-.307-3.026-.133-4.534.044l-6.647.781c-1.962.229-4.147.401-5.712-.802-.896-.688-1.474-1.758-2.456-2.31-.414-.234-.907-.386-1.175-.781a1.95 1.95 0 01-.26-.966l-.045-.82a22.03 22.03 0 00.045 2.383 1.95 1.95 0 00.26.966c.261.393.761.544 1.175.781.982.552 1.563 1.623 2.456 2.31 1.563 1.203 3.75 1.042 5.712.802l6.647-.781c1.508-.177 3.047-.352 4.534-.044 1.261.26 2.422.859 3.647 1.287 2.604.909 5.386 1.042 8.131 1.143.805.034 1.633.063 2.386-.224.976-.373 1.69-1.237 2.185-2.159.958-1.784 1.227-3.808 1.125-5.847a10.18 10.18 0 01-1.125 4.284z" class="D"/></g><path d="M215.921 33.992l3.646 3.386s-3.125-1.302-3.646-3.386z" class="C D"/></g><defs><path id="B" d="M72.011 87.13c6.617 0 11.981-7.23 11.981-16.148s-5.364-16.148-11.981-16.148-11.981 7.23-11.981 16.148S65.394 87.13 72.011 87.13z"/><path id="C" d="M19.131 78.463l-1.849 1.979a22.4 22.4 0 01-1.823 1.459l-2.995 2.373a16.76 16.76 0 00-2.745 2.743c-1.391 1.867-2.05 4.191-3.352 6.121-1.151 1.711-2.774 3.063-3.943 4.761a7.366 7.366 0 00-1.125 2.362c-.172.821-.25 1.659-.232 2.498-.023 1.375-.044 2.766.237 4.113s.899 2.669 1.956 3.552c.982.821 2.25 1.198 3.493 1.511.641.159 1.334.307 1.943.054a3.192 3.192 0 001.13-.953l3.17-3.646c2.12-2.448 4.323-4.949 7.233-6.381l2.787-1.214c3.876-1.867 6.616-5.691 7.678-9.858.26-1.018.427-2.058.596-3.097l.458-2.849a.91.91 0 000-.435.936.936 0 00-.333-.396 55.26 55.26 0 01-6.183-5.834c-.453-.5-.878-1.185-1.401-1.604-.656-.521-.607-.482-1.396 0a16.773 16.773 0 00-3.303 2.743z"/><path id="D" d="M15.677 96.364l1.612 1.388a11.51 11.51 0 001.917 1.076l2.568 1.234c.796.414 1.629.752 2.487 1.011 1.099.294 2.253.323 3.357.596 1.393.344 2.667 1.06 4.04 1.474s2.98.482 4.126-.38c.716-.539 1.258-1.43 2.146-1.563.573-.075 1.125.201 1.636.469l6.683 3.514c.901.474 1.855 1 2.326 1.904s.154 2.276-.839 2.51c-.346.04-.694.06-1.042.06-.344.042-.719.245-.766.592a1.19 1.19 0 00.164.612c.3.687.388 1.51.039 2.177s-1.206 1.081-1.891.781c.117 1.008-.979 1.714-1.956 1.983-2.464.674-5.076.26-7.595-.167-.99-.167-1.995-.339-2.896-.782l-1.271-.677c-1.201-.534-2.565-.463-3.878-.44-6.071.107-12.09-1.018-18.06-2.138-1.107-.209-2.245-.43-3.191-1.042-1.823-1.188-2.5-3.626-2.201-5.782s1.393-4.11 2.469-6.006l1.393-2.456a3.16 3.16 0 01.75-.99c2.05-1.565 6.116-.37 7.871 1.042z"/><path id="E" d="M197.369 67.518c-2.511 1.143-4.413 3.36-5.686 5.811s-1.99 5.141-2.696 7.814l-1.878 8.532c-.687 5.136-.172 10.536 2.188 15.148s6.72 8.335 11.825 9.223c1.971.347 3.998.276 5.99.07a48.665 48.665 0 0010.577-2.331c3.582-1.211 7.309-3.076 8.903-6.511.924-1.993 1.003-4.264.958-6.457a68.68 68.68 0 00-2.685-17.656c-.482-1.667-1.042-3.347-2.063-4.751s-2.417-2.433-3.842-3.386c-6.092-4.102-14.098-8.913-21.591-5.506z"/><path id="F" d="M231.455 147.077l-.026.706a33.366 33.366 0 01-.316 3.414 22.15 22.15 0 01-1.127 4.53 15.3 15.3 0 01-1.344 2.763 12.783 12.783 0 01-1.672 2.154c-1.563 1.625-3.814 2.144-5.991 2.829-1.002.29-1.97.685-2.888 1.18l-.482.294-2.725 1.805c-.849.56-1.716 1.141-2.299 1.972a4.14 4.14 0 00-.261.44 9.967 9.967 0 00-.802 2.406c-1.417 5.902-2.836 11.809-3.808 17.8l-.195 1.193-.024.125a.62.62 0 00-.041-.086c-6.97 4.214-14.198 8.017-21.644 11.061l-1.618-13.543a16.41 16.41 0 01-.166-3.329c.153-1.753.867-3.414 1.06-5.162a8.8 8.8 0 00-.93-4.967c-.308-.594-.693-1.177-.763-1.841s.312-1.271.979-1.339c.521-.578.563-1.368.409-2.149a6.25 6.25 0 00-.365-1.19c-.443-1.089-1.003-2.274-.622-3.386.1-.202.145-.427.13-.651a.1.1 0 000-.042c-.089-.292-.435-.419-.615-.667-.338-.461 0-1.088.209-1.62.202-.571.32-1.168.349-1.774l.086-1.007a9.94 9.94 0 01.242-1.339 10.566 10.566 0 014.279-6.126c1.013-.683 2.141-1.18 3.175-1.823a29.18 29.18 0 003.027-2.344 94.028 94.028 0 017.154-5.402 90.456 90.456 0 018.262-5.017l1.823-.958a45.092 45.092 0 011.998-.987c2.146-1.024 4.581-.641 6.954.041.995.284 1.977.623 2.925.93a13.54 13.54 0 012.657 1.193c2.102 1.235 3.839 3.058 4.56 5.36a.338.338 0 010 .045c.459 1.442.487 2.99.446 4.508z"/><clipPath id="A"><path fill="#fff" d="M0 0h256v209.154H0z"/></clipPath></defs></svg>