<svg xmlns="http://www.w3.org/2000/svg" xmlns:xlink="http://www.w3.org/1999/xlink" width="233" height="171" fill="none"><style>.B{fill:#e6e6e6}.C{fill:#ccc}.D{fill:#3f3474}.E{fill:#2f2e41}</style><g clip-path="url(#A)"><g class="B"><path d="M232.091 63.319h-97.556v2.862h97.556v-2.862z"/><path d="M167.314 39.385H142.6v24.714h24.714V39.385z"/></g><path d="M162.371 44.328h-14.829v14.829h14.829V44.328z" class="C"/><path d="M204.255 39.385h-6.243v24.714h6.243V39.385z" class="B"/><path d="M204.255 43.287h-6.243v2.862h6.243v-2.862zm0 12.488h-6.243v2.862h6.243v-2.862z"/><path d="M194.63 39.385h-6.244v24.714h6.244V39.385z" class="B"/><path d="M194.63 43.287h-6.244v2.862h6.244v-2.862zm0 12.488h-6.244v2.862h6.244v-2.862z"/><path d="M209.635 39.283l-5.596 2.77 10.966 22.149 5.595-2.77-10.965-22.148z" class="B"/><path d="M211.366 42.78l-5.595 2.77 1.27 2.565 5.595-2.77-1.27-2.565zm5.541 11.191l-5.595 2.77 1.269 2.565 5.596-2.77-1.27-2.565z"/><g class="B"><path d="M151.835 49.305l6.288 10.892h-12.576l6.288-10.892z"/><path d="M157.298 50.346l6.289 10.892H151.01l6.288-10.892zm2.211-1.595a1.821 1.821 0 100-3.642 1.821 1.821 0 100 3.642zm-24.974-21.853h97.557v-2.862h-97.557v2.862z"/><path d="M199.312 24.817h24.715V.102h-24.715v24.714z"/></g><path d="M204.255 19.874h14.829V5.045h-14.829v14.829z" class="C"/><path d="M162.371 24.817h6.244V.102h-6.244v24.714z" class="B"/><path d="M162.371 6.866h6.244V4.005h-6.244v2.862zm0 12.487h6.244v-2.862h-6.244v2.862z"/><path d="M171.997 24.817h6.243V.102h-6.243v24.714z" class="B"/><path d="M171.997 6.866h6.243V4.005h-6.243v2.862zm0 12.487h6.243v-2.862h-6.243v2.862z"/><path d="M146.026 22.149l5.595 2.77L162.587 2.77 156.991 0l-10.965 22.149z" class="B"/><path d="M153.99 6.062l5.596 2.77 1.269-2.565-5.595-2.77-1.27 2.565zm-5.54 11.191l5.595 2.77 1.27-2.565-5.595-2.77-1.27 2.565z"/><g class="B"><path d="M214.791 10.023l-6.288 10.892h12.577l-3.145-5.446-3.144-5.446z"/><path d="M209.328 11.063l-6.288 10.892h12.577l-6.289-10.892zm-2.211-1.595a1.821 1.821 0 000-3.642 1.821 1.821 0 000 3.642zm-72.582 95.995h97.557v-2.862h-97.557v2.862z"/><path d="M199.312 103.382h24.715V78.668h-24.715v24.714z"/></g><path d="M204.255 98.439h14.829V83.611h-14.829V98.44z" class="C"/><path d="M162.371 103.382h6.244V78.668h-6.244v24.714z" class="B"/><path d="M162.371 85.432h6.244V82.57h-6.244v2.862zm0 12.487h6.244v-2.862h-6.244v2.862z"/><path d="M171.997 103.382h6.243V78.668h-6.243v24.714z" class="B"/><path d="M171.997 85.432h6.243V82.57h-6.243v2.862zm0 12.487h6.243v-2.862h-6.243v2.862z"/><path d="M146.026 100.714l5.595 2.77 10.966-22.148-5.596-2.77-10.965 22.148z" class="B"/><path d="M153.99 84.627l5.596 2.77 1.269-2.565-5.595-2.77-1.27 2.564zm-5.54 11.191l5.595 2.77 1.27-2.565-5.595-2.77-1.27 2.564z"/><g class="B"><path d="M214.791 88.588l-6.288 10.892h12.577l-6.289-10.892z"/><path d="M209.328 89.628l-6.288 10.892h12.577l-6.289-10.892zm-2.211-1.595a1.821 1.821 0 100-3.642 1.821 1.821 0 100 3.642zM114.922 171c63.469 0 114.921-3.654 114.921-8.162s-51.452-8.162-114.921-8.162S0 158.33 0 162.838 51.452 171 114.922 171z"/></g><use xlink:href="#B" class="D"/><use xlink:href="#B" opacity=".2" fill="#000"/><path d="M200.134 163.88c-15.918-2.662-33.325-2.22-51.585 0 8.323-6.602 15.505-13.204 7.183-19.806 16.234 3.147 18.507 2.829 36.566 0-4.189 6.602 3.647 13.204 7.836 19.806z" class="D"/><path d="M194.071 153.243c4.684 0 8.481-3.797 8.481-8.482s-3.797-8.481-8.481-8.481a8.482 8.482 0 100 16.963z" class="E"/><g fill="#a0616a"><path d="M155.569 134.924l5.876.979 2.939 8.489-8.489 5.224-9.794-14.692h9.468z"/><path d="M172.219 147.983c7.573 0 13.713-6.139 13.713-13.712s-6.14-13.713-13.713-13.713-13.712 6.14-13.712 13.713 6.139 13.712 13.712 13.712z"/></g><g class="E"><path d="M96.476 84.319s-33.301 3.591-39.178 2.938-8.489-1.306-8.489-1.306-3.918 5.224-1.959 7.509a14.13 14.13 0 003.918 3.265s3.591-.98 6.203 0 29.057 5.224 33.628 1.306 5.877-13.712 5.877-13.712z"/><path d="M98.761 157.124s-21.874-6.203-25.792-33.627v-2.612s-4.328 7.593-5.877 9.141c-1.796 1.796-8.162 17.957-7.836 19.589s0 2.286 0 2.286l-9.468-.98v-2.938s5.06-15.181 5.387-18.773 12.57-28.567 12.57-28.567 4.571-9.468 12.406 0 8.489 15.998 8.489 15.998l10.121 19.589v20.894zM49.789 84.972l-10.447-3.591s-9.794-7.183-7.509 0 12.733 22.853 15.671 21.222 6.472-5.684 5.685-6.27-6.011-4.83-3.399-11.36z"/><path d="M51.051 146.056l-8.434 4.118s-10.199 1.569-4.511 4.511 21.378 6.081 22.163 3.335.473-7.303-.352-7.182-6.513.709-8.866-4.782z"/></g><path d="M94.517 135.577s-4.244 18.283 2.938 22.2 57.461 4.571 61.379-2.611 1.959-7.183 1.959-7.183l-10.448-11.753 8.489-.653s0-2.612-2.939-2.939-12.08-3.591-19.915-1.306-12.406-4.57-12.406-4.57l-29.057 8.815z" fill="#575a89"/><path d="M88.967 78.442l-5.55 30.363 38.199-4.571 6.856-27.424-39.505 1.632z" fill="#3f3d56"/><path d="M90.109 79.585l-4.571 27.098 34.771-4.081 6.693-24.649-36.893 1.632z" fill="#fff"/><path d="M84.722 109.132l-1.306-.327-.653 1.306 10.448 29.057.983-.375.323-1.91-9.794-27.751z" fill="#b3b3b3"/><path d="M83.416 108.478l10.448 30.363 39.504-5.876-11.753-28.731-38.199 4.244z" fill="#d0cde1"/><path d="M88.64 107.499v1.633l29.057-3.265-.327-1.633-28.73 3.265zm.653 3.265l4.571 12.733 29.71-3.591-5.224-12.08-29.057 2.938z" fill="#3f3d56"/><path d="M126.512 128.721l-.98-2.612s-7.509-13.06-11.427-10.448 8.163 15.345 8.163 15.345h3.917l.327-2.285zm-24.813 1.959l-.979-3.918s-2.612-12.08 1.959-11.427 5.876 12.08 5.876 12.08l-.326 2.612-6.53.653z" fill="#a0616a"/><path d="M109.535 129.047s-8.489-1.306-8.815.653-1.959 31.342 6.203 32.321 48.646 5.224 44.402-4.897-10.774-8.815-10.774-8.815l-27.751 2.939-3.265-22.201zm25.629 3.755l-8.652-6.04-5.714 4.407 7.183 7.836 7.183-6.203z" fill="#575a89"/><path opacity=".2" d="M111.984 138.678l1.305 12.407 22.528-1.306-19.589-.327-4.244-10.774z" fill="#000"/><path d="M178.988 153.086c9.016 0 16.324-7.308 16.324-16.324s-7.308-16.324-16.324-16.324-16.324 7.309-16.324 16.324 7.309 16.324 16.324 16.324z" class="E"/><path d="M95.007 89.053l20.242-.705 1.959-7.457-20.895.631-1.306 7.531z" class="D"/><path d="M89.783 93.298l30.689-.98.326-1.306-30.689 1.081-.326 1.205zm-.653 3.264l30.689-.98.327-1.306-30.69 1.081-.326 1.205zm-.327 2.612l30.689-.979.327-1.306-30.69 1.08-.326 1.205z"/></g><defs><clipPath id="A"><path fill="#fff" d="M0 0h232.091v171H0z"/></clipPath><path id="B" d="M204.704 167.409c-18.739-3.336-39.23-2.781-60.725 0 9.797-8.271 18.252-16.542 8.455-24.813 19.111 3.942 21.787 3.543 43.046 0-4.931 8.271 4.294 16.542 9.224 24.813z"/></defs></svg>