<svg xmlns="http://www.w3.org/2000/svg" xmlns:xlink="http://www.w3.org/1999/xlink" width="570" height="412" fill="none"><style>.B{fill:#ccc}.C{fill:#3f3474}.D{fill:#3f3d56}.E{fill:#2f2e41}.F{fill:#ffb8b8}.G{fill:#f2f2f2}</style><g clip-path="url(#A)"><g class="B"><path d="M569.176 408.59H.824a.824.824 0 01-.001-1.647h568.352a.827.827 0 01.824.824.823.823 0 01-.824.823z"/><path d="M512.921 264.936H178.499a5.356 5.356 0 00-5.354 5.354 5.35 5.35 0 001.568 3.785 5.353 5.353 0 003.786 1.569h9.473v128.085a5.354 5.354 0 1010.708 0l.081-128.085h293.156v128.085a5.354 5.354 0 1010.708 0V278.467l1.558-2.823h8.738a5.35 5.35 0 005.354-5.354 5.354 5.354 0 00-5.354-5.354z"/></g><path d="M363.906 267.738H262.605a7.4 7.4 0 01-5.228-2.169 7.407 7.407 0 01-2.17-5.229v-55.772a7.406 7.406 0 017.398-7.399h101.301a7.407 7.407 0 017.398 7.399v55.772a7.407 7.407 0 01-2.17 5.229 7.4 7.4 0 01-5.228 2.169z" class="D"/><path d="M363.905 202.863H262.606a1.71 1.71 0 00-1.705 1.705v55.773a1.71 1.71 0 001.705 1.705h101.299a1.71 1.71 0 001.705-1.705v-55.773a1.71 1.71 0 00-1.705-1.705z" fill="#fff"/><path d="M321.895 242.35s-12.127-2.794-18.796 2.329 8.488 16.766 8.488 16.766l10.308-19.095z" class="E"/><path d="M313.849 237.07a11.44 11.44 0 0011.439-11.439 11.44 11.44 0 00-11.439-11.439 11.44 11.44 0 00-11.438 11.439 11.44 11.44 0 0011.438 11.439z" fill="#a0616a"/><path d="M305.004 209.574a8.16 8.16 0 017.518-4c1.569.197 3.1.626 4.543 1.272l7.478 2.917c1.934.755 4.054 1.679 4.893 3.579.78 1.763.198 3.8-.39 5.635l-2.798 8.726a26.61 26.61 0 00-1.585-5.764 8.924 8.924 0 00-3.876-4.418c-1.942-.997-4.231-.976-6.412-.871-3.088.148-6.446.541-8.64 2.72a8.973 8.973 0 00-2.277 4.447 26.744 26.744 0 00-.478 5.034 41.773 41.773 0 01-3.187-6.833 16.91 16.91 0 01-1.184-5.531 7.785 7.785 0 011.783-5.261 5.11 5.11 0 015.132-1.615l-.52-.037z" class="E"/><path d="M341.162 252.269a2.034 2.034 0 00-.63-.995 2.04 2.04 0 00-1.075-.48.845.845 0 00-.082-.049l-17.077-9.57a2.17 2.17 0 00-1.603-.208 2.173 2.173 0 00-1.303.956l-4.67 7.562-7.146-7.146a2.17 2.17 0 00-1.347-.628 2.176 2.176 0 00-1.435.384l-14.034 9.828c-.024 0-.049.008-.074.008a2.995 2.995 0 00-1.739.958 2.99 2.99 0 00-.757 1.835l-.362 7.322h56.044l-2.71-9.777z" class="C"/><path d="M372.442 260.909h-10.813a1.14 1.14 0 00-.333-.805 1.137 1.137 0 00-.805-.333h-3.415c-.302 0-.591.119-.805.333a1.14 1.14 0 00-.333.805h-3.414a1.136 1.136 0 00-1.139-1.138h-3.414a1.135 1.135 0 00-1.139 1.138h-3.414a1.14 1.14 0 00-.333-.805 1.137 1.137 0 00-.805-.333h-3.415c-.302 0-.591.119-.805.333a1.14 1.14 0 00-.333.805h-3.415a1.14 1.14 0 00-.333-.805 1.137 1.137 0 00-.805-.333h-3.415a1.142 1.142 0 00-1.138 1.138h-3.414a1.136 1.136 0 00-1.139-1.138h-3.414c-.302 0-.592.119-.805.333a1.14 1.14 0 00-.333.805h-3.415a1.14 1.14 0 00-.333-.805 1.137 1.137 0 00-.805-.333h-3.415c-.302 0-.591.119-.805.333a1.14 1.14 0 00-.333.805h-3.415a1.14 1.14 0 00-.333-.805 1.135 1.135 0 00-.805-.333h-3.414a1.135 1.135 0 00-1.139 1.138h-3.414a1.136 1.136 0 00-1.138-1.138h-3.415c-.302 0-.591.119-.805.333a1.14 1.14 0 00-.333.805h-3.415a1.14 1.14 0 00-.333-.805 1.137 1.137 0 00-.805-.333h-3.415a1.142 1.142 0 00-1.138 1.138h-3.414a1.136 1.136 0 00-1.139-1.138h-3.414a1.135 1.135 0 00-1.138 1.138h-3.415a1.14 1.14 0 00-.333-.805 1.137 1.137 0 00-.805-.333h-3.415c-.302 0-.591.119-.805.333a1.14 1.14 0 00-.333.805h-10.813a3.41 3.41 0 00-2.411 1.002 3.415 3.415 0 002.411 5.827h118.373a3.42 3.42 0 003.415-3.415 3.415 3.415 0 00-3.415-3.414z" class="D"/><path d="M236.467 241.079v22.673h-56.804a11.343 11.343 0 01-8.275-3.177 11.35 11.35 0 01-2.562-3.728 11.34 11.34 0 01-.901-4.431c0-1.523.306-3.03.901-4.432a11.35 11.35 0 012.562-3.728 11.345 11.345 0 018.275-3.177h56.804z" class="G"/><path d="M237.862 263.577a.874.874 0 01-.872.872h-58.339a11.945 11.945 0 01-11.947-11.946 11.95 11.95 0 013.499-8.448 11.945 11.945 0 018.448-3.499h58.339a.868.868 0 01.872.872.87.87 0 01-.255.616.873.873 0 01-.617.256h-58.339a10.204 10.204 0 000 20.405h58.339c.231 0 .453.092.617.256a.87.87 0 01.255.616z" class="C"/><path d="M236.467 246.311h-61.043a.174.174 0 01-.067-.013.18.18 0 01-.057-.037.168.168 0 01-.038-.057.17.17 0 01-.013-.067.17.17 0 01.013-.067c.009-.021.022-.041.038-.057s.036-.029.057-.038a.17.17 0 01.067-.013h61.043a.174.174 0 01.173.175.173.173 0 01-.173.174zm0 4.186h-61.043c-.023 0-.045-.005-.067-.013s-.04-.022-.057-.038-.029-.035-.038-.057a.17.17 0 01-.013-.067c0-.023.004-.045.013-.067a.18.18 0 01.038-.056.178.178 0 01.057-.038.17.17 0 01.067-.013h61.043a.173.173 0 01.173.174.172.172 0 01-.051.123.18.18 0 01-.122.052zm0 4.186h-61.043a.174.174 0 01-.162-.108.17.17 0 01-.013-.067c0-.023.004-.045.013-.067a.18.18 0 01.038-.056.178.178 0 01.057-.038.17.17 0 01.067-.013h61.043a.173.173 0 01.173.174.172.172 0 01-.051.123.18.18 0 01-.122.052zm0 4.185h-61.043a.174.174 0 01-.067-.013.18.18 0 01-.057-.037.168.168 0 01-.038-.057.17.17 0 01-.013-.067.17.17 0 01.013-.067c.009-.021.022-.041.038-.057s.036-.029.057-.038.044-.013.067-.012h61.043a.17.17 0 01.122.051.173.173 0 010 .246.17.17 0 01-.122.051z"/><path d="M225.759 217.191v22.673h-56.804a11.343 11.343 0 01-4.461-.747 11.32 11.32 0 01-3.814-2.43 11.35 11.35 0 01-2.562-3.727 11.343 11.343 0 010-8.864 11.35 11.35 0 012.562-3.727 11.34 11.34 0 013.814-2.431c1.422-.546 2.939-.8 4.461-.747h56.804z" class="G"/><path d="M227.154 239.69a.87.87 0 01-.872.872h-58.339a11.95 11.95 0 01-4.572-.909 11.938 11.938 0 01-6.466-6.466 11.95 11.95 0 01-.909-4.572c0-1.569.309-3.122.909-4.572a11.96 11.96 0 012.59-3.875 11.944 11.944 0 018.448-3.5h58.339c.231 0 .453.092.617.256a.87.87 0 01.255.616.873.873 0 01-.872.873h-58.339a10.2 10.2 0 00-7.209 2.991 10.204 10.204 0 000 14.423 10.2 10.2 0 007.209 2.991h58.339c.231 0 .453.092.617.256a.87.87 0 01.255.616z" class="D"/><g class="B"><path d="M225.759 222.424h-61.043a.17.17 0 01-.067-.013.168.168 0 01-.057-.038.18.18 0 01-.038-.056.174.174 0 01-.013-.067.17.17 0 01.013-.067.173.173 0 01.095-.095.17.17 0 01.067-.013h61.043a.174.174 0 01.173.175.173.173 0 01-.173.174z"/><use xlink:href="#B"/><path d="M225.759 230.796h-61.043a.19.19 0 01-.067-.013c-.021-.009-.041-.022-.057-.038s-.029-.036-.038-.057a.17.17 0 01-.013-.067.17.17 0 01.013-.067c.009-.021.022-.04.038-.057s.036-.029.057-.037a.17.17 0 01.067-.013h61.043a.173.173 0 01.122.297.176.176 0 01-.122.052zm0 4.185h-61.043a.17.17 0 01-.067-.013.154.154 0 01-.057-.038.18.18 0 01-.038-.056.17.17 0 01-.013-.067.17.17 0 01.013-.067.173.173 0 01.095-.095.19.19 0 01.067-.013h61.043a.174.174 0 01.173.175.173.173 0 01-.173.174zm66.08 109.361v-19.769a3.295 3.295 0 00-3.294-3.295h-74.957a3.295 3.295 0 00-3.295 3.295v19.769h81.546zm0 7.413h-81.546v25.535h81.546v-25.535zm-81.546 32.948v19.769a3.295 3.295 0 003.295 3.295h74.957a3.294 3.294 0 003.294-3.295v-19.769h-81.546z"/></g><path d="M250.654 336.105a2.471 2.471 0 100-4.942 2.47 2.47 0 00-2.471 2.471 2.472 2.472 0 002.471 2.471zm0 32.948a2.471 2.471 0 100-4.942 2.471 2.471 0 100 4.942zm.133 32.25a2.471 2.471 0 100-4.942 2.471 2.471 0 100 4.942z" fill="#fff"/><path d="M282.594 298.738v22.673H225.79a11.343 11.343 0 01-4.461-.747 11.36 11.36 0 01-3.814-2.43 11.35 11.35 0 01-2.561-3.728 11.344 11.344 0 0110.836-15.768h56.804z" class="G"/><path d="M283.989 321.237a.87.87 0 01-.255.616.873.873 0 01-.617.256h-58.339a11.95 11.95 0 01-4.575-.907 11.96 11.96 0 01-6.471-6.466 11.95 11.95 0 01-.911-4.574c0-1.57.31-3.124.911-4.574a11.95 11.95 0 012.592-3.878 11.96 11.96 0 013.879-2.589 11.97 11.97 0 014.575-.906h58.339a.874.874 0 01.872.872.87.87 0 01-.872.872h-58.339a10.2 10.2 0 00-7.208 2.991 10.203 10.203 0 00-2.986 7.212 10.2 10.2 0 002.986 7.211 10.205 10.205 0 007.208 2.992h58.339a.868.868 0 01.872.872z" class="D"/><path d="M282.594 303.97h-61.042a.179.179 0 01-.125-.051.159.159 0 01-.038-.057.19.19 0 01-.013-.067c0-.023.005-.045.013-.067a.18.18 0 01.038-.056.175.175 0 01.125-.051h61.042c.046 0 .09.019.123.052a.17.17 0 01.05.122.175.175 0 01-.173.175zm0 4.186h-61.042a.179.179 0 01-.125-.051.18.18 0 01-.038-.056.195.195 0 01-.013-.067.19.19 0 01.013-.067.173.173 0 01.163-.108h61.042c.046 0 .09.019.123.052a.17.17 0 01.05.123.17.17 0 01-.05.122.177.177 0 01-.123.052zm0 4.185h-61.042a.168.168 0 01-.125-.05.168.168 0 01-.038-.057.19.19 0 01-.013-.067.19.19 0 01.013-.067c.009-.021.022-.04.038-.057s.036-.029.057-.037.045-.013.068-.013h61.042a.173.173 0 01.173.174.172.172 0 01-.173.174zm0 4.187h-61.042a.2.2 0 01-.068-.013c-.021-.009-.04-.022-.057-.038s-.029-.036-.038-.057a.19.19 0 01-.013-.067.19.19 0 01.013-.067c.009-.021.022-.04.038-.057s.036-.029.057-.037.045-.013.068-.013h61.042c.046 0 .09.019.123.051s.05.077.05.123-.018.09-.05.123-.077.051-.123.052z"/><path d="M206.016 150.755V6.195A6.2 6.2 0 01212.211 0h114.271a6.2 6.2 0 016.195 6.195v144.56a6.2 6.2 0 01-6.195 6.195H212.211a6.204 6.204 0 01-6.195-6.195zm6.195-149.378a4.827 4.827 0 00-3.406 1.413 4.83 4.83 0 00-1.413 3.406v144.56a4.827 4.827 0 001.413 3.405 4.82 4.82 0 003.406 1.413h114.271a4.82 4.82 0 004.818-4.818V6.195a4.82 4.82 0 00-1.413-3.406 4.827 4.827 0 00-3.405-1.413H212.211z" fill="#e6e6e6"/><path d="M275.754 66.388V36.706a3.1 3.1 0 013.098-3.098h25.153a3.1 3.1 0 013.098 3.098v29.683a3.1 3.1 0 01-3.098 3.098h-25.153a3.1 3.1 0 01-3.098-3.098z" class="C"/><path d="M226.88 80.156V50.473a3.1 3.1 0 013.097-3.098h25.154a3.1 3.1 0 013.097 3.098v29.683a3.1 3.1 0 01-3.097 3.098h-25.154a3.1 3.1 0 01-3.097-3.098z" class="B"/><path d="M266.117 122.147V92.464a3.103 3.103 0 01.908-2.189 3.1 3.1 0 012.19-.908h25.153a3.1 3.1 0 013.098 3.098v29.683a3.1 3.1 0 01-3.098 3.098h-25.153a3.1 3.1 0 01-2.19-.909 3.103 3.103 0 01-.908-2.189z" fill="#ff6584"/><path d="M416.432 257.853h-25.881a1.61 1.61 0 00-.708.165l-6.532 3.27a1.194 1.194 0 00-.527.439 1.19 1.19 0 00-.198.657 1.187 1.187 0 00.725 1.095l6.532 3.27c.22.109.463.165.708.165h25.881a1.354 1.354 0 001.433-1.26v-6.54a1.355 1.355 0 00-.458-.925 1.36 1.36 0 00-.975-.336z" class="D"/><path d="M417.865 259.114v6.54a1.355 1.355 0 01-1.433 1.26h-5.156v-9.061h5.156a1.36 1.36 0 01.975.336c.269.236.433.568.458.925z" class="C"/><path d="M416.237 208.925a9.067 9.067 0 0110.435 2.38 9.065 9.065 0 011.831 3.316 8.66 8.66 0 01.263 1.182l36.192 17.947 8.376-5.551 10.421 11.998-12.789 10.386a9.177 9.177 0 01-10.956.423l-36.72-25.393a8.783 8.783 0 01-.836.305 9.06 9.06 0 01-3.775.314 9.05 9.05 0 01-3.574-1.256 9.06 9.06 0 01-2.749-2.607 9.057 9.057 0 01-1.442-3.503 8.694 8.694 0 01-.134-1.103 9.087 9.087 0 011.342-5.275 9.1 9.1 0 014.115-3.563z" class="F"/><g class="D"><path d="M491.618 319.424h-39.546c0 1.137-40.757 2.059-40.757 2.059a10.62 10.62 0 00-1.737 1.647 10.22 10.22 0 00-2.39 6.59v1.647a10.31 10.31 0 003.017 7.28 10.3 10.3 0 007.28 3.017h74.133a10.307 10.307 0 0010.296-10.297v-1.647a10.31 10.31 0 00-10.296-10.296z"/><path d="M448.601 410.445h10.708v-69.19h-10.708v69.19z"/><path d="M418.124 410.069c0 1.157 16.227.448 36.243.448s36.243.709 36.243-.448-16.227-10.332-36.243-10.332-36.243 9.175-36.243 10.332z"/></g><path d="M427.791 401.96l-10.098-.001-4.805-26.191h14.904l-.001 26.192z" class="F"/><path d="M430.366 411.748l-32.561-.001v-.412a12.675 12.675 0 013.712-8.961 12.69 12.69 0 014.112-2.748 12.674 12.674 0 014.85-.964h19.888l-.001 13.086zm-17.679-26.03l-20.132-45.145a16.54 16.54 0 01-.52-12.04 16.544 16.544 0 017.784-9.199l43.667-23.416 19.926-1.695 18.381-1.67.132.224c.17.287 4.122 7.113 1.451 14.597-2.027 5.678-7.297 10.113-15.666 13.181-19.534 7.163-42.099 13.284-50.894 15.583-.388.099-.751.28-1.065.53a2.84 2.84 0 00-.756.92 2.876 2.876 0 00-.322 1.135 2.89 2.89 0 00.16 1.17l18.704 42.021a3.71 3.71 0 01-.347 3.255c-.303.48-.712.884-1.196 1.18a3.7 3.7 0 01-1.595.531l-13.975 1.018a3.85 3.85 0 01-.355.016 3.7 3.7 0 01-2.016-.597 3.71 3.71 0 01-1.366-1.599z"/><path d="M432.733 401.96l-10.098-.001-4.804-26.191h14.904l-.002 26.192z" class="F"/><path d="M435.309 411.748l-32.562-.001v-.412c0-1.664.328-3.312.965-4.85a12.67 12.67 0 012.747-4.111 12.68 12.68 0 014.112-2.748 12.674 12.674 0 014.85-.964h19.888v13.086zm-16.856-23.559l-20.132-45.145a16.546 16.546 0 017.264-21.239l43.667-23.415 19.926-1.695 18.381-1.671.132.224c.17.287 4.122 7.113 1.45 14.598-2.026 5.677-7.297 10.112-15.665 13.18-19.534 7.163-42.099 13.284-50.894 15.583-.388.1-.752.28-1.066.53a2.85 2.85 0 00-.755.92 2.876 2.876 0 00-.162 2.305l18.704 42.021c.195.533.265 1.104.205 1.668a3.71 3.71 0 01-.552 1.587c-.303.48-.712.884-1.196 1.181a3.71 3.71 0 01-1.595.53l-13.975 1.018a3.85 3.85 0 01-.355.017 3.707 3.707 0 01-3.382-2.197z"/><path d="M408.419 250.276a137.945 137.945 0 01-19.831-37.01 3.543 3.543 0 011.673-4.266l28.949-15.512a3.507 3.507 0 013.069-.124 3.56 3.56 0 012.028 2.375 84.287 84.287 0 0018.488 34.506c.362.402.627.882.775 1.403a3.55 3.55 0 01.08 1.6 3.48 3.48 0 01-.614 1.452 3.5 3.5 0 01-1.189 1.034l-28.949 15.512a3.55 3.55 0 01-2.418.337 3.545 3.545 0 01-2.061-1.307z" class="B"/><path d="M410.394 248.792a1.07 1.07 0 001.336.276l28.949-15.512c.141-.074.263-.178.356-.307a1.02 1.02 0 00.182-.432 1.08 1.08 0 00-.025-.496 1.07 1.07 0 00-.243-.433 86.78 86.78 0 01-19.033-35.522 1.076 1.076 0 00-.624-.737 1.02 1.02 0 00-.462-.089c-.159.006-.314.05-.453.126l-28.949 15.512a1.07 1.07 0 00-.51 1.266 135.53 135.53 0 0019.476 36.348z" fill="#fff"/><g class="C"><path d="M504.592 246.139l-22.672 8.615-5.535-15.376a9.2 9.2 0 014.12-11.119 9.2 9.2 0 0111.748 2.293l12.339 15.587z"/><path d="M446.925 307.06a4.127 4.127 0 01-1.173-1.277 4.11 4.11 0 01-.543-1.647c-2.904-27.107-.881-48.321 6.182-64.853a20.6 20.6 0 015.482-7.407 20.585 20.585 0 018.165-4.273l18.327-.925.094.046a21.42 21.42 0 019.619 9.423 21.424 21.424 0 012.094 13.301c-5.895 15.538-10.83 31.715-7.066 44.765.158.546.204 1.117.135 1.681a4.21 4.21 0 01-.534 1.6c-.275.476-.645.89-1.086 1.217a4.03 4.03 0 01-1.48.685l-34.907 8.304a4.09 4.09 0 01-3.309-.64z"/></g><path d="M477.248 219.832c11.173 0 20.231-9.057 20.231-20.23s-9.058-20.231-20.231-20.231-20.231 9.057-20.231 20.231 9.058 20.23 20.231 20.23z" class="F"/><path d="M421.111 215.625l-15.767 6.96a2.47 2.47 0 01-1.89.042 2.475 2.475 0 01-1.369-1.305l-.39-.883a2.48 2.48 0 01-.042-1.891 2.476 2.476 0 011.305-1.368l15.767-6.96a2.47 2.47 0 011.89-.042 2.48 2.48 0 011.369 1.305l.39.883a2.474 2.474 0 01-1.263 3.259zm5.766 10.708l-15.767 6.96a2.474 2.474 0 01-3.259-1.263l-.39-.883a2.474 2.474 0 011.263-3.259l15.767-6.96a2.47 2.47 0 011.89-.042 2.48 2.48 0 011.369 1.305l.39.883a2.48 2.48 0 01.042 1.891 2.473 2.473 0 01-1.305 1.368z"/><path d="M439.036 268.158l-35.151-27.731a8.5 8.5 0 01-.853.252 9.09 9.09 0 01-3.78.076 9.087 9.087 0 01-3.484-1.469 8.99 8.99 0 01-2.593-2.773 8.995 8.995 0 01-1.217-3.597 9.08 9.08 0 011.3-5.827 9.075 9.075 0 014.638-3.759 9.06 9.06 0 017.387.567 9.066 9.066 0 012.877 2.464 9.06 9.06 0 011.619 3.424 8.8 8.8 0 01.188 1.196l34.992 20.187 8.708-5.013 9.646 12.629-13.52 9.636a9.014 9.014 0 01-10.757-.262z" class="F"/><path d="M467.603 262.717l-20.056-13.639 9.425-13.349a9.203 9.203 0 015.189-3.595 9.2 9.2 0 0110.735 5.169 9.196 9.196 0 01.404 6.368l-5.697 19.046z" class="C"/><path d="M469.831 196.588c-5.2 3.559-12.027 7.217-17.338 3.428-3.487-2.489-4.586-7.097-3.172-11.141 2.543-7.272 9.53-10.473 16.211-12.927 8.685-3.191 18.143-5.729 27.109-3.444s16.89 10.966 15.272 20.076c-1.302 7.326-8.213 13.422-7.231 20.798.987 7.423 9.335 11.331 16.705 12.657s15.618 1.753 20.915 7.047c6.757 6.754 5.069 18.825-1.289 25.955s-15.952 10.362-25.249 12.559c-12.318 2.911-25.641 4.441-37.34-.39s-20.803-17.837-17.414-30.032c1.431-5.151 4.803-9.505 8.063-13.743s6.559-8.67 7.802-13.87c1.036-4.333.269-9.365-2.604-12.615a3.654 3.654 0 01-.49-4.272l.05-.086z" class="E"/><path d="M89.843 294.883a32.18 32.18 0 01-31.071-5.473c-10.883-9.134-14.295-24.183-17.071-38.117l-8.212-41.214 17.192 11.838c12.363 8.513 25.005 17.299 33.566 29.629s12.297 29.163 5.419 42.506" fill="#6fcf97"/><path d="M88.373 344.782c1.74-12.675 3.529-25.512 2.309-38.323-1.084-11.377-4.555-22.489-11.621-31.6a52.58 52.58 0 00-13.487-12.222c-1.349-.851-2.59 1.286-1.247 2.134a49.981 49.981 0 0119.768 23.851c4.304 10.947 4.995 22.879 4.253 34.508-.448 7.032-1.399 14.018-2.357 20.995a1.28 1.28 0 00.863 1.52 1.24 1.24 0 001.52-.863z" fill="#27ae60"/><path d="M71.613 322.354a23.68 23.68 0 01-20.638 10.651c-10.447-.496-19.157-7.787-26.997-14.71L.789 297.821l15.348-.735c11.037-.528 22.359-1.021 32.872 2.383s20.208 11.595 22.13 22.476" fill="#6fcf97"/><path d="M93.291 352.068c-8.375-14.82-18.09-31.29-35.448-36.554a39.565 39.565 0 00-14.91-1.539c-1.583.136-1.188 2.577.392 2.44a36.75 36.75 0 0123.794 6.295c6.709 4.567 11.933 10.916 16.354 17.648 2.708 4.124 5.134 8.423 7.56 12.716.775 1.372 3.042.382 2.257-1.006z" fill="#27ae60"/><path d="M106.71 367.666a17.93 17.93 0 00-3.394-9.048 17.936 17.936 0 00-7.596-5.974v-8.567H81.35v8.837a17.927 17.927 0 00-7.187 5.973 17.93 17.93 0 00-3.204 8.779l-3.379 39.277h42.51l-3.379-39.277z" class="C"/></g><defs><clipPath id="A"><path fill="#fff" d="M0 0h570v411.748H0z"/></clipPath><path id="B" d="M225.759 226.61h-61.043a.19.19 0 01-.067-.013c-.021-.009-.041-.022-.057-.038s-.029-.036-.038-.057a.17.17 0 01-.013-.067.17.17 0 01.013-.067c.009-.021.022-.04.038-.057s.036-.029.057-.037a.17.17 0 01.067-.013h61.043a.173.173 0 01.122.297.176.176 0 01-.122.052z"/></defs></svg>