<svg width="256" height="256" fill="none" xmlns="http://www.w3.org/2000/svg"><path d="M214.016 190.36c7.697-5.3 17.955-6.365 23.949-14.482 2.877.401 4.263-1.472 5.488-3.591-.272-1.513-1.152-3.033.831-4.263.97-.601 1.427-1.89 1.42-3.169-1.085-1.439-.128-3.584-1.689-4.864l-2.11-.256c-1.758-.786-2.933.452-4.249 1.211-1.671 1.555-4.331 1.467-5.76 3.434-.749 1.683-1.488 3.576-3.547 3.82-3.284.384-4.985 2.508-6.389 5.053-.096-.493.384-.64.512-.985 1.116-1.873 2.316-3.43 4.705-3.968 1.738-.395 3.958-1.375 3.24-3.75-.647-2.141-2.697-1.697-4.424-1.18-.753.226-1.623-.084-2.286.512-7.108 1.818-12.462 6.428-17.751 11.143-.707 0-.937.416-.924 1.049.761 2.491 2.706 4.313 3.755 6.643 1.951 2.413 1.765 6.283 5.229 7.643z" fill="#FACBB7"/><path d="M232.52 164.691c1.493-1.716 4.458-.832 5.602-3.168.88-1.31 2.117-2.526 1.138-4.326l-.441-.405c-1.07-.102-2.15-.366-3.191.149l-8.695 4.544c1.127 2.355 3.939 1.764 5.587 3.206z" fill="#F9C8B6"/><path d="M232.52 164.691c-1.024-2.519-3.798-2.009-5.588-3.206l-3.219 2.402c2.048.529 5.367-1.376 5.962 1.143.484 2.048-2.932 2.388-4.82 3.101-2.166.816-2.577 2.882-3.546 4.565-.568.954-.549 1.614.804 1.607 1.965-2.267 3.177-5.248 7.079-5.306 2.098-.028 3.052-2.203 3.328-4.306z" fill="#F7B6A7"/><path d="M222.113 174.303c-.64-.348-.787-.945-.804-1.607-.809.699-1.826 1.76-1.137 2.581.922 1.099 1.441-.284 1.941-.974z" fill="#F9C1AF"/><path d="M140.229 56.011s-.829-29.703-24.04-31.499c0 0-.147-14.848-5.94-18.652-4.387-2.878-10.638-2.902-15.336-2.625-4.697.276-19.21-.128-19.763 16.862-.553 16.991.118 33.202.698 39.506.512 5.587 7.874 26.527 8.842 27.904.968 1.377 13.952-8.427 14.368-13.125.416-4.698-.27-7.04.836-8.98 1.106-1.938 4-4.559 4-9.118l36.335-.273z" fill="#413277"/><path d="M140.229 56.011s6.483 38.639-4.881 49.077c-11.363 10.438-24.403 24.777-24.403 24.777L85.05 110.676s2.746-6.858 1.996-13.44c-.75-6.581-1.996-9.58-1.996-9.58l5.4-3.11c.014-.733-4.634-6.913-5.022-9.154-.383-2.191 1.247-6.144 5.3-5.294 3.744.784 6.925 8.566 7.641 6.254.717-2.312.223-8.895 1.39-10.674 1.168-1.78 4.072-4.747 4.135-9.378l36.335-.288z" fill="#FACCB8"/><path d="M143.125 85.79h-19.847s5.376-4.625 11.352-4.625c6.139 0 8.495 4.624 8.495 4.624z" fill="url(#paint0_linear)"/><path d="M108.915 126.382s-1.329-6.919-6.848-9.344c-5.602-2.456-12.808-5.331-16.21-8.814 0 0-1.378 7.569-6.359 11.46-4.98 3.891 39.534 17.588 39.534 17.588l8.405-19.761-9.892-1.265s-7.849 1.419-8.63 10.136z" fill="#FFFDFE"/><path d="M133.754 126.353s16.059 8.906 22.08 25.967c6.021 17.061 12.24 32.512 16.053 37.12 0 0 22.074-3.212 33.111-13.847 0 0 16.054 25.486 16.656 36.122 0 0-37.202 53.267-76.885 32.17v9.043s-112.896-.256-126.583-55.757c0 0 12.684-50.971 21.977-59.894 9.292-8.922 25.117-12.339 31.143-14.525s9.708-4.275 10.547-5.466c0 0 10.72 14.526 23.387 13.641 12.523-.883 15.173-7.954 15.911-9.427.737-1.473 12.603 4.853 12.603 4.853z" fill="url(#paint1_linear)"/><path d="M135.529 127.453c.819 16.913 17.956 56.158 33.691 57.655l-.603-1.016c-3.64-7.094-8.269-18.984-12.783-31.776-4.648-13.167-15.278-21.478-19.885-24.584l-.42-.279z" fill="url(#paint2_linear)"/><path d="M70.415 123.063c-6.576 2.2-21.386 5.701-30.252 14.214-5.305 5.094-11.712 23.884-16.237 39.078l-.064.216c6.733-1.107 17.171-13.237 22.635-19.52 5.465-6.284 14.071-11.203 20.224-18.033 6.153-6.83 3.712-15.9 3.712-15.9l-.018-.055z" fill="url(#paint3_linear)"/><path d="M57.58 236.511l1.468-80.231-10.217 75.982s4.449 3.13 8.75 4.249zm87.188 7.375c8.18 4.352 16.256 5.539 23.922 4.685l.018-.04c-17.584-30.655-23.936-75.617-23.936-75.617v70.972h-.004z" fill="#E63548"/><path opacity=".25" d="M114.633 103.56s-9.866-.596-14.731-5.325c0 0-.676 3.648 2.161 6.351 2.838 2.704 12.183 11.825 11.497 24.426 0 0 6.669-2.833 7.591-7.511.921-4.677-6.518-17.941-6.518-17.941z" fill="#212120"/><path opacity=".7" d="M120.285 115.873c5.76-.311-5.652-12.313-5.652-12.313s-9.866-.596-14.731-5.325c0 0-.676 3.648 2.161 6.351 2.037 1.939 7.424 7.18 10.047 14.64 0 0 2.253-3.031 8.175-3.353z" fill="#F49D8B"/><path d="M116.145 23.201h-10.7c.256-7.565-1.637-13.32-2.571-15.666a.91.91 0 01.829-1.248c2.009-.04 7.189.058 7.189.058s.848.768 1.246 1.368c.992 1.503 3.433 5.105 4.007 15.488zm-13.636.135s-1.047-15.488-3.127-16.721c0 0-8.694-.486-13.164 7.58-1.315 2.372-1.908 5.075-1.908 7.788v8.585s8.035-6.4 18.199-7.232z" fill="#7C61A7"/><path d="M133.754 126.353s-11.867-6.325-12.603-4.852c-.736 1.474-3.388 8.544-15.911 9.428-12.672.884-23.387-13.641-23.387-13.641-.84 1.19-2.973 2.57-8.807 5.233l.077.086c7.761 8.67 17.69 19.775 34.255 19.756 15.755-.017 26.328-15.943 26.328-15.943l.048-.067z" fill="url(#paint4_linear)"/><path d="M114.633 103.56s7.478-1.104 11.278-4.045c3.8-2.942 5.002-4.168 7.296-4.168 2.222 0 4.087 2.971 5.12 4.105a1.77 1.77 0 01.449 1.39c-.944 8.712-9.844 72.342-24.143 2.718z" fill="url(#paint5_linear)"/><path d="M79.597 244.096c-3.903-6.806-6.272-16.672-5.815-30.885.805-24.842 8.252-45.353 29.99-45.353 20.912 0 29.916 18.497 29.915 45.696 0 17.892-4.454 30.772-11.264 38.056-11.999-1.156-27.459-3.355-42.826-7.514z" fill="url(#paint6_linear)"/><defs><linearGradient id="paint0_linear" x1="143.125" y1="83.477" x2="123.278" y2="83.477" gradientUnits="userSpaceOnUse"><stop stop-color="#413277"/><stop offset=".28" stop-color="#45377D"/><stop offset=".64" stop-color="#52458C"/><stop offset="1" stop-color="#645AA4"/></linearGradient><linearGradient id="paint1_linear" x1="119.921" y1="252.928" x2="119.921" y2="117.288" gradientUnits="userSpaceOnUse"><stop stop-color="#EB5950"/><stop offset=".14" stop-color="#EC5F55"/><stop offset=".64" stop-color="#EE7165"/><stop offset="1" stop-color="#EF786B"/></linearGradient><linearGradient id="paint2_linear" x1="174.469" y1="179.859" x2="128.796" y2="134.186" gradientUnits="userSpaceOnUse"><stop stop-color="#F39327"/><stop offset=".59" stop-color="#F6A241"/><stop offset="1" stop-color="#F8AE56"/></linearGradient><linearGradient id="paint3_linear" x1="17.295" y1="165.199" x2="81.111" y2="128.356" gradientUnits="userSpaceOnUse"><stop stop-color="#F39327"/><stop offset=".11" stop-color="#F49830"/><stop offset=".41" stop-color="#F6A445"/><stop offset=".71" stop-color="#F8AC52"/><stop offset="1" stop-color="#F8AE56"/></linearGradient><linearGradient id="paint4_linear" x1="133.754" y1="129.825" x2="73.046" y2="129.825" gradientUnits="userSpaceOnUse"><stop stop-color="#EB5950"/><stop offset=".13" stop-color="#EC5F55"/><stop offset=".64" stop-color="#EE7165"/><stop offset="1" stop-color="#EF786B"/></linearGradient><linearGradient id="paint5_linear" x1="-21211.4" y1="33960.9" x2="-26943.3" y2="35938.6" gradientUnits="userSpaceOnUse"><stop stop-color="#413277"/><stop offset=".28" stop-color="#45377D"/><stop offset=".64" stop-color="#52458C"/><stop offset="1" stop-color="#645AA4"/></linearGradient><linearGradient id="paint6_linear" x1="84.504" y1="246.932" x2="125.499" y2="175.927" gradientUnits="userSpaceOnUse"><stop stop-color="#F39327"/><stop offset=".27" stop-color="#F4972D"/><stop offset=".64" stop-color="#F5A03E"/><stop offset="1" stop-color="#F8AE56"/></linearGradient></defs></svg>