<svg width="256" height="210" fill="none" xmlns="http://www.w3.org/2000/svg"><g clip-path="url(#clip0)"><path opacity=".1" d="M249.775 121.245v.474a83.534 83.534 0 01-.487 8.199.417.417 0 010 .05c-.023.226-.049.45-.076.677a82.422 82.422 0 01-3.146 14.895 74.126 74.126 0 01-7.84 17.263 65.455 65.455 0 01-3.284 4.79 62.344 62.344 0 01-3.308 4.029l-.297.329a77.235 77.235 0 01-8.074 7.673c-4.688 3.886-9.736 7.266-14.864 10.402-.292.18-.586.357-.88.521a.486.486 0 01-.065.039c-6.97 4.214-14.198 8.017-21.644 11.062-8.153 3.342-16.571 5.772-25.207 6.834-12.039 1.48-24.223.276-36.188-1.792a235.277 235.277 0 01-29.432-7.032l-1.589-.498a216.301 216.301 0 01-17.182-6.271 193.487 193.487 0 01-34.727-18.646 150.096 150.096 0 01-4.107-2.865 178.772 178.772 0 01-5.59-4.194l-1.135-.88a116.77 116.77 0 01-13.497-12.395c-5.605-6.1-10.395-12.981-13.543-20.837a56.71 56.71 0 01-1.365-3.774l-.04-.127a38.043 38.043 0 01-.578-1.98c-.26-.969-.488-1.95-.685-2.943a49.277 49.277 0 01-.932-10.713 46.879 46.879 0 011.042-8.855 39.944 39.944 0 012.95-8.744 31.516 31.516 0 014.515-6.962A26.624 26.624 0 0112.773 85c2.826-2.105 5.959-3.571 9.207-4.73a74.55 74.55 0 014.628-1.472 196.86 196.86 0 013.31-.916l3.251-.878a203.104 203.104 0 006.22-1.782c5.594-1.708 11.077-3.776 16.148-6.86a44.637 44.637 0 002.438-1.594 43.694 43.694 0 006.074-5.113 36.471 36.471 0 002.683-3.037c.343-.437.677-.883.995-1.336.44-.628.856-1.266 1.242-1.922 1.932-3.282 3.125-6.902 2.985-10.718a16.5 16.5 0 00-.17-1.878c-.338-2.3-.664-4.545-.903-6.74-1.006-9.082-.581-17.318 6.235-25.056C85.59 1.349 98.893-.612 111 .156c35.008 2.214 66.878 22.202 94.885 45.997a374.69 374.69 0 017.178 6.25 506.39 506.39 0 011.789 1.605c4.428 3.988 8.788 8.124 12.848 12.554.329.36.657.719.98 1.081.198.224.398.445.594.672 1.265 1.433 2.494 2.9 3.685 4.402a83.361 83.361 0 018.418 12.762 72.472 72.472 0 017.392 22.574c.453 2.861.751 5.745.893 8.639.044.852.073 1.706.089 2.558v.818c.026.396.026.781.023 1.177z" fill="#3F3474"/><path d="M102.615 116.877l-4.168 74.176 4.168.054 3.386-75.272-3.386 1.042z" fill="#3F3D56"/><path d="M87.248 154.458h-51.57v11.2h51.57v-11.2z" fill="#3F3474"/><path d="M90.634 164.353v7.033H37.362a178.655 178.655 0 01-5.589-4.194v-2.839h58.86z" fill="#3F3D56"/><path d="M101.271 148.348a25.692 25.692 0 01-.537 2.006c-.591 1.919-1.302 3.813-1.44 5.808-.185 2.636.52 5.701-1.302 7.616-.47.494-1.081.864-1.5 1.393-.065.083-.124.17-.178.26-.375.62-.42 1.376-.424 2.084.004 1.511.102 3.02.294 4.519.617 5.157 1.836 10.325.234 15.192a23.18 23.18 0 01-1.013 2.477c-.781 1.719-1.633 3.415-1.888 5.277-.188 1.381-.13 2.803-.14 4.207a223.5 223.5 0 01-2.467-.803 215.792 215.792 0 01-14.716-5.469c.013-.071.026-.143.036-.214.373-2.318-.138-4.688-.758-6.949-1.302-4.79-3.146-9.532-4.237-14.356a36.32 36.32 0 01-.862-5.73 19.66 19.66 0 01-.052-1.302c-.013-.568 0-1.136.023-1.709.055-1.143.104-2.5-.81-3.196-.503-.377-1.167-.443-1.753-.672-1.13-.44-1.904-1.461-2.8-2.279a3.661 3.661 0 00-3.28-.963c-5.854 1.341-10.157 6.308-15.605 8.819-.211.099-.422.192-.636.281a9.258 9.258 0 00-1.998 1.021c-.437.303-.754.75-.896 1.263-.138.552-.018 1.13.05 1.698a8.67 8.67 0 01-.117 2.769 8.513 8.513 0 01-.279 1.042c-.208.617-.487 1.221-.753 1.823a145.823 145.823 0 01-4.107-2.865 180.083 180.083 0 01-5.59-4.193l-1.117-.899a116.78 116.78 0 01-13.497-12.395c.555-1.563 1.357-3.016 1.743-4.618.218-.919.3-1.875.601-2.769a9.948 9.948 0 011.438-2.578 34.901 34.901 0 018.007-8.012c3.227-2.313 6.954-4.167 9.858-6.793a15.541 15.541 0 003.013-3.57c.05-.081.097-.167.138-.261a5.37 5.37 0 00.466-1.49c.209-1.166.178-2.448.282-3.568a38.04 38.04 0 0010.712.323c4.155-.466 8.218-1.62 12.372-2.068.313-.036.628-.065.943-.091 1.33-.107 2.664-.13 4-.115 1.118 0 2.235.05 3.353.086l12.3.417c1.363.047 2.754.099 4.022.596 1.506.592 2.712 1.769 3.678 3.063a15.886 15.886 0 012.256 4.254 15.906 15.906 0 01.45 1.505c.07.289.133.578.19.87.287 1.443.456 2.917.91 4.311.03.101.064.203.1.302.545 1.526 1.449 2.893 2.131 4.36a16.381 16.381 0 011.152 10.285z" fill="#35323E"/><path d="M63.88 55.139c-1.1-.876-2.694-.235-3.98.33a25.56 25.56 0 01-3.324 1.201c-.232.09-.483.115-.729.076-.52-.125-.74-.743-1.128-1.118-.674-.648-1.779-.495-2.649-.143-.87.352-1.729.86-2.661.781-.995-.078-1.86-.812-2.865-.836-1.772-.041-3.259 2.141-4.933 1.563-1.021-.352-1.824-1.68-2.83-1.302-.78.297-.85 1.378-1.322 2.083-.555.823-1.636 1.055-2.56 1.42-2.915 1.151-4.845 4.399-4.465 7.509.211 1.716 1.042 3.29 1.592 4.928 1.63 4.763 1.07 10.137 3.125 14.731.26-.245.406-.336.66-.578a6.027 6.027 0 00-.352 4.323c.216.722.567 1.394.833 2.1.276.791.499 1.6.667 2.422l2.266 9.996c.885 3.907 1.773 7.814 1.927 11.815a34.472 34.472 0 01-.594 7.761c4.105-.68 7.86-2.5 12.02-2.477 1.527 0 3.04.261 4.553.469 4.412.618 8.862.92 13.317.904a5.288 5.288 0 002.042-.287c.573-.244 1.042-.679 1.584-.995 1.06-.625 2.344-.781 3.565-.781 5.572-.101 10.94 1.938 16.474 2.657 2.186-4.587 2.316-10.083.638-14.878-.497-1.424-1.166-2.812-1.364-4.31a21.87 21.87 0 01-.063-2.769 20.083 20.083 0 00-1.258-6.923c-.323-.867-.71-1.75-.677-2.675.034-.924.49-1.786.938-2.604.909-1.667 1.823-3.35 3.107-4.756 1.315-1.453 2.961-2.56 4.589-3.646l4.019-2.699c-.55-3.472-1.258-7.129-2.73-10.322-1.471-3.193-3.672-6.128-6.65-7.996a21.967 21.967 0 00-3.14-1.562c-1.521-.641-3.105-1.206-4.754-1.303-1.875-.106-3.722.396-5.573.709-5.83.982-12.69.862-17.315-2.818z" fill="#3F3474"/><path d="M107.824 115.387l-1.912 2.415-3.605 4.55-4.167 5.258-1.164 1.469h-2.258l-55.918.066-35.018.039H2.219a38.043 38.043 0 01-.578-1.98 44.76 44.76 0 01-.685-2.943c-.042-.19-.078-.38-.112-.573l12.705-8.306 4.777-.026 14.611-.083 8.16-.047h2.425l5.439-.029 41.449-.237 2.12-.013h.92l2.434-.013 9.062-.052 1.74-.662.127.136 1.011 1.031z" fill="#3F3D56"/><path d="M107.042 114.085l-.216.261-1.422 1.674-2.927 3.457-6.14 7.238-54.383-1.389-41.009-1.041a49.288 49.288 0 01-.932-10.713l4.548-2.328 1.041-.537 8.108-4.167 7.116-3.647 18.56 2.412 4.11.534 1.86.24 2.722.354.229.031 42.68 5.535 4.718.612 2.768.359 8.533 1.11.036.005z" fill="#504F60"/><path d="M98.187 126.587l-.044 1.024-.26 5.779-1.402 31.776-.297 6.868-.781 17.67-.44 9.98-1.59-.497c-.822-.262-1.645-.53-2.466-.802l3.81-69.282.081-1.453 1.678-.521 1.71-.542zm-94.285-.076l-.118 2.675-.171 3.907a56.704 56.704 0 01-1.365-3.774l-.04-.127a38.322 38.322 0 01-.578-1.98l2.272-.701z" fill="#3F3D56"/><path d="M72.011 87.13c6.617 0 11.981-7.23 11.981-16.148s-5.364-16.148-11.981-16.148-11.981 7.23-11.981 16.148S65.394 87.13 72.011 87.13z" fill="#A1616A"/><path opacity=".1" d="M72.011 87.13c6.617 0 11.981-7.23 11.981-16.148s-5.364-16.148-11.981-16.148-11.981 7.23-11.981 16.148S65.394 87.13 72.011 87.13z" fill="#464655"/><path d="M73.704 77.884c9.206 0 16.67-7.463 16.67-16.669s-7.464-16.67-16.67-16.67c-9.206 0-16.67 7.464-16.67 16.67 0 9.206 7.464 16.67 16.67 16.67z" fill="#A1616A"/><path d="M74.035 35.524a21.334 21.334 0 00-3.024.46c-2.636.641-4.915 2.063-7.134 3.46-.995.627-2.019 1.28-2.636 2.203-1.11 1.654-.68 3.758-1.302 5.595-.323.942-.917 1.789-1.42 2.667-1.383 2.406-2.107 5.05-2.818 7.667-.146.542-.187 1.277.404 1.485.34.07.695.03 1.01-.115 1.868-.617 4.24-.794 5.626.459 1.386 1.253 1.269 3.474 2.918 4.428 1.888 1.101 4.836-.23 6.55 1.07.734.557 1 1.45 1.602 2.123 1.401 1.563 4.097 1.487 6.34 1.172 1.286-.182 2.864-.305 3.646.599.375.427.481 1.013.916 1.398.782.699 2.212.344 2.975-.372.763-.716 1.128-1.685 1.763-2.49 1.237-1.563 3.412-2.414 4.688-3.959 1.068-1.302 1.391-2.933 1.683-4.506l1.086-5.831c.44-2.365.841-4.949-.49-7.033-.474-.75-1.153-1.396-1.562-2.172-.274-.52-.427-1.07-.745-1.563a6.49 6.49 0 00-1.336-1.349l-2.571-2.128a21.613 21.613 0 00-2.81-2.083c-3.67-2.139-9.166-1.576-13.36-1.185z" fill="#464353"/><path d="M19.13 78.463c-.617.656-1.187 1.364-1.849 1.979a22.4 22.4 0 01-1.823 1.459 69.37 69.37 0 00-2.995 2.372 16.773 16.773 0 00-2.745 2.743c-1.391 1.867-2.05 4.19-3.352 6.12-1.152 1.712-2.774 3.064-3.944 4.762a7.366 7.366 0 00-1.125 2.362c-.172.821-.25 1.659-.232 2.498-.023 1.375-.044 2.766.237 4.113.282 1.346.899 2.669 1.956 3.552.982.821 2.25 1.198 3.493 1.511.64.159 1.334.307 1.943.054a3.196 3.196 0 001.13-.953l3.17-3.646c2.12-2.448 4.324-4.949 7.233-6.381.912-.446 1.873-.782 2.787-1.214 3.876-1.868 6.616-5.691 7.678-9.858.26-1.019.427-2.058.597-3.097l.458-2.85a.909.909 0 000-.434.937.937 0 00-.333-.396 55.258 55.258 0 01-6.184-5.835c-.453-.5-.877-1.185-1.4-1.604-.657-.521-.608-.482-1.397 0a16.743 16.743 0 00-3.302 2.743z" fill="#A1616A"/><path d="M40.813 97.424a.488.488 0 00-.818-.126.488.488 0 00-.062.553l-.26.127 7.767 15.92 1.403-.685-7.766-15.93-.264.14z" fill="#3F3D56"/><path opacity=".04" d="M19.13 78.463c-.617.656-1.187 1.364-1.849 1.979a22.4 22.4 0 01-1.823 1.459 69.37 69.37 0 00-2.995 2.372 16.773 16.773 0 00-2.745 2.743c-1.391 1.867-2.05 4.19-3.352 6.12-1.152 1.712-2.774 3.064-3.944 4.762a7.366 7.366 0 00-1.125 2.362c-.172.821-.25 1.659-.232 2.498-.023 1.375-.044 2.766.237 4.113.282 1.346.899 2.669 1.956 3.552.982.821 2.25 1.198 3.493 1.511.64.159 1.334.307 1.943.054a3.196 3.196 0 001.13-.953l3.17-3.646c2.12-2.448 4.324-4.949 7.233-6.381.912-.446 1.873-.782 2.787-1.214 3.876-1.868 6.616-5.691 7.678-9.858.26-1.019.427-2.058.597-3.097l.458-2.85a.909.909 0 000-.434.937.937 0 00-.333-.396 55.258 55.258 0 01-6.184-5.835c-.453-.5-.877-1.185-1.4-1.604-.657-.521-.608-.482-1.397 0a16.743 16.743 0 00-3.302 2.743z" fill="#464655"/><path d="M108.92 107.8c-.026 1.662-.091 3.373-.781 4.889-.297.657-.758 1.302-1.448 1.519-.418.096-.85.112-1.274.047a45.994 45.994 0 00-15.234 1.208c1.328-2.657.565-5.842.932-8.79.102-.805.287-1.597.357-2.404.26-2.865-.966-5.647-1.529-8.476a18.964 18.964 0 010-7.417c.096-.63.313-1.237.639-1.785a4.17 4.17 0 011.463-1.273c2.11-1.2 4.597-1.339 6.968-1.18 1.596.107 4.797-.044 6.128.938 1.456 1.075 1.917 4.688 2.31 6.357.589 2.56.99 5.161 1.198 7.78.256 2.855.31 5.722.271 8.587z" fill="#A1616A"/><path d="M15.622 113.567L25 119.818l42.194-1.563-27.87-4.688h-23.7z" fill="#fff"/><path d="M27.986 63.9c-1.54 1.357-2.844 2.956-4.303 4.402-2 1.985-4.274 3.672-6.537 5.352a4.866 4.866 0 013.386 3.412c.099.383.148.782.26 1.157.26.888.834 1.654 1.448 2.344 2.641 2.977 6.337 5.18 7.895 8.856.05.178.16.334.312.442a.686.686 0 00.404.047c1.41-.148 2.487-1.284 3.386-2.388 1.875-2.344 3.503-4.933 4.428-7.793.924-2.86 1.073-6.022.065-8.856-.503-1.411-1.279-2.708-2.05-3.992-.675-1.124-1.35-2.245-2.021-3.365-.352-.592-.8-1.793-1.49-2.084-1.49-.64-4.227 1.51-5.183 2.466zm76.715 16.834l2.216 5.209a16.102 16.102 0 00-14.56 2.018c-1.262.904-2.421 2.04-2.992 3.483a1.521 1.521 0 01-1.508-.592 3.024 3.024 0 01-.557-1.594c-.206-2 .552-3.961 1.302-5.831.349-.875.709-1.769 1.328-2.48.62-.71 1.443-1.18 2.266-1.622a50.45 50.45 0 018.218-3.631c1.198-.388 2.453-.38 3.125.74.779 1.336.552 2.878 1.162 4.3z" fill="#3F3474"/><path d="M15.677 96.364c.555.442 1.042.966 1.612 1.388a11.52 11.52 0 001.917 1.076l2.568 1.234a14.4 14.4 0 002.488 1.011c1.099.294 2.252.323 3.357.596 1.393.344 2.667 1.06 4.04 1.474 1.372.414 2.98.482 4.125-.38.716-.539 1.258-1.43 2.146-1.563.573-.075 1.125.201 1.636.469l6.683 3.514c.901.474 1.855 1 2.326 1.904.471.903.154 2.276-.839 2.51-.345.04-.693.06-1.041.06-.344.042-.72.245-.766.592-.002.215.055.426.164.612.3.687.388 1.51.039 2.177-.349.667-1.206 1.081-1.89.781.116 1.008-.98 1.714-1.957 1.983-2.464.674-5.076.26-7.595-.167-.99-.167-1.995-.339-2.896-.782-.433-.21-.834-.481-1.271-.677-1.2-.534-2.566-.463-3.878-.44-6.072.107-12.09-1.018-18.06-2.138-1.107-.209-2.246-.43-3.191-1.042-1.823-1.188-2.5-3.626-2.2-5.782.299-2.157 1.393-4.11 2.468-6.006l1.394-2.456a3.16 3.16 0 01.75-.99c2.05-1.566 6.115-.37 7.87 1.042z" fill="#A1616A"/><path opacity=".04" d="M15.677 96.364c.555.442 1.042.966 1.612 1.388a11.52 11.52 0 001.917 1.076l2.568 1.234a14.4 14.4 0 002.488 1.011c1.099.294 2.252.323 3.357.596 1.393.344 2.667 1.06 4.04 1.474 1.372.414 2.98.482 4.125-.38.716-.539 1.258-1.43 2.146-1.563.573-.075 1.125.201 1.636.469l6.683 3.514c.901.474 1.855 1 2.326 1.904.471.903.154 2.276-.839 2.51-.345.04-.693.06-1.041.06-.344.042-.72.245-.766.592-.002.215.055.426.164.612.3.687.388 1.51.039 2.177-.349.667-1.206 1.081-1.89.781.116 1.008-.98 1.714-1.957 1.983-2.464.674-5.076.26-7.595-.167-.99-.167-1.995-.339-2.896-.782-.433-.21-.834-.481-1.271-.677-1.2-.534-2.566-.463-3.878-.44-6.072.107-12.09-1.018-18.06-2.138-1.107-.209-2.246-.43-3.191-1.042-1.823-1.188-2.5-3.626-2.2-5.782.299-2.157 1.393-4.11 2.468-6.006l1.394-2.456a3.16 3.16 0 01.75-.99c2.05-1.566 6.115-.37 7.87 1.042z" fill="#464655"/><path d="M95.184 100.864c-1.357.641-2.915.704-4.332 1.196-1.416.492-2.62 1.378-3.92 2.099-3.385 1.891-7.292 2.605-11.129 3.284-2.326.417-4.688.834-7.032.735-3.172-.136-6.22-1.193-9.293-1.99-3.074-.797-6.353-1.333-9.398-.438a10.578 10.578 0 00-6.902 6.624c-.638 1.873-.726 3.891-.604 5.865.64.472 1.537-.182 1.886-.898s.539-1.594 1.216-2.011c1.175.399 1.461 1.964 2.43 2.737.605.485 1.412.613 2.18.722l3.96.563c.953.135 2.06.226 2.75-.446.336-.325.52-.781.828-1.13.63-.698 1.682-.818 2.62-.724 2.928.291 5.673 2.19 8.58 1.74 1-.154 1.93-.581 2.883-.917 5.65-1.995 11.926-.782 17.805-1.925 2.242-.435 4.401-1.206 6.534-2.019 1.16-.44 2.332-.901 3.321-1.646a6.993 6.993 0 002.699-6.201 7.093 7.093 0 00-2.503-4.595c-.459-.39-1.06-1.138-1.61-1.383-1.05-.46-2.079.339-2.97.758z" fill="#A1616A"/><path opacity=".1" d="M87.573 67.591c-.435-.385-.541-.971-.916-1.399-.782-.903-2.36-.781-3.647-.599-2.243.315-4.949.388-6.34-1.172-.601-.672-.867-1.563-1.601-2.123-1.714-1.302-4.662.032-6.55-1.07-1.65-.961-1.543-3.19-2.918-4.428-1.375-1.237-3.758-1.075-5.626-.458-.316.145-.67.185-1.01.114-.592-.208-.55-.942-.404-1.484.711-2.618 1.435-5.261 2.818-7.668.503-.878 1.097-1.724 1.42-2.667.565-1.651.276-3.519 1.018-5.082-.797.521-1.563 1.09-2.055 1.824-1.11 1.654-.68 3.758-1.302 5.594-.323.943-.917 1.79-1.42 2.667-1.383 2.407-2.107 5.05-2.818 7.668-.146.542-.187 1.276.404 1.485.34.07.694.03 1.01-.115 1.868-.617 4.24-.794 5.626.459 1.386 1.252 1.269 3.474 2.917 4.427 1.889 1.102 4.837-.229 6.55 1.07.735.558 1.001 1.451 1.603 2.123 1.4 1.563 4.097 1.488 6.34 1.173 1.286-.183 2.864-.305 3.646.599.375.427.481 1.013.916 1.398.782.698 2.212.344 2.975-.372a7.9 7.9 0 001.245-1.704c-.677.206-1.399.175-1.88-.26zm4.746-2.865a7.385 7.385 0 00-.466.674c1-.713 2.06-1.38 2.807-2.29a5.53 5.53 0 00.521-.75c-1.039.746-2.123 1.43-2.862 2.366z" fill="#464655"/><path d="M144.939 116.302l.781 74.75 3.647-.52-.782-74.23h-3.646zm21.878 13.543l.782 74.751 3.646-.521-.781-74.23h-3.647zm68.117 37.761l-.015-1.435v-.854l-.138-13.148-.217-20.555-.036-1.774h-3.646l.018 1.709.114 11.009.05 4.767.042 3.859.067 6.673.042 3.936v.417l.055 5.172.047 4.561.296-.328c.478-.533.945-1.075 1.402-1.626l1.919-2.383z" fill="#3F3D56"/><path d="M162.78 141.957l-2.084 3.115 2.084 14.192 17.711 4.847h28.65l17.19 1.039 8.189-5.605-1.417-9.626-6.251-7.962H162.78z" fill="#3F3474"/><path d="M160.696 145.072l-1.041 8.652s-5.47 16.963 38.547 15.924c44.017-1.039 36.464-4.5 36.464-4.5l-.26-10.038s1.534 4.75-20.837 4.107c-22.37-.643-43.236-2.722-43.236-2.722s-7.813 1.383-9.637-11.423z" fill="#3F3D56"/><path d="M197.369 67.518c-2.511 1.144-4.413 3.36-5.686 5.811-1.274 2.45-1.99 5.141-2.696 7.814-.745 2.818-1.492 5.644-1.878 8.532-.687 5.136-.172 10.536 2.188 15.148 2.36 4.613 6.72 8.335 11.825 9.223 1.971.347 3.998.276 5.99.07a48.665 48.665 0 0010.577-2.331c3.582-1.211 7.309-3.076 8.903-6.511.924-1.993 1.003-4.264.958-6.457a68.678 68.678 0 00-2.685-17.656c-.482-1.667-1.042-3.347-2.063-4.75-1.021-1.405-2.417-2.433-3.842-3.387-6.092-4.102-14.098-8.913-21.591-5.506z" fill="#FBBEBE"/><path opacity=".05" d="M197.369 67.518c-2.511 1.144-4.413 3.36-5.686 5.811-1.274 2.45-1.99 5.141-2.696 7.814-.745 2.818-1.492 5.644-1.878 8.532-.687 5.136-.172 10.536 2.188 15.148 2.36 4.613 6.72 8.335 11.825 9.223 1.971.347 3.998.276 5.99.07a48.665 48.665 0 0010.577-2.331c3.582-1.211 7.309-3.076 8.903-6.511.924-1.993 1.003-4.264.958-6.457a68.678 68.678 0 00-2.685-17.656c-.482-1.667-1.042-3.347-2.063-4.75-1.021-1.405-2.417-2.433-3.842-3.387-6.092-4.102-14.098-8.913-21.591-5.506z" fill="#464655"/><path d="M194.548 100.302a11.845 11.845 0 002.604 2.604c2.48 1.714 5.663 1.946 8.674 2.04 2.417.072 5.188-.066 6.704-1.951.682-.849.99-1.933 1.266-2.988a132.563 132.563 0 003.62-19.735l6.897.024c2.985 12.78 2.74 26.066 2.479 39.191l-.377 19.138-4.444-.471c-10.551-1.118-21.117-2.235-31.726-2.428a181.516 181.516 0 00-18.628.615l9.676-28.77c1.256-3.74 2.524-7.53 2.818-11.46.425-5.702-1.174-11.72 1.042-16.995.177-.424.401-.865.805-1.086.404-.222.914-.167 1.378-.107.875.117 3.55 0 4.185.56.938.813.318.935-.013 2.245-.591 2.344-1.151 4.514-1.143 6.957.008 4.436 1.383 9.119 4.183 12.617z" fill="#3F3474"/><path d="M234.934 167.606a65.137 65.137 0 003.285-4.79c-.521-1.114-1.094-2.203-1.55-3.341-.698-1.745-1.099-3.594-1.495-5.431-.136-.625-.27-1.25-.404-1.875-1.458-6.8-2.828-13.697-3.112-20.592a51.91 51.91 0 01-.05-1.719v-2.141a50.366 50.366 0 01.425-5.628c0-.068.015-.133.026-.201l17.711-.646 1.49-.054c1.023-.037 2.107-.094 2.951-.675 1.419-.974 1.586-2.972 1.562-4.688a69.574 69.574 0 00-1.469-12.906c-.672-3.193-1.63-6.456-3.781-8.91-1.766-2.016-4.324-3.482-5.243-5.99-.342-.933-.428-1.956-.87-2.847-.443-.89-1.175-1.545-1.865-2.232a31.083 31.083 0 01-5.965-8.262c-1.054-2.125-2.198-4.47-3.576-5.938a3.86 3.86 0 00-.205-.214c-1.173-1.159-2.514-1.667-4.103-.878a5.286 5.286 0 00-.812.506 9.94 9.94 0 00-1.545 1.469 35.141 35.141 0 00-4.201 5.99 33.334 33.334 0 00-2.146 4.688 32.385 32.385 0 00-1.159 3.907 36.165 36.165 0 00-.542 2.97c-.521 3.74-.521 7.553-.448 11.34.078 3.479.232 6.967.547 10.434.078.838.165 1.676.261 2.513.191 1.655.427 3.304.708 4.949a80.732 80.732 0 00.453 2.378l.016.07c.344 1.453.611 2.923.799 4.404.021.186.037.371.047.555.044.851.037 1.705-.021 2.555-.059 1.005-.153 2.008-.2 3.014 0 .177 0 .351-.018.52-.013.508 0 1.016 0 1.524.053 1.215.197 2.425.432 3.618a23.379 23.379 0 002.555 6.92c1.321 2.36 2.988 4.524 4.209 6.939a29.916 29.916 0 012.344 6.826c.174.78.339 1.561.495 2.344.242 1.251.458 2.511.68 3.772.021.125.044.26.068.375.294 1.672.604 3.336 1.002 4.969.232.951.493 1.889.797 2.811l1.917-2.402z" fill="#464353"/><path d="M231.455 147.077c0 .234-.016.469-.026.706a33.366 33.366 0 01-.316 3.414 22.148 22.148 0 01-1.127 4.53c-.354.964-.805 1.89-1.344 2.763a12.783 12.783 0 01-1.672 2.154c-1.563 1.625-3.814 2.144-5.991 2.829-1.002.29-1.97.685-2.888 1.18-.164.091-.326.19-.482.294l-2.725 1.805c-.849.56-1.716 1.141-2.299 1.972a4.14 4.14 0 00-.261.44 9.967 9.967 0 00-.802 2.406c-1.417 5.902-2.836 11.809-3.808 17.8-.065.396-.128.794-.195 1.193l-.024.125a.618.618 0 00-.041-.086c-6.97 4.214-14.198 8.017-21.644 11.061l-1.618-13.543a16.41 16.41 0 01-.166-3.329c.153-1.753.867-3.414 1.06-5.162a8.801 8.801 0 00-.93-4.967c-.308-.594-.693-1.177-.763-1.841-.071-.665.312-1.271.979-1.339.521-.578.563-1.368.409-2.149a6.248 6.248 0 00-.365-1.19c-.443-1.089-1.003-2.274-.622-3.386.1-.202.145-.427.13-.651a.1.1 0 000-.042c-.089-.292-.435-.419-.615-.667-.338-.461 0-1.088.209-1.62.202-.571.32-1.168.349-1.774.028-.336.049-.674.086-1.007a9.94 9.94 0 01.242-1.339 10.566 10.566 0 014.279-6.126c1.013-.683 2.141-1.18 3.175-1.823a29.18 29.18 0 003.027-2.344 94.028 94.028 0 017.154-5.402 90.456 90.456 0 018.262-5.017 93.944 93.944 0 011.823-.958 45.092 45.092 0 011.998-.987c2.146-1.024 4.581-.641 6.954.041.995.284 1.977.623 2.925.93.926.301 1.817.701 2.657 1.193 2.102 1.235 3.839 3.058 4.56 5.36a.338.338 0 010 .045c.459 1.442.487 2.99.446 4.508z" fill="#F86D70"/><path opacity=".1" d="M231.455 147.077c0 .234-.016.469-.026.706a33.366 33.366 0 01-.316 3.414 22.148 22.148 0 01-1.127 4.53c-.354.964-.805 1.89-1.344 2.763a12.783 12.783 0 01-1.672 2.154c-1.563 1.625-3.814 2.144-5.991 2.829-1.002.29-1.97.685-2.888 1.18-.164.091-.326.19-.482.294l-2.725 1.805c-.849.56-1.716 1.141-2.299 1.972a4.14 4.14 0 00-.261.44 9.967 9.967 0 00-.802 2.406c-1.417 5.902-2.836 11.809-3.808 17.8-.065.396-.128.794-.195 1.193l-.024.125a.618.618 0 00-.041-.086c-6.97 4.214-14.198 8.017-21.644 11.061l-1.618-13.543a16.41 16.41 0 01-.166-3.329c.153-1.753.867-3.414 1.06-5.162a8.801 8.801 0 00-.93-4.967c-.308-.594-.693-1.177-.763-1.841-.071-.665.312-1.271.979-1.339.521-.578.563-1.368.409-2.149a6.248 6.248 0 00-.365-1.19c-.443-1.089-1.003-2.274-.622-3.386.1-.202.145-.427.13-.651a.1.1 0 000-.042c-.089-.292-.435-.419-.615-.667-.338-.461 0-1.088.209-1.62.202-.571.32-1.168.349-1.774.028-.336.049-.674.086-1.007a9.94 9.94 0 01.242-1.339 10.566 10.566 0 014.279-6.126c1.013-.683 2.141-1.18 3.175-1.823a29.18 29.18 0 003.027-2.344 94.028 94.028 0 017.154-5.402 90.456 90.456 0 018.262-5.017 93.944 93.944 0 011.823-.958 45.092 45.092 0 011.998-.987c2.146-1.024 4.581-.641 6.954.041.995.284 1.977.623 2.925.93.926.301 1.817.701 2.657 1.193 2.102 1.235 3.839 3.058 4.56 5.36a.338.338 0 010 .045c.459 1.442.487 2.99.446 4.508z" fill="#464655"/><path d="M206.724 103.935a.483.483 0 00-.473-.293.476.476 0 00-.345.167.495.495 0 00-.062.553l-.261.128 7.767 15.919 1.404-.685-7.767-15.929-.263.14z" fill="#3F3D56"/><path d="M216.434 87.26c9.206 0 16.669-7.462 16.669-16.668 0-9.207-7.463-16.67-16.669-16.67s-16.669 7.463-16.669 16.67c0 9.206 7.463 16.669 16.669 16.669z" fill="#FBBEBE"/><path d="M238.435 60.272a22.108 22.108 0 00-.589-3.93c-.979-4.212-2.768-8.358-5.85-11.382a22.845 22.845 0 00-.698-2.237 24.453 24.453 0 00-3.933-6.973c-.976-1.214-2.242-2.412-3.8-2.458-.437-.016-.901.06-1.302-.141a2.352 2.352 0 01-.727-.745 6.819 6.819 0 00-6.605-2.472l-.161.034c-.091.018-.183.04-.261.063-.078.023-.218.062-.328.096a23.39 23.39 0 011.211 2.29c.219.479.421.966.607 1.46-2.667.305-4.839 2.199-6.824 4.001l-4.672 4.24a.162.162 0 00-.024.024l-.135.13c-.034.034-.068.068-.099.104a2.48 2.48 0 00-.146.167c-.065.082-.124.17-.175.26a.95.95 0 00-.086.162 1.058 1.058 0 00-.044.11.04.04 0 000 .015.729.729 0 00-.018.065.78.78 0 00.044.552l3.081.034h.362c.016.412.029.826.045 1.237-.489.366-.959.757-1.407 1.172-.488.453-.947.936-1.372 1.448-2.779 3.358-4.23 7.694-4.376 12.06v1.594c0 .26.023.52.044.78.002.34.091.673.261.967a.79.79 0 00.073.094c.156.17.343.308.552.406l.224.11c.112.054.219.106.323.166.982.555 1.562 1.626 2.456 2.313.052.04.104.078.156.112l.117.078.073.047.099.058c.065.039.132.074.201.106l.125.063h.021c.104.047.208.091.315.13l.148.052.045.016c.041.013.085.028.13.039.088.026.175.05.26.07l.261.058c.101.018.205.036.31.049l.153.02.157.016c.248.023.498.036.75.04a18.66 18.66 0 002.362-.165l6.647-.78c1.508-.175 3.047-.35 4.534-.043 1.261.26 2.423.86 3.647 1.284.276.097.552.185.831.26.101.03.205.06.31.087l.143.036.333.081a17.3 17.3 0 00.865.18c.115.023.232.041.349.062h.023l.334.052h.081l.247.034a25.053 25.053 0 001.159.133c.43.042.862.073 1.302.099l.433.026.432.02 1.302.058h.24c.541.038 1.085.01 1.62-.083a3.574 3.574 0 00.536-.149c.977-.375 1.691-1.237 2.186-2.159a9.162 9.162 0 00.531-1.198 9.808 9.808 0 00.292-.982c.015-.073.052-.216.073-.325.065-.3.114-.602.151-.907 0-.096.023-.195.034-.291.023-.26.041-.503.052-.758v-.584c-.003-.21-.021-.49-.021-.758zm-6.678-15.549a12.962 12.962 0 00-.646-.568c.243.154.46.346.643.568h.003zm-47.315 24.952c-1.961-.242-3.907-1.102-5.842-.68-1.211.26-2.253 1.013-3.222 1.787a39.196 39.196 0 00-9.056 10.353 5.481 5.481 0 00-.836 1.959c-.125.812.097 1.638.36 2.417 1.781 5.263 5.592 9.66 7.326 14.939 1.823 5.553 1.191 11.622-.153 17.31a72.337 72.337 0 01-8.033 19.977 11.414 11.414 0 01-1.849 2.532c-.948.911-2.222 1.563-2.784 2.756-.261.52-.336 1.114-.521 1.672-.521 1.562-1.782 2.901-1.904 4.55-.091 1.258.505 2.448.867 3.646a10.042 10.042 0 01-.185 6.277c-1.32 3.621-4.774 6.913-3.771 10.635 2.237-.644 4.717-1.48 5.771-3.556.373-.734.558-1.609 1.186-2.146 1.252-1.065 3.385-.101 4.716-1.081 1.006-.745 1.042-2.271.594-3.443-.448-1.172-1.219-2.203-1.563-3.409-.599-2.175.36-4.475.183-6.723-.084-1.041-.404-2.039-.427-3.076-.045-2.013 1.07-3.906 2.552-5.274 1.482-1.367 3.313-2.274 5.115-3.167l6.814-3.386c2.472-1.224 5.18-2.716 5.991-5.352.307-.987.309-2.04.325-3.071.232-15.76 4.18-31.203 8.105-46.468.61-2.365 1.23-4.74 2.136-7.012.907-2.27 2.68-4.094 3.584-6.204-5.243-.614-10.033 3.92-15.479 3.238z" fill="#464353"/><path d="M222.003 168.547c.601 3.646.969 7.37 1.255 11.077-4.688 3.886-9.736 7.266-14.864 10.402-.292.18-.586.357-.881.521l-.023.125a.758.758 0 00-.042-.086 3.92 3.92 0 00-1.958-1.932c-1.922-4.037-3.843-8.074-5.762-12.111-1.041-2.18-2.083-4.381-2.604-6.733 0-.05-.024-.102-.031-.151-.396-1.823-.487-3.717-.751-5.564a16.012 16.012 0 00-.711-3.109c-.312-.899-.742-1.772-1.122-2.649-.469-1.084-.862-2.18-.881-3.35 0-.372.024-.781-.158-1.094a2.83 2.83 0 00-.711-.687 2.708 2.708 0 01-.876-2.477c-1.562.08-2.443 1.76-3.07 3.185a17.344 17.344 0 01-2.23 3.907 7.416 7.416 0 01-2.469 2.055 5.084 5.084 0 01-.26.12c-2.175.958-4.715.62-7.072.187-2.06-.377-4.191-.846-5.847-2.128l-.177-.14a7.63 7.63 0 01-1.302-1.391c-1.389-1.896-2.003-4.394-2.345-6.772-.031-.224-.062-.448-.091-.672a25.028 25.028 0 01-.195-5.074c.031-.416.075-.833.13-1.247.037-.261.076-.542.12-.813a.088.088 0 010-.023c.068-.43.141-.862.214-1.303.26-1.476.52-2.992 1.302-4.263a8.072 8.072 0 011.917-2.053c.281-.221.57-.432.862-.635.474-.328.961-.641 1.456-.935a25.178 25.178 0 014.886-2.256 7.688 7.688 0 013.98-.315 20.81 20.81 0 003.563.208c3.055-.059 6.123-.643 9.173-1.021 4.235-.52 8.785-.583 12.479 1.563.177.102.349.209.52.321 1.824 1.192 3.293 2.865 4.478 4.732.26.393.487.797.711 1.206a30.76 30.76 0 011.398 2.891 3.6 3.6 0 01.389 1.563c-.007.103-.02.206-.042.307-.07.37-.211.729-.261 1.104-.164 1.42 1.042 2.605 1.493 3.957.292.88.26 1.823.424 2.75.237 1.302.875 2.475 1.448 3.647a45.62 45.62 0 012.319 5.826 54.705 54.705 0 011.182 4.219c.111.457.216.915.315 1.373.284 1.261.516 2.495.722 3.738z" fill="#F86D70"/><path d="M249.772 129.976v1.823l-.336-.005-.375-.006-4.188-.052-10.319-.135-2.896-.037-.75-.01-4.347-.055-6.126-.081-12.997-.169-22.553-.292-8.139-.104-3.266-.041-3.006-.039-1.873-.027-1.773-.023-13.151-.169-3.646-.047-.795-.011-.515-1.331-3.748-9.665-.685-1.766.521-2.084 2.344 1.563 1.443.18 23.756 2.953 4.459.555 9.454 1.177 9.262 1.152 3.631.45 21.485 2.673 6.004.747 4.969.617 17.669 2.199.487.06z" fill="#3F3D56"/><path d="M144.809 115.65l4.688 12.242 100.275 2.083v-13.283l-104.963-1.042z" fill="#504F60"/><path d="M150.018 129.194l.781 74.751 3.646-.521-.781-74.23h-3.646zm99.419 2.597h-.376a82.323 82.323 0 01-3.003 13.749l-1.185-13.804-.049-.588 4.381-.506.146-.015.086 1.164z" fill="#3F3D56"/><path d="M235.187 122.943l-38.157.782-11.851-3.907 31.776-1.823 18.232 4.948z" fill="#fff"/><path d="M187.323 107.753a2.563 2.563 0 00-1.042.743 2.746 2.746 0 00-.388 1.182l-.641 3.821c-.097.35-.08.721.05 1.06.166.32.651.487.893.221-.031.748.034 1.545.469 2.154.435.61 1.346.93 1.961.506a1.28 1.28 0 00.889.591 1.27 1.27 0 001.026-.294c-.37.125-.396.69-.133.976.294.26.67.41 1.062.425 4.577.645 9.244.058 13.518-1.701.404-.167-.659-5.144-.766-5.654-.26-1.201-.39-2.667-1.404-3.475-2.422-1.932-6.725-2.313-9.676-2.084a16.686 16.686 0 00-5.818 1.529z" fill="#FBBEBE"/><path opacity=".1" d="M226.147 108.332c-9.421.179-19.037.333-28.028-2.488a19.015 19.015 0 01-.172 10.124l44.048 3.647c1.868.153 9.611 1.028 11.432.588 1.82-.44-15.276-6.071-14.586-7.813 1.899-4.801 8.259-7.614 3.678-7.793-5.782-.229-10.546 3.625-16.372 3.735z" fill="#464655"/><path d="M226.407 108.852c-9.421.18-19.037.334-28.028-2.487.859 3.328.8 6.827-.172 10.124l44.049 3.646c1.867.154 9.611 1.042 11.431.589 1.821-.453 1.394-2.685 2.084-4.428 1.898-4.8-8.41-10.999-12.992-11.179-5.782-.229-10.546 3.626-16.372 3.735z" fill="#464353"/><path d="M211.428 109.577c.405.155.763.41 1.042.742.218.36.351.764.391 1.182l.64 3.821c.097.35.079.721-.049 1.06-.167.321-.654.487-.894.222.029.747-.033 1.544-.468 2.154-.435.609-1.347.93-1.964.505a1.28 1.28 0 01-.889.591 1.27 1.27 0 01-1.026-.294c.37.125.399.69.136.977-.296.26-.672.41-1.065.424a25.98 25.98 0 01-13.515-1.701c-.404-.166.656-5.144.765-5.654.261-1.201.391-2.667 1.404-3.475 2.42-1.932 6.725-2.312 9.676-2.083 2.015.153 3.986.671 5.816 1.529z" fill="#FBBEBE"/><path d="M149.179 101.281c-.865 1.115-1.732 2.253-2.289 3.553-1.066 2.479-.909 5.287-.732 7.98.049.781.112 1.578.521 2.227.353.49.82.887 1.359 1.159 2.256 1.281 4.897 1.664 7.475 1.951 3.949.437 7.911.704 11.888.799 9.85.24 19.852-.565 29.447 1.667-1.188-1.805-1.185-4.193-.521-6.251.664-2.057 1.943-3.849 3.196-5.612-4.392-1.391-9.101.781-13.7.565-4.722-.222-9.093-2.951-13.82-2.949-1.016 0-2.05.128-3.037-.117-.987-.245-1.943-.99-2.034-2.003 1.26.284 2.456-.794 2.977-1.977.521-1.182.614-2.518 1.12-3.709 1.258-2.96 4.657-4.333 6.772-6.771.333-.386.648-.842.638-1.352a2.12 2.12 0 00-.521-1.164c-1.758-2.344-4.407-3.647-6.608-5.47-.766-.636-2.31-3.032-3.17-3.253-1.594-.409-2.945 1.894-3.982 3.016a276.774 276.774 0 00-14.979 17.711z" fill="#464353"/><path opacity=".07" d="M201.552 100.619a8.639 8.639 0 011.742 1.727 2.971 2.971 0 01.544 2.329 3.483 3.483 0 012.17-3.602l-4.456-.454z" fill="#464655"/><path opacity=".1" d="M215.996 32.318a22.549 22.549 0 00-1.057-2.384c-.257.05-.511.115-.761.196.447.742.85 1.51 1.206 2.3a4.2 4.2 0 01.612-.112zm15.112 10.269c.07.057.138.123.206.182a.423.423 0 00-.018-.049 6.661 6.661 0 00-.188-.133zm-24.212 1.146c.135-.106.261-.218.406-.323l-.041-1.237-2.782-.029c-.451.415-.93 1.009-.664 1.563l3.081.026zm30.411 20.827c-.495.921-1.209 1.786-2.185 2.158-.753.287-1.581.26-2.386.224-2.745-.112-5.537-.234-8.131-1.143-1.214-.427-2.376-1.024-3.647-1.287-1.487-.307-3.026-.133-4.534.045l-6.647.781c-1.962.23-4.147.401-5.712-.802-.896-.688-1.474-1.758-2.456-2.31-.414-.235-.907-.386-1.175-.782a1.95 1.95 0 01-.26-.966 22.55 22.55 0 01-.045-.82c-.028.794-.013 1.59.045 2.383.001.339.091.672.26.966.261.393.761.544 1.175.781.982.553 1.563 1.623 2.456 2.31 1.563 1.204 3.75 1.042 5.712.803l6.647-.782c1.508-.177 3.047-.351 4.534-.044 1.261.26 2.422.86 3.647 1.287 2.604.909 5.386 1.042 8.131 1.143.805.034 1.633.063 2.386-.224.976-.372 1.69-1.237 2.185-2.159.958-1.784 1.227-3.808 1.125-5.847a10.18 10.18 0 01-1.125 4.284zm-21.386-30.568l3.646 3.386s-3.125-1.302-3.646-3.386z" fill="#464655"/></g><defs><clipPath id="clip0"><path fill="#fff" d="M0 0h256v209.154H0z"/></clipPath></defs></svg>