<svg width="570" height="412" fill="none" xmlns="http://www.w3.org/2000/svg"><g clip-path="url(#clip0)"><path d="M569.176 408.59H.824a.825.825 0 01-.824-.823.825.825 0 01.824-.824h568.352a.827.827 0 01.824.824.824.824 0 01-.824.823z" fill="#CCC"/><path d="M512.921 264.936H178.499a5.356 5.356 0 00-5.354 5.354 5.352 5.352 0 005.354 5.354h9.473v128.085a5.354 5.354 0 1010.708 0l.081-128.085h293.156v128.085a5.354 5.354 0 1010.708 0V278.467l1.558-2.823h8.738a5.351 5.351 0 005.354-5.354 5.354 5.354 0 00-5.354-5.354z" fill="#CCC"/><path d="M363.906 267.738H262.605a7.407 7.407 0 01-7.398-7.398v-55.772a7.406 7.406 0 017.398-7.399h101.301a7.407 7.407 0 017.398 7.399v55.772a7.407 7.407 0 01-7.398 7.398z" fill="#3F3D56"/><path d="M363.905 202.863H262.606a1.71 1.71 0 00-1.705 1.705v55.773a1.71 1.71 0 001.705 1.705h101.299a1.712 1.712 0 001.205-.5c.319-.32.499-.753.5-1.205v-55.773a1.708 1.708 0 00-1.705-1.705z" fill="#fff"/><path d="M321.895 242.35s-12.127-2.794-18.796 2.329c-6.67 5.123 8.488 16.766 8.488 16.766l10.308-19.095z" fill="#2F2E41"/><path d="M313.849 237.07c6.318 0 11.439-5.121 11.439-11.439 0-6.317-5.121-11.439-11.439-11.439-6.317 0-11.438 5.122-11.438 11.439 0 6.318 5.121 11.439 11.438 11.439z" fill="#A0616A"/><path d="M305.004 209.574a8.162 8.162 0 017.518-4c1.569.197 3.1.626 4.543 1.272l7.478 2.917c1.934.755 4.054 1.679 4.893 3.579.78 1.763.198 3.8-.39 5.635l-2.798 8.726a26.611 26.611 0 00-1.585-5.764 8.924 8.924 0 00-3.876-4.418c-1.942-.997-4.231-.976-6.412-.871-3.088.148-6.446.541-8.64 2.72a8.973 8.973 0 00-2.277 4.447 26.744 26.744 0 00-.478 5.034 41.773 41.773 0 01-3.187-6.833 16.912 16.912 0 01-1.184-5.531 7.785 7.785 0 011.783-5.261 5.11 5.11 0 012.336-1.539 5.11 5.11 0 012.796-.076l-.52-.037z" fill="#2F2E41"/><path d="M341.162 252.269a2.034 2.034 0 00-1.705-1.475.845.845 0 00-.082-.049l-17.077-9.57a2.173 2.173 0 00-2.906.748l-4.67 7.562-7.035-7.035-.111-.111a2.17 2.17 0 00-2.782-.244l-14.034 9.828c-.024 0-.049.008-.074.008a2.995 2.995 0 00-2.496 2.793l-.362 7.322h56.044l-2.71-9.777z" fill="#3F3474"/><path d="M372.442 260.909h-10.813a1.14 1.14 0 00-1.138-1.138h-3.415a1.137 1.137 0 00-1.138 1.138h-3.414a1.136 1.136 0 00-1.139-1.138h-3.414a1.135 1.135 0 00-1.139 1.138h-3.414a1.14 1.14 0 00-1.138-1.138h-3.415a1.137 1.137 0 00-1.138 1.138h-3.415a1.14 1.14 0 00-1.138-1.138h-3.415a1.136 1.136 0 00-1.138 1.138h-3.414a1.136 1.136 0 00-1.139-1.138h-3.414a1.135 1.135 0 00-1.138 1.138h-3.415a1.14 1.14 0 00-1.138-1.138h-3.415a1.137 1.137 0 00-1.138 1.138h-3.415a1.14 1.14 0 00-1.138-1.138h-3.414a1.135 1.135 0 00-1.139 1.138h-3.414a1.136 1.136 0 00-1.138-1.138h-3.415a1.137 1.137 0 00-1.138 1.138h-3.415a1.14 1.14 0 00-1.138-1.138h-3.415a1.136 1.136 0 00-1.138 1.138h-3.414a1.136 1.136 0 00-1.139-1.138h-3.414a1.135 1.135 0 00-1.138 1.138h-3.415a1.14 1.14 0 00-1.138-1.138h-3.415a1.137 1.137 0 00-1.138 1.138h-10.813a3.415 3.415 0 000 6.829h118.373a3.418 3.418 0 003.415-3.415 3.415 3.415 0 00-3.415-3.414z" fill="#3F3D56"/><path d="M236.467 241.079v22.673h-56.804a11.343 11.343 0 110-22.673h56.804z" fill="#F2F2F2"/><path d="M237.862 263.577a.874.874 0 01-.872.872h-58.339a11.945 11.945 0 01-8.448-20.394 11.945 11.945 0 018.448-3.499h58.339a.874.874 0 010 1.744h-58.339a10.204 10.204 0 000 20.405h58.339a.873.873 0 01.872.872z" fill="#3F3474"/><path d="M236.467 246.311h-61.043a.174.174 0 01-.162-.241.184.184 0 01.038-.057.196.196 0 01.057-.038.195.195 0 01.067-.013h61.043a.174.174 0 01.173.175.173.173 0 01-.173.174zm0 4.186h-61.043a.195.195 0 01-.067-.013.173.173 0 01-.108-.162.174.174 0 01.051-.123.178.178 0 01.124-.051h61.043a.173.173 0 01.173.174.174.174 0 01-.173.175zm0 4.186h-61.043a.174.174 0 01-.175-.175.174.174 0 01.051-.123.178.178 0 01.124-.051h61.043a.173.173 0 01.173.174.174.174 0 01-.173.175zm0 4.185h-61.043a.174.174 0 01-.162-.241.184.184 0 01.038-.057.196.196 0 01.057-.038.173.173 0 01.067-.012h61.043a.173.173 0 01.122.297.17.17 0 01-.122.051z" fill="#CCC"/><path d="M225.759 217.191v22.673h-56.804a11.343 11.343 0 110-22.673h56.804z" fill="#F2F2F2"/><path d="M227.154 239.69a.876.876 0 01-.255.617.876.876 0 01-.617.255h-58.339a11.952 11.952 0 01-8.448-3.499 11.954 11.954 0 01-3.499-8.448c0-1.569.309-3.122.909-4.572a11.96 11.96 0 016.466-6.465 11.934 11.934 0 014.572-.91h58.339a.873.873 0 010 1.745h-58.339a10.202 10.202 0 000 20.405h58.339a.873.873 0 01.872.872z" fill="#3F3D56"/><path d="M225.759 222.424h-61.043a.17.17 0 01-.124-.051.174.174 0 01-.038-.19.173.173 0 01.162-.108h61.043a.174.174 0 01.173.175.173.173 0 01-.173.174zm0 4.186h-61.043a.19.19 0 01-.067-.013.184.184 0 01-.057-.038.17.17 0 01-.051-.124.17.17 0 01.108-.161.17.17 0 01.067-.013h61.043a.173.173 0 01.122.297.174.174 0 01-.122.052zm0 4.186h-61.043a.19.19 0 01-.067-.013.184.184 0 01-.057-.038.17.17 0 01-.051-.124.17.17 0 01.108-.161.17.17 0 01.067-.013h61.043a.173.173 0 01.122.297.174.174 0 01-.122.052zm0 4.185h-61.043a.17.17 0 01-.124-.051.17.17 0 01-.051-.123.17.17 0 01.051-.124.184.184 0 01.057-.038.19.19 0 01.067-.013h61.043a.174.174 0 01.173.175.173.173 0 01-.173.174zm66.08 109.361v-19.769a3.295 3.295 0 00-3.294-3.295h-74.957a3.295 3.295 0 00-3.295 3.295v19.769h81.546zm0 7.413h-81.546v25.535h81.546v-25.535zm-81.546 32.948v19.769a3.295 3.295 0 003.295 3.295h74.957a3.294 3.294 0 003.294-3.295v-19.769h-81.546z" fill="#CCC"/><path d="M250.654 336.105a2.471 2.471 0 100-4.943 2.471 2.471 0 000 4.943zm0 32.948a2.47 2.47 0 100-4.941 2.47 2.47 0 000 4.941zm.133 32.25a2.47 2.47 0 100-4.941 2.47 2.47 0 000 4.941z" fill="#fff"/><path d="M282.594 298.738v22.673H225.79a11.343 11.343 0 110-22.673h56.804z" fill="#F2F2F2"/><path d="M283.989 321.237a.872.872 0 01-.872.872h-58.339a11.95 11.95 0 01-11.957-11.947 11.945 11.945 0 013.503-8.452 11.959 11.959 0 018.454-3.495h58.339a.874.874 0 01.872.872.872.872 0 01-.872.872h-58.339a10.2 10.2 0 00-10.194 10.203 10.201 10.201 0 0010.194 10.203h58.339a.874.874 0 01.872.872z" fill="#3F3D56"/><path d="M282.594 303.97h-61.042a.179.179 0 01-.125-.051.173.173 0 01-.051-.124c0-.023.005-.045.013-.067a.18.18 0 01.095-.094.179.179 0 01.068-.013h61.042a.174.174 0 010 .349zm0 4.186h-61.042a.179.179 0 01-.125-.051.18.18 0 01-.038-.056.195.195 0 01-.013-.067.173.173 0 01.176-.175h61.042a.174.174 0 010 .349zm0 4.185h-61.042a.178.178 0 01-.068-.012.196.196 0 01-.057-.038.184.184 0 01-.038-.057.19.19 0 01-.013-.067.19.19 0 01.013-.067.196.196 0 01.038-.057.175.175 0 01.125-.05h61.042a.173.173 0 01.173.174.173.173 0 01-.173.174zm0 4.187h-61.042a.2.2 0 01-.068-.013.196.196 0 01-.057-.038.184.184 0 01-.038-.057.19.19 0 01-.013-.067.19.19 0 01.013-.067.196.196 0 01.038-.057.175.175 0 01.125-.05h61.042c.046 0 .09.019.123.051a.177.177 0 010 .246.179.179 0 01-.123.052z" fill="#CCC"/><path d="M206.016 150.755V6.195A6.204 6.204 0 01212.211 0h114.271a6.201 6.201 0 016.195 6.195v144.56a6.2 6.2 0 01-6.195 6.195H212.211a6.204 6.204 0 01-6.195-6.195zm6.195-149.378a4.827 4.827 0 00-4.819 4.818v144.56a4.827 4.827 0 004.819 4.818h114.271a4.818 4.818 0 003.405-1.413 4.818 4.818 0 001.413-3.405V6.195a4.823 4.823 0 00-4.818-4.819H212.211z" fill="#E6E6E6"/><path d="M275.754 66.388V36.706a3.101 3.101 0 013.098-3.098h25.153a3.102 3.102 0 013.098 3.098v29.682a3.1 3.1 0 01-3.098 3.098h-25.153a3.1 3.1 0 01-3.098-3.098z" fill="#3F3474"/><path d="M226.88 80.156V50.473a3.1 3.1 0 013.097-3.097h25.154a3.1 3.1 0 013.097 3.097v29.683a3.1 3.1 0 01-3.097 3.097h-25.154a3.1 3.1 0 01-3.097-3.097z" fill="#CCC"/><path d="M266.117 122.147V92.464a3.104 3.104 0 013.098-3.097h25.153a3.1 3.1 0 013.098 3.097v29.683a3.1 3.1 0 01-3.098 3.098h-25.153a3.102 3.102 0 01-3.098-3.098z" fill="#FF6584"/><path d="M416.432 257.853h-25.881a1.61 1.61 0 00-.708.165l-6.532 3.27a1.194 1.194 0 00-.725 1.096 1.187 1.187 0 00.725 1.095l6.532 3.27c.22.109.463.165.708.165h25.881a1.354 1.354 0 001.433-1.26v-6.54a1.355 1.355 0 00-1.433-1.261z" fill="#3F3D56"/><path d="M417.865 259.114v6.54a1.355 1.355 0 01-1.433 1.26h-5.156v-9.061h5.156a1.359 1.359 0 011.433 1.261z" fill="#3F3474"/><path d="M416.237 208.925a9.067 9.067 0 0110.435 2.38 9.065 9.065 0 011.831 3.316c.115.387.203.782.263 1.182l36.192 17.947 8.376-5.551 10.421 11.998-12.789 10.386a9.177 9.177 0 01-10.956.423l-36.72-25.393a8.783 8.783 0 01-.836.305 9.06 9.06 0 01-7.349-.942 9.059 9.059 0 01-4.325-7.213 9.087 9.087 0 015.457-8.838z" fill="#FFB8B8"/><path d="M491.618 319.424h-39.546c0 1.137-40.757 2.059-40.757 2.059a10.622 10.622 0 00-1.737 1.647 10.222 10.222 0 00-2.39 6.59v1.647a10.3 10.3 0 0010.297 10.297h74.133a10.307 10.307 0 0010.296-10.297v-1.647a10.312 10.312 0 00-10.296-10.296z" fill="#3F3D56"/><path d="M448.601 410.445h10.708v-69.19h-10.708v69.19z" fill="#3F3D56"/><path d="M418.124 410.069c0 1.157 16.227.448 36.243.448 20.016 0 36.243.709 36.243-.448s-16.227-10.332-36.243-10.332c-20.016 0-36.243 9.175-36.243 10.332z" fill="#3F3D56"/><path d="M427.791 401.96l-10.098-.001-4.805-26.191h14.904l-.001 26.192z" fill="#FFB8B8"/><path d="M430.366 411.748l-32.561-.001v-.412a12.675 12.675 0 0112.674-12.673h19.888l-.001 13.086zm-17.679-26.03l-20.132-45.145a16.544 16.544 0 017.264-21.239l43.667-23.416 19.926-1.695 18.381-1.67.132.224c.17.287 4.122 7.113 1.451 14.597-2.027 5.678-7.297 10.113-15.666 13.181-19.534 7.163-42.099 13.284-50.894 15.583a2.837 2.837 0 00-1.821 1.45 2.876 2.876 0 00-.162 2.305l18.704 42.021a3.711 3.711 0 01-1.543 4.435 3.699 3.699 0 01-1.595.531l-13.975 1.018a3.7 3.7 0 01-3.737-2.18z" fill="#2F2E41"/><path d="M432.733 401.96l-10.098-.001-4.804-26.191h14.904l-.002 26.192z" fill="#FFB8B8"/><path d="M435.309 411.748l-32.562-.001v-.412a12.675 12.675 0 0112.674-12.673h19.888v13.086zm-16.856-23.559l-20.132-45.145a16.546 16.546 0 017.264-21.239l43.667-23.415 19.926-1.695 18.381-1.671.132.224c.17.287 4.122 7.113 1.45 14.598-2.026 5.677-7.297 10.112-15.665 13.18-19.534 7.163-42.099 13.284-50.894 15.583a2.849 2.849 0 00-1.821 1.45 2.876 2.876 0 00-.162 2.305l18.704 42.021a3.713 3.713 0 01-1.543 4.436 3.71 3.71 0 01-1.595.53l-13.975 1.018a3.707 3.707 0 01-3.737-2.18z" fill="#2F2E41"/><path d="M408.419 250.276a137.945 137.945 0 01-19.831-37.01 3.543 3.543 0 011.673-4.266l28.949-15.512a3.507 3.507 0 013.069-.124 3.553 3.553 0 012.028 2.375 84.287 84.287 0 0018.488 34.506 3.543 3.543 0 01.855 3.003 3.5 3.5 0 01-1.803 2.486l-28.949 15.512a3.545 3.545 0 01-4.479-.97z" fill="#CCC"/><path d="M410.394 248.792a1.068 1.068 0 001.336.276l28.949-15.512a1.023 1.023 0 00.538-.739 1.08 1.08 0 00-.268-.929 86.779 86.779 0 01-19.033-35.522 1.076 1.076 0 00-.624-.737 1.02 1.02 0 00-.915.037l-28.949 15.512a1.068 1.068 0 00-.51 1.266 135.53 135.53 0 0019.476 36.348z" fill="#fff"/><path d="M504.592 246.139l-22.672 8.615-5.535-15.376a9.198 9.198 0 0115.868-8.826l12.339 15.587z" fill="#3F3474"/><path d="M446.925 307.06a4.127 4.127 0 01-1.716-2.924c-2.904-27.107-.881-48.321 6.182-64.853a20.585 20.585 0 0113.647-11.68l18.327-.925.094.046a21.42 21.42 0 0111.713 22.724c-5.895 15.538-10.83 31.715-7.066 44.765a4.206 4.206 0 01-.399 3.281 4.018 4.018 0 01-2.566 1.902l-34.907 8.304a4.09 4.09 0 01-3.309-.64z" fill="#3F3474"/><path d="M477.248 219.832c11.173 0 20.231-9.057 20.231-20.23 0-11.174-9.058-20.231-20.231-20.231-11.173 0-20.231 9.057-20.231 20.231 0 11.173 9.058 20.23 20.231 20.23z" fill="#FFB8B8"/><path d="M421.111 215.625l-15.767 6.96a2.475 2.475 0 01-3.259-1.263l-.39-.883a2.478 2.478 0 011.263-3.259l15.767-6.96a2.478 2.478 0 013.259 1.263l.39.883a2.474 2.474 0 01-1.263 3.259zm5.766 10.708l-15.767 6.96a2.474 2.474 0 01-3.259-1.263l-.39-.883a2.474 2.474 0 011.263-3.259l15.767-6.96a2.478 2.478 0 013.259 1.263l.39.883a2.478 2.478 0 01-1.263 3.259z" fill="#CCC"/><path d="M439.036 268.158l-35.151-27.731c-.28.099-.565.183-.853.252a9.088 9.088 0 01-9.857-4.166 9.078 9.078 0 014.721-13.183 9.059 9.059 0 0110.264 3.031 9.06 9.06 0 011.619 3.424c.09.394.153.794.188 1.196l34.992 20.187 8.708-5.013 9.646 12.629-13.52 9.636a9.014 9.014 0 01-10.757-.262z" fill="#FFB8B8"/><path d="M467.603 262.717l-20.056-13.639 9.425-13.349a9.201 9.201 0 0116.328 7.942l-5.697 19.046z" fill="#3F3474"/><path d="M469.831 196.588c-5.2 3.559-12.027 7.217-17.338 3.428-3.487-2.489-4.586-7.097-3.172-11.141 2.543-7.272 9.53-10.473 16.211-12.927 8.685-3.191 18.143-5.729 27.109-3.444 8.966 2.285 16.89 10.966 15.272 20.076-1.302 7.326-8.213 13.422-7.231 20.798.987 7.423 9.335 11.331 16.705 12.657 7.371 1.327 15.618 1.753 20.915 7.047 6.757 6.754 5.069 18.825-1.289 25.955-6.358 7.13-15.952 10.362-25.249 12.559-12.318 2.911-25.641 4.441-37.34-.39-11.699-4.831-20.803-17.837-17.414-30.032 1.431-5.151 4.803-9.505 8.063-13.743 3.259-4.238 6.559-8.67 7.802-13.87 1.036-4.333.269-9.365-2.604-12.615a3.654 3.654 0 01-.49-4.272l.05-.086z" fill="#2F2E41"/><path d="M89.843 294.883a32.166 32.166 0 01-16.253 1.333 32.165 32.165 0 01-14.818-6.806c-10.883-9.134-14.295-24.183-17.071-38.117l-8.212-41.214 17.192 11.838c12.364 8.513 25.005 17.299 33.566 29.629 8.56 12.331 12.297 29.163 5.419 42.506" fill="#6FCF97"/><path d="M88.373 344.782c1.74-12.675 3.53-25.512 2.309-38.323-1.084-11.377-4.555-22.489-11.622-31.6a52.577 52.577 0 00-13.487-12.222c-1.348-.851-2.59 1.286-1.247 2.134a49.977 49.977 0 0119.768 23.851c4.304 10.947 4.995 22.879 4.253 34.508-.448 7.032-1.399 14.018-2.357 20.995a1.28 1.28 0 00.863 1.52 1.242 1.242 0 001.52-.863z" fill="#27AE60"/><path d="M71.613 322.354a23.68 23.68 0 01-20.637 10.651c-10.447-.496-19.157-7.787-26.997-14.71L.789 297.821l15.348-.735c11.037-.528 22.359-1.021 32.872 2.383 10.512 3.403 20.207 11.595 22.13 22.476" fill="#6FCF97"/><path d="M93.29 352.068c-8.375-14.82-18.089-31.29-35.447-36.554a39.566 39.566 0 00-14.91-1.539c-1.583.136-1.188 2.577.393 2.44a36.748 36.748 0 0123.793 6.295c6.71 4.567 11.933 10.916 16.354 17.648 2.708 4.124 5.134 8.423 7.56 12.716.776 1.372 3.042.382 2.258-1.006z" fill="#27AE60"/><path d="M106.71 367.666a17.932 17.932 0 00-10.99-15.022v-8.567H81.35v8.837a17.934 17.934 0 00-10.392 14.752l-3.379 39.277h42.51l-3.379-39.277z" fill="#3F3474"/></g><defs><clipPath id="clip0"><path fill="#fff" d="M0 0h570v411.748H0z"/></clipPath></defs></svg>