<svg xmlns="http://www.w3.org/2000/svg" xmlns:xlink="http://www.w3.org/1999/xlink" width="256" height="256" fill="none"><path d="M214.016 190.36c7.697-5.3 17.955-6.365 23.949-14.482 2.877.401 4.263-1.472 5.488-3.591-.272-1.513-1.152-3.033.831-4.263.97-.601 1.427-1.89 1.42-3.169-1.085-1.439-.128-3.584-1.689-4.864l-2.11-.256c-1.758-.786-2.933.452-4.249 1.211-1.671 1.555-4.331 1.467-5.76 3.434-.749 1.683-1.488 3.576-3.547 3.82-3.284.384-4.985 2.508-6.389 5.053-.096-.493.384-.64.512-.985 1.116-1.873 2.316-3.43 4.705-3.968 1.738-.395 3.958-1.375 3.24-3.75-.647-2.141-2.697-1.697-4.424-1.18-.753.226-1.623-.084-2.286.512-7.108 1.818-12.462 6.428-17.751 11.143-.707 0-.937.416-.924 1.049.761 2.491 2.706 4.313 3.755 6.643 1.951 2.413 1.765 6.283 5.229 7.643z" fill="#facbb7"/><path d="M232.52 164.691c1.493-1.716 4.458-.832 5.602-3.168.88-1.31 2.117-2.526 1.138-4.326l-.441-.405c-1.07-.102-2.15-.366-3.191.149l-8.695 4.544c1.127 2.355 3.939 1.764 5.587 3.206z" fill="#f9c8b6"/><path d="M232.52 164.691c-1.024-2.519-3.798-2.009-5.588-3.206l-3.219 2.402c2.048.529 5.367-1.376 5.962 1.143.484 2.048-2.932 2.388-4.82 3.101-2.166.816-2.577 2.882-3.546 4.565-.568.954-.549 1.614.804 1.607 1.965-2.267 3.177-5.248 7.079-5.306 2.098-.028 3.052-2.203 3.328-4.306z" fill="#f7b6a7"/><path d="M222.113 174.303c-.64-.348-.787-.945-.804-1.607-.809.699-1.826 1.76-1.137 2.581.922 1.099 1.441-.284 1.941-.974z" fill="#f9c1af"/><path d="M140.229 56.012s-.829-29.704-24.04-31.499c0 0-.147-14.848-5.94-18.652-4.387-2.877-10.638-2.902-15.336-2.625s-19.21-.128-19.763 16.863.118 33.202.698 39.506c.512 5.587 7.875 26.527 8.842 27.904s13.952-8.427 14.368-13.125-.27-7.04.836-8.979 4-4.559 4-9.119l36.335-.273z" fill="#413277"/><path d="M140.229 56.012s6.483 38.638-4.881 49.076-24.403 24.777-24.403 24.777L85.05 110.676s2.747-6.858 1.997-13.44-1.997-9.581-1.997-9.581l5.4-3.11c.014-.732-4.634-6.912-5.021-9.153-.384-2.191 1.247-6.144 5.299-5.294 3.744.785 6.925 8.566 7.642 6.254s.223-8.895 1.39-10.674 4.072-4.747 4.135-9.378l36.335-.288z" fill="#faccb8"/><path d="M143.125 85.789h-19.847s5.376-4.625 11.352-4.625c6.139 0 8.495 4.625 8.495 4.625z" fill="url(#A)"/><path d="M108.915 126.382s-1.329-6.919-6.848-9.344c-5.602-2.456-12.808-5.331-16.21-8.814 0 0-1.379 7.569-6.359 11.46s39.534 17.588 39.534 17.588l8.405-19.761-9.892-1.265s-7.849 1.419-8.63 10.136z" fill="#fffdfe"/><path d="M133.754 126.353s16.059 8.906 22.08 25.967 12.24 32.512 16.053 37.12c0 0 22.074-3.212 33.111-13.847 0 0 16.054 25.486 16.656 36.122 0 0-37.202 53.267-76.885 32.17v9.043s-112.896-.256-126.583-55.757c0 0 12.684-50.971 21.976-59.894s25.117-12.339 31.144-14.525 9.708-4.275 10.547-5.466c0 0 10.719 14.526 23.386 13.641 12.523-.883 15.173-7.954 15.911-9.427s12.603 4.853 12.603 4.853z" fill="url(#B)"/><path d="M135.529 127.453c.819 16.913 17.956 56.158 33.691 57.655l-.603-1.016c-3.64-7.094-8.269-18.984-12.783-31.776-4.648-13.167-15.278-21.478-19.885-24.584l-.42-.279z" fill="url(#C)"/><path d="M70.415 123.063c-6.577 2.2-21.386 5.701-30.253 14.214-5.304 5.094-11.712 23.884-16.237 39.078l-.064.216c6.733-1.107 17.171-13.237 22.636-19.52s14.071-11.203 20.224-18.033 3.712-15.9 3.712-15.9l-.018-.055z" fill="url(#D)"/><path d="M57.581 236.511l1.467-80.231-10.217 75.982s4.449 3.13 8.75 4.249zm87.187 7.375c8.18 4.352 16.256 5.539 23.922 4.685l.018-.04c-17.584-30.655-23.936-75.617-23.936-75.617l-.004 70.972z" fill="#e63548"/><path opacity=".25" d="M114.633 103.56s-9.866-.596-14.731-5.325c0 0-.676 3.648 2.162 6.351s12.183 11.825 11.497 24.426c0 0 6.669-2.833 7.591-7.511s-6.518-17.941-6.518-17.941z" fill="#212120"/><path opacity=".7" d="M120.285 115.873c5.76-.311-5.652-12.313-5.652-12.313s-9.866-.596-14.731-5.325c0 0-.676 3.648 2.162 6.351 2.037 1.939 7.424 7.18 10.047 14.64 0 0 2.253-3.031 8.175-3.353z" fill="#f49d8b"/><path d="M116.145 23.201h-10.7c.256-7.565-1.637-13.321-2.571-15.666a.91.91 0 01-.061-.432.915.915 0 01.469-.705.91.91 0 01.421-.112c2.009-.041 7.189.058 7.189.058s.848.768 1.246 1.368c.992 1.503 3.433 5.105 4.007 15.488zm-13.636.135s-1.047-15.488-3.127-16.721c0 0-8.694-.486-13.163 7.58-1.315 2.372-1.909 5.075-1.909 7.788v8.585s8.036-6.4 18.199-7.232z" fill="#7c61a7"/><path d="M133.754 126.353s-11.867-6.325-12.603-4.852-3.388 8.544-15.911 9.428c-12.672.884-23.387-13.641-23.387-13.641-.84 1.19-2.973 2.57-8.808 5.233l.077.086c7.762 8.67 17.69 19.775 34.255 19.756 15.755-.017 26.328-15.943 26.328-15.943l.048-.067z" fill="url(#E)"/><path d="M114.633 103.56s7.478-1.104 11.278-4.045 5.002-4.168 7.296-4.168c2.222 0 4.087 2.971 5.12 4.105a1.79 1.79 0 01.375.647 1.77 1.77 0 01.074.744c-.944 8.711-9.844 72.341-24.143 2.717z" fill="url(#F)"/><path d="M79.597 244.096c-3.903-6.806-6.272-16.672-5.815-30.885.805-24.842 8.252-45.353 29.99-45.353 20.912 0 29.916 18.497 29.915 45.696 0 17.892-4.454 30.772-11.264 38.056-11.999-1.156-27.458-3.355-42.826-7.514z" fill="url(#G)"/><defs><linearGradient id="A" x1="143.125" y1="83.477" x2="123.278" y2="83.477" xlink:href="#H"><stop stop-color="#413277"/><stop offset=".28" stop-color="#45377d"/><stop offset=".64" stop-color="#52458c"/><stop offset="1" stop-color="#645aa4"/></linearGradient><linearGradient id="B" x1="119.921" y1="252.928" x2="119.921" y2="117.288" xlink:href="#H"><stop stop-color="#eb5950"/><stop offset=".14" stop-color="#ec5f55"/><stop offset=".64" stop-color="#ee7165"/><stop offset="1" stop-color="#ef786b"/></linearGradient><linearGradient id="C" x1="174.469" y1="179.859" x2="128.796" y2="134.186" xlink:href="#H"><stop stop-color="#f39327"/><stop offset=".59" stop-color="#f6a241"/><stop offset="1" stop-color="#f8ae56"/></linearGradient><linearGradient id="D" x1="17.295" y1="165.199" x2="81.111" y2="128.356" xlink:href="#H"><stop stop-color="#f39327"/><stop offset=".11" stop-color="#f49830"/><stop offset=".41" stop-color="#f6a445"/><stop offset=".71" stop-color="#f8ac52"/><stop offset="1" stop-color="#f8ae56"/></linearGradient><linearGradient id="E" x1="133.754" y1="129.825" x2="73.046" y2="129.825" xlink:href="#H"><stop stop-color="#eb5950"/><stop offset=".13" stop-color="#ec5f55"/><stop offset=".64" stop-color="#ee7165"/><stop offset="1" stop-color="#ef786b"/></linearGradient><linearGradient id="F" x1="-21211.4" y1="33960.9" x2="-26943.3" y2="35938.6" xlink:href="#H"><stop stop-color="#413277"/><stop offset=".28" stop-color="#45377d"/><stop offset=".64" stop-color="#52458c"/><stop offset="1" stop-color="#645aa4"/></linearGradient><linearGradient id="G" x1="84.504" y1="246.932" x2="125.499" y2="175.927" xlink:href="#H"><stop stop-color="#f39327"/><stop offset=".27" stop-color="#f4972d"/><stop offset=".64" stop-color="#f5a03e"/><stop offset="1" stop-color="#f8ae56"/></linearGradient><linearGradient id="H" gradientUnits="userSpaceOnUse"/></defs></svg>