<svg xmlns="http://www.w3.org/2000/svg" xmlns:xlink="http://www.w3.org/1999/xlink" width="268" height="75" fill="none"><path d="M217.84 44.616c-1.804-1.242-4.208-1.492-5.613-3.394-.674.094-.999-.345-1.286-.842.063-.355.27-.711-.195-.999-.228-.141-.335-.443-.333-.743.254-.337.03-.84.396-1.14l.495-.06c.411-.184.687.106.995.284.392.364 1.015.344 1.35.805.176.395.349.838.832.895.769.09 1.168.588 1.497 1.184.023-.116-.09-.15-.12-.231-.261-.439-.543-.804-1.103-.93-.407-.092-.927-.322-.759-.879.152-.502.632-.398 1.037-.277.176.053.38-.02.536.12 1.666.426 2.92 1.507 4.16 2.611.166 0 .22.097.217.246-.179.584-.635 1.011-.881 1.557-.457.566-.413 1.472-1.225 1.791z" fill="#facbb7"/><path d="M213.503 38.6c-.35-.402-1.045-.195-1.313-.742-.206-.307-.496-.592-.267-1.014l.104-.095c.251-.024.504-.086.748.035l2.038 1.065c-.265.552-.924.413-1.31.752z" fill="#f9c8b6"/><path d="M213.503 38.6c.24-.59.89-.471 1.31-.751l.754.563c-.48.124-1.258-.322-1.397.268-.114.48.687.559 1.13.727.507.191.603.676.831 1.07.133.223.128.378-.189.377-.46-.531-.744-1.23-1.659-1.244-.492-.007-.715-.516-.78-1.009z" fill="#f7b6a7"/><path d="M215.942 40.852c.15-.082.185-.221.189-.377.189.164.428.412.266.605-.216.258-.338-.067-.455-.228z" fill="#f9c1af"/><path d="M235.134 13.128s.194-6.962 5.634-7.383c0 0 .035-3.48 1.392-4.372 1.028-.674 2.494-.68 3.595-.615s4.502-.03 4.632 3.952-.028 7.782-.164 9.259c-.12 1.31-1.845 6.217-2.072 6.54s-3.27-1.975-3.368-3.076.064-1.65-.196-2.104-.937-1.069-.937-2.137l-8.516-.064z" fill="#413277"/><path d="M235.134 13.128s-1.52 9.056 1.144 11.502 5.719 5.807 5.719 5.807l6.07-4.497s-.644-1.607-.468-3.15.468-2.245.468-2.245l-1.266-.729c-.003-.172 1.086-1.62 1.177-2.145.09-.514-.292-1.44-1.242-1.241-.878.184-1.623 2.008-1.791 1.466s-.052-2.085-.326-2.502-.954-1.113-.969-2.198l-8.516-.067z" fill="#faccb8"/><path d="M234.455 20.107h4.652s-1.26-1.084-2.661-1.084c-1.439 0-1.991 1.084-1.991 1.084z" fill="url(#A)"/><path d="M242.473 29.621s.311-1.622 1.605-2.19c1.313-.576 3.002-1.25 3.799-2.066 0 0 .323 1.774 1.49 2.686s-9.265 4.122-9.265 4.122l-1.97-4.632 2.318-.296s1.84.333 2.023 2.376z" fill="#fffdfe"/><path d="M236.652 29.614s-3.764 2.087-5.175 6.086-2.869 7.62-3.763 8.7c0 0-5.173-.753-7.76-3.245 0 0-3.763 5.973-3.904 8.466 0 0 8.719 12.484 18.02 7.54v2.12s26.46-.06 29.668-13.068c0 0-2.973-11.946-5.151-14.038s-5.887-2.892-7.299-3.404-2.275-1.002-2.472-1.281c0 0-2.512 3.404-5.482 3.197-2.934-.207-3.556-1.864-3.729-2.209s-2.953 1.137-2.953 1.137z" fill="url(#B)"/><path d="M236.235 29.872c-.192 3.964-4.208 13.162-7.896 13.513l.141-.238c.854-1.663 1.938-4.449 2.997-7.447 1.089-3.086 3.58-5.034 4.66-5.762l.098-.065z" fill="url(#C)"/><path d="M251.496 28.843c1.542.516 5.013 1.336 7.091 3.331 1.243 1.194 2.745 5.598 3.805 9.159l.015.051c-1.578-.26-4.024-3.102-5.305-4.575s-3.298-2.626-4.74-4.226-.87-3.727-.87-3.727l.004-.013z" fill="url(#D)"/><path d="M254.505 55.432l-.344-18.804 2.394 17.808s-1.042.733-2.05.996zm-20.435 1.729c-1.917 1.02-3.81 1.298-5.607 1.098l-.004-.009c4.121-7.185 5.61-17.723 5.61-17.723l.001 16.634z" fill="#e63548"/><path opacity=".25" d="M241.133 24.272s2.312-.139 3.452-1.248c0 0 .159.855-.506 1.489s-2.856 2.771-2.695 5.725c0 0-1.563-.664-1.779-1.76s1.528-4.205 1.528-4.205z" fill="#212120"/><path opacity=".7" d="M239.808 27.158c-1.35-.073 1.325-2.886 1.325-2.886s2.312-.139 3.453-1.248c0 0 .158.855-.507 1.489-.477.454-1.74 1.683-2.355 3.431 0 0-.528-.71-1.916-.786z" fill="#f49d8b"/><path d="M240.779 5.438h2.507c-.06-1.773.384-3.122.603-3.672.013-.032.018-.067.014-.101s-.015-.067-.034-.096a.21.21 0 00-.076-.069.202.202 0 00-.098-.026c-.471-.01-1.685.014-1.685.014s-.199.18-.292.321c-.233.352-.805 1.196-.939 3.63zm3.195.031s.246-3.63.733-3.919c0 0 2.038-.114 3.085 1.777a3.75 3.75 0 01.448 1.825v2.012s-1.884-1.5-4.266-1.695z" fill="#7c61a7"/><path d="M236.652 29.614s2.781-1.482 2.953-1.137.795 2.002 3.729 2.209c2.97.207 5.482-3.197 5.482-3.197.197.279.697.602 2.064 1.227l-.018.02c-1.819 2.032-4.146 4.635-8.029 4.63-3.692-.004-6.17-3.736-6.17-3.736l-.011-.016z" fill="url(#E)"/><path d="M241.133 24.272s-1.753-.259-2.643-.948-1.173-.977-1.71-.977c-.521 0-.958.696-1.2.962a.41.41 0 00-.088.152.43.43 0 00-.018.174c.222 2.041 2.308 16.955 5.659.637z" fill="url(#F)"/><path d="M249.344 57.21c.915-1.595 1.47-3.907 1.363-7.239-.188-5.822-1.934-10.63-7.029-10.63-4.901 0-7.011 4.335-7.011 10.71 0 4.193 1.044 7.212 2.64 8.919 2.812-.271 6.436-.786 10.037-1.761z" fill="url(#G)"/><g fill="#ec665c"><path d="M69.582 53.804h3.798v-1.926h-6.138v10.944h1.152c2.124 0 3.888-.072 5.904-.45l-.18-1.926c-1.584.288-2.988.378-4.536.414v-7.056zm9.162-3.852v6.39H77.25v-6.066h-2.214v15.498h2.214V58.25h1.494v8.298h2.25V49.952h-2.25zm19.043 5.904c-3.762-.522-5.67-2.682-5.67-4.608v-.792h-2.538v.792c0 1.944-1.89 4.086-5.67 4.608l.9 1.908c2.898-.432 4.986-1.782 6.048-3.564 1.062 1.782 3.132 3.132 6.03 3.564l.9-1.908zm.54 3.132H83.351v1.926h6.246v5.652h2.376v-5.652h6.354v-1.926zm11.32-7.56h-3.69V49.88h-2.394v1.548h-3.672V53.3h9.756v-1.872zm-6.678 5.436c0-.828.72-1.242 1.8-1.242 1.062 0 1.8.414 1.8 1.242 0 .846-.738 1.26-1.8 1.26-1.08 0-1.8-.414-1.8-1.26zm5.868 0c0-1.8-1.674-3.042-4.068-3.042-2.376 0-4.068 1.242-4.068 3.042 0 1.818 1.692 3.06 4.068 3.06 2.394 0 4.068-1.242 4.068-3.06zm-6.948 6.084h8.676v3.618h2.376V61.04h-11.052v1.908zm13.248-8.712h-2.196v-4.248h-2.376v10.368h2.376v-4.158h2.196v-1.962zm14.399 6.426c.558-3.348.558-5.634.558-7.668v-1.602h-12.186v1.89h9.81c0 1.908-.018 4.14-.558 7.146l2.376.234zm-3.51 1.98v-5.238h-2.322v5.238h-1.764v-5.238h-2.34v5.238h-3.15v1.908h15.012v-1.908h-5.436z"/><rect y="56" width="56" height="4" rx="2"/><rect x="144" y="56" width="56" height="4" rx="2"/></g><path d="M1.89 20.584h5.728c2.481 0 4.414.918 5.801 2.754 1.397 1.836 2.095 4.473 2.095 7.91s-.723 6.089-2.168 7.954C11.909 41.067 9.839 42 7.134 42H1.89V20.584zm3.984 3.442v14.487h1.289c1.445 0 2.515-.605 3.208-1.816.703-1.211 1.055-3.042 1.055-5.493 0-4.785-1.318-7.178-3.955-7.178H5.874zM35.333 42h-3.999l-1.23-5.405h-5.581L23.292 42h-3.984l5.303-21.504h5.405L35.333 42zm-5.977-8.935l-1.143-4.981-.439-2.139-.454-2.578-.469 2.71-1.538 6.987h4.043zm20.07-9.038h-5.669v5.098h5.259v3.457h-5.259v5.933h5.669V42h-9.653V20.584h9.653v3.442zm9.186 14.795c.752 0 1.323-.205 1.714-.615s.586-.977.586-1.699-.23-1.382-.689-1.977c-.449-.596-1.162-1.226-2.139-1.89-.967-.664-1.709-1.299-2.227-1.904a6.91 6.91 0 01-1.099-1.963c-.254-.733-.381-1.572-.381-2.52 0-1.836.508-3.291 1.523-4.365 1.025-1.074 2.378-1.611 4.058-1.611 1.689 0 3.286.459 4.79 1.377l-1.318 3.193c-1.221-.703-2.261-1.055-3.12-1.055-.635 0-1.128.21-1.48.63s-.527.996-.527 1.729c0 .723.205 1.357.615 1.904.42.537 1.148 1.147 2.183 1.831 1.416.947 2.388 1.904 2.915 2.871.557.986.835 2.1.835 3.34 0 2.002-.508 3.535-1.523 4.6-1.006 1.064-2.451 1.597-4.336 1.597s-3.482-.366-4.79-1.099v-3.94c1.602 1.045 3.071 1.567 4.409 1.567zm24.596-18.237v13.857c0 2.549-.576 4.497-1.729 5.845-1.152 1.338-2.808 2.007-4.966 2.007s-3.794-.669-4.907-2.007c-1.103-1.338-1.655-3.306-1.655-5.903v-13.8h3.955v14.092c0 2.725.903 4.087 2.71 4.087a2.2 2.2 0 001.948-1.04c.459-.693.688-1.68.688-2.959v-14.18h3.955z" fill="#3f3474"/><path d="M102.691 42h-3.984v-9.39h-5.259V42h-3.984V20.584h3.984v8.511h5.259v-8.511h3.984V42zm20.48 0h-3.999l-1.23-5.405h-5.581L111.13 42h-3.984l5.302-21.504h5.406L123.171 42zm-5.976-8.935l-1.143-4.981-.439-2.139-.455-2.578-.468 2.71-1.538 6.987h4.043zm23.438-2.944v10.986c-1.855.791-3.828 1.187-5.918 1.187-2.49 0-4.409-.947-5.757-2.842-1.337-1.895-2.006-4.59-2.006-8.086 0-3.506.766-6.23 2.299-8.174s3.687-2.915 6.46-2.915c1.709 0 3.34.439 4.893 1.318l-1.26 3.252c-1.221-.703-2.353-1.055-3.398-1.055-1.514 0-2.715.679-3.604 2.036-.879 1.348-1.318 3.208-1.318 5.581s.317 4.199.952 5.479c.645 1.27 1.577 1.904 2.798 1.904.625 0 1.279-.083 1.963-.249v-4.907h-2.652V30.12h6.548zm18.839 0v10.986c-1.855.791-3.828 1.187-5.918 1.187-2.49 0-4.409-.947-5.757-2.842-1.337-1.895-2.006-4.59-2.006-8.086 0-3.506.766-6.23 2.299-8.174s3.687-2.915 6.46-2.915c1.709 0 3.34.439 4.893 1.318l-1.26 3.252c-1.221-.703-2.353-1.055-3.398-1.055-1.514 0-2.715.679-3.604 2.036-.879 1.348-1.318 3.208-1.318 5.581s.317 4.199.952 5.479c.645 1.27 1.577 1.904 2.798 1.904.625 0 1.279-.083 1.963-.249v-4.907h-2.652V30.12h6.548zM172.393 42h-3.925v-8.423l-5.069-12.993h4.204l2.842 8.452 2.857-8.452h4.174l-5.083 12.832V42zm10.871-2.549c-1.328-1.895-1.993-4.624-1.993-8.189s.665-6.289 1.993-8.174c1.338-1.895 3.247-2.842 5.727-2.842s4.38.952 5.698 2.856c1.319 1.895 1.978 4.619 1.978 8.174 0 3.545-.669 6.27-2.007 8.174-1.328 1.895-3.227 2.842-5.698 2.842-2.461 0-4.36-.947-5.698-2.842zm5.742-15.689c-1.201 0-2.114.635-2.739 1.904-.616 1.269-.923 3.13-.923 5.581s.307 4.317.923 5.596 1.518 1.919 2.71 1.919c2.402 0 3.603-2.5 3.603-7.5s-1.191-7.5-3.574-7.5z" fill="#fac269"/><defs><linearGradient id="A" x1="234.455" y1="19.565" x2="239.107" y2="19.565" xlink:href="#H"><stop stop-color="#413277"/><stop offset=".28" stop-color="#45377d"/><stop offset=".64" stop-color="#52458c"/><stop offset="1" stop-color="#645aa4"/></linearGradient><linearGradient id="B" x1="239.894" y1="59.28" x2="239.894" y2="27.489" xlink:href="#H"><stop stop-color="#eb5950"/><stop offset=".14" stop-color="#ec5f55"/><stop offset=".64" stop-color="#ee7165"/><stop offset="1" stop-color="#ef786b"/></linearGradient><linearGradient id="C" x1="227.109" y1="42.155" x2="237.813" y2="31.45" xlink:href="#H"><stop stop-color="#f39327"/><stop offset=".59" stop-color="#f6a241"/><stop offset="1" stop-color="#f8ae56"/></linearGradient><linearGradient id="D" x1="263.946" y1="38.719" x2="248.989" y2="30.083" xlink:href="#H"><stop stop-color="#f39327"/><stop offset=".11" stop-color="#f49830"/><stop offset=".41" stop-color="#f6a445"/><stop offset=".71" stop-color="#f8ac52"/><stop offset="1" stop-color="#f8ae56"/></linearGradient><linearGradient id="E" x1="236.652" y1="30.428" x2="250.88" y2="30.428" xlink:href="#H"><stop stop-color="#eb5950"/><stop offset=".13" stop-color="#ec5f55"/><stop offset=".64" stop-color="#ee7165"/><stop offset="1" stop-color="#ef786b"/></linearGradient><linearGradient id="F" x1="5239.41" y1="7959.57" x2="6582.82" y2="8423.1" xlink:href="#H"><stop stop-color="#413277"/><stop offset=".28" stop-color="#45377d"/><stop offset=".64" stop-color="#52458c"/><stop offset="1" stop-color="#645aa4"/></linearGradient><linearGradient id="G" x1="248.194" y1="57.875" x2="238.586" y2="41.233" xlink:href="#H"><stop stop-color="#f39327"/><stop offset=".27" stop-color="#f4972d"/><stop offset=".64" stop-color="#f5a03e"/><stop offset="1" stop-color="#f8ae56"/></linearGradient><linearGradient id="H" gradientUnits="userSpaceOnUse"/></defs></svg>