<svg width="268" height="75" fill="none" xmlns="http://www.w3.org/2000/svg"><path d="M217.84 44.616c-1.804-1.243-4.208-1.492-5.613-3.395-.674.094-.999-.344-1.286-.841.063-.355.27-.711-.195-1-.228-.14-.335-.442-.333-.742.254-.337.03-.84.396-1.14l.495-.06c.411-.184.687.106.995.284.392.364 1.015.343 1.35.805.176.394.349.838.832.895.769.09 1.168.588 1.497 1.184.023-.115-.09-.15-.12-.23-.261-.44-.543-.804-1.103-.93-.407-.093-.927-.323-.759-.88.152-.501.632-.397 1.037-.276.176.053.38-.02.536.12 1.666.426 2.92 1.507 4.16 2.611.166 0 .22.098.217.246-.179.584-.635 1.011-.881 1.557-.457.566-.413 1.473-1.225 1.792z" fill="#FACBB7"/><path d="M213.503 38.6c-.35-.403-1.045-.196-1.313-.743-.206-.307-.496-.592-.267-1.014l.104-.095c.251-.024.504-.086.748.035l2.038 1.065c-.265.552-.924.413-1.31.752z" fill="#F9C8B6"/><path d="M213.503 38.6c.24-.59.89-.471 1.31-.752l.754.563c-.48.124-1.258-.322-1.397.268-.114.48.687.56 1.13.727.507.191.603.675.831 1.07.133.223.128.378-.189.376-.46-.531-.744-1.23-1.659-1.243-.492-.007-.715-.517-.78-1.01z" fill="#F7B6A7"/><path d="M215.942 40.852c.15-.081.185-.221.189-.376.189.163.428.412.266.605-.216.257-.338-.067-.455-.229z" fill="#F9C1AF"/><path d="M235.134 13.128s.194-6.962 5.634-7.383c0 0 .035-3.48 1.392-4.372 1.028-.674 2.494-.68 3.595-.615 1.101.065 4.502-.03 4.632 3.952.129 3.983-.028 7.782-.164 9.26-.12 1.31-1.845 6.217-2.072 6.54-.227.322-3.27-1.976-3.368-3.077-.097-1.1.064-1.65-.196-2.104-.259-.455-.937-1.069-.937-2.137l-8.516-.064z" fill="#413277"/><path d="M235.134 13.128s-1.52 9.055 1.144 11.502c2.663 2.447 5.719 5.807 5.719 5.807l6.07-4.497s-.644-1.608-.468-3.15c.175-1.543.468-2.246.468-2.246l-1.266-.729c-.003-.171 1.086-1.62 1.177-2.145.09-.514-.292-1.44-1.242-1.24-.878.183-1.623 2.007-1.791 1.465-.168-.542-.052-2.085-.326-2.502-.274-.417-.954-1.112-.969-2.198l-8.516-.067z" fill="#FACCB8"/><path d="M234.455 20.107h4.652s-1.26-1.084-2.661-1.084c-1.439 0-1.991 1.084-1.991 1.084z" fill="url(#paint0_linear)"/><path d="M242.473 29.62s.311-1.621 1.605-2.19c1.313-.575 3.002-1.249 3.799-2.065 0 0 .323 1.774 1.49 2.686 1.168.912-9.265 4.122-9.265 4.122l-1.97-4.632 2.318-.296s1.84.333 2.023 2.376z" fill="#FFFDFE"/><path d="M236.652 29.614s-3.764 2.087-5.175 6.086c-1.412 3.999-2.869 7.62-3.763 8.7 0 0-5.173-.753-7.76-3.245 0 0-3.763 5.973-3.904 8.466 0 0 8.719 12.484 18.02 7.54v2.119s26.46-.06 29.668-13.068c0 0-2.973-11.946-5.151-14.038-2.178-2.09-5.887-2.892-7.299-3.404-1.413-.512-2.275-1.002-2.472-1.281 0 0-2.512 3.404-5.482 3.197-2.934-.207-3.556-1.864-3.729-2.21-.172-.345-2.953 1.138-2.953 1.138z" fill="url(#paint1_linear)"/><path d="M236.235 29.872c-.192 3.964-4.208 13.162-7.896 13.513l.141-.238c.854-1.663 1.938-4.45 2.997-7.448 1.089-3.086 3.58-5.034 4.66-5.762l.098-.065z" fill="url(#paint2_linear)"/><path d="M251.496 28.843c1.542.516 5.013 1.336 7.091 3.331 1.243 1.194 2.745 5.598 3.805 9.16l.015.05c-1.578-.26-4.024-3.102-5.305-4.575-1.281-1.473-3.298-2.626-4.74-4.227-1.442-1.6-.87-3.726-.87-3.726l.004-.013z" fill="url(#paint3_linear)"/><path d="M254.505 55.432l-.344-18.804 2.394 17.809s-1.042.733-2.05.995zM234.07 57.16c-1.917 1.02-3.81 1.299-5.607 1.099l-.004-.01c4.121-7.184 5.61-17.722 5.61-17.722V57.16h.001z" fill="#E63548"/><path opacity=".25" d="M241.133 24.272s2.312-.14 3.452-1.248c0 0 .159.855-.506 1.488-.665.634-2.856 2.772-2.695 5.725 0 0-1.563-.664-1.779-1.76-.216-1.096 1.528-4.205 1.528-4.205z" fill="#212120"/><path opacity=".7" d="M239.808 27.158c-1.35-.073 1.325-2.886 1.325-2.886s2.312-.14 3.453-1.248c0 0 .158.855-.507 1.488-.477.455-1.74 1.683-2.355 3.431 0 0-.528-.71-1.916-.785z" fill="#F49D8B"/><path d="M240.779 5.438h2.507c-.06-1.773.384-3.122.603-3.672a.206.206 0 00.014-.101.208.208 0 00-.11-.165.211.211 0 00-.098-.026c-.471-.01-1.685.013-1.685.013s-.199.18-.292.32c-.233.353-.805 1.197-.939 3.63zm3.195.032s.246-3.63.733-3.92c0 0 2.038-.114 3.085 1.777a3.75 3.75 0 01.448 1.825v2.012s-1.884-1.5-4.266-1.695z" fill="#7C61A7"/><path d="M236.652 29.614s2.781-1.482 2.953-1.137c.173.345.795 2.002 3.729 2.21 2.97.207 5.482-3.198 5.482-3.198.197.28.697.603 2.064 1.227l-.018.02c-1.819 2.032-4.146 4.635-8.029 4.63-3.692-.004-6.17-3.736-6.17-3.736l-.011-.016z" fill="url(#paint4_linear)"/><path d="M241.133 24.272s-1.753-.259-2.643-.948c-.891-.69-1.173-.977-1.71-.977-.521 0-.958.696-1.2.962a.41.41 0 00-.106.326c.222 2.042 2.308 16.955 5.659.637z" fill="url(#paint5_linear)"/><path d="M249.344 57.21c.915-1.595 1.47-3.907 1.363-7.239-.188-5.822-1.934-10.63-7.029-10.63-4.901 0-7.011 4.336-7.011 10.71 0 4.194 1.044 7.213 2.64 8.92 2.812-.27 6.436-.786 10.037-1.761z" fill="url(#paint6_linear)"/><path d="M69.582 53.804h3.798v-1.926h-6.138v10.944h1.152c2.124 0 3.888-.072 5.904-.45l-.18-1.926c-1.584.288-2.988.378-4.536.414v-7.056zm9.162-3.852v6.39H77.25v-6.066h-2.214v15.498h2.214V58.25h1.494v8.298h2.25V49.952h-2.25zm19.043 5.904c-3.762-.522-5.67-2.682-5.67-4.608v-.792h-2.538v.792c0 1.944-1.89 4.086-5.67 4.608l.9 1.908c2.898-.432 4.986-1.782 6.048-3.564 1.062 1.782 3.132 3.132 6.03 3.564l.9-1.908zm.54 3.132H83.35v1.926h6.246v5.652h2.376v-5.652h6.354v-1.926zm11.32-7.56h-3.69V49.88h-2.394v1.548h-3.672V53.3h9.756v-1.872zm-6.678 5.436c0-.828.72-1.242 1.8-1.242 1.062 0 1.8.414 1.8 1.242 0 .846-.738 1.26-1.8 1.26-1.08 0-1.8-.414-1.8-1.26zm5.868 0c0-1.8-1.674-3.042-4.068-3.042-2.376 0-4.068 1.242-4.068 3.042 0 1.818 1.692 3.06 4.068 3.06 2.394 0 4.068-1.242 4.068-3.06zm-6.948 6.084h8.676v3.618h2.376V61.04h-11.052v1.908zm13.248-8.712h-2.196v-4.248h-2.376v10.368h2.376v-4.158h2.196v-1.962zm14.399 6.426c.558-3.348.558-5.634.558-7.668v-1.602h-12.186v1.89h9.81c0 1.908-.018 4.14-.558 7.146l2.376.234zm-3.51 1.98v-5.238h-2.322v5.238h-1.764v-5.238h-2.34v5.238h-3.15v1.908h15.012v-1.908h-5.436z" fill="#EC665C"/><rect y="56" width="56" height="4" rx="2" fill="#EC665C"/><rect x="144" y="56" width="56" height="4" rx="2" fill="#EC665C"/><path d="M3.3 15.59c1.56 0 3.26.32 5.1.96 1.86.64 3.58 1.48 5.16 2.52 1.6 1.04 2.93 2.29 3.99 3.75 1.08 1.46 1.62 2.94 1.62 4.44 0 1.12-.91 2.52-2.73 4.2-1.8 1.66-3.89 3.1-6.27 4.32-2.38 1.22-4.33 1.83-5.85 1.83-.34 0-.89-.44-1.65-1.32-.74-.9-1.11-1.56-1.11-1.98 0-.82.54-3.1 1.62-6.84 1.1-3.76 1.78-6.34 2.04-7.74a7 7 0 01-1.8-1.71c-.48-.68-.72-1.25-.72-1.71 0-.48.2-.72.6-.72zm11.55 10.83c0-.64-.59-1.48-1.77-2.52-1.18-1.06-2.55-1.94-4.11-2.64-.12 1.5-.97 4.71-2.55 9.63-.08.26-.21.69-.39 1.29-.16.58-.28.97-.36 1.17 1.96-.66 3.98-1.77 6.06-3.33 2.08-1.58 3.12-2.78 3.12-3.6zm20.4-.06c.8 0 1.37.08 1.71.24.36.14.54.41.54.81 0 .54-.87 1.09-2.61 1.65.04 1.52.06 2.98.06 4.38 0 1.38-.11 2.42-.33 3.12-.22.68-.57 1.02-1.05 1.02-.48 0-.86-.24-1.14-.72-.26-.5-.48-1.31-.66-2.43-.16-1.12-.33-2.6-.51-4.44-2.04.46-3.51.83-4.41 1.11-1.56 4.32-2.6 6.48-3.12 6.48-.42 0-.98-.28-1.68-.84-.68-.56-1.02-1.14-1.02-1.74 0-.34.39-1.4 1.17-3.18-.34-.22-.64-.53-.9-.93-.24-.42-.36-.82-.36-1.2 0-.66.99-1.29 2.97-1.89.16-.4.32-.85.48-1.35.18-.52.61-1.72 1.29-3.6.7-1.88 1.25-3.45 1.65-4.71.18-.6.8-1.16 1.86-1.68 1.08-.52 1.92-.78 2.52-.78.7 0 1.32.97 1.86 2.91.56 1.94.95 4.53 1.17 7.77h.51zm-6.93.51c.6-.08 1.47-.18 2.61-.3-.06-.58-.16-1.57-.3-2.97-.12-1.4-.21-2.41-.27-3.03-.34 1.12-1.02 3.22-2.04 6.3zm17.997-1.86c1.06 0 2.2-.05 3.42-.15 1.22-.12 1.97-.18 2.25-.18.3 0 .53.07.69.21.18.14.27.31.27.51 0 .88-.83 1.58-2.49 2.1-1.66.52-3.43.82-5.31.9-.78 2.42-1.17 3.95-1.17 4.59 0 .34.17.51.51.51 2.28 0 4.63-.3 7.05-.9.82-.22 1.29-.33 1.41-.33.38 0 .57.27.57.81 0 .72-.53 1.42-1.59 2.1-1.06.68-2.39 1.22-3.99 1.62-1.6.4-3.17.6-4.71.6-.92 0-1.75-.34-2.49-1.02-.74-.7-1.11-1.51-1.11-2.43 0-.94.51-3.28 1.53-7.02 1.04-3.74 1.59-6.56 1.65-8.46-.02-.06-.03-.18-.03-.36 0-.28.04-.5.12-.66.22-.56.83-.91 1.83-1.05 1-.16 2.8-.24 5.4-.24 4.32 0 6.48.48 6.48 1.44 0 .62-.53 1.05-1.59 1.29-.72.16-1.71.31-2.97.45-1.94.22-3.67.54-5.19.96 0 1.36-.24 2.93-.72 4.71h.18zM70.37 31.4c0 1.7-.81 3.16-2.43 4.38-1.62 1.22-3.47 1.83-5.55 1.83-2.08 0-3.76-.51-5.04-1.53-1.26-1.04-1.89-2.11-1.89-3.21s.31-1.65.93-1.65c.48 0 .98.24 1.5.72s1.1.96 1.74 1.44c.66.48 1.4.72 2.22.72.82 0 1.75-.34 2.79-1.02 1.04-.68 1.56-1.25 1.56-1.71 0-.46-.57-1.23-1.71-2.31-1.12-1.08-2.25-2.19-3.39-3.33-1.12-1.16-1.68-2.05-1.68-2.67 0-.64.11-1.33.33-2.07.24-.74.53-1.25.87-1.53 1.08-1.06 2.47-1.97 4.17-2.73 1.72-.78 3.23-1.17 4.53-1.17.76 0 1.39.33 1.89.99.5.64.75 1.31.75 2.01 0 .28-.23.51-.69.69-.44.16-1.09.33-1.95.51-.84.18-1.7.44-2.58.78-2.04.76-3.06 1.4-3.06 1.92 0 .24.35.68 1.05 1.32.7.62 1.46 1.28 2.28 1.98.84.68 1.61 1.55 2.31 2.61.7 1.04 1.05 2.05 1.05 3.03zm6.683-15.81c.5 0 1.13.36 1.89 1.08.78.72 1.17 1.43 1.17 2.13 0 .68-.36 2.46-1.08 5.34-.72 2.88-1.08 4.87-1.08 5.97 0 1.08.13 1.91.39 2.49.28.58.66.87 1.14.87.5 0 1.08-.35 1.74-1.05.66-.72 1.29-1.64 1.89-2.76.62-1.14 1.13-2.49 1.53-4.05.42-1.58.63-3.04.63-4.38 0-1.36-.07-2.45-.21-3.27-.12-.82-.18-1.31-.18-1.47 0-.62.26-.93.78-.93.64 0 1.46.54 2.46 1.62 1.02 1.08 1.53 2.37 1.53 3.87 0 1.48-.26 3.19-.78 5.13-.52 1.92-1.22 3.74-2.1 5.46-.88 1.72-2 3.15-3.36 4.29-1.34 1.14-2.72 1.71-4.14 1.71-1.4 0-2.67-.74-3.81-2.22-1.14-1.48-1.71-2.99-1.71-4.53s.2-3.32.6-5.34c.4-2.04.8-3.87 1.2-5.49.4-1.62.6-2.77.6-3.45 0-.68.3-1.02.9-1.02z" fill="#3F3474"/><path d="M94.205 37.61c-.42 0-1.01-.47-1.77-1.41-.76-.96-1.14-1.69-1.14-2.19 0-.52.3-2.07.9-4.65-.48-.48-.72-1.08-.72-1.8 0-.4.48-.8 1.44-1.2 1.26-5.12 1.89-8.36 1.89-9.72 0-.66.29-.99.87-.99.48 0 1.1.48 1.86 1.44.78.96 1.17 1.86 1.17 2.7 0 .54-.36 2.34-1.08 5.4 1.72-.3 3.43-.48 5.13-.54.96-4.02 1.44-6.69 1.44-8.01 0-.66.29-.99.87-.99.48 0 1.1.48 1.86 1.44.78.96 1.17 1.86 1.17 2.7 0 .42-.39 2.14-1.17 5.16 1 .24 1.5.63 1.5 1.17 0 .62-.74 1.11-2.22 1.47-.72 2.76-1.19 4.59-1.41 5.49-.22.88-.39 1.55-.51 2.01-.1.44-.21.87-.33 1.29-.22.82-.43 1.23-.63 1.23-.48 0-1.06-.38-1.74-1.14-.66-.76-.99-1.52-.99-2.28 0-.44.42-2.39 1.26-5.85-2.3.38-4.07.73-5.31 1.05-.62 2.38-1.03 4.04-1.23 4.98-.2.92-.36 1.59-.48 2.01-.22.82-.43 1.23-.63 1.23zm30.401-11.25c.8 0 1.37.08 1.71.24.36.14.54.41.54.81 0 .54-.87 1.09-2.61 1.65.04 1.52.06 2.98.06 4.38 0 1.38-.11 2.42-.33 3.12-.22.68-.57 1.02-1.05 1.02-.48 0-.86-.24-1.14-.72-.26-.5-.48-1.31-.66-2.43-.16-1.12-.33-2.6-.51-4.44-2.04.46-3.51.83-4.41 1.11-1.56 4.32-2.6 6.48-3.12 6.48-.42 0-.98-.28-1.68-.84-.68-.56-1.02-1.14-1.02-1.74 0-.34.39-1.4 1.17-3.18-.34-.22-.64-.53-.9-.93-.24-.42-.36-.82-.36-1.2 0-.66.99-1.29 2.97-1.89.16-.4.32-.85.48-1.35.18-.52.61-1.72 1.29-3.6.7-1.88 1.25-3.45 1.65-4.71.18-.6.8-1.16 1.86-1.68 1.08-.52 1.92-.78 2.52-.78.7 0 1.32.97 1.86 2.91.56 1.94.95 4.53 1.17 7.77h.51zm-6.93.51c.6-.08 1.47-.18 2.61-.3-.06-.58-.16-1.57-.3-2.97-.12-1.4-.21-2.41-.27-3.03-.34 1.12-1.02 3.22-2.04 6.3zm18.866.93c0-.42.48-.76 1.44-1.02s2-.39 3.12-.39 1.97.45 2.55 1.35c.6.9.9 1.9.9 3s-.47 3-1.41 5.7c-.92 2.68-1.72 4.02-2.4 4.02-.28 0-.52-.09-.72-.27a.803.803 0 01-.27-.63c0-1.44.4-3.5 1.2-6.18-.94 1.2-1.97 2.17-3.09 2.91-1.1.74-2.24 1.11-3.42 1.11-1.16 0-2.38-.51-3.66-1.53-1.28-1.02-1.92-2.14-1.92-3.36 0-2.16.64-4.55 1.92-7.17 1.28-2.64 2.9-4.89 4.86-6.75 1.96-1.86 3.81-2.79 5.55-2.79.6 0 1.22.47 1.86 1.41.66.94.99 1.8.99 2.58 0 .36-.13.54-.39.54-.04 0-.23-.04-.57-.12-.34-.08-.76-.12-1.26-.12-1.34 0-2.71.69-4.11 2.07-1.4 1.36-2.54 3.04-3.42 5.04-.88 2-1.32 3.88-1.32 5.64 0 .52.34.78 1.02.78.94 0 2.09-.42 3.45-1.26 1.38-.84 2.44-1.78 3.18-2.82-.44.02-.98.03-1.62.03-.62 0-1.19-.19-1.71-.57-.5-.38-.75-.78-.75-1.2zm17.901 0c0-.42.48-.76 1.44-1.02s2-.39 3.12-.39 1.97.45 2.55 1.35c.6.9.9 1.9.9 3s-.47 3-1.41 5.7c-.92 2.68-1.72 4.02-2.4 4.02-.28 0-.52-.09-.72-.27a.803.803 0 01-.27-.63c0-1.44.4-3.5 1.2-6.18-.94 1.2-1.97 2.17-3.09 2.91-1.1.74-2.24 1.11-3.42 1.11-1.16 0-2.38-.51-3.66-1.53-1.28-1.02-1.92-2.14-1.92-3.36 0-2.16.64-4.55 1.92-7.17 1.28-2.64 2.9-4.89 4.86-6.75 1.96-1.86 3.81-2.79 5.55-2.79.6 0 1.22.47 1.86 1.41.66.94.99 1.8.99 2.58 0 .36-.13.54-.39.54-.04 0-.23-.04-.57-.12-.34-.08-.76-.12-1.26-.12-1.34 0-2.71.69-4.11 2.07-1.4 1.36-2.54 3.04-3.42 5.04-.88 2-1.32 3.88-1.32 5.64 0 .52.34.78 1.02.78.94 0 2.09-.42 3.45-1.26 1.38-.84 2.44-1.78 3.18-2.82-.44.02-.98.03-1.62.03-.62 0-1.19-.19-1.71-.57-.5-.38-.75-.78-.75-1.2zm18.65-1.92c.36 0 .99-.86 1.89-2.58.92-1.72 1.85-3.43 2.79-5.13.94-1.72 1.64-2.58 2.1-2.58.68 0 1.24.31 1.68.93.46.62.69 1.36.69 2.22 0 .6-.52 1.76-1.56 3.48-1.04 1.7-2.36 3.81-3.96 6.33s-2.83 4.66-3.69 6.42c-.26.56-.68 1.14-1.26 1.74-.58.6-1.14.9-1.68.9-.8 0-1.2-.64-1.2-1.92 0-.76.76-2.53 2.28-5.31.24-.44.41-.77.51-.99-.88-.34-1.68-.9-2.4-1.68a9.215 9.215 0 01-1.71-2.64c-.88-2.06-1.32-4.06-1.32-6 0-1.2.13-2.08.39-2.64.28-.56.84-.84 1.68-.84.44 0 .77.31.99.93.22.6.42 1.47.6 2.61s.43 2.15.75 3.03c.34.86.75 1.7 1.23 2.52.5.8.9 1.2 1.2 1.2zm17.387 6.57c1.16-1.04 2.17-2.34 3.03-3.9.86-1.58 1.29-3.09 1.29-4.53 0-1.44-.18-2.55-.54-3.33-.36-.78-.86-1.17-1.5-1.17s-1.48.58-2.52 1.74c-1.02 1.14-1.95 2.64-2.79 4.5-.82 1.86-1.23 3.64-1.23 5.34 0 .86.12 1.56.36 2.1.24.52.54.78.9.78.84 0 1.84-.51 3-1.53zm-2.97 5.16c-1.48 0-2.8-.72-3.96-2.16-1.16-1.46-1.74-2.91-1.74-4.35 0-1.84.35-3.72 1.05-5.64.7-1.94 1.57-3.61 2.61-5.01 1.06-1.42 2.22-2.58 3.48-3.48 1.26-.92 2.42-1.38 3.48-1.38 1.94 0 3.53.83 4.77 2.49 1.24 1.64 1.86 3.49 1.86 5.55 0 2.06-.52 4.15-1.56 6.27-1.04 2.1-2.48 3.91-4.32 5.43-1.82 1.52-3.71 2.28-5.67 2.28z" fill="#FAC269"/><defs><linearGradient id="paint0_linear" x1="234.455" y1="19.565" x2="239.107" y2="19.565" gradientUnits="userSpaceOnUse"><stop stop-color="#413277"/><stop offset=".28" stop-color="#45377D"/><stop offset=".64" stop-color="#52458C"/><stop offset="1" stop-color="#645AA4"/></linearGradient><linearGradient id="paint1_linear" x1="239.894" y1="59.28" x2="239.894" y2="27.489" gradientUnits="userSpaceOnUse"><stop stop-color="#EB5950"/><stop offset=".14" stop-color="#EC5F55"/><stop offset=".64" stop-color="#EE7165"/><stop offset="1" stop-color="#EF786B"/></linearGradient><linearGradient id="paint2_linear" x1="227.109" y1="42.154" x2="237.813" y2="31.45" gradientUnits="userSpaceOnUse"><stop stop-color="#F39327"/><stop offset=".59" stop-color="#F6A241"/><stop offset="1" stop-color="#F8AE56"/></linearGradient><linearGradient id="paint3_linear" x1="263.946" y1="38.719" x2="248.989" y2="30.083" gradientUnits="userSpaceOnUse"><stop stop-color="#F39327"/><stop offset=".11" stop-color="#F49830"/><stop offset=".41" stop-color="#F6A445"/><stop offset=".71" stop-color="#F8AC52"/><stop offset="1" stop-color="#F8AE56"/></linearGradient><linearGradient id="paint4_linear" x1="236.652" y1="30.428" x2="250.88" y2="30.428" gradientUnits="userSpaceOnUse"><stop stop-color="#EB5950"/><stop offset=".13" stop-color="#EC5F55"/><stop offset=".64" stop-color="#EE7165"/><stop offset="1" stop-color="#EF786B"/></linearGradient><linearGradient id="paint5_linear" x1="5239.41" y1="7959.57" x2="6582.82" y2="8423.1" gradientUnits="userSpaceOnUse"><stop stop-color="#413277"/><stop offset=".28" stop-color="#45377D"/><stop offset=".64" stop-color="#52458C"/><stop offset="1" stop-color="#645AA4"/></linearGradient><linearGradient id="paint6_linear" x1="248.194" y1="57.875" x2="238.586" y2="41.233" gradientUnits="userSpaceOnUse"><stop stop-color="#F39327"/><stop offset=".27" stop-color="#F4972D"/><stop offset=".64" stop-color="#F5A03E"/><stop offset="1" stop-color="#F8AE56"/></linearGradient></defs></svg>