<svg width="24" height="24" fill="none" xmlns="http://www.w3.org/2000/svg"><g clip-path="url(#clip0)" fill="#548FCC"><path d="M18.727 2.692a.357.357 0 0 0-.03-.065.357.357 0 0 0-.04-.057.378.378 0 0 0-.053-.05.393.393 0 0 0-.057-.038.363.363 0 0 0-.073-.026c-.014-.004-.026-.013-.042-.016L6.042.564c-.005 0-.01.002-.016 0-.008 0-.016-.004-.025-.004h-.005a6.006 6.006 0 0 0-5.5 3.618 5.967 5.967 0 0 0 .022 4.808A6.032 6.032 0 0 0 3.75 12.12v5.694c0 1.113.812 2.038 1.875 2.217v.782a1.878 1.878 0 0 1-1.876 1.876H.378a.375.375 0 1 0 0 .75h3.371a2.629 2.629 0 0 0 2.626-2.625v-.784a2.252 2.252 0 0 0 1.875-2.216v-2.25h.751a.375.375 0 0 0 .375-.374v-2.257c0-.03-.01-.056-.017-.084-.006-.02-.005-.041-.013-.06-.01-.024-.03-.044-.045-.066-.012-.017-.02-.037-.035-.052-.018-.018-.042-.028-.063-.042-.019-.012-.035-.029-.056-.038A.372.372 0 0 0 9 12.56h-.004l-.747.008v-.344l10.182-1.542c.015-.002.027-.01.042-.015.026-.008.05-.014.072-.026a.287.287 0 0 0 .057-.039.384.384 0 0 0 .054-.049c.015-.018.027-.038.039-.057a.358.358 0 0 0 .03-.066.367.367 0 0 0 .015-.072c.002-.015.01-.03.01-.046V2.81c0-.017-.008-.03-.01-.047a.39.39 0 0 0-.014-.072zM6.372 11.751V1.372l10.504 1.59v7.197L6.372 11.75zm11.254-8.675l.375.057V9.99l-.375.057v-6.97zM1.462 9.188l1.163.001a.375.375 0 0 0 0-.75H1.104A5.22 5.22 0 0 1 .77 6.936h1.856a.375.375 0 0 0 0-.75H.77c.038-.526.153-1.03.334-1.503l1.522.001a.375.375 0 0 0 .001-.75H1.461a5.25 5.25 0 0 1 4.161-2.605v10.463a5.251 5.251 0 0 1-4.16-2.604zm7.164 4.127v1.498H8.25v-1.495l.376-.003zM7.5 17.813c0 .827-.673 1.5-1.5 1.5s-1.5-.673-1.5-1.5v-5.45c.469.122.958.194 1.464.196.008 0 .015.004.022.004a.365.365 0 0 0 .057-.004l1.457-.221v5.475z"/><path d="M5.626 14.438v.75a.375.375 0 1 0 0 .75v.752a.375.375 0 1 0 .75 0v-.752a.375.375 0 1 0 0-.75v-.75a.375.375 0 1 0-.75 0zm17.999-8.251h-3.75a.375.375 0 1 0 0 .75h3.75a.375.375 0 1 0 0-.75zM19.5 5.062c0 .207.167.375.375.375h1.872a.375.375 0 1 0 0-.75h-1.872a.375.375 0 0 0-.375.375zm2.247 2.625h-1.872a.375.375 0 1 0 0 .75h1.872a.375.375 0 1 0 0-.75z"/></g><defs><clipPath id="clip0"><path fill="#fff" d="M0 0h24v24H0z"/></clipPath></defs></svg>