<svg width="24" height="24" fill="none" xmlns="http://www.w3.org/2000/svg"><g clip-path="url(#clip0)" fill="#548FCC"><path d="M22.599 4.417H1.4a.255.255 0 0 0-.255.254v12.917c0 .14.115.255.255.255h21.2c.14 0 .255-.114.255-.255V4.671a.255.255 0 0 0-.255-.254zm-.255 12.917H1.656V4.926h20.688v12.408z"/><path d="M22.882 3.27H1.118A1.12 1.12 0 0 0 0 4.388v13.483a1.12 1.12 0 0 0 1.118 1.119h7.56l-.404.976H6.655a.382.382 0 1 0 0 .764h10.69a.382.382 0 1 0 0-.764h-1.619l-.403-.977h7.559A1.12 1.12 0 0 0 24 17.872V4.388a1.12 1.12 0 0 0-1.118-1.118zm-7.983 16.696H9.101l.403-.977h4.992l.403.977zm8.337-2.095a.354.354 0 0 1-.354.354H1.118a.354.354 0 0 1-.354-.354V4.388c0-.195.16-.354.354-.354h21.764c.195 0 .354.16.354.354v13.483z"/></g><defs><clipPath id="clip0"><path fill="#fff" d="M0 0h24v24H0z"/></clipPath></defs></svg>