<svg width="24" height="24" fill="none" xmlns="http://www.w3.org/2000/svg"><path d="M6.495 7.85c-1.047 0-1.9 1.033-1.9 2.303s.853 2.303 1.9 2.303 1.899-1.033 1.899-2.303-.852-2.303-1.9-2.303zm0 3.77c-.576 0-1.063-.672-1.063-1.467s.487-1.467 1.063-1.467 1.062.672 1.062 1.467-.486 1.467-1.062 1.467z" fill="#548FCC"/><path d="M20.485 3.515A11.922 11.922 0 0 0 12 0a11.922 11.922 0 0 0-8.485 3.515A11.922 11.922 0 0 0 0 12c0 3.205 1.248 6.219 3.515 8.485A11.922 11.922 0 0 0 12 24c3.205 0 6.219-1.248 8.485-3.515A11.921 11.921 0 0 0 24 12c0-3.205-1.248-6.219-3.515-8.485zm-.591 16.379A11.09 11.09 0 0 1 12 23.164a11.09 11.09 0 0 1-7.894-3.27c-4.353-4.353-4.353-11.435 0-15.788A11.09 11.09 0 0 1 12 .836a11.09 11.09 0 0 1 7.894 3.27A11.09 11.09 0 0 1 23.164 12a11.09 11.09 0 0 1-3.27 7.894z" fill="#548FCC"/><path d="M16.984 5.02a.418.418 0 0 0-.185-.308A8.686 8.686 0 0 0 12 3.276c-2.33 0-4.521.908-6.169 2.555a8.738 8.738 0 0 0-2.515 5.332 8.748 8.748 0 0 0 1.396 5.636.418.418 0 0 0 .645.065L16.864 5.357a.418.418 0 0 0 .12-.338zm-6.378 3.435c0-.795.487-1.467 1.063-1.467.54 0 1.003.593 1.057 1.324l-1.483 1.484c-.38-.235-.637-.761-.637-1.34zm2.827-.85c-.28-.85-.965-1.453-1.764-1.453-1.047 0-1.9 1.033-1.9 2.303 0 .8.338 1.525.873 1.941L5.14 15.898a7.916 7.916 0 0 1 1.283-9.475A7.836 7.836 0 0 1 12 4.113c1.377 0 2.715.353 3.898 1.027l-2.465 2.465zm5.855-.404a.418.418 0 0 0-.645-.065L7.136 18.643a.418.418 0 0 0 .065.645A8.685 8.685 0 0 0 12 20.724c2.33 0 4.521-.908 6.169-2.555a8.738 8.738 0 0 0 2.515-5.332 8.747 8.747 0 0 0-1.396-5.636zm-1.383 2.952c0 .795-.486 1.467-1.063 1.467-.346 0-.67-.239-.87-.631l1.737-1.736c.131.23.196.527.196.9zm-4.457 3.36c1.322.646 2.167 1.921 2.167 3.29 0 .329-.073.554-.218.669-.39.31-1.427.068-2.26-.127-.593-.138-1.152-.268-1.624-.268-.52 0-1.132.142-1.724.279l-.238.055 3.897-3.897zm4.13 4.064A7.836 7.836 0 0 1 12 19.887a7.858 7.858 0 0 1-3.898-1.027l.428-.429c.03.004.061.004.092 0 .433-.047.902-.155 1.356-.26.546-.127 1.11-.258 1.535-.258.376 0 .89.12 1.434.247.63.147 1.274.297 1.841.297.434 0 .823-.087 1.129-.33.354-.282.534-.727.534-1.323 0-1.6-.922-3.089-2.384-3.91l1.295-1.294c.354.537.891.856 1.48.856 1.048 0 1.9-1.033 1.9-2.303 0-.614-.145-1.117-.43-1.503l.548-.548a7.916 7.916 0 0 1-1.283 9.475z" fill="#548FCC"/></svg>