<svg width="24" height="24" fill="none" xmlns="http://www.w3.org/2000/svg"><path d="M12 24c6.627 0 12-5.373 12-12S18.627 0 12 0 0 5.373 0 12c.007 6.624 5.376 11.992 12 12zM12 .8C18.186.8 23.2 5.814 23.2 12c0 6.186-5.014 11.2-11.2 11.2C5.814 23.2.8 18.186.8 12 .807 5.817 5.817.807 12 .8z" fill="#548FCC"/><path d="M19.405 18.675a.4.4 0 0 0 .595-.03 10.42 10.42 0 0 0-.647-13.996.4.4 0 0 0-.566.566 9.616 9.616 0 0 1 .866 12.574L15.6 13.74V8.9c0-.44-.208-.855-.56-1.12a.6.6 0 0 1-.24-.48V4.8a1.2 1.2 0 0 0-2.4 0v2.5a.6.6 0 0 1-.24.48c-.352.265-.56.68-.56 1.12v.838L6.208 4.346a9.622 9.622 0 0 1 9.522-1.19.4.4 0 0 0 .316-.736A10.412 10.412 0 0 0 5.352 4.013a.4.4 0 0 0-.023.586C10.21 9.472.776.022 19.405 18.675zM12.4 8.9a.6.6 0 0 1 .24-.48c.352-.265.56-.68.56-1.12V4.8a.4.4 0 0 1 .8 0v2.5c0 .44.208.855.56 1.12a.6.6 0 0 1 .24.48v4.04l-2.4-2.4V8.9zm-8.357 8.464A9.545 9.545 0 0 1 4.017 6.68L9.338 12H6.4a.4.4 0 0 0-.388.303c-.045.178-.423 1.77.03 2.676.453.906 1.958 1.288 1.958 2.22v1.6h-.8a.4.4 0 0 0 0 .8h2.4a.4.4 0 0 0 0-.8h-.8v-1.6c0-.934 1.503-1.31 1.96-2.221a2.87 2.87 0 0 0 .215-1.342l.625.626V18.4a1.2 1.2 0 0 0 1.2 1.2h1.6a1.2 1.2 0 0 0 1.2-1.2v-.138l1.722 1.721a9.547 9.547 0 0 1-10.686-.026.4.4 0 1 0-.448.662 10.357 10.357 0 0 0 11.99-.255.4.4 0 0 0 .049-.607L4.243 5.773a.4.4 0 0 0-.607.049 10.356 10.356 0 0 0-.255 11.99.4.4 0 0 0 .662-.448zm6-2.743c-.22.44-1.12.84-1.642 1.492-.525-.66-1.419-1.046-1.642-1.492-.204-.408-.143-1.233-.034-1.821h3.35c.115.628.168 1.417-.033 1.821h.001zM14.8 18.4a.4.4 0 0 1-.4.4h-1.6a.4.4 0 0 1-.4-.4v-3.338l2.4 2.4v.938z" fill="#548FCC"/></svg>