<svg width="24" height="24" fill="none" xmlns="http://www.w3.org/2000/svg"><g clip-path="url(#clip0)" fill="#548FCC"><path d="M12 1.875a10.13 10.13 0 0 0-6.478 2.35.328.328 0 0 0-.022.484L19.29 18.5a.329.329 0 0 0 .233.097h.015a.327.327 0 0 0 .237-.118A10.118 10.118 0 0 0 12 1.875zm.829 9.234h5.28v1.782H14.61l-1.781-1.782zM17.3 7.406h.164a1.08 1.08 0 0 1 1.078 1.078.328.328 0 0 0 .328.329.512.512 0 0 1 .512.511v1.13H17.37a1.22 1.22 0 0 1-1.219-1.22.328.328 0 0 0-.327-.328H13.82a.598.598 0 0 1 0-1.195h.457a.328.328 0 0 0 .329-.328v-.715a1.183 1.183 0 0 1 2.367 0v.41a.328.328 0 0 0 .328.328zm2.081 3.703v1.782h-.617v-1.782h.617zm.113 6.668l-4.229-4.23h4.445a.328.328 0 0 0 .328-.328V9.324a1.17 1.17 0 0 0-.864-1.128 1.738 1.738 0 0 0-1.546-1.438v-.09a1.84 1.84 0 0 0-3.68 0v.386h-.129a1.254 1.254 0 0 0 0 2.508h1.705c.059.33.205.637.424.89h-3.777L6.223 4.505a9.463 9.463 0 0 1 13.273 13.273h-.001z"/><path d="M12 0a12 12 0 1 0 12 12A12.013 12.013 0 0 0 12 0zm0 23.344A11.344 11.344 0 1 1 23.344 12 11.357 11.357 0 0 1 12 23.344z"/><path d="M4.646 5.578a.335.335 0 0 0-.249-.096.328.328 0 0 0-.237.12A10.119 10.119 0 0 0 18.398 19.84a.327.327 0 0 0 .024-.486L4.646 5.578zm6.385 7.312H4.617v-1.781H9.25l1.782 1.781zM12 21.469A9.463 9.463 0 0 1 4.444 6.303l4.15 4.15H4.288a.328.328 0 0 0-.328.328v2.438a.328.328 0 0 0 .328.328h7.398l6.01 6.01A9.479 9.479 0 0 1 12 21.468z"/></g><defs><clipPath id="clip0"><path fill="#fff" d="M0 0h24v24H0z"/></clipPath></defs></svg>