<svg width="24" height="24" fill="none" xmlns="http://www.w3.org/2000/svg"><path d="M21.331 6.808a.67.67 0 0 0-.668.668v12.2a2.341 2.341 0 0 1-2.338 2.339H3.675a2.341 2.341 0 0 1-2.339-2.339V5.026c0-1.29 1.05-2.338 2.339-2.338h14.65a.668.668 0 1 0 0-1.337H3.675A3.68 3.68 0 0 0 0 5.026v14.65a3.679 3.679 0 0 0 3.675 3.675h14.65A3.679 3.679 0 0 0 22 19.676v-12.2a.668.668 0 0 0-.669-.668z" fill="#548FCC"/><path d="M23.804.845a.668.668 0 0 0-.944 0L9.435 14.269l-3.356-3.355a.668.668 0 1 0-.945.945l3.829 3.828a.666.666 0 0 0 .945-.002L23.804 1.79a.668.668 0 0 0 0-.945z" fill="#548FCC"/></svg>