<svg width="24" height="24" fill="none" xmlns="http://www.w3.org/2000/svg"><g clip-path="url(#clip0)" fill="#548FCC"><path d="M23.872 8.359A16.675 16.675 0 0 0 12 3.449c-4.49 0-8.706 1.743-11.872 4.91a.437.437 0 1 0 .618.618A15.806 15.806 0 0 1 12 4.322c4.256 0 8.253 1.653 11.254 4.654a.436.436 0 0 0 .618 0 .436.436 0 0 0 0-.617z"/><path d="M2.697 10.927a.437.437 0 1 0 .618.619c4.789-4.79 12.58-4.79 17.37 0a.437.437 0 1 0 .617-.619c-5.129-5.128-13.475-5.13-18.605 0z"/><path d="M12 10.712c-2.546 0-4.937.99-6.733 2.785a.437.437 0 1 0 .618.618A8.59 8.59 0 0 1 12 11.587a8.59 8.59 0 0 1 6.115 2.528.436.436 0 1 0 .618-.618A9.458 9.458 0 0 0 12 10.712zm0 4.113a2.867 2.867 0 0 0-2.863 2.863A2.867 2.867 0 0 0 12 20.552a2.867 2.867 0 0 0 2.864-2.864A2.867 2.867 0 0 0 12 14.825zm0 4.853a1.991 1.991 0 0 1-1.99-1.99c0-1.097.893-1.99 1.99-1.99s1.99.893 1.99 1.99-.893 1.99-1.99 1.99z"/></g><defs><clipPath id="clip0"><path fill="#fff" d="M0 0h24v24H0z"/></clipPath></defs></svg>