<svg xmlns="http://www.w3.org/2000/svg" width="32" height="32" fill="none"><path d="M21.701 18.826l-4.462-3.346V8.663A1.24 1.24 0 0016 7.424a1.24 1.24 0 00-1.239 1.239v7.436c0 .39.184.759.496.991l4.957 3.718a1.23 1.23 0 001.735-.249c.412-.547.3-1.324-.248-1.734z" fill="#fac269"/><path d="M16 0C7.177 0 0 7.177 0 16s7.177 16 16 16 16-7.177 16-16S24.823 0 16 0zm0 29.521C8.545 29.521 2.479 23.455 2.479 16S8.545 2.479 16 2.479A13.54 13.54 0 0129.521 16c0 7.455-6.067 13.521-13.521 13.521z" fill="#3f3474"/></svg>