<svg width="32" height="34" fill="none" xmlns="http://www.w3.org/2000/svg"><path d="M31.417 8.128v16.234l-4.292 8.657-.135.273-11.362-.75-4.367-.288-10.135-.671V12.168l10.135.283 4.533.13 11.47.323 4.153-4.776z" fill="#EC665C"/><path d="M32 3.818v5.668l-.583.928-1.04 1.66-.924 1.467-2.036 3.246-.05-.002L.231 15.39V9.798l.07-.076 3.24-3.506 1.172-1.27 2.12-2.294L32 3.818z" fill="#EC665C"/><path opacity=".1" d="M27.417 11.195v5.593L.23 15.39V9.798l.07-.075 27.116 1.472z" fill="#000"/><path opacity=".15" d="M32 3.818v5.668l-4.583 7.302v-5.593L32 3.818z" fill="#000"/><path d="M30.38 6.427l-.003 3.808v1.84l-.008 14.402-1.074 2.167.158-15.103.026-2.31v-.002l.037-3.41L3.54 6.216l1.173-1.27 25.666 1.48z" fill="#FAC269"/><path d="M17.63 6.611l-1.82 3.954-.016 2.016-.166 19.962-4.367-.289V10.302l2.33-3.69h4.04z" fill="#FAC269"/><path d="M11.638 6.88a5.785 5.785 0 01-3.257.114 1.3 1.3 0 01-.57-.26 1.48 1.48 0 01-.353-.7 5.543 5.543 0 01-.313-1.675 1.87 1.87 0 01.698-1.496 1.53 1.53 0 00.26-.197c.095-.124.164-.265.203-.417.32-.95.936-1.95 1.925-2.101.912-.14 1.745.496 2.447 1.095l1.543 1.3a2.437 2.437 0 014.544-.062A8.64 8.64 0 0122.199.124c.29-.11.634-.198.902-.034.166.12.29.289.36.482.419.92.646 1.915.668 2.926a.52.52 0 01.595.205c.12.195.188.417.198.646.042.353.063.708.063 1.063.035.377-.064.754-.279 1.064-.317.367-.86.406-1.345.417.234.208.12.624-.138.798-.276.148-.59.21-.902.174-1.202 0-2.48-.044-3.478-.712-.395-.26-.726-.614-1.121-.874-.97-.643-2.188-.674-3.309-.62-1.007.055-1.813.908-2.775 1.22z" fill="#FAC269"/><path d="M11.417 6.614S1.397 8.011 0 14.07l2.097-.31L3.57 16.4s1.561-5.902 6.137-7.302c4.575-1.4 6.214-1.63 6.214-1.63s3.184.78 6.058 10.02l1.631-2.253 2.861.621s-2.096-7.223-7.767-9.242h-7.288z" fill="#FAC269"/></svg>