<svg xmlns="http://www.w3.org/2000/svg" width="32" height="34" fill="none"><g fill="#ec665c"><path d="M31.417 8.128v16.234l-4.427 8.93-25.864-1.709V12.168l26.137.736 4.154-4.776z"/><path d="M32 3.818v5.668l-1.623 2.588-.924 1.467-2.037 3.246-.049-.003L.231 15.39V9.798l.07-.075 6.532-7.07L32 3.818z"/></g><g fill="#000"><path opacity=".1" d="M27.417 11.195v5.593L.231 15.391V9.798l.07-.075 27.115 1.472z"/><path opacity=".15" d="M32 3.818v5.668l-4.583 7.302v-5.593L32 3.818z"/></g><g fill="#fac269"><path d="M30.379 6.427l-.01 20.05-1.074 2.167.221-20.825L3.54 6.216l1.173-1.269 25.666 1.48z"/><path d="M17.631 6.611l-1.821 3.954-.182 21.978-4.367-.289V10.302l2.331-3.691h4.04z"/><path d="M11.638 6.88a5.787 5.787 0 01-3.257.114 1.3 1.3 0 01-.57-.26 1.48 1.48 0 01-.354-.7 5.533 5.533 0 01-.312-1.675 1.87 1.87 0 01.697-1.496 1.53 1.53 0 00.26-.198 1.13 1.13 0 00.203-.416C8.625 1.3 9.241.298 10.23.147c.913-.14 1.745.497 2.448 1.095l1.543 1.301A2.43 2.43 0 0116.472.956a2.44 2.44 0 012.294 1.524A8.64 8.64 0 0122.199.124c.291-.109.635-.198.903-.034.166.121.291.288.359.481.419.92.647 1.916.668 2.926a.52.52 0 01.596.205 1.35 1.35 0 01.198.645c.042.353.063.708.063 1.064a1.61 1.61 0 01-.278 1.064c-.317.367-.861.406-1.345.416.234.208.12.624-.138.799a1.546 1.546 0 01-.903.174c-1.202 0-2.479-.044-3.478-.713-.395-.26-.726-.614-1.121-.874-.97-.643-2.188-.674-3.309-.619-1.007.055-1.813.908-2.775 1.22z"/><path d="M11.417 6.614S1.397 8.011 0 14.069l2.097-.309 1.475 2.64s1.561-5.902 6.136-7.302 6.214-1.631 6.214-1.631 3.184.78 6.058 10.02l1.631-2.253 2.861.622s-2.096-7.224-7.767-9.242h-7.289z"/></g></svg>