<svg width="278" height="142" fill="none" xmlns="http://www.w3.org/2000/svg"><mask id="a" maskUnits="userSpaceOnUse" x="-77" y="-289" width="431" height="431"><circle cx="138.5" cy="-73.5" r="215.5" fill="#E38B6F"/></mask><g mask="url(#a)"><path d="M605-120.973h-721v307.611h721v-307.611z" fill="#F5C3A6"/><path opacity=".6" d="M602.258 61.859c-46.733-18.114-109.476-29.202-178.455-29.202-75.164 0-142.922 13.164-190.632 34.24-39.354-24.788-95.294-40.273-157.356-40.273-81.063 0-151.68 26.418-188.536 65.476v102.966h714.98V61.859h-.001z" fill="#F1A77E"/><path d="M107.021 14.942l37.274-9.681-13.396-51.577-37.274 9.682 13.396 51.576z" fill="#FCEDE5"/><path d="M112.307 15.556l1.377-2.563-9.652-5.182-1.376 2.563 9.651 5.182zM145.818-.836l-2.45-1.57-5.91 9.225 2.45 1.57 5.91-9.225z" fill="#F3A173"/><path opacity=".3" d="M208.027 1.397c17.991 0 32.576-14.585 32.576-32.577 0-17.991-14.585-32.576-32.576-32.576-17.992 0-32.577 14.585-32.577 32.576 0 17.992 14.585 32.577 32.577 32.577z" fill="#F1905B"/><path d="M232.406-11.342c12.721-12.722 12.721-33.349 0-46.07-12.722-12.722-33.348-12.722-46.07 0-12.722 12.721-12.722 33.348 0 46.07 12.722 12.721 33.348 12.721 46.07 0z" fill="#EB854C"/><path d="M229.951-13.797c11.366-11.366 11.366-29.795 0-41.16-11.366-11.367-29.794-11.367-41.16 0-11.367 11.365-11.367 29.794 0 41.16 11.366 11.366 29.794 11.366 41.16 0z" fill="#FCEDE5"/><g opacity=".5"><path opacity=".3" d="M96.903 128.909c21.132 0 38.264-1.37 38.264-3.061 0-1.69-17.132-3.061-38.264-3.061-21.133 0-38.264 1.371-38.264 3.061 0 1.691 17.131 3.061 38.264 3.061z" fill="#F1905B"/></g><path d="M35.27 6.741h5.38l-.755 9.086h-3.87l-.755-9.086z" fill="#F7CEB7"/><path opacity=".35" d="M35.27 6.741h5.38l-.069.823c-1.442-.133-3.396-.114-3.704.909-.376 1.253 1.34 2.298 3.427 2.43l-.27 3.238c-1.11.86-2.295 1.046-3.046.355-.671-.618-.878-.528-1.13-.676l-.588-7.08z" fill="#F7CEB7"/><path d="M25.387 20.665v-9.256h17.06c.677 0 1.264.47 1.411 1.13l1.824 8.127H25.387v-.001z" fill="#F7CEB7"/><path opacity=".35" d="M44.726 16.407c-1.597.032-3.572.057-5.839.057-4.388 0-6.041-3.18-6.636-5.056h-3.768c-.13.18-.271.372-.429.577-2.065 2.7-.826 1.842-.858 5.464-.03 3.482.47 1.06 5.056 3.214h13.43l-.956-4.256z" fill="#F7CEB7"/><path d="M25.051 20.665v-2.468h21.35a1.234 1.234 0 010 2.468H25.05z" fill="#F7CEB7"/><path d="M17.563 20.593h3.221V19.45h-3.22v1.143z" fill="#F08E57"/><path d="M19.74 20.665V4.36h11.234l2.542 16.305H19.74z" fill="#F7CEB7"/><path d="M30.522 5.158l.903 6.314v5.458c0 .568-.705.837-1.079.41-.916-1.045-2.453-2.21-4.762-2.21-2.056 0-3.315.866-4.066 1.748a.617.617 0 01-1.088-.379c-.124-3.837-.315-11.283.079-11.283.53 0 10.013-.058 10.013-.058z" fill="#F5B18B"/><path d="M21.383 11.521V6.303h8.555l.815 5.218h-9.37z" fill="url(#paint0_linear)"/><path d="M29.046 23.901a4.607 4.607 0 10-6.515-6.516 4.607 4.607 0 006.515 6.516z" fill="#F5B18B"/><path d="M27.998 21.001a2.232 2.232 0 10-4.407-.715 2.232 2.232 0 004.407.715z" fill="#F7CEB7"/><path d="M37.027 23.366a3.044 3.044 0 10-5.925-1.4 3.044 3.044 0 005.925 1.4z" fill="#F5B18B"/><path d="M35.539 22.776a1.475 1.475 0 10-2.94-.244 1.475 1.475 0 002.94.244z" fill="#F7CEB7"/><path d="M44.153 23.366a3.044 3.044 0 10-5.925-1.4 3.044 3.044 0 005.925 1.4z" fill="#F5B18B"/><path d="M42.65 22.889a1.475 1.475 0 10-2.912-.473 1.475 1.475 0 002.913.473zm2.49-2.399c.268.214 2.58 4.46 2.58 4.46h4.89l-5.483-6.503-2.258-.053.271 2.095z" fill="#F7CEB7"/><path d="M19.175 4.728h12.307a1.35 1.35 0 00-1.35-1.35h-9.61c-.744 0-1.347.604-1.347 1.35z" fill="#F5B18B"/><path d="M.137 20.595h17.767v-9.35H.137v9.35z" fill="#F7CEB7"/><path opacity=".35" d="M.138 13.34c1.529 2.29 4.422 5.473 9.412 5.473 4.9 0 7.218-3.362 8.354-5.98v7.762H.138V13.34z" fill="#F7CEB7"/><path d="M6.19 24.804A3.044 3.044 0 101.883 20.5a3.044 3.044 0 004.305 4.305z" fill="#F5B18B"/><path d="M5.498 22.89a1.475 1.475 0 10-2.912-.474 1.475 1.475 0 002.912.473z" fill="#F7CEB7"/><path d="M15.035 25.466a3.044 3.044 0 10-2.33-5.626 3.044 3.044 0 002.33 5.626z" fill="#F5B18B"/><path d="M15.325 22.89a1.475 1.475 0 10-2.913-.473 1.475 1.475 0 002.913.473z" fill="#F7CEB7"/><path d="M-.468 10.76H18.52a.775.775 0 01-.775.775H.307a.775.775 0 01-.775-.775z" fill="#F5B18B"/><path d="M-3.009 20.593H.212V19.45h-3.22v1.143z" fill="#F08E57"/><path d="M34.525 6.054h6.797a.775.775 0 01-.775.775H35.3a.775.775 0 01-.775-.775z" fill="#F5B18B"/><path d="M76.12 27.13h-189.863v87.664H76.119V27.13z" fill="#F6C5AA"/><path d="M74.123 28.724c-1.236 3.124-.6 35.613-27.812 33.53C19.1 60.172 12.896 36.43 12.896 36.43s-4.948 34.78 0 34.572c4.948-.208 62.67-.833 62.67-.833l-1.443-41.445z" fill="#F6C5AA"/><path d="M11.642 28.724c-1.236 3.124-2.474 37.487-29.686 35.405-27.212-2.083-31.54-27.7-31.54-27.7s-4.949 34.78 0 34.572c4.947-.208 62.67-.833 62.67-.833l-1.444-41.445zm62.466 42.487c-1.249 3.125-2.5 37.488-29.99 35.405-27.492-2.082-31.866-27.7-31.866-27.7s-4.999 34.781 0 34.573c4.999-.208 63.314-.833 63.314-.833l-1.458-41.445z" fill="#F6C5AA"/><path d="M-51.173 71.211c1.236 3.125 2.474 37.488 29.686 35.405 27.212-2.082 31.54-27.7 31.54-27.7s4.949 34.781 0 34.573c-4.947-.208-62.668-.833-62.668-.833l1.442-41.445z" fill="#F6C5AA"/><path d="M62.526 43.125H23.618v21.99h38.908v-21.99z" fill="#F08C55"/><path d="M25.107 42.421l5.357 25.234 4.229-25.516-9.586.282zm9.515 25.162l5.357-25.233 4.23 25.515-9.587-.282zm8.106-25.162l5.357 25.234 4.229-25.516-9.586.282zm9.515 25.162L57.6 42.35l4.23 25.515-9.587-.282z" fill="#FCEBE1"/><path opacity=".5" d="M62.526 62.565c-11.07.177-29.667-.488-31.706-7.337-2.365-7.937 20.455-7.982 31.706-7.832v-4.27H23.618v21.991h38.908v-2.553z" fill="#F7CEB7"/><path d="M63.91 69.067H22.234a1.386 1.386 0 01-1.387-1.386v-.898c0-.766.622-1.386 1.387-1.386H63.91c.766 0 1.386.621 1.386 1.386v.898a1.386 1.386 0 01-1.386 1.386z" fill="#F7CEB7"/><path d="M63.34 67.714H22.805c-1.083 0-1.96-.44-1.96-.98v1.353c0 .542.877.98 1.96.98h40.533c1.083 0 1.96-.44 1.96-.98v-1.354c0 .542-.879.981-1.96.981zm.57-21.918H22.234a1.386 1.386 0 01-1.387-1.386v-.899c0-.766.622-1.386 1.387-1.386H63.91c.766 0 1.386.621 1.386 1.386v.898a1.385 1.385 0 01-1.386 1.387z" fill="#F7CEB7"/><path d="M63.34 44.443H22.805c-1.083 0-1.96-.44-1.96-.981v1.353c0 .542.877.98 1.96.98h40.533c1.083 0 1.96-.439 1.96-.98v-1.353c0 .54-.879.98-1.96.98z" fill="#F7CEB7"/><path d="M76.12 68.923h-189.863v4.08H76.119v-4.08zm0-43.393H-116v4.08H76.12v-4.08zm0 84.813h-189.863v4.08H76.119v-4.08z" fill="#FCEDE5"/><path d="M76.17 114.417V26.138h-3.612v88.279h3.613zm-62.834-.001V27.142H9.724v87.274h3.612zm226.469 32.934h2.271a2.447 2.447 0 002.393-2.957l-7.326-34.334c-.42-1.968-2.268-3.612-4.061-3.612h-3.837c-1.793 0-2.807 1.644-2.229 3.612l10.443 35.534a2.445 2.445 0 002.346 1.757z" fill="#FCEDE5"/><path opacity=".35" d="M237.143 110.059c-.42-1.968-2.268-3.612-4.061-3.612h-3.837c-1.793 0-2.807 1.644-2.229 3.612l2.073 7.052c2.103-2.921 5.852-4.276 8.514-4.894l-.46-2.158z" fill="#F2AC85"/><path d="M200.745 147.35h-2.271a2.447 2.447 0 01-2.392-2.957l7.325-34.334c.421-1.968 2.268-3.612 4.061-3.612h3.837c1.793 0 2.807 1.644 2.229 3.612l-10.442 35.534a2.444 2.444 0 01-2.347 1.757z" fill="#F8D7C4"/><path opacity=".35" d="M212.141 114.803l1.394-4.744c.578-1.968-.436-3.612-2.228-3.612h-3.838c-1.793 0-3.641 1.644-4.061 3.612l-2.034 9.534c3.357-2.902 7.257-4.221 10.767-4.79z" fill="#ED905D"/><path opacity=".35" d="M211.305 106.447h-3.837c-1.793 0-3.642 1.644-4.061 3.612l-.215 1.004c2.586.158 5.635.679 6.864 2.132.863 1.019 1.258 2.467 1.419 3.864l2.058-7c.58-1.968-.434-3.612-2.228-3.612z" fill="#F2AC85"/><path d="M204.564 64.986h7.83l.01 38.356c0 1.406-1.127 2.547-2.479 2.547h-2.892c-1.352 0-2.479-1.141-2.479-2.547l.01-38.356z" fill="#F2AC85"/><path opacity=".35" d="M206.749 85.867c.054-3.792 3.355-4.371 5.649-4.316l-.003-9.742c-1.147.041-2.743.342-6.146.342-.631 0-1.187.007-1.687.024l-.008 31.165c0 1.407 1.129 2.548 2.479 2.548h2.892c1.352 0 2.479-1.141 2.479-2.548l-.001-2.681c-6.724-2.028-5.726-9.77-5.654-14.793z" fill="#F2AC85"/><path d="M185.448 64.986h7.83l.01 38.356c0 1.406-1.127 2.547-2.479 2.547h-2.892c-1.352 0-2.479-1.141-2.479-2.547l.01-38.356z" fill="#F8D7C4"/><path opacity=".35" d="M187.632 85.867c.055-3.792 3.356-4.371 5.649-4.316l-.002-9.742c-1.148.041-2.743.342-6.146.342-.632 0-1.187.007-1.688.024l-.007 31.165c0 1.407 1.128 2.548 2.479 2.548h2.892c1.352 0 2.479-1.141 2.479-2.548l-.002-2.681c-6.725-2.028-5.725-9.77-5.654-14.793z" fill="#F2AC85"/><path d="M181.319 147.35h-2.27a2.447 2.447 0 01-2.393-2.957l7.325-34.334c.421-1.968 2.268-3.612 4.061-3.612h3.838c1.793 0 2.807 1.644 2.228 3.612l-10.442 35.534a2.446 2.446 0 01-2.347 1.757z" fill="#FCEDE5"/><path opacity=".35" d="M193.096 113.505l1.012-3.446c.578-1.968-.436-3.612-2.228-3.612h-3.388c-.629.111-1.28.231-1.943.361-1.226.589-2.265 1.836-2.567 3.251l-2.026 9.497c3.739-4.24 8.235-5.551 11.14-6.051z" fill="#F2AC85"/><path d="M235.137 108.098h-51.384v3.542h51.384v-3.542z" fill="#F2AC85"/><path d="M235.137 108.098h-51.384v3.542h51.384v-3.542z" fill="#FCEDE5"/><path d="M220.45 147.35h2.271a2.447 2.447 0 002.392-2.957l-7.325-34.334c-.421-1.968-2.268-3.612-4.061-3.612h-3.837c-1.793 0-2.807 1.644-2.229 3.612l10.442 35.534a2.446 2.446 0 002.347 1.757z" fill="#FCEDE5"/><path opacity=".35" d="M217.788 110.059c-.421-1.968-2.268-3.612-4.061-3.612h-3.837c-1.793 0-2.807 1.644-2.229 3.612l2.435 8.285c2.082-3.001 5.893-4.21 8.451-4.725l-.759-3.56z" fill="#F2AC85"/><path d="M243.025 109.31h-59.923a3.875 3.875 0 010-7.751h59.923a3.876 3.876 0 110 7.751z" fill="#EB864E"/><path d="M181.39 101.964c0 1.965 14.165 3.557 31.638 3.557 17.473 0 31.638-1.592 31.638-3.557-4.449-2.43-14.165-3.556-31.638-3.556-17.473-.002-31.638 1.592-31.638 3.556z" fill="#EF9A6B"/><path d="M210.963 109.31h-27.861a3.875 3.875 0 010-7.751h27.861a3.876 3.876 0 110 7.751z" fill="#F6B896"/><path d="M220.127 53.98h-40.931a4.457 4.457 0 00-4.39 5.223l2.943 16.85a4.456 4.456 0 004.39 3.69h33.979a5.78 5.78 0 005.693-4.784l2.744-15.71a4.495 4.495 0 00-4.428-5.27z" fill="#EF9A6B"/><path opacity=".35" d="M218.607 79.179c-10.93-.45-27.53-1.685-33.194-5.067-5.497-3.284-6.659-13.117-6.889-20.082a4.457 4.457 0 00-3.718 5.172l2.943 16.85a4.456 4.456 0 004.39 3.69h33.979a5.742 5.742 0 002.489-.563z" fill="#EB864E"/><path d="M261.033 146.847h-2.381a2.564 2.564 0 01-2.508-3.099l13.981-46.076c.441-2.063 2.377-3.786 4.258-3.786h4.021c1.879 0 2.943 1.723 2.337 3.786l-17.249 47.334a2.562 2.562 0 01-2.459 1.841z" fill="#FCEDE5"/><path opacity=".35" d="M270.126 97.671c.441-2.064 2.377-3.787 4.258-3.787h4.022c1.879 0 2.942 1.724 2.336 3.787l-2.58 7.083c-2.417-2.623-6.007-3.976-8.77-4.664l.734-2.419z" fill="#F2AC85"/><path d="M250.727 87.316s49.368 1.904 62.39 2.157c1.404-.012 2.822-.022 4.251-.03 11.153-.35 78.81-2.127 78.81-2.127v6.524h-.005c-.424 2.387-32.819 4.316-72.72 4.316-39.89 0-72.278-1.926-72.72-4.314l-.005-.002c-.175-.276-.001-6.524-.001-6.524z" fill="#F2AC85"/><path d="M250.727 87.316s49.368 1.904 62.39 2.157c1.404-.012 2.822-.022 4.251-.03 11.153-.35 78.81-2.127 78.81-2.127v6.524h-.005c-.424 2.387-32.819 4.316-72.72 4.316-39.89 0-72.278-1.926-72.72-4.314l-.005-.002c-.175-.276-.001-6.524-.001-6.524z" fill="#F8D7C4"/><path d="M323.454 91.68c40.164 0 72.725-1.954 72.725-4.364s-32.561-4.363-72.725-4.363c-40.165 0-72.725 1.953-72.725 4.363s32.56 4.364 72.725 4.364z" fill="#FEF6F2"/><path d="M269.733 89.137h40.838l-3.257-4.27H272.99l-3.257 4.27z" fill="#F8D7C4"/><path opacity=".2" d="M218.717 97.658s5.425 1.075 6.452 2.151c1.027 1.075-3.177 7.283-7.332 7.478-4.155.196-5.669-1.956-9.335-2.835-3.666-.879-4.301 3.324-9.433 2.737-5.132-.587-9.727-4.741-6.94-6.598 2.786-1.858 5.991-2.63 9.081-2.855 3.09-.225 9.443-.371 12.621-.176 3.178.196 4.886.098 4.886.098z" fill="#F6B896"/><path d="M199.765 80.44s-13.852 9.288-13.192 12.522c.661 3.234 6.858 4.185 10.288-2.568 2.567-6.235 2.904-9.953 2.904-9.953z" fill="#F5B18B"/><path d="M193.065 91.44a1.64 1.64 0 10-3.184-.79 1.64 1.64 0 003.184.79zm-4.644.823c-.413.297-.83.424-.931.283-.102-.14.151-.497.564-.794.413-.297.829-.424.931-.283.102.14-.151.497-.564.794zm1.058 1.203c-.357.362-.747.557-.872.435-.123-.122.067-.515.424-.876.357-.362.747-.556.871-.434.123.122-.066.513-.423.875zm1.47.644c-.213.46-.515.775-.672.703-.158-.072-.112-.506.102-.968.213-.462.514-.777.672-.704.157.073.112.507-.102.968z" fill="#F29B6B"/><path opacity=".35" d="M186.637 92.207c-.084.277-.111.531-.065.755.661 3.233 6.858 4.185 10.287-2.568a51.738 51.738 0 002.043-5.875c-1.583 3.48-5.279 9.163-12.265 7.688z" fill="#F29B6B"/><path d="M215.367 79.23s15.184 6.9 15.061 10.198c-.123 3.299-6.082 5.249-10.568-.853-3.554-5.731-4.493-9.345-4.493-9.345z" fill="#F5B18B"/><path d="M223.772 88.987a1.642 1.642 0 113.016-1.297 1.642 1.642 0 01-3.016 1.297zm4.717.053c.456.227.888.284.965.129.078-.155-.229-.465-.686-.691-.456-.227-.888-.284-.965-.129-.077.155.23.465.686.692zm-.847 1.36c.411.299.828.427.93.286.101-.141-.149-.497-.562-.795-.413-.299-.828-.427-.93-.286-.1.14.15.496.562.795zm-1.346.874c.286.421.634.683.778.585.143-.098.028-.517-.258-.938-.286-.42-.634-.682-.778-.584-.144.097-.028.517.258.937z" fill="#F29B6B"/><path opacity=".35" d="M230.24 88.694c.128.259.196.505.187.734-.123 3.299-6.083 5.25-10.568-.852a52.24 52.24 0 01-2.976-5.462c2.131 3.173 6.706 8.176 13.357 5.58z" fill="#F29B6B"/><path d="M217.459 80.999c-1.46-1.98-9.058-5.994-9.058-5.994l-1.523.018-.009-.069-.264.072-.275.003.009.069-1.471.395s-6.225 5.922-7.094 8.224c-.85 2.25-7.003 20.428 12.269 18.04v.004c.083-.011.164-.024.247-.036l.246-.033v-.003c19.197-2.924 8.351-18.755 6.923-20.69z" fill="#F5B18B"/><path d="M217.027 96.992c-.468-5.545-4.64-9.722-9.322-9.326-4.681.394-8.097 5.21-7.63 10.754.064.761.198 1.497.394 2.199 2.114 1.158 5.186 1.682 9.574 1.138v.004l.247-.036c.083-.01.164-.021.246-.033v-.004c2.684-.409 4.781-1.069 6.398-1.91a11.86 11.86 0 00.093-2.786z" fill="#F7CFB9"/><path opacity=".3" d="M221.168 95.483c-1.689 1.83-4.571 3.286-9.2 3.99v.005c-.082.011-.165.021-.246.033l-.247.035v-.004c-19.206 2.379-13.161-15.665-12.278-18.016-.681.853-1.211 1.629-1.423 2.19-.85 2.25-7.003 20.429 12.269 18.041v.004l.247-.036.246-.033v-.003c6.379-.971 9.44-3.368 10.632-6.206z" fill="#F29B6B"/><path opacity=".5" d="M204.868 75.493s-4.179 4.221-7.43 6.562c2.335 1.719 6.656 2.108 10.454 1.584 3.733-.516 7.022-1.212 8.825-3.409-2.392-2.095-8.314-5.225-8.314-5.225l-1.524.018-.009-.064v-.003l-.264.07-.274.005.009.068-1.473.394z" fill="#F29B6B"/><path d="M217.769 64.114a4.116 4.116 0 10-7.75-2.774 4.116 4.116 0 007.75 2.774z" fill="#F5B18B"/><path d="M212.312 61.353s2.473-2.156 4.729.351c-.934-.54-4.729-.35-4.729-.35z" fill="#F29B6B"/><path d="M212.964 60.996s3.191-.76 4.024 2.507c-.575-.91-4.024-2.507-4.024-2.507z" fill="#F29B6B"/><path opacity=".35" d="M210.415 60.498a4.117 4.117 0 107.547 1.65 4.326 4.326 0 00-.112-.538c-2.868.75-5.698-.245-7.435-1.112z" fill="#F29B6B"/><path d="M199.37 67.448a4.116 4.116 0 10-6.875-4.527 4.116 4.116 0 006.875 4.527z" fill="#F5B18B"/><path d="M197.081 63.456s-2.964-1.405-4.457 1.619c.754-.774 4.457-1.619 4.457-1.619z" fill="#F29B6B"/><path d="M196.357 63.29s-3.278.132-3.195 3.504c.308-1.034 3.195-3.504 3.195-3.504z" fill="#F29B6B"/><path opacity=".35" d="M198.675 62.12a4.117 4.117 0 11-6.855 3.085c2.964-.055 5.419-1.782 6.855-3.085z" fill="#F29B6B"/><path d="M217.234 68.708c-1.294-5.234-4.219-8.836-12.467-7.698-9.466 1.308-10.087 5.4-9.914 10.788.34 10.553 5.903 10.588 12.735 9.645 6.831-.944 12.177-2.485 9.646-12.735z" fill="#F5B18B"/><path opacity=".35" d="M207.156 78.319c-5.832.805-10.74.896-12.263-5.663.611 9.695 6.054 9.704 12.694 8.787 6.64-.916 11.877-2.4 9.839-11.898.312 6.726-4.436 7.968-10.27 8.774z" fill="#F29B6B"/><path d="M212.489 77.315c-.414-3-3.023-5.333-6.023-4.918-3 .414-5.254 3.419-4.839 6.417.414 3 2.908 3.114 5.908 2.7 2.999-.414 5.368-1.199 4.954-4.199z" fill="#F7CFB9"/><path opacity=".35" d="M207.293 79.774c-2.688.37-4.969.316-5.712-1.858a5.23 5.23 0 00.044.9c.414 3 2.909 3.113 5.909 2.698 3-.414 5.369-1.199 4.955-4.198a6.188 6.188 0 00-.198-.907c-.108 2.318-2.296 2.992-4.998 3.365z" fill="#F7CFB9"/><path d="M208.375 72.611c-.158-1.138-1.052-.81-2.192-.653-1.138.158-2.09.083-1.932 1.222a2.082 2.082 0 104.124-.569zm1.065-2.799c-.088-.64-.554-1.102-1.041-1.036-.486.068-.809.64-.722 1.279.088.639.554 1.101 1.041 1.035.487-.066.811-.639.722-1.278z" fill="#F08C55"/><path d="M199.374 67.766s1.087-2.577 3.925-1.832c-1.534.243-3.925 1.832-3.925 1.832zm11.819-1.091s-1.997-1.96-4.328-.178c1.508-.367 4.328.178 4.328.178z" fill="#F29B6B"/><path d="M203.569 77.556s.027-.003.085-.005l.225-.008a17.96 17.96 0 001.323-.096c.187-.019.383-.05.583-.081.201-.033.408-.071.615-.12.209-.044.417-.102.624-.165l.308-.099c.1-.038.202-.071.3-.112.097-.04.195-.078.288-.124.095-.042.188-.085.276-.132l.133-.069.127-.074c.085-.045.165-.096.243-.147.079-.048.152-.1.221-.153.071-.049.14-.099.201-.15.128-.1.236-.201.335-.29.094-.09.176-.174.243-.242.126-.143.201-.225.201-.225l.078.054s-.055.096-.16.265c-.057.08-.125.18-.212.287l-.143.168c-.05.06-.112.115-.171.175a2.54 2.54 0 01-.195.182c-.07.061-.143.122-.223.18-.077.059-.159.12-.245.175l-.131.085-.137.08a5.88 5.88 0 01-1.229.521 7.7 7.7 0 01-1.906.306 8.07 8.07 0 01-1.352-.052c-.096-.01-.173-.023-.223-.03a.705.705 0 00-.074-.01l-.008-.094z" fill="#F08C55"/><path d="M203.61 78.079a.096.096 0 01-.09-.065c-.121-.357.008-.77.014-.788a.094.094 0 11.179.057c-.002.004-.116.373-.016.67a.094.094 0 01-.059.12.067.067 0 01-.028.006z" fill="#F08C55"/><path d="M210.05 75.72a.095.095 0 01-.091-.07c-.089-.302-.393-.537-.396-.54a.093.093 0 01-.018-.132.094.094 0 01.132-.017c.014.011.359.275.464.636a.093.093 0 01-.063.117.08.08 0 01-.028.005z" fill="#F1935F"/><path d="M204.026 70.56c-.088-.639-.554-1.101-1.041-1.035-.487.067-.81.639-.722 1.278.088.64.554 1.102 1.041 1.035.486-.067.809-.64.722-1.278z" fill="#F08C55"/><path d="M202.93 70.085a.244.244 0 00-.483.066.244.244 0 00.275.209.243.243 0 00.208-.275zm5.452-.753a.243.243 0 10-.482.066.243.243 0 00.482-.066zm-3.24 3.28a.244.244 0 10-.483.066.244.244 0 00.483-.066z" fill="#F2DCD0"/><path d="M204.524 101.146a5.13 5.13 0 10-10.128-1.645 5.13 5.13 0 0010.128 1.645z" fill="#F5B18B"/><path d="M200.904 102.66a2.386 2.386 0 10-3.374-3.375 2.386 2.386 0 003.374 3.375zm-4.022-3.722a.897.897 0 10-1.793-.002.897.897 0 001.793.001zm2.588-1.757a.897.897 0 10-1.793 0 .897.897 0 001.793 0zm2.634.554a.897.897 0 10-1.793 0 .897.897 0 001.793 0z" fill="#F7CFB9"/><path d="M220.717 103.953a5.13 5.13 0 10-7.255-7.256 5.13 5.13 0 007.255 7.256z" fill="#F5B18B"/><path d="M219.008 102.66a2.386 2.386 0 10-3.375-3.375 2.386 2.386 0 003.375 3.375zm.655-3.722a.897.897 0 111.794 0 .897.897 0 01-1.794 0zm-2.59-1.757a.897.897 0 111.795.001.897.897 0 01-1.795 0zm-2.633.554a.897.897 0 111.793 0 .897.897 0 01-1.793 0z" fill="#F7CFB9"/><path d="M140.166 45.807a4.51 4.51 0 01-5.669-.048c-7.06-5.772-17.425-6.051-24.846-.135-6.81 5.43-9.083 14.442-6.277 22.203 1.233 3.407.12 7.221-2.712 9.48l-1.736 1.383a8.377 8.377 0 0010.443 13.099l41.239-32.882a3.992 3.992 0 00.633-5.61l-5.467-6.855a3.987 3.987 0 00-5.608-.635z" fill="#EB854C"/><path d="M109.37 91.787l41.239-32.881a3.992 3.992 0 00.633-5.61l-.881-1.104c-.667 1.939-1.512 3.597-2.088 3.91-1.266.69-5.409-3.165-10.897 1.21-5.486 4.374-2.08 11.595-4.367 13.419l-9.015 7.188c-1.175.937-7.066-3.77-12.53.587-5.463 4.357-1.695 7.975-5.808 11.256-2.556 2.038-6.934-1.414-9.883-4.32a8.34 8.34 0 001.825 5.02 8.38 8.38 0 0011.772 1.325z" fill="#F5B089"/><path d="M110.246 68.715c-4.797-6.016-3.808-14.781 2.207-19.578 6.017-4.796 14.781-3.808 19.578 2.207l-21.785 17.371z" fill="url(#paint1_linear)"/><path d="M111.922 47.297l-1.155.92 10.631 13.335 1.155-.92-10.631-13.335z" fill="#EB854C"/><path d="M118.824 93.31a7.892 7.892 0 10-3.407-15.41 7.892 7.892 0 003.407 15.41z" fill="#F1935F"/><path d="M119.289 87.769a3.062 3.062 0 10-4.33-4.33 3.062 3.062 0 004.33 4.33z" fill="#F4BA99"/><path d="M144.475 72.755a7.891 7.891 0 006.188-9.287 7.893 7.893 0 10-6.188 9.287z" fill="#F08C55"/><path d="M145.64 66.493a3.063 3.063 0 10-5.374-2.941 3.063 3.063 0 005.374 2.941z" fill="#F4BA99"/><path d="M145.988 46.705l-2.167 1.727a1.45 1.45 0 00-.23 2.037l1.322 1.657a1.45 1.45 0 002.037.23l2.166-1.727-3.128-3.924z" fill="#F4AD85"/><path d="M112.858 100.175a7.876 7.876 0 10-11.139-11.139 7.876 7.876 0 1011.139 11.139z" fill="#F1935F"/><path opacity=".28" d="M118.213 68.675c-.003-.005-.004-.01-.006-.017a21.247 21.247 0 00-.394-.983l-.036-.083a22.366 22.366 0 00-.191-.424l-.035-.078a23.854 23.854 0 00-.221-.457 18.73 18.73 0 00-.82-1.477l-.087-.14c-.066-.106-.134-.212-.202-.318l-.107-.163a24.378 24.378 0 00-.198-.293l-.117-.168a13.68 13.68 0 00-.206-.286c-.04-.055-.079-.11-.12-.164-.075-.1-.152-.2-.23-.301l-.106-.139a25.97 25.97 0 00-.35-.432l-.002-.004a19.934 19.934 0 00-9.868-6.426l-.018-.006a19.102 19.102 0 00-1.932-.446c-7.34 11.737.346 27.928.346 27.928s-4.65 5.944-8.335 11.058a20.088 20.088 0 004.333.547h.056c.143 0 .287.002.43 0h.08c.135-.002.271-.006.407-.01l.097-.003c.131-.005.26-.011.391-.018l.109-.006.378-.027.118-.01a38.436 38.436 0 00.423-.04l.004-.002a19.712 19.712 0 0010.507-4.474 19.767 19.767 0 003.822-4.262l.019-.029.21-.324v-.001c3.306-5.219 3.981-11.727 1.851-17.522z" fill="#ED925E"/><path d="M97.944 83.811c8.428-7.029 9.536-19.592 2.474-28.06-7.062-8.468-19.62-9.634-28.049-2.605-8.428 7.03-9.536 19.593-2.474 28.06 7.062 8.468 19.62 9.635 28.049 2.605z" fill="#FCEDE5"/><path d="M85.556 79.531l-3.216-6.915a.155.155 0 00-.135-.089l-7.899-.214a.154.154 0 00-.156.13l-.936 6.526a.15.15 0 00.037.124c.431.48 3.73 4.052 6.79 4.577a.182.182 0 00.052 0c.495-.08 4.213-1.1 5.463-4.014a.147.147 0 000-.125zM71.192 65.08c.181-2.456 3.573-6.415 4.067-6.98a.154.154 0 00.028-.154c-.214-.572-1.427-3.798-1.57-3.788-.724.05-3.222 1.692-4.872 2.83a.144.144 0 00-.04.039 19.714 19.714 0 00-1.67 2.882.15.15 0 00-.013.053c-.106 1.241-.196 2.921-.115 4.522a.153.153 0 00.154.145c.981.005 3.186.449 3.849.59a.154.154 0 00.182-.139zM91.21 49.532a19.979 19.979 0 00-11.144-.337c-.182.047-.136.315.05.302 4.281-.309 7.422.574 7.778.68a.162.162 0 00.07.004l3.25-.585-.005-.063zm8.928 6.335c.093.963.197 2.167.216 2.391.002.024.01.047.023.067.248.392 2.756 4.338 3.547 5.288.097.117.196.227.297.331.108.113.298.01.26-.142a19.96 19.96 0 00-4.075-8.048c-.097-.113-.282-.035-.268.113zm1.849 23.336l1.023-6.573a.168.168 0 00-.163-.19l-4.311-.078a.146.146 0 00-.137.085c-.33.723-2.686 5.769-4.587 6.86-.074.041-.094.138-.047.214 1.311 2.088 2.142 3.334 1.968 3.757-.056.136.002.205.238.09l5.57-3.491c.154-.223.302-.446.446-.674zM87.45 87.995c-1.426-.444-3.632-1.03-4.992-1.032l-.019.001c-1.112.126-2.094.24-2.846.327-.165.019-.186.253-.027.3 2.547.753 5.22.993 7.855.705.167-.02.188-.252.03-.301zM69.81 81.12l-.53-2.49-3.008-3.876a19.97 19.97 0 003.537 6.365zm25.235-15.797c.279-.566 1.772-3.771 1.543-6.849a.16.16 0 00-.062-.113c-5.591-4.151-5.25-3.917-7.151-4.686a.157.157 0 00-.108-.004c-.502.175-3.976 1.517-5.947 4.253a.154.154 0 00-.01.163c2.617 4.926 3.22 6.625 3.344 7.032.02.064.078.107.144.109l8.106.18a.15.15 0 00.141-.085z" fill="#F08C55"/><path opacity=".6" d="M87.104 70.338c-10.516 0-16.7-5.019-20.222-9.87a19.974 19.974 0 003.005 20.748 19.945 19.945 0 0010.978 6.713 203.433 203.433 0 017.689.21 19.7 19.7 0 009.38-4.318c6.124-5.108 8.382-13.139 6.449-20.397-3.72 3.778-9.205 6.914-17.28 6.914z" fill="#FCEBE1"/><path d="M131.457 78.523H63.658l6.033 43.304a5.626 5.626 0 005.572 4.849h44.59a5.626 5.626 0 005.572-4.849l6.032-43.304z" fill="#F7CEB7"/><path opacity=".4" d="M97.98 118.54c-16.152 0-26.355-13.056-32.112-24.159l3.823 27.445a5.625 5.625 0 005.572 4.848h44.59a5.625 5.625 0 005.572-4.848l2.565-18.414c-7.533 8.005-17.697 15.128-30.01 15.128z" fill="#F7CEB7"/><path d="M64.66 85.716h65.795l1.002-7.193H63.658l1.002 7.194z" fill="#F7CEB7"/><path d="M132.776 83.146H62.34a2.148 2.148 0 01-2.148-2.149V76.05c0-1.186.962-2.148 2.148-2.148h70.436c1.186 0 2.148.962 2.148 2.148v4.948a2.148 2.148 0 01-2.148 2.15z" fill="#F2DCD0"/><path d="M104.492 92.877h-13.87a6.165 6.165 0 00-6.165 6.165h26.201a6.165 6.165 0 00-6.166-6.165z" fill="#ED8E59"/><path d="M9.388 119.648H-21.37a1.983 1.983 0 00-1.984 1.983v18.814c0 1.096.888 1.984 1.984 1.984H9.388a1.984 1.984 0 001.983-1.984v-18.814a1.984 1.984 0 00-1.983-1.983z" fill="#F4AC83"/><path d="M.737 125.302l-.008-.203c.636-.572 1.265-.946 1.889-1.12.843.298 1.5.62 1.973.968.75.567 1.173 1.309 1.267 2.227.098.967-.26 2.166-1.071 3.596.274.256.507.486.698.688.192.204.34.387.441.549.265.407.424.872.477 1.398.06.587.043 1.053-.05 1.396-.095.343-.3.686-.616 1.027-.663.723-1.206 1.105-1.629 1.149-.432.044-1.154-.112-2.165-.467l-.02-.183c.269-.311.491-.588.668-.828.177-.24.305-.433.384-.577a2.02 2.02 0 00.296-1.254 1.968 1.968 0 00-.248-.736 4.38 4.38 0 00-.504-.728 5.764 5.764 0 00-1.227-1.08l.003-.222c.517-.473.892-.944 1.127-1.413.307-.6.42-1.292.34-2.075-.116-1.137-.791-1.841-2.025-2.112z" fill="#ED8E59"/><path d="M153.328 154.145c9.378-9.378 9.378-24.581 0-33.959-9.377-9.377-24.581-9.377-33.958 0-9.378 9.378-9.378 24.581 0 33.959 9.377 9.377 24.581 9.377 33.958 0z" fill="#F6B794"/><path d="M136.524 142.932c-5.941-8.455-10.678-17.081-14.108-25.323-10.045 7.143-13.127 20.909-6.761 31.731 6.724 11.43 21.442 15.246 32.873 8.522l.042-.025c-4.164-4.473-8.222-9.464-12.046-14.905z" fill="#F2DCD0"/><path d="M133.543 143.164c-5.802-8.255-10.039-16.733-12.535-24.473-8.913 7.385-11.412 20.35-5.353 30.649 6.423 10.92 20.14 14.888 31.319 9.361-4.651-4.323-9.234-9.565-13.431-15.537z" fill="#F4AC83"/><path opacity=".3" d="M145.214 140.145c-11.169 6.571-25.473 3.078-32.396-7.747a23.92 23.92 0 002.836 16.943c6.724 11.431 21.442 15.246 32.872 8.522 11.431-6.724 15.247-21.442 8.523-32.873a23.866 23.866 0 00-.478-.773c-1.306 6.444-5.241 12.331-11.357 15.928z" fill="#F1905B"/><path d="M16.796 75.624l-2.568 2.145a1.475 1.475 0 00-.037 2.23l11.461 10.245 1.387-1.158-8.04-13.101a1.475 1.475 0 00-2.203-.361z" fill="#F7CEB7"/><path d="M24.64 88.846c.729-.309 1.345-.506 1.835-.676l-4.654-7.586c-4.253 1.116-6.413-1.258-7.424-2.957l-.17.142a1.475 1.475 0 00-.036 2.23l10.09 9.019c.116-.061.235-.12.36-.172z" fill="#F7CEB7"/><path d="M22.9 81.613l-3.864 3.23a1.197 1.197 0 00-.124 1.718l1.573 1.754a1.2 1.2 0 001.66.12l3.737-3.123a1.197 1.197 0 00.178-1.654l-1.445-1.86a1.199 1.199 0 00-1.714-.185z" fill="#F6B794"/><path d="M26.34 82.607l-6.94 5.796a.981.981 0 00-.31 1.03l1.261 4.274 11.04-9.22-3.982-2.003a.984.984 0 00-1.07.123z" fill="#FDF0E9"/><path d="M30.415 83.996c-5.922 6.58-8.712 5.146-9.908 3.484l-1.104.922a.98.98 0 00-.311 1.03l1.261 4.275 11.04-9.22-.978-.491z" fill="#FDF0E9"/><path d="M34.152 96.401l-2.568 2.145c-.69.577 1.976 3.78 4.324 5.699l7.689 6.285.21-.176-4.816-8.685c-1.471-2.65-4.149-5.845-4.839-5.268z" fill="#F7CEB7"/><path d="M34.46 107.381c1.236 1.347 3.911 1.017 6.046-.764 2.133-1.783 2.932-4.357 1.828-5.813l-7.874 6.577z" fill="#EB8146"/><path opacity=".35" d="M34.46 107.381c1.236 1.347 3.911 1.017 6.046-.764 2.133-1.783 2.932-4.357 1.828-5.813l-7.874 6.577z" fill="#EB8146"/><path d="M31.904 83.45L19.239 94.028a2.366 2.366 0 00-.837 2.055l1.221 12.022 26.063-21.771-11.61-3.342a2.368 2.368 0 00-2.172.458z" fill="#F3A173"/><path d="M20.625 107.646c3.836 4.179 12.139 3.16 18.76-2.371 6.621-5.53 9.102-13.518 5.672-18.038l-24.432 20.409z" fill="#EB8146"/><path opacity=".35" d="M36.344 101.635c-4.616 3.856-10.048 5.518-14.214 4.756l-1.503 1.255c3.836 4.179 12.138 3.16 18.76-2.371 6.62-5.53 9.101-13.518 5.672-18.038l-1.504 1.256c.008 4.236-2.594 9.285-7.21 13.142z" fill="#EB8146"/><path d="M19.22 104.128l22.625-18.9-1.001-.288-21.73 18.151.106 1.037z" fill="#FDF0E9"/><path opacity=".35" d="M45.688 86.334l-7.856-2.26c-.489 3.28-2.255 7.04-6.639 10.7-5.963 4.982-9.974 5.259-12.485 4.312l.916 9.019 26.064-21.771z" fill="#F3A173"/><path d="M46.635 86.555l-26.961 22.522a.879.879 0 01-1.127-1.348l26.961-22.522a.879.879 0 111.127 1.348z" fill="#F7CEB7"/><path d="M292.739 149.613l-13.921-13.921-13.921 13.921h27.842z" fill="#EB854C"/><path d="M505.153-86.478H273.227a2.953 2.953 0 00-2.953 2.953V41.247h237.832V-83.525a2.953 2.953 0 00-2.953-2.953z" fill="#FCEDE5"/><path d="M503.191-82.902H275.188V37.67h228.003V-82.902z" fill="#F6C5AA"/><path d="M501.349-81.127H277.033V35.895h224.316V-81.127z" fill="#F6C5AA"/><path d="M514.029 45.67H264.258a2.019 2.019 0 01-2.019-2.02v-2.578a2.02 2.02 0 012.019-2.019H514.03a2.02 2.02 0 012.019 2.02v2.578a2.02 2.02 0 01-2.02 2.019z" fill="#FCEDE5"/></g><defs><linearGradient id="paint0_linear" x1="26.067" y1="24.208" x2="26.067" y2="-16.553" gradientUnits="userSpaceOnUse"><stop offset=".001" stop-color="#F2DCD0"/><stop offset="1" stop-color="#F5C0A3"/></linearGradient><linearGradient id="paint1_linear" x1="147.338" y1="92.89" x2="108.4" y2="44.053" gradientUnits="userSpaceOnUse"><stop offset=".001" stop-color="#F2DCD0"/><stop offset="1" stop-color="#F5C0A3"/></linearGradient></defs></svg>