<svg width="279" height="142" fill="none" xmlns="http://www.w3.org/2000/svg"><mask id="a" maskUnits="userSpaceOnUse" x="-76" y="-289" width="431" height="431"><circle cx="139.5" cy="-73.5" r="215.5" fill="#0FC1A4"/></mask><g mask="url(#a)"><path d="M279-14.744H-.406v188.309H279v-188.31z" fill="#9CAFDF"/><path d="M265.128 8.232H114.629v86.966h150.499V8.232z" fill="#DBE0EF"/><path d="M258.964 14.092H120.8v74.942h138.164V14.092z" fill="#ECEFF7"/><path d="M278.696 132.517H-.71v4.628h279.406v-4.628z" fill="#DBE0EF"/><path d="M278.696 137.145H-.71v55.819h279.406v-55.819z" fill="#B0BFE5"/><path d="M168.594 21.806h-40.398v56.746h40.398V21.806zm54.898 0h-41.94v56.746h41.94V21.806zm29.605 0h-23.744v18.196h23.744V21.806zm0 28.062h-23.745v28.677h23.745V49.868z" fill="#DBE0EF"/><path d="M137.785 69.945l35.922-9.865L188.201 96l-33.175 20.48-17.241-46.535z" fill="#F7F8FB"/><path d="M173.437 61.242l14.169 35.125.595-.366-14.494-35.921-35.922 9.865.367.99 35.285-9.693z" fill="#fff"/><path d="M28.48 122.52s-2.623 11.256-3.39 14.03c-.769 2.775-2.927 9.25-2.927 9.25l5.708-1.542.609-21.738z" fill="#F7F8FB"/><path d="M53.386 59.346s.823 7.05 3.39 10.586c2.58 3.556 8.233 9.416 16.1 4.483 6.545-4.11 8.053-6.843 8.053-6.843l-.616-13.775-5.964-10.481-5.756-1.232-13.36 1.031-1.847 16.231z" fill="#C6CFE6"/><path d="M80.936 67.572s-1.509 2.74-8.054 6.843a.224.224 0 01-.062.034c.021-.63.104-1.058.104-1.058l-14.252-1.578s.034.18.076.471a18.87 18.87 0 01-1.03-1.162 22.72 22.72 0 01-.928-1.197c-1.225-1.681-2.048-4.165-2.58-6.296a37.115 37.115 0 01-.81-4.29l1.847-16.237 13.36-1.031 5.756 1.231 5.964 10.482.609 13.788z" fill="#CCD4E8"/><path d="M64.283 44.133s1.232 5.347-3.086 9.865c-4.317 4.525-8.018 7.196-8.018 7.196l1.646 4.42s.512 2.367 2.367 4.726c1.466 1.875 3.237 3.55 3.237 3.55l-8.274 17.73-23.233 33.714c-.193.284-2.905-.608-3.168-.691-2.339-.72-4.608-1.868-6.365-3.598-2.872-2.837-4.4-7.043-3.812-11.063.408-2.74 1.95-5.971 6.35-7.88 0 0-4.316-5.348-.207-11.92 4.11-6.58 16.051-11.963 18.314-21.628 2.262-9.665 3.48-25.654 11.09-29.971 7.604-4.317 12.543.207 12.543.207l.616 5.342z" fill="#7690D3"/><path d="M58.07 69.468c-.4-.512-.74-1.03-1.024-1.515.367.865.934 1.958 1.8 3.058a35.154 35.154 0 002.22 2.532l.242-.526c0-.007-1.77-1.674-3.238-3.549zM23.38 90.846c4.11-6.58 16.052-11.962 18.314-21.627 2.262-9.665 3.48-25.654 11.09-29.971 5.985-3.397 10.316-1.322 11.893-.284l-.124-1.058s-4.933-4.525-12.544-.208c-7.603 4.317-8.828 20.313-11.09 29.971-2.262 9.665-14.197 15.048-18.313 21.628-3.259 5.216-1.218 9.658-.236 11.27-.871-2.152-1.5-5.708 1.01-9.72zm-6.15 19.801c.408-2.74 1.951-5.971 6.351-7.88 0 0-.436-.54-.9-1.488-4.303 1.917-5.825 5.106-6.226 7.825-.422 2.865.235 5.826 1.688 8.316-.9-2.124-1.252-4.476-.913-6.773z" fill="#A7B8E3"/><path d="M55.496 62.736c1.045 2.097.526 4.802-1.224 5.68-1.75.872-4.02-.11-5.065-2.206-1.044-2.097-.477-4.504 1.28-5.376 1.744-.879 3.965-.194 5.01 1.902z" fill="#CCD4E8"/><path d="M101.671 80.019c-.844-.505-1.71-.9-2.685-1.066-.92-.159-1.86-.166-2.795-.076a8.69 8.69 0 00-2.85.747 5.93 5.93 0 00-1.356.9c.996 2.712.878 5.555.878 5.555l-10.28.616-9.25-.408-.616-11.92s2.995-2.388 4.725-5.66c.339.332.747.56 1.21.65 1.654.332 3.35-1.21 3.799-3.445.028-.152.055-.312.07-.464.11-.996-.056-1.937-.43-2.677-.401-.782-1.038-1.342-1.826-1.495a2.353 2.353 0 00-1.273.104c.11-3.923-.54-8.095-2.263-9.527-2.47-2.054-3.39-.72-8.122-1.95-4.725-1.232-4.933-3.702-4.933-3.702s-4.137-7.39-2.54-8.634c.16-.125.354-.25.575-.374 2.463-1.363 8.87-2.657 14.709 2.428 6.02 5.245 5.805 19.296 6.455 27.246.035.463.076.906.125 1.328.823 7.604 5.548 6.988 7.81 10.073a8.701 8.701 0 011.031 1.875c.367-.339.81-.615 1.225-.837a8.028 8.028 0 012.809-.885c1.992-.236 4.2.394 5.825 1.563.028.007 0 .049-.027.035z" fill="#7690D3"/><path d="M72.917 73.391s-.083.429-.104 1.059c-6.227 3.867-11.063.968-14.072-2.159a12.31 12.31 0 00-.076-.47l14.252 1.57z" fill="#CCD4E8"/><path d="M76.411 82.233l-1.847 4.179-5.687 1.577-8.496-2.4-4.11-6.65s1.716-1.162 2.332-2.739c.463-1.176.27-3.044.145-3.909 2.034 2.034 5.41 3.708 8.987 3.55 1.71-.077 3.065-.257 5.085-1.592-.013.519.014 1.37.173 2.02.34 1.44 1.986 1.917 1.986 1.917l1.432 4.047z" fill="#BAC5E0"/><path d="M62.09 38.514s-1.232-2.532-6.034-2.331c-4.794.208-8.018 4.11-8.018 4.11s3.086-5.55 8.634-5.14c5.549.407 5.417 3.361 5.417 3.361zm-41.802 62.869s-2.263-4.317-1.128-8.634c1.128-4.317 7.3-8.427 11.92-13.055 4.63-4.629 4.63-5.653 4.63-5.653s-5.55 6.269-9.562 9.25c-2.975 2.214-8.123 6.165-8.738 10.482-.616 4.324 2.878 7.61 2.878 7.61z" fill="#B9C6E9"/><path d="M99.519 109.388v16.964l-3.321 34.988-.692 7.257-3.03 14.162c-2.892-.318-8.406-1.044-8.406-1.044l-.235-.035s-4.511-.664-6.677-1.031c-15.248-2.58-27.529-6.254-37.7-10.924l-.276-.132s.007-.166.007-.249c.104-2.407.235-5.244.395-7.977.304-5.154.857-9.015 1.342-11.602.498-2.671.927-3.992.927-3.992s-8.8-44.832-2.733-52.553c6.78-8.636 17.15-14.28 17.15-14.28s4.712 7.05 12.723 6.697c8.856-.388 5.168-7.79 5.113-7.894.083.034 4.227 1.619 9.105 3.452a107.151 107.151 0 018.904 3.826l7.403 24.367z" fill="#8CA2DA"/><path opacity=".16" d="M92.116 85.028s-3.97-1.979-8.904-3.826a1311.41 1311.41 0 01-9.105-3.453c.014.035.395.796.63 1.834 1.654.63 3.895 1.48 6.324 2.387a107.14 107.14 0 018.904 3.826l7.403 24.36v16.964l-3.321 34.987-.692 7.258-2.823 13.166c.706.083 1.377.166 1.944.228l3.03-14.162.692-7.258 3.321-34.987v-16.964l-7.403-24.36z" fill="#fff"/><path d="M38.498 94.147s4.78-8.787 9.865-8.635c5.086.153 9.562 2.159 8.787 16.038-.768 13.878-4.622 31.763-4.622 31.763l-13.72 5.708-5.707-2.007 5.397-42.867z" fill="#F7F8FB"/><path d="M48.364 85.512c-1.57-.048-3.107.754-4.484 1.89 1.066-.679 2.2-1.101 3.356-1.066 5.085.152 9.561 2.158 8.786 16.037-.705 12.675-3.985 28.698-4.545 31.375l1.052-.435s3.853-17.885 4.628-31.763c.768-13.88-3.701-15.879-8.793-16.038z" fill="#fff"/><path opacity=".28" d="M59.225 70.92c-.498.18-1.01.25-1.522.215-.346-.415-.65-.816-.927-1.197-1.224-1.68-2.048-4.165-2.58-6.295a3.766 3.766 0 011.833-1.467c2.124-.775 4.566.553 5.445 2.968.892 2.408-.118 4.995-2.249 5.777z" fill="#8CA2DA"/><path d="M83.835 181.68l.235.035-.34-1.709c-1.086-5.486-3.604-18.396-3.715-21.371-.207-5.245.928-18.092.928-18.092l-3.91-2.367-3.286.312s-1.307 10.447-1.605 16.473c-.055 1.148-.076 2.131-.041 2.857.048 1.066.366 2.941.823 5.182 1.26 6.165 3.563 15.096 4.234 17.649 2.159.367 6.677 1.031 6.677 1.031zm37.028-49.046s1.294 9.458 1.294 11.921c0 2.47 0 5.86.353 8.634.352 2.775.47 7.092.47 11.305 0 4.214.118 12.544-.588 14.799-.706 2.262-1.647 3.39-1.999 3.19-.353-.208.117-3.19.117-4.214 0-1.031-.47-1.439-.588-.207-.118 1.231-.823 2.366-1.294 2.054-.47-.311-.249-3.701-.484-6.164-.235-2.47-1.155-10.073-1.273-15.518-.118-5.445-2.588-18.397-2.94-22.818-.353-4.421 6.932-2.982 6.932-2.982z" fill="#CCD4E8"/><path opacity=".22" d="M122.98 164.501c0-4.213-.118-8.53-.471-11.305-.353-2.774-.353-6.164-.353-8.634 0-2.47-1.293-11.921-1.293-11.921s-4.94-.975-6.49 1.149c2.006-1.155 5.666-.429 5.666-.429s1.294 9.458 1.294 11.921c0 2.47 0 5.86.353 8.634s.47 7.092.47 11.305.118 12.543-.588 14.799c-.346 1.107-.747 1.944-1.114 2.49.395.056 1.267-1.072 1.931-3.21.712-2.262.595-10.585.595-14.799z" fill="#fff"/><path d="M82.437 65.905c-.442 2.228-2.144 3.77-3.798 3.446a2.364 2.364 0 01-1.21-.65c.435-.824.788-1.696.995-2.609.312-1.37.505-3.023.554-4.718a2.42 2.42 0 011.273-.104c1.653.325 2.636 2.4 2.186 4.635z" fill="#BFCBEA"/><path opacity=".28" d="M78.985 61.367c-.048 1.702-.242 3.355-.553 4.718-.208.906-.56 1.785-.997 2.608-.878-.85-1.294-2.373-.975-3.985.332-1.653 1.349-2.926 2.525-3.341z" fill="#8CA2DA"/><path d="M64.09 60.142c.089.81-.285 1.522-.838 1.584-.554.063-1.08-.54-1.17-1.356-.09-.81.284-1.522.838-1.584.553-.056 1.072.546 1.17 1.356zm12.536-.616c.09.81-.284 1.522-.837 1.584-.554.063-1.08-.54-1.17-1.355-.09-.81.284-1.523.838-1.585.553-.062 1.079.547 1.169 1.356z" fill="#7690D3"/><path d="M64.414 57.638l-3.445.899a.757.757 0 01-.92-.54.757.757 0 01.54-.92l3.445-.9a.757.757 0 01.92.54.757.757 0 01-.54.92zm12.204.089l-2.815-.622a.753.753 0 01-.575-.9.753.753 0 01.9-.574l2.816.623c.408.09.664.49.574.9a.764.764 0 01-.9.573zm-6.641 12.274c-1.91.104-3.563-.851-4.324-1.39a.513.513 0 01.581-.844c.65.456 2.09 1.293 3.68 1.21 2.117-.118 3.058-1.155 3.411-1.716.125-.2.374-.29.602-.214.311.11.443.477.27.76-.477.762-1.66 2.049-4.22 2.194z" fill="#A9B9E3"/><path d="M91.32 116.189l-9.145 3.189s-7.3 7.507-8.635 13.056c-1.051 4.372-1.03 6.476-1.03 6.476s2.262-.104 4.316.512c2.055.615 4.525 1.951 4.525 1.951l.408-2.775s.512 5.86 1.031 12.952c.512 7.091 1.75 9.866 1.75 9.866s5.757 2.878 16.342 2.67c10.586-.207 15.83-2.878 15.83-2.878s1.128-5.652.616-12.64c-.512-6.988-.72-11.104-.72-11.104s.886-1.398 2.671-2.47c2.054-1.232 3.494-1.232 3.494-1.232s.103-2.331-1.543-6.441c-1.647-4.11-4.387-7.742-4.387-7.742l-.138-3.189-3.39-1.336-6.58-1.847-15.414 2.982z" fill="#D0D9F0"/><path d="M93.846 112.149s.2 1.148-.34 2.359c-.539 1.211-2.497 2.02-2.497 2.027-.235.097 2.519 3.321 2.712 3.487 2.332 2.02 5.542 3.079 8.614 2.581 1.328-.215 3.175-.754 3.999-1.875.927-1.266.816-3.238.193-4.601-.671-1.481-2.027-2.359-2.027-2.359l-.539-3.646-10.115 2.027z" fill="#BAC5E0"/><path d="M71.658 65.594c-.18 0-.36-.02-.505-.042a.311.311 0 01-.256-.38.307.307 0 01.346-.228c.297.041.643.055.816-.028l.014-.007a.433.433 0 00.228-.36.451.451 0 00-.214-.401c-.325-.2-.837-.581-1.425-1.294-.81-.975-.81-2.124-.748-2.705a.335.335 0 01.422-.284l.243.063-.298-.076c.166.041.27.2.25.366-.056.478-.063 1.453.601 2.249.519.622.962.968 1.245 1.148.34.215.554.581.54.983-.02.373-.221.698-.553.871l-.028.014a1.91 1.91 0 01-.678.111zm-18.209-1.772a1.693 1.693 0 00-2.318-.373c-.215.145-.498.228-.678.11-.18-.124-.11-.518.228-.754 1.08-.76 2.608-.511 3.397.547.242.325.187.726-.02.789-.208.055-.45-.118-.61-.319z" fill="#A9B9E3"/><path d="M107.047 110.225c-2.567 3.909-8.323 4.11-13.16 1.951a7.893 7.893 0 01-1.598-.968c-1.944-1.502-3.376-3.84-4.31-5.743-.865-1.764-1.287-3.161-1.287-3.161l-1.646-5.349 6.787-10.585 11.72.616s.823-.512 3.909 6.787c3.079 7.306 2.608 11.858-.415 16.452z" fill="#CCD4E8"/><path d="M91.01 84.426s.719 6.165 5.243 6.372c4.525.208 6.365-.996 8.842 1.03 2.263 1.848 3.19 5.245 3.598 8.947.408 3.701-.208 6.987-1.847 9.042-1.64 2.055-2.906 3.01-2.906 3.01s-.18 1.003 1.051 1.826c1.232.824 4.83 1.128 8.531 3.19 3.701 2.054 5.313 3.805 5.313 3.805s3.736 0 4.56-4.214c.712-3.666-.824-6.268-2.878-7.299-2.055-1.03-2.567-.823-2.567-.823s1.031-2.774-.311-5.549c-1.606-3.341-4.525-2.366-5.549-6.372-.623-2.421-2.055-11.304-7.915-15.317-4.974-3.404-10.177-2.982-12.128-1.44-1.965 1.53-1.038 3.792-1.038 3.792z" fill="#BFCBEA"/><path d="M123.388 117.421c-.823 4.213-4.628 5.036-4.628 5.036s-1.543-2.566-5.245-4.628c-3.701-2.055-7.299-2.366-8.53-3.19-1.232-.823-.976-1.826-.976-1.826s1.183-.948 2.83-3.01c.844-1.058 1.418-2.442 1.723-4.047.38.201.795.29 1.217.242 1.467-.166 2.477-1.903 2.256-3.881-.221-1.979-1.591-3.453-3.058-3.294-.187.021-.374.07-.54.139-.505-2.982-1.46-5.604-3.348-7.154-2.47-2.02-4.317-.823-8.842-1.03-4.525-.208-5.245-6.373-5.245-6.373s-.927-2.262 1.031-3.805c1.951-1.543 7.161-1.965 12.129 1.44 5.86 4.005 7.292 12.888 7.914 15.317 1.031 4.006 3.944 3.03 5.549 6.372 1.335 2.774.311 5.548.311 5.548s.512-.207 2.567.824c2.062 1.051 3.598 3.653 2.885 7.32z" fill="#7690D3"/><path d="M91.867 82.793c1.951-1.543 7.161-1.965 12.129 1.44 5.86 4.005 7.292 12.889 7.914 15.317 1.031 4.006 3.944 3.03 5.549 6.372.346.727.533 1.446.623 2.124.131-1.065.117-2.594-.623-4.123-1.605-3.342-4.525-2.367-5.549-6.372-.622-2.422-2.054-11.305-7.914-15.318-4.968-3.404-10.178-2.982-12.129-1.44-1.577 1.246-1.28 2.955-1.107 3.57.166-.539.498-1.085 1.107-1.57zm25.44 28.574s.975-.104 3.03.927c1.495.747 2.712 2.325 2.996 4.546.38-3.273-1.079-5.591-2.996-6.545-1.176-.588-2.304-.872-2.663-.927-.063 1.183-.367 1.999-.367 1.999z" fill="#ADBCE5"/><path d="M93.887 112.176s-1.647-1.03-3.494-2.982c-1.847-1.951-3.494-5.756-3.494-5.756s.533-3.238 4.629-7.81c3.494-3.91 1.03-8.123 1.03-8.123s-.103-5.348-3.804-5.756c-3.702-.409-7.915 1.439-10.69 9.457-2.504 7.237.768 13.056 1.433 14.114-.499.152-.99.394-1.446.602-.623.284-1.218.713-1.765 1.128-1.079.83-2.034 1.868-2.663 3.078-1.211 2.332-1.204 5.141.595 7.161.802.907 1.805 1.571 2.899 2.069-.464.228-1.094.712-1.723 1.757-1.232 2.055-.104 3.702-.104 3.702l7.3-2.671s1.334-1.847 4.42-3.494c3.086-1.646 5.756-2.567 6.683-3.805.914-1.232.194-2.671.194-2.671zm-19.6 4.373c-.92-1.328-1.128-2.982-.74-4.532.276-1.114.83-2.11 1.55-2.982a8.257 8.257 0 00-.942 2.533c-1.03 5.036 3.702 7.603 3.702 7.603s-.145-.014-.38.055c-1.198-.719-2.395-1.529-3.19-2.677z" fill="#7690D3"/><path d="M78.494 120.16c.235-.062.38-.055.38-.055s-.754-.408-1.59-1.218c-.866-.553-1.689-1.183-2.326-1.978.104.2.215.394.346.581.422.616.962 1.128 1.557 1.584.228.125.464.242.706.353l-.125.062c.346.236.699.457 1.052.671zm-4.67-6.33a5.965 5.965 0 01.18-1.744c.276-1.113.83-2.11 1.55-2.981a7.84 7.84 0 00-.692 1.577c.622-1.045 1.487-1.951 2.449-2.691.546-.415 1.134-.844 1.764-1.128.456-.208.948-.45 1.446-.602-.657-1.059-3.937-6.877-1.432-14.114 2.774-8.018 6.987-9.866 10.689-9.458 1.051.118 1.806.63 2.36 1.301-.554-1.072-1.454-2.013-2.927-2.18-3.702-.407-7.915 1.44-10.69 9.459-2.504 7.236.768 13.055 1.433 14.113-.499.153-.99.395-1.446.602-.623.284-1.218.713-1.765 1.128-1.079.83-2.034 1.868-2.663 3.079-1.156 2.228-1.197 4.891.373 6.891-.532-1.004-.726-2.131-.63-3.252z" fill="#ADBCE5"/><path d="M74.668 123.952s2.006-1.903 3.494-2.726c1.487-.823 4.676-.36 5.707-.512 1.031-.152.768.408.568.719-.208.312-1.44.824-1.44.824l-8.33 1.695z" fill="#BAC5E0"/><path d="M71.803 132.233s4.2-3.535 7.694-4.428c3.493-.892 9.796-.685 10.28-1.162.478-.477-.138-1.439-2.47-1.439H84.5s2.442-.346 4.096-.221c2.054.152 2.262.408 2.47 0 .207-.409-.174-1.128-1.336-1.336-1.162-.207-1.439-.207-1.439-.207s1.148-.568.118-.837c-1.031-.277-2.47-.478-3.972-.547-1.508-.069-4.351-.464-8.122.976-1.771.678-3.494 2.421-5.14 3.493-1.855 1.204-3.536 1.702-3.536 1.702l4.165 4.006z" fill="#CCD4E8"/><path d="M67.638 128.22s1.53.201 2.761 1.481c1.232 1.287 1.398 2.525 1.398 2.525s-2.567 2.145-6.324 5.085c-5.203 4.075-12.785 10.198-24.512 12.8-19.566 4.331-14.647-17.421-12.025-30.684 2.622-13.256 9.562-30.061 16.342-31.3 4.248-.774 9.402 2.007 6.787 19.428-2.622 17.421-5.549 24.976-5.549 24.976s4.317-2.007 10.64-3.238c6.325-1.232 10.482-1.073 10.482-1.073z" fill="#A3B5E2"/><path d="M95.299 100.795c.228.664.048 1.322-.402 1.481-.45.159-1.003-.256-1.231-.913-.228-.665-.048-1.322.401-1.481.45-.16 1.003.249 1.232.913zm10.377-2.843c.229.664.049 1.321-.401 1.48-.45.16-1.003-.255-1.231-.913-.229-.664-.049-1.321.401-1.48.45-.16 1.003.256 1.231.913z" fill="#7690D3"/><path d="M94.766 97.883l-2.72 1.39a.653.653 0 01-.871-.283.653.653 0 01.284-.872l2.719-1.39a.653.653 0 01.871.283.651.651 0 01-.283.872zm10.572-2.193l-2.47.006a.658.658 0 01-.651-.643c0-.353.291-.643.644-.65l2.47-.007c.352 0 .643.29.65.643 0 .36-.291.65-.643.65zm-3.28 12.252c-1.578.443-3.134-.055-3.875-.36a.439.439 0 01-.22-.615c.103-.201.345-.284.553-.201.63.256 1.992.699 3.307.325 1.75-.491 2.338-1.536 2.532-2.068a.443.443 0 01.463-.291.438.438 0 01.367.581c-.27.74-1.017 2.041-3.127 2.629zm.851-4.013c-.152.035-.305.049-.429.063-.152.014-.284-.118-.284-.27a.263.263 0 01.242-.256c.256-.021.554-.076.678-.173l.014-.007a.374.374 0 00.125-.346.387.387 0 00-.256-.297c-.305-.104-.81-.332-1.432-.817-.858-.664-1.073-1.626-1.121-2.124a.288.288 0 01.297-.318l.215.007-.263-.007a.29.29 0 01.277.256c.041.408.221 1.225.92 1.764.553.429.982.63 1.252.727.318.117.574.38.63.719a.866.866 0 01-.305.83l-.021.014c-.138.125-.339.194-.539.235z" fill="#A9B9E3"/><path opacity=".28" d="M108.562 105.77c-.941-.491-1.674-1.64-1.834-3.051-.193-1.723.547-3.266 1.716-3.743.097.588.18 1.183.249 1.792.194 1.799.153 3.494-.131 5.002z" fill="#8CA2DA"/><path d="M85.046 103.134s-3.086-10.897 2.566-15.422c5.653-4.524 12.744-2.982 15.318-.615 2.567 2.366 4.214 7.299 4.214 7.299s-1.336-10.551-9.562-11.07c-8.226-.512-13.145 2.18-14.321 6.51-1.093 4.04-1.508 5.757-.962 9.728.616 4.455 1.162 5.14 1.162 5.14l1.585-1.57z" fill="#B4C2E7"/><path d="M84.997 103.189l.055-.055s-.2-.706-.4-1.827c.11.775.241 1.419.345 1.882zm-2.553-2.795c-.547-3.971-.138-5.687.962-9.727 1.176-4.331 6.102-7.023 14.321-6.51 6.766.421 8.87 7.638 9.402 10.184a101 101 0 00.021.062s-1.335-10.551-9.561-11.07c-8.227-.512-13.146 2.18-14.322 6.51-1.093 4.04-1.508 5.757-.961 9.728.103.74.2 1.377.297 1.923-.048-.339-.104-.705-.159-1.1z" fill="#C5CEE5"/><path d="M88.387 104.144c1.266 1.557 1.329 3.923.028 4.981-1.3 1.059-3.383.651-4.65-.906-1.265-1.557-1.23-3.681.07-4.732 1.308-1.066 3.286-.9 4.552.657z" fill="#CCD4E8"/><path d="M87.149 105.362a1.455 1.455 0 00-2.007.117c-.152.159-.373.284-.546.215-.173-.069-.187-.415.048-.671a2.125 2.125 0 012.94-.173c.263.228.291.574.125.664-.16.09-.394-.007-.56-.152z" fill="#A9B9E3"/><path opacity=".28" d="M93.223 110.841a3.381 3.381 0 01-.934.374c-1.944-1.502-3.376-3.84-4.31-5.743a3.53 3.53 0 011.342-1.383c1.764-1.017 4.068-.333 5.14 1.529 1.08 1.868.52 4.199-1.238 5.223z" fill="#8CA2DA"/><path d="M86.54 89.207s.298 5.576-1.923 5.874c-2.221.29-2.131-2.138-2.622-2.754-.485-.616-1.75-.263-2.38-1.757-.637-1.501 2.525-4.068 5.673-3.183 3.14.872 1.252 1.82 1.252 1.82z" fill="#8CA2DA"/><path d="M85.696 88.058c.67.187 1.114.38 1.397.568.083-.346-.221-.81-1.806-1.253-3.147-.885-6.302 1.688-5.673 3.183.118.27.25.484.402.65-.575-1.501 2.553-4.026 5.68-3.148z" fill="#CCD4E8"/><path d="M86.941 88.889s5.348 1.605 6.157-.485c.81-2.09-1.57-2.58-2.054-3.196-.485-.616.159-1.764-1.149-2.733-1.307-.968-4.552 1.488-4.435 4.76.118 3.266 1.481 1.654 1.481 1.654z" fill="#8CA2DA"/><path d="M85.806 88.127c-.117-3.265 3.127-5.728 4.435-4.76.235.173.401.353.526.533-.07-.463-.25-.961-.872-1.418-1.307-.969-4.552 1.487-4.435 4.76.042 1.093.215 1.64.436 1.882a8.68 8.68 0 01-.09-.996z" fill="#CCD4E8"/><path d="M84.983 86.702A1.75 1.75 0 0187.44 87l.312.394a1.75 1.75 0 01-2.754 2.159l-.311-.394a1.75 1.75 0 01.297-2.457z" fill="#A3B5E2"/><path d="M84.402 87.609l.81-.637a1.232 1.232 0 011.73.208l.947 1.203c.187.236.27.526.263.81a1.234 1.234 0 00-.09-1.39l-.948-1.204a1.233 1.233 0 00-1.73-.208l-.809.636a1.22 1.22 0 00-.47.92c.076-.13.18-.242.297-.338z" fill="#CCD4E8"/><path d="M86.18 133.97s2.263.512 4.83.512c2.566 0 4.829-.616 4.829-.616s2.366 12.64-4.318 12.64c-6.683 0-5.34-12.536-5.34-12.536z" fill="#B4C2E7"/><path d="M86.18 136.44s2.332.512 4.982.512c2.65 0 4.98-.616 4.98-.616s.008.028.015.083c-.118-1.494-.319-2.546-.319-2.546s-2.262.616-4.829.616c-2.566 0-4.829-.512-4.829-.512s-.173 1.632-.083 3.722c.035-.782.083-1.259.083-1.259z" fill="#C5CEE5"/><path d="M179.414 21.377s-2.47 5.708-2.927 9.562c-.463 3.853-.767 6.475 0 7.091.768.616 1.391.927 1.08 2.927-.312 2.006-1.08 2.47-.768 4.78.311 2.311 4.781 11.72 8.634 12.025 3.847.304 4.781-1.08 4.781-1.08s.768 2.623 1.695 4.47c.927 1.847 21.89-3.854 21.89-3.854s-1.695-4.933-2.622-9.098c-.927-4.158-31.763-26.823-31.763-26.823z" fill="#CCD4E8"/><path d="M178.584 24.63c.208-.236.588-.077.575.235-.09 1.757-.229 6.628.761 10.426.608 2.331 1.612 5.113 2.483 7.327.402 1.03 1.889.927 2.138-.153.471-2 1.37-3.992 3.086-4.096 3.494-.207 4.829 2.671 4.525 6.373-.111 1.293 1.314 6.863 7.299 8.122 5.86 1.231 13.055.512 15.518-5.653 2.47-6.164 3.487-26.532-7.707-32.787-9.562-5.348-22.278-5.3-31.867 4.629-8.635 8.946 1.543 9.665 1.543 9.665s.422-1.702.823-2.67c.291-.706.581-1.142.823-1.419z" fill="#7690D3"/><path d="M178.384 25.757c-.243.27-.533.706-.824 1.411-.076.18-.152.395-.228.61.298.04.484.055.484.055s.291-1.177.623-2.131l-.055.055zm6.295 16.646c.346-.11.637-.38.74-.81.097-.415.215-.823.353-1.224-.47.533-.823 1.252-1.093 2.034z" fill="#A7B8E3"/><path d="M208.14 13.553c-9.561-5.348-22.277-5.3-31.867 4.628-1.771 1.834-2.746 3.321-3.189 4.525.526-.754 1.211-1.591 2.11-2.518 9.582-9.929 22.306-9.97 31.867-4.629 11.173 6.247 10.177 26.533 7.728 32.745a9.155 9.155 0 001.065-1.964c2.463-6.165 3.48-26.533-7.714-32.787z" fill="#A7B8E3"/><path d="M257.387 152.747c-20.528 19.905-53.204 30.22-95.297 31.991h-.02a650.356 650.356 0 01-.374-22.326c.007-8.385.215-17.656.851-25.564 1.647-20.354-5.597-33.963 2.837-49.177 8.427-15.214 13.816-16.812 20.396-20.929 6.579-4.11 8.842-4.725 8.842-4.725l6.164-1.847s8.226-.208 17.677 0c9.451.207 22.817 17.677 31.043 39.678 5.556 14.847 7.292 38.972 7.881 52.899z" fill="#C4CFEC"/><path d="M255.366 152.082c.007.028.014.056.014.076.65-.449 1.328-.913 2.048-1.39-.588-13.927-2.47-37.921-8.019-52.768-8.226-21.994-21.585-39.47-31.043-39.678-9.458-.207-17.677 0-17.677 0l-1.515.457c1.626-.035 9.008-.173 17.345.007 9.457.207 22.817 17.677 31.043 39.678 5.549 14.847 7.334 39.581 7.915 53.508a.824.824 0 00-.111.11z" fill="#DAE1F3"/><path d="M185.78 66.75s7.402-10.074 18.707-12.337c11.305-2.262 9.666-2.054 10.281-.823.616 1.231 4.726 6.164 3.702 6.58-1.024.415-7.196-.208-15.007 1.439-7.818 1.646-17.683 5.14-17.683 5.14z" fill="#D0D9F0"/><path d="M115.515 99.377c-.782-.664-1.543-1.349-2.062-2.242-.561-.982-.823-2.082-1.252-3.12-.014-.034-.07-.02-.056.014.699 1.861.678 3.902 2.159 5.39 1.384 1.39 3.833 2.532 3.895 4.739 0 .062.083.055.09 0 .242-2.076-1.342-3.563-2.774-4.78z" fill="#ADBCE5"/><path d="M149.907 64.59l1.847 4.421 11.512-3.293-2.054-4.317-11.305 3.19z" fill="#E8ECF5"/><path d="M149.907 64.59l-.36 2.055 1.08-.31-.72-1.744z" fill="#DBE0EF"/><path d="M170.545 69.157c-.519.18-.837.118-1.128.069-.263-.048-.491-.09-.892.049-.402.138-.554.31-.734.511-.193.215-.408.464-.927.644-.519.18-.837.117-1.128.07-.262-.05-.491-.09-.892.047-.401.139-.553.312-.733.513-.194.214-.409.463-.927.643-.519.18-.838.117-1.128.07-.263-.05-.491-.09-.893.047-.401.139-.553.312-.733.513-.194.214-.408.463-.927.643-.519.18-.837.118-1.128.07-.263-.05-.491-.09-.892.047-.402.139-.554.312-.734.513-.193.214-.408.463-.927.643-.519.18-.837.118-1.128.07-.262-.05-.491-.09-.892.047-.401.139-.553.312-.733.513-.194.214-.409.463-.927.643-.519.18-.838.117-1.128.07-.263-.05-.491-.09-.893.047-.401.139-.553.312-.733.513-.194.214-.408.463-.927.643-.519.18-.837.118-1.128.07-.214-.042-.408-.077-.692-.008a.225.225 0 01-.27-.145.233.233 0 01.167-.298c.38-.09.643-.041.885 0 .263.049.491.09.893-.048.401-.138.553-.311.733-.512.194-.215.408-.463.927-.643.519-.18.837-.118 1.128-.07.263.049.491.09.892-.048.402-.138.554-.311.734-.512.193-.215.408-.463.927-.643.519-.18.837-.118 1.127-.07.263.049.492.09.893-.048s.553-.311.733-.512c.194-.215.408-.464.927-.643.519-.18.838-.118 1.128-.07.263.049.491.09.893-.048.401-.138.553-.311.733-.512.194-.215.408-.464.927-.644.519-.18.837-.117 1.128-.069.263.049.491.09.892-.048.402-.138.554-.311.734-.512.193-.215.408-.464.927-.644.519-.18.837-.117 1.127-.069.263.049.492.09.893-.048.401-.139.553-.311.733-.512.194-.215.408-.464.927-.644.519-.18.838-.117 1.128-.069.263.049.491.09.893-.048.401-.138.553-.311.733-.512.159-.18.339-.38.692-.547a.229.229 0 01.311.132.225.225 0 01-.124.284c-.263.124-.395.27-.54.435-.194.215-.408.457-.927.637zm1.667 3.791c-.519.18-.837.118-1.128.07-.263-.05-.491-.09-.892.048s-.554.311-.733.512c-.194.214-.409.463-.928.643-.518.18-.837.118-1.127.07-.263-.05-.492-.09-.893.048s-.553.311-.733.512c-.194.214-.408.463-.927.643-.519.18-.837.118-1.128.07-.263-.05-.491-.09-.892.048-.402.138-.554.311-.734.512-.194.214-.408.463-.927.643-.519.18-.837.118-1.128.07-.263-.05-.491-.09-.892.048s-.554.311-.733.512c-.194.214-.409.463-.928.643-.518.18-.837.118-1.127.07-.263-.05-.491-.09-.893.048-.401.138-.553.311-.733.512-.194.214-.408.463-.927.643-.519.18-.837.118-1.128.07-.263-.05-.491-.09-.892.048-.402.138-.554.311-.734.512-.194.214-.408.463-.927.643-.519.18-.837.118-1.128.07-.214-.042-.408-.077-.691-.008a.224.224 0 01-.27-.145.232.232 0 01.166-.297c.38-.09.643-.042.885 0 .263.048.492.09.893-.049.401-.138.553-.311.733-.512.194-.214.408-.463.927-.643.519-.18.837-.118 1.128-.07.263.05.491.09.892-.048.402-.138.554-.311.734-.512.194-.214.408-.463.927-.643.519-.18.837-.118 1.128-.07.263.05.491.09.892-.048s.554-.311.734-.512c.193-.214.408-.463.927-.643.518-.18.837-.118 1.127-.07.263.05.492.09.893-.048s.553-.311.733-.512c.194-.214.408-.463.927-.643.519-.18.837-.118 1.128-.07.263.05.491.09.892-.048.402-.138.554-.311.734-.512.194-.214.408-.463.927-.643.519-.18.837-.118 1.128-.07.263.049.491.09.892-.048s.554-.311.734-.512c.193-.214.408-.463.927-.643.518-.18.837-.118 1.127-.07.263.049.492.09.893-.048s.553-.311.733-.512c.159-.18.339-.38.692-.546a.229.229 0 01.311.131.224.224 0 01-.124.284c-.263.124-.395.27-.54.436-.194.214-.415.456-.927.636zm1.301 3.895c-.519.18-.837.118-1.128.07-.263-.049-.491-.09-.892.048-.402.138-.554.311-.734.512-.193.214-.408.463-.927.643-.519.18-.837.118-1.128.07-.262-.049-.491-.09-.892.048s-.553.311-.733.512c-.194.215-.409.464-.927.643-.519.18-.838.118-1.128.07-.263-.049-.491-.09-.893.048-.401.138-.553.311-.733.512-.194.215-.408.463-.927.643-.519.18-.837.118-1.128.07-.263-.049-.491-.09-.892.048-.402.138-.554.311-.734.512-.193.215-.408.464-.927.643-.519.18-.837.118-1.128.07-.262-.049-.491-.09-.892.048s-.553.311-.733.512c-.194.215-.409.464-.927.644-.519.18-.838.117-1.128.069-.263-.049-.491-.09-.893.048-.401.138-.553.311-.733.512-.194.215-.408.464-.927.644-.519.18-.837.117-1.128.069-.214-.042-.408-.076-.692-.007a.225.225 0 01-.27-.146.233.233 0 01.167-.297c.38-.09.643-.042.885 0 .263.048.491.09.893-.049.401-.138.553-.31.733-.512.194-.214.408-.463.927-.643.519-.18.837-.118 1.128-.07.263.05.491.09.892-.047.402-.139.554-.312.734-.513.193-.214.408-.463.927-.643.519-.18.837-.117 1.127-.07.263.05.492.09.893-.047.401-.139.553-.312.733-.513.194-.214.408-.463.927-.643.519-.18.838-.117 1.128-.07.263.05.491.09.893-.047.401-.139.553-.312.733-.512.194-.215.408-.464.927-.644.519-.18.837-.118 1.128-.07.263.05.491.09.892-.047.402-.139.554-.312.734-.513.193-.214.408-.463.927-.643.519-.18.837-.118 1.127-.07.263.05.492.09.893-.047.401-.139.553-.312.733-.513.194-.214.408-.463.927-.643.519-.18.838-.118 1.128-.07.263.05.491.09.893-.048.401-.138.553-.31.733-.511.159-.18.339-.381.692-.547a.229.229 0 01.311.131.225.225 0 01-.124.284c-.263.124-.395.27-.54.436-.194.207-.415.457-.927.636zm1.764 4.152c-.519.18-.837.117-1.128.069-.263-.049-.491-.09-.892.048-.401.139-.554.312-.734.512-.193.215-.408.464-.927.644-.519.18-.837.117-1.127.069-.263-.049-.492-.09-.893.048s-.553.311-.733.512c-.194.215-.408.464-.927.643-.519.18-.837.118-1.128.07-.263-.049-.491-.09-.892.048-.402.138-.554.311-.734.512-.194.215-.408.464-.927.644-.519.18-.837.117-1.128.069-.263-.049-.491-.09-.892.048-.401.139-.554.312-.734.512-.193.215-.408.464-.927.644-.519.18-.837.117-1.127.069-.263-.049-.492-.09-.893.048-.401.139-.553.312-.733.512-.194.215-.408.464-.927.644-.519.18-.837.117-1.128.069-.263-.049-.491-.09-.892.048-.402.139-.554.311-.734.512-.194.215-.408.464-.927.644-.519.18-.837.117-1.128.069-.214-.042-.408-.076-.692-.007a.223.223 0 01-.269-.145.232.232 0 01.166-.298c.38-.09.643-.041.885 0 .263.049.491.09.893-.048.401-.139.553-.312.733-.512.194-.215.408-.464.927-.644.519-.18.837-.117 1.128-.069.263.049.491.09.892-.048.402-.139.554-.312.734-.512.194-.215.408-.464.927-.644.519-.18.837-.117 1.128-.069.263.048.491.09.892-.048.401-.139.554-.312.733-.512.194-.215.409-.464.928-.644.518-.18.837-.117 1.127-.069.263.048.491.09.893-.048.401-.139.553-.312.733-.512.194-.215.408-.464.927-.644.519-.18.837-.117 1.128-.069.263.048.491.09.892-.048.402-.139.554-.312.734-.512.194-.215.408-.464.927-.644.519-.18.837-.117 1.128-.069.263.048.491.09.892-.048.401-.139.554-.312.733-.512.194-.215.409-.464.928-.644.518-.18.837-.117 1.127-.069.263.048.491.09.893-.048.401-.139.553-.312.733-.512.159-.18.339-.38.692-.547a.229.229 0 01.311.131.225.225 0 01-.124.284c-.263.125-.395.27-.54.436-.194.215-.415.463-.927.636zm2.027 3.784c-.519.18-.837.118-1.127.07-.263-.05-.492-.09-.893.047-.401.139-.553.312-.733.513-.194.214-.408.463-.927.643-.519.18-.837.118-1.128.07-.263-.05-.491-.09-.892.048-.402.138-.554.31-.734.511-.194.215-.408.464-.927.644-.519.18-.837.118-1.128.07-.263-.05-.491-.09-.892.048s-.554.31-.734.511c-.193.215-.408.464-.927.644-.519.18-.837.118-1.127.07-.263-.05-.492-.09-.893.048s-.553.31-.733.512c-.194.214-.408.463-.927.643-.519.18-.837.118-1.128.07-.263-.05-.491-.09-.892.048-.402.138-.554.31-.734.512-.194.214-.408.463-.927.643-.519.18-.837.118-1.128.07-.263-.05-.491-.09-.892.048s-.554.31-.734.512c-.193.214-.408.463-.927.643-.519.18-.837.118-1.127.07-.215-.042-.409-.077-.692-.008a.225.225 0 01-.27-.145.232.232 0 01.166-.297c.381-.09.643-.042.886 0 .263.048.491.09.892-.049.401-.138.554-.311.733-.512.194-.214.409-.463.928-.643.518-.18.837-.118 1.127-.07.263.049.491.09.893-.048.401-.138.553-.311.733-.512.194-.214.408-.463.927-.643.519-.18.837-.118 1.128-.07.263.049.491.09.892-.048.402-.138.554-.311.734-.512.194-.214.408-.464.927-.643.519-.18.837-.118 1.128-.07.263.049.491.09.892-.048s.554-.311.733-.512c.194-.214.409-.463.928-.643.518-.18.837-.118 1.127-.07.263.049.491.09.893-.048.401-.138.553-.311.733-.512.194-.214.408-.463.927-.643.519-.18.837-.118 1.128-.07.263.049.491.09.892-.048.402-.138.554-.311.734-.512.194-.215.408-.464.927-.643.519-.18.837-.118 1.128-.07.263.049.491.09.892-.048s.554-.311.733-.512c.16-.18.339-.38.692-.547a.23.23 0 01.312.132.226.226 0 01-.125.284c-.263.124-.394.27-.54.435-.193.215-.408.457-.927.637z" fill="#B0BFE5"/><path d="M144.877 96.153s1.737-4.31 3.549-5.549c2.927-2.006 5.708-1.847 5.245-3.853-.464-2.007-3.086-2.007-6.013-1.232-2.926.768-3.853.616-4.317-.927-.463-1.543-1.543-3.701-1.543-3.701s-1.39.615-2.926 4.469c-1.543 3.854-2.47 8.323-2.47 8.323l8.475 2.47z" fill="#CCD4E8"/><path opacity=".28" d="M148.205 86.266c2.248-.588 4.31-.726 5.362.146-.672-1.668-3.155-1.626-5.909-.9-1.958.52-3.023.616-3.653.166.498 1.225 1.495 1.301 4.2.588zm-8.793-.152c1.245-3.113 2.386-4.11 2.781-4.386-.235-.505-.402-.844-.402-.844s-1.39.615-2.926 4.47c-1.543 3.853-2.47 8.322-2.47 8.322l.671.194c.305-1.308 1.135-4.719 2.346-7.756z" fill="#fff"/><path d="M137.059 90.59s2.262 0 5.14 1.44c2.879 1.439 4.525 3.909 4.525 3.909.173.256-.692 2.566-.761 2.926-.367 2.02-.45 4.068.049 6.061 1.224 4.884 4.358 7.195 7.7 10.537 0 0 8.627-27.53 17.476-36.593 8.427-8.634 13.782-10.322 20.763-4.933 7.859 6.061.726 31.618-8.427 44.404-8.842 12.349-18.3 25.695-32.483 21.994-15.442-4.027-18.299-19.116-16.86-34.122 1.439-15.007 2.878-15.622 2.878-15.622z" fill="#D0D9F0"/><path d="M82.866 66.853a10.592 10.592 0 01-.353-1.418c-.152-.761-.29-1.66-.429-2.678-.408-2.968-.802-6.89-1.494-11.014-.83-4.96-3.494-9.243-7.59-12.294-3.155-2.353-7.597-2.567-11.374-1.89l.083-.386c2.463-1.364 8.87-2.657 14.709 2.428 6.012 5.251 5.798 19.303 6.448 27.252z" fill="#A7B8E3"/><path d="M82.223 135.25c-.062-.215-.339-.194-.415 0-.242.622-.125 1.501-.125 2.165 0 .609-.097 1.349.146 1.917.007.014.02.007.027 0 .29-.547.256-1.315.312-1.917.055-.671.242-1.522.055-2.165zm34.578-.415c-.076-.761-.103-1.709-.477-2.38-.083-.146-.277-.069-.291.076-.034.38.063.747.125 1.114.076.456.138.92.187 1.383.083.782.083 1.585.283 2.346.014.048.083.048.09 0 .236-.81.159-1.702.083-2.539z" fill="#F1F3F9"/></g></svg>