<svg width="440" height="323" fill="none" xmlns="http://www.w3.org/2000/svg"><g clip-path="url(#clip0)"><path d="M440 313.785c-1.41 12.819-75.438 11.743-75.326-.001 1.41-12.817 75.438-11.741 75.326.001z" fill="#E6E6E6"/><path d="M389.147 280.891l-3.001 6.499-5.502-.5-3.5-11.499 5.501-3 6.502 8.5zm18.887 14.969l.119 4.529-8.503.5v-5.5l8.384.471z" fill="#FFB8B8"/><path d="M405.151 213.396l-2 39.997 5.002 43.497-15.005 1.999-9.503-54.995-3.001-37.498 24.507 7z" fill="#2F2E41"/><path d="M428.658 198.897s6.002 39.497-6.501 52.496c-12.504 12.999-29.509 35.997-29.509 35.997l-12.004-14.999 30.509-32.497-6.001-21.998-24.508-11.5 4.002-27.497 36.01-.5 8.002 20.498z" fill="#2F2E41"/><path d="M399.15 107.404c6.077 0 11.003-4.924 11.003-10.999 0-6.074-4.926-10.999-11.003-10.999s-11.003 4.925-11.003 11c0 6.074 4.926 10.998 11.003 10.998z" fill="#FFB8B8"/><path d="M408.653 98.905s.5 15.499 3 17.499c2.501 2-9.002 10.499-9.002 10.499l-7.502-11.999v-10.999l13.504-5z" fill="#FFB8B8"/><path d="M403.651 119.903l6.072-9.165 3.431 4.666 5.001 13.999-4.001 54.495-23.507.5-3-62.495 7.501-8.999 8.503 6.999z" fill="#D0CDE1"/><path d="M378.144 123.403l-4.002-.5s-1 .5-1.5 4-6.502 34.497-6.502 34.497l8.002 37.997 9.003-11.999-5.501-20.998 5.501-20.999-5.001-21.998zm51.014-.5h3.001l7.502 40.497-7.001 31.498-7.003-11.5 2.001-12.499-1-10.999-3.501-6.499 6.001-30.498zM384.645 285.39s3.001-1 3.001 1-2 7.999-2 7.999 3.001 18.499-1.501 17.499c-4.501-1-8.002-9.499-8.502-11.999s-3.001-15.499-3.001-15.499-4.001-9.499-1.5-9.999c2.5-.5 9.502-2.5 9.502-2.5s-4.001 12.499 4.001 13.499zm14.505 15.499s8.002-5 9.502-1a41.962 41.962 0 012.001 8.999s2.001 6.5-6.002 5.5c-8.002-1-7.002-1-7.502-4s2.001-9.499 2.001-9.499zm6.502-204.484l-2.001-.5s-1.5-8.499-5.001-7.5c-3.501 1-12.504 2-12.504-1.999 0-4 8.502-7.5 13.504-7 5.001.5 13.504 2 13.004 9.5s-3.728 14.795-3.728 14.795l-.26-4.447-3.014-2.849z" fill="#2F2E41"/><path d="M395.148 125.903l8.503-6-8.503-6.999-2.951 3.541 2.951 9.458zm16.005-.5l-7.502-5.5 6.002-8.999 3.501 4.5-2.001 9.999z" fill="#D0CDE1"/><path d="M374.643 122.903l16.004-6.499 3.751-2.75 11.254 49.746 7.502-22.498-2.251-28.748 20.756 10.749-7.002 33.997-1 12.999 3.001 10.5s10.503 7.499 7.002 15.498c-3.501 8-7.502 8.5-7.502 8.5s-17.005-15.999-18.006-19.999c-1-3.999-2.5-10.999-2.5-10.999s-8.503 31.998-18.506 31.498-10.003-11-10.003-11l2.501-10.999 4.001-11.499-2-18.998-7.002-29.498z" fill="#2F2E41"/><g filter="url(#filter0_d)"><path d="M357.307.198H8.64v223.219h348.667V.197z" fill="#E6E6E6"/></g><path d="M347.337 28.195H18.61v85.093h328.727V28.195z" fill="#fff"/><path d="M169.896 40.486h-69.518v3.99h69.518v-3.99z" fill="#E6E6E6"/><path d="M207.729 55.037H100.378v3.99h107.351v-3.99z" fill="#6C63FF"/><path d="M187.867 68.747h-87.489v3.989h87.489v-3.99zm-36.414 13.657h-51.075v3.99h51.075v-3.99zm26.01 13.658h-77.085v3.989h77.085v-3.989zM77.205 39.068h-8.512v8.51h8.512v-8.51z" fill="#E6E6E6"/><path d="M77.205 52.777h-8.512v8.51h8.512v-8.51z" fill="#6C63FF"/><path d="M77.205 66.487h-8.512v8.509h8.512v-8.51zm0 13.709h-8.512v8.51h8.512v-8.51zm0 13.71h-8.512v8.509h8.512v-8.51zM301.367 58.45h-28.375v28.364h28.375V58.45z" fill="#E6E6E6"/><path d="M347.337 125.106H18.61v85.093h328.727v-85.093z" fill="#fff"/><path d="M91.865 132.669h-8.512v8.509h8.513v-8.509z" fill="#E6E6E6"/><path d="M77.205 132.669h-8.512v8.509h8.512v-8.509z" fill="#6C63FF"/><path d="M213.023 151.277a32.234 32.234 0 00-24.79-15.698 32.244 32.244 0 00-27.246 10.893l-2.075-1.812a34.992 34.992 0 0156.481 5.214l-2.37 1.403z" fill="#E6E6E6"/><path d="M214.321 187.152l-2.286-1.537a32.231 32.231 0 00.988-34.338l2.37-1.403a34.979 34.979 0 01-1.072 37.278zm-55.122 3.836a34.957 34.957 0 01-.287-46.328l2.075 1.812a32.209 32.209 0 00.264 42.679l-2.052 1.837z" fill="#6C63FF"/><path d="M185.266 202.637a35.056 35.056 0 01-26.067-11.649l2.052-1.837a32.232 32.232 0 0026.258 10.654 32.24 32.24 0 0024.526-14.19l2.286 1.537a34.969 34.969 0 01-29.055 15.485z" fill="#6C63FF"/><path d="M301.367 151.107h-28.375v28.364h28.375v-28.364zM95.885 169.544H67.51v28.364h28.375v-28.364z" fill="#E6E6E6"/><path d="M357.158 0H8.491v14.807h348.667V0z" fill="#6C63FF"/><path d="M19.499 10.315a2.745 2.745 0 100-5.49 2.745 2.745 0 000 5.49zm10.421 0a2.745 2.745 0 100-5.49 2.745 2.745 0 000 5.49zm10.42 0a2.745 2.745 0 10.002-5.49 2.745 2.745 0 00-.001 5.49z" fill="#fff"/></g><defs><clipPath id="clip0"><path fill="#fff" d="M0 0h440v323H0z"/></clipPath><filter id="filter0_d" x="-3.36" y="-7.802" width="372.667" height="247.219" filterUnits="userSpaceOnUse" color-interpolation-filters="sRGB"><feFlood flood-opacity="0" result="BackgroundImageFix"/><feColorMatrix in="SourceAlpha" values="0 0 0 0 0 0 0 0 0 0 0 0 0 0 0 0 0 0 127 0"/><feOffset dy="4"/><feGaussianBlur stdDeviation="6"/><feColorMatrix values="0 0 0 0 0 0 0 0 0 0 0 0 0 0 0 0 0 0 0.25 0"/><feBlend in2="BackgroundImageFix" result="effect1_dropShadow"/><feBlend in="SourceGraphic" in2="effect1_dropShadow" result="shape"/></filter></defs></svg>