<svg width="111" height="308" fill="none" xmlns="http://www.w3.org/2000/svg"><path d="M11.007 133.527s-17.198 13.502-8.6 16.57c8.6 3.069 14.127-11.047 14.127-11.047l-5.527-5.523z" fill="#A0616A"/><path d="M11.62 128.617l-3.684 6.137s6.142 0 7.37 9.206l4.914-6.137-8.6-9.206z" fill="#CFCCE0"/><path d="M93.31 268.546l.614 18.411-7.37 4.297-3.071-1.841.614-20.867h9.213zm-43.609-4.91l1.229 19.639-17.198 7.365 1.229-10.433s4.913-7.979 3.685-16.571H49.7z" fill="#A0616A"/><path d="M76.112 115.729s9.827 25.776 11.67 41.733c1.843 15.957 4.914 58.304 4.914 58.304l6.142 54.621-17.198 2.455-7.37-55.235-16.584-54.622-3.685 54.622-3.071 49.712-15.97.613-1.228-51.553-6.756-65.668 3.685-31.3 45.451-3.682zm9.213 172.456s1.008-10.307 8.489-4.54l1.339-.983 6.142 13.502s7.37 10.433-5.528 11.66c-12.899 1.228-11.67-11.66-11.67-11.66l-1.229-5.524.615-3.617 1.842 1.162zm-35.624-12.274a9.749 9.749 0 014.914 8.592c0 6.137-.614 6.751-.614 6.751l-9.213 2.455s-6.142-.614-9.827 3.068c-3.686 3.683-22.112 6.138-22.112 1.228s15.355-12.888 15.355-12.888 4.56-7.695 7.808-6.917c3.248.779 4.476 2.007 4.476 2.62 0 .614-1.842 4.91-1.842 4.91s10.441-2.455 11.055-9.819z" fill="#2F2E41"/><path d="M48.473 40.24c8.48 0 15.355-6.869 15.355-15.343 0-8.473-6.875-15.343-15.355-15.343s-15.355 6.87-15.355 15.344c0 8.473 6.875 15.343 15.355 15.343z" fill="#A0616A"/><path d="M59.836 28.887l6.756 15.343-18.426 26.39s-1.228-28.845-4.914-33.755c-3.685-4.91 16.584-7.978 16.584-7.978z" fill="#A0616A"/><path d="M51.237 60.8l3.071-7.978 2.457.614 3.07-2.455 4.3-13.502 6.142 4.296 7.985 80.398-49.75 1.227 6.756-55.849 6.142-15.957 4.433-5.856 2.937 8.925 2.457 6.137z" fill="#CFCCE0"/><path d="M65.364 95.17l1.88-55.517s3.647.28 4.876 2.122c1.228 1.841 21.497 5.524 21.497 5.524l-3.685 57.076s15.355 45.416 9.827 47.87c-5.528 2.455-15.355 1.842-15.355 1.842l-19.04-58.918zm-29.789-7.059l6.515-37.416-14.5 9.798 3.685 27.004-3.07 18.412s-11.67 50.939-7.985 52.78c3.685 1.841 7.984 0 7.984 0l7.37-51.553V88.111z" fill="#575A89"/><path d="M31.89 59.266l-4.3 1.228-1.843 24.549-3.07 21.48-14.741 26.39s7.37-4.91 10.441 9.206l16.234-28.242-2.721-54.61z" fill="#575A89"/><path d="M79.797 128.617S62.6 142.119 71.2 145.187c8.598 3.069 14.126-11.047 14.126-11.047l-5.528-5.523z" fill="#A0616A"/><path d="M90.24 135.368l-5.53 6.751-7.37-12.889 3.072-5.523 9.827 11.661z" fill="#CFCCE0"/><path d="M89.01 49.447l4.914-2.455s3.685 4.91 4.3 9.206c.614 4.296 3.685 9.82 3.685 12.888 0 3.068 8.599 31.913 8.599 31.913l-19.655 39.892s-4.3-14.729-13.512-15.956l15.355-21.481-8.6-15.343 4.914-38.664z" fill="#575A89"/><path d="M61.328 10.279l2.895-1.158S58.17 2.46 49.745 3.039l2.37-2.606s-5.792-2.316-11.056 3.765c-2.768 3.196-5.97 6.954-7.966 11.187h-3.101l1.294 2.847-4.53 2.848 4.65-.512a15.898 15.898 0 00-.126 4.723 6.11 6.11 0 002.24 3.998s3.59-7.427 3.59-8.585v2.895s2.896-2.606 2.896-4.343l1.58 2.027.789-3.186 9.74 3.186-1.58-2.606 6.054.868-2.369-3.185s6.844 3.764 7.108 6.95c.263 3.185 2.266 6.203 2.266 6.203s5.367-14.89-2.267-19.234z" fill="#2F2E41"/><path d="M61.064 24.59c.95 0 1.72-.961 1.72-2.147 0-1.187-.77-2.148-1.72-2.148s-1.72.961-1.72 2.148c0 1.186.77 2.148 1.72 2.148z" fill="#A0616A"/></svg>