<svg width="78" height="280" fill="none" xmlns="http://www.w3.org/2000/svg"><path d="M58.032 13.87C53.182 2.436 40.838.277 40.838.277S28.95-2.89 19.025 12.2C9.773 26.264-2.16 39.44 12.973 45.056l3.996-8.388.48 9.653c2.2.458 4.424.795 6.661 1.01 16.784 1.703 32.606 4.536 32.899-1.525.39-8.056 5.69-20.934 1.023-31.936z" fill="#2F2E41"/><path d="M6.826 105.433l-1.08 27.518s-11.34 22.122-2.16 21.583c9.18-.54 8.1-21.583 8.1-21.583l3.24-25.9-8.1-1.618zm62.1-4.857l3.24 27.519s9.72 14.568 2.16 19.424c-7.56 4.856-7.56-17.266-7.56-17.266l-8.1-28.058 10.26-1.619zm-11.34 51.26l-9.72 37.77s-4.32 15.108-10.26 22.662l-2.16 4.316-8.64-1.079 5.94-24.281 3.78-44.784 21.06 5.396z" fill="#FFB8B8"/><path opacity=".1" d="M57.586 151.836l-9.72 37.77s-4.32 15.108-10.26 22.662l-2.16 4.316-8.64-1.079 5.94-24.281 3.78-44.784 21.06 5.396z" fill="#000"/><path d="M24.669 209.481l14.767 3.417-6.086 14.336s2.474 8.583.117 13.128c-2.356 4.545-2.016 12.792-2.016 12.792l-3.2-.504s-7.771 14.618-16.953 10.442c-9.181-4.176.585-14.11.585-14.11s7.938-15.684 8.946-22.08c1.009-6.396 3.84-17.421 3.84-17.421z" fill="#2F2E41"/><path opacity=".1" d="M24.669 209.481l14.767 3.417-6.086 14.336s2.474 8.583.117 13.128c-2.356 4.545-2.016 12.792-2.016 12.792l-3.2-.504s-7.771 14.618-16.953 10.442c-9.181-4.176.585-14.11.585-14.11s7.938-15.684 8.946-22.08c1.009-6.396 3.84-17.421 3.84-17.421z" fill="#000"/><path d="M12.226 143.742l8.1 40.468s-2.7 19.964.54 32.374l3.24 11.871h10.8V184.75s.54-35.612-1.08-38.31c-1.62-2.698-21.6-2.698-21.6-2.698z" fill="#FFB8B8"/><path d="M37.066 224.138l-15.12 1.079 3.78 15.108s-3.78 8.094-2.16 12.95c1.62 4.856 0 12.95 0 12.95h3.24s5.4 15.647 15.12 12.95c9.72-2.698 1.62-14.029 1.62-14.029s-5.4-16.727-5.4-23.202c0-6.475-1.08-17.806-1.08-17.806z" fill="#2F2E41"/><path d="M40.846 37.446c8.052 0 14.58-6.522 14.58-14.568S48.898 8.31 40.846 8.31s-14.58 6.522-14.58 14.568 6.528 14.568 14.58 14.568z" fill="#FFB8B8"/><path d="M30.856 28.544s1.08 18.345-2.16 19.424c-3.24 1.08 16.74 0 16.74 0s-2.7-11.331 0-14.568c2.7-3.238-14.58-4.856-14.58-4.856z" fill="#FFB8B8"/><path d="M45.706 45s-14.04-1.078-16.74 0c-2.7 1.08-10.26 6.475-10.26 6.475l3.78 33.994 30.78 6.474 4.86-7.014 4.86-10.252-2.16-12.95-.54-7.554-14.58-9.172z" fill="#6C63FF"/><path d="M16.006 53.633s-7.02 1.62-7.56 7.015c-.54 5.396-.54 18.885 0 21.043.54 2.159 0 3.238-.54 3.777-.54.54-1.62-.54-.54 1.08 1.08 1.618 1.08 1.618.54 3.237s-2.16-.54-1.08 2.158 1.62 3.238 1.08 3.777c-.54.54-2.16 12.95-2.16 12.95l9.18 1.619 9.18-31.835-8.1-24.82zm42.12 0a5.758 5.758 0 014.86 3.238c1.62 3.237 5.94 24.28 5.4 25.9-.54 1.618-1.62-.54-.54 2.697 1.08 3.238 0 2.698.54 4.856.54 2.159-2.16 0 0 2.159 2.16 2.158 3.24 2.698 2.16 3.777-1.08 1.079-2.7-1.08-1.08 1.079 1.62 2.158 1.62 5.396 1.62 5.396l-12.96 2.697-3.78-30.216 3.78-21.582z" fill="#6C63FF"/><path d="M14.316 52.776l2.653-1.326a2.271 2.271 0 013.055 1.033l12.182 24.892 13.5 8.633 9.72-4.317s7.02-10.791 4.86-16.187c-1.465-3.658-3.18-9.287-4.133-12.532a.968.968 0 01.91-1.241.97.97 0 01.56.164l1.841 1.226c.59.392 1 1 1.143 1.694l3.999 19.322-5.4 11.331V96.26l3.78 58.273s-14.04-2.158-28.08-4.856-31.86-4.856-31.86-4.856 9.18-47.482 16.74-55.576c0 0 0-5.935 1.08-6.475s2.16-4.316 2.16-4.316L13.245 55.7a2.267 2.267 0 011.071-2.925zM55.29 9.716L42.92 3.241 25.834 5.89l-3.535 15.6 8.8-.339 2.457-5.73v5.636l4.06-.156 2.357-9.124 1.473 9.713 14.433-.295-.589-11.479z" fill="#2F2E41"/><path d="M25.996 25.71c.895 0 1.62-1.267 1.62-2.832 0-1.564-.725-2.833-1.62-2.833-.894 0-1.62 1.269-1.62 2.833 0 1.565.726 2.833 1.62 2.833z" fill="#FFB8B8"/></svg>