<svg width="570" height="330" fill="none" xmlns="http://www.w3.org/2000/svg"><g clip-path="url(#clip0)"><path d="M564.797 293.78H0v1.312h564.797v-1.312z" fill="#3F3D56"/><path d="M73.085 56.637C68.235 45.203 55.89 43.044 55.89 43.044s-11.886-3.169-21.813 11.921c-9.252 14.065-21.184 27.243-6.052 32.857l3.997-8.388.48 9.653c2.2.458 4.424.795 6.66 1.01 16.785 1.704 32.606 4.537 32.9-1.524.389-8.057 5.689-20.935 1.023-31.936z" fill="#2F2E41"/><path d="M21.879 148.199l-1.08 27.518s-11.34 22.123-2.16 21.583c9.18-.539 8.1-21.583 8.1-21.583l3.24-25.899-8.1-1.619zm62.099-4.856l3.24 27.518s9.72 14.569 2.16 19.425c-7.56 4.856-7.56-17.267-7.56-17.267l-8.1-28.057 10.26-1.619zm-11.34 51.259l-9.72 37.77s-4.32 15.108-10.26 22.662l-2.16 4.317-8.64-1.079 5.94-24.281 3.78-44.784 21.06 5.395z" fill="#FFB8B8"/><path opacity=".1" d="M72.638 194.602l-9.72 37.77s-4.32 15.108-10.26 22.662l-2.16 4.317-8.64-1.079 5.94-24.281 3.78-44.784 21.06 5.395z" fill="#000"/><path d="M39.721 252.248l14.768 3.416-6.086 14.337s2.473 8.582.117 13.128c-2.357 4.545-2.017 12.792-2.017 12.792l-3.2-.504s-7.77 14.617-16.952 10.441c-9.181-4.176.584-14.109.584-14.109s7.939-15.684 8.947-22.08c1.008-6.396 3.84-17.421 3.84-17.421z" fill="#2F2E41"/><path opacity=".1" d="M39.721 252.248l14.768 3.416-6.086 14.337s2.473 8.582.117 13.128c-2.357 4.545-2.017 12.792-2.017 12.792l-3.2-.504s-7.77 14.617-16.952 10.441c-9.181-4.176.584-14.109.584-14.109s7.939-15.684 8.947-22.08c1.008-6.396 3.84-17.421 3.84-17.421z" fill="#000"/><path d="M27.279 186.509l8.1 40.468s-2.7 19.964.54 32.374l3.24 11.87h10.8v-43.705s.54-35.612-1.08-38.309c-1.62-2.698-21.6-2.698-21.6-2.698z" fill="#FFB8B8"/><path d="M52.119 266.905l-15.12 1.079 3.78 15.108s-3.78 8.094-2.16 12.95c1.62 4.856 0 12.95 0 12.95h3.24s5.4 15.647 15.12 12.949c9.72-2.698 1.62-14.029 1.62-14.029s-5.4-16.726-5.4-23.201c0-6.475-1.08-17.806-1.08-17.806z" fill="#2F2E41"/><path d="M55.898 80.213c8.053 0 14.58-6.522 14.58-14.568s-6.527-14.569-14.58-14.569c-8.052 0-14.58 6.523-14.58 14.569 0 8.046 6.528 14.568 14.58 14.568z" fill="#FFB8B8"/><path d="M45.909 71.31s1.08 18.346-2.16 19.425c-3.24 1.079 16.74 0 16.74 0s-2.7-11.331 0-14.569c2.7-3.237-14.58-4.856-14.58-4.856z" fill="#FFB8B8"/><path d="M60.758 87.767s-14.04-1.079-16.74 0c-2.7 1.08-10.26 6.475-10.26 6.475l3.78 33.993 30.78 6.475 4.86-7.015 4.86-10.251-2.16-12.95-.54-7.554-14.58-9.173z" fill="#6C63FF"/><path d="M31.059 96.4s-7.02 1.619-7.56 7.015c-.54 5.395-.54 18.885 0 21.043.54 2.158 0 3.237-.54 3.777s-1.62-.54-.54 1.079 1.08 1.619.54 3.238c-.54 1.618-2.16-.54-1.08 2.158s1.62 3.237 1.08 3.777c-.54.539-2.16 12.95-2.16 12.95l9.18 1.618 9.18-31.834-8.1-24.82zm42.119 0a5.757 5.757 0 014.86 3.238c1.62 3.237 5.94 24.28 5.4 25.899-.54 1.619-1.62-.539-.54 2.698s0 2.698.54 4.856-2.16 0 0 2.158c2.16 2.159 3.24 2.698 2.16 3.777-1.08 1.08-2.7-1.079-1.08 1.08 1.62 2.158 1.62 5.395 1.62 5.395l-12.96 2.698-3.78-30.216 3.78-21.583z" fill="#6C63FF"/><path d="M29.368 95.542l2.653-1.325a2.272 2.272 0 013.056 1.033l12.182 24.891 13.5 8.634 9.72-4.317s7.02-10.791 4.86-16.187c-1.465-3.659-3.18-9.287-4.134-12.533a.969.969 0 011.471-1.077l1.84 1.226c.59.393 1 1.001 1.144 1.694l3.998 19.323-5.4 11.331v10.791l3.78 58.274s-14.04-2.158-28.08-4.856-31.86-4.856-31.86-4.856 9.18-47.482 16.74-55.576c0 0 0-5.935 1.08-6.475 1.08-.539 2.16-4.316 2.16-4.316l-9.78-22.754a2.267 2.267 0 011.07-2.925zm40.975-43.059L57.97 46.007l-17.085 2.65-3.535 15.6 8.8-.34 2.457-5.73v5.636l4.061-.155 2.356-9.125 1.473 9.713 14.434-.294-.59-11.48z" fill="#2F2E41"/><path d="M41.049 68.477c.894 0 1.62-1.268 1.62-2.832 0-1.565-.726-2.833-1.62-2.833-.895 0-1.62 1.268-1.62 2.833 0 1.564.725 2.832 1.62 2.832z" fill="#FFB8B8"/><g filter="url(#filter0_d)"><path d="M475.038 0H110.429v186.851h364.609V0z" fill="#3F3D56"/></g><path d="M266.732 102.934h-75.595a.855.855 0 01-.856-.855V71.865a.862.862 0 01.529-.79.854.854 0 01.327-.066h75.595a.857.857 0 01.856.856v30.214a.855.855 0 01-.856.855zm-74.738-1.711h73.882V72.72h-73.882v28.503zm31.271 21.54h-32.128a.854.854 0 01-.856-.856v-12.841a.863.863 0 01.529-.791.855.855 0 01.327-.065h32.128a.857.857 0 01.856.856v12.841a.838.838 0 01-.25.605.854.854 0 01-.606.251zm-31.271-1.711h30.415v-11.131h-30.415v11.131zm74.738 1.711h-32.128a.855.855 0 01-.856-.856v-12.841a.857.857 0 01.856-.856h32.128a.857.857 0 01.856.856v12.841a.857.857 0 01-.856.856zm-31.271-1.711h30.415v-11.131h-30.415v11.131z" fill="#fff"/><path d="M265.788 101.99a.857.857 0 01-.313-.059l-74.65-29.27a.852.852 0 01-.543-.78.858.858 0 01.839-.871.853.853 0 01.329.059l74.65 29.27a.855.855 0 01-.312 1.651z" fill="#fff"/><path d="M191.138 102.934a.853.853 0 01-.841-.693.858.858 0 01.522-.957l75.596-30.214a.856.856 0 01.635 1.59l-75.594 30.213a.864.864 0 01-.318.061zm31.655 19.357a.867.867 0 01-.314-.06l-31.183-12.275a.853.853 0 01-.481-1.109.856.856 0 011.109-.483l31.182 12.275a.857.857 0 01.233 1.455.857.857 0 01-.546.197z" fill="#fff"/><path d="M191.61 122.291a.858.858 0 01-.742-1.283.851.851 0 01.449-.376l31.183-11.331a.87.87 0 01.657.027.847.847 0 01.444.483.847.847 0 01-.03.656.861.861 0 01-.485.442l-31.184 11.33a.852.852 0 01-.292.052zm74.65 0a.858.858 0 01-.301-.055l-30.238-11.33a.856.856 0 01.602-1.602l30.238 11.33a.851.851 0 01.542.954.859.859 0 01-.843.703z" fill="#fff"/><path d="M236.022 121.347a.857.857 0 01-.735-1.293.85.85 0 01.457-.371l30.237-10.387a.854.854 0 01.923.241.85.85 0 01.128.943.851.851 0 01-.494.434L236.301 121.3a.856.856 0 01-.279.047zM144.48 54.738a12.847 12.847 0 01-11.864-7.921 12.824 12.824 0 012.784-13.984 12.845 12.845 0 0113.994-2.781 12.824 12.824 0 017.928 11.855 12.84 12.84 0 01-3.766 9.068 12.86 12.86 0 01-9.076 3.763zm0-23.952a11.135 11.135 0 00-10.282 6.865 11.11 11.11 0 002.413 12.119 11.128 11.128 0 0012.128 2.41 11.127 11.127 0 006.871-10.274 11.13 11.13 0 00-3.264-7.86 11.145 11.145 0 00-7.866-3.26zm84.754 23.952a12.837 12.837 0 01-11.864-7.921 12.826 12.826 0 019.359-17.496 12.85 12.85 0 0113.182 5.457 12.824 12.824 0 012.164 7.128 12.839 12.839 0 01-3.765 9.07 12.86 12.86 0 01-9.076 3.762zm0-23.952a11.135 11.135 0 00-10.282 6.865 11.111 11.111 0 002.412 12.119 11.135 11.135 0 0017.123-1.685 11.114 11.114 0 001.876-6.179 11.128 11.128 0 00-3.263-7.86 11.149 11.149 0 00-7.866-3.26zm105.3 23.952a12.85 12.85 0 01-7.135-2.163 12.831 12.831 0 01-5.46-13.172 12.824 12.824 0 013.514-6.57 12.845 12.845 0 0113.995-2.781 12.824 12.824 0 017.927 11.855 12.843 12.843 0 01-3.765 9.068 12.862 12.862 0 01-9.076 3.763zm0-23.952a11.128 11.128 0 00-10.283 6.865 11.119 11.119 0 008.111 15.162 11.136 11.136 0 0011.425-4.728 11.114 11.114 0 001.876-6.179 11.13 11.13 0 00-3.264-7.86 11.145 11.145 0 00-7.865-3.26zm110.321 23.952a12.85 12.85 0 01-11.864-7.921 12.826 12.826 0 012.784-13.984 12.845 12.845 0 0113.995-2.781 12.824 12.824 0 017.927 11.855 12.843 12.843 0 01-3.765 9.068 12.863 12.863 0 01-9.077 3.763zm0-23.952a11.127 11.127 0 00-10.282 6.865 11.119 11.119 0 008.111 15.162 11.136 11.136 0 0011.425-4.728 11.114 11.114 0 001.876-6.179 11.13 11.13 0 00-3.264-7.86 11.145 11.145 0 00-7.866-3.26z" fill="#fff"/><path d="M226.962 45.867v-.648l.827-.802c1.992-1.893 2.891-2.9 2.903-4.075a1.386 1.386 0 00-.933-1.456 1.39 1.39 0 00-.614-.065 2.655 2.655 0 00-1.655.659l-.336-.743a3.423 3.423 0 012.207-.791 2.194 2.194 0 012.386 2.265c0 1.437-1.043 2.6-2.686 4.181l-.624.576v.023h3.502v.876h-4.977zm-82.766-6.873h-.024l-1.355.731-.204-.803 1.703-.91h.9V45.8h-1.02v-6.807zM445.623 45.8v-2.12h-3.622v-.695l3.478-4.973h1.14v4.841h1.091v.827h-1.091v2.12h-.996zm0-2.947v-2.6c0-.407.012-.815.037-1.222h-.037a22.2 22.2 0 01-.647 1.15l-1.907 2.648v.024h2.554zM333.215 44.59c.524.31 1.118.479 1.727.492 1.356 0 1.775-.863 1.763-1.51-.012-1.09-.996-1.558-2.014-1.558h-.589v-.791h.589c.767 0 1.739-.395 1.739-1.318 0-.623-.397-1.175-1.368-1.175a2.85 2.85 0 00-1.558.517l-.276-.767a3.7 3.7 0 012.038-.6c1.535 0 2.23.91 2.23 1.858a1.93 1.93 0 01-1.439 1.833v.024a2.032 2.032 0 011.739 2c0 1.247-.972 2.338-2.842 2.338a3.953 3.953 0 01-2.026-.528l.287-.815zm41.385 77.317h-75.594a.857.857 0 01-.857-.855V72.72a.857.857 0 01.857-.855H374.6a.857.857 0 01.856.855v48.332a.867.867 0 01-.25.605.867.867 0 01-.606.25zm-74.738-1.711h73.882v-46.62h-73.882v46.62z" fill="#fff"/><path d="M361.073 82.558h-46.23a.857.857 0 010-1.711h46.23a.856.856 0 010 1.71zm0 7.698h-46.23a.856.856 0 110-1.71h46.23a.857.857 0 010 1.71zm0 7.699h-46.23a.857.857 0 010-1.71h46.23a.857.857 0 010 1.71zm0 7.699h-46.23a.844.844 0 01-.606-.25.862.862 0 01-.252-.605.857.857 0 01.858-.856h46.23a.855.855 0 110 1.711zm0 7.699h-46.23a.855.855 0 110-1.711h46.23a.844.844 0 01.606.25.862.862 0 01.252.605.857.857 0 01-.858.856zM126.799 74.24a.878.878 0 000-1.757.883.883 0 00-.85.879.88.88 0 00.85.878zm0 9.41a.878.878 0 000-1.757.883.883 0 00-.85.879.88.88 0 00.85.878zm0 9.41a.878.878 0 000-1.757.882.882 0 00-.85.878.88.88 0 00.85.879zm0 9.409a.877.877 0 00.602-1.489.879.879 0 00-.602-.268.883.883 0 00-.85.879.881.881 0 00.85.878zm0 9.41a.879.879 0 000-1.757.883.883 0 00-.85.879.88.88 0 00.85.878zm0 9.41a.879.879 0 000-1.757.881.881 0 00-.603 1.489c.159.164.375.26.603.268zm35.659-47.072h-27.395a.855.855 0 110-1.71h27.395a.857.857 0 010 1.71zm0 9.41h-27.395a.858.858 0 01-.793-1.184.865.865 0 01.465-.463.856.856 0 01.328-.064h27.395a.861.861 0 01.607.25.849.849 0 01.252.605.859.859 0 01-.859.856zm0 9.409h-27.395a.855.855 0 110-1.71h27.395a.861.861 0 01.607.25.847.847 0 01.252.605.859.859 0 01-.859.855zm0 9.41h-27.395a.856.856 0 110-1.711h27.395a.865.865 0 01.607.25.854.854 0 01-.607 1.461zm0 9.41h-27.395a.853.853 0 01-.856-.856.853.853 0 01.856-.855h27.395a.854.854 0 01.793.528.853.853 0 01-.793 1.183zm0 9.41h-27.395a.86.86 0 01-.858-.856.86.86 0 01.251-.606.871.871 0 01.607-.249h27.395a.846.846 0 01.607.249.854.854 0 01-.278 1.397.865.865 0 01-.329.065zm291.612 3.906h-18.428a4.605 4.605 0 01-4.599-4.594V73.193a4.6 4.6 0 014.599-4.593h2.235a.859.859 0 01.852.766.857.857 0 01-.058.41.928.928 0 00.088.862.925.925 0 00.764.409h10.507a.926.926 0 00.916-.828.914.914 0 00-.063-.441.858.858 0 01.082-.8.858.858 0 01.711-.378h2.394a4.603 4.603 0 014.597 4.593v47.385a4.597 4.597 0 01-4.597 4.594zm-18.428-54.861a2.884 2.884 0 00-2.886 2.882v47.385a2.888 2.888 0 002.886 2.883h18.428a2.888 2.888 0 002.885-2.883V73.193a2.884 2.884 0 00-2.885-2.882h-1.414a2.633 2.633 0 01-2.626 2.447h-10.507a2.637 2.637 0 01-2.626-2.447h-1.255zm-18.067 27.644h-23.971a.855.855 0 110-1.71h21.904l-4.959-4.956a.853.853 0 010-1.21.855.855 0 011.21 0l6.421 6.416a.853.853 0 01-.605 1.46z" fill="#fff"/><path d="M411.582 103.943a.853.853 0 01-.839-1.022.854.854 0 01.234-.438l5.993-5.988a.855.855 0 111.21 1.21l-5.992 5.988a.867.867 0 01-.606.25z" fill="#fff"/><path d="M459.778 169.954h-27.991a97.757 97.757 0 010-33.348h27.991a59.967 59.967 0 000 33.348z" fill="#FF6584"/><path d="M304.365 164.221h27.991a97.757 97.757 0 000-33.348h-27.991a59.949 59.949 0 010 33.348zm42.598 9.378h27.991a97.751 97.751 0 000-33.347h-27.991a59.945 59.945 0 010 33.347z" fill="#6C63FF"/><path d="M327.94 140.589h-17.033c-.294 0-.533-.383-.533-.856 0-.472.239-.855.533-.855h17.033c.294 0 .532.383.532.855 0 .473-.238.856-.532.856zm0 7.936h-17.033c-.294 0-.533-.383-.533-.856s.239-.855.533-.855h17.033c.294 0 .532.382.532.855s-.238.856-.532.856zm42.598 5.05h-17.033c-.294 0-.533-.383-.533-.856s.239-.855.533-.855h17.033c.294 0 .532.382.532.855s-.238.856-.532.856zm0 7.935h-17.033c-.294 0-.533-.382-.533-.855s.239-.855.533-.855h17.033c.294 0 .532.382.532.855s-.238.855-.532.855zm83.029-15.871h-17.033c-.294 0-.532-.383-.532-.856 0-.472.238-.855.532-.855h17.033c.294 0 .533.383.533.855 0 .473-.239.856-.533.856zm0 7.936h-17.033c-.294 0-.532-.383-.532-.856s.238-.855.532-.855h17.033c.294 0 .533.382.533.855s-.239.856-.533.856zM327.94 156.46h-17.033c-.294 0-.533-.382-.533-.855s.239-.855.533-.855h17.033c.294 0 .532.382.532.855s-.238.855-.532.855z" fill="#fff"/><path d="M163.576 164.942h27.991a97.757 97.757 0 000-33.348h-27.991a59.967 59.967 0 010 33.348z" fill="#6C63FF"/><path d="M187.15 141.31h-17.033c-.294 0-.532-.382-.532-.855s.238-.856.532-.856h17.033c.294 0 .533.383.533.856s-.239.855-.533.855zm0 7.936h-17.033c-.294 0-.532-.383-.532-.855 0-.473.238-.856.532-.856h17.033c.294 0 .533.383.533.856 0 .472-.239.855-.533.855zm0 7.936h-17.033c-.294 0-.532-.383-.532-.856 0-.472.238-.855.532-.855h17.033c.294 0 .533.383.533.855 0 .473-.239.856-.533.856z" fill="#fff"/><path d="M83.268 217.658h27.991a97.757 97.757 0 000-33.348H83.268a59.96 59.96 0 010 33.348z" fill="#6C63FF"/><path d="M106.843 194.026H89.809c-.293 0-.532-.383-.532-.855 0-.473.239-.856.532-.856h17.034c.293 0 .532.383.532.856 0 .472-.239.855-.532.855zm0 7.936H89.809c-.293 0-.532-.383-.532-.856s.239-.855.532-.855h17.034c.293 0 .532.382.532.855s-.239.856-.532.856zm0 7.935H89.809c-.293 0-.532-.382-.532-.855s.239-.855.532-.855h17.034c.293 0 .532.382.532.855s-.239.855-.532.855z" fill="#fff"/><path d="M470.499 155.62s-17.198 13.502-8.599 16.571c8.599 3.068 14.127-11.047 14.127-11.047l-5.528-5.524z" fill="#A0616A"/><path d="M471.113 150.71l-3.685 6.137s6.142 0 7.37 9.206l4.914-6.137-8.599-9.206z" fill="#CFCCE0"/><path d="M552.803 290.639l.613 18.412-7.37 4.296-3.071-1.841.614-20.867h9.214zm-43.609-4.91l1.228 19.64-17.198 7.364 1.229-10.433s4.914-7.978 3.685-16.571h11.056z" fill="#A0616A"/><path d="M535.605 137.822s9.827 25.776 11.669 41.733c1.843 15.957 4.914 58.304 4.914 58.304l6.142 54.621-17.198 2.455-7.37-55.235-16.584-54.621-3.685 54.621-3.071 49.712-15.969.614-1.228-51.553-6.757-65.669 3.685-31.3 45.452-3.682zm9.213 172.456s1.007-10.307 8.488-4.54l1.339-.983 6.142 13.502s7.37 10.433-5.528 11.661c-12.898 1.227-11.67-11.661-11.67-11.661l-1.228-5.524.614-3.617 1.843 1.162zm-35.624-12.274a9.754 9.754 0 014.913 8.592c0 6.137-.614 6.751-.614 6.751l-9.213 2.455s-6.142-.614-9.827 3.069c-3.685 3.682-22.111 6.137-22.111 1.227 0-4.91 15.355-12.888 15.355-12.888s4.56-7.695 7.808-6.916c3.247.779 4.476 2.006 4.476 2.62 0 .613-1.843 4.91-1.843 4.91s10.442-2.455 11.056-9.82z" fill="#2F2E41"/><path d="M507.965 62.334c8.481 0 15.355-6.87 15.355-15.343 0-8.474-6.874-15.343-15.355-15.343-8.48 0-15.355 6.87-15.355 15.343 0 8.474 6.875 15.343 15.355 15.343z" fill="#A0616A"/><path d="M519.328 50.98l6.756 15.343-18.426 26.39s-1.228-28.845-4.913-33.754c-3.686-4.91 16.583-7.979 16.583-7.979z" fill="#A0616A"/><path d="M510.73 82.894l3.071-7.979 2.456.614 3.071-2.455 4.299-13.502 6.142 4.296 7.986 80.398-49.751 1.227 6.756-55.848 6.142-15.957 4.433-5.856 2.937 8.924 2.458 6.138z" fill="#CFCCE0"/><path d="M524.856 117.262l1.879-55.516s3.649.281 4.877 2.122c1.229 1.841 21.497 5.524 21.497 5.524l-3.685 57.076s15.355 45.416 9.827 47.871c-5.527 2.455-15.355 1.841-15.355 1.841l-19.04-58.918zm-29.789-7.058l6.516-37.415-14.501 9.798 3.686 27.004-3.071 18.411s-11.67 50.939-7.985 52.781c3.685 1.841 7.985 0 7.985 0l7.37-51.553v-19.026z" fill="#575A89"/><path d="M491.382 81.36l-4.3 1.227-1.842 24.549-3.071 21.48-14.741 26.39s7.37-4.91 10.441 9.206l16.234-28.242-2.721-54.61z" fill="#575A89"/><path d="M539.29 150.71s-17.198 13.502-8.599 16.571c8.599 3.068 14.127-11.047 14.127-11.047l-5.528-5.524z" fill="#A0616A"/><path d="M549.732 157.461l-5.529 6.751-7.37-12.888 3.071-5.524 9.828 11.661z" fill="#CFCCE0"/><path d="M548.503 71.54l4.914-2.455s3.685 4.91 4.299 9.206c.614 4.296 3.685 9.82 3.685 12.888 0 3.069 8.599 31.914 8.599 31.914l-19.655 39.892s-4.299-14.73-13.512-15.957l15.355-21.48-8.599-15.344 4.914-38.664z" fill="#575A89"/><path d="M520.82 32.372l2.895-1.158s-6.054-6.66-14.477-6.081l2.369-2.606s-5.791-2.317-11.056 3.764c-2.767 3.197-5.969 6.954-7.966 11.187h-3.101l1.295 2.848-4.53 2.847 4.649-.511a15.915 15.915 0 00-.126 4.723 6.113 6.113 0 002.24 3.998s3.591-7.428 3.591-8.586v2.896s2.895-2.606 2.895-4.344l1.58 2.027.789-3.185 9.74 3.185-1.58-2.606 6.055.869-2.369-3.186s6.844 3.765 7.107 6.95c.263 3.186 2.266 6.204 2.266 6.204s5.368-14.891-2.266-19.235z" fill="#2F2E41"/><path d="M520.557 46.684c.949 0 1.719-.962 1.719-2.148 0-1.186-.77-2.148-1.719-2.148-.95 0-1.72.962-1.72 2.148 0 1.186.77 2.148 1.72 2.148z" fill="#A0616A"/></g><defs><clipPath id="clip0"><path fill="#fff" d="M0 0h570v330H0z"/></clipPath><filter id="filter0_d" x="98.429" y="-8" width="388.609" height="210.851" filterUnits="userSpaceOnUse" color-interpolation-filters="sRGB"><feFlood flood-opacity="0" result="BackgroundImageFix"/><feColorMatrix in="SourceAlpha" values="0 0 0 0 0 0 0 0 0 0 0 0 0 0 0 0 0 0 127 0"/><feOffset dy="4"/><feGaussianBlur stdDeviation="6"/><feColorMatrix values="0 0 0 0 0 0 0 0 0 0 0 0 0 0 0 0 0 0 0.25 0"/><feBlend in2="BackgroundImageFix" result="effect1_dropShadow"/><feBlend in="SourceGraphic" in2="effect1_dropShadow" result="shape"/></filter></defs></svg>