<svg width="230" height="141" fill="none" xmlns="http://www.w3.org/2000/svg"><g clip-path="url(#clip0)"><path d="M27.794 140.207l-.395-.089c4.401-19.571 15.46-37.344 31.142-50.044a89.838 89.838 0 01144.06 49.806l-.394.089c-9.317-40.904-45.166-69.472-87.18-69.472-41.463 0-78.15 29.317-87.233 69.71z" fill="#3F3D56"/><path d="M84.38 25.027c6.069 0 10.988-4.92 10.988-10.988S90.448 3.052 84.38 3.052c-6.069 0-10.988 4.92-10.988 10.987 0 6.068 4.92 10.988 10.987 10.988z" fill="#FF6584"/><path d="M37.045 137.711c.343 1.267 1.516 2.052 1.516 2.052s.618-1.27.276-2.536c-.343-1.267-1.517-2.052-1.517-2.052s-.618 1.27-.275 2.536z" fill="#3F3D56"/><path d="M37.548 137.439c.94.915 1.055 2.322 1.055 2.322s-1.41-.077-2.35-.992c-.94-.915-1.054-2.322-1.054-2.322s1.41.077 2.35.992z" fill="#6C63FF"/><path d="M63.14 137.711c.343 1.267 1.516 2.052 1.516 2.052s.618-1.27.276-2.536c-.343-1.267-1.517-2.052-1.517-2.052s-.618 1.27-.275 2.536z" fill="#3F3D56"/><path d="M63.643 137.439c.94.915 1.055 2.322 1.055 2.322s-1.41-.077-2.35-.992c-.94-.915-1.054-2.322-1.054-2.322s1.41.077 2.35.992z" fill="#6C63FF"/><path d="M68.314 36.814l-4.131-3.306 23.136-20.657h58.667V31.03l-38.01 25.615-39.662-19.831z" fill="#3F3D56"/><path d="M156.682 24.439V13.264h-7.789V16l-2.907-3.149-19.005 20.657-7.436 4.958-11.531 84.245 17.39 17.39h40.413V34.335l-9.135-9.896z" fill="#CCC"/><path d="M126.981 33.508H64.183v106.593h62.798V33.508z" fill="#F2F2F2"/><path d="M100.127 114.072H88.558v26.029h11.569v-26.029z" fill="#CCC"/><path d="M76.164 121.509v-4.131h-4.958v4.131h4.958zm-.414 3.305h-4.544v4.132h4.958v-4.132h-.413zm8.677-7.436h-4.958v4.131h4.958v-4.131zm0 7.436h-4.958v4.132h4.958v-4.132zm25.615-3.305v-4.131h-4.957v4.131h4.957zm-.413 3.305h-4.544v4.132h4.957v-4.132h-.413zm8.676-7.436h-4.958v4.131h4.958v-4.131zm0 7.436h-4.958v4.132h4.958v-4.132zm26.442-85.934v-4.132h-4.958v4.131h4.958zm-.413 3.305h-4.545v4.131h4.958v-4.131h-.413zm8.676-7.437h-4.958v4.131h4.958v-4.131zm0 7.437h-4.958v4.131h4.958v-4.131zm-8.263 19.831v-4.132h-4.958v4.132h4.958zm-.413 3.304h-4.545v4.132h4.958v-4.131h-.413zm8.676-7.436h-4.958v4.132h4.958v-4.132zm0 7.436h-4.958v4.132h4.958v-4.131zm-8.263 19.832V81.02h-4.958v4.132h4.958zm-.413 3.305h-4.545v4.132h4.958v-4.132h-.413zm8.676-7.437h-4.958v4.132h4.958V81.02zm0 7.437h-4.958v4.132h4.958v-4.132zm-8.263 19.831v-4.131h-4.958v4.131h4.958zm-.413 3.306h-4.545v4.131h4.958v-4.131h-.413zm8.676-7.437h-4.958v4.131h4.958v-4.131zm0 7.437h-4.958v4.131h4.958v-4.131zM119.131 38.88H71.206v9.915h47.925v-9.916zm0 19.83H71.206v9.916h47.925v-9.915zm0 19.832H71.206v9.915h47.925v-9.915zm0 19.831H71.206v9.915h47.925v-9.915zM230 139.685H0v.404h230v-.404z" fill="#3F3D56"/><path d="M39.705 92.974h-1.189v46.941h1.189V92.974z" fill="#3F3D56"/><path d="M50.672 98.956C50.748 115.37 39.2 128.73 39.2 128.73s-11.671-13.253-11.747-29.667C27.377 82.65 38.926 69.29 38.926 69.29s11.67 13.253 11.746 29.667z" fill="#6C63FF"/><path opacity=".1" d="M50.672 98.956C50.748 115.37 39.2 128.73 39.2 128.73s-11.671-13.253-11.747-29.667C27.377 82.65 38.926 69.29 38.926 69.29s11.67 13.253 11.746 29.667z" fill="#000"/><path d="M24.256 92.974h-1.189v46.941h1.189V92.974z" fill="#3F3D56"/><path d="M35.223 98.956C35.3 115.37 23.75 128.73 23.75 128.73s-11.67-13.253-11.746-29.667C11.928 82.65 23.477 69.29 23.477 69.29s11.67 13.253 11.746 29.667z" fill="#6C63FF"/><path d="M191.273 33.442c-9.361.043-16.981.181-16.981.181s9.057-11.997 16.947-7.552c7.89 4.445 16.953 7.396 16.953 7.396s-7.558-.068-16.919-.025zM35.31 56.503c-9.361.043-16.98.181-16.98.181s9.056-11.997 16.946-7.552c7.89 4.445 16.953 7.396 16.953 7.396s-7.558-.068-16.919-.025zM69.294 8.359c-9.361.043-16.98.181-16.98.181S61.37-3.457 69.26.988c7.89 4.445 16.953 7.396 16.953 7.396s-7.558-.069-16.919-.025z" fill="#F2F2F2"/><path d="M210.562 92.974h-1.189v46.941h1.189V92.974z" fill="#3F3D56"/><path d="M221.529 98.956c.076 16.414-11.472 29.774-11.472 29.774s-11.671-13.253-11.747-29.667c-.076-16.414 11.473-29.774 11.473-29.774s11.671 13.253 11.746 29.667z" fill="#6C63FF"/><path d="M166.819 110.778h11.994v-2.895h6.617v2.895h12.406v12.821H185.43v16.129h-6.617v-16.129h-11.994l-6.203-7.031 6.203-5.79z" fill="#3F3D56"/></g><defs><clipPath id="clip0"><path fill="#fff" d="M0 0h230v140.207H0z"/></clipPath></defs></svg>