<svg width="262" height="44" fill="none" xmlns="http://www.w3.org/2000/svg"><path d="M13.82 35.384c-2.432 0-4.752-.336-6.96-1.008-2.176-.672-3.92-1.6-5.232-2.784-.608-.512-.912-1.168-.912-1.968 0-.576.16-1.056.48-1.44.32-.416.704-.624 1.152-.624.448 0 .992.208 1.632.624 2.848 2.112 6.096 3.168 9.744 3.168 2.56 0 4.528-.48 5.904-1.44 1.376-.96 2.064-2.336 2.064-4.128 0-1.408-.64-2.464-1.92-3.168-1.28-.704-3.328-1.376-6.144-2.016-2.688-.576-4.896-1.232-6.624-1.968-1.728-.736-3.088-1.728-4.08-2.976-.96-1.28-1.44-2.896-1.44-4.848s.528-3.68 1.584-5.184C4.156 4.088 5.66 2.904 7.58 2.072 9.5 1.208 11.692.776 14.156.776c2.272 0 4.368.32 6.288.96 1.92.64 3.552 1.584 4.896 2.832.64.544.96 1.2.96 1.968 0 .544-.176 1.024-.528 1.44-.32.416-.704.624-1.152.624-.416 0-.944-.208-1.584-.624-1.472-1.12-2.864-1.92-4.176-2.4-1.28-.512-2.832-.768-4.656-.768-2.464 0-4.384.512-5.76 1.536-1.376.992-2.064 2.384-2.064 4.176 0 1.536.608 2.704 1.824 3.504 1.216.768 3.168 1.472 5.856 2.112 2.816.64 5.088 1.312 6.816 2.016 1.76.672 3.152 1.616 4.176 2.832 1.056 1.184 1.584 2.72 1.584 4.608 0 1.92-.544 3.632-1.632 5.136-1.056 1.472-2.56 2.624-4.512 3.456-1.92.8-4.144 1.2-6.672 1.2zm20.782-.144c-.704 0-1.296-.192-1.776-.576-.448-.384-.672-.96-.672-1.728V13.448c0-.768.224-1.344.672-1.728.48-.416 1.072-.624 1.776-.624s1.28.208 1.728.624c.448.384.672.96.672 1.728v19.488c0 .768-.224 1.344-.672 1.728-.448.384-1.024.576-1.728.576zm0-28.848c-.928 0-1.664-.256-2.208-.768-.544-.512-.816-1.184-.816-2.016 0-.832.272-1.488.816-1.968.544-.512 1.28-.768 2.208-.768.896 0 1.616.256 2.16.768.576.48.864 1.136.864 1.968 0 .832-.272 1.504-.816 2.016-.544.512-1.28.768-2.208.768zM70.659 11c5.248 0 7.872 3.152 7.872 9.456v12.48c0 .736-.224 1.312-.672 1.728-.448.384-1.04.576-1.776.576-.704 0-1.28-.192-1.728-.576-.448-.416-.672-.992-.672-1.728V20.504c0-1.952-.352-3.36-1.056-4.224-.704-.896-1.808-1.344-3.312-1.344-1.76 0-3.152.608-4.176 1.824-1.024 1.184-1.536 2.816-1.536 4.896v11.28c0 .736-.224 1.312-.672 1.728-.448.384-1.04.576-1.776.576-.704 0-1.28-.192-1.728-.576-.448-.416-.672-.992-.672-1.728V20.504c0-1.952-.352-3.36-1.056-4.224-.704-.896-1.808-1.344-3.312-1.344-1.76 0-3.168.608-4.224 1.824-1.024 1.184-1.536 2.816-1.536 4.896v11.28c0 .736-.224 1.312-.672 1.728-.448.384-1.024.576-1.728.576s-1.296-.192-1.776-.576c-.448-.416-.672-.992-.672-1.728V13.4c0-.704.24-1.264.72-1.68.48-.416 1.056-.624 1.728-.624.672 0 1.216.208 1.632.624.448.384.672.928.672 1.632v1.776c.704-1.344 1.68-2.368 2.928-3.072 1.248-.704 2.688-1.056 4.32-1.056 1.792 0 3.264.368 4.416 1.104 1.184.736 2.064 1.872 2.64 3.408.704-1.376 1.744-2.464 3.12-3.264C67.33 11.416 68.899 11 70.659 11zm27.086 0c2.016 0 3.808.512 5.376 1.536 1.6 1.024 2.832 2.464 3.696 4.32.896 1.856 1.344 4 1.344 6.432 0 2.4-.432 4.512-1.296 6.336-.864 1.824-2.096 3.232-3.696 4.224-1.568.992-3.376 1.488-5.424 1.488-1.76 0-3.312-.368-4.656-1.104-1.344-.768-2.368-1.856-3.072-3.264v10.704c0 .672-.224 1.2-.672 1.584-.416.416-.976.624-1.68.624-.736 0-1.344-.208-1.824-.624-.448-.416-.672-.976-.672-1.68V13.448c0-.704.224-1.264.672-1.68.448-.448 1.04-.672 1.776-.672.704 0 1.28.224 1.728.672.448.416.672.976.672 1.68v1.968c.704-1.408 1.728-2.496 3.072-3.264C94.433 11.384 95.985 11 97.745 11zm-1.152 20.496c2.112 0 3.744-.704 4.896-2.112 1.152-1.44 1.728-3.472 1.728-6.096 0-2.656-.592-4.72-1.776-6.192-1.152-1.472-2.768-2.208-4.848-2.208-2.112 0-3.744.72-4.896 2.16-1.12 1.44-1.68 3.488-1.68 6.144s.56 4.704 1.68 6.144c1.152 1.44 2.784 2.16 4.896 2.16zm19.384 3.744c-.704 0-1.296-.192-1.776-.576-.448-.384-.672-.96-.672-1.728V3.272c0-.768.224-1.344.672-1.728.48-.416 1.072-.624 1.776-.624s1.28.208 1.728.624c.448.384.672.96.672 1.728v29.664c0 .768-.224 1.344-.672 1.728-.448.384-1.024.576-1.728.576zm27.513-6.144c.448 0 .816.176 1.104.528.288.352.432.8.432 1.344 0 .928-.576 1.712-1.728 2.352a15.144 15.144 0 01-3.696 1.488c-1.312.352-2.576.528-3.792.528-3.712 0-6.64-1.072-8.784-3.216-2.144-2.176-3.216-5.136-3.216-8.88 0-2.4.464-4.528 1.392-6.384.96-1.856 2.288-3.296 3.984-4.32 1.728-1.024 3.68-1.536 5.856-1.536 3.136 0 5.616 1.008 7.44 3.024 1.824 2.016 2.736 4.736 2.736 8.16 0 1.28-.576 1.92-1.728 1.92h-14.832c.32 4.96 2.704 7.44 7.152 7.44 1.184 0 2.208-.16 3.072-.48.864-.32 1.776-.736 2.736-1.248.096-.064.352-.192.768-.384.448-.224.816-.336 1.104-.336zm-8.352-14.544c-1.856 0-3.344.592-4.464 1.776-1.12 1.184-1.792 2.848-2.016 4.992h12.384c-.096-2.176-.656-3.84-1.68-4.992-.992-1.184-2.4-1.776-4.224-1.776zm71.566-12.144c.192-.512.48-.896.864-1.152a2.284 2.284 0 011.296-.384c.608 0 1.136.208 1.584.624.48.384.72.896.72 1.536 0 .352-.064.672-.192.96l-10.608 29.664c-.224.544-.576.96-1.056 1.248a3.021 3.021 0 01-1.584.432 2.936 2.936 0 01-1.536-.432 2.3 2.3 0 01-1.008-1.248l-8.736-24.768-8.928 24.768a2.3 2.3 0 01-1.008 1.248c-.48.288-.992.432-1.536.432a3.021 3.021 0 01-1.584-.432c-.448-.288-.784-.704-1.008-1.248L161.776 3.992a2.338 2.338 0 01-.192-.96c0-.64.24-1.152.72-1.536.48-.416 1.056-.624 1.728-.624.48 0 .912.128 1.296.384.416.256.72.64.912 1.152l8.88 25.536 9.024-25.296c.192-.544.496-.96.912-1.248a2.615 2.615 0 011.44-.432c.512 0 .976.16 1.392.48.416.288.736.704.96 1.248l8.832 25.488 9.024-25.776zm25.192 26.688c.448 0 .816.176 1.104.528.288.352.432.8.432 1.344 0 .928-.576 1.712-1.728 2.352a15.144 15.144 0 01-3.696 1.488c-1.312.352-2.576.528-3.792.528-3.712 0-6.64-1.072-8.784-3.216-2.144-2.176-3.216-5.136-3.216-8.88 0-2.4.464-4.528 1.392-6.384.96-1.856 2.288-3.296 3.984-4.32 1.728-1.024 3.68-1.536 5.856-1.536 3.136 0 5.616 1.008 7.44 3.024 1.824 2.016 2.736 4.736 2.736 8.16 0 1.28-.576 1.92-1.728 1.92h-14.832c.32 4.96 2.704 7.44 7.152 7.44 1.184 0 2.208-.16 3.072-.48.864-.32 1.776-.736 2.736-1.248.096-.064.352-.192.768-.384.448-.224.816-.336 1.104-.336zm-8.352-14.544c-1.856 0-3.344.592-4.464 1.776-1.12 1.184-1.792 2.848-2.016 4.992h12.384c-.096-2.176-.656-3.84-1.68-4.992-.992-1.184-2.4-1.776-4.224-1.776zM251.542 11c2.048 0 3.856.496 5.424 1.488 1.568.992 2.784 2.4 3.648 4.224.896 1.824 1.344 3.952 1.344 6.384 0 2.4-.448 4.528-1.344 6.384-.864 1.856-2.096 3.296-3.696 4.32-1.568 1.024-3.36 1.536-5.376 1.536-1.76 0-3.312-.368-4.656-1.104-1.344-.768-2.368-1.856-3.072-3.264v1.92c0 .704-.224 1.28-.672 1.728-.416.416-.992.624-1.728.624s-1.328-.208-1.776-.624c-.448-.448-.672-1.024-.672-1.728V3.224c0-.704.224-1.264.672-1.68.48-.416 1.088-.624 1.824-.624.704 0 1.264.208 1.68.624.448.384.672.912.672 1.584v12.288c.704-1.408 1.728-2.496 3.072-3.264 1.344-.768 2.896-1.152 4.656-1.152zm-1.152 20.496c2.08 0 3.696-.736 4.848-2.208 1.184-1.472 1.776-3.536 1.776-6.192 0-2.624-.576-4.64-1.728-6.048-1.152-1.44-2.784-2.16-4.896-2.16s-3.744.72-4.896 2.16c-1.12 1.44-1.68 3.488-1.68 6.144s.56 4.704 1.68 6.144c1.152 1.44 2.784 2.16 4.896 2.16z" fill="#6C63FF"/></svg>