<svg width="230" height="165" fill="none" xmlns="http://www.w3.org/2000/svg"><g clip-path="url(#clip0)"><path opacity=".1" d="M226.358 110.67c-5.335 11.005-16.166 18.363-27.392 23.216-15.112 6.535-31.754 9.127-48.167 8.031a109.232 109.232 0 01-8.603-.918 108.471 108.471 0 01-28.765-8.376 103.68 103.68 0 01-7.766-3.897 99.312 99.312 0 01-15.002-10.211c-.652-.539-1.299-1.089-1.955-1.623-1.386-1.126-2.811-2.196-4.401-2.997-.48-.242-.972-.459-1.474-.651-5.035-1.915-10.842-1.192-16.084.301-3.987 1.137-7.874 2.693-11.857 3.803a39.218 39.218 0 01-5.403 1.148 28.745 28.745 0 01-12.14-1.066l-.334-.104c-.563-.177-1.12-.37-1.673-.58l-.335-.129a25.944 25.944 0 01-1.572-.664l-.336-.153a29.26 29.26 0 01-1.571-.789c-.185-.096-.368-.201-.549-.299a32.844 32.844 0 01-7.862-6.122c-.066-.066-.128-.134-.2-.2a31.027 31.027 0 01-1.272-1.458c-.36-.439-.707-.888-1.042-1.347-.05-.067-.098-.135-.146-.201a29.032 29.032 0 01-3.463-6.322c-.268-.69-.512-1.39-.733-2.102-.09-.298-.177-.603-.253-.9a6.611 6.611 0 01-.073-.267c-1.108-4.363-1.234-8.898-1.234-13.408V80.81c.032-7.294.144-14.712 1.22-21.906 0-.05.014-.1.022-.149.36-2.421.85-4.822 1.468-7.191a53.045 53.045 0 012.472-7.288c2.475-5.823 6.075-11.121 10.072-16.032C40.025 15.885 53.23 5.51 68.685 1.628c16.654-4.182 35.163-.174 48.597 10.52 4.096 3.261 7.776 7.122 12.375 9.622 4.016 2.176 8.716 3.078 13.017 1.365 3.553-1.415 5.866-2.118 9.858-1.903a82.629 82.629 0 0124.165 5.061c.313.115.626.233.937.352 20.22 7.735 37.601 23.105 46.636 42.855.24.522.472 1.048.697 1.578 5.386 12.582 7.334 27.33 1.391 39.592zM24.153 149.173c9.789 0 17.724-1.275 17.724-2.847 0-1.573-7.935-2.847-17.724-2.847-9.789 0-17.724 1.274-17.724 2.847 0 1.572 7.935 2.847 17.724 2.847zm159.005 15.443c17.356 0 31.427-1.366 31.427-3.052 0-1.685-14.071-3.051-31.427-3.051-17.357 0-31.428 1.366-31.428 3.051 0 1.686 14.071 3.052 31.428 3.052z" fill="#6C63FF"/><path d="M211.611 21.633H25.826a2.508 2.508 0 00-2.508 2.508v103.067a2.508 2.508 0 002.508 2.508H211.61a2.508 2.508 0 002.508-2.508V24.141a2.508 2.508 0 00-2.508-2.508z" fill="url(#paint0_linear)"/><path d="M211.33 23.153H26.129a2.508 2.508 0 00-2.508 2.508v101.188a2.507 2.507 0 002.508 2.507H211.33a2.507 2.507 0 002.508-2.507V25.661a2.508 2.508 0 00-2.508-2.508z" fill="#fff"/><path d="M211.33 23.153H26.129a2.508 2.508 0 00-2.508 2.508v101.188a2.507 2.507 0 002.508 2.507H211.33a2.507 2.507 0 002.508-2.507V25.661a2.508 2.508 0 00-2.508-2.508z" fill="#fff"/><path opacity=".04" d="M211.33 23.153H26.129a2.508 2.508 0 00-2.508 2.508v101.188a2.507 2.507 0 002.508 2.507H211.33a2.507 2.507 0 002.508-2.507V25.661a2.508 2.508 0 00-2.508-2.508z" fill="#fff"/><path d="M212.872 21.934H24.587a.966.966 0 00-.966.966v4.082H213.83V22.9a.967.967 0 00-.958-.966z" fill="#5A5773"/><path d="M27.42 25.763a1.305 1.305 0 100-2.61 1.305 1.305 0 000 2.61zm3.513 0a1.305 1.305 0 100-2.61 1.305 1.305 0 000 2.61zm3.514 0a1.305 1.305 0 100-2.61 1.305 1.305 0 000 2.61z" fill="#fff"/><path opacity=".2" d="M90.334 36.474H39.287v4.333h51.047v-4.333z" fill="#6C63FF"/><path opacity=".1" d="M198.171 53.847H39.287v66.649h158.884V53.848z" fill="#5A5773"/><path opacity=".1" d="M132.316 58.194h-2.721V52.91c0-5.963-4.754-10.92-10.717-11.01a10.898 10.898 0 00-11.012 10.863v5.431h-2.715a4.54 4.54 0 00-4.527 4.528v21.727a4.54 4.54 0 004.527 4.528h27.165a4.54 4.54 0 004.525-4.528V62.722a4.538 4.538 0 00-4.525-4.528zM120.32 72.32v7.78a1.626 1.626 0 01-1.506 1.63 1.588 1.588 0 01-1.663-1.586v-7.83a3.611 3.611 0 01-1.937-4.061 3.613 3.613 0 115.106 4.06v.005zm6.111-14.125h-15.397v-5.43a7.696 7.696 0 0115.391 0l.006 5.43z" fill="#000"/><path d="M132.316 57.793h-2.721v-5.285c0-5.963-4.754-10.92-10.717-11.01a10.898 10.898 0 00-11.012 10.864v5.43h-2.715a4.54 4.54 0 00-4.527 4.528v21.728a4.54 4.54 0 004.527 4.527h27.165a4.54 4.54 0 004.525-4.527V62.32a4.538 4.538 0 00-4.525-4.527zM120.32 71.917V79.7a1.626 1.626 0 01-1.506 1.63 1.584 1.584 0 01-1.171-.437 1.597 1.597 0 01-.492-1.149v-7.83a3.611 3.611 0 01-1.937-4.061 3.613 3.613 0 115.106 4.061v.004zm6.111-14.124h-15.397v-5.431a7.697 7.697 0 0115.391 0l.006 5.43z" fill="#6C63FF"/><path opacity=".1" d="M198.171 47.433h-16.082v3.796h16.082v-3.796z" fill="#5A5773"/><path d="M203.644 162.484a5.685 5.685 0 00-.538-1.528l-2.409-3.598h.014s-.379-1.807 0-2.694c.38-.888-1.353-3.07-1.353-3.07s-.211-.548.339-1.223c.55-.674-.339-2.65-.339-2.65s-.422-4.126-.464-4.756c-.042-.631-.381-4.124-.381-4.124l-.803-7.407-1.43-19.629-.026-.368c.177-.086.271-.14.271-.14l-.285-10.854.247-.223c2.156-1.951 7.129-6.469 7.079-6.567-.05-.099-.602-7.543-.666-9.407a11.217 11.217 0 00-.856-3.85c-.124-.247-.484-1.876-.632-2.564l-.066-.307s-1.458-2.78-1.332-4.042c.127-1.263.38-2.208-2.728-2.65 0 0-2.61-.39-4.164-1.452a11.849 11.849 0 00-2.984-1.493s-.871-1.607-1.477-1.063a8.387 8.387 0 01-.572-1.788l-.019-.113a5.913 5.913 0 002.337-3.345c.021-.076.037-.154.055-.23.06.02.123.031.186.034.528 0 .854-.589 1.348-.776.2-.078.447-.09.602-.248a.591.591 0 00.132-.444.905.905 0 000-.165.565.565 0 000-.058v.02c-.134-.73-.7-1.38-.638-2.122.06-.699.675-1.313.624-1.994a.961.961 0 00-.014-.16v.024a1.72 1.72 0 00-.401-.711 2.283 2.283 0 00-.827-.695c-.279-.122-.603-.15-.864-.297-.767-.417-.765-1.506-1.22-2.249a1.998 1.998 0 00-1.862-.921c-.57.056-1.086.36-1.65.458-.771.136-1.556-.115-2.287-.402-.731-.287-1.471-.602-2.256-.602-.785 0-1.635.401-1.872 1.142-.126.402-.064.833-.16 1.241-.173.719-.803 1.233-1.456 1.59-.401.223-.879.478-1.004.9v-.033a.89.89 0 00-.02.103.755.755 0 000 .134c0 .29.153.564.255.84a2.311 2.311 0 01-.012 1.618c-.148.381-.401.717-.546 1.096a2.171 2.171 0 00-.133.55v-.032a2.204 2.204 0 000 .257c-.002.293.067.583.201.843a1.524 1.524 0 00.902.757c.401.093.652-.301 1.076-.2a1.6 1.6 0 01.223.07 5.899 5.899 0 002.08 3.716c0 .048.016.096.022.147.128.8.184 1.61.166 2.42 0 0-.632-.925-1.499.862 0 0-2.263 1.305-3.044 1.454-.781.148-3.554 1.114-3.554 1.114a2.444 2.444 0 01-1.437.464c-.866 0-1.584 1.893-1.48 2.923.104 1.03-.062 1.789-.867 1.831-.805.042-.366 1.675-.36 1.703l-.074.351c-.157.719-.498 2.26-.618 2.502a11.243 11.243 0 00-.858 3.85c-.062 1.864-.602 9.28-.664 9.407-.042.082 3.365 3.196 5.76 5.373l.347.313-1.102 10.295a2.743 2.743 0 001.132 2.008c0 .121 0 .243-.012.37-.048 1.204-.144 2.662-.337 3.043-.337.675-.253 4.293-.253 4.293s-.339 7.364-.761 8.165c-.421.801-.508 2.482-.381 2.811.126.329-.424 9.173-.424 9.173l-.422 3.958s.127 3.786-.255 3.871c-.381.084-.592 2.694-.592 2.694s-1.351 1.851-.761 2.524c.591.672-.086.969-.148 1.136-.063.167-1.289.803-.402 3.156a.809.809 0 00.028.068c-.831 1.155-3.465 4.879-3.304 5.445.118.361.369.662.702.844.621.371 1.685.544 3.377 0 2.811-.906 2.61-1.558 2.61-1.558a1.194 1.194 0 011.185-1.137c1.162-.084 2.03-1.156 2.03-1.156l-.137-.508-.187-.703c.023-.201.165-.552.804-.747.973-.295.718-2.146.718-2.146s-.084-1.935.338-2.188c.421-.253.255-3.452.255-3.452s.465-2.315 1.14-3.873c.675-1.558 1.482-10.813 1.482-10.813s.548-4.546 1.056-5.851c.508-1.305.973-4.965.973-4.965s3.131-6.061 3.171-7.408c0 0 .401-1.263.803.126.401 1.389 1.53 4.714 1.53 4.714l1.098 4.082 1.311 6.101.847 5.136s-.128 1.936.201 2.61c.329.675.803 2.229.55 2.524-.253.295.506 1.684.719 1.978.213.293 0 6.523 0 6.523s.972 5.302 2.367 6.224c.097.064.201.117.309.16-.02.575-.04 1.343-.014 1.745a.674.674 0 00.044.263c.127.169 1.564 1.305 1.861 1.305.298 0 1.352.737 1.396 1.094.044.358 3.09 1.871 3.521 1.916.432.044 2.524.419 2.811-.169a.974.974 0 00.058-.544zm-7.482-75.836l.216.187s.223 1.736.382 2.256c.159.52-.032 1.532-.032 1.532.014.378.09.75.223 1.104.188.38-.382 1.205-.382 1.205h-.508l-.158-6.501.259.217zm-15.105-19.411v-.038a.126.126 0 00-.006.038h.006zm-7.8 25.026a.736.736 0 01-.032-.536 1.65 1.65 0 00.107-.297 4.63 4.63 0 00.116-.803v-.01c-.018-.096-.181-1.028-.03-1.522s.38-2.257.38-2.257l.144-.122.335-.291s0-.108.024-.287c.071 1.526.127 3.212.037 3.296-.169.167-.783 1.808-.635 1.872.048.022-.018.678-.13 1.562a3.203 3.203 0 01-.316-.605z" fill="url(#paint1_linear)"/><path d="M189.44 68.841v2.498l-5.124 2.576s-5.088-3.078-3.833-4.303c.803-.775.649-2.903.432-4.367-.127-.851-.273-1.475-.273-1.475s9.139-2.61 7.758-.629c-.462.663-.498 1.52-.344 2.37.314 1.684 1.384 3.33 1.384 3.33z" fill="#C37098"/><path d="M175.404 93.265l-.661 8.136s-.99-.898-2.271-2.066c-2.375-2.167-5.748-5.265-5.708-5.347.063-.126.603-7.507.661-9.362.055-1.317.342-2.614.847-3.83.121-.242.46-1.776.603-2.492l.078-.368 1.108-.446s4.618 5.152 4.618 5.247c0 .094-.315 4.051-.315 4.051l-.328.285-.142.123s-.221 1.728-.378 2.246c-.156.519.013 1.418.031 1.514a4.63 4.63 0 01-.115.803 1.74 1.74 0 01-.106.296.736.736 0 00.032.534c.089.232.205.454.345.66l1.701.016zm27.985.723c.049.099-4.876 4.594-7.011 6.535l-.967.878-.655-8.136h1.697s.566-.817.377-1.194a3.525 3.525 0 01-.219-1.099s.187-1.003.03-1.523c-.156-.52-.377-2.247-.377-2.247l-.215-.185-.255-.223s-.315-3.957-.315-4.051c0-.095 4.618-5.246 4.618-5.246l1.1.44.064.306c.149.685.504 2.305.627 2.552.505 1.217.792 2.514.847 3.831.052 1.855.59 9.236.654 9.362zm.021 69.054c-.296.586-2.368.201-2.795.169-.428-.032-3.447-1.552-3.49-1.908-.042-.355-1.088-1.088-1.381-1.088-.293 0-1.717-1.132-1.843-1.299a.645.645 0 01-.042-.261c-.044-.688.042-2.461.042-2.461l6.073.335 2.952 4.439c.248.479.428.991.534 1.52.036.186.018.378-.05.554z" fill="#3F3D56"/><path opacity=".1" d="M203.41 163.042c-.296.586-2.368.201-2.795.169-.428-.032-3.447-1.552-3.49-1.908-.042-.355-1.088-1.088-1.381-1.088-.293 0-1.717-1.132-1.843-1.299a.645.645 0 01-.042-.261c-.044-.688.042-2.461.042-2.461l6.073.335 2.952 4.439c.248.479.428.991.534 1.52.036.186.018.378-.05.554z" fill="#000"/><path opacity=".1" d="M203.41 163.042c-.296.586-2.368.201-2.795.169-.428-.032-3.447-1.552-3.49-1.908-.042-.355-1.088-1.088-1.381-1.088-.293 0-1.717-1.132-1.843-1.299a.645.645 0 01-.042-.261l1.967 1.245s1.257.803 1.593 1.279c.335.476 2.977 1.466 3.196 1.486.162.016 1.897-.318 2.845-.177.036.186.018.378-.05.554z" fill="#000"/><path d="M174.699 159.378s-.859 1.068-2.008 1.15a1.186 1.186 0 00-1.172 1.131s.2.65-2.576 1.552c-1.677.54-2.731.369-3.345 0a1.494 1.494 0 01-.697-.839c-.188-.669 3.518-5.759 3.518-5.759l3.373-.2 2.409 1.088.369 1.379.129.498z" fill="#3F3D56"/><path opacity=".1" d="M174.699 159.378s-.859 1.068-2.008 1.15a1.186 1.186 0 00-1.172 1.131s.2.65-2.576 1.552c-1.677.54-2.731.369-3.345 0a1.494 1.494 0 01-.697-.839c-.188-.669 3.518-5.759 3.518-5.759l3.373-.2 2.409 1.088.369 1.379.129.498z" fill="#000"/><path opacity=".1" d="M174.699 159.378s-.859 1.068-2.008 1.15a1.186 1.186 0 00-1.172 1.131s.201.65-2.576 1.552c-1.677.54-2.731.369-3.345 0 1.58-.165 5.071-1.163 5.421-1.508.419-.42.943-1.572 1.299-1.592.247-.016 1.502-.771 2.254-1.239l.127.506z" fill="#000"/><path d="M200.561 154.708c-.378.879 0 2.68 0 2.68s-5.622.293-6.995-.628c-1.374-.922-2.345-6.2-2.345-6.2s.2-6.198 0-6.491c-.201-.293-.964-1.674-.713-1.968.251-.293-.201-1.843-.544-2.513-.344-.671-.201-2.596-.201-2.596l-.839-5.112-1.297-6.071-1.102-4.064s-1.131-3.309-1.514-4.69c-.384-1.381-.789-.127-.789-.127-.04 1.342-3.14 7.373-3.14 7.373s-.462 3.644-.964 4.941c-.502 1.297-1.048 5.822-1.048 5.822s-.803 9.214-1.466 10.764c-.662 1.55-1.118 3.853-1.118 3.853s.169 3.184-.251 3.435c-.42.251-.351 2.178-.351 2.178s.251 1.841-.713 2.136c-.964.296-.803.922-.803.922s-5.361.879-6.24-1.468c-.88-2.347.335-2.971.401-3.14.066-.168.735-.46.149-1.132-.586-.673.753-2.512.753-2.512s.211-2.596.586-2.68c.375-.084.253-3.853.253-3.853l.418-3.937s.546-8.796.419-9.131c-.126-.336-.042-2.008.378-2.811.419-.803.753-8.127.753-8.127s-.085-3.6.25-4.271c.201-.379.286-1.839.334-3.03.036-.909.044-1.662.044-1.662l4.69-1.759 6.023-1.925 5.068 2.429 7.414 1.424.093 1.279 1.415 19.537.803 7.37s.336 3.476.378 4.104c.042.628.459 4.734.459 4.734s.88 1.968.336 2.638c-.544.671-.336 1.205-.336 1.205s1.729 2.195 1.352 3.074z" fill="#3F3D56"/><path opacity=".1" d="M188.404 63.141c-.462.663-.498 1.52-.344 2.37a5.889 5.889 0 01-7.141-.268c-.127-.851-.273-1.475-.273-1.475s9.139-2.606 7.758-.627z" fill="#000"/><path d="M190.54 60.58a5.885 5.885 0 01-3.631 5.434 5.883 5.883 0 11-2.252-11.317 5.854 5.854 0 015.883 5.882z" fill="#C37098"/><path opacity=".1" d="M191.765 70.355l-1.928 34.322-10.47-2.198-2.074-13.76 2.054-18.47 1.546.198 2.726.348 2.701.166 2.927-.325 2.518-.28z" fill="#000"/><path d="M191.765 70.606l-1.928 34.322-10.47-2.198-2.074-13.76 2.054-18.468 1.546.196 2.726.348 2.701.166 2.927-.325 2.518-.281z" fill="#6C63FF"/><path d="M183.158 71.528l3.77.126-1.06 1.484s.074 2.997.578 3.856c.504.86.356 14.135.356 14.135l-1.004 1.905-1.717-2.136.022-17.527-.945-1.843z" fill="#3F3D56"/><path opacity=".1" d="M183.158 71.528l3.77.126-1.06 1.484s.074 2.997.578 3.856c.504.86.356 14.135.356 14.135l-1.004 1.905-1.717-2.136.022-17.527-.945-1.843z" fill="#000"/><path opacity=".1" d="M189.062 67.633l-3.517 3.895 2.009 2.094 3.331-3.247-1.823-2.742z" fill="#000"/><path d="M189.062 67.382l-3.517 3.895 2.009 2.094 3.331-3.247-1.823-2.742z" fill="#6C63FF"/><path opacity=".1" d="M184.059 71.339l-3.562-3.56-.335 1.863 1.634 4.084 2.263-2.387z" fill="#000"/><path d="M184.184 71.088l-3.56-3.56-.335 1.863 1.634 4.084 2.261-2.387z" fill="#6C63FF"/><path opacity=".1" d="M196.172 112.052a17.404 17.404 0 01-5.421 1.568c-3.455.439-5.716-3.958-5.716-3.958l-1.319 1.717c-.42 1.823-6.807 2.283-9.403 1.592a4.15 4.15 0 01-1.489-.704c.036-.91.044-1.663.044-1.663l4.69-1.759 6.023-1.925 5.068 2.429 7.414 1.424.109 1.279zm-4.407-41.444l-1.926 34.32-10.472-2.198-2.078-13.757 2.052-18.471 1.546.2c-.04.673-.115 1.343-.227 2.008-.251 1.175 1.299 9.509 1.299 9.509s2.945 9.346 4.27 7.999c1.326-1.348 3.213-8.461 3.213-8.461 1.279-2.638.022-10.039-.073-10.187a3.011 3.011 0 01-.12-.673l2.516-.289zm4.523 26.558l.088 3.363-.967.878-.653-8.142h1.446l.086 3.901zm-22.739-6.204c-.015.27-.054.54-.115.803 0-.074 0-.116-.016-.122-.06-.016.012-.323.131-.68zm1.855 2.303l-.661 8.136s-.99-.898-2.271-2.066l.153-1.442s.54-3.541.737-5.288c.089.233.205.454.345.66h1.697z" fill="#000"/><path d="M181.084 67.653s-.627-.922-1.486.857c0 0-2.241 1.299-3.012 1.445-.771.147-3.513 1.11-3.513 1.11a2.42 2.42 0 01-1.424.46c-.859 0-1.572 1.886-1.467 2.912.104 1.026-.063 1.78-.858 1.823-.795.042-.357 1.694-.357 1.694l5.298 6.074s.336 5.591.169 5.76c-.167.169-.775 1.807-.628 1.863.146.056-.804 6.24-.804 6.24l-1.276 12s0 2.008 2.598 2.701c2.598.692 8.988.235 9.4-1.588l1.319-1.719s2.261 4.399 5.716 3.959c3.455-.439 5.656-1.696 5.656-1.696l-.378-14.382-.251-10.366 5.395-8.864s-1.446-2.765-1.319-4.015c.126-1.251.375-2.199-2.702-2.639 0 0-2.596-.387-4.126-1.445a11.801 11.801 0 00-2.952-1.486s-.863-1.606-1.463-1.056c0 0 .602 2.27.552 2.61-.05.34.094 1.873.188 2.032.095.159 1.352 7.55.073 10.187 0 0-1.877 7.114-3.213 8.46-1.335 1.348-4.27-7.998-4.27-7.998s-1.55-8.336-1.299-9.508c.251-1.173.434-5.425.434-5.425z" fill="#3F3D56"/><path d="M185.565 95.108a.921.921 0 100-1.842.921.921 0 000 1.842zm0 4.345a.921.921 0 100-1.842.921.921 0 000 1.842z" fill="#3F3D56"/><path opacity=".1" d="M185.565 95.108a.921.921 0 100-1.842.921.921 0 000 1.842zm0 4.345a.921.921 0 100-1.842.921.921 0 000 1.842z" fill="#000"/><path opacity=".1" d="M193.847 153.451s3.782.293 4.158.586c.375.294-4.158-.586-4.158-.586zm-22.521-2.973s.803 1.004.462 1.465c-.342.462-.462-1.465-.462-1.465zm.964 3.62s1.465-.964 2.052-.324c.586.641-2.052.324-2.052.324z" fill="#000" stroke="#6C63FF" stroke-miterlimit="10"/><path opacity=".1" d="M190.54 60.58a5.835 5.835 0 01-.189 1.487.67.67 0 01-.389-.654c.026-.24.184-.458.15-.695-.05-.365-.492-.514-.724-.803-.288-.35-.225-.857-.201-1.31.024-.45-.091-1.003-.514-1.158-.127-.046-.265-.05-.388-.102-.333-.14-.435-.554-.658-.84-.446-.573-1.331-.561-2.008-.288a9.557 9.557 0 01-.903.377 1.184 1.184 0 01-.946-.07c-.133-.084-.239-.2-.376-.285-.453-.273-1.048 0-1.441.351-.394.351-.709.823-1.205 1.038-.223.1-.498.16-.602.377a.781.781 0 00-.064.376c0 .781.092 1.574-.071 2.339-.104.492-.449 1.05-.949.99a.923.923 0 01-.183-.046 5.89 5.89 0 012.917-6.22 5.883 5.883 0 018.748 5.132l-.004.004z" fill="#000"/><path d="M178.616 61.33c.151.035.293.113.448.133.5.06.845-.498.949-.99.163-.765.079-1.558.073-2.339a.768.768 0 01.062-.375c.114-.217.389-.278.602-.378.486-.217.803-.678 1.205-1.038.401-.36.986-.624 1.439-.351.135.08.243.2.376.285a1.206 1.206 0 00.948.07c.311-.092.602-.255.901-.377.671-.273 1.558-.283 2.008.287.223.287.325.699.658.839.123.052.261.058.388.104.423.159.532.707.514 1.159-.018.452-.079.96.201 1.309.232.285.674.434.724.803.032.237-.124.458-.15.695a.656.656 0 00.165.486.678.678 0 00.463.224c.522 0 .845-.584 1.333-.77.201-.079.444-.09.603-.25a.67.67 0 00.124-.544c-.098-.769-.715-1.437-.648-2.208.062-.739.746-1.383.602-2.11a1.716 1.716 0 00-.402-.717 2.314 2.314 0 00-.819-.693c-.279-.12-.602-.148-.857-.295-.759-.415-.757-1.5-1.205-2.238a1.962 1.962 0 00-1.831-.912c-.564.056-1.076.355-1.634.456-.765.136-1.54-.115-2.265-.402-.725-.287-1.457-.602-2.234-.602-.777 0-1.619.401-1.856 1.136-.124.402-.062.832-.158 1.235-.169.717-.803 1.227-1.442 1.582-.439.245-.967.526-1.02 1.026-.034.317.141.602.251.91.188.52.184 1.089-.012 1.606-.146.38-.391.713-.54 1.09a1.965 1.965 0 00.052 1.606 1.503 1.503 0 00.918.753c.395.095.644-.297 1.066-.205z" fill="#3F3D56"/><path opacity=".1" d="M180.013 60.035c-.104.492-.451 1.05-.951.99-.155-.02-.295-.098-.448-.133-.42-.092-.669.302-1.064.201a1.501 1.501 0 01-.92-.753 1.733 1.733 0 01-.186-.656c-.04.355.025.715.186 1.034a1.494 1.494 0 00.92.753c.401.092.644-.301 1.064-.201.147.051.296.095.448.13.5.063.847-.495.951-.987.083-.435.115-.877.097-1.32a4.884 4.884 0 01-.097.942zm-2.75-3.023a2.32 2.32 0 00-.133-.97 5.276 5.276 0 01-.231-.635 1.172 1.172 0 00-.02.103c-.034.315.143.602.251.91.07.19.115.39.133.592zm15.339-1.058c-.094.57-.556 1.106-.602 1.706a1.332 1.332 0 000 .31c.1-.701.72-1.322.602-2.016zm.034 4.236a.47.47 0 01-.114.225c-.149.158-.402.17-.603.249-.488.186-.803.777-1.333.77a.67.67 0 01-.602-.465 1.002 1.002 0 00-.028.133.671.671 0 00.166.485.667.667 0 00.462.223c.524 0 .845-.584 1.333-.769.201-.078.446-.09.603-.249a.671.671 0 00.124-.544c-.002-.024-.006-.04-.008-.058zm-2.518-.167c-.05-.365-.492-.514-.724-.803a1.095 1.095 0 01-.221-.658c-.016.373-.01.755.221 1.036.23.28.582.401.694.69a.627.627 0 00.03-.265zm-.933-2.102c.016-.452-.093-1.004-.516-1.158-.125-.046-.263-.052-.386-.103-.333-.14-.437-.554-.658-.839-.448-.572-1.333-.562-2.008-.29-.301.123-.588.286-.901.378a1.184 1.184 0 01-.946-.07c-.133-.084-.241-.2-.376-.285-.455-.273-1.05 0-1.441.351-.392.352-.709.822-1.205 1.038-.225.1-.498.161-.614.378a.78.78 0 00-.062.375v.235a.555.555 0 01.058-.233c.116-.217.389-.277.614-.377.486-.217.803-.679 1.205-1.038.401-.36.986-.625 1.441-.352.135.08.243.201.376.284a1.17 1.17 0 00.946.07c.306-.11.607-.235.901-.376.673-.273 1.558-.285 2.008.288.221.285.325.698.658.839.123.052.261.058.386.104.343.129.48.514.51.896l.01-.115z" fill="#000"/><g opacity=".1" fill="#000"><path opacity=".1" d="M179.297 60.023a1.538 1.538 0 011.16-1.44 4.821 4.821 0 012.707.123c1.905.63-.241 2.9-.241 2.9s-1.428 1.405-2.759.423a2.09 2.09 0 01-.777-1.205 3.046 3.046 0 01-.09-.8zm10.474 0a1.54 1.54 0 00-1.162-1.44 4.82 4.82 0 00-2.705.123c-1.905.63.241 2.9.241 2.9s1.426 1.405 2.759.423c.393-.297.668-.724.777-1.205a3.08 3.08 0 00.09-.8z"/><path opacity=".1" d="M182.804 58.522v.094h3.48v-.113l-3.48.019zm1.11 1.005h.111v-.319s.353-.275.94 0v.285h.2v-.187h-.098s.04-.387-.614-.325c0 0-.527-.05-.514.283h-.121l.096.263z"/></g><path d="M179.297 59.893a1.538 1.538 0 011.16-1.44 4.847 4.847 0 012.707.123c1.905.632-.241 2.899-.241 2.899s-1.428 1.405-2.759.423a2.076 2.076 0 01-.777-1.204 3.045 3.045 0 01-.09-.801zm10.474 0a1.54 1.54 0 00-1.162-1.44 4.838 4.838 0 00-2.705.122c-1.905.633.241 2.9.241 2.9s1.426 1.405 2.759.423c.394-.296.669-.723.777-1.204.065-.262.095-.532.09-.801z" fill="#6C63FF"/><path d="M182.804 58.395v.096h3.48v-.114l-3.48.018zm1.11 1.005h.111v-.318s.353-.273.94 0v.287h.2v-.189h-.098s.04-.386-.614-.325c0 0-.527-.048-.514.283h-.121l.096.263z" fill="#6C63FF"/><path d="M24.723 91.792h-1.14v25.679h1.14v-25.68z" fill="#535461"/><path d="M31.89 117.392l-.071 1.157-.1 1.632-.043.681-.1 1.634-.044.681-.1 1.632-1.151 18.565a3.146 3.146 0 01-3.138 2.952h-5.98a3.144 3.144 0 01-3.136-2.952l-1.156-18.565-.1-1.632-.043-.681-.098-1.638-.042-.681-.1-1.632-.073-1.157a1.624 1.624 0 01.98-1.595c.204-.088.424-.134.646-.133h12.226a1.62 1.62 0 011.532 1.078c.075.209.106.432.092.654z" fill="#3F3D56"/><path d="M31.819 118.549l-.1 1.632H16.585l-.1-1.632h15.333zm-.143 2.313l-.1 1.634H16.73l-.102-1.634h15.048zm-.144 2.315l-.1 1.632H16.874l-.102-1.632h14.759z" fill="#9D9CB5"/><path d="M14.745 101.417c6.641 4.804 9.408 12.321 9.408 12.321s-8.005-.275-14.656-5.079C2.845 103.854.088 96.337.088 96.337s8.013.275 14.657 5.08z" fill="#6C63FF"/><path d="M.098 96.337s8.308 4.618 10.973 8.433c2.664 3.814 13.082 8.97 13.082 8.97" stroke="#535461" stroke-width="2" stroke-miterlimit="10"/><path d="M19.031 91.746c3.614 2.61 5.122 6.705 5.122 6.705s-4.357-.148-7.973-2.764c-3.616-2.616-5.12-6.706-5.12-6.706s4.357.138 7.971 2.765z" fill="#6C63FF"/><path d="M11.06 88.97s4.522 2.51 5.972 4.588c1.45 2.078 7.121 4.883 7.121 4.883" stroke="#535461" stroke-width="2" stroke-miterlimit="10"/><path d="M29.407 98.234c-4.154 4.564-5.031 10.527-5.031 10.527s5.854-1.436 10.006-5.999c4.152-4.564 5.032-10.529 5.032-10.529s-5.855 1.436-10.007 6.001z" fill="#6C63FF"/><path d="M39.414 92.233s-5.409 4.678-6.784 7.903c-1.376 3.224-8.254 8.633-8.254 8.633" stroke="#535461" stroke-width="2" stroke-miterlimit="10"/></g><defs><linearGradient id="paint0_linear" x1="118.717" y1="129.716" x2="118.717" y2="21.633" gradientUnits="userSpaceOnUse"><stop stop-color="gray" stop-opacity=".25"/><stop offset=".54" stop-color="gray" stop-opacity=".12"/><stop offset="1" stop-color="gray" stop-opacity=".1"/></linearGradient><linearGradient id="paint1_linear" x1="36949" y1="97060.4" x2="36949" y2="32886.3" gradientUnits="userSpaceOnUse"><stop stop-color="gray" stop-opacity=".25"/><stop offset=".54" stop-color="gray" stop-opacity=".12"/><stop offset="1" stop-color="gray" stop-opacity=".1"/></linearGradient><clipPath id="clip0"><path fill="#fff" d="M0 0h230v164.616H0z"/></clipPath></defs></svg>