<svg width="230" height="180" fill="none" xmlns="http://www.w3.org/2000/svg"><g clip-path="url(#clip0)"><path d="M188.344 38.012L78.53 113.4l-7.495-10.916 93.914-64.472h23.395zm36.08 0v10.916L69.934 154.987l-7.495-10.917L216.932 38.012h7.492zm0 32.135v16.06l-119.307 81.906H81.72l142.704-97.966z" fill="#fff"/><path d="M115 179.496c63.513 0 115-2.392 115-5.343s-51.487-5.343-115-5.343-115 2.392-115 5.343 51.487 5.343 115 5.343z" fill="#3F3D56"/><path opacity=".1" d="M170.061 178.799c14.755 0 26.717-1.664 26.717-3.717s-11.962-3.717-26.717-3.717c-14.756 0-26.718 1.664-26.718 3.717s11.962 3.717 26.718 3.717zm-93.859 0c18.605 0 33.687-1.976 33.687-4.414 0-2.438-15.082-4.414-33.687-4.414-18.605 0-33.687 1.976-33.687 4.414 0 2.438 15.082 4.414 33.687 4.414z" fill="#000"/><path d="M116.564 51.762l5.901-1.35 4.383 1.35-33.383 119.371-4.721 2.698 4.72-61.035 23.1-61.034z" fill="#6C63FF"/><path opacity=".1" d="M116.564 51.762l5.901-1.35 4.383 1.35-33.383 119.371-4.721 2.698 4.72-61.035 23.1-61.034z" fill="#000"/><path d="M33.357 14.753l55.977 158.994 33.721-123.25-89.698-35.744zm17.028 100.024c9.439 8.538 7.658 17.13 1.397 24.052a27.866 27.866 0 01-1.345 1.388c-6.093 5.846-13.948 7.566-22.726-.375-9.085-8.217-10.046-30.198-10.106-31.836v-.002a8.635 8.635 0 01-.003-.094s23.344-1.671 32.783 6.867z" fill="#6C63FF"/><path d="M49.925 137.979l-2.258-10.377 2.951 11.024.724.678c-.297.314-.599.618-.905.912l-8.996-9.035-.077-.063-.006-.021-.85-.854-11.292-1.838 10.636 1.22.2.159-6.797-6.826-10.93-2.717 9.72 1.534-14.44-13.769-.048-.046.048.044 11.607 10.616-1.074-8.108 2.063 9.034 6.294 5.883-2.813-9.213 3.74 10.077 3.5 3.271-3.72-13.041 4.94 14.183 7.783 7.273z" fill="#3F3D56"/><path d="M75.505 98.648a39.493 39.493 0 00-38.736 47.2 39.494 39.494 0 0071.575 14.237 39.493 39.493 0 00-32.839-61.437zm.697 49.136c-4.427 0-8.015-4.368-8.015-9.757 0-5.389 3.588-9.758 8.015-9.758 4.427 0 8.015 4.369 8.015 9.758 0 5.389-3.588 9.757-8.015 9.757z" fill="#3F3D56"/><path opacity=".1" d="M75.97 147.784c-4.427 0-8.016-4.368-8.016-9.757 0-5.389 3.59-9.758 8.016-9.758 4.287 0 7.788 4.098 8.004 9.251.005-.14.01-.281.01-.423a11.846 11.846 0 10-6.262 10.45 6.653 6.653 0 01-1.752.237z" fill="#000"/><path d="M34.453 0a17.029 17.029 0 100 34.058 17.029 17.029 0 000-34.058zm.3 21.186c-1.908 0-3.455-1.884-3.455-4.207 0-2.324 1.547-4.207 3.456-4.207 1.908 0 3.456 1.883 3.456 4.207 0 2.323-1.548 4.207-3.456 4.207z" fill="#3F3D56"/><path opacity=".1" d="M34.654 21.186c-1.909 0-3.456-1.884-3.456-4.207 0-2.324 1.547-4.207 3.456-4.207 1.848 0 3.358 1.767 3.45 3.989a5.108 5.108 0 10-2.696 4.323c-.245.067-.5.102-.754.102z" fill="#000"/><path d="M158.444 153.708h-2.555v21.607s16.495 5.343 32.525 0v-21.607h-29.97z" fill="#3F3D56"/><path d="M171.919 156.264c8.853 0 16.03-1.092 16.03-2.439 0-1.348-7.177-2.44-16.03-2.44-8.853 0-16.03 1.092-16.03 2.44 0 1.347 7.177 2.439 16.03 2.439z" fill="#3F3D56"/><path opacity=".1" d="M171.919 156.264c8.853 0 16.03-1.092 16.03-2.439 0-1.348-7.177-2.44-16.03-2.44-8.853 0-16.03 1.092-16.03 2.44 0 1.347 7.177 2.439 16.03 2.439z" fill="#000"/><path d="M190.553 127.894c-4.044 14.949-17.895 24.207-17.895 24.207s-7.295-14.979-3.251-29.927c4.044-14.949 17.895-24.207 17.895-24.207s7.295 14.978 3.251 29.927z" fill="#3F3D56"/><path d="M153.765 127.894c4.044 14.949 17.895 24.207 17.895 24.207s7.295-14.979 3.251-29.927c-4.044-14.949-17.895-24.207-17.895-24.207s-7.295 14.978-3.251 29.927z" fill="#6C63FF"/><path d="M159.707 124.681c11.097 10.803 12.452 27.408 12.452 27.408s-16.636-.909-27.732-11.711c-11.097-10.802-12.452-27.407-12.452-27.407s16.636.908 27.732 11.71zm24.904 0c-11.096 10.803-12.452 27.408-12.452 27.408s16.636-.909 27.732-11.711c11.097-10.802 12.452-27.407 12.452-27.407s-16.635.908-27.732 11.71z" fill="#3F3D56"/><path d="M172.152 103.062a5.111 5.111 0 100-10.223 5.111 5.111 0 000 10.223z" fill="#6C63FF"/><path d="M77 58.074s9.838.267 11.463.858 2.352 4.818 2.352 4.818l-7.639 2.401-5.713-.323-4.3.303 2.4-6.287L77 58.074z" fill="#2F2E41"/><path d="M77.425 54.845s.647 2.5-.79 4.27c-1.436 1.77 6.176 8.078 6.176 8.078l4.016-.69s-.885-7.681.304-9.627c1.189-1.945-9.706-2.03-9.706-2.03z" fill="#9F616A"/><path opacity=".1" d="M77.425 54.845s.647 2.5-.79 4.27c-1.436 1.77 6.176 8.078 6.176 8.078l4.016-.69s-.885-7.681.304-9.627c1.189-1.945-9.706-2.03-9.706-2.03z" fill="#000"/><path d="M104.132 127.939l-8.86 11.75 6.046 3.53 8.323-13.616-5.509-1.664z" fill="#9F616A"/><path d="M97.917 139.887s-3.263-3.791-3.118-2.946c.145.846-2.321 8.015-.026 8.709 2.295.693 21.978 2.533 22.249.31.27-2.222-5.872-3.778-5.872-3.778s-3.65-3.507-4.459-3.15c-.809.356-8.774.855-8.774.855z" fill="#2F2E41"/><path d="M102.144 139.16l7.077 12.058 5.343-3.095-7.136-9.871-5.284.908z" fill="#9F616A"/><path d="M113.316 110.475l-2.1 2.973s-10.013 13.906-8.95 15.029c1.063 1.123 5.492 5.367 7.744 4.544 2.253-.822 10.254-15.036 10.254-15.036l-2.087-8.345-4.861.835z" fill="#2F2E41"/><path d="M70.183 107.662s2.242 4.184 7.925 5.601c5.684 1.416 11.622 4.313 11.833 4.276.212-.036.81-.356.955.489.145.845 1.704 2.318 1.704 2.318s6.278 21.334 8.675 21.357c2.398.023 7.325-1.694 7.428-2.364.102-.671-7.342-22.457-7.415-22.88l-.871-5.072s9.844 1.572 10.762 1.849c.918.277 9.085 4.749 9.085 4.749s8.326-6.001.539-12.061c-7.788-6.06-21.172-10.505-21.172-10.505l-4.802-1.35-4.185-.25-.616-2.363-9.912.572-10.343 4.389.41 11.245z" fill="#2F2E41"/><path d="M83.263 59.821a7.72 7.72 0 100-15.44 7.72 7.72 0 000 15.44z" fill="#9F616A"/><path d="M76.279 58.306l.928-.16s1.677 6.458 6.866 7.525c0 0 2.56-3.067 2.45-3.584-.109-.518 2.028-3.279 3.164-1.733 1.136 1.545-.278 28.77.677 29.26.954.488 3.002 1.007 1.354 2.813-1.648 1.807-8.194 4.237-9.643 3.399-1.45-.84-4.412-7.946-5.694-10.337-1.281-2.391-3.332-10.525-3.332-10.525s-2.619-8.907-1.007-10.925c1.611-2.017 4.237-5.733 4.237-5.733z" fill="#D0CDE1"/><path d="M83.668 91.824a44.054 44.054 0 01-.885 5.638c-.378 1.512-.82 2.425-1.322 2.386-1.284-.096-1.868 1.787-2.168 3.957-.322 2.303-.322 4.93-.498 5.859-.234 1.226-1.728 2.163-4.713 1.888a21.065 21.065 0 01-5.191-1.274c-4.03-1.465-3.911-13.348-3.237-22.165.412-5.405 1.032-9.66 1.032-9.66s-1.224-3.652-1.616-6.155a8.177 8.177 0 01-.116-1.382c.06-2.186 4.05-8.094 6.462-11.774 2.415-3.68 5.709-.98 5.709-.98l-1.147 3.459s1.777 2.741 1.79 5.35c.013 2.61 4.253 4.492 5.775 5.755.957.793.934 11.388.125 19.098zm3.352-32.426s.278.329 1.552.168c1.528-.192 3.629.336 4.117 1.795.895 2.675 3.418 13.557 3.418 13.557s1.05 12.44 1.522 15.188c.472 2.747.238 5.181.704 6.625.465 1.443-4.597-2.692-6.463-2.154-1.866.539-3.065-6.436-2.83-8.87.234-2.434.432-5.08-.215-7.58s.5-9.116.457-10.631c-.043-1.516-4.114-5.337-2.262-8.098z" fill="#2F2E41"/><path d="M92.483 98.062s8.174 4.46 8.957 10.807c.782 6.348-10.934-6.146-10.934-6.146l1.977-4.66zm4.667-4.501s2.504 12.626 6.406 11.955c3.902-.671-2.18-12.681-2.18-12.681l-4.227.726z" fill="#9F616A"/><path d="M110.512 148.602s-1.998 2.302-2.493 1.952c-.495-.35-1.635 4.415-.608 5.327 1.027.911 4.984 2.407 5.027 3.923.043 1.516 10.654 1.215 11.033-.373.38-1.589-1.331-5.211-2.533-5.875-1.202-.664-5.647-6.773-5.647-6.773s-3.481.508-4.779 1.819z" fill="#2F2E41"/><path opacity=".1" d="M91.18 105.784c-1.895-1.338-7.188-1.67-11.888-1.979-2.061-.132-4.009-.262-5.505-.472-1.442-.2-2.739-1.517-3.89-3.48-1.746-2.975-3.157-7.435-4.243-11.74.412-5.405 1.032-9.661 1.032-9.661s-1.224-3.651-1.616-6.154a3.292 3.292 0 011.043-.939c4.984-2.14 9.743 18.916 10.348 22.22l.026.15c.293 1.702 3.46 3.157 6.296 3.733 1.748.355 3.374.378 4.124-.083 1.968-1.209 8.021 3.628 8.48 3.765.46.14-1.483 6.567-4.206 4.64z" fill="#000"/><path d="M66.114 70.063s-3.623 1.71-2.031 9.706c1.592 7.995 4.798 21.588 9.703 22.269 4.904.68 14.669.525 17.394 2.45 2.724 1.925 4.666-4.501 4.207-4.64-.46-.139-6.513-4.973-8.48-3.765-1.97 1.209-9.948-.901-10.42-3.649-.472-2.748-5.307-24.547-10.373-22.37zm26.106-3.834l3.981 9.239s.401-.2.867 1.243c.466 1.443.683 2.711 1.5 3.66.815.947 4.444 14.467 4.553 15.101.109.634-5.013 2.82-6.157 1.059-1.144-1.762-4.744-30.302-4.744-30.302zM78.871 51.993c.296-.079.34-.471.35-.778.052-1.639 1.04-3.32 2.608-3.798a4.387 4.387 0 011.85-.102 7 7 0 012.503.836c.41.23.81.506 1.273.576.307.047 1.632.432 1.937.487.67.119 1.293.718 1.936.495.615-.213.751-1.01.766-1.66.034-1.484-1.092-3.537-2.084-4.64-.752-.838-1.886-1.224-2.993-1.425a19.936 19.936 0 00-3.915-.239c-1.773.032-3.596.169-5.194.936-1.599.767-2.942 2.294-3.018 4.065-.016.37.022.74-.01 1.108-.075.898-.552 1.709-.775 2.582a4.724 4.724 0 00.66 3.775c.593.873 1.525 1.663 1.491 2.718l1.286-1.333a1.056 1.056 0 00.315-1.29l-.456-1.777a1.602 1.602 0 01-.04-.988c.489-1.206 1.017.584 1.51.452z" fill="#2F2E41"/></g><defs><clipPath id="clip0"><path fill="#fff" d="M0 0h230v179.496H0z"/></clipPath></defs></svg>