<svg width="24" height="24" fill="none" xmlns="http://www.w3.org/2000/svg"><g clip-path="url(#clip0)" fill="#F8F8F8"><path d="M4.29 2.637h-.006A1.604 1.604 0 002.71 4.235V6.52H.353a.353.353 0 100 .707H2.71v1.857H.353a.353.353 0 000 .706H2.71v1.858H.353a.353.353 0 000 .706H2.71v1.857H.353a.353.353 0 100 .707H2.71v1.857H.353a.353.353 0 100 .707H2.71v1.208a.353.353 0 00.707 0V4.235c0-.484.394-.884.878-.892a.352.352 0 00-.005-.706zM19.227 20.51H4.309a.89.89 0 01-.826-.554.353.353 0 10-.654.267c.247.604.828.994 1.48.994h2.21v2.43a.353.353 0 10.707 0v-2.43h1.857v2.43a.353.353 0 10.706 0v-2.43h1.858v2.43a.353.353 0 00.706 0v-2.43h1.857v2.43a.353.353 0 10.707 0v-2.43h1.857v2.43a.353.353 0 00.707 0v-2.43h1.746a.353.353 0 000-.707zM16.791 6.006H7.209a1.13 1.13 0 00-1.129 1.13v9.582a1.13 1.13 0 001.129 1.129h9.582a1.13 1.13 0 001.13-1.129V7.135a1.13 1.13 0 00-1.13-1.129zM6.786 7.136c0-.234.19-.423.423-.423h7.307v3.69a1.678 1.678 0 00-1.281 1.28h-2.603v-1.81a1.454 1.454 0 001.172-1.425 1.453 1.453 0 00-2.877-.28h-2.14V7.135zm8.083 3.935a.967.967 0 010 1.93.967.967 0 01-.965-.964c0-.53.43-.966.965-.966zm-4.517-1.878a.746.746 0 11.001-1.489.746.746 0 01-.001 1.489zm-1.526 5.773a.672.672 0 11.657-1.172.672.672 0 01-.657 1.172zm2.857 2.175h-2.37v-1.39a1.38 1.38 0 001.221-1.37A1.38 1.38 0 009.156 13a1.38 1.38 0 00-.55 2.645v1.494H7.21a.423.423 0 01-.423-.422V8.874h2.178c.003.005.193.725.961.961v2.202c0 .195.159.353.353.353h1.405v4.75zm5.53-.423a.422.422 0 01-.422.422H12.39v-1.527h4.824v1.105zm0-1.812H12.39V12.39h.845a1.675 1.675 0 001.634 1.318c.922 0 1.672-.75 1.672-1.671 0-.801-.566-1.472-1.318-1.635V6.713h1.568c.233 0 .422.19.422.422v7.771z"/><path d="M23.647 9.79a.353.353 0 000-.707H21.29V7.226h2.357a.353.353 0 000-.707H21.29V4.235a1.6 1.6 0 00-1.599-1.598h-2.21V.353a.353.353 0 00-.707 0v2.284h-1.857V.353a.353.353 0 10-.707 0v2.284h-1.857V.353a.353.353 0 00-.706 0v2.284H9.79V.353a.353.353 0 00-.707 0v2.284H7.226V.353a.353.353 0 00-.707 0v2.284h-.816a.353.353 0 100 .706h13.988c.492 0 .892.4.892.892v15.383a.884.884 0 01-.276.646.353.353 0 10.487.511c.32-.304.496-.716.496-1.157v-2.137h2.357a.353.353 0 000-.707H21.29v-1.857h2.357a.353.353 0 000-.707H21.29v-1.857h2.357a.353.353 0 000-.706H21.29V9.79h2.357z"/></g><defs><clipPath id="clip0"><path fill="#fff" d="M0 0h24v24H0z"/></clipPath></defs></svg>