<svg width="24" height="24" fill="none" xmlns="http://www.w3.org/2000/svg"><path d="M4.125 19.5H6.75v1.503a2.251 2.251 0 001.875 2.213v.409c0 .207.168.375.375.375h6a.375.375 0 00.375-.375v-.41a2.252 2.252 0 001.875-2.212V19.5h2.625a1.877 1.877 0 001.875-1.874V1.875A1.877 1.877 0 0019.875 0H4.125A1.877 1.877 0 002.25 1.875v15.75c0 1.035.84 1.876 1.875 1.876zM7.5 21v-1.499h.375v1.503c.002.486.316.897.75 1.052v.39A1.499 1.499 0 017.5 21zm2.251-1.5v1.875H9A.375.375 0 018.624 21v-1.499H9.75zm1.124 0v1.875h-.374V19.5h.374zm1.5 0v1.875h-.75V19.5h.75zm1.124 0v1.875h-.374V19.5h.374zm1.876 0V21a.374.374 0 01-.374.375h-.751V19.5h1.125zm-6 3.75v-1.125h5.25v1.125h-5.25zm7.125-2.252V21c0 .697-.48 1.279-1.125 1.446v-.39c.434-.155.748-.566.75-1.053V19.5h.375v1.498zM3 1.875C3 1.255 3.504.75 4.125.75h15.75c.62 0 1.125.505 1.125 1.125v15.75c0 .621-.504 1.126-1.125 1.126H16.88l-.004-.001H4.125c-.62 0-1.125-.504-1.125-1.124V1.875z" fill="#F8F8F8"/><path d="M4.13 9.713c-.002.692.08 1.389.264 2.075a7.92 7.92 0 00.762 1.845c.006.014.014.025.021.038a7.816 7.816 0 002.885 2.9 7.873 7.873 0 003.93 1.055 7.885 7.885 0 003.896-1.034c.009-.003.016-.009.025-.013a7.87 7.87 0 002.906-2.89 7.82 7.82 0 001.049-3.876.379.379 0 00-.004-.152 7.918 7.918 0 00-1.018-3.78.343.343 0 00-.052-.096 7.818 7.818 0 00-2.857-2.855 7.875 7.875 0 00-3.93-1.056 7.884 7.884 0 00-3.895 1.034l-.023.012a7.87 7.87 0 00-2.91 2.893 7.815 7.815 0 00-1.05 3.885c0 .005.002.01.001.015zm.775.643c.353.137.825.272 1.322.272.525 0 1.077-.151 1.538-.612.714-.714 1.646-.268 1.995-.057.011.121.034.238.064.353-.783.071-1.778.452-2.084 1.592-.263.984-1.507 1.179-2.013 1.214a7.158 7.158 0 01-.609-1.524 7.235 7.235 0 01-.213-1.238zM9.847 5.49c-.981-.263-1.174-1.506-1.212-2.012a7.133 7.133 0 012.76-.825c-.282.727-.557 1.965.34 2.862.713.714.268 1.645.056 1.995a2.4 2.4 0 00-.352.063c-.072-.783-.453-1.778-1.592-2.083zm5.177-2.189c-.608.488-1.464 1.423-1.136 2.648.261.977-.594 1.561-.95 1.758a2.15 2.15 0 00-.337-.123c.33-.713.498-1.766-.336-2.6-.72-.72-.26-1.899-.041-2.354.968.03 1.922.26 2.8.671zm4.068 5.842c-.727-.282-1.962-.554-2.857.341-.713.714-1.646.268-1.995.057a2.192 2.192 0 00-.063-.353c.782-.07 1.777-.453 2.083-1.591.263-.982 1.502-1.172 2.01-1.211.457.855.738 1.793.822 2.757zm-.645 3.628c-.488-.608-1.421-1.463-2.647-1.133-.975.261-1.56-.594-1.758-.951.05-.107.091-.22.123-.335.33.153.731.27 1.15.27.49 0 1.002-.159 1.45-.607.72-.72 1.898-.262 2.353-.042a7.057 7.057 0 01-.671 2.798zm-4.294 1.238c.981.263 1.175 1.505 1.212 2.012a7.138 7.138 0 01-2.76.824c.283-.727.557-1.964-.34-2.86-.713-.715-.268-1.647-.056-1.997.12-.01.238-.033.353-.063.071.784.452 1.778 1.591 2.084zm-5.177 2.188c.608-.488 1.465-1.422 1.137-2.647-.262-.977.593-1.562.95-1.758.107.05.22.09.335.123-.33.713-.496 1.765.337 2.6.721.72.26 1.898.042 2.352a7.097 7.097 0 01-2.8-.67zM12 8.25a1.501 1.501 0 11-1.5 1.5c0-.827.673-1.5 1.5-1.5zm-5.841 5.571c.77-.118 1.978-.498 2.306-1.723.262-.978 1.295-1.056 1.702-1.048.07.098.145.19.228.275-.642.453-1.312 1.28-1.007 2.42.262.98-.717 1.77-1.137 2.055a7.071 7.071 0 01-2.092-1.979zm9.912 1.768c-.119-.77-.5-1.976-1.724-2.303-.977-.263-1.055-1.296-1.047-1.703.098-.07.19-.145.275-.229.453.642 1.28 1.312 2.42 1.009.985-.264 1.773.72 2.057 1.138a7.095 7.095 0 01-1.98 2.088zm1.767-9.908c-.771.12-1.976.5-2.303 1.722-.262.978-1.295 1.056-1.702 1.047a2.318 2.318 0 00-.229-.274c.642-.453 1.313-1.28 1.008-2.42-.263-.98.716-1.77 1.136-2.056a7.062 7.062 0 012.09 1.98zM7.929 3.91c.119.77.5 1.977 1.724 2.304.977.262 1.055 1.296 1.047 1.703-.097.07-.19.145-.274.228-.453-.643-1.28-1.313-2.42-1.008-.983.263-1.773-.721-2.058-1.14A7.092 7.092 0 017.93 3.912zM5.553 6.727c.487.608 1.42 1.463 2.647 1.136.978-.261 1.562.593 1.758.95a2.2 2.2 0 00-.123.336c-.714-.33-1.766-.497-2.6.337-.724.723-1.907.257-2.359.039a7.044 7.044 0 01.677-2.798z" fill="#F8F8F8"/></svg>