<svg width="24" height="24" fill="none" xmlns="http://www.w3.org/2000/svg"><g clip-path="url(#clip0)" fill="#D1D1D1"><path d="M7.683 10.459c.115-.043.234-.074.355-.09l.188-.282c.247-.37.277-.845.078-1.244l-.278-.555a3.702 3.702 0 00-1.837.629l.136.046a2.07 2.07 0 011.358 1.496zm1.579.22l.331-.067a1.24 1.24 0 00.934-.825l.197-.587a3.714 3.714 0 00-1.745-.856l.064.13c.32.643.284 1.406-.096 2.016.112.05.217.114.315.189zm-2.496.65c.05-.112.114-.218.189-.316l-.067-.33a1.241 1.241 0 00-.825-.935l-.587-.195a3.71 3.71 0 00-.856 1.743l.13-.064a2.073 2.073 0 012.016.097zm-.146 8.119h.828v.828h-.827v-.828zM9.103 12a.828.828 0 11-1.655 0 .828.828 0 011.655 0zM5.24 13.95a2.068 2.068 0 011.495-1.358 1.633 1.633 0 01-.09-.355l-.282-.188a1.241 1.241 0 00-1.244-.077l-.555.277c.043.658.26 1.292.63 1.838l.045-.137zm2.05-.629l-.332.067a1.241 1.241 0 00-.934.825l-.196.587c.496.435 1.097.73 1.744.855l-.064-.128a2.069 2.069 0 01.097-2.017 1.643 1.643 0 01-.315-.189zm-2.324 6.127h.827v.828h-.827v-.828zm3.902-5.907a1.624 1.624 0 01-.355.09l-.187.282a1.24 1.24 0 00-.078 1.244l.277.554a3.7 3.7 0 001.838-.628l-.137-.046a2.071 2.071 0 01-1.358-1.496zm2.718 5.907h.828v.828h-.828v-.828zm-1.655 0h.828v.828H9.93v-.828zm6.621 0h.827v.828h-.827v-.828zm-1.656 0h.828v.828h-.828v-.828zm-1.655 0h.828v.828h-.828v-.828zm6.597-7.686l.282.188c.37.247.845.276 1.244.078l.554-.278a3.698 3.698 0 00-.629-1.837l-.045.136a2.069 2.069 0 01-1.496 1.358c.043.115.073.234.09.355zM18.8 13.541a1.625 1.625 0 01-.355.09l-.188.282a1.24 1.24 0 00-.078 1.244l.277.554a3.7 3.7 0 001.838-.628l-.137-.046a2.071 2.071 0 01-1.358-1.496zM19.035 12a.828.828 0 11-1.656 0 .828.828 0 011.655 0zm1.775.986a2.069 2.069 0 01-1.093-.315c-.05.112-.114.218-.189.315l.067.332c.087.436.402.793.825.933l.587.196a3.71 3.71 0 00.855-1.743l-.128.064a2.065 2.065 0 01-.925.218z"/><path d="M3.967 7.862l1.655-1.655h5.274l1.656 1.241h1.38l1.654-1.241h5.243l2.328 2.069H24V6.62c0-.686-.556-1.242-1.241-1.242H2.483V3.724c0-.686-.556-1.241-1.242-1.241H0v.827h1.241c.229 0 .414.186.414.414v7.034H.828v.828h.827v1.242h-.414v3.31h.414v1.241H.828v.828h.827v3.31h.828v-2.896h20.276c.685 0 1.241-.556 1.241-1.242v-1.655h-.843l-2.328 2.069h-5.243l-1.655-1.241h-1.38l-1.655 1.241H5.622l-1.655-1.655H2.483v-.828h1.826l1.655 1.655h4.657l1.655-1.241h1.93l1.656 1.241h4.652l2.328-2.069H24V9.104h-1.159l-2.328-2.069h-4.651l-1.655 1.242h-1.931l-1.655-1.242H5.964L4.31 8.69H2.483v-.828h1.484zm14.24-.414a4.552 4.552 0 110 9.103 4.552 4.552 0 010-9.103zm-9.931 0a4.552 4.552 0 110 9.104 4.552 4.552 0 010-9.104z"/><path d="M17.22 13.321l-.33.067a1.241 1.241 0 00-.934.825l-.197.587c.495.435 1.097.73 1.744.855l-.064-.128a2.068 2.068 0 01.097-2.017 1.642 1.642 0 01-.316-.189zm-6.342-.335a2.07 2.07 0 01-1.092-.315c-.05.112-.114.218-.189.315l.067.332c.087.436.402.793.825.933l.587.196a3.71 3.71 0 00.855-1.743l-.128.064a2.066 2.066 0 01-.925.218zm4.292.964a2.068 2.068 0 011.496-1.358 1.625 1.625 0 01-.09-.355l-.282-.188a1.241 1.241 0 00-1.244-.077l-.555.277c.043.658.26 1.292.63 1.838l.045-.137zm4.023-3.271l.331-.067a1.24 1.24 0 00.934-.825l.197-.587a3.714 3.714 0 00-1.745-.856l.064.13c.32.643.284 1.406-.096 2.016.112.05.218.114.315.189zm-9.286 1.083l.282.188c.37.247.845.276 1.244.078l.554-.278a3.7 3.7 0 00-.629-1.837l-.045.136a2.069 2.069 0 01-1.496 1.358c.043.115.073.234.09.355zm6.79-.433c.05-.112.114-.218.189-.316l-.067-.33a1.241 1.241 0 00-.825-.935l-.587-.195a3.71 3.71 0 00-.855 1.743l.128-.064a2.073 2.073 0 012.017.097zm.917-.87c.115-.043.234-.074.355-.09l.188-.282c.247-.37.277-.845.078-1.244l-.278-.555a3.701 3.701 0 00-1.837.629l.136.046a2.07 2.07 0 011.358 1.496z"/></g><defs><clipPath id="clip0"><path fill="#fff" d="M0 0h24v24H0z"/></clipPath></defs></svg>