<svg width="24" height="24" fill="none" xmlns="http://www.w3.org/2000/svg"><path d="M3.75 1.875v20.25c0 1.033.84 1.875 1.874 1.875h12.752a1.877 1.877 0 001.875-1.875V1.876A1.877 1.877 0 0018.376 0H5.624A1.877 1.877 0 003.75 1.875zm3.003 15.76A1.869 1.869 0 008.625 19.5c.014 0 .027-.003.041-.004.007 0 .012.004.018.004h2.47l2.252 2.25H5.624c-.62 0-1.125-.505-1.125-1.125v-7.723l2.251 2.253v2.47c0 .004.002.007.003.01zm7.18-5.317a.375.375 0 00-.462-.054 248.67 248.67 0 00-3.324 2.084A6.389 6.389 0 015.625 8.25 6.382 6.382 0 0112 1.876a6.382 6.382 0 016.375 6.375c0 3.188-2.406 5.875-5.495 6.31.55-.876.987-1.587 1.107-1.781a.375.375 0 00-.055-.462zm-1.428 1.427c-1.272 2.037-2.754 4.346-3.084 4.676a1.152 1.152 0 01-1.591 0 1.126 1.126 0 010-1.591c.33-.33 2.639-1.812 4.675-3.085zm5.87 9.505H5.626A1.127 1.127 0 014.5 22.125v-.01a1.86 1.86 0 001.125.385h12.752c.423 0 .81-.147 1.125-.385v.01c0 .62-.505 1.125-1.125 1.125zm1.126-21.375v18.75c0 .62-.505 1.125-1.125 1.125h-3.909l-2.892-2.89a.372.372 0 00-.265-.11h-1.188c.455-.582 1.405-2.05 2.255-3.39 3.739-.2 6.748-3.341 6.748-7.109A7.133 7.133 0 0012 1.126a7.133 7.133 0 00-7.125 7.125 7.143 7.143 0 004.476 6.61c-.796.519-1.492.988-1.85 1.268V15l-.001-.003a.374.374 0 00-.11-.262L4.5 11.841V1.876C4.5 1.254 5.003.75 5.623.75h12.752c.62 0 1.125.505 1.125 1.125z" fill="#F8F8F8"/><path d="M12 6.001c-1.24 0-2.25 1.01-2.25 2.25s1.01 2.25 2.25 2.25 2.25-1.01 2.25-2.25-1.01-2.25-2.25-2.25zm0 3.75c-.827 0-1.5-.673-1.5-1.5s.673-1.5 1.5-1.5 1.5.673 1.5 1.5-.673 1.5-1.5 1.5z" fill="#F8F8F8"/><path d="M12.01 7.876a.375.375 0 100-.75h-.003a.373.373 0 00-.373.375c0 .207.17.375.377.375zm0 .75h-.003a.373.373 0 00-.373.375.376.376 0 00.752 0 .375.375 0 00-.375-.375zm.75-.75h-.003a.373.373 0 00-.373.375.376.376 0 00.752 0 .375.375 0 00-.375-.375zM8.635 18a.375.375 0 100-.75h-.004a.373.373 0 00-.372.375c0 .208.17.375.376.375zm-3 2.25h-.004a.373.373 0 00-.372.375.376.376 0 00.751 0 .375.375 0 00-.375-.375zM11.26 7.876h-.003a.373.373 0 00-.373.375.376.376 0 00.752 0 .375.375 0 00-.375-.375z" fill="#F8F8F8"/></svg>