<svg width="24" height="24" fill="none" xmlns="http://www.w3.org/2000/svg"><path d="M20.133 8.4a.456.456 0 100-.912.456.456 0 000 .912zm0 7.86a.456.456 0 100-.912.456.456 0 000 .913zM12.272 8.4a.456.456 0 100-.912.456.456 0 000 .912zm0 7.86a.456.456 0 100-.912.456.456 0 000 .913zM7.808 5.48a.359.359 0 100-.718H7.31v-.796h.498a.359.359 0 100-.718H7.31v-.084a.714.714 0 00-.713-.713H4.19a.714.714 0 00-.712.713v.084H2.98a.359.359 0 100 .718h.498v.796H2.98a.359.359 0 100 .718h.498v.796H2.98a.359.359 0 100 .717h.498v.796H2.98a.359.359 0 100 .718h.498v.796H2.98a.359.359 0 100 .717h.498v.796H2.98a.359.359 0 100 .718h.498v.796H2.98a.359.359 0 000 .717h.498v.796H2.98a.359.359 0 000 .718h.498v.272c0 .393.32.713.712.713h2.408c.393 0 .713-.32.713-.713v-.272h.498a.359.359 0 000-.718H7.31v-.796h.498a.359.359 0 000-.717H7.31v-.796h.498a.359.359 0 100-.718H7.31v-.796h.498a.359.359 0 100-.717H7.31v-.796h.498a.359.359 0 100-.718H7.31v-.796h.498a.359.359 0 100-.717H7.31V5.48h.498zm-3.614 9.353h-.358.358zm2.398-.005H4.194V3.17h2.398v11.66z" fill="#F8F8F8"/><path d="M22.597.917h-2.469V.64a.566.566 0 00-.565-.565h-6a.566.566 0 00-.566.565v.277H11.87V.64a.566.566 0 00-.566-.565h-1.43A.566.566 0 009.31.64v.277h-3.2a.359.359 0 100 .718h3.2v.435c0 .312.254.566.565.566h1.43a.566.566 0 00.566-.566v-.435h1.127v.435c0 .312.254.566.566.566h6a.566.566 0 00.565-.566v-.435h2.469c.378 0 .685.307.685.685v20.202a.686.686 0 01-.685.686H2.395a.686.686 0 01-.686-.686v-.407h.39c.32 0 .58-.26.58-.58v-3.402a.58.58 0 00-.58-.58h-.39V2.32c0-.378.308-.685.686-.685h1.8a.359.359 0 100-.718h-1.8C1.62.917.992 1.547.992 2.32v15.234H.58a.58.58 0 00-.58.58v3.401c0 .32.26.58.58.58h.412v.407c0 .774.63 1.403 1.403 1.403h20.202c.774 0 1.403-.63 1.403-1.403V2.32c0-.774-.63-1.403-1.403-1.403zm-11.445 1h-1.125V.793h1.125v1.126zm8.259 0h-5.696V.793h5.696v1.126zM.718 21.398v-3.126h1.244v3.127H.718z" fill="#F8F8F8"/><path d="M16.202 7.534a4.294 4.294 0 00-4.289 4.289 4.294 4.294 0 004.29 4.288 4.294 4.294 0 004.288-4.288 4.294 4.294 0 00-4.289-4.29zm0 7.86a3.575 3.575 0 01-3.571-3.571 3.575 3.575 0 013.571-3.572 3.575 3.575 0 013.572 3.572 3.575 3.575 0 01-3.572 3.57z" fill="#F8F8F8"/><path d="M19.213 11.007c-.362-.315-1.045-.374-2.085-.179a4.868 4.868 0 01.651-1.288.594.594 0 00-.368-.928c-1.058-.215-1.72-.15-2.025.2-.314.362-.373 1.045-.178 2.085a4.862 4.862 0 01-1.288-.651.595.595 0 00-.929.368c-.214 1.058-.149 1.72.2 2.024.224.194.57.291 1.045.291.296 0 .643-.038 1.041-.112a4.87 4.87 0 01-.651 1.287.594.594 0 00.367.93 5.43 5.43 0 001.042.122c.47 0 .795-.107.983-.323.315-.362.374-1.045.179-2.085a4.866 4.866 0 011.287.651.595.595 0 00.93-.368c.214-1.058.148-1.72-.201-2.024zm-5.55 1.09c-.048-.047-.144-.36-.003-1.16.312.206.731.44 1.224.61-.018.088-.028.18-.028.274v.001l.002.078.002.026a1.67 1.67 0 00.016.126l.006.032.01.045.005.024c-.726.11-1.116.047-1.234-.056zm2.814 2.264c-.047.049-.36.144-1.16.003.206-.31.44-.73.61-1.224.073.015.148.024.225.027h.01l.04.002.023-.001h.016a1.52 1.52 0 00.197-.02l.03-.006.035-.008.03-.007c.11.726.047 1.116-.056 1.234zm.354-2.539a.627.627 0 01-.003.056l-.002.018a.606.606 0 01-.015.08l-.004.017a.597.597 0 01-.012.036l-.001.003a.632.632 0 01-.054.114l-.001.002a.633.633 0 01-.154.172h-.001a.627.627 0 01-.163.09l-.023.01-.025.007-.032.008a.566.566 0 01-.061.01l-.02.003a.63.63 0 01-.113 0l-.019-.002a.603.603 0 01-.08-.015l-.016-.004a.591.591 0 01-.037-.012l-.003-.001a.636.636 0 01-.114-.054l-.002-.001a.632.632 0 01-.17-.153l-.002-.002a.633.633 0 01-.09-.163l-.009-.023-.007-.026a.548.548 0 01-.019-.092l-.002-.02a.59.59 0 01.017-.212l.004-.016a.77.77 0 01.011-.036l.002-.004a.63.63 0 01.054-.114v-.001a.636.636 0 01.318-.263l.024-.009.025-.007a.877.877 0 01.093-.019l.019-.002a.633.633 0 01.213.017l.016.004a.597.597 0 01.153.067h.002a.645.645 0 01.171.154l.001.002c.039.05.069.105.09.162l.01.024.007.025a.565.565 0 01.019.093l.002.019a.6.6 0 01.003.058zm-.353-1.317a1.358 1.358 0 00-.225-.028h-.09c-.019 0-.037.002-.056.003-.007 0-.014 0-.02.002a1.18 1.18 0 00-.12.015l-.03.005a1.117 1.117 0 00-.035.008l-.03.007c-.11-.726-.047-1.116.056-1.233.028-.03.156-.078.434-.078.177 0 .414.02.725.074-.205.312-.44.731-.609 1.225zm2.266 2.202a5.477 5.477 0 00-1.224-.609 1.309 1.309 0 00.026-.353l-.002-.026a1.343 1.343 0 00-.015-.126l-.006-.032a1.141 1.141 0 00-.01-.046l-.006-.024c.726-.11 1.116-.046 1.234.057.049.047.144.36.003 1.16zm-12.99 4.421a1.336 1.336 0 00-1.887 0 1.336 1.336 0 00.944 2.276 1.336 1.336 0 00.943-2.277zm-.507 1.379a.617.617 0 11-.872-.874.617.617 0 01.872.874zm.507 1.786a1.336 1.336 0 00-1.887 0 1.336 1.336 0 00.944 2.277 1.336 1.336 0 00.943-2.277zm-.507 1.38a.617.617 0 11-.872-.875.617.617 0 01.872.874zm3.73-4.546a1.336 1.336 0 00-1.887 0 1.336 1.336 0 00.943 2.277 1.336 1.336 0 00.943-2.277zm-.508 1.38a.617.617 0 11-.872-.874.617.617 0 01.872.874zm.508 1.786a1.336 1.336 0 00-1.887 0 1.336 1.336 0 00.943 2.277 1.336 1.336 0 00.943-2.277zm-.508 1.38a.617.617 0 11-.872-.875.617.617 0 01.872.874zm4.286-17.33a1.318 1.318 0 00-2.247.931c0 .352.137.682.386.93a1.3 1.3 0 00.93.386 1.318 1.318 0 00.93-2.247zm-.507 1.354a.6.6 0 11-.847-.848.6.6 0 01.847.848zm4.885-1.354a1.308 1.308 0 00-.93-.385 1.318 1.318 0 000 2.633 1.318 1.318 0 00.93-2.247zm-.507 1.354a.595.595 0 01-.847 0 .6.6 0 11.847 0zm4.885-1.354a1.318 1.318 0 00-1.862 0 1.318 1.318 0 00.931 2.247c.352 0 .682-.137.931-.385.249-.249.386-.58.386-.931 0-.352-.137-.682-.386-.93zm-.508 1.354a.6.6 0 11-.846-.848.6.6 0 01.846.848zm.81 11.566H10.592a.359.359 0 000 .718h11.22a.359.359 0 100-.718zm0 2.032H10.592a.359.359 0 000 .718h11.22a.359.359 0 000-.718zm-9.795 2.032h-1.426a.359.359 0 100 .717h1.426a.359.359 0 100-.717zm9.795 0h-7.9a.359.359 0 100 .717h7.9a.359.359 0 100-.717z" fill="#F8F8F8"/></svg>