<svg width="24" height="24" fill="none" xmlns="http://www.w3.org/2000/svg"><g clip-path="url(#clip0)" fill="#F8F8F8"><path d="M23.97 5.649l-.002-.008-1.2-2.8a.4.4 0 00-.368-.243H1.598a.4.4 0 00-.367.243l-1.2 2.8v.007a.392.392 0 00-.028.133c0 .006-.003.011-.003.017V21c0 .22.18.4.4.4h23.2a.4.4 0 00.4-.4V5.798c0-.006-.003-.01-.003-.016a.402.402 0 00-.027-.133zM1.862 3.399h20.274l.857 2H1.005l.857-2zm21.338 17.2H.798V6.2H23.2v14.4z"/><path d="M17.317 12.482a.4.4 0 00.282.117h3.2a.4.4 0 00.284-.117l1.2-1.2a.4.4 0 00.117-.283V9a.4.4 0 00-.4-.4h-5.6a.4.4 0 00-.4.4v2a.4.4 0 00.117.283l1.2 1.2zm-.518-3.083h4.8v1.434l-.965.966h-2.869l-.966-.966V9.4z"/><path d="M18.284 10.483a.467.467 0 00.084-.132.4.4 0 10-.084.132zm.764.884c.149.064.321.03.436-.084a.468.468 0 00.084-.132.397.397 0 00-.215-.524.4.4 0 00-.553.372.395.395 0 00.116.284.458.458 0 00.132.084zm1.068-.884c.157.154.41.154.568 0a.468.468 0 00.084-.132.4.4 0 00.032-.152.42.42 0 00-.116-.284.407.407 0 00-.364-.108.253.253 0 00-.072.024.312.312 0 00-.073.036.677.677 0 00-.06.048.418.418 0 00-.115.284.335.335 0 00.032.152c.02.048.048.093.084.132zM21.6 15.8h-4.8a.4.4 0 00-.4.4v2.4c0 .22.178.4.4.4h4.8a.4.4 0 00.4-.4v-2.4a.4.4 0 00-.4-.4zm-4.4.8h1.6v1.6h-1.6v-1.6zm4 1.6h-1.6v-1.6h1.6v1.6zM1.998 19.8h1.6V19h-1.2v-1.2h-.8v1.6c0 .22.18.4.4.4zM13.6 8.999h.8v-1.6a.4.4 0 00-.4-.4h-1.6v.8h1.2v1.2zm-11.202-1.2h1.2v-.8h-1.6a.4.4 0 00-.4.4v1.6h.8v-1.2zM13.6 19h-1.2v.8H14a.4.4 0 00.4-.4v-1.6h-.8V19zM7.999 7.399a6 6 0 106 6 6.007 6.007 0 00-6-6zm3.38 8.814a4.388 4.388 0 000-5.628l.564-.565a5.174 5.174 0 010 6.758l-.565-.565zM9.998 13.4c0 .392-.116.775-.333 1.101l-.587-.587a1.16 1.16 0 000-1.028l.587-.587c.217.326.333.71.333 1.101zm-4 0c0-.392.116-.775.333-1.101l.587.587a1.154 1.154 0 000 1.028l-.588.587A1.987 1.987 0 016 13.4zm1.6 0a.4.4 0 11.8 0 .4.4 0 01-.8 0zm.914-1.08a1.158 1.158 0 00-1.028 0l-.588-.587a1.986 1.986 0 012.203 0l-.587.587zm-1.028 2.16c.323.16.704.16 1.028 0l.587.588a1.987 1.987 0 01-2.203 0l.588-.588zm2.187-3.32a2.778 2.778 0 00-3.347 0l-.571-.57a3.584 3.584 0 014.49 0l-.572.57zm-3.914.566a2.778 2.778 0 000 3.348l-.57.57a3.583 3.583 0 010-4.488l.57.57zm.567 3.914c.99.748 2.357.748 3.347 0l.571.571a3.584 3.584 0 01-4.489 0l.571-.57zm3.914-.566a2.778 2.778 0 000-3.348l.57-.57a3.583 3.583 0 010 4.489l-.57-.571zm1.14-5.618l-.566.565a4.389 4.389 0 00-5.627 0l-.566-.565a5.174 5.174 0 016.759 0zm-7.325.565l.565.565a4.389 4.389 0 000 5.628l-.565.565a5.175 5.175 0 010-6.758zm.566 7.324l.565-.565a4.388 4.388 0 005.627 0l.566.565a5.174 5.174 0 01-6.758 0z"/></g><defs><clipPath id="clip0"><path fill="#fff" d="M0 0h24v24H0z"/></clipPath></defs></svg>