<svg width="24" height="24" fill="none" xmlns="http://www.w3.org/2000/svg"><path d="M6.352 23.182a.769.769 0 01-.548-.227L2.81 19.961a.781.781 0 01-.112-.951.749.749 0 00-1.02-1.02.781.781 0 01-.951-.113l-.304-.303a.776.776 0 010-1.095L16.299.603a.775.775 0 011.095 0l.304.303c.25.255.296.646.111.952a.749.749 0 001.021 1.02.783.783 0 01.952.112l2.994 2.994a.775.775 0 010 1.095L6.898 22.956a.767.767 0 01-.547.226zm-4.296-6.073c.404 0 .79.16 1.076.446.488.49.59 1.243.25 1.844l2.98 3L22.218 6.523l-2.994-2.977a1.519 1.519 0 01-1.849-.234 1.539 1.539 0 01-.25-1.844l-.288-.31L.979 17.036l.304.286c.234-.139.501-.212.773-.212z" fill="#F8F8F8"/><path d="M8.236 23.99a.768.768 0 01-.548-.227l-1.076-1.077a.393.393 0 11.556-.556l1.077 1.076 3.48-3.498-1.076-1.058a.393.393 0 01.556-.556l1.076 1.076a.775.775 0 010 1.095l-3.498 3.498a.767.767 0 01-.547.226zm5.92-5.921a.769.769 0 01-.548-.226l-1.076-1.077a.393.393 0 01.556-.556l1.077 1.076 8.862-8.88-1.076-1.058a.394.394 0 01.556-.556l1.076 1.076a.775.775 0 010 1.095l-8.88 8.88a.767.767 0 01-.547.226z" fill="#F8F8F8"/><path d="M9.581 22.802a.392.392 0 01-.278-.116l-1.345-1.345a.394.394 0 01.556-.556L9.86 22.13a.393.393 0 01-.279.672zm1.346-1.346a.392.392 0 01-.278-.115l-1.346-1.346a.394.394 0 01.557-.556l1.345 1.346a.393.393 0 01-.278.671zm4.574-4.575a.392.392 0 01-.278-.115l-1.345-1.345a.393.393 0 01.556-.556l1.346 1.345a.393.393 0 01-.279.671zm1.346-1.345a.392.392 0 01-.278-.115l-1.346-1.346a.393.393 0 01.557-.556l1.345 1.346a.393.393 0 01-.278.671zm1.346-1.346a.392.392 0 01-.279-.115L16.57 12.73a.393.393 0 01.556-.556l1.346 1.345a.393.393 0 01-.278.672zm1.345-1.345a.392.392 0 01-.279-.115l-1.345-1.345a.393.393 0 11.557-.557l1.345 1.346a.394.394 0 01-.278.671zm1.345-1.345a.392.392 0 01-.278-.115l-1.346-1.346a.393.393 0 11.557-.556l1.345 1.345a.394.394 0 01-.278.672zm1.346-1.346a.392.392 0 01-.278-.115l-1.346-1.345a.393.393 0 01.556-.557l1.346 1.346a.394.394 0 01-.278.672zM6.89 19.948a.784.784 0 01-.556-.23L3.66 17.044a.788.788 0 010-1.113l1.866-1.866a.787.787 0 011.112 0l2.673 2.673a.788.788 0 010 1.113l-1.865 1.865a.784.784 0 01-.557.23zm-.807-5.325l-1.865 1.865 2.672 2.673 1.866-1.866-2.673-2.672zm4.306 1.827a.785.785 0 01-.557-.23L7.16 13.545a.787.787 0 010-1.112l1.865-1.866a.787.787 0 011.113 0l2.672 2.673a.786.786 0 010 1.113l-1.865 1.865a.785.785 0 01-.556.23zm-.808-5.325L7.716 12.99l2.673 2.673 1.865-1.866-2.673-2.672zm4.306 1.826a.784.784 0 01-.556-.23l-2.673-2.673a.789.789 0 010-1.112l1.865-1.866a.782.782 0 011.113 0l2.673 2.673a.787.787 0 010 1.112l-1.866 1.866a.784.784 0 01-.556.23zm-.807-5.325l-1.866 1.866 2.673 2.672 1.866-1.865-2.673-2.673zm4.305 1.827a.786.786 0 01-.556-.23L14.156 6.55a.787.787 0 010-1.113l1.865-1.865a.781.781 0 01.557-.23.78.78 0 01.557.23l2.672 2.672a.787.787 0 010 1.113l-1.865 1.866a.785.785 0 01-.557.23zm-.807-5.325l-1.866 1.866 2.673 2.672 1.866-1.865-2.673-2.673z" fill="#F8F8F8"/></svg>