<svg width="24" height="24" fill="none" xmlns="http://www.w3.org/2000/svg"><path d="M16.533 23.25A1.468 1.468 0 0018 21.783V2.217A1.468 1.468 0 0016.533.75H7.467A1.468 1.468 0 006 2.217v19.566a1.468 1.468 0 001.467 1.467h9.066zM6.75 21.783V2.217a.717.717 0 01.717-.717h9.066a.717.717 0 01.717.717v19.566a.718.718 0 01-.717.717H7.467a.718.718 0 01-.717-.717z" fill="#F8F8F8"/><path d="M7.875 7.5h8.25a.375.375 0 00.375-.375v-4.5a.375.375 0 00-.375-.375h-8.25a.375.375 0 00-.375.375v4.5a.375.375 0 00.375.375zm7.875-.75h-7.5v-1.5h7.5v1.5zM8.25 3h7.5v1.5h-7.5V3zm5.063 11.976l-.376.65a1.876 1.876 0 11-1.874 0l-.376-.65a2.625 2.625 0 102.626 0z" fill="#F8F8F8"/><path d="M11.625 13.875h.75v3.375h-.75v-3.375zM10.125 21h1.125v.75h-1.125V21zm2.625 0h1.125v.75H12.75V21zM12 8.25a1.5 1.5 0 00-1.447 1.125H8.625v.75h1.928a1.493 1.493 0 002.894 0h1.928v-.75h-1.928A1.5 1.5 0 0012 8.25zm0 2.25A.75.75 0 1112 9a.75.75 0 010 1.5z" fill="#F8F8F8"/></svg>