<svg width="24" height="24" fill="none" xmlns="http://www.w3.org/2000/svg"><g clip-path="url(#clip0)" fill="#F8F8F8"><path d="M18.386 2.25a.375.375 0 100-.75h-.003a.373.373 0 00-.373.375c0 .207.17.375.376.375zm-12.75 0a.375.375 0 100-.75h-.003a.373.373 0 00-.373.375c0 .207.17.375.376.375zm12.75 18.768a.375.375 0 100-.75h-.003a.373.373 0 00-.373.375c0 .208.17.375.376.375zm-12.75 0a.375.375 0 100-.75h-.003a.373.373 0 00-.373.375c0 .208.17.375.376.375z"/><path d="M5.625 24h12.75a1.877 1.877 0 001.875-1.875V1.875A1.877 1.877 0 0018.375 0H5.625A1.877 1.877 0 003.75 1.875v20.25c0 1.034.841 1.875 1.875 1.875zm12.75-.75H5.625c-.62 0-1.125-.505-1.125-1.125v-.01c.314.238.701.385 1.125.385h12.75c.424 0 .81-.147 1.125-.385v.01c0 .62-.505 1.125-1.125 1.125zM9.374 21h.376a.375.375 0 10.75 0h.373v.75h-1.5V21zM12 21a.375.375 0 10.75 0h.375a.375.375 0 10.75 0h.375a.375.375 0 10.75 0h.375a.375.375 0 10.75 0h.375v.75h-4.877V21H12zM4.5 1.875c0-.62.505-1.125 1.125-1.125h12.75c.62 0 1.125.505 1.125 1.125v18.75c0 .62-.505 1.125-1.125 1.125H17.25v-1.125a.375.375 0 00-.375-.375H8.999a.375.375 0 00-.375.375v1.125H5.625c-.62 0-1.125-.505-1.125-1.125V1.875z"/><path d="M8.248 13.13a.75.75 0 01-.75-.75.375.375 0 10-.75 0c0 .826.673 1.5 1.5 1.5.828 0 1.5-.674 1.5-1.5 0-.786-.753-1.47-1.417-2.074-.311-.283-.833-.757-.833-.928a.75.75 0 011.5 0 .375.375 0 10.75 0 1.501 1.501 0 00-3 0c0 .504.5.957 1.078 1.483.523.475 1.172 1.065 1.172 1.518a.75.75 0 01-.75.75zm3.752 0a.75.75 0 01-.75-.75.375.375 0 10-.75 0c0 .826.673 1.5 1.5 1.5.828 0 1.5-.674 1.5-1.5 0-.786-.753-1.47-1.417-2.074-.311-.283-.833-.757-.833-.928a.75.75 0 011.5 0 .375.375 0 10.75 0 1.501 1.501 0 00-3 0c0 .504.5.957 1.078 1.483.523.475 1.172 1.065 1.172 1.518a.75.75 0 01-.75.75zm2.625.75h1.125c.828 0 1.5-.674 1.5-1.5V9.377c0-.827-.672-1.5-1.5-1.5h-1.125a.375.375 0 00-.375.375v5.251c0 .207.168.375.375.375zM16.5 9.377v3.001a.75.75 0 01-.75.75H15v-4.5h.75a.75.75 0 01.75.75z"/></g><defs><clipPath id="clip0"><path fill="#fff" d="M0 0h24v24H0z"/></clipPath></defs></svg>