<svg width="32" height="32" fill="#009687" xmlns="http://www.w3.org/2000/svg"><g clip-path="url(#clip0)"><path d="M31.506 3.179c-.391-.478-.977-.741-1.649-.741-.365 0-.752.076-1.15.228L1.618 13.006C.182 13.557-.012 14.379 0 14.82c.013.442.253 1.253 1.72 1.72a.884.884 0 00.026.008l5.618 1.608 3.039 8.689c.414 1.184 1.344 1.92 2.427 1.92.683 0 1.355-.286 1.943-.827l3.475-3.2 5.04 4.059h.002l.048.04.014.01c.56.434 1.171.664 1.769.664 1.167 0 2.097-.864 2.367-2.2l4.439-21.916c.178-.88.029-1.666-.421-2.216zM9.244 17.85l10.84-5.538-6.75 7.172a.936.936 0 00-.227.418l-1.302 5.272-2.561-7.324zm4.258 8.708c-.045.042-.09.079-.135.112l1.207-4.89 2.197 1.769-3.269 3.01zM30.09 5.023l-4.438 21.915c-.043.21-.18.698-.53.698-.173 0-.391-.095-.614-.266l-5.712-4.6-.003-.001-3.399-2.737 9.76-10.372a.938.938 0 00-1.109-1.477L7.991 16.384l-5.695-1.629 27.08-10.337c.228-.087.388-.106.481-.106.058 0 .16.007.197.054.05.06.114.268.035.657z"/></g><defs><clipPath id="clip0"><path fill="#fff" d="M0 0h32v32H0z"/></clipPath></defs></svg>