<svg width="32" height="32" fill="none" xmlns="http://www.w3.org/2000/svg"><path d="M16 0C7.177 0 0 7.177 0 16c0 3.01.836 5.932 2.423 8.469a723.072 723.072 0 00-1.786 6.446.613.613 0 00.775.75l6.342-1.951A15.96 15.96 0 0016 32c8.823 0 16-7.177 16-16S24.823 0 16 0zm0 30.77c-2.78 0-5.49-.778-7.834-2.247a.615.615 0 00-.508-.067L2.12 30.161a621.118 621.118 0 011.562-5.619.618.618 0 00-.075-.505A14.712 14.712 0 011.23 16C1.23 7.857 7.857 1.23 16 1.23S30.77 7.858 30.77 16 24.142 30.77 16 30.77z" fill="#009687"/><path d="M26.452 19.77a44.256 44.256 0 01-2.809-1.725c-.539-.352-.928-.606-1.214-.75-.798-.398-1.403-.117-1.633.116a.613.613 0 00-.077.094c-.83 1.243-1.912 2.433-2.229 2.497-.366-.057-2.08-1.031-3.783-2.45-1.739-1.45-2.833-2.837-2.994-3.782 1.116-1.149 1.518-1.87 1.518-2.693 0-.848-1.977-4.385-2.334-4.743-.36-.358-1.167-.414-2.402-.168a.621.621 0 00-.315.168c-.15.15-3.648 3.717-1.986 8.04 1.826 4.746 6.51 10.262 12.483 11.158a12.95 12.95 0 001.911.152c3.514 0 5.588-1.768 6.172-5.275a.613.613 0 00-.308-.64zm-7.592 4.544c-6.316-.947-10.294-7.204-11.517-10.381-1.212-3.15 1.024-5.96 1.585-6.595.457-.078.937-.11 1.138-.079.419.583 1.87 3.324 1.934 3.818 0 .323-.105.773-1.358 2.026a.613.613 0 00-.18.436c0 3.222 6.796 7.692 8 7.692 1.046 0 2.411-1.76 3.189-2.906.044.002.12.017.228.071.221.112.605.362 1.09.68a49.49 49.49 0 002.5 1.552c-.457 2.197-1.734 4.419-6.609 3.686z" fill="#009687"/></svg>