<svg width="41" height="41" fill="none" xmlns="http://www.w3.org/2000/svg"><g filter="url(#filter0_d)"><path fill-rule="evenodd" clip-rule="evenodd" d="M8.765 1A7.765 7.765 0 001 8.765v23.47A7.765 7.765 0 008.765 40h23.47A7.765 7.765 0 0040 32.235V8.765A7.765 7.765 0 0032.235 1H8.765zm1.328 3.53a5.563 5.563 0 00-5.563 5.563v20.813a5.563 5.563 0 005.564 5.564h20.813a5.563 5.563 0 005.563-5.564V10.093a5.563 5.563 0 00-5.563-5.563H10.093z" fill="#fff"/></g><g filter="url(#filter1_d)"><path fill-rule="evenodd" clip-rule="evenodd" d="M30.537 20.576c0 5.5-4.459 9.96-9.96 9.96-5.5 0-9.958-4.46-9.958-9.96 0-5.5 4.459-9.959 9.959-9.959s9.959 4.46 9.959 9.96zm-3.545 0a6.414 6.414 0 11-12.829 0 6.414 6.414 0 0112.83 0z" fill="#fff"/></g><path fill-rule="evenodd" clip-rule="evenodd" d="M30.874 12.474a2.363 2.363 0 100-4.726 2.363 2.363 0 000 4.726z" fill="#fff"/><defs><filter id="filter0_d" x="0" y="0" width="41" height="41" filterUnits="userSpaceOnUse" color-interpolation-filters="sRGB"><feFlood flood-opacity="0" result="BackgroundImageFix"/><feColorMatrix in="SourceAlpha" values="0 0 0 0 0 0 0 0 0 0 0 0 0 0 0 0 0 0 127 0"/><feOffset/><feGaussianBlur stdDeviation=".5"/><feColorMatrix values="0 0 0 0 0 0 0 0 0 0 0 0 0 0 0 0 0 0 0.0624717 0"/><feBlend in2="BackgroundImageFix" result="effect1_dropShadow"/><feBlend in="SourceGraphic" in2="effect1_dropShadow" result="shape"/></filter><filter id="filter1_d" x="9.619" y="9.617" width="21.918" height="21.918" filterUnits="userSpaceOnUse" color-interpolation-filters="sRGB"><feFlood flood-opacity="0" result="BackgroundImageFix"/><feColorMatrix in="SourceAlpha" values="0 0 0 0 0 0 0 0 0 0 0 0 0 0 0 0 0 0 127 0"/><feOffset/><feGaussianBlur stdDeviation=".5"/><feColorMatrix values="0 0 0 0 0 0 0 0 0 0 0 0 0 0 0 0 0 0 0.05 0"/><feBlend in2="BackgroundImageFix" result="effect1_dropShadow"/><feBlend in="SourceGraphic" in2="effect1_dropShadow" result="shape"/></filter></defs></svg>