<svg width="160" height="160" fill="none" xmlns="http://www.w3.org/2000/svg"><rect x=".5" y=".5" width="159" height="159" rx="79.5" fill="#F8F8F8" stroke="#DADCE0"/><g clip-path="url(#clip0)" fill="#5F6368"><path d="M79.088 77.658c8.47 0 15.806-3.038 21.799-9.032 5.993-5.993 9.031-13.326 9.031-21.798 0-8.469-3.038-15.803-9.032-21.798C94.892 19.038 87.558 16 79.088 16c-8.472 0-15.805 3.038-21.798 9.031-5.993 5.993-9.032 13.327-9.032 21.797 0 8.472 3.039 15.806 9.033 21.799 5.994 5.992 13.328 9.031 21.797 9.031zm53.944 36.768c-.173-2.494-.522-5.215-1.037-8.088-.519-2.895-1.188-5.631-1.989-8.132a40.133 40.133 0 00-3.343-7.584c-1.443-2.539-3.139-4.75-5.041-6.57-1.989-1.903-4.425-3.433-7.241-4.55-2.807-1.11-5.917-1.672-9.244-1.672-1.307 0-2.571.536-5.011 2.125a676.55 676.55 0 01-5.22 3.365c-1.677 1.069-3.948 2.07-6.754 2.976-2.737.886-5.516 1.335-8.26 1.335-2.743 0-5.52-.45-8.261-1.335-2.803-.905-5.074-1.906-6.75-2.975a715.75 715.75 0 01-5.224-3.367c-2.437-1.589-3.702-2.125-5.009-2.125-3.328 0-6.437.564-9.243 1.675-2.814 1.114-5.25 2.644-7.242 4.55-1.901 1.82-3.598 4.03-5.039 6.568a40.252 40.252 0 00-3.343 7.585c-.8 2.501-1.468 5.236-1.988 8.131-.515 2.869-.864 5.591-1.037 8.091-.17 2.449-.256 4.991-.256 7.558 0 6.682 2.124 12.091 6.313 16.08 4.136 3.937 9.61 5.934 16.266 5.934h61.633c6.656 0 12.128-1.996 16.266-5.934 4.189-3.986 6.313-9.396 6.313-16.081a109.153 109.153 0 00-.259-7.56z"/></g><defs><clipPath id="clip0"><path fill="#fff" transform="translate(16 16)" d="M0 0h128v128.001H0z"/></clipPath></defs></svg>